<svg xmlns="http://www.w3.org/2000/svg" xmlns:xlink="http://www.w3.org/1999/xlink" width="118" height="134.228" viewBox="0 0 118 134.228">
  <defs>
    <filter id="Rect치ngulo_36097" x="0" y="0" width="118" height="134.228" filterUnits="userSpaceOnUse">
      <feOffset input="SourceAlpha"/>
      <feGaussianBlur stdDeviation="5.5" result="blur"/>
      <feFlood flood-opacity="0.161"/>
      <feComposite operator="in" in2="blur"/>
      <feComposite in="SourceGraphic"/>
    </filter>
  </defs>
  <g id="Grupo_154609" data-name="Grupo 154609" transform="translate(-163.5 -3117.386)">
    <g transform="matrix(1, 0, 0, 1, 163.5, 3117.39)" filter="url(#Rect치ngulo_36097)">
      <rect id="Rect치ngulo_36097-2" data-name="Rect치ngulo 36097" width="85" height="101.228" rx="19" transform="translate(16.5 16.5)" fill="#25e0ac"/>
    </g>
    <g id="Grupo_133866" data-name="Grupo 133866" transform="translate(216.666 3145.301) rotate(30)">
      <path id="Trazado_126789" data-name="Trazado 126789" d="M1.054,5.558,0,8.181l13.9,13.9a1.981,1.981,0,0,0,2.8,0c2.678-2.242,3.123-8.868,1.054-10.938L6.611,0Z" transform="translate(14.963 46.109)" fill="#1e009b"/>
      <path id="Trazado_126790" data-name="Trazado 126790" d="M16.7,19.457h0a1.981,1.981,0,0,1-2.8,0L0,5.558,5.558,0,16.7,11.143a5.879,5.879,0,0,1,0,8.314" transform="translate(14.963 48.733)" fill="#4631c8"/>
      <path id="Trazado_126791" data-name="Trazado 126791" d="M7.463,1.905,5.558,0,0,5.558,1.513,7.071c.681-2.587,3.245-4.285,5.95-5.166" transform="translate(14.963 48.733)" fill="#1e009b"/>
      <path id="Trazado_126792" data-name="Trazado 126792" d="M14.723,12.24h0a8.478,8.478,0,0,1-11.99,0l-.25-.25A8.478,8.478,0,0,1,2.483,0Z" transform="translate(0.617 40.463)" fill="#f1f1f1"/>
      <path id="Trazado_126793" data-name="Trazado 126793" d="M.5,40.378a1.706,1.706,0,0,0-.461,1.545c.282,1.317,1.227,3.886,4.377,7.036s5.72,4.095,7.036,4.377a1.707,1.707,0,0,0,1.545-.461c15.769-15.371,40.378-23.9,40.378-23.9L38.884,14.488,24.4,0S15.869,24.609.5,40.378" transform="translate(1.06 1.371)" fill="#fff"/>
      <path id="Trazado_126794" data-name="Trazado 126794" d="M1.578,20.319c-1.21,3.3-2.435,7.631-.762,11.03,2.2,4.476,8.57,3.344,12.316,2.066,13.071-4.463,22.619-4.439,22.619-4.439L6.776,0s.043,6-5.2,20.319" transform="translate(18.681 1.371)" fill="#fbfbfb"/>
      <path id="Trazado_126795" data-name="Trazado 126795" d="M1.323.547C-.6,1.886-.158,5.375.955,7.5A56.409,56.409,0,0,0,11.249,21.167c3.931,3.931,8.415,7.789,13.511,10.126a9.465,9.465,0,0,0,4.769,1.182c4.783-.569,2.5-6.427,1.168-8.952a52.452,52.452,0,0,0-9.519-12.285A55.975,55.975,0,0,0,10.111,2.4,15.331,15.331,0,0,0,3.665.012,3.592,3.592,0,0,0,1.323.547" transform="translate(23.387 0)" fill="#1e009b"/>
      <path id="Trazado_126796" data-name="Trazado 126796" d="M18.827,10.4c7.725,7.725,12.1,15.875,9.774,18.2s-10.476-2.049-18.2-9.774S-1.7,2.952.625.625,11.1,2.674,18.827,10.4" transform="translate(25.479 1.098)" fill="#fff"/>
      <path id="Trazado_126797" data-name="Trazado 126797" d="M0,0C1.265,3.665,4.873,8.873,9.9,13.9s10.237,8.637,13.9,9.9c-1.265-3.665-4.873-8.873-9.9-13.9S3.665,1.265,0,0" transform="translate(25.976 6.022)" fill="#f0f0f0"/>
      <path id="Trazado_126798" data-name="Trazado 126798" d="M22.889,15.742c-2.042-.63-5.145-2.775-8.165-5.794S9.564,3.829,8.932,1.788A2.387,2.387,0,0,1,8.9,0,80.4,80.4,0,0,1,.8,9.881,2.76,2.76,0,0,0,.06,12.388c.3,1.379,1.294,4.194,4.664,7.564s6.185,4.368,7.563,4.664a2.761,2.761,0,0,0,2.507-.738,80.431,80.431,0,0,1,9.9-8.11,2.349,2.349,0,0,1-1.8-.024" transform="translate(0 31.128)" fill="#4e35e7"/>
      <path id="Trazado_126799" data-name="Trazado 126799" d="M0,0,0,.007.005,0Z" transform="translate(9.039 30.92)" fill="#4e35e7"/>
      <path id="Trazado_126800" data-name="Trazado 126800" d="M.057,0l0,0C.038.016.018.029,0,.044L.057,0" transform="translate(24.826 46.756)" fill="#4e35e7"/>
      <path id="Trazado_126801" data-name="Trazado 126801" d="M0,.2C.047.134.1.067.143,0A.947.947,0,0,0,0,.2" transform="translate(8.896 30.927)"/>
      <path id="Trazado_126802" data-name="Trazado 126802" d="M.132,0,0,.094A.955.955,0,0,0,.132,0" transform="translate(24.693 46.8)"/>
      <path id="Trazado_126803" data-name="Trazado 126803" d="M16.408,14.683q-.507.347-1.012.7s0,.009,0,.012l-.018,0h0c-.705.2-4.09-1.114-8.643-5.667S.874,1.816,1.065,1.1a.082.082,0,0,0,0-.009.1.1,0,0,1,0-.018l.017,0q.354-.5.7-1.01A1.6,1.6,0,0,0,.313.314L.3.326.3.332l-.143.2A2.387,2.387,0,0,0,.191,2.321c.632,2.042,2.775,5.143,5.793,8.16s6.123,5.164,8.164,5.794a2.349,2.349,0,0,0,1.8.024l.132-.094c.018-.015.038-.027.054-.044l.012-.009a1.6,1.6,0,0,0,.257-1.47" transform="translate(8.741 30.594)" fill="#1e009b"/>
      <path id="Trazado_126804" data-name="Trazado 126804" d="M.019.012S.02,0,.021,0L0,.015c.005,0,.014,0,.019,0" transform="translate(24.117 45.979)"/>
      <path id="Trazado_126805" data-name="Trazado 126805" d="M0,.029.021,0,0,0C0,.01,0,.022,0,.029" transform="translate(9.806 31.662)"/>
      <path id="Trazado_126806" data-name="Trazado 126806" d="M14.771,7.557A9.707,9.707,0,0,0,11.9,2.905,9.708,9.708,0,0,0,7.251.037,1.7,1.7,0,0,0,5.709.491,48.854,48.854,0,0,1,0,5.21,62.69,62.69,0,0,0,4.3,9.968,61.917,61.917,0,0,0,9.647,14.74,48.725,48.725,0,0,1,14.317,9.1a1.7,1.7,0,0,0,.454-1.542" transform="translate(31.574 9.957)" fill="#4e35e7"/>
      <path id="Trazado_126807" data-name="Trazado 126807" d="M4.753,2.672C6.721,4.64,7.85,6.7,7.276,7.276s-2.635-.555-4.6-2.523S-.425.724.15.15,2.785.7,4.753,2.672" transform="translate(38.389 10.504)" fill="#1e009b"/>
      <path id="Trazado_126808" data-name="Trazado 126808" d="M3.808,3.808h0a1.421,1.421,0,0,1-2.009,0L.416,2.426A1.421,1.421,0,0,1,2.426.416L3.808,1.8a1.421,1.421,0,0,1,0,2.009" transform="translate(20.671 54.632)" fill="#f1f1f1"/>
      <path id="Trazado_126809" data-name="Trazado 126809" d="M1.79.3A.922.922,0,0,0,.461.27L.3.423a.949.949,0,0,0-.022,1.36L1.746,3.26a1.074,1.074,0,0,0,1.562-.045l.084-.094a.818.818,0,0,0-.01-1.1Z" transform="translate(20.923 54.901)" fill="#1e009b"/>
      <path id="Trazado_126810" data-name="Trazado 126810" d="M3.046,3.164h0a.927.927,0,0,1-1.335-.026L.247,1.556A.927.927,0,0,1,1.607.3L3.071,1.879a.927.927,0,0,1-.025,1.285" transform="translate(21.11 54.903)" fill="#4631c8"/>
      <path id="Trazado_126811" data-name="Trazado 126811" d="M0,.82A1.588,1.588,0,0,1,.377.329,1.573,1.573,0,0,1,.9,0,1.574,1.574,0,0,1,.524.491,1.589,1.589,0,0,1,0,.82" transform="translate(22.304 56.245)" fill="#1e009b"/>
    </g>
  </g>
</svg>
