<svg xmlns="http://www.w3.org/2000/svg" xmlns:xlink="http://www.w3.org/1999/xlink" width="425.501" height="541.366" viewBox="0 0 425.501 541.366">
  <defs>
    <clipPath id="clip-path">
      <rect id="Rectángulo_46109" data-name="Rectángulo 46109" width="183.797" height="148.316" fill="none"/>
    </clipPath>
    <clipPath id="clip-path-2">
      <rect id="Rectángulo_46110" data-name="Rectángulo 46110" width="363.094" height="131.55" fill="none"/>
    </clipPath>
    <clipPath id="clip-path-3">
      <rect id="Rectángulo_46109-2" data-name="Rectángulo 46109" width="98.797" height="79.725" fill="none"/>
    </clipPath>
    <clipPath id="clip-path-4">
      <rect id="Rectángulo_46112" data-name="Rectángulo 46112" width="62.598" height="92.622" fill="none"/>
    </clipPath>
    <clipPath id="clip-path-5">
      <rect id="Rectángulo_46113" data-name="Rectángulo 46113" width="55.697" height="38.426" fill="none"/>
    </clipPath>
    <filter id="Trazado_197480" x="0" y="447.533" width="128.963" height="93.833" filterUnits="userSpaceOnUse">
      <feOffset dy="3" input="SourceAlpha"/>
      <feGaussianBlur stdDeviation="8.5" result="blur"/>
      <feFlood flood-opacity="0.2"/>
      <feComposite operator="in" in2="blur"/>
      <feComposite in="SourceGraphic"/>
    </filter>
  </defs>
  <g id="Grupo_154549" data-name="Grupo 154549" transform="translate(-994.499 -6549.626)">
    <g id="Grupo_154536" data-name="Grupo 154536">
      <g id="Grupo_154531" data-name="Grupo 154531">
        <g id="Grupo_154502" data-name="Grupo 154502" transform="translate(1020 6586.132)">
          <rect id="Rectángulo_33902" data-name="Rectángulo 33902" width="362.645" height="476.36" rx="21" transform="translate(17.284 0)" fill="#e5f4f8"/>
          <g id="Grupo_133929" data-name="Grupo 133929" transform="translate(38.981 279.587)">
            <path id="Trazado_126838" data-name="Trazado 126838" d="M2369.752,897.186a9.986,9.986,0,0,1-6.528-2.314,25.824,25.824,0,0,1-4.26-4.842,24.325,24.325,0,0,0-3.978-4.549,8.741,8.741,0,0,0-2.431-1.42,9.135,9.135,0,0,0-6.16,0,8.747,8.747,0,0,0-2.43,1.419,24.282,24.282,0,0,0-3.976,4.549,25.882,25.882,0,0,1-4.26,4.843,10.245,10.245,0,0,1-13.053,0,25.868,25.868,0,0,1-4.259-4.842,24.289,24.289,0,0,0-3.977-4.549,8.739,8.739,0,0,0-2.431-1.42,9.134,9.134,0,0,0-6.161,0,8.733,8.733,0,0,0-2.43,1.419,24.275,24.275,0,0,0-3.977,4.549,25.85,25.85,0,0,1-4.259,4.843,10.245,10.245,0,0,1-13.054,0,25.821,25.821,0,0,1-4.258-4.842,24.31,24.31,0,0,0-3.978-4.549,8.742,8.742,0,0,0-2.431-1.42,8.572,8.572,0,0,0-3.082-.535.808.808,0,0,1,0-1.616,9.988,9.988,0,0,1,6.529,2.314,25.844,25.844,0,0,1,4.259,4.843,24.311,24.311,0,0,0,3.977,4.548,8.753,8.753,0,0,0,2.43,1.42,9.138,9.138,0,0,0,6.162,0,8.759,8.759,0,0,0,2.431-1.42,24.3,24.3,0,0,0,3.978-4.549,25.837,25.837,0,0,1,4.258-4.842,10.247,10.247,0,0,1,13.054,0,25.9,25.9,0,0,1,4.26,4.843,24.291,24.291,0,0,0,3.976,4.548,8.747,8.747,0,0,0,2.43,1.42,9.138,9.138,0,0,0,6.161,0,8.746,8.746,0,0,0,2.43-1.42,24.251,24.251,0,0,0,3.978-4.549,25.845,25.845,0,0,1,4.259-4.842,10.248,10.248,0,0,1,13.053,0,25.834,25.834,0,0,1,4.259,4.843,24.309,24.309,0,0,0,3.979,4.549,8.731,8.731,0,0,0,2.43,1.42,8.586,8.586,0,0,0,3.081.535.808.808,0,1,1,0,1.616Z" transform="translate(-2063.156 -881.909)" fill="#3e8cf7"/>
            <path id="Trazado_126933" data-name="Trazado 126933" d="M475.556,1490.6a4.959,4.959,0,0,1-3.243-1.15,12.845,12.845,0,0,1-2.116-2.406,12.063,12.063,0,0,0-1.976-2.26,4.341,4.341,0,0,0-1.208-.705,4.542,4.542,0,0,0-3.061,0,4.345,4.345,0,0,0-1.207.705,12.068,12.068,0,0,0-1.976,2.26,12.847,12.847,0,0,1-2.116,2.406,5.09,5.09,0,0,1-6.485,0,12.846,12.846,0,0,1-2.116-2.405,12.069,12.069,0,0,0-1.976-2.26,4.343,4.343,0,0,0-1.208-.705,4.542,4.542,0,0,0-3.061,0,4.345,4.345,0,0,0-1.207.705,12.063,12.063,0,0,0-1.976,2.26,12.849,12.849,0,0,1-2.116,2.406,5.091,5.091,0,0,1-6.485,0,12.847,12.847,0,0,1-2.116-2.405,12.07,12.07,0,0,0-1.976-2.26,4.345,4.345,0,0,0-1.208-.705,4.264,4.264,0,0,0-1.531-.266.4.4,0,1,1,0-.8,4.961,4.961,0,0,1,3.243,1.15,12.853,12.853,0,0,1,2.116,2.406,12.063,12.063,0,0,0,1.976,2.26,4.342,4.342,0,0,0,1.207.705,4.537,4.537,0,0,0,3.061,0,4.346,4.346,0,0,0,1.208-.705,12.061,12.061,0,0,0,1.976-2.26,12.837,12.837,0,0,1,2.116-2.406,5.091,5.091,0,0,1,6.485,0,12.856,12.856,0,0,1,2.116,2.406,12.064,12.064,0,0,0,1.976,2.26,4.342,4.342,0,0,0,1.207.705,4.537,4.537,0,0,0,3.061,0,4.347,4.347,0,0,0,1.208-.705,12.064,12.064,0,0,0,1.976-2.26,12.831,12.831,0,0,1,2.116-2.406,5.091,5.091,0,0,1,6.485,0,12.844,12.844,0,0,1,2.116,2.406,12.063,12.063,0,0,0,1.976,2.26,4.338,4.338,0,0,0,1.208.705,4.538,4.538,0,0,0,3.062,0,4.338,4.338,0,0,0,1.208-.705,12.06,12.06,0,0,0,1.976-2.26,12.847,12.847,0,0,1,2.116-2.406,4.962,4.962,0,0,1,3.243-1.15.4.4,0,0,1,0,.8,4.264,4.264,0,0,0-1.531.266,4.342,4.342,0,0,0-1.208.705,12.065,12.065,0,0,0-1.976,2.26,12.845,12.845,0,0,1-2.116,2.406,4.959,4.959,0,0,1-3.243,1.15Z" transform="translate(-424.789 -1314.415)" fill="#3e8cf7"/>
          </g>
        </g>
        <g id="Grupo_154538" data-name="Grupo 154538" transform="translate(1050.102 6594.742)">
          <path id="Trazado_126837" data-name="Trazado 126837" d="M1591.5,1177.681a136.8,136.8,0,0,0-86.936,31.091c-58.88,48.077-67.668,135.093-19.59,193.973l58.3-47.6a62.594,62.594,0,1,1,96.967-79.18l58.3-47.6a136.945,136.945,0,0,0-92.93-49.969A140.216,140.216,0,0,0,1591.5,1177.681Z" transform="translate(-1453.952 -1177.681)" fill="#fff"/>
        </g>
        <g id="Grupo_154530" data-name="Grupo 154530" transform="translate(1026.203 6819.807)">
          <g id="Grupo_154525" data-name="Grupo 154525" clip-path="url(#clip-path)">
            <path id="Trazado_197465" data-name="Trazado 197465" d="M422.625,317.261c-7.511,7.122-19.9,16.819-31.665,25.6H363.533c10.195-20.286,28.119-50.167,49.244-60.21,34.471-16.394,29.546,15.927,9.849,34.61" transform="translate(-254.259 -194.544)" fill="#779967"/>
            <path id="Trazado_197466" data-name="Trazado 197466" d="M371.876,128.445c-4.068,19.952-18.532,62.244-25.994,83.484H333.313c1.815-24.616,5.61-66.488,11.931-92.658,7.918-32.788,37.841-45.746,26.632,9.175" transform="translate(-233.123 -63.612)" fill="#779967"/>
            <path id="Trazado_197467" data-name="Trazado 197467" d="M228.791,148.316H205.942c-7.887-20.019-16.88-43.536-21.075-57.046-10.3-33.159-20.657-86.38-7.153-90.976,9.946-3.382,27.311,22.618,36.741,68.814,5.009,24.537,10.4,55.6,14.336,79.209" transform="translate(-119.79 0)" fill="#779967"/>
            <path id="Trazado_197468" data-name="Trazado 197468" d="M106.074,354.329H76.91c-10.122-4.366-21.956-9.636-33.724-15.247C11.4,323.921-2.542,308.249.379,299.354c2.532-7.693,25.6-8.38,60.2,14.949,23.559,15.878,38.417,31.6,45.5,40.026" transform="translate(0 -206.013)" fill="#779967"/>
            <path id="Trazado_197469" data-name="Trazado 197469" d="M280.959,421.613H279.9a279.84,279.84,0,0,0-32-30.208c-.395-.322.17-.874.565-.558a278.965,278.965,0,0,1,32.5,30.767" transform="translate(-173.288 -273.296)" fill="#4f2b2c"/>
            <path id="Trazado_197470" data-name="Trazado 197470" d="M378.653,434.733a104.221,104.221,0,0,0-6.922,17.22H370.9a105.889,105.889,0,0,1,7.062-17.621c.23-.455.917-.055.686.4" transform="translate(-259.415 -303.637)" fill="#4f2b2c"/>
            <path id="Trazado_197471" data-name="Trazado 197471" d="M349.6,410.265h-.8q-2.787-17.7-6.388-35.242c-.1-.5.656-.711.759-.213q3.634,17.651,6.424,35.454" transform="translate(-239.486 -261.948)" fill="#4f2b2c"/>
          </g>
        </g>
        <g id="Grupo_154529" data-name="Grupo 154529" transform="translate(163.159 160.234)">
          <g id="Grupo_154528" data-name="Grupo 154528" transform="translate(878.816 6795.348)">
            <g id="Grupo_154527" data-name="Grupo 154527" clip-path="url(#clip-path-2)">
              <path id="Trazado_197472" data-name="Trazado 197472" d="M172.1.078H302.4c19.236,0,43.985-2.283,54.9,18.132s5.436,40.923-8.318,48.832S327.361,70.608,307.8,87.67c-19.35,16.874-56.656,33.717-107.841,42.035s-88.616-13.724-105.852-21S47.247,95.006,27.286,87.67C-.338,77.519-8.617,37.332,10.011,17.849S134.841.078,172.1.078" transform="translate(0 -0.002)" fill="#f6d7bb"/>
              <path id="Trazado_197473" data-name="Trazado 197473" d="M1870.407.075h-16.2q-.436.374-.874.738c-12.64,10.427-26.555,12.968-39.064,24.119-6.114,5.451-11.449,13.28-16.479,22-5.183,8.982-10.085,18.647-15.632,26.763-11.534,16.873-25.519,24.105-38.7,34.148a88.175,88.175,0,0,0-20.874,21.887,141.342,141.342,0,0,0,45.374-.028c9.532-1.549,18.582-3.394,27.125-5.479a74.62,74.62,0,0,1,23.08-22.23c14.45-8.663,29.249-11.089,41.436-30.842,12.884-21.139,22.633-48.516,39.346-57.179,5.049-2.652,10.042-5.08,14.955-7.78-12.4-7.337-29.42-6.116-43.491-6.116" transform="translate(-1568.003 0.001)" fill="#ebc3a4"/>
              <path id="Trazado_197474" data-name="Trazado 197474" d="M1045.869.4c-1.158,0-2.385,0-3.672-.007-9.616,8.822-19.6,16.623-27.782,30.334-8.828,14.8-15.365,34.361-24.858,47.682-8.988,12.611-19.472,19.719-29.645,27.585,2.859,1,5.532,2.006,7.961,3.031,5.938,2.508,14.273,6.765,24.742,10.933q1.275-2.046,2.554-4.074a120.168,120.168,0,0,1,8.83-12.556,60.786,60.786,0,0,1,9.064-8.732c5.906-4.683,12.031-8.255,17.839-13.44,5.937-5.3,11.134-12.456,15.218-22.627,4.215-10.5,7.343-22.616,11.92-32.564,4.711-10.244,10.722-17.594,16.844-24.027q.74-.774,1.486-1.537Z" transform="translate(-873.772 -0.322)" fill="#ebc3a4"/>
            </g>
          </g>
        </g>
        <g id="Grupo_154526" data-name="Grupo 154526" transform="translate(1321.203 6888.398)">
          <g id="Grupo_154525-2" data-name="Grupo 154525" clip-path="url(#clip-path-3)">
            <path id="Trazado_197465-2" data-name="Trazado 197465" d="M395.3,299.175a213.523,213.523,0,0,1-17.021,13.76H363.533c5.48-10.9,15.115-26.966,26.47-32.365,18.529-8.812,15.882,8.561,5.294,18.6" transform="translate(-304.795 -233.211)" fill="#779967"/>
            <path id="Trazado_197466-2" data-name="Trazado 197466" d="M354.042,111.106c-2.187,10.725-9.961,33.458-13.973,44.875h-6.756c.976-13.232,3.016-35.74,6.413-49.807,4.256-17.625,20.341-24.59,14.315,4.932" transform="translate(-279.458 -76.256)" fill="#779967"/>
            <path id="Trazado_197467-2" data-name="Trazado 197467" d="M202.191,79.725H189.909c-4.24-10.761-9.074-23.4-11.329-30.664-5.539-17.824-11.1-46.432-3.845-48.9,5.346-1.818,14.681,12.158,19.75,36.99,2.693,13.189,5.588,29.884,7.706,42.577" transform="translate(-143.599 0)" fill="#779967"/>
            <path id="Trazado_197468-2" data-name="Trazado 197468" d="M57.018,326.684H41.342c-5.441-2.347-11.8-5.18-18.128-8.2C6.128,310.338-1.366,301.914.2,297.133c1.361-4.135,13.761-4.5,32.358,8.036a119.339,119.339,0,0,1,24.456,21.515" transform="translate(0 -246.959)" fill="#779967"/>
            <path id="Trazado_197469-2" data-name="Trazado 197469" d="M265.607,407.34h-.571a150.423,150.423,0,0,0-17.2-16.238c-.212-.173.091-.47.3-.3a149.955,149.955,0,0,1,17.468,16.538" transform="translate(-207.731 -327.616)" fill="#4f2b2c"/>
            <path id="Trazado_197470-2" data-name="Trazado 197470" d="M375.07,434.455a56.023,56.023,0,0,0-3.721,9.256H370.9a56.92,56.92,0,0,1,3.8-9.472c.124-.245.493-.029.369.215" transform="translate(-310.976 -363.986)" fill="#4f2b2c"/>
            <path id="Trazado_197471-2" data-name="Trazado 197471" d="M346.277,393.737h-.428q-1.5-9.513-3.434-18.944c-.055-.268.353-.382.408-.114q1.953,9.488,3.453,19.058" transform="translate(-287.086 -314.012)" fill="#4f2b2c"/>
          </g>
        </g>
        <g id="Grupo_154524" data-name="Grupo 154524" transform="translate(1020 6549.626)">
          <g id="Grupo_154525-3" data-name="Grupo 154525">
            <path id="Trazado_197415" data-name="Trazado 197415" d="M442.305,238.767s-35.3,34.73-65.647,56.917-82.066,44.752-91.807,53.9-16.234,35.12-15.693,41.073,17.316,12.446,27.6,5.953,30.3-25.975,30.3-25.975,83.567-19.546,146.764-87.968Z" transform="translate(-247.679 -88.921)" fill="#d97d52"/>
            <path id="Trazado_197416" data-name="Trazado 197416" d="M116.046,681.383c3.833-4.187,26.83-13.716,26.83-13.716s-31.045-33.776-72.3-79.536L118.761,580l67.065,88.665c4.42,6.176,5.327,11.782-1.111,12.869l-67.478,11.384s-5.024-7.35-1.191-11.536" transform="translate(161.409 -216.004)" fill="#fba57e"/>
            <path id="Trazado_197417" data-name="Trazado 197417" d="M72.012,716.545c3.838-4.185,26.83-13.715,26.83-13.715s-7.381-8.027-19.753-21.567l40.466-6.827,22.238,29.4c4.42,6.179,5.331,11.777-1.11,12.864L73.2,728.082s-5.019-7.336-1.191-11.536" transform="translate(205.443 -251.173)" fill="#fff"/>
            <path id="Trazado_197418" data-name="Trazado 197418" d="M70.973,726.7a5.159,5.159,0,0,1,1.051-1.7c.13-.122.249-.26.4-.4l.005-.018c.308-.253.676-.55,1.091-.855a.069.069,0,0,1,.043-.041c.428-.29.893-.6,1.407-.925a119.536,119.536,0,0,1,10.732-5.65c1.192-.57,2.4-1.125,3.556-1.639.358-.161.7-.319,1.041-.478a1.16,1.16,0,0,1,.109-.052c.336-.141.656-.278.965-.431.357-.161.7-.319,1.051-.462.5-.218.965-.431,1.426-.626.309-.153.612-.288.927-.408.265-.112.531-.224.781-.333.005-.018.022-.02.054-.026,1.4-.606,2.446-1.033,2.928-1.248a.337.337,0,0,1,.125-.055,1.082,1.082,0,0,1,.157-.06c4.519.78,9.032,1.528,13.54,2.293,4.36.74,12.358,2.778,13.474-.848.64-2.137-1.521-5.21-2.419-7.64-1.11-2.965,3.777-6.1,6.9-8.005L141.8,712.27c4.15,5.789,5.2,11.078.02,12.606a6.425,6.425,0,0,1-1.119.273L73.216,736.533l-.011-.014s-3.843-5.623-2.232-9.818" transform="translate(205.436 -259.609)" fill="#4f2b2c"/>
            <path id="Trazado_197419" data-name="Trazado 197419" d="M165.806,449.117c9.652,6.379,19.646,12.3,29.066,19.019.9.641,1.8,1.3,2.714,1.953l58.534,85.066-60.67,19.7S96.2,487.984,89.5,445.761c-2.491-15.7,2.5-29.725,13.085-41.431q30.82,23.479,63.216,44.787" transform="translate(83.15 -150.58)" fill="#126783"/>
            <path id="Trazado_197420" data-name="Trazado 197420" d="M185.658,612.328q-36.6,11.135-72.754,23.64c-1.008.348-1.441-1.248-.44-1.594q36.153-12.5,72.755-23.641c1.02-.31,1.456,1.285.439,1.595" transform="translate(138.585 -227.434)" fill="#4f2b2c"/>
            <path id="Trazado_197421" data-name="Trazado 197421" d="M241.583,144.382l-66.252,73.063L228.84,281.1s52.166-37.625,59.391-73.7-20.238-73.336-46.648-63.025" transform="translate(-4.394 -53.121)" fill="#b1dbea"/>
            <path id="Trazado_197422" data-name="Trazado 197422" d="M21.171,132.661C-4.783,164.2,18.726,225.452,31.887,250.589c11.49,21.945,27.128,51.141,27.128,51.141s59.157-21.038,119.411-45.806c0,0-24.579-36.841-65.472-85.557-31.148-37.106-72.266-61.423-91.784-37.705" transform="translate(210.664 -45.904)" fill="#b1dbea"/>
            <path id="Trazado_197423" data-name="Trazado 197423" d="M260.158,111.293l-14.936-20.48-19.9,29.473,9.81,13.566a43.739,43.739,0,0,0,13.564-8.659c9.144-8.242,11.465-13.9,11.465-13.9" transform="translate(-6.519 -33.821)" fill="#d97d52"/>
            <path id="Trazado_197424" data-name="Trazado 197424" d="M249.083,64.228c-1.165,11.146,3.562,28.97,9.982,38.889,6.789,10.49,13.076,9.848,17.213,8.192a21.473,21.473,0,0,0,10.083-8.145c2.648-3.818,12.186-23.468,12.576-30.9s.507-18.569-8.469-25.6a27.053,27.053,0,0,0-30.552-1.751c-8.973,5.639-10.42,15.364-10.833,19.308" transform="translate(-60.233 -15.274)" fill="#d97d52"/>
            <path id="Trazado_197425" data-name="Trazado 197425" d="M285.078,72.369c-.535,7.491-11.864,23.077-24.615,26.519C243.154,103.56,236.72,69.5,236.72,69.5s-17.385,4.059-32.859-4.871S216.826,35.135,231.322,32.7s28.566,14.34,28.3,25.7c0,0,26.443.217,25.46,13.966" transform="translate(-15.188 -12.089)" fill="#4f2b2c"/>
            <path id="Trazado_197426" data-name="Trazado 197426" d="M283.636,93.858a7.308,7.308,0,1,1-5.954-8.448,7.308,7.308,0,0,1,5.954,8.448" transform="translate(-57.598 -31.768)" fill="#d97d52"/>
            <path id="Trazado_197427" data-name="Trazado 197427" d="M275.334,92.191a3.007,3.007,0,0,1,3.673,4.272c-.464.99,1.16,1.511,1.622.527a4.691,4.691,0,0,0-5.638-6.469c-1.042.318-.709,1.991.343,1.671" transform="translate(-58.224 -33.632)" fill="#a3522b"/>
            <path id="Trazado_197428" data-name="Trazado 197428" d="M308.423,99.763a1.912,1.912,0,0,0,1.49,2.064,5.286,5.286,0,0,0,2.813-.694,7.017,7.017,0,0,1,2.95-.63c1.016.033,1.593.225,2.3.235a1.405,1.405,0,0,0,1.47-1.637c-.107-.938-1.241-1.514-2.112-1.876a7.952,7.952,0,0,0-3.442-.43c-1.28.086-5.188,1.108-5.465,2.968" transform="translate(-117.968 -36.039)" fill="#4f2b2c"/>
            <path id="Trazado_197429" data-name="Trazado 197429" d="M316.7,110.087c-.2,1.757-.864,7.923-1.059,9.68a7.545,7.545,0,0,0,.145,3.877c.981,2.24,3.812,1.753,6.3.311.945-.549-.307-3.634-.61-4.69-1.128-3.932-2.413-6.322-3.11-8.8-.294-1.043-1.54-1.473-1.663-.381" transform="translate(-125.368 -40.761)" fill="#d97d52"/>
            <path id="Trazado_197430" data-name="Trazado 197430" d="M303.867,133.631a8.019,8.019,0,0,0,4.6-4.613c.391-.989,1.878-.265,1.488.721a9.641,9.641,0,0,1-5.526,5.447.827.827,0,0,1-.562-1.555" transform="translate(-105.35 -47.873)" fill="#a3522b"/>
            <path id="Trazado_197431" data-name="Trazado 197431" d="M264.7,139.159a21.389,21.389,0,0,0,4.706-8.882c.263-1.025,1.89-.721,1.624.314a23.225,23.225,0,0,1-5.073,9.642c-.7.8-1.961-.273-1.257-1.074" transform="translate(-42.007 -48.282)" fill="#a3522b"/>
            <path id="Trazado_197432" data-name="Trazado 197432" d="M313.47,111.277c.448,1.728,1.54,2.74,2.493,2.493s1.407-1.66.959-3.388-1.536-2.687-2.489-2.44-1.411,1.607-.963,3.335" transform="translate(-118.671 -40.185)" fill="#4f2b2c"/>
            <path id="Trazado_197433" data-name="Trazado 197433" d="M194.647,688.022c4.472-3.5,28.727-9.1,28.727-9.1s-25.041-38.439-58.173-90.384l48.867-.06L265.57,687c3.339,6.821,3.308,12.5-3.221,12.508l-68.432.085s-3.742-8.078.73-11.575" transform="translate(23.606 -219.162)" fill="#fba57e"/>
            <path id="Trazado_197434" data-name="Trazado 197434" d="M167.393,727.1c4.476-3.494,28.726-9.1,28.726-9.1s-5.954-9.136-15.92-24.533l41.037-.051,17.079,32.667c3.339,6.824,3.312,12.5-3.219,12.5l-68.433.085s-3.738-8.064.73-11.574" transform="translate(50.861 -258.241)" fill="#fff"/>
            <path id="Trazado_197435" data-name="Trazado 197435" d="M166.087,737.992a5.162,5.162,0,0,1,1.318-1.506c.148-.1.288-.215.461-.331l.008-.016c.346-.2.757-.431,1.217-.663a.068.068,0,0,1,.05-.033c.469-.215.98-.448,1.541-.68a119.42,119.42,0,0,1,11.517-3.8c1.27-.365,2.549-.714,3.778-1.03.379-.1.742-.2,1.105-.3a.914.914,0,0,1,.115-.033c.355-.083.693-.166,1.023-.266.379-.1.742-.2,1.113-.282.528-.133,1.024-.266,1.511-.382.329-.1.651-.183.982-.249.281-.066.56-.133.825-.2.008-.016.024-.016.058-.016,1.484-.366,2.582-.615,3.094-.748a.342.342,0,0,1,.132-.033,1.147,1.147,0,0,1,.164-.033c4.328,1.516,8.656,3,12.975,4.5,4.179,1.45,11.73,4.78,13.429,1.389.984-2-.64-5.39-1.124-7.935-.6-3.108,4.734-5.4,8.128-6.756l8.813,16.871c3.137,6.394,3.3,11.784-2.062,12.435a6.371,6.371,0,0,1-1.148.084l-68.434.085-.009-.016s-2.862-6.18-.579-10.052" transform="translate(50.851 -267.615)" fill="#4f2b2c"/>
            <path id="Trazado_197436" data-name="Trazado 197436" d="M128.924,347.927l112.539-9.239s38.51,92.475-19.594,119.1C172.9,480.222,101.744,446,101.744,446l44.519,95.357-63.091,9.414S-.365,448.7,0,405.95c.389-45.278,58.282-67.14,128.923-58.024" transform="translate(141.069 -126.134)" fill="#126783"/>
            <path id="Trazado_197437" data-name="Trazado 197437" d="M255.261,627.786c-23.284,3.322-46.641,6.125-69.912,9.535-1.041.152-1.49-1.44-.439-1.594,23.272-3.41,46.628-6.214,69.912-9.536,1.041-.149,1.49,1.444.439,1.594" transform="translate(23.515 -233.203)" fill="#4f2b2c"/>
            <path id="Trazado_197438" data-name="Trazado 197438" d="M205.933,270.671q-3.862-4.164-7.739-8.314c-.726-.777.441-1.949,1.169-1.169q3.878,4.15,7.739,8.314c.723.779-.444,1.951-1.169,1.169" transform="translate(63.476 -97.176)" fill="#4f2b2c"/>
            <path id="Trazado_197439" data-name="Trazado 197439" d="M408.314,532.991s48.562,52.247,48.562,97.185c0,26.1-3.709,45.239-18.013,45.239H288.6c-43.832,0,88.243-137.714,100.739-148.266s18.98,5.842,18.98,5.842" transform="translate(-237.377 -195.002)" fill="#e6eff2"/>
            <path id="Trazado_197440" data-name="Trazado 197440" d="M238.564,440.747c-4.615,5.518-10.009,10.461-16.556,13.4a82.89,82.89,0,0,1-17.108,6.124c-2.878-7.694-7.016-20.756-7.9-28.174-2.029-17.046,44.485-58.957,68.025-98.732,20.381-34.436,31.96-100.26,31.96-100.26s51.632,4.059,40.94,51.949c-4.093,18.335-5.757,56.927-23.3,80.528-28.284,38.047-77.1,60.246-77.1,60.246s.731,6.943,1.039,14.923" transform="translate(-67.932 -86.811)" fill="#d97d52"/>
            <path id="Trazado_197441" data-name="Trazado 197441" d="M157.684,164.318,136.264,261.1l65.942,40.626s37.541-69.288,26.609-104.415-52.884-54.69-71.132-32.992" transform="translate(78.716 -57.808)" fill="#b1dbea"/>
            <path id="Trazado_197442" data-name="Trazado 197442" d="M153.262,259.1c-2.679,19.664-9.065,38.491-16.621,56.767-.4.97-2,.545-1.595-.439,7.557-18.276,13.943-37.1,16.622-56.767.142-1.05,1.736-.6,1.594.439" transform="translate(157.063 -96.107)" fill="#4f2b2c"/>
            <path id="Trazado_197443" data-name="Trazado 197443" d="M259.6,141.756c-10.314,2.459-16.447,11.437-20.569,20.567-4.5,9.977-7.763,20.509-10.71,31.034-5.724,20.438-10.328,41.193-14.142,62.069-.191,1.046-1.785.6-1.595-.439a658.99,658.99,0,0,1,15.484-66.761c3.037-10.375,6.376-20.961,11.389-30.578,4.207-8.069,10.538-15.3,19.7-17.486,1.034-.247,1.475,1.347.439,1.594" transform="translate(1.446 -52.189)" fill="#4f2b2c"/>
            <path id="Trazado_197444" data-name="Trazado 197444" d="M239.84,340.439q-34.328-20.974-69.17-41.1a.827.827,0,0,1,.835-1.428q34.833,20.125,69.169,41.1c.907.554.077,1.984-.834,1.428" transform="translate(47.12 -110.903)" fill="#4f2b2c"/>
            <path id="Trazado_197445" data-name="Trazado 197445" d="M286.011,246.023c11.086,13.989,23.129,27.246,35.309,40.284.726.776-.441,1.948-1.169,1.169-12.18-13.037-24.223-26.294-35.309-40.283-.654-.825.508-2,1.169-1.169" transform="translate(-105.145 -91.517)" fill="#4f2b2c"/>
            <path id="Trazado_197446" data-name="Trazado 197446" d="M270.543,173.192a446.079,446.079,0,0,0,3.339,44.85c.124,1.055-1.531,1.046-1.654,0a446.087,446.087,0,0,1-3.338-44.85.827.827,0,0,1,1.653,0" transform="translate(-47.593 -64.203)" fill="#4f2b2c"/>
            <path id="Trazado_197447" data-name="Trazado 197447" d="M244.446,27.487c-5.329.919-4.554-36.277,14.549-25.539,17.07,9.594-7.805,24.376-14.549,25.539" transform="translate(-21.453 0)" fill="#4f2b2c"/>
            <path id="Trazado_197448" data-name="Trazado 197448" d="M212.974,603.2q-19.423-49.638-42.266-97.8c-.454-.956.972-1.8,1.428-.834q22.932,48.354,42.433,98.2c.388.991-1.21,1.421-1.594.439" transform="translate(73.338 -187.753)" fill="#4f2b2c"/>
            <path id="Trazado_197449" data-name="Trazado 197449" d="M210.426,525.7c-15.452-5.33-31.359-10.255-46.06-17.477-.955-.469-.119-1.9.834-1.427,14.57,7.156,30.35,12.026,45.665,17.309,1,.345.57,1.943-.439,1.595" transform="translate(80.722 -188.707)" fill="#4f2b2c"/>
            <path id="Trazado_197450" data-name="Trazado 197450" d="M552.89,437.548s30.574,33.28,30.845,34.363-9.47,44.915-19.21,46.538-27.6-61.149-27.6-61.149-25.163-17.046-29.763-19.752,24.893-18.669,24.893-18.669Z" transform="translate(-506.676 -155.999)" fill="#afafaf"/>
            <path id="Trazado_197451" data-name="Trazado 197451" d="M402.243,574.563a139.819,139.819,0,0,1-6.316-23.5c-.136-.766,1.037-1.1,1.174-.324a139.751,139.751,0,0,0,6.316,23.5c.269.737-.908,1.056-1.174.324" transform="translate(-256.881 -204.941)" fill="#874424"/>
            <path id="Trazado_197452" data-name="Trazado 197452" d="M385.347,568.509a185.2,185.2,0,0,1-6.438-23.269c-.159-.764,1.014-1.092,1.174-.324a185.092,185.092,0,0,0,6.438,23.269c.258.742-.918,1.061-1.174.324" transform="translate(-229.3 -202.774)" fill="#874424"/>
            <path id="Trazado_197453" data-name="Trazado 197453" d="M569.049,436.863s-3.6,9.476-7.859,9.476-5.794-3.611-2.491-18.75l14.058,3.531Z" transform="translate(-527.22 -159.242)" fill="#d97d52"/>
            <path id="Trazado_197454" data-name="Trazado 197454" d="M186.259,661.952,171.722,665c-1.038.218-1.482-1.376-.44-1.595l14.538-3.052c1.038-.218,1.482,1.376.439,1.595" transform="translate(101.071 -245.922)" fill="#4f2b2c"/>
            <path id="Trazado_197455" data-name="Trazado 197455" d="M445.027,559.99c-21.33,32.643-59.257,51.216-95.954,60.854a.828.828,0,0,1-.439-1.595c36.254-9.521,73.881-27.826,94.966-60.094.58-.887,2.012-.06,1.428.835" transform="translate(-268.548 -208.099)" fill="#4f2b2c"/>
            <path id="Trazado_197456" data-name="Trazado 197456" d="M417.7,564.048c-14.95,17.515-39.607,22.4-61.537,23.395-1.064.048-1.061-1.605,0-1.653,21.511-.973,45.7-5.727,60.368-22.911.692-.811,1.856.363,1.169,1.169" transform="translate(-245.888 -209.525)" fill="#4f2b2c"/>
            <path id="Trazado_197457" data-name="Trazado 197457" d="M386.017,664.318c-1.79,9.057-4.492,19.094-11.912,25.251-6.059,5.028-14.9,6.977-21.863,2.692l1.131-.3c-3.927,8.393-11.666,20.061-22.6,14.77-.957-.463-.12-1.89.835-1.428,9.99,4.836,16.862-6.755,20.335-14.176a.835.835,0,0,1,1.132-.3c7.171,4.411,16.371,1.511,21.847-4.3,5.752-6.106,7.918-14.654,9.5-22.653.206-1.043,1.8-.6,1.595.439" transform="translate(-198.314 -247.019)" fill="#4f2b2c"/>
            <path id="Trazado_197458" data-name="Trazado 197458" d="M347.166,635.49a30.791,30.791,0,0,1-4.182,18.239.827.827,0,0,1-1.428-.835,29.177,29.177,0,0,0,3.956-17.4c-.086-1.061,1.568-1.055,1.653,0" transform="translate(-166.505 -236.373)" fill="#4f2b2c"/>
            <path id="Trazado_197459" data-name="Trazado 197459" d="M542.235,520.361q-7.438-33.041-16.719-65.624a.827.827,0,0,1,1.594-.44q9.279,32.572,16.719,65.624c.233,1.037-1.36,1.479-1.594.44" transform="translate(-478.589 -168.972)" fill="#4f2b2c"/>
            <path id="Trazado_197460" data-name="Trazado 197460" d="M591.13,445.1l-9.4-8.037c-.81-.692.364-1.857,1.169-1.169l9.4,8.036c.81.693-.364,1.857-1.169,1.169" transform="translate(-562.436 -162.256)" fill="#4f2b2c"/>
            <path id="Trazado_197461" data-name="Trazado 197461" d="M49.374,380.009l2.679,46.706c.061,1.063-1.593,1.059-1.654,0L47.72,380.009c-.061-1.063,1.593-1.059,1.654,0" transform="translate(313.043 -141.226)" fill="#4f2b2c"/>
            <path id="Trazado_197462" data-name="Trazado 197462" d="M32.23,461.685c-10.424,3.906-20.828.643-28.832-6.677-.786-.72.385-1.887,1.169-1.169,7.591,6.944,17.347,9.953,27.223,6.252,1-.373,1.428,1.224.439,1.595" transform="translate(360.285 -168.935)" fill="#4f2b2c"/>
            <path id="Trazado_197463" data-name="Trazado 197463" d="M34.08,391.839H5.343a.827.827,0,0,1,0-1.653H34.08a.827.827,0,0,1,0,1.653" transform="translate(357.314 -145.313)" fill="#4f2b2c"/>
            <path id="Trazado_197464" data-name="Trazado 197464" d="M35.93,380.818H7.445a.827.827,0,0,1,0-1.654H35.93a.827.827,0,0,1,0,1.654" transform="translate(354.145 -141.208)" fill="#4f2b2c"/>
          </g>
        </g>
      </g>
      <g id="Grupo_154533" data-name="Grupo 154533" transform="matrix(0.891, -0.454, 0.454, 0.891, 1062.387, 6989.551)">
        <g id="Grupo_154532" data-name="Grupo 154532" clip-path="url(#clip-path-4)">
          <path id="Trazado_197475" data-name="Trazado 197475" d="M56.3,90.205,44.512,95.949a11.211,11.211,0,0,1-14.989-5.166L1.136,32.54A11.211,11.211,0,0,1,6.3,17.551l11.785-5.744a11.211,11.211,0,0,1,14.989,5.166L61.462,75.216A11.211,11.211,0,0,1,56.3,90.205" transform="translate(0 -4.463)" fill="#a4c8f5"/>
          <rect id="Rectángulo_46111" data-name="Rectángulo 46111" width="14.236" height="7.896" transform="translate(2.336 6.237) rotate(-25.984)" fill="#fff"/>
          <path id="Trazado_197476" data-name="Trazado 197476" d="M22.193,85.405a51.959,51.959,0,0,0,25.7,2.8c.684-.1.393-1.134-.286-1.038a50.9,50.9,0,0,1-25.124-2.8c-.649-.244-.93.8-.286,1.038" transform="translate(-9.129 -35.269)" fill="#4f2b2c"/>
          <path id="Trazado_197477" data-name="Trazado 197477" d="M49.14,78.962a57.055,57.055,0,0,0,12.932-.123c.679-.083.687-1.161,0-1.076a57.056,57.056,0,0,1-12.932.123c-.688-.072-.684,1.006,0,1.077" transform="translate(-20.336 -32.52)" fill="#4f2b2c"/>
        </g>
      </g>
      <g id="Grupo_154535" data-name="Grupo 154535" transform="translate(1207.243 7036.904)">
        <g id="Grupo_154534" data-name="Grupo 154534" transform="translate(0 0)" clip-path="url(#clip-path-5)">
          <path id="Trazado_197478" data-name="Trazado 197478" d="M105.988,80.369c-.705.233-1.422.407-2.073.56a16.89,16.89,0,0,0-2.655.748c-1.169.486-1.95,1.416-3.24,1.759a42.77,42.77,0,0,1-5.647.716,9.721,9.721,0,0,1-2.934-.37c-1.525-.469-4.591-2.943-.682-5.408a38.67,38.67,0,0,1,5.075-2.893,25.9,25.9,0,0,1,11.244-2.186c1.843.066,4.943.621,4.824,3.029-.115,2.313-1.967,3.4-3.912,4.045" transform="translate(-54.206 -45.735)" fill="#fae5d9"/>
          <path id="Trazado_197479" data-name="Trazado 197479" d="M48.227,7.3c-1.16-3.782-4.96-5.793-8.569-6.654A25.8,25.8,0,0,0,18.11,5.553C14.362,4.174,10.247,3.077,6.4,4.331,3.3,5.338.456,8.135.047,11.465c-.429,3.487,2.138,6.1,5.26,7.122,3.982,1.3,8.313.22,12.158-1.033,4.56-1.487,9.155-3.6,14.052-3.469,4.415.117,8.917,2.763,13.3,1.006A6.144,6.144,0,0,0,48.227,7.3" transform="translate(0 0)" fill="#fff5f0"/>
        </g>
      </g>
    </g>
    <g transform="matrix(1, 0, 0, 1, 994.5, 6549.63)" filter="url(#Trazado_197480)">
      <path id="Trazado_197480-2" data-name="Trazado 197480" d="M20.3,0A20.973,20.973,0,0,1,41.065,20.5l.425,36.726a19.841,19.841,0,0,1-20.3,20.027A20.973,20.973,0,0,1,.426,56.754L0,20.028A19.841,19.841,0,0,1,20.3,0Z" transform="translate(102.74 470.03) rotate(89)" fill="#20bdfc"/>
    </g>
    <path id="Trazado_126838-2" data-name="Trazado 126838" d="M2335.692,892.094a6.657,6.657,0,0,1-4.352-1.543,17.21,17.21,0,0,1-2.84-3.228,16.215,16.215,0,0,0-2.652-3.033,5.83,5.83,0,0,0-1.621-.947,6.09,6.09,0,0,0-4.107,0,5.832,5.832,0,0,0-1.62.946,16.2,16.2,0,0,0-2.651,3.032,17.247,17.247,0,0,1-2.84,3.229,6.83,6.83,0,0,1-8.7,0,17.251,17.251,0,0,1-2.839-3.228,16.187,16.187,0,0,0-2.651-3.033,5.827,5.827,0,0,0-1.621-.947,6.089,6.089,0,0,0-4.107,0,5.821,5.821,0,0,0-1.62.946,16.183,16.183,0,0,0-2.651,3.032,17.233,17.233,0,0,1-2.839,3.229,6.83,6.83,0,0,1-8.7,0,17.222,17.222,0,0,1-2.839-3.228,16.2,16.2,0,0,0-2.652-3.033,5.828,5.828,0,0,0-1.621-.947,5.713,5.713,0,0,0-2.054-.357.539.539,0,0,1,0-1.077,6.659,6.659,0,0,1,4.353,1.543,17.234,17.234,0,0,1,2.839,3.229,16.2,16.2,0,0,0,2.651,3.032,5.836,5.836,0,0,0,1.62.946,6.092,6.092,0,0,0,4.108,0,5.84,5.84,0,0,0,1.621-.947,16.191,16.191,0,0,0,2.652-3.033,17.228,17.228,0,0,1,2.839-3.228,6.832,6.832,0,0,1,8.7,0,17.262,17.262,0,0,1,2.84,3.229,16.2,16.2,0,0,0,2.651,3.032,5.835,5.835,0,0,0,1.62.946,6.092,6.092,0,0,0,4.108,0,5.831,5.831,0,0,0,1.62-.947,16.157,16.157,0,0,0,2.652-3.033,17.233,17.233,0,0,1,2.84-3.228,6.832,6.832,0,0,1,8.7,0,17.223,17.223,0,0,1,2.839,3.228,16.2,16.2,0,0,0,2.653,3.033,5.818,5.818,0,0,0,1.62.947,5.725,5.725,0,0,0,2.054.357.539.539,0,1,1,0,1.077Z" transform="translate(-954.175 5777.541)" fill="none" stroke="#3e8cf7" stroke-linecap="round" stroke-width="3"/>
    <path id="Trazado_126838-3" data-name="Trazado 126838" d="M2335.692,892.094a6.657,6.657,0,0,1-4.352-1.543,17.21,17.21,0,0,1-2.84-3.228,16.215,16.215,0,0,0-2.652-3.033,5.83,5.83,0,0,0-1.621-.947,6.09,6.09,0,0,0-4.107,0,5.832,5.832,0,0,0-1.62.946,16.2,16.2,0,0,0-2.651,3.032,17.247,17.247,0,0,1-2.84,3.229,6.83,6.83,0,0,1-8.7,0,17.251,17.251,0,0,1-2.839-3.228,16.187,16.187,0,0,0-2.651-3.033,5.827,5.827,0,0,0-1.621-.947,6.089,6.089,0,0,0-4.107,0,5.821,5.821,0,0,0-1.62.946,16.183,16.183,0,0,0-2.651,3.032,17.233,17.233,0,0,1-2.839,3.229,6.83,6.83,0,0,1-8.7,0,17.222,17.222,0,0,1-2.839-3.228,16.2,16.2,0,0,0-2.652-3.033,5.828,5.828,0,0,0-1.621-.947,5.713,5.713,0,0,0-2.054-.357.539.539,0,0,1,0-1.077,6.659,6.659,0,0,1,4.353,1.543,17.234,17.234,0,0,1,2.839,3.229,16.2,16.2,0,0,0,2.651,3.032,5.836,5.836,0,0,0,1.62.946,6.092,6.092,0,0,0,4.108,0,5.84,5.84,0,0,0,1.621-.947,16.191,16.191,0,0,0,2.652-3.033,17.228,17.228,0,0,1,2.839-3.228,6.832,6.832,0,0,1,8.7,0,17.262,17.262,0,0,1,2.84,3.229,16.2,16.2,0,0,0,2.651,3.032,5.835,5.835,0,0,0,1.62.946,6.092,6.092,0,0,0,4.108,0,5.831,5.831,0,0,0,1.62-.947,16.157,16.157,0,0,0,2.652-3.033,17.233,17.233,0,0,1,2.84-3.228,6.832,6.832,0,0,1,8.7,0,17.223,17.223,0,0,1,2.839,3.228,16.2,16.2,0,0,0,2.653,3.033,5.818,5.818,0,0,0,1.62.947,5.725,5.725,0,0,0,2.054.357.539.539,0,1,1,0,1.077Z" transform="translate(-1166.175 6027.223)" fill="none" stroke="#25e0ac" stroke-linecap="round" stroke-width="3"/>
  </g>
</svg>
