<svg id="Grupo_154418" data-name="Grupo 154418" xmlns="http://www.w3.org/2000/svg" xmlns:xlink="http://www.w3.org/1999/xlink" width="128" height="133.238" viewBox="0 0 128 133.238">
  <defs>
    <clipPath id="clip-path">
      <rect id="Rectángulo_46083" data-name="Rectángulo 46083" width="128" height="133.238" fill="none"/>
    </clipPath>
  </defs>
  <g id="Grupo_154418-2" data-name="Grupo 154418" clip-path="url(#clip-path)">
    <path id="Trazado_196841" data-name="Trazado 196841" d="M68.144,142.327h-7.8c-2.356-.249-4.737-.158-7.084-.5a56.149,56.149,0,0,1-14.545-4.293A63.507,63.507,0,0,1,8.315,110.2,61.86,61.86,0,0,1,.294,84.85,63.655,63.655,0,0,1,14.148,38.311,61.433,61.433,0,0,1,27.189,26.078a2.263,2.263,0,0,1,1.665-.607c.6.162.871.67,1.173,1.142,5.246,8.188,12.8,11.9,22.433,11.564a2.491,2.491,0,0,1,.9.042,3.068,3.068,0,0,1,1.158.819c1.607,1.582,3.189,3.188,4.787,4.778a3.42,3.42,0,0,1,1.061,2.557q0,11.775-.005,23.551a3.278,3.278,0,0,1-.161,1.151c-1.006,1.844-3.391,3.071-5.057,2.605a2.35,2.35,0,0,1-.77-.673,15.4,15.4,0,0,0-8.806-5.223,19.17,19.17,0,0,0-3.5-.127c-1.3.05-1.659.44-1.738,1.749a14.286,14.286,0,0,0,2.3,8.771,5.239,5.239,0,0,1,.876,1.728c-.3,1.494-.753,1.786-3.016,1.974-.937-.156-1.8-.587-2.722-.8a4.79,4.79,0,0,0-4.853,1.377,3.062,3.062,0,0,1-2.587,1.14,5.03,5.03,0,0,0-3.044.948,3.007,3.007,0,0,0-1.323,3.584c.294.957.255,1.7-.755,2.144a4.105,4.105,0,0,0-2.4,3.374,3.53,3.53,0,0,0,1.331,2.168q3.731,2.7,7.664,5.111c2.715,1.7,5.456,3.374,8.061,5.239a31.593,31.593,0,0,0,12.6,5.219c9.3,1.824,18.569,3.82,27.843,5.781a2.555,2.555,0,0,1,1.636.7c.352.634-.091,1.049-.428,1.479-1.458,1.861-1.419,1.818.24,3.528.977,1.006,2.334,1.639,2.96,2.99a.565.565,0,0,1,.009.381c-.943,1.586-.013,2.465,1.129,3.427,2.009,1.694,3.9,3.532,5.886,5.252.342.3.79.578.66,1.165-.607.908-1.661,1.066-2.551,1.445a56.072,56.072,0,0,1-14.751,4.32c-2.3.3-4.634.222-6.942.465" transform="translate(0 -9.089)" fill="#25e0ac"/>
    <path id="Trazado_196842" data-name="Trazado 196842" d="M94.374,149.545c-4.9-1.041-9.8-2.092-14.708-3.121-5.964-1.251-11.936-2.461-17.9-3.734a20.247,20.247,0,0,1-6.262-2.45c-3.961-2.4-7.809-4.971-11.611-7.612-.428-.421-.312-.944-.294-1.461a5.148,5.148,0,0,0-5.291-5.569c-1.163-.033-2.432.426-3.471-.515a3.672,3.672,0,0,1,2.494-3.678,12.18,12.18,0,0,1,5.062-.382,2.708,2.708,0,0,1,1.485.369c2.145,1.105,4.411,1.957,6.523,3.13,1.965.9,3.947,1.776,5.871,2.76a28.648,28.648,0,0,0,10.995,2.743c3.53.281,7.054.653,10.583.925,2.927.226,5.842.592,8.788.656a3.039,3.039,0,0,0,2.839-4.068,5.015,5.015,0,0,0-4.2-3.435c-3.386-.44-6.755-1-10.149-1.372a6.022,6.022,0,0,1-5.364-3.9,2.108,2.108,0,0,1,0-2.113,6.29,6.29,0,0,1,3.933-.145,6.583,6.583,0,0,0,6.563-2.455,1.764,1.764,0,0,1,.583-.509,1.825,1.825,0,0,1,.89-.141c3.745.3,7.493.544,11.238.865a13.637,13.637,0,0,1,7.614,2.931,21.669,21.669,0,0,1,3.428,2.942c2.7,2.357,5.292,4.831,8,7.177a2.483,2.483,0,0,1,1.054,1.576,3.685,3.685,0,0,1-1.262,2.061c-4.429,4.789-8.716,9.708-13.12,14.52-1.021,1.115-2,2.268-3.048,3.36-.341.357-.623.88-1.274.643" transform="translate(-12.44 -40.513)" fill="#fec886"/>
    <path id="Trazado_196843" data-name="Trazado 196843" d="M166.915,149.18a64.075,64.075,0,0,1-28.136,27.357,9.832,9.832,0,0,1-2.71-2.138c-1.573-1.344-3.076-2.771-4.626-4.143-1.76-1.559-1.793-1.749-.418-3.579a1.21,1.21,0,0,1,.412-1.049,48.919,48.919,0,0,1,3.447-3.714c2.651-3.195,5.517-6.2,8.275-9.3,3.1-3.489,6.264-6.924,9.356-10.423a15.7,15.7,0,0,1,1.371-1.38c1.41-1.736,2.334-1.9,4.006-.48,2.9,2.458,5.651,5.079,8.5,7.6a1.356,1.356,0,0,1,.525,1.255" transform="translate(-46.437 -49.765)" fill="#159d96"/>
    <path id="Trazado_196844" data-name="Trazado 196844" d="M81.066,68.79c-.009-8.219-.039-16.437,0-24.655a3.215,3.215,0,0,0-1.1-2.6c-1.92-1.807-3.765-3.694-5.64-5.549-1.374-.513-2.152-1.74-3.183-2.664-.347-.311-.682-.638-1.037-.942-3.248-3.235-6.448-6.519-9.673-9.777a2.315,2.315,0,0,1-.213-3.371,2.47,2.47,0,0,1,3.413-.162,4.719,4.719,0,0,1,.589.509c4.165,4.219,8.466,8.3,12.518,12.634a2.048,2.048,0,0,0,.409.318c1.56,1.547,3.1,3.111,4.662,4.661,1.237,1.231,1.236,1.229,2.515-.04.4-.395.772-.811,1.186-1.19,2.249-2.259,4.545-4.472,6.715-6.81,3.3-3.256,6.57-6.541,9.885-9.78,1.225-1.2,2.436-1.227,3.446-.249a2.586,2.586,0,0,1,0,3.545,8.365,8.365,0,0,1-.789.864c-5.151,5.086-10.158,10.315-15.409,15.3a5.5,5.5,0,0,0-.547.727A7.491,7.491,0,0,0,85.526,47.5a3.4,3.4,0,0,1,0,.907c-.1.986.078,1.423,1.246,1a2.193,2.193,0,0,1,2.686,1.033,2.222,2.222,0,0,1-.3,2.756,25.835,25.835,0,0,1-2.534,2.6,3.252,3.252,0,0,0-1.106,2.632c.045,2.939.023,5.879.011,8.819a2.381,2.381,0,0,1-.443,1.837,8.737,8.737,0,0,1-4.018-.3" transform="translate(-21.278 -6.581)" fill="#0f928f"/>
    <path id="Trazado_196845" data-name="Trazado 196845" d="M76.22,96.627a6.269,6.269,0,0,1,3.845.142,1,1,0,0,1,1.1.064c1.031.79,2.344,1.29,2.823,2.668a4.155,4.155,0,0,1-4.117,2.561c-1.494-.037-3.058.12-3.906,1.33a6.117,6.117,0,0,1-4.975,2.869,3.8,3.8,0,0,0-2.792,2.147,2.97,2.97,0,0,1-2.25,1.536,4.746,4.746,0,0,0-3.743,2.89,2.255,2.255,0,0,1-2.326,1.484,4.924,4.924,0,0,0-4.889,3.368c-.178.439-.35.9-.853,1.087l-7.5-3.44c-.9-.449-.645-1.14-.291-1.752a5.724,5.724,0,0,1,5.018-3.138,2.111,2.111,0,0,0,2.1-1.334,3.393,3.393,0,0,1,3.165-2.264,4.215,4.215,0,0,1,1.353-.307c1.073.125,1.416-.507,1.647-1.342.041-1.389,1.124-1.886,2.117-2.443a4.48,4.48,0,0,1,1.549-.547,3.606,3.606,0,0,0,3.333-1.877,4.207,4.207,0,0,1,4.947-1.679,2.617,2.617,0,0,0,2.761-.734,14.286,14.286,0,0,1,1.892-1.287" transform="translate(-16.431 -34.419)" fill="#a7683d"/>
    <path id="Trazado_196846" data-name="Trazado 196846" d="M63.665,25.516a29.2,29.2,0,0,1,3.919,3.892,22.849,22.849,0,0,1-14.329-2.822,23.388,23.388,0,0,1-9.321-9.118c-.17-.3-.39-.561-.586-.841a26.908,26.908,0,0,1-2.577-13.2c.2-2.719.577-3.247,3.277-3.412.732-.045,1.47.009,2.206.017a1.318,1.318,0,0,1,.39,1.182A23.84,23.84,0,0,0,50.9,16.177a23.424,23.424,0,0,0,10.545,8.35,7.248,7.248,0,0,0,2.22.989" transform="translate(-14.535 0)" fill="#2bb280"/>
    <path id="Trazado_196847" data-name="Trazado 196847" d="M132.98,160.478l-4.069,4.507q-2.127-1.873-4.252-3.747a1.373,1.373,0,0,1-.13-2.059c.54-.718,1.148-1.385,1.726-2.074,2.237-2.453,4.49-4.894,6.709-7.364q5.926-6.6,11.821-13.22a2.149,2.149,0,0,1,2.022-1.876c.959-.106,1.8.628,2.22,1.8-.946,1.838-2.562,3.127-3.9,4.638-4.522,5.119-9.159,10.138-13.668,15.269-.957,1.089-.9,1.319.079,2.38.512.552,1.35.848,1.439,1.749" transform="translate(-44.321 -48.073)" fill="#edf5fe"/>
    <path id="Trazado_196848" data-name="Trazado 196848" d="M54.016,112.014a5.931,5.931,0,0,0-3.235,3.519c-.26.824-.891.543-1.393.525a5.624,5.624,0,0,0-5.321,3.042c-.267.445-.543.92-.041,1.4a18.937,18.937,0,0,0-4.079.234,1.657,1.657,0,0,1-1.228-.255c.755-.322,1.094-.64.6-1.6a3.391,3.391,0,0,1,1.438-4.283,4.95,4.95,0,0,1,3.169-.993,2.522,2.522,0,0,0,2.456-1.081,5.51,5.51,0,0,1,6.342-1.13c.433.2.858.41,1.287.616" transform="translate(-13.825 -39.589)" fill="#fec887"/>
    <path id="Trazado_196849" data-name="Trazado 196849" d="M68.887,100.346a8.071,8.071,0,0,0-3.618,2.63,14.963,14.963,0,0,1-3.392-11.059c.059-.878.436-1.56,1.352-1.612a11.754,11.754,0,0,1,4.61.213,1.307,1.307,0,0,1,.181.995,14.026,14.026,0,0,0,.782,7c.194.588.583,1.2.086,1.839" transform="translate(-22.078 -32.2)" fill="#2bb281"/>
    <path id="Trazado_196850" data-name="Trazado 196850" d="M71.925,100.532a18.629,18.629,0,0,1-1.575-7.344,6.1,6.1,0,0,1,.526-2.486,13.941,13.941,0,0,1,9.375,5.914A5.608,5.608,0,0,0,74.836,99.9c-.316.665-.784.692-1.361.669-.516-.02-1.033-.023-1.55-.033" transform="translate(-25.116 -32.386)" fill="#37c37a"/>
    <path id="Trazado_196851" data-name="Trazado 196851" d="M34.839,131.516c1.124,0,2.256.086,3.371-.016a5.635,5.635,0,0,1,5.724,7.174,1.862,1.862,0,0,0-.039.386,81.914,81.914,0,0,1-7.805-5.1,2.762,2.762,0,0,1-1.251-2.442" transform="translate(-12.438 -46.946)" fill="#fee1b7"/>
    <path id="Trazado_196852" data-name="Trazado 196852" d="M139.861,95.537c-.228-.256-.438-.529-.685-.764-1.094-1.044-1.6-1.027-2.691.057-.242.241-.5.464-.756.694q-5.368-4.88-10.735-9.761c-.51-.464-1.011-.941-1.516-1.413-1.052-1.348-1.859-3.1-3.674-3.466a8.6,8.6,0,0,1-5.041-2.725,3.985,3.985,0,0,0-3.37-1.05,1.92,1.92,0,0,1-2.165-1.228,5.158,5.158,0,0,0-5.4-3.2c-.492.024-.964.018-1.2-.528A19.135,19.135,0,0,0,98.9,69.426c.01-3.681.038-7.362.015-11.043a2.263,2.263,0,0,1,.761-1.825c.95-.885,1.853-1.821,2.761-2.75,1.114-1.141,1.213-2.172.319-3.054-.819-.807-1.92-.723-2.994.225-.186.164-.379.32-.7.6-.253-1.638.107-3.165-.163-4.607-.654-3.494,1.271-5.572,3.746-7.425a4.6,4.6,0,0,1,2.125-.478,23.579,23.579,0,0,0,23.187-17.843c.148-.537.1-1.262.906-1.405a91.148,91.148,0,0,1,9.971,6.551c12.586,10.121,20.511,23.062,23.388,38.988a62.8,62.8,0,0,1-6.206,40.7c-.078.152-.178.293-.267.438-3.3-2.994-6.58-6-9.9-8.97-.926-.826-1.364-.644-2.873.9a5.386,5.386,0,0,1-3.107-2.88" transform="translate(-35.266 -7.076)" fill="#25e0ac"/>
    <path id="Trazado_196853" data-name="Trazado 196853" d="M131.012,15.324a24.637,24.637,0,0,1-5.722,11.628c-5.5,6.049-12.413,8.567-20.5,8.1q7.928-7.98,15.854-15.963a5.4,5.4,0,0,0,1.016-1.171,1.9,1.9,0,0,0-.37-2.579,1.692,1.692,0,0,0-2.54.177c-2.152,2.14-4.336,4.25-6.425,6.451-1.166,1.227-2.631,2.127-3.663,3.485-1.035-.423-.555-1.2-.348-1.812a22.276,22.276,0,0,1,4.85-7.932,23.961,23.961,0,0,1,16.037-7.94,18.3,18.3,0,0,0,1.865-.53,22.654,22.654,0,0,1,.139,6.549c-.039.515-.131,1.026-.2,1.539" transform="translate(-37.418 -2.584)" fill="#37c37a"/>
    <path id="Trazado_196854" data-name="Trazado 196854" d="M66.623,25.535c-.47.43-.923.066-1.326-.089-8.7-3.345-14.1-9.49-15.843-18.727A17.693,17.693,0,0,1,49.212.054,23.8,23.8,0,0,1,65.537,6.49c.383.347.757.7,1.135,1.058a4.428,4.428,0,0,1,2.154,1.761,23.822,23.822,0,0,1,4.849,15.373c-.028.594.059,1.233-.566,1.621q-6.363-6.322-12.726-12.643a9.284,9.284,0,0,0-.939-.9,2.011,2.011,0,0,0-2.709.2,1.858,1.858,0,0,0,.149,2.666q3.426,3.47,6.892,6.9a23.79,23.79,0,0,0,2.848,3.01" transform="translate(-17.492 -0.019)" fill="#37c37a"/>
    <path id="Trazado_196855" data-name="Trazado 196855" d="M82.929,29.45A23.727,23.727,0,0,0,76.973,11.3c-.168-.194-.321-.4-.48-.6a61.144,61.144,0,0,1,19.785-1.6,30.577,30.577,0,0,1,6.254.871c.081.743-.505,1.053-.96,1.42a23.883,23.883,0,0,0-9.065,15.2,16.367,16.367,0,0,0-.29,4.754,2.192,2.192,0,0,1-.39,1.468c-.924.895-1.787,2.419-2.787,2.514-1.056.1-1.872-1.559-2.792-2.448-1.142-1.1-2.216-2.28-3.318-3.424" transform="translate(-27.313 -3.166)" fill="#25e0ac"/>
    <path id="Trazado_196856" data-name="Trazado 196856" d="M100.288,31.244c-.75-9.426,2.768-16.886,10.343-22.481a3.243,3.243,0,0,0,.361-.366,29.639,29.639,0,0,1,9.22-3.539,23.886,23.886,0,0,1,7.721-.109,1.524,1.524,0,0,1,1.494,1.505c-.118,1.159-1.107.967-1.788,1.036-9.17.923-15.65,5.707-19.768,13.814-.507,1-1.377,2.045-.849,3.365a91.983,91.983,0,0,1-6.734,6.777" transform="translate(-35.774 -1.601)" fill="#2bb280"/>
    <path id="Trazado_196857" data-name="Trazado 196857" d="M88.3,101.209a1.693,1.693,0,0,0,1,.041,5.606,5.606,0,0,1,6.108,3.563c.279.7.489.971,1.354.869a5.305,5.305,0,0,1,5.341,2.471,1.741,1.741,0,0,0,1.675.867,5.5,5.5,0,0,1,5.37,4.391,17.34,17.34,0,0,0-10.192-3.141c-3.222-.113-6.436-.451-9.654-.691a2.74,2.74,0,0,1-1.978.337c-1.445-.213-2.913-.188-4.367-.359a3.523,3.523,0,0,0-3.827,2.035,4.713,4.713,0,0,1-.676.776c-.056,2.915,1.929,5.023,5.143,5.448,3.469.459,6.94.9,10.409,1.366a5.374,5.374,0,0,1,4.7,5.212,3.344,3.344,0,0,1-3.37,3.377c-2.992.049-5.95-.438-8.927-.635-3.362-.221-6.707-.768-10.07-.909a32.084,32.084,0,0,1-14.122-3.917c-1.177-.636-2.383-1.216-3.577-1.821.963-3.645,2.441-4.857,6.2-4.968a1.252,1.252,0,0,0,1.3-.968,5.178,5.178,0,0,1,4.594-3.458,1.4,1.4,0,0,0,1.279-.849,5.2,5.2,0,0,1,5.136-3.055,1.8,1.8,0,0,0,1.886-1.2,4.511,4.511,0,0,1,4.4-2.672,5.679,5.679,0,0,0,4.866-2.112" transform="translate(-20.939 -36.135)" fill="#be7e52"/>
    <path id="Trazado_196858" data-name="Trazado 196858" d="M89.459,116.709a3.479,3.479,0,0,1,3.671-3.343c2.4.095,4.785.362,7.178.555a5.954,5.954,0,0,1-6.606,3.156c-1.4-.246-2.857.085-4.243-.368" transform="translate(-31.942 -40.477)" fill="#fee1b7"/>
    <path id="Trazado_196859" data-name="Trazado 196859" d="M152.265,137.589a19.656,19.656,0,0,1,3.107,2.88c-6.314,7.052-12.552,14.173-19.045,21.064a11.015,11.015,0,0,1-2.366-2,1.272,1.272,0,0,1-.006-1.946c2.281-2.532,4.547-5.079,6.829-7.609q5.288-5.865,10.58-11.725c.266-.3.465-.621.9-.659" transform="translate(-47.67 -49.128)" fill="#fefefe"/>
    <path id="Trazado_196860" data-name="Trazado 196860" d="M139.454,180.061a2.277,2.277,0,1,1-2.3,2.28,2.283,2.283,0,0,1,2.3-2.28" transform="translate(-48.972 -64.293)" fill="#fdae11"/>
    <path id="Trazado_196861" data-name="Trazado 196861" d="M133.107,73.876c-1.25,8.395-11.094,14.175-19.065,11.195a15.04,15.04,0,0,1,8.43-10.729,13.768,13.768,0,0,1,9.222-1.255c.548.118,1.121.207,1.414.79" transform="translate(-40.72 -25.986)" fill="#37c37a"/>
    <path id="Trazado_196862" data-name="Trazado 196862" d="M131.553,72.7a14.837,14.837,0,0,0-9.735.641,15.044,15.044,0,0,0-8.362,8.847c-.233.6-.136,1.431-.968,1.706a.663.663,0,0,1-.129-.008c-2.83-.736-3.1-1.227-2.226-3.971a14.856,14.856,0,0,1,20.285-9.09c.773.357,1.712.673,1.135,1.875" transform="translate(-39.166 -24.809)" fill="#2bb380"/>
  </g>
</svg>
