<svg id="Grupo_154420" data-name="Grupo 154420" xmlns="http://www.w3.org/2000/svg" xmlns:xlink="http://www.w3.org/1999/xlink" width="131.096" height="134.698" viewBox="0 0 131.096 134.698">
  <defs>
    <clipPath id="clip-path">
      <rect id="Rectángulo_46084" data-name="Rectángulo 46084" width="131.096" height="134.699" fill="none"/>
    </clipPath>
  </defs>
  <g id="Grupo_154419" data-name="Grupo 154419" clip-path="url(#clip-path)">
    <path id="Trazado_196863" data-name="Trazado 196863" d="M67.5,148.715a28.754,28.754,0,0,0-4.953-.776,62.769,62.769,0,0,1-17.152-5.3,1.709,1.709,0,0,1-.4-1.211c-.027-2.394-.041-4.789.007-7.183a1.764,1.764,0,0,1,.33-1.107,2.933,2.933,0,0,1,1.9-.31c4.977-.023,9.953.018,14.929-.027,7.749-.051,15.5-.014,23.247-.022,7.881-.007,15.763.006,23.643,0,3.829,0,5.631-1.811,5.648-5.631.007-1.314.061-2.629-.031-3.939-.089-1.248-.477-1.681-1.725-1.666-3.488.041-2.913-.665-2.922-3.2q-.027-8.144,0-16.285a6.143,6.143,0,0,1,1.244-2.841q4.785-8.189,9.487-16.428a3.3,3.3,0,0,1,.775-1.043c.453-.35.6,0,.735.352a6.872,6.872,0,0,1,.12,1.7q0,20.022.007,40.043a5.776,5.776,0,0,1-.369,2.312,57.015,57.015,0,0,1-10.1,9.53A64.941,64.941,0,0,1,83.64,147.861c-1.632.287-3.3.4-4.946.589-.246.028-.539-.058-.67.265H76.445a3.421,3.421,0,0,0-2.1,0H71.184a4.5,4.5,0,0,0-2.368,0Z" transform="translate(-7.725 -14.017)" fill="#5f6ab8"/>
    <path id="Trazado_196864" data-name="Trazado 196864" d="M69.618,4.965a2.617,2.617,0,0,0,2.271-1.844A6.247,6.247,0,0,1,75.943,0H78.31a7.081,7.081,0,0,1,4.624,4.256c.273.718,1.063.258,1.44.7-.234.384-.842.383-.933.916-.055.741-.012,1.48-.031,2.217a2.035,2.035,0,0,1-.094.9c-.8,1.51-2.218.734-3.377.848a1.206,1.206,0,0,1-1.455-1.274,16.985,16.985,0,0,0-.094-2.333c-.171-.615-.46-1.106-1.2-1.135-.789-.031-1.148.446-1.335,1.129a19.3,19.3,0,0,0-.1,2.354c-.051.7-.356,1.189-1.093,1.23a9.358,9.358,0,0,1-3.628-.164c-.765-.787-.48-1.784-.441-2.683a1.82,1.82,0,0,0-.984-2" transform="translate(-11.959 0)" fill="#d9ebf6"/>
    <path id="Trazado_196865" data-name="Trazado 196865" d="M73.761,162.57a2.383,2.383,0,0,1,2.368,0Z" transform="translate(-12.67 -27.871)" fill="#7382c9"/>
    <path id="Trazado_196866" data-name="Trazado 196866" d="M80.431,162.572a1.971,1.971,0,0,1,2.1,0Z" transform="translate(-13.816 -27.873)" fill="#7181c8"/>
    <path id="Trazado_196867" data-name="Trazado 196867" d="M137.96,121.9c-.017-.876-.051-1.752-.051-2.628q-.016-20.978-.027-41.956c-.285-.407-.048-.761.147-1.09,3.161-5.331,6.131-10.774,9.365-16.064.519-.862.983-1.757,1.52-2.607.194-.306.274-.783.816-.692a54.96,54.96,0,0,1,3.157,11.463,56.108,56.108,0,0,1,.961,10.836,64.81,64.81,0,0,1-8.259,31.921A59.774,59.774,0,0,1,137.96,121.9" transform="translate(-23.662 -9.766)" fill="#25e0ac"/>
    <path id="Trazado_196868" data-name="Trazado 196868" d="M113.439,15.411c4.252,0,8.505-.006,12.757.008,3.085.011,4.591,1.519,4.607,4.6.017,3.2.013,6.4.019,9.6a5.184,5.184,0,0,1,.354,1.776c-.035,3.259.063,6.518-.063,9.775a2.3,2.3,0,0,1-.292,1.082c-.746,1.282-1.59,2.51-2.245,3.848-2.773,5.138-5.816,10.123-8.7,15.2-.214.376-.494,1.434-1.242.352a8.006,8.006,0,0,1-.129-2.094q-.006-12.613,0-25.226c0-3.3-1.2-4.486-4.533-4.5-2.321-.009-4.642,0-6.963,0a4.918,4.918,0,0,1-1.817-.181c-.81-.637-.172-1.271.051-1.861a5.617,5.617,0,0,0-2.861-7.268,8.559,8.559,0,0,0-3.464-.481c-.846-.032-1.757.25-2.511-.406a1.324,1.324,0,0,1-.173-.456c-.083-.831-.019-1.661-.046-2.49-.036-1.1.484-1.6,1.566-1.622,1.7-.027,3.406-.01,5.11-.013,2.534-.006,5.067.02,7.6-.012a12.48,12.48,0,0,1,2.977.375" transform="translate(-16.522 -2.583)" fill="#5f6ab8"/>
    <path id="Trazado_196869" data-name="Trazado 196869" d="M111.666,13.856c-5.15.017-10.3.07-15.451.022-1.159-.011-1.575.3-1.451,1.464a20.4,20.4,0,0,1-.024,2.484c-.687-.12-.562-.7-.589-1.135a17.883,17.883,0,0,1,.118-3.272c.208-1.7-.454-2.452-2.177-2.509-1.574-.052-3.149-.014-4.724-.02-1.024,0-1.5-.364-1.424-1.493a10.367,10.367,0,0,0-.084-3.126c.348-.489.88-.145,1.305-.287a65.474,65.474,0,0,1,24.5,7.872" transform="translate(-14.749 -1.028)" fill="#25e0ac"/>
    <path id="Trazado_196870" data-name="Trazado 196870" d="M153.355,37.172a6.88,6.88,0,0,1,1.853,8.672c-.574,1.168-1.237,2.293-1.86,3.436a1.058,1.058,0,0,1-1.228-.044c-2.235-1.275-4.454-2.578-6.674-3.879a.838.838,0,0,1-.388-.508c1.4-4.11,4.279-7.405,8.3-7.678" transform="translate(-24.917 -6.385)" fill="#fa6467"/>
    <path id="Trazado_196871" data-name="Trazado 196871" d="M137.583,47.17l.312-.767a5.067,5.067,0,0,1,1.786-3.006,10.046,10.046,0,0,1,4.049,2.447c.244.992-.486,1.627-.894,2.369-.687,1.25-.691,1.343.531,2.015,1.8.99,3.546,2.07,5.337,3.073a1.858,1.858,0,0,1,1,.98c0,.091-.007.182-.011.272l-2.067,3.406c-1.589-.571-2.893-1.673-4.414-2.37-.894-.538-1.776-1.1-2.693-1.6-.418-.229-.872-.429-.971-.977a5.929,5.929,0,0,1,1.07-2.195c.518-.819.417-1.341-.464-1.743-.709-.324-1.344-.785-2.023-1.167-.271-.152-.693-.25-.55-.736" transform="translate(-23.628 -7.454)" fill="#b1d8ec"/>
    <path id="Trazado_196872" data-name="Trazado 196872" d="M144.1,44.492,140.14,42.1a6.378,6.378,0,0,1,2.187-3.89c3.246-3.441,6.941-3.939,10.183-1.372-.508.709-1.37.446-2.041.735a9.554,9.554,0,0,0-4.78,4.475c-.43.81-.886,1.605-1.331,2.408-.067.127-.152.139-.254.038" transform="translate(-24.072 -6.049)" fill="#ee525a"/>
    <path id="Trazado_196873" data-name="Trazado 196873" d="M144.568,46.408c.084-.015.17-.028.254-.038,2.466,1.449,4.929,2.9,7.4,4.336a2.438,2.438,0,0,0,.742.154l-2.353,3.931c-2.259-1.3-4.5-2.631-6.781-3.9-.88-.492-1.386-.9-.6-1.959a6.363,6.363,0,0,0,1.333-2.519" transform="translate(-24.537 -7.965)" fill="#d9ebf6"/>
    <path id="Trazado_196874" data-name="Trazado 196874" d="M141.954,37.766l-2.187,3.89-1.8,2.9q.016-5.956.033-11.911a53.161,53.161,0,0,1,3.955,5.121" transform="translate(-23.699 -5.608)" fill="#799fe9"/>
    <path id="Trazado_196875" data-name="Trazado 196875" d="M40.862,121.8q0,4.706,0,9.413a48,48,0,0,1-8.11-4.444A62.726,62.726,0,0,1,19.75,115.6c-.258-.292-.466-.626-.7-.941a4.979,4.979,0,0,1-.451-2.291q0-40.145,0-80.292a4.436,4.436,0,0,1,.41-2.168c.244-3.194.041-6.394.108-9.59a4.977,4.977,0,0,1,1.2-3.64,3.785,3.785,0,0,1,2.661-1.246c4.526-.161,9.054-.027,13.58-.07a23.433,23.433,0,0,1,5.1-.217c1.153.053,1.349.407.7,1.377a7.052,7.052,0,0,0-1.087,4.116q.025,3.348,0,6.7c-.013,2-.2,2.159-2.164,2.21a14.913,14.913,0,0,0-4.044.2c-2.8.724-3.769,1.972-3.773,5q-.021,18.4-.006,36.791,0,21.352,0,42.7c0,.438,0,.875,0,1.314.029,3.99,1.658,5.674,5.625,5.813.873.061,1.748.01,2.62.04.474.016.976-.041,1.328.394" transform="translate(-3.195 -2.593)" fill="#524fa0"/>
    <path id="Trazado_196876" data-name="Trazado 196876" d="M15.816,32.975c.02.436.058.874.058,1.31q0,41.458,0,82.916c0,.175-.012.35-.02.524a63.491,63.491,0,0,1-14.5-29.294A62.68,62.68,0,0,1,.1,71.994a64.237,64.237,0,0,1,11.63-33.917,29.641,29.641,0,0,1,4.091-5.1" transform="translate(0 -5.664)" fill="#25e0ac"/>
    <path id="Trazado_196877" data-name="Trazado 196877" d="M64.7,5.989c1.052-.114,1.677.037,1.387,1.407a15.109,15.109,0,0,0-.032,3.093,2.037,2.037,0,0,1-1.608.391c-1.446.021-2.893-.009-4.339.012-1.683.026-2.081.37-2.369,1.992-.076.429-.08.882-.469,1.188a3.3,3.3,0,0,1-1.662.263c-2.313.01-4.7.364-6.92-.091-2.582-.528-5.165-.214-7.712-.631a58.389,58.389,0,0,1,16.01-6.26A64.053,64.053,0,0,1,64.7,5.989" transform="translate(-7.038 -1.023)" fill="#25e0ac"/>
    <path id="Trazado_196878" data-name="Trazado 196878" d="M40.547,15.2c5.452.135,10.9.391,16.359.309a6,6,0,0,1,.219,4.033c-.284.5-.787.493-1.261.518-.742.039-1.485.01-2.227.018a5.659,5.659,0,0,0-5.419,7.9c.19.518.789,1.044.141,1.652a15.023,15.023,0,0,1-4.122.206c-1.434.067-2.868.032-4.3.018a1.7,1.7,0,0,1-1.443-.441c1.493-.482,3.029-.181,4.541-.195.963-.009,1.309-.26,1.279-1.261-.068-2.277.015-4.558-.032-6.835-.042-2.008.121-3.924,1.935-5.635H40.06c-.078-.051-.1-.1-.068-.134a.124.124,0,0,1,.09-.053l.465-.1" transform="translate(-6.612 -2.611)" fill="#5f6ab8"/>
    <path id="Trazado_196879" data-name="Trazado 196879" d="M37.574,15.311a1.014,1.014,0,0,1-.022.187L23.887,15.46a3.174,3.174,0,0,1,.74-.18q6.473,0,12.947.031" transform="translate(-4.103 -2.625)" fill="#7a9fe9"/>
    <path id="Trazado_196880" data-name="Trazado 196880" d="M110.611,105.837c.008,5.956.045,11.912,0,17.867-.009,1.158.234,1.6,1.5,1.562,3.261-.085,3.3.016,3.3,3.269,0,1.27.023,2.541-.007,3.811a5.022,5.022,0,0,1-4.775,4.991c-.262.018-.525.019-.788.019q-23.19,0-46.38,0c-.306,0-.612-.027-.918-.041-.306-.185-.671-.223-.986-.388-4.109-2.755-4.081-8.023.057-11.54.164-.062-.171-.1-.029,0,.06.043.027.06-.071.1a2.664,2.664,0,0,1-1.164.137c-3.987,0-7.973.02-11.96-.015-.575,0-1.334.265-1.628-.6.615-.593,1.4-.442,2.123-.438,5.475.033,10.952.126,16.426.195,14.07.177,28.144.059,42.215.059.219,0,.439,0,.658,0,1.692-.028,1.807-.124,1.812-1.786q.019-6.839,0-13.677c0-.921.012-1.841.082-2.76.07-.33.075-.7.529-.768" transform="translate(-8.033 -18.18)" fill="#b1d8ec"/>
    <path id="Trazado_196881" data-name="Trazado 196881" d="M122.872,97.589l-.234.484c-.074.193-.166.36-.421.291a.975.975,0,0,1-.347-.533c-.566-1.576-.946-1.828-2.574-1.762-.4.016-.88.267-1.156-.278a62.006,62.006,0,0,1,3.943-7.108c5.752-10.03,11.587-20.012,17.333-30.046a2.217,2.217,0,0,1,.645-.815,21.255,21.255,0,0,1,4.231,2.615q-4.768,8.224-9.533,16.45a4.8,4.8,0,0,0-.247.6q-4.465,7.653-8.927,15.307c-.923,1.589-1.811,3.2-2.715,4.8" transform="translate(-20.293 -9.932)" fill="#fce47f"/>
    <path id="Trazado_196882" data-name="Trazado 196882" d="M60.98,143.222l.528.48-16.844.075-3.93-.079c.181-.747.745-.713,1.324-.651,5.138.046,10.276.006,15.413.017a21.783,21.783,0,0,1,3.508.158" transform="translate(-6.997 -24.567)" fill="#98d1ea"/>
    <path id="Trazado_196883" data-name="Trazado 196883" d="M60.626,18.209l.01-4.113c0-.482-.018-.967.017-1.446a1.983,1.983,0,0,1,2.129-1.979c2.191-.012,4.381-.006,6.573-.007,1.044,0,2.093-.054,3.132.021,1,.071,1.415-.217,1.35-1.295a3.913,3.913,0,0,1,.2-2.415,1.755,1.755,0,0,1,.387,1.577c-.083,1.133.195,1.875,1.521,1.784a1.035,1.035,0,0,1,.717.266c-1.359,2.607-.81,5.427-.905,8.175a5.12,5.12,0,0,0,.826,3.5c.158.2.265.47-.057.667a2.38,2.38,0,0,1-1.141.231q-6.263.031-12.526,0a3.2,3.2,0,0,1-1.029-.155c-1.622-1.094-2.055-2.82-1.208-4.814" transform="translate(-10.341 -1.198)" fill="#91d0e9"/>
    <path id="Trazado_196884" data-name="Trazado 196884" d="M79.851,22.621a2.249,2.249,0,0,1-1.264-2.113q-.1-3.9,0-7.813a2.342,2.342,0,0,1,1.263-2.122c-.123-1.253-.453-2.523.283-3.71.478.864.193,1.8.216,2.7.018.715.223.983.977,1.017,3.257.146,3.254.171,3.253-3.064,0-.393.013-.788.021-1.182a5.512,5.512,0,0,1,.208,2.948c-.043,1.078.354,1.343,1.354,1.3,1.611-.072,3.228-.027,4.842-.017,1.9.012,2.775,1.078,2.451,2.965a10.156,10.156,0,0,0,.026,4.362.563.563,0,0,1,.032.2c.933,2.011.35,3.956-1.454,4.848-3.758.294-7.521.116-11.283.1a1.1,1.1,0,0,1-.928-.415" transform="translate(-13.491 -1.088)" fill="#b1d8ec"/>
    <path id="Trazado_196885" data-name="Trazado 196885" d="M79.855,6.75c-.183,1.23.265,2.509-.283,3.71-2.633-.054-2.632-.054-2.64-2.674,0-.345-.012-.69-.02-1.035a1.252,1.252,0,0,1,1.4-1.079A1.326,1.326,0,0,1,79.855,6.75" transform="translate(-13.211 -0.974)" fill="#7aa0e9"/>
    <path id="Trazado_196886" data-name="Trazado 196886" d="M109.82,93.918l.25-.224c.011,5.962-.006,11.922.055,17.883.013,1.23-.716,1.049-1.454,1.049H74.218c-3.112,0-6.232.147-9.334-.031-5.645-.323-11.29-.168-16.934-.213-.5,0-1.06-.189-1.5.24-.31.373-.659.552-1.111.224a2.721,2.721,0,0,1-.357-1.769q-.012-38.387,0-76.774a2.372,2.372,0,0,1,.437-1.863l4.247-.094a1.189,1.189,0,0,1,.933.4,6.941,6.941,0,0,0,4.966,1.663c2.8-.07,5.6,0,8.4-.028a2.548,2.548,0,0,1,2.366,1.309c3.346,5.093,9.79,5.1,13.117.019a2.641,2.641,0,0,1,2.488-1.331c2.756.037,5.513-.041,8.267.031a6.918,6.918,0,0,0,4.97-1.647,1.254,1.254,0,0,1,.93-.417q4.59.017,9.18.036c3.5.009,4.9,1.412,4.9,4.949q0,12.986,0,25.972c0,.568.025,1.136.037,1.7.244.642-.2,1.078-.476,1.556-3.914,6.874-7.91,13.7-11.827,20.576a8.021,8.021,0,0,0-.818,3.38c-.277,1.666-.514,3.339-.779,5-.392,2.287-.663,4.592-1.015,6.884a3.881,3.881,0,0,0-.049.391c-.031.584-.026,1.174.58,1.489s.97-.186,1.393-.466c2.043-1.208,3.717-2.9,5.624-4.288,2.3-1.9,4.711-3.663,6.97-5.615" transform="translate(-7.725 -5.555)" fill="#d9ebf6"/>
    <path id="Trazado_196887" data-name="Trazado 196887" d="M96.841,30.317a7.192,7.192,0,0,1-5.969,2.431c-2.886-.094-5.779,0-8.669-.036a1.462,1.462,0,0,0-1.535.885,7.978,7.978,0,0,1-14.086-.007,1.463,1.463,0,0,0-1.539-.878c-2.846.032-5.695-.066-8.537.038a7.328,7.328,0,0,1-6.1-2.432c-1.839-3.57-1.4-6.509,1.277-8.556a5.849,5.849,0,0,1,3.661-1.205c1.136,0,2.273-.012,3.409-.02.011.7.074,1.4.021,2.1a2.89,2.89,0,0,0,1.077,2.418c-.426.511-1.025.4-1.578.425-.915.037-1.833-.039-2.746.049-.608.058-1.14.292-1.2.981s.438,1,1.008,1.193a5.2,5.2,0,0,0,1.685.165c3.4.006,6.8.025,10.205-.007a2.964,2.964,0,0,1,3.281,2.195c.667,2.1,1.633,2.949,3.31,2.854,1.781-.1,2.51-1.319,2.935-2.838a2.975,2.975,0,0,1,3.289-2.211c3.414.033,6.828.014,10.242.007a4.6,4.6,0,0,0,1.812-.224c.47-.2.86-.5.823-1.061a1.061,1.061,0,0,0-1.015-1.027c-1-.139-2.011-.027-3.016-.075-.594-.028-1.246.124-1.706-.439a2.559,2.559,0,0,0,1.265-2.592c-.015-.639.026-1.28.043-1.921,1.093.008,2.187,0,3.279.027,4.987.142,7.7,4.787,5.363,9.176-.1.192-.195.39-.292.585" transform="translate(-8.466 -3.526)" fill="#fcce49"/>
    <path id="Trazado_196888" data-name="Trazado 196888" d="M108.714,90.259q4.848-8.465,9.694-16.932c.931-1.628,1.84-3.271,2.76-4.906l9.145-15.751c.066-.113.144-.219.216-.327a1.024,1.024,0,0,1,1.2.2c.944.656,2.113.986,2.848,1.945.2.466-.034.82-.256,1.216-3.865,6.907-7.878,13.728-11.862,20.566-2.93,5.029-5.837,10.072-8.789,15.088-.251.426-.35,1.034-1.025,1.07a1.49,1.49,0,0,1-.521-.725,2.136,2.136,0,0,0-2.418-1.319c-.335.039-.688.158-.989-.119" transform="translate(-18.674 -8.969)" fill="#fcb813"/>
    <path id="Trazado_196889" data-name="Trazado 196889" d="M139,53.825a31.879,31.879,0,0,0-3.945-2.215,19.759,19.759,0,0,1,2.1-3.657c1.035.609,2.055,1.247,3.112,1.815.78.42.946.878.426,1.641-.531.78-.964,1.627-1.44,2.443a.226.226,0,0,1-.252-.027" transform="translate(-23.199 -8.237)" fill="#92d0e9"/>
    <path id="Trazado_196890" data-name="Trazado 196890" d="M135.288,55.043a.86.86,0,0,1,.252.027l3.715,2.274c-.983,2.587-2.613,4.82-3.962,7.206-3.04,5.371-6.163,10.694-9.246,16.04q-4.117,7.14-8.228,14.284c-.081.14-.258.224-.391.335a.592.592,0,0,1-.267-.27c-.614-1.661-1.9-1.931-3.445-1.68-.192-.082-.348-.183-.221-.428q3.126-5.358,6.249-10.717,3.023-5.2,6.023-10.421c2.28-3.946,4.525-7.912,6.856-11.826.942-1.582,1.878-3.159,2.665-4.823" transform="translate(-19.488 -9.455)" fill="#fcce49"/>
    <path id="Trazado_196891" data-name="Trazado 196891" d="M43.432,32.444q0,39.609,0,79.218c0,.419-.146.887.252,1.233-.245,2.553-.043,5.119-.2,7.673a3.812,3.812,0,0,1-2.96,3.642,1.622,1.622,0,0,0-1.045.48c-3.086.517-6.062-1.618-6.056-5.673q.061-40.888.023-81.777c0-2.944,1.451-4.623,4.176-4.882l5.81.087" transform="translate(-5.741 -5.558)" fill="#b1d8ec"/>
    <path id="Trazado_196892" data-name="Trazado 196892" d="M42,140.857a4.871,4.871,0,0,0,2.647-4.991c-.083-1.352.014-2.714-.027-4.07a3.83,3.83,0,0,1,.535-2.254l.782-.27H61.7c-2.277,1.457-3.594,3.292-3.64,5.81a6.226,6.226,0,0,0,3.139,5.778c-.3.366-.717.254-1.1.254q-8.5.009-17.007,0c-.379,0-.8.109-1.095-.258" transform="translate(-7.214 -22.206)" fill="#91d0e9"/>
    <path id="Trazado_196893" data-name="Trazado 196893" d="M113.168,100.985c2.044-.785,3.322-.076,3.716,2.061a.369.369,0,0,0,.427.189c2.559-.423,2.9-.2,3.73,2.422-.9,1.7-2.693,2.431-4.028,3.66-.861.793-1.854,1.446-2.787,2.162a7.183,7.183,0,0,1-3.919-2.189,10.659,10.659,0,0,1,.77-3.522c.3-1.218.651-2.425,1.034-3.621.173-.539.359-1.09,1.058-1.161" transform="translate(-18.945 -17.293)" fill="#f3c2b7"/>
    <path id="Trazado_196894" data-name="Trazado 196894" d="M88.119,25.977c1.445.011,2.891.047,4.335.024,1.077-.017,1.813.383,1.938,1.5.1.933-.716,1.627-1.967,1.637-3.723.026-7.448.081-11.169-.022-1.738-.047-2.871.5-3.372,2.191a2.13,2.13,0,0,1-1.616.4c-1.677-.134-3.409.412-5.031-.4-.5-1.684-1.618-2.244-3.355-2.192-3.534.1-7.073.033-10.61.028a5.46,5.46,0,0,1-1.172-.07,1.492,1.492,0,0,1-1.359-1.645,1.458,1.458,0,0,1,1.589-1.41C57.814,26,59.3,26,60.784,25.99L75.763,26l12.356-.019" transform="translate(-9.402 -4.462)" fill="#5f6ab8"/>
    <path id="Trazado_196895" data-name="Trazado 196895" d="M78.67,85.794c-6.224,0-12.449-.055-18.671.041a2.275,2.275,0,1,1,.044-4.507c5.742-.02,11.483-.008,17.225-.008q9.8,0,19.592,0a4.052,4.052,0,0,1,1.794.278,2.078,2.078,0,0,1,1.305,2.422A2.045,2.045,0,0,1,97.736,85.8c-6.355-.024-12.71-.011-19.066-.011" transform="translate(-9.865 -13.968)" fill="#fefefe"/>
    <path id="Trazado_196896" data-name="Trazado 196896" d="M76.512,92.423c5.436,0,10.873.066,16.307-.045a2.489,2.489,0,0,1,2.511,2.146,2.413,2.413,0,0,1-2.34,2.366c-.217.022-.437.007-.657.007q-15.979,0-31.958,0c-1.984,0-3.011-.844-2.938-2.374.063-1.31.971-2.093,2.5-2.1q8.286-.015,16.571,0" transform="translate(-9.866 -15.868)" fill="#fefefe"/>
    <path id="Trazado_196897" data-name="Trazado 196897" d="M75.08,107.964c-4.69,0-9.38-.012-14.07.013a5.677,5.677,0,0,1-2.058-.323,1.975,1.975,0,0,1-1.416-1.979c.008-1.023.271-1.81,1.328-2.148a5.781,5.781,0,0,1,1.8-.3q14.53.019,29.061,0a4.117,4.117,0,0,1,1.668.278,2.17,2.17,0,0,1,1.411,2.029,1.991,1.991,0,0,1-1.347,2.047,5.241,5.241,0,0,1-2.043.39c-4.778-.019-9.555-.01-14.333-.01" transform="translate(-9.883 -17.732)" fill="#fefefe"/>
    <path id="Trazado_196899" data-name="Trazado 196899" d="M75.3,114.35q7.425,0,14.851,0c1.613,0,2.654.9,2.632,2.264a2.3,2.3,0,0,1-2.59,2.2q-15.113.014-30.227,0a2.288,2.288,0,0,1-2.556-2.231,2.225,2.225,0,0,1,2.513-2.236q7.689-.016,15.377,0" transform="translate(-9.861 -19.642)" fill="#fefefe"/>
    <path id="Trazado_196901" data-name="Trazado 196901" d="M112.526,100.495c-.149.154-.379.284-.434.466a67.9,67.9,0,0,0-2.2,7.97.551.551,0,0,1-.362.04c-1.046-.624-2.267-1-2.975-2.106.335-2.393.663-4.787,1.008-7.178a2.493,2.493,0,0,1,.781-1.593c2.345-.644,3.163-.215,3.967,2.085l.216.316" transform="translate(-18.303 -16.803)" fill="#e9b4ab"/>
    <path id="Trazado_196902" data-name="Trazado 196902" d="M106.318,108.74a21.269,21.269,0,0,1,3.083,2.046.9.9,0,0,1,.2.856,25.724,25.724,0,0,1-1.763,5.436c-.434.622-.879,1.169-1.784.8-.88-.359-.937-1.075-.83-1.829.346-2.439.729-4.873,1.1-7.309" transform="translate(-18.067 -18.679)" fill="#585877"/>
    <path id="Trazado_196903" data-name="Trazado 196903" d="M51.883,83.654a2.035,2.035,0,0,1-2.07,2.173,2.4,2.4,0,0,1-2.351-2.188,2.5,2.5,0,0,1,2.273-2.3,2.163,2.163,0,0,1,2.148,2.315" transform="translate(-8.152 -13.972)" fill="#fefefe"/>
    <path id="Trazado_196904" data-name="Trazado 196904" d="M51.889,105.613a1.936,1.936,0,0,1-2.079,2.116,2.053,2.053,0,0,1-2.317-2.09,2.477,2.477,0,0,1,2.24-2.307,2.168,2.168,0,0,1,2.157,2.28" transform="translate(-8.158 -17.75)" fill="#fefefe"/>
    <path id="Trazado_196905" data-name="Trazado 196905" d="M108.385,117.5c.183-1.92,1.079-3.654,1.444-5.527.05-.253.082-.51.123-.766a1.542,1.542,0,0,1,.254.022l3.692,2.056a42.064,42.064,0,0,1-5.513,4.215" transform="translate(-18.618 -19.103)" fill="#656582"/>
    <path id="Trazado_196906" data-name="Trazado 196906" d="M74.66,32.415l6.647,0a3.354,3.354,0,0,1-6.647,0" transform="translate(-12.825 -5.568)" fill="#d9ebf5"/>
  </g>
</svg>
