<svg xmlns="http://www.w3.org/2000/svg" xmlns:xlink="http://www.w3.org/1999/xlink" width="117" height="117" viewBox="0 0 117 117">
  <defs>
    <clipPath id="clip-path">
      <rect id="Rect치ngulo_46093" data-name="Rect치ngulo 46093" width="95.968" height="94.412" fill="none"/>
    </clipPath>
  </defs>
  <g id="Grupo_154459" data-name="Grupo 154459" transform="translate(-425.321 -2215)">
    <rect id="Rect치ngulo_46091" data-name="Rect치ngulo 46091" width="117" height="117" transform="translate(425.321 2215)" fill="none"/>
    <g id="Grupo_154467" data-name="Grupo 154467" transform="translate(435.837 2225.496)">
      <g id="Grupo_154466" data-name="Grupo 154466" clip-path="url(#clip-path)">
        <path id="Trazado_196997" data-name="Trazado 196997" d="M46.246,20.2c.2-.664.759-.846,1.349-1A37.1,37.1,0,0,1,72.928,21.06C84.79,26.407,92.322,35.527,95.1,48.249A38.295,38.295,0,0,1,53.823,94.227c-16.725-1.562-31-14.786-33.8-31.234a38.429,38.429,0,0,1,1.55-19.549c.23-.653.11-.748-.542-.763A21.364,21.364,0,0,1,.194,24.254c-.025-.172.043-.387-.194-.473V18.907a7.422,7.422,0,0,0,.515-2.217,21.326,21.326,0,0,1,42.061,2.758c.079,1.459.179,2.923.176,4.377a15.931,15.931,0,0,1-.931,4.426c8.915-4.725,18.034-5.545,27.384-1.963a31.383,31.383,0,0,1,16.05,13.621A32.021,32.021,0,0,1,40.8,83.357a35.374,35.374,0,0,1-6.226-5.064A32.034,32.034,0,0,1,29.02,41.844a.393.393,0,0,0,.044-.337c-.642.184-1.272.425-1.914.628-1.6.09-2.325,1.011-2.786,2.5-3.825,12.37-1.954,23.747,6.175,33.848a33.939,33.939,0,0,0,22.7,12.548,34.844,34.844,0,0,0,20.677-3.668A35.367,35.367,0,0,0,87.9,74.182a33.686,33.686,0,0,0,4.826-15.005A34.458,34.458,0,0,0,84.4,33.262a32.492,32.492,0,0,0-9.985-8.051A34.924,34.924,0,0,0,49.887,21.8c-.456.1-.907.23-1.361.337-1.827.43-2.433-.087-2.28-1.944" transform="translate(0 0)"/>
        <path id="Trazado_196998" data-name="Trazado 196998" d="M83.518,95.829a31.465,31.465,0,0,1-11.2,3.7A34.013,34.013,0,0,1,50.678,95.8c-10.8-5.9-17.1-15.018-18.705-27.26A34.647,34.647,0,0,1,33.8,52.327c.4-1.129.873-1.941,2.177-1.969a4.1,4.1,0,0,0,.642-.113c.377-.134.537.024.507.4a1.931,1.931,0,0,1-.257.7,28.043,28.043,0,0,0-2.911,10.488,30.037,30.037,0,0,0,2.191,14.2c2.829,6.736,7.692,11.627,13.9,15.292a1.793,1.793,0,0,0,.338.158,34.709,34.709,0,0,0,11.5,4.3A31.762,31.762,0,0,0,75.3,33.759a31.161,31.161,0,0,0-23.787,3.028c-.163.089-.329.172-.661.348.4-1.31.747-2.485.989-3.687a32.434,32.434,0,0,0,.225-5.688c.369.919.046,1.9.241,2.884.987-.371,1.932-.772,2.908-1.073.626-.193.121-.828.522-1.065-.02,1.714.564,2.1,2.384,1.644A34.9,34.9,0,0,1,83.867,33.2a2.364,2.364,0,0,1,.23.156,35.592,35.592,0,0,1,5.816,4.517A37.222,37.222,0,0,1,92.2,88.521a33.046,33.046,0,0,1-8.682,7.308" transform="translate(-9.488 -8.311)" fill="#828282"/>
        <path id="Trazado_196999" data-name="Trazado 196999" d="M71.317,96.629c-13.715.907-26.631-8.943-29.623-22.593A28.968,28.968,0,0,1,64.067,39.38a22.744,22.744,0,0,1,8.177-.445A27.7,27.7,0,0,1,82.4,44.887,30.246,30.246,0,0,1,92.486,64.266a25.645,25.645,0,0,1,.041,6.521c-.035.282-.068.565-.378.7a2.644,2.644,0,0,1-1.508-.334,2.325,2.325,0,0,0-2.659.342,8.229,8.229,0,0,1-3.567-.982c-.177-1.467-1.251-1.909-2.479-2.26-1.32-.378-2.6-.883-3.918-1.279a1.971,1.971,0,0,1-1.534-1.457,4.266,4.266,0,0,0-.784-1.588,1.954,1.954,0,0,1-.228-2.016c1.459-4.647,2.9-9.3,4.295-13.967a2.988,2.988,0,0,0-2.218-4.119,21.619,21.619,0,0,0-5.225-1.038,25.982,25.982,0,0,0-10.083,1.089A2.985,2.985,0,0,0,60.1,47.894c.982,3.291,2.013,6.567,3.02,9.851q.7,2.284,1.4,4.568a1.5,1.5,0,0,1-.2,1.416,5.115,5.115,0,0,0-.9,1.737A1.988,1.988,0,0,1,61.9,66.932c-4.534,1.507-9.034,3.111-13.583,4.575a3.111,3.111,0,0,0-2.322,2.437,3.29,3.29,0,0,0,.2,1.745,23.68,23.68,0,0,0,5.174,8.819,25.463,25.463,0,0,0,2.994,2.827,3.1,3.1,0,0,0,4.811-.572c2.789-3.724,5.653-7.394,8.4-11.15.549-.752,1.124-1.241,2.1-.944a.155.155,0,0,0,.093,0c1.554-.476,2.288.518,3.075,1.6,2.554,3.509,5.218,6.937,7.824,10.408a4.133,4.133,0,0,0,2.051,1.554c.122.027-.019-.027.087.031.4.217,1.094-.1,1.23.432s-.458.837-.809,1.161a31.7,31.7,0,0,1-9.4,6.133,8.588,8.588,0,0,1-2.5.638" transform="translate(-12.276 -11.598)" fill="#fed05b"/>
        <path id="Trazado_197000" data-name="Trazado 197000" d="M25.015,40.869A18.513,18.513,0,0,1,19.7,4.227a15.079,15.079,0,0,1,5.314-.02,17.22,17.22,0,0,1,7.059,5.059A19.272,19.272,0,0,1,36.7,18.638,19.889,19.889,0,0,1,32.27,35.613a21.062,21.062,0,0,1-5.692,4.653,11.222,11.222,0,0,1-1.563.6" transform="translate(-1.211 -1.191)" fill="#fed05b"/>
        <path id="Trazado_197001" data-name="Trazado 197001" d="M84.27,96.713a30.5,30.5,0,0,0,12.694-7.882c-.476-.257-.926.024-1.268-.27.163-.309.47-.285.738-.28a2.914,2.914,0,0,0,1.892-.7,24.365,24.365,0,0,0,8.431-12.169,2.811,2.811,0,0,0-1.06-3.242c-.248-.2-.664-.269-.638-.718a16.125,16.125,0,0,0,.362-4.5,35,35,0,0,0-1.128-7.247A30.717,30.717,0,0,0,97.6,47.544a32.2,32.2,0,0,0-9.38-7.1A19.336,19.336,0,0,1,85.2,39.019a25.537,25.537,0,0,1,10.563,2.862A28.937,28.937,0,0,1,87.432,96.4a21.559,21.559,0,0,1-3.162.312" transform="translate(-25.229 -11.682)" fill="#fec244"/>
        <path id="Trazado_197002" data-name="Trazado 197002" d="M33.976,40.966a23.494,23.494,0,0,0,5.8-4.018,20.072,20.072,0,0,0,1.744-26.684,20.093,20.093,0,0,0-6.988-5.626c-.192-.1-.371-.222-.556-.334,7.122.68,13.561,6.381,15.482,13.707a18.587,18.587,0,0,1-15.3,22.97.837.837,0,0,1-.186-.015" transform="translate(-10.172 -1.289)" fill="#fec244"/>
        <path id="Trazado_197003" data-name="Trazado 197003" d="M105.664,98.221c1.133-1.066,2.506-1.809,3.715-2.782A37.461,37.461,0,0,0,118,85.339,36.576,36.576,0,0,0,122.917,68.5,36.474,36.474,0,0,0,114.8,43.7a36.546,36.546,0,0,0-8.295-7.586,1.346,1.346,0,0,1-.264-.364,29.008,29.008,0,0,1,6.933,4.883,34.406,34.406,0,0,1,10.912,19.382,34.7,34.7,0,0,1-7.623,29.572,34.3,34.3,0,0,1-9.961,8.25c-.268.149-.56.259-.84.386" transform="translate(-31.634 -10.702)" fill="#696969"/>
        <path id="Trazado_197004" data-name="Trazado 197004" d="M51.213,100.713a16.032,16.032,0,0,1-4.387-2.571A30.38,30.38,0,0,1,37.5,87.036a29.272,29.272,0,0,1-2.83-9.6,30.526,30.526,0,0,1,2.079-15.43c.263-.632.592-1.236.883-1.855.129-.273.367-.589-.188-.676a.616.616,0,0,1,.15-.107c.736-.241,1.474-.476,2.383-.769a44.638,44.638,0,0,0-1.847,4.242Q32.619,79.219,42.9,93.105a29.848,29.848,0,0,0,7.965,7.3,3.1,3.1,0,0,1,.35.3" transform="translate(-10.313 -17.544)" fill="#696969"/>
        <path id="Trazado_197005" data-name="Trazado 197005" d="M94.113,72.946c2.033,1.183,2.508,2.463,1.738,4.684a25.262,25.262,0,0,1-8.013,11.4,3.935,3.935,0,0,1-3.087,1.027,4.062,4.062,0,0,1-2.3-1.649c-2.851-3.831-5.73-7.642-8.587-11.469-.3-.406-.567-.7-1.142-.494a1.515,1.515,0,0,1-.926.03c-1.141-.379-1.651.324-2.231,1.11-2.669,3.617-5.378,7.2-8.075,10.8-1.524,2.032-3.4,2.26-5.384.647A25.015,25.015,0,0,1,47.941,77.28,3.185,3.185,0,0,1,50.1,72.916q6.942-2.357,13.9-4.673a1.449,1.449,0,0,0,1.154-1.153,4.445,4.445,0,0,1,.8-1.669,1.738,1.738,0,0,0,.266-1.787c-1.447-4.573-2.836-9.163-4.252-13.746-.778-2.521-.008-4.033,2.53-4.781a25.743,25.743,0,0,1,15.211.093c2.159.67,2.962,2.255,2.292,4.444Q79.841,56.7,77.649,63.753a1.443,1.443,0,0,0,.221,1.536,3.7,3.7,0,0,1,.773,1.477,1.978,1.978,0,0,0,1.642,1.6c1.587.445,3.135,1.029,4.7,1.562,1.272.434,1.459.706,1.438,2.034-.008.693-.513.869-1.051.977a2.823,2.823,0,0,1-1.467-.192c-1.33-.448-2.664-.88-3.991-1.336-.481-.165-.834-.167-1.019.415a6.76,6.76,0,0,1-1.937,2.933c-.452.415-.4.745-.064,1.194,2.623,3.449,5.258,6.891,7.824,10.384.453.616.864.571,1.394.139a22.236,22.236,0,0,0,6.843-9.747c.2-.549.07-.89-.505-1.075a10.094,10.094,0,0,1-1.755-.641,1.371,1.371,0,0,1-.716-2.034,1.516,1.516,0,0,1,2.042-.686c.69.24,1.4.434,2.095.649" transform="translate(-14.283 -13.174)"/>
        <path id="Trazado_197006" data-name="Trazado 197006" d="M102.175,84.511a1.5,1.5,0,0,0,1.165,1.995,11.628,11.628,0,0,0,1.335.426c.819.186,1.026.558.717,1.394A23.06,23.06,0,0,1,98.353,98.3c-.642.531-1.024.563-1.562-.167-2.645-3.6-5.335-7.158-8.03-10.716-.355-.467-.486-.73.076-1.178a6.16,6.16,0,0,0,2.13-3.232c.148-.539.4-.572.858-.408,1.5.527,3.02.993,4.512,1.541a1.733,1.733,0,0,0,2.283-.645c1.224.2,2.313.876,3.556,1.017" transform="translate(-26.482 -24.703)" fill="#828282"/>
        <path id="Trazado_197007" data-name="Trazado 197007" d="M28.894,15.07c0,1.436.026,2.873-.013,4.307-.015.56.114.762.715.738,1.247-.05,2.5-.03,3.746-.012a2.634,2.634,0,0,1,2.406,3.944c-2.619,4.746-5.3,9.456-7.986,14.166a2.219,2.219,0,0,1-4.14-1.166c-.018-2.872-.028-5.744.007-8.615.008-.659-.174-.858-.832-.83-1.215.052-2.434.032-3.651.011a2.632,2.632,0,0,1-2.4-3.943c2.622-4.744,5.306-9.453,7.99-14.163A2.12,2.12,0,0,1,27.3,8.489a2.186,2.186,0,0,1,1.583,2.18c.02,1.467,0,2.935.006,4.4" transform="translate(-4.906 -2.51)"/>
        <path id="Trazado_197008" data-name="Trazado 197008" d="M79.125,48.073a21.58,21.58,0,0,1,6.787.97c.6.181.78.441.58,1.08q-2.083,6.633-4.1,13.289c-.144.474-.286.586-.766.4a6.665,6.665,0,0,0-5.01.012c-.421.166-.584.1-.719-.338q-2.059-6.74-4.155-13.468c-.194-.624.116-.831.637-.986a21.454,21.454,0,0,1,6.746-.958" transform="translate(-21.461 -14.39)" fill="#828282"/>
        <path id="Trazado_197009" data-name="Trazado 197009" d="M59.716,98.8c-.167-.114-.38-.24-.572-.392a22.6,22.6,0,0,1-7.257-10.242c-.237-.664-.088-.949.568-1.166q6.559-2.172,13.1-4.4c.408-.138.629-.21.783.357a6.42,6.42,0,0,0,2.184,3.3c.421.345.511.551.148,1.029C65.9,90.94,63.156,94.614,60.4,98.279c-.165.219-.3.482-.687.523" transform="translate(-15.502 -24.701)" fill="#828282"/>
        <path id="Trazado_197010" data-name="Trazado 197010" d="M79.543,82.474a4.3,4.3,0,0,1,.186-8.459,1.472,1.472,0,0,1,1.817.739,6,6,0,0,1,.277,6.621c-.593,1.1-1.013,1.27-2.281,1.1" transform="translate(-22.781 -22.132)" fill="#4f66cf"/>
        <path id="Trazado_197011" data-name="Trazado 197011" d="M81.017,82.466c1.451-.037,2.631-1.33,2.818-3.2a6.056,6.056,0,0,0-1.031-4.41,1.661,1.661,0,0,0-1.6-.852,4.232,4.232,0,0,1,4.922,3.1,4.34,4.34,0,0,1-2.923,5.32,2.958,2.958,0,0,1-2.185.041" transform="translate(-24.255 -22.124)" fill="#3b58c3"/>
        <path id="Trazado_197012" data-name="Trazado 197012" d="M27.289,24.8c.276,1.167.657,1.476,1.85,1.49s2.405.023,3.607.034c.139.373-.075.671-.235.961-1.331,2.427-2.682,4.843-4.075,7.235-.162.277-.277.659-.734.588q-.019-2.522-.039-5.046c-.013-1.371-.5-1.87-1.851-1.876-1.7-.008-3.406,0-5.291,0l4.9-8.522c.355.3.287.726.3,1.117.02.738.013,1.478.006,2.217-.007.83.224,1.461,1.171,1.579a.718.718,0,0,1,.4.226" transform="translate(-6.144 -5.886)" fill="#fc4755"/>
        <path id="Trazado_197013" data-name="Trazado 197013" d="M30.771,37.954A10.567,10.567,0,0,0,32.4,35.376c1.189-2.039,2.283-4.134,3.416-6.206h1.65L30.771,41.048Z" transform="translate(-9.212 -8.733)" fill="#f92b3a"/>
        <path id="Trazado_197014" data-name="Trazado 197014" d="M29.382,23.439c-1.625-.01-1.836-.231-1.842-1.892,0-1.082-.018-2.164-.028-3.247l1.7-3.181.165.029Z" transform="translate(-8.237 -4.527)" fill="#fa2b3a"/>
      </g>
    </g>
  </g>
</svg>
