<svg xmlns="http://www.w3.org/2000/svg" xmlns:xlink="http://www.w3.org/1999/xlink" width="117" height="117" viewBox="0 0 117 117">
  <defs>
    <clipPath id="clip-path">
      <rect id="Rect치ngulo_46098" data-name="Rect치ngulo 46098" width="95.804" height="95.159" fill="none"/>
    </clipPath>
  </defs>
  <g id="Grupo_154465" data-name="Grupo 154465" transform="translate(-425.321 -2215)">
    <rect id="Rect치ngulo_46091" data-name="Rect치ngulo 46091" width="117" height="117" transform="translate(425.321 2215)" fill="none"/>
    <g id="Grupo_154477" data-name="Grupo 154477" transform="translate(436.322 2226)">
      <g id="Grupo_154477-2" data-name="Grupo 154477" clip-path="url(#clip-path)">
        <path id="Trazado_197141" data-name="Trazado 197141" d="M50.251,24.027c3.8,0,7.594-.018,11.39.018a.924.924,0,0,0,1.07-.765,15.228,15.228,0,0,1,3.615-5.959c1.139-1.18,2.3-2.34,3.473-3.488a1.573,1.573,0,0,1,2.52,0c.633.57,1.138,1.679,1.89,1.6.651-.068,1.21-1.056,1.8-1.647,3.073-3.069,6.129-6.156,9.231-9.2.53-.52.5-.774-.015-1.263-1.426-1.363-1.36-1.35-.035-2.791.64-.7.987-.732,1.673-.02,2.59,2.687,5.249,5.307,7.909,7.924.461.454.548.739.012,1.181-.568.469-1.019,1.36-1.61,1.444-.622.089-1.088-.856-1.586-1.376-.41-.429-.624-.317-.982.044Q85.269,15.11,79.891,20.448c-.39.387-.417.616,0,.979a18.105,18.105,0,0,1,1.435,1.43,1.494,1.494,0,0,1,.023,2.307,48.368,48.368,0,0,1-5.029,4.784c-.455.337-.435.557-.168.988q4.057,6.548,8.076,13.121a2.466,2.466,0,0,0,.9.833c2.123,1.266,4.228,2.563,6.364,3.805a2.279,2.279,0,0,1,1.224,1.91c.98,8.98,2.027,17.951,2.981,26.933a51.078,51.078,0,0,1,.06,5.3q.008,5.163,0,10.327c0,1.44-.739,2.058-2.137,1.853-3.274-.482-6.543-1.013-9.828-1.4a13.065,13.065,0,0,0-4.18.579,48.082,48.082,0,0,1-11.409.888,3.187,3.187,0,0,1-1.527-.508c-3.092-1.768-6.192-3.523-9.274-5.307a2.461,2.461,0,0,0-1.452-.378,7.321,7.321,0,0,1-1.254,0,20.075,20.075,0,0,0-12.371,2.6c-1.081.615-2.35.909-3.408,1.555-4.241,2.585-8.833,2.276-13.453,1.751-3.257-.371-6.5-.914-9.761-1.191a22.652,22.652,0,0,0-4.312.374c-3.132.346-6.26.719-9.392,1.064a1.619,1.619,0,0,1-1.983-2c.931-7.885,1.95-15.76,2.756-23.657A7.354,7.354,0,0,1,5.3,64.363c2.322-2.129,4.479-4.438,6.718-6.657a2.773,2.773,0,0,0,.727-1.213c1.863-6.1,3.75-12.2,5.6-18.3a3.345,3.345,0,0,1,1.433-1.947q8.724-5.763,17.4-11.594a3.472,3.472,0,0,1,2.061-.636c3.668.032,7.336.014,11,.014" transform="translate(0 0)"/>
        <path id="Trazado_197142" data-name="Trazado 197142" d="M85.793,16.658a1.9,1.9,0,0,1,1.163.369c1.414.939,2.837,1.864,4.238,2.823a1.571,1.571,0,0,1,.283,2.719q-2.124,2.165-4.29,4.287a1.548,1.548,0,0,1-2.507-.015c-.942-.918-1.861-1.861-2.793-2.788a1.583,1.583,0,0,1-.208-2.244q1.457-2.146,2.882-4.315a1.646,1.646,0,0,1,1.233-.836" transform="translate(-31.886 -6.533)"/>
        <path id="Trazado_197143" data-name="Trazado 197143" d="M138.212,44.6a1.79,1.79,0,0,1,1.3.574c.952.954,1.921,1.892,2.854,2.864a1.526,1.526,0,0,1-.033,2.439q-2.156,2.2-4.359,4.354a1.523,1.523,0,0,1-2.586-.253q-1.5-2.176-2.935-4.395a1.485,1.485,0,0,1,.418-2.258c1.5-1.038,3.033-2.035,4.558-3.041a1.364,1.364,0,0,1,.782-.284" transform="translate(-51.809 -17.489)"/>
        <path id="Trazado_197144" data-name="Trazado 197144" d="M57.16,60.618q-5.246.205-10.493.41-7.558.286-15.117.567c-1.213.047-2,1.011-1.486,2.1a9.063,9.063,0,0,1-.013,8.194c-.506,1.072.325,2.025,1.54,2.06,1.189.035,1.19.035,1.059,1.207q-.513,4.635-1.03,9.271a1.637,1.637,0,0,1-.126.356c-1.059-.076-1.586.511-2.033,1.412q-5.111,10.329-10.3,20.622c-.208.416-.311.932-.831,1.128-2.313.016-4.586.447-6.879.664-1.848.175-3.688.423-5.532.635-.292.034-.567-.03-.448-.4.238-.742-.031-1.549.325-2.269a10.8,10.8,0,0,1,.918-2.211q2.733-5.428,5.436-10.87A5.4,5.4,0,0,1,13.8,91.516c3.429-2.555,6.832-5.145,10.278-7.676a1.686,1.686,0,0,0,.732-1.966c-.892-4.248-1.721-8.508-2.6-12.917-.776,3.433-1.56,6.725-2.211,10.042a6.993,6.993,0,0,1-2.59,4.52c-2.654,2.078-5.13,4.382-7.721,6.543a3.7,3.7,0,0,0-1.421,2.416c-.256,1.781-.628,3.544-.958,5.314-.07.374.092.956-.556,1.06.039-2.187.459-4.335.673-6.5.2-1.978.488-3.947.67-5.925a2.242,2.242,0,0,1,.7-1.51c2.653-2.623,5.283-5.272,7.926-7.906A3.2,3.2,0,0,0,17.6,75.66c1.854-6.075,3.727-12.144,5.575-18.221a2.668,2.668,0,0,1,1.135-1.58q8.127-5.368,16.213-10.8a2.426,2.426,0,0,1,1.422-.471q10.52.024,21.039-.006c.76,0,1.064.191.939.965a2.241,2.241,0,0,0,.857,2.127,14.468,14.468,0,0,1,1.9,1.915,3.237,3.237,0,0,0,3.352,1.144,16.71,16.71,0,0,0,4.471-1.1c.628-.275.886-.06,1.2.457,2.749,4.5,5.528,8.975,8.282,13.468a3.188,3.188,0,0,0,1.143,1.13c2,1.171,3.965,2.388,5.963,3.554a1.55,1.55,0,0,1,.844,1.362c.311,3.223.709,6.438,1.064,9.657.357,3.252.574,6.525,1.075,9.753.987,6.361.664,12.756.751,19.143.011.809-.1,1.1-1.018.951-2.816-.457-5.648-.811-8.474-1.206a1.838,1.838,0,0,1-.472-1.23c-.8-5.891-1.586-11.784-2.416-17.671a1.682,1.682,0,0,1,.1-1.128,1.227,1.227,0,0,1,.983-.293c.836-.018,1.672-.022,2.507,0,1.051.027,1.331.232,1.447,1.272.416,3.734.847,7.467,1.223,11.031.393-2.425.9-5,1.361-7.594.372-2.089.731-4.181,1.151-6.26.167-.829-.106-1.173-.892-1.347-1.349-.3-2.688-.647-4.025-1a1.109,1.109,0,0,1-.965-1.315c.458-4.666.835-9.339,1.3-14.005.027-.269.092-.534.106-.806A8.112,8.112,0,0,1,86.016,70c-1.188,3.4-2.39,6.792-3.642,10.168-.137.369-.164.849-.68.965a1.274,1.274,0,0,1-.433-.932c-.551-3.749-.9-7.518-1.214-11.292-.253-3-.584-6-.8-9.01a1.492,1.492,0,0,0-1.335-1.488c-5.274-1.283-10.533-2.633-15.8-3.933-1.084-.267-1.231-.2-1.761.78-.745,1.386-1.545,2.742-2.28,4.133a3.6,3.6,0,0,1-.907,1.232" transform="translate(-2.135 -17.484)" fill="#4c506e"/>
        <path id="Trazado_197145" data-name="Trazado 197145" d="M89.855,127.1c-2.29-1.089-4.418-2.467-6.624-3.706a3.978,3.978,0,0,0-2.083-.591c-2.409.036-4.821.065-7.228-.008a7.465,7.465,0,0,0-3.423.737c-2.477,1.135-4.976,2.22-7.467,3.325-.5-.835-.116-1.708-.033-2.533.814-8.057,1.673-16.11,2.477-24.168.131-1.31.281-2.62.422-3.93.134-1.252.288-1.413,1.533-1.53a28.032,28.032,0,0,1,5.278-.283c1.8,1.781,3.617,3.552,5.408,5.345q5.509,5.519,11,11.058a18.4,18.4,0,0,1,.418,4.674c.173,2.745.42,5.489.452,8.244.008.77.232,1.522.183,2.3-.024.379.018.779-.312,1.07" transform="translate(-24.618 -37.005)" fill="#2c2f41"/>
        <path id="Trazado_197146" data-name="Trazado 197146" d="M90.526,66.629c1.025-2.211,2.315-4.278,3.487-6.409.314-.57.77-.19,1.107-.107q7.824,1.921,15.634,3.9c2.109.532,2.036.549,2.186,2.8.165,2.485.482,4.96.72,7.441.15,1.56.311,3.119.407,4.682.168,2.747.59,5.46,1,8.176a2.578,2.578,0,0,1,.46,1.532c.2,1.362.363,2.729.557,4.093a1.451,1.451,0,0,1-.07,1.119c.273,2.211.529,4.424.824,6.633.349,2.619.734,5.232,1.1,7.848.259,1.859.508,3.72.762,5.58-2.245.39-4.492.773-6.734,1.176-.593.107-.87-.019-.886-.7-.052-2.088-.17-4.174-.245-6.261-.353-9.828-.665-19.656-1.07-29.482-.145-3.536-.085-7.07-.126-10.6-.017-1.484-.557-2.034-2.058-1.983q-8.143.275-16.285.576c-.256.009-.513-.009-.77-.013" transform="translate(-35.501 -23.495)" fill="#787ea9"/>
        <path id="Trazado_197147" data-name="Trazado 197147" d="M91.45,77.572c-.033.735.182,1.636-.168,2.158s-1.317.21-2.01.261c-5.221.391-10.445.756-15.667,1.137q-8.7.635-17.4,1.284c-1.186.088-2.372.157-3.558.244-.475.035-.807-.052-.517-.618a4.909,4.909,0,0,0-.063-4.693c-.3-.594-.029-.78.548-.8,2.056-.064,4.111-.151,6.167-.22,6.65-.222,13.3-.431,19.949-.664q5.974-.211,11.944-.49c.623-.029.792.182.749.759-.041.544-.008,1.093-.008,1.639h.03" transform="translate(-20.372 -29.479)" fill="#b94753"/>
        <path id="Trazado_197148" data-name="Trazado 197148" d="M6.975,114.119a38.732,38.732,0,0,0,.963-4.66c.179-.777.272-1.574.411-2.36a2.263,2.263,0,0,1,.771-1.4q3.771-3.211,7.521-6.447c.608-.522,1.191-1.081,1.844-1.541,1.182-.833,1.149-2.161,1.423-3.347.833-3.6,1.614-7.222,2.609-10.852.284,1.343.584,2.682.851,4.029.67,3.387,1.3,6.784,2.013,10.162a1.034,1.034,0,0,1-.425,1.223q-5.506,4.117-11.015,8.232a3.932,3.932,0,0,0-1.214,1.455q-3.041,6.129-6.121,12.238c-.171.339-.385.656-.58.985.187-2.589.567-5.155.949-7.72" transform="translate(-2.363 -32.752)" fill="#787ea9"/>
        <path id="Trazado_197149" data-name="Trazado 197149" d="M26.646,133.745q5.6-11.189,11.2-22.379c.5-1,.988-1.188,1.964-.784q-.728,6.209-1.457,12.417-.627,5.3-1.272,10.6c-.043.35-.117.7-.148,1.047-.029.314-.146.46-.486.414q-4.9-.663-9.8-1.314" transform="translate(-10.45 -43.288)" fill="#787ea9"/>
        <path id="Trazado_197150" data-name="Trazado 197150" d="M71.251,93.083a8.357,8.357,0,0,1-2.806.363c-.975.115-1.973.173-2.962.227-.451.025-.6.189-.642.627-.165,1.65-.376,3.3-.559,4.944q-.374,3.376-.729,6.754c-.217,2.1-.41,4.194-.627,6.291-.236,2.284-.495,4.566-.729,6.85-.218,2.128-.416,4.258-.624,6.387l-2.427,1.1a7.645,7.645,0,0,1,.167-2.7c.45-4.2.984-8.391,1.5-12.584.562-4.573,1.143-9.145,1.7-13.719.224-1.843.43-3.688.6-5.537.047-.518.193-.711.737-.739,1.375-.073,2.747-.21,4.117-.35a1.955,1.955,0,0,1,1.97.681,18.01,18.01,0,0,0,1.315,1.4" transform="translate(-23.163 -35.676)" fill="#363a4f"/>
        <path id="Trazado_197151" data-name="Trazado 197151" d="M116.088,118.654c.114,2.437.218,4.876.35,7.313.025.467-.125.591-.584.618-2.533.148-2.521.16-2.613-2.363q-.631-17.578-1.291-35.155c-.022-.584.1-.844.687-.843.32,0,.641-.024.961-.036a1.1,1.1,0,0,1,.283.893c-.089,2,.162,3.981.231,5.972.149,4.3.238,8.606.524,12.9.113,1.7.093,3.4.164,5.105.137,3.3.3,6.611.323,9.921,0,.145.018.314-.033.356a19.412,19.412,0,0,1,.478-3.757c.068-.348.013-.806.519-.925" transform="translate(-43.902 -34.583)" fill="#e0656e"/>
        <path id="Trazado_197152" data-name="Trazado 197152" d="M107.058,37.756a11.963,11.963,0,0,1,2.881-6.584c.818-.984,1.785-1.843,2.664-2.778.306-.326.525-.377.848-.018.278.309.488.484.1.926a1.461,1.461,0,0,0,.092,2.352,24.724,24.724,0,0,0,3.639,3.406c.111.432-.227.644-.462.883-1.171,1.193-2.347,2.383-3.547,3.548a3.088,3.088,0,0,1-4.488.041c-.6-.565-1.411-.932-1.726-1.776" transform="translate(-41.984 -11.03)" fill="#f9d75d"/>
        <path id="Trazado_197153" data-name="Trazado 197153" d="M54.76,92.247c1.934-.211,1.969-.207,1.74,1.737q-1.368,11.578-2.778,23.149a2.371,2.371,0,0,1-.1.369c-.39,2.23-.63,4.482-.993,6.717-.083.509-.232.93-.816,1.052-.929.193-1.375-.209-1.26-1.221.4-3.547.869-7.087,1.311-10.63q1.211-9.717,2.43-19.433a3.13,3.13,0,0,1,.472-1.74" transform="translate(-19.816 -36.14)" fill="#f19a98"/>
        <path id="Trazado_197154" data-name="Trazado 197154" d="M117.151,118.625c-.35,1.865-.7,3.73-1.078,5.746-.092-1.129-.211-2.108-.244-3.089-.148-4.418-.214-8.841-.425-13.256-.16-3.36-.262-6.719-.39-10.078-.124-3.263-.384-6.521-.353-9.79,1.4-.114,1.42-.115,1.47,1.233q.432,11.588.844,23.177c.072,2.019.117,4.038.174,6.058" transform="translate(-44.965 -34.554)" fill="#f19a98"/>
        <path id="Trazado_197155" data-name="Trazado 197155" d="M54.092,92.292c-.283,2.41-.557,4.821-.852,7.23-.286,2.344-.594,4.686-.892,7.029s-.6,4.686-.895,7.03q-.429,3.422-.842,6.845c-.154,1.268-.294,2.538-.463,3.8-.049.371-.313.79.347.849.561.05,1.1.078,1.221-.689.2-1.325.387-2.654.646-3.969a11.829,11.829,0,0,1,.587-2.873c-.244,3.4-.766,6.759-1.149,10.139-.04.356-.156.465-.522.5-2.579.237-2.639.13-2.311-2.439.706-5.542,1.348-11.092,2.015-16.639.647-5.388,1.31-10.773,1.923-16.165.105-.921.694-.617,1.187-.651" transform="translate(-19.148 -36.185)" fill="#e0656e"/>
        <path id="Trazado_197156" data-name="Trazado 197156" d="M97.955,105.39,82.89,90.319c.837-.069,1.742-.152,2.648-.216.336-.024.5.269.694.467q5.6,5.592,11.2,11.184a1.536,1.536,0,0,1,.533,1.258c-.04.8-.01,1.6-.01,2.378" transform="translate(-32.506 -35.334)" fill="#f19a98"/>
        <path id="Trazado_197157" data-name="Trazado 197157" d="M95.2,89.214c.762-.263,1.837-.005,2.87-.2,1.094-.208,2.237-.146,3.353-.262.647-.067.863.249.929.794a3.356,3.356,0,0,1,.026.481c-.048,2.281.134,4.555.226,6.6l-7.4-7.414" transform="translate(-37.333 -34.8)" fill="#35394e"/>
        <path id="Trazado_197158" data-name="Trazado 197158" d="M106.943,41.73c.675.584,1.36,1.157,2.022,1.755a2.869,2.869,0,0,0,3.687.125c1.545-1.483,3.014-3.047,4.514-4.576a1.783,1.783,0,0,0,1.57-.556c.375-.437.585-.116.842.127s.413.421.087.777c-2.679,2.922-5.664,5.288-9.8,5.741a1.56,1.56,0,0,1-1.594-.554,3.985,3.985,0,0,0-.746-.747,1.576,1.576,0,0,1-.581-2.092" transform="translate(-41.869 -15.005)" fill="#f4b840"/>
        <path id="Trazado_197159" data-name="Trazado 197159" d="M106.732,137.717c-.078-3.091-.289-6.173-.536-9.254-.14-1.749-.19-3.508-.2-5.262,0-.588-.415-1.18-.01-1.766a3.015,3.015,0,0,1,1.365,2.741c.041,4.355.239,8.709.365,13.063.009.306.173.741-.119.9-.342.182-.63-.16-.87-.418" transform="translate(-41.496 -47.622)" fill="#35394e"/>
        <path id="Trazado_197160" data-name="Trazado 197160" d="M136.831,10.892c.707.439.151.733-.136,1.021q-4.255,4.271-8.523,8.529c-1.2,1.2-2.416,2.4-3.612,3.617-.307.312-.542.5-.939.086-.34-.353-.388-.586-.01-.941,1.121-1.054,2.215-2.138,3.319-3.209a9.5,9.5,0,0,0,2.3-1.729q3.292-3.329,6.619-6.622c.292-.291.535-.655.979-.752" transform="translate(-48.371 -4.271)" fill="#4b4f6d"/>
        <path id="Trazado_197161" data-name="Trazado 197161" d="M139.143,10.666c-2.761,2.781-5.512,5.573-8.292,8.334a2.157,2.157,0,0,1-1.609.768c1.411-1.658,3.038-3.1,4.556-4.658,1.454-1.487,2.941-2.941,4.406-4.417.319-.322.607-.644.939-.027" transform="translate(-50.684 -4.046)" fill="#767ca6"/>
        <path id="Trazado_197162" data-name="Trazado 197162" d="M90.342,24.043a12.7,12.7,0,0,1-1.97,1.988c-.4-.018-.556-.391-.815-.612a.469.469,0,0,1-.1-.681c.215-.318.418-.644.645-.952s.41-.918.684-.842a5.452,5.452,0,0,1,1.45.9c.064.044.083.153.108.2" transform="translate(-34.256 -8.995)" fill="#35394e"/>
        <path id="Trazado_197163" data-name="Trazado 197163" d="M139.428,53.766c-.341-.507-.709-.986-1-1.509-.213-.383.238-.436.425-.588.295-.241.676-.385.943-.649.749-.74,1.155-.125,1.613.354a.311.311,0,0,1,0,.495c-.563.565-1.124,1.132-1.69,1.695a2.362,2.362,0,0,1-.291.2" transform="translate(-54.264 -19.873)" fill="#777ea8"/>
        <path id="Trazado_197164" data-name="Trazado 197164" d="M131.852,102.183c-.429-2.233-.672-4.491-.946-6.745q1.53-4.192,3.058-8.386c.718-1.978,1.425-3.959,2.264-5.906-.128,1.567-.247,3.135-.388,4.7-.163,1.812-.344,3.623-.519,5.433s-.329,3.624-.543,5.43c-.071.6.077.9.672,1.036,1.588.37,3.167.771,4.75,1.163.419.1.746.174.626.816-.98,5.2-1.91,10.409-3.058,15.637-.107-.91-.216-1.819-.32-2.729q-.462-4.041-.921-8.083c0-.032-.016-.063-.018-.095-.037-.731.157-1.658-.384-2.107-.565-.47-1.484-.12-2.247-.156-.673-.032-1.349-.01-2.025-.012" transform="translate(-51.336 -31.823)" fill="#2c2f41"/>
        <path id="Trazado_197165" data-name="Trazado 197165" d="M73.972,47.284c-2.593.469-5.2.883-7.775,1.421-3.122.651-6.378.763-9.359,1.955-4.316,1.726-8.555,3.643-12.828,5.475-2.312.991-4.626,1.975-7.023,2.8q3.864-2.588,7.729-5.175c3.04-2.028,6.091-4.043,9.121-6.087a3,3,0,0,1,1.786-.541c5.792.023,11.585.014,17.378.014h.957c0,.046.01.093.015.139" transform="translate(-14.505 -18.483)" fill="#363a4f"/>
      </g>
    </g>
  </g>
</svg>
