<svg xmlns="http://www.w3.org/2000/svg" xmlns:xlink="http://www.w3.org/1999/xlink" width="117" height="117" viewBox="0 0 117 117">
  <defs>
    <clipPath id="clip-path">
      <rect id="Rect치ngulo_46089" data-name="Rect치ngulo 46089" width="98.637" height="87.379" fill="none"/>
    </clipPath>
  </defs>
  <g id="Grupo_154451" data-name="Grupo 154451" transform="translate(-425.321 -2215)">
    <rect id="Rect치ngulo_46091" data-name="Rect치ngulo 46091" width="117" height="117" transform="translate(425.321 2215)" fill="none"/>
    <g id="Grupo_154447" data-name="Grupo 154447" transform="translate(434.321 2230)">
      <g id="Grupo_154446" data-name="Grupo 154446" clip-path="url(#clip-path)">
        <path id="Trazado_196938" data-name="Trazado 196938" d="M0,72.324A15.058,15.058,0,0,1,2.159,68.21a1.169,1.169,0,0,0,.15-.636q.986-14.413,1.964-28.827.835-12.155,1.684-24.309A1.547,1.547,0,0,1,7.13,12.88,1.484,1.484,0,0,1,9.1,14.224a7.323,7.323,0,0,1-.071,1.724c-.18,3.235-.441,6.463-.651,9.7Q8.06,30.588,7.7,35.53c-.163,2.239-.305,4.479-.458,6.719-.229,3.359-.455,6.719-.7,10.077-.156,2.143-.3,4.287-.446,6.43-.116,1.7-.192,3.393-.355,5.085-.107,1.114,0,1.21,1.019.914a10.472,10.472,0,0,1,8.622,1.07c1.429.878,2.594.252,2.63-1.433.026-1.187.006-2.375.006-3.564q0-27.788,0-55.575c0-2.229.09-2.044-2.028-2.054a4.184,4.184,0,0,1-.48-.023c-1.409.025-2.819,0-4.229.011-1.271.008-1.352.037-1.46,1.335s-.173,2.619-.266,3.928A6.505,6.505,0,0,1,9.443,9.6c-.295,1.17-.923,1.535-2.119,1.23A1.559,1.559,0,0,1,6.33,9.056c.174-2.435.3-4.874.486-7.308C6.916.414,7.393,0,8.718,0q5.35-.006,10.7,0c1.365,0,1.833.474,1.837,1.861.008,2.506.04,5.014-.019,7.519-.02.832.168,1.058,1.036,1.056q22.7-.047,45.406-.023c2.86,0,5.72-.021,8.58.016.661.008.868-.149.857-.838-.043-2.6-.024-5.206-.014-7.809C77.108.48,77.6.005,78.92,0q5.3-.008,10.6,0c1.468,0,1.921.383,2.024,1.823.29,4.037.551,8.077.828,12.114q.735,10.72,1.474,21.439.618,9.037,1.229,18.076c.323,4.743.652,9.486.96,14.23a1.8,1.8,0,0,0,.506,1.005c3.2,4.162,3.2,13.664-3.368,17.258a10.979,10.979,0,0,1-5.33,1.416c-5.4.006-10.8-.009-16.2.013A1.634,1.634,0,0,1,69.8,85.961a1.307,1.307,0,0,1,.915-1.619,3.558,3.558,0,0,1,1.326-.169c4.769,0,9.538-.016,14.3.005a9.292,9.292,0,0,0,4.171-.482,6.9,6.9,0,0,0,4.336-4.356,10.085,10.085,0,0,0-.308-7.87,6.946,6.946,0,0,0-7.8-3.56A6.72,6.72,0,0,0,83.709,69.7c-1.3,1.28-2.172,1.306-3.466.022a6.948,6.948,0,0,0-9.728.041c-1.18,1.253-2.083,1.18-3.4-.035a6.81,6.81,0,0,0-9.711.051c-1.234,1.162-2.1,1.167-3.338.008a6.884,6.884,0,0,0-4.845-2.03,6.8,6.8,0,0,0-4.8,1.9c-1.452,1.329-2.161,1.332-3.623-.015a6.814,6.814,0,0,0-9.507.028c-1.434,1.318-2.2,1.308-3.62-.045a6.843,6.843,0,0,0-9.215-.212c-.219.189-.417.4-.637.589a1.942,1.942,0,0,1-2.918-.051,10.213,10.213,0,0,0-1.4-1.179A6.859,6.859,0,0,0,3.048,74a11.18,11.18,0,0,0,.4,5.241A7.523,7.523,0,0,0,10.183,84.2c.385.016.771.007,1.157.007q26.9,0,53.8,0a7.233,7.233,0,0,1,1.538.069A1.371,1.371,0,0,1,67.9,85.959c-.218,1.068-.895,1.421-1.95,1.42q-27.621-.024-55.243-.015A10.632,10.632,0,0,1,.154,79.306.947.947,0,0,0,0,79.075v-6.75" transform="translate(0 0)"/>
        <path id="Trazado_196939" data-name="Trazado 196939" d="M88.17,123.658q-7.467.015-14.934.032c-1.2,0-1.552.288-1.87,1.485l-1.9,0c-.341-1.244-.672-1.484-2.071-1.484H12.725c-5.233,0-8.447-3.231-8.466-8.473a9.963,9.963,0,0,1,.651-4.246,7.117,7.117,0,0,1,11.633-2.156c1.167,1.16,1.71,1.158,2.887-.012a7.093,7.093,0,0,1,10.19-.006c1.2,1.179,1.725,1.184,2.9.028a7.117,7.117,0,0,1,10.266.018c1.117,1.115,1.7,1.115,2.818,0a7.111,7.111,0,0,1,10.266-.021c1.162,1.156,1.7,1.151,2.886-.027a7.118,7.118,0,0,1,10.2.006c1.179,1.171,1.723,1.174,2.886.016a7.109,7.109,0,0,1,10.266.029c1.12,1.115,1.709,1.111,2.817-.008a6.092,6.092,0,0,1,3.454-1.946c.555-.218.9.133,1.262.458a8.962,8.962,0,0,1,2.942,5.976c.319,3.3-.156,6.395-2.477,8.975a3.971,3.971,0,0,1-1.928,1.358" transform="translate(-1.566 -39.214)" fill="#40c0f9"/>
        <path id="Trazado_196940" data-name="Trazado 196940" d="M10.463,12.5c1.37.024,1.82-.4,1.913-1.793.122-1.824.26-3.647.371-5.472.025-.427.049-.7.623-.683,1.731.053,3.463.037,5.195.047.455.52.312,1.158.313,1.753q.014,13.722.006,27.445,0,15.936,0,31.874a7.106,7.106,0,0,1-.037,1.25c-.057.319-.008.755-.54.749a10.306,10.306,0,0,0-9.742-.417,28.6,28.6,0,0,1,.2-4.153c.658-9.83,1.356-19.657,2.037-29.486q.593-8.547,1.171-17.1c.094-1.382-.352-1.88-1.708-1.964a1.646,1.646,0,0,0,.195-2.053" transform="translate(-3.139 -1.674)" fill="#ccc"/>
        <path id="Trazado_196941" data-name="Trazado 196941" d="M85.446,72.5a10.6,10.6,0,0,0-3.859,1.892c-.322.266-.52.219-.816-.021A8.217,8.217,0,0,0,77.9,72.836c-.541-.157-.552-.412-.359-.822.218-.463.434-.928.656-1.391a7.97,7.97,0,0,0,.018-7.417,6.758,6.758,0,0,1-.029-6.77,8,8,0,0,0,0-7.5c-1.156-2.412-1.158-2.411,1.477-2.411.708,0,1.414.01,2.121,0,1.163-.021,1.665-.523,1.67-1.749.016-3.31.006-6.619.006-9.929,0-.836.017-1.672,0-2.506-.032-1.2-.523-1.7-1.719-1.707-3.181-.016-6.363-.006-9.544-.006H42.021c-2.15,0-2.415.271-2.415,2.465q0,5.639,0,11.279c0,1.614.154,1.823,1.755,2.143.356.071.4.278.431.524a8.224,8.224,0,0,0,1.019,2.885,5.623,5.623,0,0,1,.02,5.532,8.681,8.681,0,0,0-.015,8.644,5.618,5.618,0,0,1,0,5.532A8.485,8.485,0,0,0,41.691,74.3c-.169.13-.266.033-.364-.039a9.749,9.749,0,0,0-6.883-1.919c-.714.067-.844-.163-.843-.823q.026-24.824.005-49.648c0-.558.042-.85.75-.849q25.45.033,50.9.021a1.314,1.314,0,0,1,.19.027c.455.522.312,1.16.312,1.755q.013,20.633.006,41.267c0,2.346.007,4.692-.005,7.039a1.781,1.781,0,0,1-.314,1.369" transform="translate(-12.355 -7.731)" fill="#ccc"/>
        <path id="Trazado_196942" data-name="Trazado 196942" d="M133.865,66.244a10.264,10.264,0,0,0-5.009,2.069c-.305.243-.482.19-.823.025-1.279-.622-1.584-1.558-1.581-2.972q.085-29.837.017-59.675c0-.9.167-1.224,1.128-1.156,1.439.1,2.889.045,4.334.056a7.811,7.811,0,0,1,.486,3.1c.233,3.392.447,6.786.716,10.175.094,1.184.106,2.372.236,3.555a1.13,1.13,0,0,1-.353,1.139,1.681,1.681,0,0,1-.847-.087c-1.055-.168-1.6.293-1.551,1.375.129,2.945.4,5.881.58,8.822.192,3.2.434,6.391.643,9.587.213,3.261.393,6.524.7,9.777.174,1.865.534,2.035,2.26,1.449a.705.705,0,0,1,.286-.013c.579.366.569.979.6,1.543.164,3.366.482,6.721.641,10.087.051,1.067.056,1.065-1.022,1.083a5.105,5.105,0,0,0-1.435.065" transform="translate(-46.499 -1.664)" fill="#ccc"/>
        <path id="Trazado_196943" data-name="Trazado 196943" d="M87.836,83.625A12.138,12.138,0,0,0,84.294,85.5a.446.446,0,0,1-.667,0,9.9,9.9,0,0,0-6.511-2.162,2.271,2.271,0,0,1,.42-1.2,8.579,8.579,0,0,0,.028-8.378,5.951,5.951,0,0,1,.015-5.876,8.4,8.4,0,0,0,.014-8.2,5.933,5.933,0,0,1,.087-6.129,23.72,23.72,0,0,0,.936-2.394c2.112-.165,4.226-.037,6.339-.07,1.186-.018,2.374-.01,3.56,0,.79.006.965.226.791.987a6.4,6.4,0,0,1-.636,1.5,6.48,6.48,0,0,0-.016,6.285,8.09,8.09,0,0,1-.018,7.9,6.541,6.541,0,0,0,.021,6.208,7.82,7.82,0,0,1-.007,7.806,14.112,14.112,0,0,1-.814,1.841" transform="translate(-28.235 -18.782)" fill="#40c0f9"/>
        <path id="Trazado_196944" data-name="Trazado 196944" d="M61.54,85.527c-.152.23-.3.142-.471.011a10.194,10.194,0,0,0-9.965-1.56,2.727,2.727,0,0,1,.486-1.643,8.7,8.7,0,0,0,.016-8.81,5.312,5.312,0,0,1-.042-5.257,9.008,9.008,0,0,0-.037-9.078,5.167,5.167,0,0,1-.044-4.91,18.171,18.171,0,0,0,1.236-3.115c1.761-.167,3.526-.046,5.289-.071,1.542-.021,3.086.021,4.628-.016.7-.016.857.267.668.873a9.916,9.916,0,0,1-.675,1.492,6.629,6.629,0,0,0,.017,6.473,7.735,7.735,0,0,1,.009,7.736,6.586,6.586,0,0,0,.031,6.459,7.633,7.633,0,0,1-.041,7.649,7.384,7.384,0,0,0-.808,2.659,2.892,2.892,0,0,1-.3,1.108" transform="translate(-18.712 -18.782)" fill="#40c0f9"/>
        <path id="Trazado_196945" data-name="Trazado 196945" d="M115.6,72.5V21.074c1.124-.01,2.249,0,3.372-.041.514-.02.706.162.641.661a3.825,3.825,0,0,0,0,.482q0,24.535.023,49.07c0,.952-.222,1.223-1.162,1.081a9.119,9.119,0,0,0-2.871.177" transform="translate(-42.508 -7.734)" fill="#bdbdbd"/>
        <path id="Trazado_196946" data-name="Trazado 196946" d="M136.048,22.531c.448-.463.252-1.045.205-1.55-.25-2.725-.42-5.453-.564-8.185s-.377-5.457-.57-8.185c.385-.011.769-.03,1.154-.031,2.161,0,2.145,0,2.3,2.207q1.042,15.325,2.1,30.649.815,11.961,1.614,23.925c.13,1.92.273,3.839.424,5.95a10.916,10.916,0,0,0-5.653-1.047c.533-.342,1.124-.126,1.686-.163.418-.027.6-.065.544-.61-.162-1.456-.171-2.927-.31-4.385-.227-2.377-.2-4.773-.572-7.138a1.483,1.483,0,0,0-.207-.408,10.047,10.047,0,0,1-.259-2.37c-.3-4.574-.627-9.146-.935-13.719q-.33-4.893-.66-9.787a31.386,31.386,0,0,0-.352-4.311,1.082,1.082,0,0,1,.063-.842" transform="translate(-49.686 -1.684)" fill="#bdbdbd"/>
        <path id="Trazado_196947" data-name="Trazado 196947" d="M23.988,67.672c.4-.276.255-.7.255-1.062q.009-31,0-62.008c.77-.011,1.543.007,2.31-.042.524-.034.7.169.632.659a3.826,3.826,0,0,0,0,.482q0,30.274-.006,60.548c0,.376.176.852-.123,1.11A4.979,4.979,0,0,1,25.3,68.5c-.455.125-.895-.5-1.312-.829" transform="translate(-8.821 -1.676)" fill="#bdbdbd"/>
        <path id="Trazado_196948" data-name="Trazado 196948" d="M82.731,50.891a14.094,14.094,0,0,0,1.409-3.808c.309-2-.258-2.73-2.309-2.73H51.089c-1.9,0-2.133.2-2.422,2.035a5.256,5.256,0,0,1-.849,2.408c-.322-.07-.189-.311-.19-.466-.009-2.216.015-4.433-.02-6.649-.01-.666.183-.883.867-.881q18.214.028,36.428,0c.7,0,.86.247.853.895q-.043,4.192,0,8.384c.006.623-.173.873-.819.824-.668-.051-1.344-.011-2.205-.011" transform="translate(-17.504 -15.003)" fill="#5a5a5a"/>
        <path id="Trazado_196949" data-name="Trazado 196949" d="M62.607,85.5a7.213,7.213,0,0,1,.9-3.972,7.286,7.286,0,0,0-.011-7.337,6.792,6.792,0,0,1,.02-6.789,7.187,7.187,0,0,0,.014-7.247,7.04,7.04,0,0,1,.013-7.063c1.005-1.917.975-1.93-1.179-1.934q-4.29-.007-8.581-.02c.177-.21.419-.12.63-.12,3.948,0,7.9.019,11.843-.008.782-.006.893.224.551.864a9.76,9.76,0,0,0-1.373,4.646,8.7,8.7,0,0,0,1.025,4.248,5.969,5.969,0,0,1,0,5.967,8.326,8.326,0,0,0-.018,8.111,6.034,6.034,0,0,1-.083,6.224.948.948,0,0,0-.167.344c-.217,2.223-1.838,3.208-3.585,4.085" transform="translate(-19.778 -18.753)" fill="#07a8ef"/>
        <path id="Trazado_196950" data-name="Trazado 196950" d="M88.9,83.613a3.957,3.957,0,0,1,.676-2.169,7.186,7.186,0,0,0,.02-7.07,7.219,7.219,0,0,1,0-7.071,7.146,7.146,0,0,0,.025-6.985,7.15,7.15,0,0,1-.009-7.149c1.039-1.931.968-1.994-1.169-2q-4.381-.007-8.761-.021c.051-.037.1-.1.151-.1,4.33-.005,8.661,0,13.048,0a4.7,4.7,0,0,1-.665,1.726,8.094,8.094,0,0,0-.041,7.676,6.687,6.687,0,0,1-.028,6.683,7.687,7.687,0,0,0,0,7.4,6.4,6.4,0,0,1-.037,6.751.236.236,0,0,0-.047.083c-.211,1.935-1.59,2.228-3.161,2.25" transform="translate(-29.301 -18.769)" fill="#07a8ef"/>
        <path id="Trazado_196951" data-name="Trazado 196951" d="M136.972,123.664c3.657-2.637,4.608-6.294,4.1-10.573a8.942,8.942,0,0,0-2.983-5.739,1.253,1.253,0,0,0-.912-.455c4.017-1.17,8.51,2.071,8.816,6.426a13.8,13.8,0,0,1-.234,4.6,7.914,7.914,0,0,1-8.783,5.744" transform="translate(-50.368 -39.22)" fill="#07a8ef"/>
        <path id="Trazado_196952" data-name="Trazado 196952" d="M138.423,112.012a1.477,1.477,0,0,1,1.428,1.513,1.444,1.444,0,1,1-1.428-1.513" transform="translate(-50.365 -41.189)" fill="#010202"/>
        <path id="Trazado_196953" data-name="Trazado 196953" d="M39.211,112.178a1.487,1.487,0,0,1-.087,2.972,1.393,1.393,0,0,1-1.356-1.53,1.376,1.376,0,0,1,1.443-1.442" transform="translate(-13.888 -41.25)" fill="#010202"/>
        <path id="Trazado_196954" data-name="Trazado 196954" d="M114.444,123.95a1.459,1.459,0,0,1-1.387,1.532,1.388,1.388,0,0,1-1.486-1.4,1.407,1.407,0,0,1,1.4-1.584,1.451,1.451,0,0,1,1.469,1.453" transform="translate(-41.026 -45.045)" fill="#010202"/>
        <path id="Trazado_196955" data-name="Trazado 196955" d="M59.345,125.263a1.384,1.384,0,0,1-1.461-1.428,1.4,1.4,0,0,1,1.336-1.55,1.49,1.49,0,0,1,.125,2.977" transform="translate(-21.285 -44.966)" fill="#000102"/>
        <path id="Trazado_196956" data-name="Trazado 196956" d="M87.56,117.181a1.5,1.5,0,0,1-1.452,1.489,1.472,1.472,0,0,1-1.419-1.6,1.452,1.452,0,0,1,1.483-1.435,1.485,1.485,0,0,1,1.388,1.546" transform="translate(-31.141 -42.521)" fill="#010202"/>
        <path id="Trazado_196957" data-name="Trazado 196957" d="M11.735,125.384a1.524,1.524,0,0,1-.129-3.035,1.489,1.489,0,0,1,1.535,1.5,1.507,1.507,0,0,1-1.406,1.536" transform="translate(-3.776 -44.989)" fill="#010202"/>
        <path id="Trazado_196958" data-name="Trazado 196958" d="M20.989,34.314c-.352,5.214-.689,10.241-1.033,15.268-.3,4.322-.606,8.644-.891,12.967a1.808,1.808,0,0,1-.778,1.654,1.417,1.417,0,0,1-2.121-1.425c.115-2.4.3-4.805.461-7.206q.632-9.221,1.273-18.442c.073-1.057.137-2.114.206-3.17.074-1.14.607-1.755,1.508-1.739s1.376.624,1.375,1.8v.295" transform="translate(-5.944 -11.848)"/>
        <path id="Trazado_196959" data-name="Trazado 196959" d="M66.15,28.172q-8.823,0-17.646,0a4.005,4.005,0,0,1-.956-.063,1.425,1.425,0,0,1,.232-2.819c.256-.02.514-.009.771-.009H83.939c.128,0,.257,0,.386,0,1.118.016,1.786.566,1.765,1.454s-.688,1.433-1.811,1.435q-9.064.009-18.128,0" transform="translate(-17.068 -9.295)"/>
        <path id="Trazado_196960" data-name="Trazado 196960" d="M135.089,32.688c.629,1.693.455,3.484.587,5.229q.824,10.889,1.5,21.79a12.036,12.036,0,0,1,.057,4.009,1.557,1.557,0,0,1-1.792.573c-.739-.278-.9-.9-.945-1.626q-.738-10.994-1.5-21.985c-.15-2.176-.288-4.353-.463-6.528a1.615,1.615,0,0,1,.7-1.752,1.546,1.546,0,0,1,1.858.29" transform="translate(-48.727 -11.841)"/>
        <path id="Trazado_196961" data-name="Trazado 196961" d="M89.479,63.8a1.469,1.469,0,0,1-1.41,1.529A1.443,1.443,0,0,1,86.6,63.876a1.445,1.445,0,1,1,2.883-.077" transform="translate(-31.843 -22.907)" fill="#010203"/>
        <path id="Trazado_196962" data-name="Trazado 196962" d="M86.035,90.628A1.472,1.472,0,0,1,84.7,88.954,1.445,1.445,0,0,1,86.254,87.6a1.462,1.462,0,0,1,1.295,1.622,1.433,1.433,0,0,1-1.514,1.407" transform="translate(-31.142 -32.21)" fill="#010202"/>
        <path id="Trazado_196963" data-name="Trazado 196963" d="M63.75,72.5a1.491,1.491,0,0,1,.081-2.98,1.493,1.493,0,0,1-.081,2.98" transform="translate(-22.915 -25.564)" fill="#010202"/>
        <path id="Trazado_196964" data-name="Trazado 196964" d="M55.824,58.388a1.42,1.42,0,0,1-1.47-1.442,1.435,1.435,0,0,1,1.376-1.535,1.49,1.49,0,0,1,.094,2.977" transform="translate(-19.987 -20.375)" fill="#000102"/>
        <path id="Trazado_196965" data-name="Trazado 196965" d="M60.516,93.918a1.447,1.447,0,0,1-1.464,1.459,1.49,1.49,0,0,1,.064-2.979,1.448,1.448,0,0,1,1.4,1.519" transform="translate(-21.194 -33.976)" fill="#000102"/>
      </g>
    </g>
  </g>
</svg>
