<svg xmlns="http://www.w3.org/2000/svg" xmlns:xlink="http://www.w3.org/1999/xlink" width="117" height="117" viewBox="0 0 117 117">
  <defs>
    <clipPath id="clip-path">
      <rect id="Rect치ngulo_46095" data-name="Rect치ngulo 46095" width="86.049" height="96.445" fill="none"/>
    </clipPath>
  </defs>
  <g id="Grupo_154462" data-name="Grupo 154462" transform="translate(-425.321 -2215)">
    <rect id="Rect치ngulo_46091" data-name="Rect치ngulo 46091" width="117" height="117" transform="translate(425.321 2215)" fill="none"/>
    <g id="Grupo_154471" data-name="Grupo 154471" transform="translate(440.828 2225.277)">
      <g id="Grupo_154471-2" data-name="Grupo 154471" clip-path="url(#clip-path)">
        <path id="Trazado_197046" data-name="Trazado 197046" d="M44.319,0c.185.367.559.183.834.258A9.4,9.4,0,0,1,49.38,2.784Q66.321,19.74,83.265,36.692c3.742,3.751,3.706,8.957-.067,12.736Q69.555,63.089,55.877,76.715a1.969,1.969,0,0,0-.646,1.551q.042,6.78,0,13.561c-.006.721.189.906.881.86.938-.062,1.883-.029,2.824-.011a1.885,1.885,0,1,1-.021,3.76c-4.8.012-9.606,0-14.409,0H27.644c-.282,0-.567.017-.847-.011a1.841,1.841,0,0,1-1.728-1.88,1.805,1.805,0,0,1,1.74-1.86c1.1-.054,2.2-.047,3.295-.005.552.021.666-.173.664-.688q-.027-7.016.007-14.033a1.545,1.545,0,0,0-.6-1.19Q16.517,63.131,2.855,49.489A8.836,8.836,0,0,1,.033,42.211a8.264,8.264,0,0,1,2-4.773c.3-.358.637-.693.97-1.026Q19.553,19.861,36.094,3.3A10.394,10.394,0,0,1,41.045.217c.127-.03.235-.071.261-.217ZM3.76,43.085a5.007,5.007,0,0,0,1.682,3.676q16.922,16.9,33.824,33.811c2.313,2.312,5.15,2.328,7.462.019q16.916-16.9,33.817-33.817c2.325-2.326,2.331-5.15.014-7.468Q63.655,22.391,46.741,5.488a4.878,4.878,0,0,0-7.459-.013q-3.8,3.786-7.59,7.587Q18.579,26.177,5.46,39.287a5.1,5.1,0,0,0-1.7,3.8m47.717,38.1c-.739.728-1.361,1.328-1.969,1.941-3.925,3.959-9.12,3.942-13.044-.042-.6-.609-1.21-1.208-1.939-1.935,0,3.785.012,7.357-.012,10.929,0,.527.187.606.65.605,5.207-.015,10.415-.021,15.622.007.617,0,.718-.2.7-.747-.037-1.316-.012-2.635-.012-3.952Z" transform="translate(0)"/>
        <path id="Trazado_197047" data-name="Trazado 197047" d="M5.658,44.977a5.1,5.1,0,0,1,1.7-3.8q13.129-13.1,26.232-26.225,3.794-3.794,7.591-7.587a4.877,4.877,0,0,1,7.459.014Q65.553,24.283,82.456,41.2c2.317,2.319,2.311,5.142-.013,7.468Q65.54,65.581,48.626,82.483c-2.312,2.31-5.15,2.293-7.462-.019Q24.252,65.558,7.34,48.653a5.009,5.009,0,0,1-1.682-3.677M44.814,77.989c.32-.02.48-.277.674-.472q16.05-16.042,32.1-32.081c.423-.423.474-.673.02-1.125q-16.1-16.06-32.156-32.156c-.446-.447-.692-.417-1.119.011Q28.271,28.259,12.177,44.322c-.467.466-.459.758,0,1.22q16.027,16,32.032,32.014a1.2,1.2,0,0,0,.6.433" transform="translate(-1.899 -1.893)" fill="#fefefe"/>
        <path id="Trazado_197048" data-name="Trazado 197048" d="M47.932,81.117a1.19,1.19,0,0,1-.6-.433Q31.318,64.674,15.3,48.67c-.462-.462-.47-.753,0-1.219Q31.391,31.389,47.452,15.294c.428-.429.674-.459,1.12-.011q16.06,16.1,32.156,32.156c.453.452.4.7-.021,1.125q-16.061,16.031-32.1,32.082c-.195.194-.354.452-.675.471m7.617-21.66c1.193,0,2.386.012,3.578,0A1.9,1.9,0,0,0,61.2,57.417a24.438,24.438,0,0,0-.013-2.729c-.068-.787.246-.96.942-.892a15.475,15.475,0,0,0,1.6.009c1.4-.011,2.213-.691,2.225-1.864s-.8-1.89-2.183-1.9c-.659-.005-1.319-.023-1.977.007-.429.019-.617-.085-.6-.563.035-.941.031-1.884,0-2.824-.015-.448.12-.606.577-.585.752.034,1.507.029,2.26,0a1.879,1.879,0,1,0,0-3.756c-.753-.023-1.508-.031-2.26,0-.461.021-.589-.141-.576-.587.03-.972.019-1.946.007-2.919a1.912,1.912,0,0,0-2.139-2.152q-3.484-.013-6.969,0A1.969,1.969,0,0,0,49.9,38.89c-.009.91-.045,1.823.013,2.73.04.617-.193.74-.745.707a18.84,18.84,0,0,0-2.259,0c-.587.037-.836-.1-.793-.755.06-.906.025-1.82.013-2.73a1.944,1.944,0,0,0-2.139-2.173q-3.531-.019-7.062,0a1.907,1.907,0,0,0-2.095,2.105c-.017,1-.02,2.009,0,3.013.009.405-.108.553-.528.537-.783-.029-1.57-.031-2.353,0a1.876,1.876,0,1,0,.007,3.751,22.471,22.471,0,0,0,2.259,0c.518-.03.636.164.617.642a24.208,24.208,0,0,0,.005,2.635c.044.629-.213.731-.753.7-.688-.042-1.381-.027-2.071-.006A1.878,1.878,0,1,0,32,53.8c.752.029,1.507.031,2.26,0,.445-.019.6.114.587.575-.032,1-.027,2.009-.005,3.013a1.906,1.906,0,0,0,2.046,2.067q3.578.024,7.157,0a1.943,1.943,0,0,0,2.091-2.133c.015-.941.029-1.885-.007-2.825-.019-.5.087-.734.654-.7a22.448,22.448,0,0,0,2.448,0c.522-.026.712.12.687.668-.044.971-.03,1.946-.007,2.919a1.949,1.949,0,0,0,2.064,2.07c1.193.021,2.386,0,3.578,0" transform="translate(-5.017 -5.021)" fill="#fef49b"/>
        <path id="Trazado_197049" data-name="Trazado 197049" d="M63.2,70.418c-1.193,0-2.386.017-3.578,0a1.95,1.95,0,0,1-2.065-2.07c-.023-.973-.036-1.948.007-2.919.025-.547-.165-.694-.687-.668a22.433,22.433,0,0,1-2.447,0c-.568-.034-.674.2-.655.7.035.941.023,1.884.007,2.825a1.943,1.943,0,0,1-2.091,2.133q-3.578.026-7.157,0a1.906,1.906,0,0,1-2.046-2.067c-.021-1-.027-2.009.005-3.013.015-.46-.142-.593-.587-.575-.751.032-1.507.03-2.259,0A1.879,1.879,0,1,1,39.671,61c.69-.021,1.383-.036,2.071.006.54.033.8-.07.753-.7a24.388,24.388,0,0,1-.005-2.636c.019-.478-.1-.672-.617-.642-.751.043-1.508.034-2.259,0a1.876,1.876,0,1,1-.008-3.751c.784-.029,1.571-.029,2.354,0,.421.016.537-.133.528-.537-.024-1-.021-2.009,0-3.014a1.907,1.907,0,0,1,2.094-2.105q3.531-.015,7.062,0A1.945,1.945,0,0,1,53.779,49.8c.011.91.048,1.823-.013,2.729-.043.652.206.791.793.755a18.557,18.557,0,0,1,2.258,0c.553.033.786-.091.746-.708-.058-.906-.023-1.82-.013-2.73a1.968,1.968,0,0,1,2.19-2.222q3.484-.015,6.968,0a1.912,1.912,0,0,1,2.139,2.152c.012.973.023,1.947-.007,2.919-.014.445.115.608.575.587.752-.035,1.507-.028,2.26,0a1.879,1.879,0,1,1,0,3.757c-.753.026-1.508.031-2.26,0-.458-.021-.592.137-.577.585.031.941.034,1.884,0,2.824-.018.478.169.582.6.563.658-.03,1.318-.012,1.977-.007,1.385.011,2.194.719,2.183,1.9s-.822,1.853-2.226,1.864a15.118,15.118,0,0,1-1.6-.009c-.7-.068-1.01.1-.941.892a24.585,24.585,0,0,1,.013,2.729,1.9,1.9,0,0,1-2.072,2.037c-1.193.015-2.385,0-3.578,0M46.247,58.924c0,1.6-.021,3.2.008,4.8.017.959-.425,2.276.183,2.777.584.482,1.854.1,2.817.165.619.041.778-.159.773-.772-.028-3.855,0-7.712-.023-11.568,0-.959.425-2.275-.182-2.777-.583-.482-1.853-.1-2.817-.165-.618-.041-.785.157-.774.771.037,2.257.015,4.515.015,6.771m15.069.1c0,1.567-.022,3.135.009,4.7.019.958-.427,2.274.186,2.775.588.48,1.856.1,2.82.161.631.044.771-.177.766-.779-.027-3.824,0-7.649-.023-11.473-.005-.989.44-2.349-.189-2.866-.6-.5-1.913-.108-2.91-.163-.543-.029-.676.16-.67.683.027,2.319.011,4.639.011,6.959m-3.768.043v-.282c0-1.741,0-1.741-1.745-1.741-2.022,0-2.022,0-2.022,2.026,0,1.929,0,1.929,1.839,1.929,1.928,0,1.928,0,1.928-1.933" transform="translate(-12.664 -15.982)"/>
        <path id="Trazado_197050" data-name="Trazado 197050" d="M50.481,60.782c0-2.257.023-4.515-.015-6.771-.011-.615.156-.813.774-.771.964.064,2.234-.317,2.816.165.608.5.178,1.818.183,2.777.02,3.856-.006,7.712.023,11.568,0,.613-.154.813-.773.772-.963-.065-2.233.316-2.817-.165-.608-.5-.165-1.818-.183-2.777-.029-1.6-.008-3.2-.008-4.8" transform="translate(-16.898 -17.84)" fill="#fef49a"/>
        <path id="Trazado_197051" data-name="Trazado 197051" d="M73.163,60.878c0-2.32.015-4.64-.012-6.959-.006-.522.127-.712.67-.682,1,.054,2.305-.334,2.91.163.629.516.183,1.876.189,2.866.022,3.824,0,7.649.023,11.473,0,.6-.135.823-.767.779-.963-.067-2.231.318-2.819-.162-.613-.5-.167-1.816-.187-2.775-.031-1.567-.007-3.135-.007-4.7" transform="translate(-24.51 -17.835)" fill="#fef49a"/>
        <path id="Trazado_197052" data-name="Trazado 197052" d="M65.654,63.827c0,1.933,0,1.933-1.928,1.933-1.839,0-1.839,0-1.839-1.929,0-2.026,0-2.026,2.022-2.026,1.745,0,1.745,0,1.745,1.741Z" transform="translate(-20.77 -20.743)" fill="#fef49a"/>
      </g>
    </g>
  </g>
</svg>
