<svg xmlns="http://www.w3.org/2000/svg" xmlns:xlink="http://www.w3.org/1999/xlink" width="117" height="117" viewBox="0 0 117 117">
  <defs>
    <clipPath id="clip-path">
      <rect id="Rect치ngulo_46092" data-name="Rect치ngulo 46092" width="80.859" height="82.766" fill="none"/>
    </clipPath>
  </defs>
  <g id="Grupo_154452" data-name="Grupo 154452" transform="translate(-425.321 -2215)">
    <rect id="Rect치ngulo_46091" data-name="Rect치ngulo 46091" width="117" height="117" transform="translate(425.321 2215)" fill="none"/>
    <g id="Grupo_154458" data-name="Grupo 154458" transform="translate(443.392 2232.307)">
      <g id="Grupo_154458-2" data-name="Grupo 154458" transform="translate(0 0)" clip-path="url(#clip-path)">
        <path id="Trazado_196979" data-name="Trazado 196979" d="M70.578,45.685l-.959,1.271a.289.289,0,0,1-.128.093c-.97.287-.97.286-.884,1.3l-1.064,1.195a3.1,3.1,0,0,0-1.991,1.046,19.518,19.518,0,0,1-3.429,2.693,4.674,4.674,0,0,0-2.346,4.492c.052,1.619.024,3.242.006,4.863a3.362,3.362,0,0,1-3.495,3.47q-9.19.017-18.381,0a3.288,3.288,0,0,1-3.463-3.475c-.014-1.511-.023-3.023,0-4.534a4.515,4.515,0,0,0-2.339-4.23A27.416,27.416,0,0,1,20.755,40.35,26.536,26.536,0,0,1,18.8,28.492a27.55,27.55,0,0,1,6.613-16.454A27.894,27.894,0,0,1,60.7,5.973,27.063,27.063,0,0,1,71.346,17.061a27.879,27.879,0,0,1,3.148,11.093,27.388,27.388,0,0,1-3.5,15.6,2.564,2.564,0,0,0-.418,1.934" transform="translate(-6.602 -0.764)" fill="#efbf20"/>
        <path id="Trazado_196980" data-name="Trazado 196980" d="M69.814,44.921c-.634-.521-.353-1.038-.029-1.594a27.108,27.108,0,0,0,3.788-14.871,27.667,27.667,0,1,0-42.194,24.4,4.765,4.765,0,0,1,2.508,4.552c-.052,1.509-.024,3.022,0,4.533a3.077,3.077,0,0,0,3.166,3.186q9.273.028,18.546,0a3.1,3.1,0,0,0,3.211-3.232c.017-1.84,0-3.681.006-5.522a4.144,4.144,0,0,1,1.952-3.685,28.706,28.706,0,0,0,4.621-3.7,1,1,0,0,1,1.4-.2.954.954,0,0,1-.222,1.372,25.106,25.106,0,0,1-4.4,3.557,3.283,3.283,0,0,0-1.717,3.266c.078,1.7.048,3.4.007,5.1a4.509,4.509,0,0,1-2.676,4.19.974.974,0,0,0-.663,1.11c.049.628.011,1.234-.781,1.407-.621.248-.845-.148-1.023-.625-.168-1.11-.168-1.119-1.267-1.12q-7.691-.006-15.381,0c-1.142,0-1.183.045-1.221,1.207-.017.521.017,1.043-.01,1.562-.035.649.268.867.887.865,1.974-.006,3.948-.03,5.921.011a.949.949,0,0,1,.858,1.035c-.023.623-.486.885-1.03,1.009a6.281,6.281,0,0,1-1.4.066c-1.455.005-2.911-.016-4.365.01-.781.014-.927.224-.764.97a2.059,2.059,0,0,0,2.125,1.809c4.475.031,8.95.02,13.424.006a2.1,2.1,0,0,0,1.9-1.224c.282-.495.58-1.069,1.336-.676a.97.97,0,0,1,.4,1.457,3.911,3.911,0,0,1-2.752,2.271c-.581.128-.679.355-.648.862.039.63.023,1.264.006,1.9a2.5,2.5,0,0,1-2.608,2.585q-4.45.018-8.9,0a2.51,2.51,0,0,1-2.614-2.581,5.321,5.321,0,0,1,0-.659c.109-1.173.059-2.041-1.43-2.528-1.542-.5-2.184-2-2.2-3.641-.023-2.033-.017-4.067,0-6.1a.845.845,0,0,0-.557-.93,4.587,4.587,0,0,1-2.789-4.384c-.016-1.593-.03-3.187,0-4.78a2.949,2.949,0,0,0-1.544-2.777A29,29,0,0,1,17.2,35.231a29.324,29.324,0,1,1,53.978,9c-.314.544-.645.976-1.36.691" transform="translate(-5.838 0)"/>
        <path id="Trazado_196981" data-name="Trazado 196981" d="M67.543,110.649a1.026,1.026,0,0,0-1.078.7,2.427,2.427,0,0,1-2.412,1.521c-4.334,0-8.668.019-13-.007a2.52,2.52,0,0,1-2.629-2.734c-.009-.527.12-.7.674-.694,2,.033,4,.009,6.007.014.484,0,.9-.132,1.024-.635a.785.785,0,0,0-.615-1c-2.081-.1-4.164-.042-6.245-.03-.612,0-.851-.153-.776-.778a5.8,5.8,0,0,0,0-1.231c-.056-.585.235-.791.758-.812.22-.008.439-.016.658-.016q7.731,0,15.461,0a1.791,1.791,0,0,1,1.333.271,1.042,1.042,0,0,0,.842.516q0,.8,0,1.6c-.812.843-.812.918,0,1.7q0,.8,0,1.608" transform="translate(-17.054 -36.963)" fill="#eee"/>
        <path id="Trazado_196982" data-name="Trazado 196982" d="M4.311,51.982a.858.858,0,0,1-.928-.759A3.8,3.8,0,0,0,.55,47.865a.871.871,0,0,1,.037-1.632,3.676,3.676,0,0,0,2.757-3.222c.106-.5.35-.886.92-.877s.8.367.913.881c.351,1.556,1.047,2.819,2.767,3.215a.794.794,0,0,1,.6.806.814.814,0,0,1-.63.862A3.67,3.67,0,0,0,5.186,51.06c-.124.539-.345.922-.875.922" transform="translate(0 -14.84)"/>
        <path id="Trazado_196983" data-name="Trazado 196983" d="M115.894,51.981a.818.818,0,0,1-.849-.738,3.79,3.79,0,0,0-2.829-3.364.8.8,0,0,1-.581-.816.828.828,0,0,1,.648-.853,3.579,3.579,0,0,0,2.688-3.087c.126-.555.334-1.013.994-.986.621.025.782.5.9,1.006a3.6,3.6,0,0,0,2.7,3.079.8.8,0,0,1,.612.871.783.783,0,0,1-.6.8,3.708,3.708,0,0,0-2.749,3.235c-.106.5-.358.862-.935.858" transform="translate(-39.319 -14.841)"/>
        <path id="Trazado_196984" data-name="Trazado 196984" d="M77.478,110.344c-.484-.054-.829-.267-.853-.8-.025-.582.351-.8.852-.9.45.133.792.393.768.895a.841.841,0,0,1-.767.8" transform="translate(-26.988 -38.266)" fill="#080808"/>
        <path id="Trazado_196985" data-name="Trazado 196985" d="M95.545,72.654c-.262-.327-.451-.671-.194-1.088.3-.488.748-.424,1.206-.306.281.361.488.737.162,1.176a.9.9,0,0,1-1.174.218" transform="translate(-33.54 -25.069)" fill="#040403"/>
        <path id="Trazado_196986" data-name="Trazado 196986" d="M55.43,18.05a32.1,32.1,0,0,1,4.448.133c2.345.476,3.293,2.521,2.71,4.706-.8,3.01-1.7,5.994-2.591,8.982-.2.691.011.88.686.864,1.373-.033,2.747.019,4.119-.017a3.385,3.385,0,0,1,3.216,1.752,3.486,3.486,0,0,1-.155,3.886c-1.02,1.556-2.085,3.083-3.128,4.623q-5.457,8.052-10.918,16.1a4.527,4.527,0,0,1-2.539,2.211,3.444,3.444,0,0,1-3.212-.759A3.265,3.265,0,0,1,46.8,57.024c1.079-3.9,2.237-7.775,3.378-11.656.306-1.043.28-1.075-.837-1.107a26.94,26.94,0,0,1-4.84-.124,3.416,3.416,0,0,1-2.638-4.307c.8-2.927,1.677-5.831,2.524-8.744,1-3.438,2.008-6.874,3-10.315A3.768,3.768,0,0,1,51,18.054c1.373-.018,2.746,0,4.43,0" transform="translate(-14.699 -6.35)" fill="#e6a523"/>
        <path id="Trazado_196987" data-name="Trazado 196987" d="M53.172,6.725a27.914,27.914,0,0,0-13.977,4.014c-.119.069-.233.146-.349.22a.8.8,0,0,1-1.261-.28c-.289-.512-.02-.886.431-1.156a32.147,32.147,0,0,1,4.936-2.446A27.548,27.548,0,0,1,54.2,5.091a25.636,25.636,0,0,1,16.426,6.658,25.139,25.139,0,0,1,8.088,14,25.448,25.448,0,0,1-5.05,21.52,24.683,24.683,0,0,1-6.311,5.721,5.87,5.87,0,0,0-2.846,5.329c0,.357,0,.715,0,1.071a.818.818,0,1,1-1.632.089c-.207-3.019.484-5.709,3.12-7.519A27.765,27.765,0,0,0,72.8,45.693a23.716,23.716,0,0,0,4.741-12.679,23.768,23.768,0,0,0-8.382-20.352,23.171,23.171,0,0,0-13.528-5.8,20.194,20.194,0,0,0-2.463-.139" transform="translate(-13.195 -1.784)" fill="#f6e3af"/>
        <path id="Trazado_196988" data-name="Trazado 196988" d="M78.3,94.214a2.824,2.824,0,0,1-.009.654.741.741,0,0,1-.9.635c-.671-.152-.728-.7-.726-1.293s.047-1.14.728-1.287a.737.737,0,0,1,.9.635,2.825,2.825,0,0,1,.008.654" transform="translate(-26.999 -32.721)" fill="#f6e3ae"/>
        <path id="Trazado_196989" data-name="Trazado 196989" d="M66.689,104.567c-5.771,0-11.541.006-17.312-.019-.641,0-.852.161-.841.824.029,1.645,0,1.645,1.647,1.645,1.511,0,3.023,0,4.534,0,.264,0,.555-.095.781.138-2.168.007-4.338,0-6.506.03-.466.006-.626-.138-.608-.608.038-.987.05-1.977.025-2.964-.012-.466.193-.534.589-.534q8.527.013,17.053-.006c.535,0,.674.187.625.668a6.848,6.848,0,0,0,.013.823" transform="translate(-17.041 -36.304)" fill="#aeaeae"/>
        <path id="Trazado_196990" data-name="Trazado 196990" d="M64.768,123.427a.915.915,0,0,1-.952.484q-4.34-.01-8.68,0a.914.914,0,0,1-.952-.483c-.242-1.894-.212-1.93,1.633-1.931q3.658,0,7.317,0c1.846,0,1.877.039,1.632,1.93" transform="translate(-19.047 -42.791)" fill="#7c7a78"/>
        <path id="Trazado_196991" data-name="Trazado 196991" d="M64.719,122.773c-.008-1.649-.008-1.649-1.636-1.649h-7.8c-1.144,0-1.144,0-1.139,1.156,0,.165,0,.328,0,.493a6.8,6.8,0,0,1-.087-2.82c.017-.424.52-.295.825-.3,2.626-.008,5.251-.005,7.877-.005,2.124,0,2.131,0,2.125,2.1,0,.341.129.716-.156,1.018" transform="translate(-18.998 -42.138)" fill="#4b4843"/>
        <path id="Trazado_196992" data-name="Trazado 196992" d="M5.837,47.494A6.907,6.907,0,0,0,7.162,48.92a7.907,7.907,0,0,0-1.278,1.467,6.723,6.723,0,0,0-1.308-1.421,5.6,5.6,0,0,0,1.261-1.472" transform="translate(-1.612 -16.728)" fill="#edbe20"/>
        <path id="Trazado_196993" data-name="Trazado 196993" d="M117.544,47.466a6.617,6.617,0,0,0,1.245,1.476,5.377,5.377,0,0,0-1.209,1.444,7.133,7.133,0,0,0-1.368-1.412,7.51,7.51,0,0,0,1.333-1.508" transform="translate(-40.93 -16.718)" fill="#ecbd20"/>
        <path id="Trazado_196994" data-name="Trazado 196994" d="M48.648,31.886q.207-.757.413-1.514A2.539,2.539,0,0,0,50.248,28.6c.436-1.675.946-3.329,1.448-4.985.262-.867.506-1.054,1.424-1.061q3.5-.026,7,0c1.187.006,1.47.371,1.146,1.553-.9,3.285-1.824,6.563-2.8,9.827-.181.605-.365,1.21-.515,1.824-.287,1.171-.074,1.456,1.119,1.463,2.17.012,4.34-.006,6.51.011.526,0,1.178-.178,1.469.453.279.605-.233,1.02-.531,1.465C63.789,43.226,61,47.276,58.25,51.35c-1.753,2.594-3.5,5.195-5.287,7.764-.3.435-.6,1.086-1.262.794-.684-.3-.354-.961-.21-1.461,1.323-4.592,2.672-9.177,3.976-13.775a5.914,5.914,0,0,0,.17-.637c.12-.729-.1-1.032-.854-1.07-.9-.046-1.813-.013-2.719-.015-1.456,0-2.912.007-4.367,0-1.276-.01-1.542-.352-1.2-1.56q.636-2.261,1.319-4.508a2.074,2.074,0,0,0-.115-1.809q.243-.77.485-1.539c.866-.646.866-.646.466-1.644" transform="translate(-16.328 -7.938)" fill="#eee"/>
        <path id="Trazado_196995" data-name="Trazado 196995" d="M46.9,34.309A.925.925,0,0,1,47.4,35.6c-.54,1.783-1.049,3.574-1.563,5.364-.248.863-.135,1.012.78,1.014,2.39.005,4.78,0,7.17,0,1.333,0,1.579.318,1.216,1.577q-2.09,7.263-4.185,14.527c-.1.339-.316.714.124.943.461.24.628-.19.817-.468Q58.838,48.14,65.9,37.721c.168-.248.4-.491.236-.816s-.522-.246-.813-.247c-2.418-.005-4.834,0-7.252,0-1.267,0-1.527-.345-1.184-1.549Q58.6,29.1,60.314,23.095c.26-.914.152-1.061-.8-1.062-2.445,0-4.89.013-7.334-.012a.9.9,0,0,0-1.042.769c-.541,1.981-1.167,3.939-1.717,5.917a.881.881,0,1,1-1.6-.434C48.437,26.255,49,24.218,49.6,22.2a2.207,2.207,0,0,1,2.481-1.813q3.793-.007,7.585,0c1.9,0,2.8,1.209,2.276,3.052-1.02,3.586-2.033,7.174-3.089,10.749-.2.666-.1.853.615.838,2.006-.041,4.012,0,6.018-.02a2.147,2.147,0,0,1,2.122,1.135,2.189,2.189,0,0,1-.257,2.4q-7.157,10.521-14.3,21.051a2.072,2.072,0,0,1-2.817.935A2.1,2.1,0,0,1,49.2,57.731q1.92-6.679,3.867-13.35c.173-.589.148-.794-.562-.776-2.032.051-4.066.028-6.1.014a2.125,2.125,0,0,1-2.186-2.98c.521-1.818,1.063-3.631,1.576-5.452.163-.578.468-.918,1.1-.878" transform="translate(-15.526 -7.178)"/>
        <path id="Trazado_196996" data-name="Trazado 196996" d="M49.319,36.968a.9.9,0,0,1,.534,1.047c-.135.523-.547.6-1,.6-.416-.222-.7-.529-.55-1.036s.547-.622,1.016-.608" transform="translate(-16.999 -13.02)" fill="#040302"/>
      </g>
    </g>
  </g>
</svg>
