<svg xmlns="http://www.w3.org/2000/svg" xmlns:xlink="http://www.w3.org/1999/xlink" width="117" height="117" viewBox="0 0 117 117">
  <defs>
    <clipPath id="clip-path">
      <rect id="Rect치ngulo_46104" data-name="Rect치ngulo 46104" width="94.423" height="95.659" fill="none"/>
    </clipPath>
  </defs>
  <g id="Grupo_154480" data-name="Grupo 154480" transform="translate(-425.321 -2215)">
    <rect id="Rect치ngulo_46091" data-name="Rect치ngulo 46091" width="117" height="117" transform="translate(425.321 2215)" fill="none"/>
    <g id="Grupo_154495" data-name="Grupo 154495" transform="translate(436.321 2226)">
      <g id="Grupo_154495-2" data-name="Grupo 154495" clip-path="url(#clip-path)">
        <path id="Trazado_197267" data-name="Trazado 197267" d="M83.8,30.048c.2-1.113.574-1.461,1.664-1.449a31.639,31.639,0,0,1,6.291.7,3.062,3.062,0,0,1,2.524,4.019c-2.165,7.769-6.919,13.132-14.711,15.6-.974.307-1.983.508-2.983.727-.327.072-.56.106-.591.537-.323,4.4-1.717,8.57-2.852,12.793a65.428,65.428,0,0,0-1.886,9.115,2.671,2.671,0,0,0,.174,1.339c2.145,5.691,1.931,11.153-1.771,16.184-2.528,3.436-6.142,5.047-10.245,5.648-4.453.652-8.945.289-13.42.381-1.368.028-2.738-.027-4.107,0a1.519,1.519,0,0,1-1.734-1.313c.2-.993.814-1.333,1.811-1.327,4.358.027,8.717.03,13.075-.017A18.439,18.439,0,0,0,61.99,91.9a.389.389,0,0,0,.412-.147l-.009.007a9.074,9.074,0,0,0,3.744-2.177,12.32,12.32,0,0,0,3.878-11.15c-.747-5.79-3.795-9.846-9.335-11.913-.311-.136-.617-.29-.935-.406a35.456,35.456,0,0,0-8.425-1.925,35.388,35.388,0,0,0-18.593,2.736A14.236,14.236,0,0,0,24.65,83.421c1.31,5.379,5.009,8.246,10.319,9.19.938.166,1.475.571,1.567,1.523a1.4,1.4,0,0,1-1.666,1.126c-5.944-.976-10.739-4.151-12.65-10.723a16.184,16.184,0,0,1,.557-10.518,6.013,6.013,0,0,0,.262-3.256A118.905,118.905,0,0,0,19.7,57.116,32.771,32.771,0,0,1,18.545,50.8c-.078-.96-.5-1.138-1.263-1.29A21.141,21.141,0,0,1,4.165,41.638a22.43,22.43,0,0,1-4.05-8.412,3.05,3.05,0,0,1,2.436-3.912c6.036-1.246,11.92-1.03,17.522,1.856.16.083.388.347.542.031.127-.26.428-.494.255-.843a2.994,2.994,0,0,0-.267-.379,25.672,25.672,0,0,1-4.637-16.357A28.236,28.236,0,0,1,19.259,1.5,4.939,4.939,0,0,1,20.71,0h1.308a2.965,2.965,0,0,1,1.907,2.381,27.783,27.783,0,0,0,1.857,5.549c1.777,3.957,4.173,7.4,8.016,9.657a1.473,1.473,0,0,0,1.459.116,30.259,30.259,0,0,1,22.371-.621,4.524,4.524,0,0,0,5.325-1.163c.448-.43.923-.837,1.347-1.29A26.452,26.452,0,0,0,70.4,2.654,3.5,3.5,0,0,1,72.264,0h1.308a4.154,4.154,0,0,1,1.959,2.315c3.9,8.245,4.031,16.5.063,24.755a15.107,15.107,0,0,1-1.879,2.987.841.841,0,0,0-.069,1.158c.336.457.608-.014.86-.135a23.939,23.939,0,0,1,3.624-1.431c1.176-.338,1.51-.225,2.144.806a1.533,1.533,0,0,1-1.292,1.672,15.944,15.944,0,0,0-2.774,1.057c-1.505.727-1.508.722-1.066,2.356.041.149.078.3.118.449a44,44,0,0,1,1.082,8.289,14.1,14.1,0,0,1-.092,1.762c-.159.921.192,1.012.986.815A18.82,18.82,0,0,0,91.544,33.346c.426-1.379.328-1.5-1.16-1.6a20.129,20.129,0,0,0-4.952-.525A1.474,1.474,0,0,1,83.8,30.048M69.388,24.52A33.752,33.752,0,0,1,71.937,28c.137-.168.223-.259.291-.361.157-.232.309-.467.454-.706A23.448,23.448,0,0,0,75.733,12.4a17.508,17.508,0,0,0-1.366-5.959,14.549,14.549,0,0,0-1.34-3.252C71.2,9.692,68.455,15.374,62.853,19.325a28.675,28.675,0,0,1,6.536,5.2M20.1,6.244l-.12.3a1.336,1.336,0,0,0-.225.734,5.109,5.109,0,0,0-.283.672,26.557,26.557,0,0,0-.3,12.52,21.553,21.553,0,0,0,2.8,6.85c.358.582.553.579.934.016.6-.9,1.292-1.736,1.944-2.6a29.25,29.25,0,0,1,6.844-5.35,21.726,21.726,0,0,1-6.656-7.176,36.22,36.22,0,0,1-3.651-9.04A15.271,15.271,0,0,0,20.1,6.244M18.073,44.272a36.745,36.745,0,0,1,1.442-9.811c.133-.425,0-.612-.355-.8A22.218,22.218,0,0,0,4.083,31.739c-1.591.111-1.677.217-1.2,1.719a18.828,18.828,0,0,0,14.324,13.4c.632.154,1.071.172.932-.72a14.5,14.5,0,0,1-.065-1.863M57.69,19.833a27.721,27.721,0,0,0-8.427-1.852c-.458-.041-.487.221-.546.555a15.327,15.327,0,0,0-.068,4.647c.285,2.187,1,4.294,1.124,6.518.239,4.388-1.864,7.319-5.973,8.142a12.759,12.759,0,0,1-2.5.271,9.382,9.382,0,0,0-8.512,4.952c-.53.877-1.082,1.741-1.616,2.616a41.847,41.847,0,0,1-2.38,3.565,9.362,9.362,0,0,1-6.233,3.738c-1,.15-1.021.527-.852,1.316.611,2.858,1.593,5.614,2.281,8.45.506,2.087.983,4.181,1.494,6.359a17.478,17.478,0,0,1,6.324-4.655c10.447-4.776,26.433-4.137,35.217,2.656l2.024,1.8c.345-1.508.7-3.161,1.1-4.8,1.213-5,2.983-9.862,3.354-15.056.383-5.355.173-10.63-1.813-15.69a22.791,22.791,0,0,0-14-13.53M20.715,45.462c.074.916.247,2.616.335,4.319.035.687.349.755.891.667a7.269,7.269,0,0,0,4.774-2.812c1.641-2.124,2.819-4.542,4.361-6.727,2.15-3.047,4.888-5.058,8.765-5.28a18.684,18.684,0,0,0,4.059-.5,3.894,3.894,0,0,0,3.03-3.077,10.865,10.865,0,0,0-.156-4.805,21.715,21.715,0,0,1-.691-8.759c.088-.534-.218-.57-.6-.521-1.354.173-2.726.265-4.057.544A25.356,25.356,0,0,0,25.116,28.94c-3.292,4.728-4.343,10.092-4.4,16.521" transform="translate(0 0)" fill="#040303"/>
        <path id="Trazado_197268" data-name="Trazado 197268" d="M49.749,129.009c-.092-.952-.63-1.356-1.567-1.523-5.311-.943-9.01-3.811-10.319-9.19A14.235,14.235,0,0,1,45.94,101.8a35.385,35.385,0,0,1,18.592-2.737,35.451,35.451,0,0,1,8.425,1.926c.319.117.624.27.935.406.056.406.43.513.7.689a12.5,12.5,0,0,1,3.124,2.9,16.043,16.043,0,0,1,3.294,12.1,13.124,13.124,0,0,1-4.6,8.614c-.3.256-.8.4-.808.939l.008-.007a.341.341,0,0,0-.412.148,18.435,18.435,0,0,1-6.955,1.079c-4.358.047-8.717.043-13.074.017-1-.006-1.61.334-1.811,1.327a25.365,25.365,0,0,1-3.614-.192M56.4,114.378a3.729,3.729,0,0,0-.637-2.281,1.175,1.175,0,0,0-2.072-.034,4.232,4.232,0,0,0,.032,4.626,1.142,1.142,0,0,0,1.956.032,3.574,3.574,0,0,0,.721-2.343m11.375.005a3.537,3.537,0,0,0-.681-2.357,1.16,1.16,0,0,0-2.015.032,4.232,4.232,0,0,0-.03,4.552,1.185,1.185,0,0,0,2.125-.032,3.6,3.6,0,0,0,.6-2.2" transform="translate(-13.213 -34.876)" fill="#fdc0b7"/>
        <path id="Trazado_197269" data-name="Trazado 197269" d="M117.179,60.661a43.979,43.979,0,0,0-1.082-8.288c-.039-.15-.078-.3-.118-.449-.442-1.635-.44-1.63,1.065-2.357a15.963,15.963,0,0,1,2.774-1.057,1.534,1.534,0,0,0,1.292-1.672,13.468,13.468,0,0,1,3.524-.406,1.474,1.474,0,0,0,1.635,1.176,20.167,20.167,0,0,1,4.952.524,19.162,19.162,0,0,1-8.776,10.539,14.1,14.1,0,0,1-5.266,1.989" transform="translate(-40.838 -16.385)" fill="#fdbfb7"/>
        <path id="Trazado_197270" data-name="Trazado 197270" d="M78.816,76.913c-8.784-6.792-24.77-7.431-35.218-2.655a17.478,17.478,0,0,0-6.324,4.655c-.511-2.178-.987-4.272-1.494-6.359-.688-2.836-1.67-5.592-2.281-8.45-.169-.789-.143-1.167.852-1.316a9.361,9.361,0,0,0,6.233-3.738,41.949,41.949,0,0,0,2.38-3.565c.535-.875,1.087-1.739,1.616-2.617a9.383,9.383,0,0,1,8.512-4.95,12.723,12.723,0,0,0,2.5-.272c4.109-.823,6.211-3.753,5.973-8.143-.121-2.223-.839-4.329-1.124-6.516a15.331,15.331,0,0,1,.068-4.648c.058-.333.087-.595.546-.554a27.725,27.725,0,0,1,8.427,1.852c.008.291.2.427.433.552A24.96,24.96,0,0,1,73.955,33a23.266,23.266,0,0,1,7.257,10.849,36.821,36.821,0,0,1,1.389,15.5A59,59,0,0,1,80.33,70.318a32.54,32.54,0,0,0-1.514,6.6m-8.46-15.432A2.06,2.06,0,0,0,68.2,63.447a2.1,2.1,0,0,0,2.011,2.135A2.055,2.055,0,0,0,72.3,63.644a2.019,2.019,0,0,0-1.944-2.163m-20.569,2.01a2.056,2.056,0,0,0-4.112.015,2.056,2.056,0,1,0,4.112-.015" transform="translate(-11.794 -9.803)" fill="#e5e5e5"/>
        <path id="Trazado_197271" data-name="Trazado 197271" d="M32.011,55.249c.058-6.43,1.109-11.794,4.4-16.521A25.356,25.356,0,0,1,52.72,28.294c1.332-.279,2.7-.371,4.057-.544.384-.049.69-.013.6.521a21.715,21.715,0,0,0,.691,8.759,10.865,10.865,0,0,1,.156,4.805,3.894,3.894,0,0,1-3.03,3.077,18.684,18.684,0,0,1-4.059.5c-3.877.222-6.615,2.233-8.765,5.28-1.542,2.185-2.72,4.6-4.361,6.727a7.269,7.269,0,0,1-4.774,2.812c-.542.089-.856.02-.891-.667-.088-1.7-.261-3.4-.335-4.319" transform="translate(-11.296 -9.787)" fill="#595b5d"/>
        <path id="Trazado_197272" data-name="Trazado 197272" d="M6.31,48.764a22.216,22.216,0,0,1,15.076,1.924c.355.186.488.373.355.8A36.768,36.768,0,0,0,20.3,61.3a3.713,3.713,0,0,1-.829-.073A20.03,20.03,0,0,1,8.906,53.864a13.7,13.7,0,0,1-2.6-5.1" transform="translate(-2.227 -17.026)" fill="#fdbfb6"/>
        <path id="Trazado_197273" data-name="Trazado 197273" d="M98.483,77.925A32.54,32.54,0,0,1,100,71.33a59,59,0,0,0,2.271-10.976,36.821,36.821,0,0,0-1.389-15.5A23.264,23.264,0,0,0,93.622,34.01a25.041,25.041,0,0,0-4.039-2.81c-.232-.124-.425-.261-.433-.552a22.79,22.79,0,0,1,14,13.531c1.986,5.059,2.2,10.335,1.813,15.69-.371,5.194-2.141,10.059-3.354,15.056-.4,1.643-.757,3.3-1.1,4.8l-2.024-1.8" transform="translate(-31.46 -10.815)" fill="#cbcbcb"/>
        <path id="Trazado_197274" data-name="Trazado 197274" d="M30.521,9a1.334,1.334,0,0,1,.225-.735l.12-.294a15.28,15.28,0,0,1,1.286-3.08,36.2,36.2,0,0,0,3.65,9.041,21.73,21.73,0,0,0,6.656,7.177,29.264,29.264,0,0,0-6.844,5.35A2.753,2.753,0,0,0,35,25.327a27.448,27.448,0,0,1-4.114-13.063A10.09,10.09,0,0,0,30.521,9" transform="translate(-10.771 -1.726)" fill="#ba7b52"/>
        <path id="Trazado_197275" data-name="Trazado 197275" d="M103.664,26.257a28.64,28.64,0,0,0-6.536-5.2c5.6-3.952,8.344-9.633,10.174-16.142a14.448,14.448,0,0,1,1.34,3.252c-.015.651-.065,1.3-.038,1.951a23.1,23.1,0,0,1-.254,4.528,26.557,26.557,0,0,1-2.568,8.277,10.29,10.29,0,0,1-2.117,3.329" transform="translate(-34.275 -1.736)" fill="#ba7c52"/>
        <path id="Trazado_197276" data-name="Trazado 197276" d="M117.9,61.59a14.1,14.1,0,0,0,5.266-1.989,19.162,19.162,0,0,0,8.776-10.539c1.488.1,1.586.219,1.16,1.6A18.819,18.819,0,0,1,118.8,64.168c-.793.2-1.145.107-.986-.815a14.1,14.1,0,0,0,.093-1.763" transform="translate(-41.56 -17.313)" fill="#fab0a5"/>
        <path id="Trazado_197277" data-name="Trazado 197277" d="M5.517,49.046a13.7,13.7,0,0,0,2.6,5.1,20.03,20.03,0,0,0,10.564,7.362,3.712,3.712,0,0,0,.829.073,14.731,14.731,0,0,0,.065,1.862c.14.892-.3.874-.931.72a18.826,18.826,0,0,1-14.324-13.4c-.476-1.5-.39-1.609,1.2-1.72" transform="translate(-1.433 -17.308)" fill="#fbb1a6"/>
        <path id="Trazado_197278" data-name="Trazado 197278" d="M107.228,28.03a10.29,10.29,0,0,0,2.117-3.329,26.558,26.558,0,0,0,2.568-8.277,23.1,23.1,0,0,0,.254-4.528c-.027-.648.023-1.3.038-1.951a17.491,17.491,0,0,1,1.367,5.959,23.446,23.446,0,0,1-3.05,14.537c-.145.239-.3.474-.454.707-.069.1-.154.193-.291.361a33.784,33.784,0,0,0-2.549-3.48" transform="translate(-37.84 -3.51)" fill="#ac653d"/>
        <path id="Trazado_197279" data-name="Trazado 197279" d="M29.873,11.24a10.09,10.09,0,0,1,.367,3.265,27.448,27.448,0,0,0,4.114,13.063,2.753,2.753,0,0,1,.613,1.131c-.652.864-1.34,1.7-1.945,2.6-.38.563-.575.566-.934-.016a21.568,21.568,0,0,1-2.8-6.85,26.568,26.568,0,0,1,.3-12.521,5.146,5.146,0,0,1,.283-.672" transform="translate(-10.122 -3.966)" fill="#ac653d"/>
        <path id="Trazado_197280" data-name="Trazado 197280" d="M95.484,128.04c0-.536.507-.683.808-.939a13.123,13.123,0,0,0,4.594-8.615,16.042,16.042,0,0,0-3.294-12.1,12.472,12.472,0,0,0-3.124-2.9c-.268-.177-.643-.283-.7-.689,5.541,2.067,8.588,6.123,9.335,11.913a12.317,12.317,0,0,1-3.877,11.15,9.067,9.067,0,0,1-3.744,2.177" transform="translate(-33.09 -36.277)" fill="#fab0a5"/>
        <path id="Trazado_197281" data-name="Trazado 197281" d="M95.794,141.932a.34.34,0,0,1,.412-.148.39.39,0,0,1-.412.148" transform="translate(-33.805 -50.028)" fill="#fab0a5"/>
        <path id="Trazado_197282" data-name="Trazado 197282" d="M30.989,9.649l-.12.294.12-.294" transform="translate(-10.893 -3.405)" fill="#ac653d"/>
        <path id="Trazado_197283" data-name="Trazado 197283" d="M64.9,121.264a3.578,3.578,0,0,1-.72,2.344,1.142,1.142,0,0,1-1.956-.032,4.232,4.232,0,0,1-.032-4.626,1.174,1.174,0,0,1,2.071.034,3.724,3.724,0,0,1,.637,2.28" transform="translate(-21.711 -41.763)" fill="#161514"/>
        <path id="Trazado_197284" data-name="Trazado 197284" d="M82.483,121.268a3.6,3.6,0,0,1-.6,2.2,1.186,1.186,0,0,1-2.126.032,4.234,4.234,0,0,1,.03-4.552,1.16,1.16,0,0,1,2.015-.032,3.538,3.538,0,0,1,.681,2.355" transform="translate(-27.916 -41.762)" fill="#161514"/>
        <path id="Trazado_197285" data-name="Trazado 197285" d="M89.32,79.859a2.019,2.019,0,0,1,1.944,2.162,2.055,2.055,0,0,1-2.094,1.937,2.1,2.1,0,0,1-2.011-2.134,2.06,2.06,0,0,1,2.161-1.965" transform="translate(-30.757 -28.181)" fill="#151515"/>
        <path id="Trazado_197286" data-name="Trazado 197286" d="M56.471,81.869a2.056,2.056,0,1,1-4.112.015,2.056,2.056,0,0,1,4.112-.015" transform="translate(-18.477 -28.18)" fill="#151515"/>
      </g>
    </g>
  </g>
</svg>
