<svg xmlns="http://www.w3.org/2000/svg" xmlns:xlink="http://www.w3.org/1999/xlink" width="117" height="117" viewBox="0 0 117 117">
  <defs>
    <clipPath id="clip-path">
      <rect id="Rect치ngulo_46101" data-name="Rect치ngulo 46101" width="86.241" height="86.285" fill="none"/>
    </clipPath>
  </defs>
  <g id="Grupo_154481" data-name="Grupo 154481" transform="translate(-425.321 -2215)">
    <rect id="Rect치ngulo_46091" data-name="Rect치ngulo 46091" width="117" height="117" transform="translate(425.321 2215)" fill="none"/>
    <g id="Grupo_154492" data-name="Grupo 154492" transform="translate(440.321 2230)">
      <g id="Grupo_154492-2" data-name="Grupo 154492" clip-path="url(#clip-path)">
        <path id="Trazado_197195" data-name="Trazado 197195" d="M55.623,118.355a13.246,13.246,0,0,1-6.818,1.485c-12.817-.04-25.634-.014-38.451-.022a10.064,10.064,0,0,1-.739-20.113c.12-.006.239-.015.4-.026-.037-.37-.356-.535-.54-.774A9.7,9.7,0,0,1,8.124,88.3a9.351,9.351,0,0,1,8.958-5.787,3.211,3.211,0,0,0,3.425-2.028c.614-1.32,1.545-2.489,2.214-3.788A2.294,2.294,0,0,1,25.3,75.249a2.83,2.83,0,0,0,.537-.025c.3.01.594.027.891.028,1.573.007,2,.435,2,2.019,0,1.519.013,3.037-.008,4.556-.006.432.064.644.572.626,1.249-.044,2.5-.031,3.749-.041,2.452.011,4.906-.041,7.354.047a10.059,10.059,0,0,1,7.589,16.435c-.186.24-.38.475-.652.815,1.267,0,2.372-.036,3.473.006a10.071,10.071,0,0,1,9.27,12.372,10.629,10.629,0,0,1-4.459,6.268M11.492,88.193c.926,0,1.607,0,2.289,0,.255,0,.581-.075.572.354a5.919,5.919,0,0,1-.14,2.367c-.224.444-1.215.1-1.86.151-.149.013-.3,0-.449,0-1.95,0-1.969.034-1.852,1.976.039.639.21.943.953.918,1.853-.06,3.71-.02,5.566-.02,2.146,0,2.121,0,2.117,2.156,0,.611-.2.754-.769.732-1.016-.04-2.034-.011-3.052-.011H11.489a7.22,7.22,0,0,0,5.766,2.866c5.088.024,10.176.009,15.264,0,.158,0,.516-.012.439-.121A10.726,10.726,0,0,0,31.1,96.985c-.784-.567-2.083-.153-3.155-.152-.512,0-.646-.159-.657-.662-.049-2.2-.065-2.235,2.131-2.208.719.009.82-.228.783-.873a9.849,9.849,0,0,1,2.4-7.127c.141-.167.377-.3.354-.643-1.737,0-3.463,0-5.189,0-1.424,0-1.9-.466-1.9-1.864,0-1.5.013-2.993-.013-4.489,0-.275.235-.7-.254-.818-.436-.1-.538.294-.7.561-1.128,1.869-2.26,3.735-3.364,5.618a1.8,1.8,0,0,1-1.754,1c-.957-.032-1.918-.046-2.872.011a7.22,7.22,0,0,0-5.41,2.856M4.54,114.114a.581.581,0,0,0,.254.52,7.164,7.164,0,0,0,5.367,2.3q7.5.012,15,0c.194,0,.411.083.638-.119-.219-.276-.436-.547-.652-.82a10.223,10.223,0,0,1-2.172-5.6c-.058-.671.352-1.581-.155-1.946-.46-.331-1.324-.112-2.01-.114-2.212-.006-2.19,0-2.166-2.2.006-.558.164-.718.713-.7,1.317.037,2.635.017,3.952.008.282,0,.6.1.78-.27a12.25,12.25,0,0,1,1.744-2.471c-.14-.063-.188-.1-.238-.1-5.33,0-10.661-.037-15.99.028a6.606,6.606,0,0,0-4.759,2.215c-.145.151-.42.279-.255.608h9.156c2.068,0,2.032,0,2.074,2.029.015.729-.216.885-.9.879-3.683-.033-7.367-.019-11.05-.008-.278,0-.686-.171-.817.158A3.548,3.548,0,0,0,3,110.873c.2.641.83.283,1.251.3,1.49.045,1.492.018,1.492,1.531,0,1.345,0,1.345-1.2,1.413m41.621-10.105c1.256,0,2.363-.017,3.471,0a5.023,5.023,0,0,1,.969,9.944c-.743.17-1.5.032-2.234.129-.829.109-.984-.22-.962-.983.054-1.878.016-1.879,1.906-1.906a2.169,2.169,0,1,0,.013-4.311c-1.617-.01-3.235.035-4.85-.021-.642-.023-.87.223-1.045.786a7.186,7.186,0,1,0,12.159-2.757c-2.466-2.664-6.806-3.122-9.427-.885m-17.249,0c1.256,0,2.363-.017,3.469,0a5.023,5.023,0,0,1,.969,9.944c-.743.169-1.5.033-2.233.129-.821.106-.988-.21-.965-.979.056-1.881.017-1.883,1.9-1.91a2.169,2.169,0,1,0,.023-4.31c-1.616-.011-3.234.033-4.849-.021a.9.9,0,0,0-1.052.777,7.181,7.181,0,1,0,11.3-3.527,6.967,6.967,0,0,0-8.567-.106M36.034,86.76c1.358,0,2.522-.031,3.684.006a5.022,5.022,0,0,1,1.025,9.893,14.581,14.581,0,0,1-2.5.169c-.674.056-.921-.117-.9-.858.05-1.986.011-1.987,1.968-2.027a2.164,2.164,0,1,0-.016-4.31c-1.647-.013-3.294.026-4.94-.019-.6-.016-.813.225-.978.754a7.224,7.224,0,1,0,2.66-3.608m6.988,15.886h-2.7c1.318,1.927,1.318,1.927,2.651.146a.905.905,0,0,0,.054-.146m-2.671,14.28H43.1c-1.452-1.972-1.453-1.972-2.734-.179-.013.019,0,.052-.014.179" transform="translate(0 -33.556)" fill="#020101"/>
        <path id="Trazado_197196" data-name="Trazado 197196" d="M82.242,114.9A10.623,10.623,0,0,0,86.7,108.63a10.07,10.07,0,0,0-9.27-12.372c-1.1-.042-2.206-.006-3.473-.006.272-.34.466-.574.652-.815A10.059,10.059,0,0,0,67.021,79c-2.449-.088-4.9-.036-7.354-.047V76.14a1.423,1.423,0,0,1,.356-.025c.9.168,1.137-.174,1.107-1.082-.076-2.244,0-4.492-.043-6.738-.014-.675.161-.827.83-.826q23.631.032,47.261,0c.681,0,.826.172.823.833q-.042,9.21,0,18.419c0,.765-.2.912-.932.909-7.7-.029-15.394-.019-23.091-.017-1.4,0-1.873.476-1.875,1.89q0,3.1,0,6.2c0,1.53.443,1.972,1.975,1.973h21.833c2.08,0,2.046,0,2.089,2.068.014.685-.176.827-.836.823-4.881-.03-9.764-.019-14.645-.014-1.287,0-1.784.5-1.788,1.8-.006,2.1,0,4.193,0,6.289,0,1.533.443,1.976,1.971,1.977q6.6,0,13.208,0c2.083,0,2.05,0,2.091,2.065.013.677-.164.829-.832.826-6.889-.027-13.777-.017-20.666-.017-1.479,0-1.479,0-1.554,1.441l-4.71-.031m19.117-37.3c0-1.491,0-1.491-1.475-1.491-1.4,0-1.4,0-1.4,1.385,0,1.491,0,1.491,1.475,1.491,1.4,0,1.4,0,1.4-1.385m5.75-.124c0-1.367,0-1.367-1.33-1.367-1.546,0-1.546,0-1.546,1.51,0,1.366,0,1.366,1.33,1.366,1.546,0,1.546,0,1.546-1.509m-20.128-.011c0,1.52,0,1.52,1.535,1.52,1.34,0,1.34,0,1.34-1.356,0-1.52,0-1.52-1.535-1.52-1.34,0-1.34,0-1.34,1.356m-2.875,5.841c0-1.446,0-1.446-1.431-1.446s-1.446,0-1.446,1.431,0,1.446,1.431,1.446,1.446,0,1.446-1.431m5.75-.09c0-1.356,0-1.356-1.34-1.356-1.535,0-1.535,0-1.535,1.52,0,1.356,0,1.356,1.34,1.356,1.535,0,1.535,0,1.535-1.52m5.751,0c0-1.356,0-1.356-1.341-1.356-1.535,0-1.535,0-1.535,1.52,0,1.356,0,1.356,1.341,1.356,1.535,0,1.535,0,1.535-1.52m2.875,0c0,1.52,0,1.52,1.535,1.52,1.341,0,1.341,0,1.341-1.356,0-1.52,0-1.52-1.535-1.52-1.341,0-1.341,0-1.341,1.356m8.627.13c0-1.485,0-1.485-1.48-1.485-1.4,0-1.4,0-1.4,1.391,0,1.485,0,1.485,1.48,1.485,1.4,0,1.4,0,1.4-1.391m-25.879-5.88c0,1.52,0,1.52,1.535,1.52,1.341,0,1.341,0,1.341-1.356,0-1.52,0-1.52-1.535-1.52-1.341,0-1.341,0-1.341,1.356m-5.751.006c0,1.514,0,1.514,1.541,1.514,1.335,0,1.335,0,1.335-1.361,0-1.515,0-1.515-1.541-1.515-1.335,0-1.335,0-1.335,1.362m31.629-5.631c0-1.481,0-1.481-1.484-1.481-1.392,0-1.392,0-1.392,1.395,0,1.482,0,1.482,1.485,1.482,1.391,0,1.391,0,1.391-1.4m-7.241,1.4c1.491,0,1.491,0,1.491-1.475,0-1.4,0-1.4-1.385-1.4-1.491,0-1.491,0-1.491,1.475,0,1.4,0,1.4,1.385,1.4m-4.26-1.379c0-1.5,0-1.5-1.468-1.5-1.408,0-1.408,0-1.408,1.379,0,1.5,0,1.5,1.469,1.5,1.407,0,1.407,0,1.407-1.379m-5.751-.017c0-1.481,0-1.481-1.484-1.481-1.391,0-1.391,0-1.391,1.395,0,1.482,0,1.482,1.484,1.482,1.391,0,1.391,0,1.391-1.4m-7.175-1.481c-1.452,0-1.452,0-1.452,1.425,0,1.452,0,1.452,1.425,1.452,1.452,0,1.452,0,1.452-1.425,0-1.451,0-1.451-1.425-1.451m-4.326,1.5c0-1.5,0-1.5-1.468-1.5-1.408,0-1.408,0-1.408,1.379,0,1.5,0,1.5,1.469,1.5,1.407,0,1.407,0,1.407-1.379m-5.75-.012c0-1.485,0-1.485-1.48-1.485-1.4,0-1.4,0-1.4,1.391,0,1.485,0,1.485,1.48,1.485,1.4,0,1.4,0,1.4-1.391M65.46,70.359c-1.481,0-1.481,0-1.481,1.485,0,1.391,0,1.391,1.4,1.391,1.481,0,1.481,0,1.481-1.485,0-1.391,0-1.391-1.4-1.391M95.608,77.6c0-1.491,0-1.491-1.475-1.491-1.4,0-1.4,0-1.4,1.385,0,1.491,0,1.491,1.475,1.491,1.4,0,1.4,0,1.4-1.385" transform="translate(-26.619 -30.099)" fill="#dfecfe"/>
        <path id="Trazado_197197" data-name="Trazado 197197" d="M85.773,112.6c.074-1.441.074-1.441,1.554-1.441,6.889,0,13.777-.011,20.665.017.668,0,.845-.15.832-.826-.041-2.064-.008-2.065-2.091-2.065H93.524c-1.528,0-1.97-.445-1.971-1.977q0-3.145,0-6.289c0-1.292.5-1.795,1.788-1.8,4.882,0,9.764-.016,14.645.014.66,0,.85-.138.836-.822-.043-2.068-.008-2.068-2.088-2.068H84.9c-1.531,0-1.973-.443-1.975-1.973q0-3.1,0-6.2c0-1.415.471-1.89,1.875-1.89,7.7,0,15.394-.012,23.091.017.729,0,.936-.144.931-.909q-.055-9.21,0-18.419c0-.662-.142-.834-.823-.834q-23.631.033-47.261,0c-.669,0-.845.151-.83.826.048,2.245-.033,4.494.043,6.738.031.908-.212,1.251-1.107,1.082a2.5,2.5,0,0,1-.712,0c-.907.172-1.127-.193-1.106-1.092.065-2.841.022-5.686.025-8.529,0-1.412.471-1.88,1.88-1.885q4.443-.017,8.887-.029H87.944q10.415.014,20.831.028c2.813,0,2.905.094,2.905,2.928v46.606c0,1.877-.353,2.223-2.264,2.223H87.326c-1.479,0-1.479,0-1.554-1.436m20.2-11.486c-.775,0-1.552.03-2.326-.011-.489-.026-.6.155-.585.606.029,1.043.027,2.088,0,3.131-.011.417.1.568.54.561q2.325-.039,4.653,0c.444.008.55-.144.539-.561-.026-1.043-.029-2.088,0-3.131.013-.452-.1-.634-.585-.606-.743.042-1.49.011-2.237.011M97.3,105.394c.775,0,1.551-.009,2.326,0,.333.006.559-.011.548-.458-.028-1.133-.023-2.266,0-3.4.007-.384-.17-.43-.486-.428-1.581.011-3.162.017-4.742,0-.4,0-.511.117-.5.506.023,1.073.037,2.148,0,3.221-.02.514.2.583.625.566.744-.028,1.491-.008,2.237-.008m8.634-12.939c.775,0,1.552-.025,2.326.009.446.02.549-.144.539-.56-.026-1.073-.023-2.148,0-3.221.008-.378-.089-.52-.494-.514q-2.371.033-4.742,0c-.405-.006-.5.138-.493.515.021,1.073.025,2.148,0,3.221-.01.417.1.579.541.559.774-.034,1.551-.009,2.326-.009m-8.839,0c.931,0,1.707-.026,2.481.01.464.022.617-.115.6-.592-.036-1.012-.052-2.03,0-3.041.033-.6-.2-.681-.712-.665-1.163.035-2.326.011-3.489.011-1.529,0-1.535,0-1.526,1.521,0,.889-.307,2.091.145,2.584.522.57,1.74.094,2.5.172m-8.628,0c.93,0,1.707-.025,2.481.009.46.021.619-.11.6-.59-.037-1.012-.052-2.03,0-3.041.033-.593-.194-.683-.711-.667-1.162.036-2.326.011-3.489.011-1.53,0-1.536,0-1.528,1.52,0,.889-.308,2.09.143,2.584.521.572,1.739.094,2.5.173" transform="translate(-25.44 -27.773)" fill="#020101"/>
        <path id="Trazado_197198" data-name="Trazado 197198" d="M46.052,38.851c-1.451-.205-1.415-.2-1.25-1.682.59-5.294,1.154-10.591,1.729-15.886q.948-8.748,1.9-17.494c.087-.8.16-1.608.261-2.41A1.4,1.4,0,0,1,50.18.015q4.268-.028,8.536,0A1.4,1.4,0,0,1,60.187,1.4q.911,8.345,1.805,16.691.644,5.98,1.284,11.961c.152,1.413.153,1.413-1.27,1.613a1.873,1.873,0,0,0-.534.021c-.773.261-.918-.09-.989-.8-.431-4.287-.928-8.568-1.364-12.854-.062-.609-.24-.8-.857-.789q-3.818.051-7.636,0c-.6-.007-.8.152-.87.776q-1.014,9.732-2.1,19.457c-.157,1.423-.183,1.42-1.607,1.373m8.4-24.463c1.225,0,2.449.006,3.674,0,.26,0,.624.133.551-.409-.152-1.123-.269-2.252-.372-3.381-.038-.409-.186-.543-.611-.539-2.15.023-4.3.03-6.451,0-.531-.009-.652.214-.69.66a23.624,23.624,0,0,1-.308,2.846c-.169.806.162.864.8.842,1.134-.039,2.27-.011,3.4-.011m-.013-7.194c.986,0,1.972-.015,2.957.007.4.009.52-.124.472-.516-.137-1.125-.265-2.253-.359-3.383-.031-.376-.212-.424-.518-.423-1.7.007-3.406,0-5.108,0-.239,0-.472-.025-.505.333Q51.209,5,51,6.778c-.048.413.186.42.48.418.985-.006,1.971,0,2.957,0" transform="translate(-19.953 0)" fill="#020101"/>
        <path id="Trazado_197199" data-name="Trazado 197199" d="M46.914,52.74c1.425.047,1.451.05,1.607-1.373q1.069-9.726,2.1-19.457c.065-.624.268-.783.869-.775q3.818.047,7.636,0c.617-.008.8.18.857.789.436,4.287.933,8.567,1.364,12.854.071.71.216,1.062.989.8a1.873,1.873,0,0,1,.534-.021l.324,2.813q-4.443.015-8.886.03c-1.41,0-1.879.473-1.88,1.885,0,2.843.04,5.687-.025,8.529-.02.9.2,1.264,1.107,1.092a1.373,1.373,0,0,1,.356.025v2.815c-1.25.01-2.5,0-3.749.041-.508.018-.578-.194-.572-.626.021-1.518.009-3.037.008-4.556,0-1.585-.429-2.013-2-2.019-.3,0-.594-.019-.891-.028q.13-1.409.259-2.818" transform="translate(-20.814 -13.89)" fill="#fdc331"/>
        <path id="Trazado_197200" data-name="Trazado 197200" d="M83.858,31.668c-1.425-.2-1.423-.2-1.271-1.611Q84.125,15.833,85.66,1.61c.124-1.147.593-1.6,1.727-1.6Q91.426,0,95.466.01c1.133,0,1.6.454,1.728,1.6q1.589,14.579,3.186,29.157c.055.5,0,.8-.586.794a5.346,5.346,0,0,0-.8.107,1.465,1.465,0,0,0-.444.009c-.839.287-1.015-.089-1.093-.873-.421-4.25-.907-8.494-1.357-12.741-.05-.476-.045-.833-.729-.821-2.63.043-5.261.028-7.891.007-.486,0-.669.133-.72.636-.415,4.1-.86,8.2-1.292,12.3-.162,1.533-.158,1.534-1.61,1.485m11.83-17.323c-.128-1.232-.268-2.416-.368-3.6-.043-.5-.194-.7-.757-.692q-3.135.061-6.272,0c-.561-.011-.716.189-.758.691-.1,1.188-.239,2.372-.367,3.6ZM91.38,7.2c.986,0,1.972-.02,2.957.009.443.013.576-.12.519-.56-.141-1.1-.269-2.193-.352-3.294-.032-.419-.22-.474-.567-.472q-2.509.016-5.019,0c-.343,0-.537.047-.569.469-.084,1.1-.213,2.2-.352,3.294-.055.434.066.578.515.563.955-.031,1.911-.009,2.867-.009" transform="translate(-36.815 -0.002)" fill="#020101"/>
        <path id="Trazado_197201" data-name="Trazado 197201" d="M84.674,45.554c1.452.048,1.448.048,1.61-1.485.433-4.1.877-8.2,1.292-12.3.051-.5.234-.639.72-.635,2.63.021,5.262.035,7.892-.008.683-.011.678.346.729.822.45,4.247.936,8.491,1.358,12.741.078.783.254,1.16,1.093.873a1.464,1.464,0,0,1,.444-.009l.324,2.813H84.35l.324-2.813" transform="translate(-37.631 -13.887)" fill="#fdc331"/>
        <path id="Trazado_197202" data-name="Trazado 197202" d="M19.557,90.54a7.221,7.221,0,0,1,5.41-2.856c.954-.057,1.916-.043,2.872-.011a1.8,1.8,0,0,0,1.754-1c1.1-1.883,2.236-3.75,3.364-5.618.161-.267.264-.666.7-.561.489.118.249.542.254.817.026,1.5.009,2.993.013,4.489,0,1.4.479,1.862,1.9,1.864,1.726,0,3.452,0,5.189,0,.023.347-.213.476-.354.643a9.853,9.853,0,0,0-2.4,7.128c.037.646-.063.882-.783.873-2.2-.027-2.18.007-2.131,2.208.011.5.145.662.657.662,1.072,0,2.372-.414,3.155.152a10.731,10.731,0,0,1,1.863,2.583c.077.11-.282.121-.44.121-5.088.006-10.176.021-15.264,0a7.22,7.22,0,0,1-5.766-2.866h3.378c1.017,0,2.036-.029,3.052.011.564.022.768-.12.769-.732,0-2.156.03-2.156-2.117-2.156-1.855,0-3.712-.04-5.566.02-.743.024-.914-.279-.953-.919-.117-1.941-.1-1.975,1.852-1.975.15,0,.3.011.449,0,.645-.055,1.637.293,1.861-.151a5.919,5.919,0,0,0,.14-2.367c.009-.429-.317-.352-.572-.354-.681-.007-1.363,0-2.289,0M29.6,93.416h2.151c2.269,0,2.248,0,2.188-2.257-.014-.542-.212-.633-.687-.628-1.942.021-3.885.009-5.827.009-2.2,0-2.173,0-2.145,2.212.008.589.221.687.733.674,1.195-.03,2.391-.009,3.586-.009M32.487,97.8c0-1.507,0-1.507-1.482-1.507a3.2,3.2,0,0,1-.536,0c-.725-.124-.968.2-.862.883a3.007,3.007,0,0,1,0,.447c0,1.551,0,1.551,1.526,1.551,1.35,0,1.35,0,1.35-1.37" transform="translate(-8.065 -35.903)" fill="#c27120"/>
        <path id="Trazado_197203" data-name="Trazado 197203" d="M6.812,136.15c1.2-.069,1.2-.069,1.2-1.413,0-1.514,0-1.486-1.491-1.531-.421-.013-1.051.346-1.251-.3a3.54,3.54,0,0,1,.054-2.379c.131-.33.538-.158.816-.158,3.684-.011,7.367-.024,11.05.008.687.006.918-.15.9-.879-.042-2.028-.006-2.029-2.073-2.029H6.865c-.165-.329.111-.456.255-.608a6.609,6.609,0,0,1,4.759-2.215c5.33-.065,10.66-.028,15.991-.028.049,0,.1.042.238.105a12.237,12.237,0,0,0-1.744,2.471c-.177.368-.5.268-.78.27-1.318.008-2.636.029-3.952-.008-.549-.016-.707.145-.713.7-.025,2.2-.046,2.2,2.166,2.2.686,0,1.55-.217,2.009.114.507.364.1,1.275.155,1.946a10.225,10.225,0,0,0,2.172,5.6c.215.272.433.544.652.82-.227.2-.444.119-.638.119q-7.5.009-15,0a7.164,7.164,0,0,1-5.366-2.3.58.58,0,0,1-.254-.52m12.678-.034h.718c2.278,0,2.258,0,2.195-2.263-.015-.532-.2-.654-.683-.639-.987.03-1.976.009-2.964.009-2.2,0-2.2,0-2.135,2.217a1.213,1.213,0,0,1,0,.179c-.047.408.167.508.533.5.778-.017,1.557,0,2.336,0M13.762,134.7c0-1.474,0-1.474-1.08-1.476-1.812,0-1.812,0-1.812,1.1,0,1.79,0,1.79,1.215,1.79,1.678,0,1.678,0,1.678-1.417" transform="translate(-2.271 -55.593)" fill="#c27120"/>
        <path id="Trazado_197204" data-name="Trazado 197204" d="M80.887,126.048c2.621-2.238,6.962-1.78,9.427.885a7.182,7.182,0,1,1-12.158,2.757c.174-.564.4-.809,1.045-.786,1.615.057,3.233.011,4.85.022a2.169,2.169,0,1,1-.013,4.31c-1.891.028-1.853.029-1.907,1.907-.022.762.133,1.091.962.983.737-.1,1.49.041,2.234-.129a5.024,5.024,0,0,0-.969-9.945c-1.107-.02-2.214,0-3.471,0" transform="translate(-34.725 -55.595)" fill="#e6944a"/>
        <path id="Trazado_197205" data-name="Trazado 197205" d="M49.741,126.055a6.967,6.967,0,0,1,8.567.106,7.18,7.18,0,1,1-11.3,3.527.9.9,0,0,1,1.052-.777c1.615.054,3.232.009,4.849.02a2.169,2.169,0,1,1-.023,4.31c-1.886.027-1.847.028-1.9,1.91-.023.769.143,1.086.965.979.737-.1,1.49.041,2.233-.129a5.023,5.023,0,0,0-.969-9.944c-1.107-.02-2.214,0-3.469,0" transform="translate(-20.829 -55.603)" fill="#e6944a"/>
        <path id="Trazado_197206" data-name="Trazado 197206" d="M62.656,94.908A7.073,7.073,0,1,1,60,98.517c.165-.529.377-.77.978-.754,1.646.045,3.293.006,4.94.018a2.165,2.165,0,1,1,.016,4.31c-1.957.04-1.918.041-1.968,2.027-.018.742.23.915.9.859a14.69,14.69,0,0,0,2.5-.169,5.023,5.023,0,0,0-1.025-9.894c-1.161-.037-2.325-.006-3.684-.006" transform="translate(-26.622 -41.704)" fill="#e6944a"/>
        <path id="Trazado_197207" data-name="Trazado 197207" d="M75.5,124.739a.881.881,0,0,1-.054.146c-1.333,1.782-1.333,1.782-2.65-.146Z" transform="translate(-32.475 -55.65)" fill="#c27120"/>
        <path id="Trazado_197208" data-name="Trazado 197208" d="M72.852,149.313c.009-.127,0-.161.014-.179,1.282-1.793,1.282-1.793,2.734.179H72.852Z" transform="translate(-32.501 -65.942)" fill="#c27120"/>
        <path id="Trazado_197209" data-name="Trazado 197209" d="M132.623,84.561c0,1.385,0,1.385-1.4,1.385-1.475,0-1.475,0-1.475-1.491,0-1.385,0-1.385,1.4-1.385,1.475,0,1.475,0,1.475,1.491" transform="translate(-57.884 -37.06)" fill="#020101"/>
        <path id="Trazado_197210" data-name="Trazado 197210" d="M143.006,84.438c0,1.509,0,1.509-1.546,1.509-1.33,0-1.33,0-1.33-1.367,0-1.509,0-1.509,1.546-1.509,1.33,0,1.33,0,1.33,1.367" transform="translate(-62.516 -37.06)" fill="#020101"/>
        <path id="Trazado_197211" data-name="Trazado 197211" d="M108.982,84.427c0-1.356,0-1.356,1.341-1.356,1.535,0,1.535,0,1.535,1.52,0,1.356,0,1.356-1.341,1.356-1.535,0-1.535,0-1.535-1.52" transform="translate(-48.62 -37.06)" fill="#020101"/>
        <path id="Trazado_197212" data-name="Trazado 197212" d="M101.476,94.9c0,1.431,0,1.431-1.446,1.431s-1.431,0-1.431-1.446,0-1.431,1.446-1.431,1.431,0,1.431,1.446" transform="translate(-43.988 -41.692)" fill="#020101"/>
        <path id="Trazado_197213" data-name="Trazado 197213" d="M111.858,94.809c0,1.52,0,1.52-1.535,1.52-1.341,0-1.341,0-1.341-1.356,0-1.52,0-1.52,1.535-1.52,1.341,0,1.341,0,1.341,1.356" transform="translate(-48.62 -41.692)" fill="#020101"/>
        <path id="Trazado_197214" data-name="Trazado 197214" d="M122.241,94.809c0,1.52,0,1.52-1.535,1.52-1.341,0-1.341,0-1.341-1.356,0-1.52,0-1.52,1.535-1.52,1.341,0,1.341,0,1.341,1.356" transform="translate(-53.252 -41.692)" fill="#020101"/>
        <path id="Trazado_197215" data-name="Trazado 197215" d="M129.747,94.809c0-1.356,0-1.356,1.341-1.356,1.535,0,1.535,0,1.535,1.52,0,1.356,0,1.356-1.341,1.356-1.535,0-1.535,0-1.535-1.52" transform="translate(-57.884 -41.692)" fill="#020101"/>
        <path id="Trazado_197216" data-name="Trazado 197216" d="M143.006,94.938c0,1.391,0,1.391-1.4,1.391-1.48,0-1.48,0-1.48-1.485,0-1.391,0-1.391,1.4-1.391,1.48,0,1.48,0,1.48,1.485" transform="translate(-62.516 -41.692)" fill="#020101"/>
        <path id="Trazado_197217" data-name="Trazado 197217" d="M98.6,84.427c0-1.356,0-1.356,1.341-1.356,1.535,0,1.535,0,1.535,1.52,0,1.356,0,1.356-1.341,1.356-1.535,0-1.535,0-1.535-1.52" transform="translate(-43.988 -37.06)" fill="#020101"/>
        <path id="Trazado_197218" data-name="Trazado 197218" d="M88.217,84.432c0-1.362,0-1.362,1.335-1.362,1.541,0,1.541,0,1.541,1.515,0,1.361,0,1.361-1.335,1.361-1.541,0-1.541,0-1.541-1.514" transform="translate(-39.356 -37.06)" fill="#020101"/>
        <path id="Trazado_197219" data-name="Trazado 197219" d="M143.006,74.169c0,1.4,0,1.4-1.391,1.4-1.485,0-1.485,0-1.485-1.482,0-1.395,0-1.395,1.392-1.395,1.484,0,1.484,0,1.484,1.481" transform="translate(-62.516 -32.428)" fill="#020101"/>
        <path id="Trazado_197220" data-name="Trazado 197220" d="M131.133,75.564c-1.385,0-1.385,0-1.385-1.4,0-1.475,0-1.475,1.491-1.475,1.385,0,1.385,0,1.385,1.4,0,1.475,0,1.475-1.491,1.475" transform="translate(-57.884 -32.428)" fill="#020101"/>
        <path id="Trazado_197221" data-name="Trazado 197221" d="M122.241,74.186c0,1.379,0,1.379-1.407,1.379-1.469,0-1.469,0-1.469-1.5,0-1.379,0-1.379,1.408-1.379,1.468,0,1.468,0,1.468,1.5" transform="translate(-53.252 -32.428)" fill="#020101"/>
        <path id="Trazado_197222" data-name="Trazado 197222" d="M111.858,74.169c0,1.4,0,1.4-1.391,1.4-1.485,0-1.485,0-1.485-1.482,0-1.395,0-1.395,1.391-1.395,1.485,0,1.485,0,1.485,1.481" transform="translate(-48.62 -32.428)" fill="#020101"/>
        <path id="Trazado_197223" data-name="Trazado 197223" d="M100.051,72.688c1.425,0,1.425,0,1.425,1.452,0,1.425,0,1.425-1.451,1.425-1.425,0-1.425,0-1.425-1.452,0-1.425,0-1.425,1.452-1.425" transform="translate(-43.988 -32.428)" fill="#020101"/>
        <path id="Trazado_197224" data-name="Trazado 197224" d="M91.093,74.186c0,1.379,0,1.379-1.407,1.379-1.469,0-1.469,0-1.469-1.5,0-1.379,0-1.379,1.408-1.379,1.468,0,1.468,0,1.468,1.5" transform="translate(-39.356 -32.428)" fill="#020101"/>
        <path id="Trazado_197225" data-name="Trazado 197225" d="M80.71,74.173c0,1.391,0,1.391-1.4,1.391-1.48,0-1.48,0-1.48-1.485,0-1.391,0-1.391,1.4-1.391,1.481,0,1.481,0,1.481,1.485" transform="translate(-34.724 -32.428)" fill="#020101"/>
        <path id="Trazado_197226" data-name="Trazado 197226" d="M68.933,72.688c1.4,0,1.4,0,1.4,1.391,0,1.485,0,1.485-1.482,1.485-1.395,0-1.395,0-1.395-1.391,0-1.485,0-1.485,1.481-1.485" transform="translate(-30.092 -32.428)" fill="#020101"/>
        <path id="Trazado_197227" data-name="Trazado 197227" d="M122.241,84.561c0,1.385,0,1.385-1.4,1.385-1.475,0-1.475,0-1.475-1.491,0-1.385,0-1.385,1.4-1.385,1.475,0,1.475,0,1.475,1.491" transform="translate(-53.252 -37.06)" fill="#020101"/>
        <path id="Trazado_197228" data-name="Trazado 197228" d="M143.057,132.411c.746,0,1.493.031,2.237-.011.489-.028.6.154.585.606-.029,1.043-.027,2.088,0,3.132.011.417-.1.568-.539.561q-2.326-.039-4.653,0c-.444.007-.551-.143-.54-.561.027-1.043.029-2.088,0-3.131-.013-.452.1-.633.585-.606.773.042,1.55.011,2.326.011" transform="translate(-62.523 -59.066)" fill="#dfecfe"/>
        <path id="Trazado_197229" data-name="Trazado 197229" d="M127.428,136.691c-.746,0-1.492-.021-2.237.008-.43.017-.645-.052-.625-.566.041-1.072.028-2.147,0-3.221-.009-.389.106-.511.5-.506,1.58.02,3.161.014,4.742,0,.316,0,.493.044.486.428-.022,1.133-.027,2.268,0,3.4.011.447-.214.463-.548.458-.775-.014-1.551,0-2.326,0" transform="translate(-55.572 -59.07)" fill="#dfecfe"/>
        <path id="Trazado_197230" data-name="Trazado 197230" d="M143.014,113.33c-.775,0-1.552-.025-2.326.009-.445.02-.551-.142-.54-.559.026-1.073.023-2.147,0-3.221-.007-.377.088-.521.493-.515q2.371.032,4.742,0c.405-.006.5.136.494.514-.021,1.073-.024,2.148,0,3.221.011.416-.093.58-.539.561-.774-.035-1.551-.01-2.326-.01" transform="translate(-62.523 -48.647)" fill="#dfecfe"/>
        <path id="Trazado_197231" data-name="Trazado 197231" d="M127.156,113.327c-.758-.078-1.976.4-2.5-.172-.451-.493-.139-1.695-.145-2.584-.009-1.521,0-1.521,1.525-1.521,1.164,0,2.327.024,3.489-.011.514-.016.746.069.712.665-.056,1.011-.04,2.028,0,3.041.017.477-.136.614-.6.592-.774-.036-1.55-.01-2.48-.01" transform="translate(-55.504 -48.644)" fill="#dfecfe"/>
        <path id="Trazado_197232" data-name="Trazado 197232" d="M111.579,113.327c-.758-.079-1.976.4-2.5-.173-.451-.495-.138-1.7-.143-2.584-.009-1.52,0-1.52,1.528-1.52,1.163,0,2.327.025,3.489-.011.517-.016.743.074.711.667-.056,1.011-.041,2.028,0,3.041.017.48-.142.611-.6.59-.774-.035-1.551-.009-2.481-.009" transform="translate(-48.555 -48.644)" fill="#dfecfe"/>
        <path id="Trazado_197233" data-name="Trazado 197233" d="M58.863,22.483c-1.135,0-2.271-.028-3.4.011-.641.022-.972-.036-.8-.842a23.512,23.512,0,0,0,.307-2.846c.038-.445.16-.669.69-.66,2.15.034,4.3.027,6.452,0,.425,0,.573.13.611.539.1,1.129.22,2.258.372,3.381.073.543-.291.407-.551.409-1.225.01-2.449,0-3.674,0" transform="translate(-24.363 -8.095)" fill="#fdc331"/>
        <path id="Trazado_197234" data-name="Trazado 197234" d="M59.49,9.512c-.986,0-1.972,0-2.957,0-.294,0-.528-.006-.48-.418q.209-1.779.375-3.562c.033-.359.266-.333.505-.333,1.7,0,3.405,0,5.108,0,.306,0,.487.047.518.423.095,1.13.223,2.258.359,3.383.048.392-.073.525-.472.516-.985-.022-1.971-.007-2.957-.007" transform="translate(-25.004 -2.319)" fill="#fdc331"/>
        <path id="Trazado_197235" data-name="Trazado 197235" d="M99.428,22.437H90.906c.129-1.232.268-2.417.368-3.6.043-.5.2-.7.758-.691q3.135.061,6.271,0c.563-.011.714.192.757.692.1,1.188.239,2.372.368,3.6" transform="translate(-40.556 -8.093)" fill="#fdc331"/>
        <path id="Trazado_197236" data-name="Trazado 197236" d="M95.781,9.511c-.956,0-1.913-.022-2.867.009-.449.015-.57-.129-.515-.563.14-1.1.269-2.193.352-3.294.032-.421.225-.471.569-.469q2.509.015,5.019,0c.346,0,.534.053.567.472.084,1.1.212,2.2.352,3.294.057.44-.076.573-.519.56-.985-.03-1.971-.009-2.957-.009" transform="translate(-41.216 -2.318)" fill="#fdc331"/>
        <path id="Trazado_197237" data-name="Trazado 197237" d="M35.4,101.514c-1.2,0-2.391-.021-3.586.01-.512.013-.726-.085-.733-.675-.028-2.212-.053-2.212,2.145-2.212,1.942,0,3.885.012,5.827-.009.474,0,.672.087.686.628.06,2.258.081,2.257-2.188,2.257H35.4" transform="translate(-13.862 -44.001)" fill="#020101"/>
        <path id="Trazado_197238" data-name="Trazado 197238" d="M41.755,110.509c0,1.37,0,1.37-1.35,1.37-1.526,0-1.526,0-1.526-1.551a3.007,3.007,0,0,0,0-.447c-.106-.683.137-1.007.862-.883a3.2,3.2,0,0,0,.536,0c1.482,0,1.482,0,1.482,1.507" transform="translate(-17.333 -48.615)" fill="#020101"/>
        <path id="Trazado_197239" data-name="Trazado 197239" d="M28.76,143.044c-.779,0-1.557-.012-2.336,0-.367.008-.579-.093-.533-.5a1.294,1.294,0,0,0,0-.179c-.069-2.217-.069-2.217,2.135-2.217.988,0,1.977.022,2.964-.009.485-.014.667.107.682.639.063,2.263.083,2.263-2.194,2.263H28.76" transform="translate(-11.542 -62.521)" fill="#020101"/>
        <path id="Trazado_197240" data-name="Trazado 197240" d="M18.417,141.635c0,1.417,0,1.417-1.678,1.417-1.216,0-1.216,0-1.215-1.79,0-1.1,0-1.1,1.812-1.1,1.08,0,1.08,0,1.08,1.476" transform="translate(-6.926 -62.529)" fill="#020101"/>
      </g>
    </g>
  </g>
</svg>
