<svg xmlns="http://www.w3.org/2000/svg" xmlns:xlink="http://www.w3.org/1999/xlink" width="320.5" height="180.955" viewBox="0 0 320.5 180.955">
  <defs>
    <clipPath id="clip-path">
      <rect id="Rectángulo_35829" data-name="Rectángulo 35829" width="111.831" height="143.147" fill="rgba(0,0,0,0)"/>
    </clipPath>
    <clipPath id="clip-path-3">
      <rect id="Rectángulo_35823" data-name="Rectángulo 35823" width="8.398" height="2.376" fill="rgba(0,0,0,0)"/>
    </clipPath>
    <clipPath id="clip-path-4">
      <rect id="Rectángulo_35824" data-name="Rectángulo 35824" width="7.122" height="2.083" fill="rgba(0,0,0,0)"/>
    </clipPath>
    <clipPath id="clip-path-5">
      <rect id="Rectángulo_35826" data-name="Rectángulo 35826" width="35.398" height="35.398" fill="rgba(0,0,0,0)"/>
    </clipPath>
    <clipPath id="clip-path-6">
      <rect id="Rectángulo_35827" data-name="Rectángulo 35827" width="50.274" height="122.815" fill="#e6eff2"/>
    </clipPath>
    <clipPath id="clip-path-7">
      <rect id="Rectángulo_35838" data-name="Rectángulo 35838" width="60.759" height="136.708" fill="rgba(0,0,0,0)"/>
    </clipPath>
    <clipPath id="clip-path-9">
      <rect id="Rectángulo_35831" data-name="Rectángulo 35831" width="60.759" height="134.842" fill="rgba(0,0,0,0)"/>
    </clipPath>
    <filter id="Trazado_196935" x="233.969" y="110.434" width="86.531" height="70.521" filterUnits="userSpaceOnUse">
      <feOffset dy="3" input="SourceAlpha"/>
      <feGaussianBlur stdDeviation="8.5" result="blur"/>
      <feFlood flood-opacity="0.2"/>
      <feComposite operator="in" in2="blur"/>
      <feComposite in="SourceGraphic"/>
    </filter>
  </defs>
  <g id="Grupo_154424" data-name="Grupo 154424" transform="translate(-1133.174 -3876.238)">
    <g id="Grupo_143305" data-name="Grupo 143305" transform="translate(1133.174 3876.238)">
      <g id="Grupo_134324" data-name="Grupo 134324" transform="translate(0 0)">
        <g id="Grupo_134142" data-name="Grupo 134142">
          <rect id="Rectángulo_35842" data-name="Rectángulo 35842" width="123.056" height="116.583" transform="translate(70.922 44.094)" fill="#d3f9ee"/>
          <g id="Grupo_154423" data-name="Grupo 154423" transform="translate(0 15.242)">
            <path id="Trazado_196936" data-name="Trazado 196936" d="M21,0H254.642a21,21,0,0,1,21,21v88.6a21,21,0,0,1-21,21H21a21,21,0,0,1-21-21V21A21,21,0,0,1,21,0Z" transform="translate(0 6.612)" fill="#e6eff2"/>
            <g id="Grupo_134117" data-name="Grupo 134117" transform="translate(22.281)">
              <g id="Grupo_134116" data-name="Grupo 134116" transform="translate(0 0)" clip-path="url(#clip-path)">
                <g id="Grupo_134115" data-name="Grupo 134115">
                  <g id="Grupo_134114" data-name="Grupo 134114" clip-path="url(#clip-path)">
                    <path id="Trazado_127291" data-name="Trazado 127291" d="M526.767,403.3l11.07,30.2s-8.987.6-20.059.6c-.219-.438-3.069-14.141-3.069-14.141Z" transform="translate(-510.64 -336.989)" fill="#f8d9c7"/>
                    <path id="Trazado_127292" data-name="Trazado 127292" d="M535.969,59.661s-1.125-4.041-3.057-2.961c-.256.09-3.328,2.792-1.193,5.843.164.129,2.536,3.418,4.438.621.212-.337,1.192-3.043,1.192-3.043Z" transform="translate(-512.826 -47.224)" fill="#453e37"/>
                    <path id="Trazado_127293" data-name="Trazado 127293" d="M529.623,429.329s1.17,17.48,2.236,35.7a172.529,172.529,0,0,0,0,34.1h3.446l3.646-68.883Z" transform="translate(-514.207 -358.735)" fill="#ff9d6a"/>
                    <path id="Trazado_127294" data-name="Trazado 127294" d="M507.269,853.84v2.611l10.6.14a.164.164,0,0,0,.059-.32l-7.21-2.43Z" transform="translate(-489.616 -713.444)" fill="#126783"/>
                    <path id="Trazado_127295" data-name="Trazado 127295" d="M509.178,333.138l-3.363,42.205L500.5,416.056s-1.364.808-5.552.248c-.841-2.129-1.43-64.532-1.43-64.532l2.635-18.634Z" transform="translate(-478.496 -278.36)" fill="#32256b"/>
                    <path id="Trazado_127296" data-name="Trazado 127296" d="M598.263,429.329s1.17,17.48,2.237,35.7a172.518,172.518,0,0,0,0,34.1h3.446l3.646-68.883Z" transform="translate(-594.133 -358.735)" fill="#ff9d6a"/>
                    <path id="Trazado_127297" data-name="Trazado 127297" d="M575.909,853.84v2.611l10.6.14a.164.164,0,0,0,.059-.32l-7.21-2.43Z" transform="translate(-569.542 -713.444)" fill="#126783"/>
                    <path id="Trazado_127298" data-name="Trazado 127298" d="M577.819,333.138l-3.363,42.205-5.319,40.712s-1.364.808-5.552.248c-.841-2.129-1.43-64.532-1.43-64.532l2.635-18.634Z" transform="translate(-558.424 -278.36)" fill="#32256b"/>
                    <path id="Trazado_127299" data-name="Trazado 127299" d="M513.74,64.268l.756-6.2-5.817-1.555c-.017.141-.536,6.694-.536,6.694a2.552,2.552,0,0,1-1.577,2.155c-.238.09-1.64.363-1.64.363L502.5,74.35l5.88,5.411,5.881-5.009.15-7.492a3.519,3.519,0,0,1-.668-2.992" transform="translate(-485.291 -47.223)" fill="#ff9d6a"/>
                    <path id="Trazado_127300" data-name="Trazado 127300" d="M481.149,54.612a2.77,2.77,0,0,1-2.451,1.626c-.869-.106-.822-.962-.694-2.009s.728-2.117,2.115-1.948a1.6,1.6,0,0,1,1.03,2.332" transform="translate(-448.082 -43.669)" fill="#ff5e2b"/>
                    <path id="Trazado_127301" data-name="Trazado 127301" d="M472.1,16.689s7.706,3.011,1.761,7.525c.06.074-4.692-2.041-4.692-2.041Z" transform="translate(-441.429 -13.945)" fill="#453e37"/>
                    <path id="Trazado_127302" data-name="Trazado 127302" d="M480.843,27.407c-.389,3.193,1.2,6.281,3.575,6.867,3.007.742,4.536-2.7,5.219-5.841,1.072-4.938-1.268-5.975-3.694-6.271s-4.709,2.052-5.1,5.245" transform="translate(-457.128 -18.497)" fill="#ff9d6a"/>
                    <path id="Trazado_127303" data-name="Trazado 127303" d="M509.469,86.368c.087,0,.137,0,.141,0a.093.093,0,0,0-.013-.186,4.524,4.524,0,0,1-3.8-1.84.093.093,0,0,0-.154.105,4.673,4.673,0,0,0,3.823,1.925" transform="translate(-481.005 -70.437)" fill="#594329"/>
                    <path id="Trazado_127304" data-name="Trazado 127304" d="M512.334,15.9s-1.271,4.3-3.045,3.892c-.051-.09-.933.184-.933.184l-.424,5.154s-5.194-11.709,5.01-11.053c0,0,1.367-.045-.609,1.824" transform="translate(-484.875 -11.74)" fill="#453e37"/>
                    <path id="Trazado_127305" data-name="Trazado 127305" d="M530.909,43.876a2.77,2.77,0,0,0,1.989,2.167c.868.106,1.029-.736,1.156-1.783s-.2-2.23-1.585-2.4a1.6,1.6,0,0,0-1.56,2.016" transform="translate(-509.541 -34.971)" fill="#ff9d6a"/>
                    <path id="Trazado_127306" data-name="Trazado 127306" d="M537.624,47.762a.093.093,0,0,0,.083-.05,2.138,2.138,0,0,0,.251-1.721,1.656,1.656,0,0,0-.835-.914.093.093,0,0,0-.074.171,1.494,1.494,0,0,1,.734.808,1.965,1.965,0,0,1-.241,1.57.093.093,0,0,0,.082.137" transform="translate(-514.513 -37.658)" fill="#594329"/>
                    <path id="Trazado_127307" data-name="Trazado 127307" d="M537.156,52.253a.093.093,0,0,0,.093-.082.169.169,0,0,1,.077-.127,1.362,1.362,0,0,1,.833-.012.093.093,0,0,0,.045-.181,1.517,1.517,0,0,0-.983.039.359.359,0,0,0-.157.259.093.093,0,0,0,.081.1h.011" transform="translate(-514.753 -43.269)" fill="#594329"/>
                    <path id="Trazado_127308" data-name="Trazado 127308" d="M495.452,61.356a.451.451,0,0,0,.093-.01.5.5,0,0,0,.346-.307.092.092,0,0,0,.009-.048,10.385,10.385,0,0,1,.145-2.912.093.093,0,1,0-.181-.043,10.586,10.586,0,0,0-.152,2.944.312.312,0,0,1-.205.183.575.575,0,0,1-.4-.141.093.093,0,0,0-.121.141.825.825,0,0,0,.469.192" transform="translate(-465.602 -48.434)" fill="#594329"/>
                    <path id="Trazado_127309" data-name="Trazado 127309" d="M506.911,58.71c-.033.151.022.291.122.313s.209-.082.242-.233-.022-.291-.122-.313-.209.083-.242.233" transform="translate(-478.803 -48.859)" fill="#453e37"/>
                    <path id="Trazado_127310" data-name="Trazado 127310" d="M486.728,61.743c-.033.151.022.291.122.313s.209-.082.242-.233-.022-.291-.122-.313-.209.083-.242.233" transform="translate(-455.302 -51.393)" fill="#453e37"/>
                    <path id="Trazado_127311" data-name="Trazado 127311" d="M501.924,81.914a1.617,1.617,0,0,0,.172-.008.093.093,0,0,0,.081-.1.092.092,0,0,0-.1-.081,1.553,1.553,0,0,1-1.5-.708.093.093,0,0,0-.167.084,1.646,1.646,0,0,0,1.52.816" transform="translate(-472.627 -67.65)" fill="#594329"/>
                    <path id="Trazado_127312" data-name="Trazado 127312" d="M513.742,61.512a.927.927,0,1,0,1.033-.808.927.927,0,0,0-1.033.808" transform="translate(-488.233 -50.717)" fill="#ff5e2b"/>
                    <path id="Trazado_127313" data-name="Trazado 127313" d="M503.065,52.126a1.811,1.811,0,0,1,1.3-.082.2.2,0,0,0,.252-.115l.032-.078a.2.2,0,0,0-.131-.269,2.256,2.256,0,0,0-1.642.187.2.2,0,0,0-.072.282.2.2,0,0,0,.258.074" transform="translate(-475.507 -43.037)" fill="#453e37"/>
                    <path id="Trazado_127314" data-name="Trazado 127314" d="M482.729,55.3a1.619,1.619,0,0,1,1.09-.091.18.18,0,0,0,.229-.153c0-.031.005-.062.006-.093a.184.184,0,0,0-.133-.184,1.572,1.572,0,0,0-1.362.189.185.185,0,0,0-.082.192v0a.181.181,0,0,0,.251.136" transform="translate(-451.557 -45.705)" fill="#453e37"/>
                    <path id="Trazado_127315" data-name="Trazado 127315" d="M506.786,160.793q-.37.017-.74.028c-4.576,0-9.717,3-14.148,1.879-1.539-.415-3.886-.473-5.4-.986l7.229-35.615s5.846,6.523,16.543,2.933c-.068-.125-2.416,21.738-3.489,31.761" transform="translate(-478.439 -105.365)" fill="#25e0ac"/>
                    <path id="Trazado_127316" data-name="Trazado 127316" d="M553.014,110.329a85.421,85.421,0,0,0-10.668,2.363c-3.641,1.139-2.653,5.6-3.058,9.4-.591,5.549.2,11.728-2.494,21.118-5.055,17.6-3.9,23.836-5.055,44.389.277.034,11.187,2.793,18.018,2.969.068-.231,2.72-12.165,4.033-24.007,1.779-16.043,2.348-34.972,2.345-38.051Z" transform="translate(-531.739 -92.188)" fill="#b1dbea"/>
                    <path id="Trazado_127317" data-name="Trazado 127317" d="M449.065,138.14l4.72-16.284s8.122,6.529,9.5,9.045a124.933,124.933,0,0,0-5,25.832c-.959,11.712-1.553,38.242-1.467,39.849-.174-.115-2.7,2.356-11.592,2.959.008-2.549.948-13.963,1.175-25.158.344-16.918,2.661-36.242,2.661-36.242" transform="translate(-424.668 -101.819)" fill="#b1dbea"/>
                    <path id="Trazado_127318" data-name="Trazado 127318" d="M541.611,165.4a.093.093,0,0,0,.046-.174c-4.553-2.548-7.491-7.485-8.5-14.277-.023-.155-.038-.257-.052-.325,2.316-1.207,6.769-.523,6.814-.516a.093.093,0,1,0,.029-.184c-.189-.03-4.648-.714-7,.572a.094.094,0,0,0-.047.1.1.1,0,0,0,.014.034c.011.043.032.184.056.347,1.014,6.852,3.984,11.836,8.59,14.413a.093.093,0,0,0,.045.012" transform="translate(-517.499 -125.094)" fill="#b4a695"/>
                    <path id="Trazado_127319" data-name="Trazado 127319" d="M567.477,122.1a.094.094,0,0,0,.068-.029.093.093,0,0,0,0-.132,16.259,16.259,0,0,1-3.529-5.44.093.093,0,0,0-.174.066,16.461,16.461,0,0,0,3.575,5.51.093.093,0,0,0,.064.025" transform="translate(-548.45 -97.294)" fill="#b4a695"/>
                    <path id="Trazado_127320" data-name="Trazado 127320" d="M486.053,170.349a.094.094,0,0,0,.045-.012c2.488-1.375,5.834-4.633,7.643-12.348.045-.193.085-.362.1-.411l.01-.015a.093.093,0,0,0-.008-.1c-.949-1.209-4.268-1.8-4.409-1.82a.093.093,0,1,0-.032.184c.033.006,3.3.584,4.258,1.708-.025.076-.054.2-.1.415-1.793,7.648-5.1,10.871-7.551,12.228a.093.093,0,0,0,.045.175" transform="translate(-461.941 -130.048)" fill="#b4a695"/>
                    <path id="Trazado_127321" data-name="Trazado 127321" d="M483.42,141.557l.024,0c.057-.015,1.407-.394,3.069-3.293a.093.093,0,0,0-.162-.093c-1.615,2.817-2.941,3.2-2.954,3.205a.093.093,0,0,0,.024.183" transform="translate(-454.167 -115.41)" fill="#b4a695"/>
                    <g id="Grupo_134104" data-name="Grupo 134104" transform="translate(6.236 56.147)" style="mix-blend-mode: multiply;isolation: isolate">
                      <g id="Grupo_134103" data-name="Grupo 134103">
                        <g id="Grupo_134102" data-name="Grupo 134102" clip-path="url(#clip-path-3)">
                          <rect id="Rectángulo_35822" data-name="Rectángulo 35822" width="8.292" height="1.382" transform="matrix(-0.993, -0.121, 0.121, -0.993, 8.231, 2.376)" fill="#f8d9c7"/>
                        </g>
                      </g>
                    </g>
                    <g id="Grupo_134107" data-name="Grupo 134107" transform="translate(26.119 58.717)" style="mix-blend-mode: multiply;isolation: isolate">
                      <g id="Grupo_134106" data-name="Grupo 134106">
                        <g id="Grupo_134105" data-name="Grupo 134105" clip-path="url(#clip-path-4)">
                          <path id="Trazado_127322" data-name="Trazado 127322" d="M485.076,357.947l-6.972-.85-.15,1.227,7.022.857.1-1.233" transform="translate(-477.954 -357.097)" fill="#f8d9c7"/>
                        </g>
                      </g>
                    </g>
                    <path id="Trazado_127323" data-name="Trazado 127323" d="M479.436,17.7s1.1,3.06,6,4.549c.007-.063,2.105-4.578-4.65-6.356.02-.091-1.353,1.806-1.353,1.806" transform="translate(-452.755 -13.276)" fill="#453e37"/>
                    <path id="Trazado_127324" data-name="Trazado 127324" d="M407.641,167.494s9.732,10.754,8.1,22.118c-.333,1.441-2.017,7.389-7.435,2.5-2.358-2.728-4.942-7.256-6.272-7.031-.045-.655,2.582-4.9,2.582-4.9s2.055-11.147,3.025-12.687" transform="translate(-370.201 -139.953)" fill="#b1dbea"/>
                    <path id="Trazado_127325" data-name="Trazado 127325" d="M499.784,13.833a8.765,8.765,0,0,0-6.211.045,10.184,10.184,0,0,1,.987,1.291s5.077.826,5.123.956.1-2.292.1-2.292" transform="translate(-469.111 -11.088)" fill="#453e37"/>
                    <path id="Trazado_127326" data-name="Trazado 127326" d="M531.265,264.481a.093.093,0,0,0,.093-.089c.452-9.754,2.953-43.627,2.978-43.968a.093.093,0,1,0-.186-.014c-.025.341-2.526,34.217-2.978,43.973a.093.093,0,0,0,.089.1Z" transform="translate(-509.845 -184.096)" fill="#b4a695"/>
                    <rect id="Rectángulo_35825" data-name="Rectángulo 35825" width="2.815" height="7.193" transform="translate(40.838 34.999) rotate(-121.948)" fill="#453e37"/>
                    <g id="Grupo_134110" data-name="Grupo 134110" transform="translate(44.474 2.685)" opacity="0.51">
                      <g id="Grupo_134109" data-name="Grupo 134109">
                        <g id="Grupo_134108" data-name="Grupo 134108" clip-path="url(#clip-path-5)">
                          <path id="Trazado_127327" data-name="Trazado 127327" d="M197.041,43.394a17.7,17.7,0,1,1,24.39,5.654,17.723,17.723,0,0,1-24.39-5.654" transform="translate(-194.364 -16.327)" fill="#f8d9c7"/>
                        </g>
                      </g>
                    </g>
                    <path id="Trazado_127328" data-name="Trazado 127328" d="M209.2,37.677A20.381,20.381,0,1,1,215.714,9.6,20.381,20.381,0,0,1,209.2,37.677m-1.417-2.272a17.7,17.7,0,1,0-24.39-5.654,17.723,17.723,0,0,0,24.39,5.654" transform="translate(-136.248 0)" fill="#b15b00"/>
                    <path id="Trazado_127329" data-name="Trazado 127329" d="M416.77,209.506h0a2.7,2.7,0,0,1,.861-3.716l34.083-21.255,2.855,4.577-34.083,21.255a2.7,2.7,0,0,1-3.716-.861" transform="translate(-411.201 -154.192)" fill="#b15b00"/>
                    <path id="Trazado_127330" data-name="Trazado 127330" d="M456.045,247.26s-3.81,3.077-3.864,4.983c0,0,4.919-1.612,3.864-4.983" transform="translate(-418.714 -206.603)" fill="#453e37"/>
                    <path id="Trazado_127331" data-name="Trazado 127331" d="M459.773,226.211a6.042,6.042,0,0,0-.485-1.049c-.312-.771-1.969-1.759-2.019-1.8-3.243-1.221-3.793-2.022-3.85-2.389a.244.244,0,0,1,.213-.28,5.652,5.652,0,0,1,2.026.445c-4.315-1.942-2.988-2.878-2.928-2.862.385-.3,1.615-.026,2.788.337-1.133-.512-1.537-.925-1.66-1.208a.251.251,0,0,1,.313-.333,39.709,39.709,0,0,1,4.4,1.414c2.947,1.875,3.093,4,3.093,4Z" transform="translate(-424.24 -181.371)" fill="#ff9d6a"/>
                    <path id="Trazado_127332" data-name="Trazado 127332" d="M483.078,227.345a.093.093,0,0,0,.038-.178,50.531,50.531,0,0,0-4.849-1.7.093.093,0,0,0-.053.179,50.273,50.273,0,0,1,4.826,1.691.092.092,0,0,0,.038.008" transform="translate(-449.963 -188.39)" fill="#594329"/>
                    <path id="Trazado_127333" data-name="Trazado 127333" d="M479.942,226.613a.093.093,0,0,0,.034-.18c-1.006-.4-2-.691-2.006-.694a.093.093,0,1,0-.052.179c.01,0,.992.292,1.99.688a.094.094,0,0,0,.034.007" transform="translate(-446.778 -188.618)" fill="#594329"/>
                    <path id="Trazado_127334" data-name="Trazado 127334" d="M482.633,241.926a.093.093,0,0,0,.033-.18l-1.165-.438a.093.093,0,0,0-.066.174l1.165.438a.1.1,0,0,0,.033.006" transform="translate(-450.049 -201.624)" fill="#594329"/>
                    <path id="Trazado_127335" data-name="Trazado 127335" d="M406.827,247.26c3.6,1.771,7.268,4.6,7.291,4.994l.032-.043c.019.046.039.091.058.136q.178.44.328.891.143.435.257.879c.042.165.077.332.116.5l.005.022c.071.454.125.908.154,1.366l-2.3,2.736c-1.192,1.415-3.254.672-4.506-.69-2.732-2.972-5.364-5.728-5.3-5.8a14.4,14.4,0,0,0,3.864-4.983" transform="translate(-369.496 -206.603)" fill="#b1dbea"/>
                    <path id="Trazado_127336" data-name="Trazado 127336" d="M419.436,251.073a.093.093,0,0,0,.06-.164,32.586,32.586,0,0,0-4.825-3.287c-.6-.343-1.162-.643-1.722-.919a.093.093,0,1,0-.082.167c.556.273,1.116.572,1.711.913a32.4,32.4,0,0,1,4.8,3.268.092.092,0,0,0,.06.022" transform="translate(-375.577 -206.13)" fill="#b4a695"/>
                    <path id="Trazado_127337" data-name="Trazado 127337" d="M572.221,246.953s.21,4.893-1.185,6.193c0,0-2.042-4.756,1.185-6.193" transform="translate(-554.192 -206.347)" fill="#453e37"/>
                    <path id="Trazado_127338" data-name="Trazado 127338" d="M518.9,244.888s1.691-1.3,5.046-.323a39.754,39.754,0,0,1,3.97,2.368.251.251,0,0,1-.043.455,3.114,3.114,0,0,1-2-.448c1.047.641,2.065,1.384,2.1,1.87.051.034.227,1.649-4.083-.306a5.652,5.652,0,0,1,1.673,1.227.244.244,0,0,1-.069.345c-.313.2-1.278.316-4.337-1.31a6.371,6.371,0,0,0-2.682-.327,6.042,6.042,0,0,0-1.107.33Z" transform="translate(-501.286 -204.048)" fill="#ff9d6a"/>
                    <path id="Trazado_127339" data-name="Trazado 127339" d="M522.143,261.1a.093.093,0,0,0,.05-.172,50.429,50.429,0,0,0-4.481-2.515.093.093,0,1,0-.078.169,50.307,50.307,0,0,1,4.459,2.5.093.093,0,0,0,.05.014" transform="translate(-495.511 -215.915)" fill="#594329"/>
                    <path id="Trazado_127340" data-name="Trazado 127340" d="M531.325,255.552a.093.093,0,0,0,.05-.172c-.009-.006-.882-.557-1.847-1.047a.093.093,0,1,0-.085.166c.957.487,1.823,1.033,1.832,1.038a.093.093,0,0,0,.05.014" transform="translate(-506.636 -212.505)" fill="#594329"/>
                    <path id="Trazado_127341" data-name="Trazado 127341" d="M543.285,267.01a.093.093,0,0,0,.044-.175l-1.1-.585a.093.093,0,1,0-.088.164l1.1.585a.092.092,0,0,0,.044.011" transform="translate(-520.684 -222.461)" fill="#594329"/>
                    <path id="Trazado_127342" data-name="Trazado 127342" d="M575.468,152.23a51.088,51.088,0,0,0,11.842-.211,14.4,14.4,0,0,1,1.185-6.193c-3.709-1.532-8.255-2.414-8.567-2.17,1.677-7.587,4.094-12.878,2.92-13.162l-2.3-4.568c-11.124,4.19-11.532,21.751-8.391,24.856a5.665,5.665,0,0,0,3.309,1.449" transform="translate(-570.466 -105.218)" fill="#b1dbea"/>
                    <path id="Trazado_127343" data-name="Trazado 127343" d="M580.966,284.7c1.359,0,2.572-.05,3.382-.095.946-.052,1.868-.125,2.6-.2,1.091-.119,1.1-.165,1.107-.248a.093.093,0,0,0-.155-.08,51.223,51.223,0,0,1-10.69.285.093.093,0,0,0-.017.186c1.254.118,2.573.157,3.777.157m6.9-.57h0Z" transform="translate(-571.115 -237.346)" fill="#b4a695"/>
                    <path id="Trazado_127344" data-name="Trazado 127344" d="M578.56,188.164a.093.093,0,0,0,.036-.179,30.157,30.157,0,0,0-8.481-2.2,30.821,30.821,0,0,0,.392-9.213.092.092,0,0,0-.1-.084.093.093,0,0,0-.084.1,30.453,30.453,0,0,1-.419,9.3.093.093,0,0,0,.148.094c.3-.18,4.693.621,8.474,2.183a.094.094,0,0,0,.036.007" transform="translate(-560.531 -147.465)" fill="#b4a695"/>
                    <path id="Trazado_127345" data-name="Trazado 127345" d="M622.092,235.235a.093.093,0,0,0,.075-.037,7.64,7.64,0,0,1,3.152-1.828.093.093,0,1,0-.054-.178,7.657,7.657,0,0,0-3.247,1.895.093.093,0,0,0,.074.149" transform="translate(-615.829 -194.845)" fill="#b4a695"/>
                    <g id="Grupo_134113" data-name="Grupo 134113" transform="translate(57.833 20.332)" opacity="0.51">
                      <g id="Grupo_134112" data-name="Grupo 134112">
                        <g id="Grupo_134111" data-name="Grupo 134111" clip-path="url(#clip-path-6)">
                          <path id="Trazado_127346" data-name="Trazado 127346" d="M64.847,246.469H30.717a8.071,8.071,0,0,1-8.072-8.072V123.655H72.919V238.4a8.072,8.072,0,0,1-8.072,8.072" transform="translate(-22.645 -123.655)" fill="#e6eff2"/>
                        </g>
                      </g>
                    </g>
                    <path id="Trazado_127347" data-name="Trazado 127347" d="M72.371,226.292a14.367,14.367,0,0,0-5.995,4.183c-1.795,1.921-3.332,4.061-5.078,6.024a16.7,16.7,0,0,1-6.192,4.665,12.811,12.811,0,0,1-8.666.01c-2.817-.947-5.256-2.651-7.927-3.908a13.057,13.057,0,0,0-8.649-.918,13.426,13.426,0,0,0-7.218,4.781v82.9a8.071,8.071,0,0,0,8.071,8.072H64.848a8.071,8.071,0,0,0,8.072-8.072V226.132c-.183.049-.366.1-.549.16" transform="translate(35.187 -188.949)" fill="#d3f9ee"/>
                    <path id="Trazado_127348" data-name="Trazado 127348" d="M55.753,100.609H2.14a2.14,2.14,0,1,1,0-4.281H55.753a2.14,2.14,0,1,1,0,4.281" transform="translate(53.937 -80.489)" fill="#b1dbea"/>
                    <path id="Trazado_127349" data-name="Trazado 127349" d="M41.22,789.371q.412,0,.823-.009a.32.32,0,0,0-.013-.64,39.059,39.059,0,0,1-4.79-.2.32.32,0,0,0-.065.637,39.7,39.7,0,0,0,4.046.207" transform="translate(63.41 -658.869)" fill="#5c824f"/>
                    <path id="Trazado_127350" data-name="Trazado 127350" d="M41.422,747.868a.32.32,0,0,0,.135-.03l4.518-2.1a.32.32,0,0,0-.27-.58l-4.518,2.1a.32.32,0,0,0,.135.61" transform="translate(58.813 -622.607)" fill="#5c824f"/>
                    <path id="Trazado_127351" data-name="Trazado 127351" d="M65.592,715.23a.318.318,0,0,0,.207-.076l2.844-2.421a.32.32,0,1,0-.415-.487l-2.844,2.42a.32.32,0,0,0,.208.564" transform="translate(32.343 -595.068)" fill="#5c824f"/>
                    <path id="Trazado_127352" data-name="Trazado 127352" d="M87.942,684.271a.319.319,0,0,0,.179-.055,9.537,9.537,0,0,0,3.128-3.537.32.32,0,1,0-.57-.292,8.9,8.9,0,0,1-2.917,3.3.32.32,0,0,0,.18.585" transform="translate(6.139 -568.366)" fill="#5c824f"/>
                    <path id="Trazado_127353" data-name="Trazado 127353" d="M105.473,657.5a.32.32,0,0,0,.273-.152l3.311-5.355a.32.32,0,1,0-.544-.337l-3.311,5.355a.32.32,0,0,0,.272.488" transform="translate(-14.565 -544.374)" fill="#5c824f"/>
                    <path id="Trazado_127354" data-name="Trazado 127354" d="M127.7,643.039a.319.319,0,0,0,.221-.089,17.689,17.689,0,0,0,3.233-4.17.32.32,0,0,0-.558-.313,17.058,17.058,0,0,1-3.116,4.019.32.32,0,0,0,.221.552" transform="translate(-40.305 -533.349)" fill="#5c824f"/>
                    <path id="Trazado_127355" data-name="Trazado 127355" d="M152.256,627.011a.318.318,0,0,0,.178-.054l3.323-2.231a.32.32,0,1,0-.357-.531l-3.323,2.231a.32.32,0,0,0,.179.586" transform="translate(-69.051 -521.513)" fill="#5c824f"/>
                    <path id="Trazado_127356" data-name="Trazado 127356" d="M161.8,587.094a.318.318,0,0,0,.164-.045l4.943-2.954a.32.32,0,0,0-.328-.549l-4.943,2.954a.32.32,0,0,0,.164.595" transform="translate(-81.788 -487.555)" fill="#5c824f"/>
                    <path id="Trazado_127357" data-name="Trazado 127357" d="M168.755,551.91a.32.32,0,0,0,.219-.087c.552-.519,1.551-1.652,2.609-2.85,1-1.135,2.037-2.309,2.567-2.808a.32.32,0,1,0-.438-.466c-.552.519-1.551,1.652-2.609,2.85-1,1.135-2.037,2.309-2.567,2.808a.32.32,0,0,0,.219.553" transform="translate(-90.116 -455.898)" fill="#5c824f"/>
                    <path id="Trazado_127358" data-name="Trazado 127358" d="M210.416,528.565a.32.32,0,0,0,.316-.273,69.73,69.73,0,0,0,.692-7.1.32.32,0,1,0-.639-.029,69.1,69.1,0,0,1-.686,7.036.32.32,0,0,0,.269.364.323.323,0,0,0,.048,0" transform="translate(-134.14 -435.211)" fill="#5c824f"/>
                    <path id="Trazado_127359" data-name="Trazado 127359" d="M232.351,537.97a.32.32,0,0,0,.313-.389c-.29-1.317-.629-2.643-1.008-3.94a.32.32,0,0,0-.614.18c.375,1.283.711,2.595,1,3.9a.32.32,0,0,0,.312.251" transform="translate(-158.829 -445.702)" fill="#5c824f"/>
                    <path id="Trazado_127360" data-name="Trazado 127360" d="M259.467,561.216a.32.32,0,0,0,.194-.575c-1.2-.91-2.4-1.855-3.561-2.811a.32.32,0,0,0-.406.495c1.172.961,2.376,1.911,3.58,2.826a.32.32,0,0,0,.193.065" transform="translate(-189.981 -466.046)" fill="#5c824f"/>
                    <path id="Trazado_127361" data-name="Trazado 127361" d="M276.193,582.156a.32.32,0,0,0,.039-.638,12.115,12.115,0,0,1-2.964-1.234c-1.537-.774-3.127-1.574-4.254-1.575h0a.32.32,0,0,0,0,.64,11.759,11.759,0,0,1,3.967,1.507,12.262,12.262,0,0,0,3.172,1.3l.04,0" transform="translate(-208.863 -483.552)" fill="#5c824f"/>
                    <path id="Trazado_127362" data-name="Trazado 127362" d="M95.086,821.336a.315.315,0,0,0,.094-.014.32.32,0,0,0,.212-.4,10.673,10.673,0,0,1-.457-3.737.32.32,0,1,0-.639-.035,11.313,11.313,0,0,0,.484,3.96.32.32,0,0,0,.306.226" transform="translate(0.923 -682.533)" fill="#5c824f"/>
                    <path id="Trazado_127363" data-name="Trazado 127363" d="M122.457,823.205a.32.32,0,0,0,.312-.249,21.246,21.246,0,0,1,1.444-4.235.32.32,0,0,0-.581-.269,21.878,21.878,0,0,0-1.487,4.363.32.32,0,0,0,.312.391" transform="translate(-32.495 -683.719)" fill="#5c824f"/>
                    <path id="Trazado_127364" data-name="Trazado 127364" d="M145.375,813.242a.319.319,0,0,0,.259-.133l3.153-4.355a.32.32,0,1,0-.518-.375l-3.153,4.356a.32.32,0,0,0,.259.508" transform="translate(-60.87 -675.346)" fill="#5c824f"/>
                    <path id="Trazado_127365" data-name="Trazado 127365" d="M168.387,797.723a.319.319,0,0,0,.233-.1,37,37,0,0,1,2.7-2.585.32.32,0,1,0-.419-.484,37.484,37.484,0,0,0-2.743,2.63.32.32,0,0,0,.233.539" transform="translate(-87.232 -663.84)" fill="#5c824f"/>
                    <path id="Trazado_127366" data-name="Trazado 127366" d="M191.5,776.639a.319.319,0,0,0,.171-.05l5.135-3.256a.32.32,0,0,0-.343-.541l-5.135,3.256a.32.32,0,0,0,.172.59" transform="translate(-116.562 -645.681)" fill="#5c824f"/>
                    <path id="Trazado_127367" data-name="Trazado 127367" d="M218.154,750.469a.32.32,0,0,0,.167-.047,18.088,18.088,0,0,0,3.346-2.635.32.32,0,0,0-.453-.452,17.443,17.443,0,0,1-3.227,2.542.32.32,0,0,0,.167.593" transform="translate(-145.749 -624.372)" fill="#5c824f"/>
                    <path id="Trazado_127368" data-name="Trazado 127368" d="M234.35,729.652a.319.319,0,0,0,.117-.022,11.745,11.745,0,0,0,2.6-1.427.32.32,0,0,0-.376-.518,11.1,11.1,0,0,1-2.46,1.349.32.32,0,0,0,.117.618" transform="translate(-163.852 -607.981)" fill="#5c824f"/>
                    <path id="Trazado_127369" data-name="Trazado 127369" d="M246.87,710.137a.318.318,0,0,0,.116-.022,24.241,24.241,0,0,0,5.288-2.85.32.32,0,0,0-.371-.521,23.6,23.6,0,0,1-5.148,2.775.32.32,0,0,0,.116.618" transform="translate(-181.117 -590.485)" fill="#5c824f"/>
                    <path id="Trazado_127370" data-name="Trazado 127370" d="M256.474,690.55h.006a10.727,10.727,0,0,0,4.856-1.266.32.32,0,0,0-.3-.564,10.082,10.082,0,0,1-4.565,1.191.32.32,0,0,0,.006.64" transform="translate(-191.794 -575.442)" fill="#5c824f"/>
                    <path id="Trazado_127371" data-name="Trazado 127371" d="M268.168,669.141a.325.325,0,0,0,.105-.018l4.031-1.4a.32.32,0,1,0-.21-.6l-4.031,1.4a.32.32,0,0,0,.105.622" transform="translate(-204.731 -557.41)" fill="#5c824f"/>
                    <path id="Trazado_127372" data-name="Trazado 127372" d="M275.812,648.756a.314.314,0,0,0,.086-.012,23.081,23.081,0,0,0,3.579-1.333.32.32,0,0,0-.272-.579,22.471,22.471,0,0,1-3.48,1.3.32.32,0,0,0,.086.628" transform="translate(-213.13 -540.448)" fill="#5c824f"/>
                    <path id="Trazado_127373" data-name="Trazado 127373" d="M55.438,804.447a.32.32,0,0,0,.138-.609,20.958,20.958,0,0,1-3.5-2.109.32.32,0,1,0-.382.513,21.589,21.589,0,0,0,3.609,2.174.321.321,0,0,0,.137.031" transform="translate(47.594 -669.848)" fill="#5c824f"/>
                    <path id="Trazado_127374" data-name="Trazado 127374" d="M75.016,815.869a.32.32,0,0,0,.272-.488,20.4,20.4,0,0,1-1.793-3.692.32.32,0,0,0-.6.22,21.045,21.045,0,0,0,1.849,3.808.32.32,0,0,0,.273.152" transform="translate(24.513 -678.048)" fill="#5c824f"/>
                    <path id="Trazado_127375" data-name="Trazado 127375" d="M279.554,624.466a.32.32,0,0,0,.023-.639l-4.914-.368a.32.32,0,1,0-.048.638l4.914.368h.024" transform="translate(-213.149 -520.944)" fill="#5c824f"/>
                    <path id="Trazado_127376" data-name="Trazado 127376" d="M98.211,586.836a29.124,29.124,0,0,0-4.1-5.4c-2.014-2.092-4.328-3.869-6.433-5.87A41.4,41.4,0,0,1,78.2,561.953c-.732-1.7-1.484-3.609-3.144-4.436a5.021,5.021,0,0,0-3.354-.246c-3.8.882-6.505,4.553-7.161,8.4s.413,7.792,2.009,11.35a78.241,78.241,0,0,0,4.945,8.875c2.192,3.561,12.069,15.045,20.521,15.393,8.772.361,9.784-8.367,6.2-14.45" transform="translate(1.099 -465.496)" fill="#5c824f"/>
                    <path id="Trazado_127377" data-name="Trazado 127377" d="M81.341,570.872a8.772,8.772,0,0,0-3.859,5.993c-.5,2.919.108,6.229,1.853,10.118a76.957,76.957,0,0,0,4.816,8.63c2.366,3.845,11.728,14.089,18.793,14.379a6.6,6.6,0,0,0,3.686-.755,5.039,5.039,0,0,0,2.214-4.176,11.34,11.34,0,0,0-1.627-6.3,26.972,26.972,0,0,0-3.8-5c-1.116-1.159-2.33-2.216-3.615-3.335-.908-.791-1.847-1.609-2.751-2.468a43.758,43.758,0,0,1-9.97-14.317l-.1-.241c-.566-1.322-1.151-2.689-2.031-3.127a2.956,2.956,0,0,0-1.921-.078,5.86,5.86,0,0,0-1.682.685" transform="translate(-9.742 -476.332)" fill="#83c07f"/>
                    <path id="Trazado_127378" data-name="Trazado 127378" d="M97.721,738.493a7.6,7.6,0,0,1-3.055-1.226,12.887,12.887,0,0,1-5.285-6.928c-.419-1.339-.549-2.974.429-3.979a3,3,0,0,1,2.5-.768,6.679,6.679,0,0,1,2.513.954,17.812,17.812,0,0,1,5.7,5.236,7.253,7.253,0,0,1,1.33,2.911c.416,2.571-1.7,4.122-4.124,3.8" transform="translate(-4.712 -606.263)" fill="#fff"/>
                    <path id="Trazado_127379" data-name="Trazado 127379" d="M210.853,608.473a5.514,5.514,0,0,1-1.742-1.633,9.347,9.347,0,0,1-1.748-6.074,2.91,2.91,0,0,1,1.338-2.576,2.179,2.179,0,0,1,1.89.138,4.844,4.844,0,0,1,1.447,1.306,12.92,12.92,0,0,1,2.471,5.039,5.262,5.262,0,0,1,.132,2.318c-.4,1.847-2.236,2.338-3.788,1.482" transform="translate(-136.982 -499.698)" fill="#fff"/>
                    <path id="Trazado_127380" data-name="Trazado 127380" d="M231.288,608.333a1.521,1.521,0,1,0-.525,2.086,1.521,1.521,0,0,0,.525-2.086" transform="translate(-157.239 -507.686)" fill="#5c824f"/>
                    <path id="Trazado_127381" data-name="Trazado 127381" d="M104.789,772.5a2.011,2.011,0,1,0-.695,2.758,2.011,2.011,0,0,0,.695-2.758" transform="translate(-9.859 -644.659)" fill="#5c824f"/>
                    <path id="Trazado_127382" data-name="Trazado 127382" d="M75.852,401.54a7.037,7.037,0,0,0-1.662,1.666,6.884,6.884,0,0,0-.911,2.056,10.045,10.045,0,0,0,.912,7.508,8.172,8.172,0,0,0,1.8,2.256c2.214,1.892,5.419,2.245,8.4,2.328a14.567,14.567,0,0,0,6.285-.841,8.286,8.286,0,0,0,4.712-6.176,10.257,10.257,0,0,0-1.94-7.53,8.529,8.529,0,0,0-7.5-3.743c-3.521-.04-7.223.36-10.093,2.477" transform="translate(4.335 -333.443)" fill="#5c824f"/>
                    <path id="Trazado_127383" data-name="Trazado 127383" d="M95,412.014a7.017,7.017,0,0,0-2.169,2.341c-1.186,2.242-.693,6.072,1.323,7.764,1.55,1.3,3.8,1.455,5.867,1.482a11.361,11.361,0,0,0,3.492-.336,6.708,6.708,0,0,0,4.18-4.106c1.427-3.854-.185-7.939-4.62-8.98a10.139,10.139,0,0,0-7.818,1.659c-.085.058-.17.117-.254.177" transform="translate(-11.525 -342.549)" fill="#83c07f"/>
                    <path id="Trazado_127384" data-name="Trazado 127384" d="M118.261,423.86a4.679,4.679,0,0,0-1.438,1.652,2.4,2.4,0,0,0-.041,2.094,3.317,3.317,0,0,0,2.827,1.463,6.285,6.285,0,0,0,5.187-2.163,3.447,3.447,0,0,0,.839-2.807c-.731-3.43-5.594-1.6-7.374-.238" transform="translate(-33.026 -352.724)" fill="#fff"/>
                    <path id="Trazado_127385" data-name="Trazado 127385" d="M136.123,377.2h.03a.317.317,0,0,0,.287-.345l-.441-4.78a.317.317,0,1,0-.632.058l.441,4.78a.317.317,0,0,0,.315.288" transform="translate(-46.868 -310.656)" fill="#5c824f"/>
                    <path id="Trazado_127386" data-name="Trazado 127386" d="M161.284,386.7a.317.317,0,0,0,.244-.519l-2.961-3.576a.317.317,0,0,0-.489.4l2.961,3.576a.316.316,0,0,0,.244.115" transform="translate(-75.751 -319.598)" fill="#5c824f"/>
                    <path id="Trazado_127387" data-name="Trazado 127387" d="M188.362,405.118a.317.317,0,0,0,.151-.6,26.154,26.154,0,0,0-4.953-2.052.317.317,0,1,0-.182.608,25.5,25.5,0,0,1,4.832,2,.315.315,0,0,0,.151.038" transform="translate(-106.965 -336.28)" fill="#5c824f"/>
                    <path id="Trazado_127388" data-name="Trazado 127388" d="M204.568,427.38a.317.317,0,0,0,.052-.63,37.488,37.488,0,0,0-6.15-.517h0a.317.317,0,0,0,0,.634,36.8,36.8,0,0,1,6.046.508.34.34,0,0,0,.053,0" transform="translate(-125.636 -356.148)" fill="#5c824f"/>
                    <path id="Trazado_127389" data-name="Trazado 127389" d="M202.066,451.879a.32.32,0,0,0,.068-.007,17.457,17.457,0,0,1,5.572-.3.317.317,0,0,0,.067-.631,18.088,18.088,0,0,0-5.774.314.317.317,0,0,0,.067.627" transform="translate(-129.399 -376.705)" fill="#5c824f"/>
                    <path id="Trazado_127390" data-name="Trazado 127390" d="M196.4,476.85a.315.315,0,0,0,.208-.078,13.318,13.318,0,0,1,4.872-2.679.317.317,0,0,0-.183-.607,13.957,13.957,0,0,0-5.106,2.808.317.317,0,0,0,.208.556" transform="translate(-122.118 -395.619)" fill="#5c824f"/>
                    <path id="Trazado_127391" data-name="Trazado 127391" d="M183.35,494.526a.317.317,0,0,0,.271-.152l1.916-3.14a.317.317,0,0,0-.541-.33l-1.916,3.14a.317.317,0,0,0,.27.482" transform="translate(-103.849 -410.058)" fill="#5c824f"/>
                    <path id="Trazado_127392" data-name="Trazado 127392" d="M154.946,503.194a.317.317,0,0,0,.292-.193l1.489-3.484a1.338,1.338,0,0,0,.1-1.112.317.317,0,0,0-.572.275c.069.144-.021.379-.11.588l-1.489,3.484a.317.317,0,0,0,.292.442" transform="translate(-70.508 -416.302)" fill="#5c824f"/>
                    <path id="Trazado_127393" data-name="Trazado 127393" d="M124.636,507.626l.043,0a.317.317,0,0,0,.272-.357L124.4,503.2a.317.317,0,0,0-.629.085l.549,4.062a.317.317,0,0,0,.314.275" transform="translate(-33.475 -420.233)" fill="#5c824f"/>
                    <path id="Trazado_127394" data-name="Trazado 127394" d="M83.54,499.489a.317.317,0,0,0,.2-.562,19.468,19.468,0,0,1-2.954-3.033.317.317,0,1,0-.5.39,20.1,20.1,0,0,0,3.051,3.132.317.317,0,0,0,.2.073" transform="translate(14.783 -414.252)" fill="#5c824f"/>
                    <path id="Trazado_127395" data-name="Trazado 127395" d="M61.2,481.1a.317.317,0,0,0,.013-.634,28.206,28.206,0,0,1-3.924-.438.317.317,0,0,0-.114.624,28.822,28.822,0,0,0,4.013.447H61.2" transform="translate(40.958 -401.091)" fill="#5c824f"/>
                    <path id="Trazado_127396" data-name="Trazado 127396" d="M54.187,447.444a.319.319,0,0,0,.089-.013,18.851,18.851,0,0,0,3.767-1.563.317.317,0,0,0-.306-.556,18.2,18.2,0,0,1-3.64,1.511.317.317,0,0,0,.089.621" transform="translate(44.765 -372.057)" fill="#5c824f"/>
                    <path id="Trazado_127397" data-name="Trazado 127397" d="M54.376,420.346a.314.314,0,0,0,.132-.029l4.428-2.029a.317.317,0,1,0-.264-.576l-4.428,2.029a.317.317,0,0,0,.132.605" transform="translate(43.82 -349.003)" fill="#5c824f"/>
                    <path id="Trazado_127398" data-name="Trazado 127398" d="M89.707,397.037a.315.315,0,0,0,.205-.076,16.147,16.147,0,0,0,2.5-2.658.317.317,0,0,0-.509-.379,15.5,15.5,0,0,1-2.4,2.553.317.317,0,0,0,.206.559" transform="translate(4.662 -329.045)" fill="#5c824f"/>
                    <path id="Trazado_127399" data-name="Trazado 127399" d="M108.368,389.5a.317.317,0,0,0,.273-.155l1.816-3.05a.317.317,0,1,0-.545-.325l-1.816,3.05a.317.317,0,0,0,.272.479" transform="translate(-16.438 -322.38)" fill="#5c824f"/>
                    <path id="Trazado_127400" data-name="Trazado 127400" d="M141.582,437.612a1.476,1.476,0,1,1-1.474-1.4,1.437,1.437,0,0,1,1.474,1.4" transform="translate(-52.548 -364.488)" fill="#5c824f"/>
                    <path id="Trazado_127401" data-name="Trazado 127401" d="M270.344,353.155a.74.74,0,0,0,.376-1.378,4.134,4.134,0,0,1-.463-6.81.74.74,0,1,0-.916-1.162,5.613,5.613,0,0,0,.629,9.247.738.738,0,0,0,.374.1" transform="translate(-203.191 -287.141)" fill="#fff"/>
                    <path id="Trazado_127402" data-name="Trazado 127402" d="M59.508,545.209a.757.757,0,0,0,.156-.016,5.278,5.278,0,0,0,3.539-7.668.74.74,0,0,0-1.3.7,3.8,3.8,0,0,1-2.547,5.518.74.74,0,0,0,.154,1.464" transform="translate(38.342 -448.814)" fill="#fff"/>
                    <path id="Trazado_127403" data-name="Trazado 127403" d="M54.3,344.167a.738.738,0,0,0,.57-.267,3.2,3.2,0,0,1,4.254-.45.74.74,0,1,0,.916-1.163,4.691,4.691,0,0,0-6.308.668.74.74,0,0,0,.569,1.213" transform="translate(42.707 -285.235)" fill="#fff"/>
                    <path id="Trazado_127404" data-name="Trazado 127404" d="M273.629,489.238a.74.74,0,0,0,.634-.357,5.974,5.974,0,0,0,.813-1.772,2.519,2.519,0,0,0-.525-2.283c-.818-.878-2.132-.927-3.9-.146a.74.74,0,1,0,.6,1.354c.78-.344,1.8-.657,2.225-.2a1.089,1.089,0,0,1,.164.949,4.784,4.784,0,0,1-.635,1.33.74.74,0,0,0,.632,1.123" transform="translate(-207.749 -404.524)" fill="#fff"/>
                    <path id="Trazado_127405" data-name="Trazado 127405" d="M252.749,788.625a4.747,4.747,0,0,0,1.464-.227.74.74,0,0,0-.456-1.408,3.891,3.891,0,0,1-4.707-2.5.74.74,0,0,0-1.422.411,5.188,5.188,0,0,0,2.586,3.077,5.429,5.429,0,0,0,2.534.644" transform="translate(-183.607 -655.052)" fill="#fff"/>
                    <path id="Trazado_127406" data-name="Trazado 127406" d="M53.094,633.5a.74.74,0,0,0,.7-.514,2.211,2.211,0,0,1,2.917-1.224.74.74,0,0,0,.664-1.323,3.686,3.686,0,0,0-4.991,2.093.741.741,0,0,0,.7.967" transform="translate(45.434 -526.491)" fill="#fff"/>
                    <path id="Trazado_127407" data-name="Trazado 127407" d="M122.156,570.371a.74.74,0,0,0,.019-1.48,2.475,2.475,0,0,1-2.3-2.349.74.74,0,0,0-.74-.736h0a.74.74,0,0,0-.736.744,3.972,3.972,0,0,0,3.746,3.82h.019" transform="translate(-30.533 -472.771)" fill="#fff"/>
                    <path id="Trazado_127408" data-name="Trazado 127408" d="M191.4,364.6a.74.74,0,0,0,.681-1.028.906.906,0,0,1,1.4-1.057.74.74,0,1,0,.93-1.151,2.386,2.386,0,0,0-3.7,2.784.74.74,0,0,0,.682.452" transform="translate(-114.191 -301.512)" fill="#fff"/>
                  </g>
                </g>
              </g>
            </g>
            <g id="Grupo_134126" data-name="Grupo 134126" transform="translate(136.388 6.612)">
              <g id="Grupo_134125" data-name="Grupo 134125" clip-path="url(#clip-path-7)">
                <g id="Grupo_134122" data-name="Grupo 134122">
                  <g id="Grupo_134121" data-name="Grupo 134121" clip-path="url(#clip-path-7)">
                    <g id="Grupo_134120" data-name="Grupo 134120" transform="translate(0 1.867)" opacity="0.51">
                      <g id="Grupo_134119" data-name="Grupo 134119">
                        <g id="Grupo_134118" data-name="Grupo 134118" clip-path="url(#clip-path-9)">
                          <path id="Trazado_127461" data-name="Trazado 127461" d="M0,0H60.759V134.842H0Z" fill="#d3f9ee"/>
                        </g>
                      </g>
                    </g>
                  </g>
                </g>
                <rect id="Rectángulo_35833" data-name="Rectángulo 35833" width="60.759" height="4.809" transform="translate(0 0)" fill="#453e37"/>
                <rect id="Rectángulo_35834" data-name="Rectángulo 35834" width="60.759" height="4.809" transform="translate(0 131.899)" fill="#453e37"/>
                <rect id="Rectángulo_35835" data-name="Rectángulo 35835" width="60.759" height="1.707" transform="translate(0 4.809)" fill="#fff"/>
                <rect id="Rectángulo_35836" data-name="Rectángulo 35836" width="60.759" height="1.707" transform="translate(0 131.046)" fill="#fff"/>
                <g id="Grupo_134124" data-name="Grupo 134124">
                  <g id="Grupo_134123" data-name="Grupo 134123" clip-path="url(#clip-path-7)">
                    <path id="Trazado_127409" data-name="Trazado 127409" d="M50.138,156.9a3.089,3.089,0,1,1-3.089-3.089,3.089,3.089,0,0,1,3.089,3.089" transform="translate(-37.249 -130.332)" fill="#fff"/>
                    <path id="Trazado_127410" data-name="Trazado 127410" d="M346.254,195.514a2.637,2.637,0,1,1-2.637-2.637,2.637,2.637,0,0,1,2.637,2.637" transform="translate(-288.929 -163.434)" fill="#fff"/>
                    <path id="Trazado_127411" data-name="Trazado 127411" d="M126.844,118.379a1.834,1.834,0,1,1-1.834-1.834,1.834,1.834,0,0,1,1.834,1.834" transform="translate(-104.373 -98.754)" fill="#fff"/>
                    <path id="Trazado_127412" data-name="Trazado 127412" d="M309.451,137.967a1.834,1.834,0,1,1-1.834-1.834,1.834,1.834,0,0,1,1.834,1.834" transform="translate(-259.104 -115.352)" fill="#fff"/>
                    <path id="Trazado_127413" data-name="Trazado 127413" d="M190.663,78.888a1.834,1.834,0,1,1-1.834-1.834,1.834,1.834,0,0,1,1.834,1.834" transform="translate(-158.449 -65.291)" fill="#fff"/>
                    <path id="Trazado_127414" data-name="Trazado 127414" d="M246.714,99.245a1.275,1.275,0,1,1-1.275-1.275,1.275,1.275,0,0,1,1.275,1.275" transform="translate(-206.891 -83.014)" fill="#fff"/>
                    <path id="Trazado_127415" data-name="Trazado 127415" d="M38.158,257.436a1.275,1.275,0,1,1-1.275-1.275,1.275,1.275,0,0,1,1.275,1.275" transform="translate(-30.172 -217.057)" fill="#fff"/>
                    <path id="Trazado_127416" data-name="Trazado 127416" d="M352.452,83.312a1.275,1.275,0,1,1-1.275-1.275,1.275,1.275,0,0,1,1.275,1.275" transform="translate(-296.488 -69.514)" fill="#fff"/>
                    <path id="Trazado_127417" data-name="Trazado 127417" d="M73.3,80.151a1.275,1.275,0,1,1-1.275-1.275A1.275,1.275,0,0,1,73.3,80.151" transform="translate(-59.951 -66.835)" fill="#fff"/>
                    <path id="Trazado_127418" data-name="Trazado 127418" d="M153.848,165.724a1.275,1.275,0,1,1-1.275-1.275,1.275,1.275,0,0,1,1.275,1.275" transform="translate(-128.202 -139.345)" fill="#fff"/>
                    <path id="Trazado_127419" data-name="Trazado 127419" d="M133.143,794.6a3.089,3.089,0,1,1-3.089-3.089,3.089,3.089,0,0,1,3.089,3.089" transform="translate(-107.583 -670.68)" fill="#fff"/>
                    <path id="Trazado_127420" data-name="Trazado 127420" d="M326.923,720.815a3.089,3.089,0,1,1-3.089-3.089,3.089,3.089,0,0,1,3.089,3.089" transform="translate(-271.782 -608.162)" fill="#fff"/>
                    <path id="Trazado_127421" data-name="Trazado 127421" d="M43.968,663.51a1.834,1.834,0,1,1-1.834-1.834,1.834,1.834,0,0,1,1.834,1.834" transform="translate(-34.148 -560.668)" fill="#fff"/>
                    <path id="Trazado_127422" data-name="Trazado 127422" d="M187.024,750.057a1.834,1.834,0,1,1-1.834-1.834,1.834,1.834,0,0,1,1.834,1.834" transform="translate(-155.366 -634.004)" fill="#fff"/>
                    <path id="Trazado_127423" data-name="Trazado 127423" d="M344.1,659.888a1.275,1.275,0,1,1-1.275-1.275,1.275,1.275,0,0,1,1.275,1.275" transform="translate(-289.411 -558.073)" fill="#fff"/>
                    <path id="Trazado_127424" data-name="Trazado 127424" d="M86.218,730.885a1.275,1.275,0,1,1-1.275-1.275,1.275,1.275,0,0,1,1.275,1.275" transform="translate(-70.896 -618.232)" fill="#fff"/>
                    <path id="Trazado_127425" data-name="Trazado 127425" d="M238.362,804.666a1.275,1.275,0,1,1-1.275-1.275,1.275,1.275,0,0,1,1.275,1.275" transform="translate(-199.814 -680.75)" fill="#fff"/>
                    <path id="Trazado_127426" data-name="Trazado 127426" d="M57.625,801.3a1.275,1.275,0,1,1-1.275-1.275,1.275,1.275,0,0,1,1.275,1.275" transform="translate(-46.668 -677.895)" fill="#fff"/>
                    <path id="Trazado_127427" data-name="Trazado 127427" d="M260.241,739.237a1.275,1.275,0,1,1-1.275-1.275,1.275,1.275,0,0,1,1.275,1.275" transform="translate(-218.353 -625.309)" fill="#fff"/>
                    <path id="Trazado_127428" data-name="Trazado 127428" d="M270.828,195.987a.458.458,0,0,1-.274-.825,56.749,56.749,0,0,1,5.836-3.819.458.458,0,0,1,.453.8A55.894,55.894,0,0,0,271.1,195.9a.456.456,0,0,1-.274.091" transform="translate(-229.097 -162.084)" fill="#5c824f"/>
                    <path id="Trazado_127429" data-name="Trazado 127429" d="M291.976,255.289a.458.458,0,0,1-.047-.913l7.093-.738a.458.458,0,1,1,.095.911l-7.093.738-.048,0" transform="translate(-247.017 -214.916)" fill="#5c824f"/>
                    <path id="Trazado_127430" data-name="Trazado 127430" d="M303.259,312.369a.462.462,0,0,1-.076-.006l-5.271-.886a.458.458,0,1,1,.152-.9l5.271.886a.458.458,0,0,1-.075.91" transform="translate(-252.11 -263.158)" fill="#5c824f"/>
                    <path id="Trazado_127431" data-name="Trazado 127431" d="M293.671,366.266a.455.455,0,0,1-.242-.07,12.728,12.728,0,0,0-6.006-1.911.458.458,0,0,1,.053-.914,13.648,13.648,0,0,1,6.44,2.049.458.458,0,0,1-.243.846" transform="translate(-243.181 -307.9)" fill="#5c824f"/>
                    <path id="Trazado_127432" data-name="Trazado 127432" d="M283.312,406.1a.455.455,0,0,1-.21-.051l-8-4.148a.458.458,0,0,1,.422-.813l8,4.148a.458.458,0,0,1-.211.865" transform="translate(-232.897 -339.814)" fill="#5c824f"/>
                    <path id="Trazado_127433" data-name="Trazado 127433" d="M270.406,449.176a.456.456,0,0,1-.228-.061,24.406,24.406,0,0,0-6.78-2.65.458.458,0,1,1,.2-.893,25.32,25.32,0,0,1,7.034,2.749.458.458,0,0,1-.229.855" transform="translate(-222.887 -377.544)" fill="#5c824f"/>
                    <path id="Trazado_127434" data-name="Trazado 127434" d="M255.695,500.661h-.024l-5.72-.3a.458.458,0,1,1,.048-.915l5.72.3a.458.458,0,0,1-.024.915" transform="translate(-211.426 -423.202)" fill="#5c824f"/>
                    <path id="Trazado_127435" data-name="Trazado 127435" d="M261.2,563.665h-8.243a.458.458,0,1,1,0-.916H261.2a.458.458,0,0,1,0,.916" transform="translate(-213.954 -476.843)" fill="#5c824f"/>
                    <path id="Trazado_127436" data-name="Trazado 127436" d="M269.361,601.815a.454.454,0,0,1-.1-.011c-1.06-.233-3.119-.891-5.3-1.587-2.064-.659-4.2-1.341-5.215-1.564a.458.458,0,1,1,.2-.895c1.06.232,3.118.89,5.3,1.587,2.064.659,4.2,1.341,5.216,1.565a.458.458,0,0,1-.1.905" transform="translate(-218.944 -506.499)" fill="#5c824f"/>
                    <path id="Trazado_127437" data-name="Trazado 127437" d="M258.656,639.619a.457.457,0,0,1-.382-.205,98.818,98.818,0,0,0-6.009-8.142.458.458,0,0,1,.708-.581,99.853,99.853,0,0,1,6.065,8.217.458.458,0,0,1-.381.711" transform="translate(-213.667 -534.271)" fill="#5c824f"/>
                    <path id="Trazado_127438" data-name="Trazado 127438" d="M237.327,658.971a.458.458,0,0,1-.443-.343c-.481-1.849-1.031-3.707-1.636-5.522a.458.458,0,1,1,.869-.29c.612,1.835,1.168,3.713,1.654,5.582a.459.459,0,0,1-.443.573" transform="translate(-199.316 -552.895)" fill="#5c824f"/>
                    <path id="Trazado_127439" data-name="Trazado 127439" d="M174.046,655.556a.458.458,0,0,1-.431-.613c.733-2.039,1.516-4.091,2.324-6.1a.458.458,0,1,1,.85.342c-.8,2-1.582,4.04-2.312,6.069a.458.458,0,0,1-.431.3" transform="translate(-147.089 -549.551)" fill="#5c824f"/>
                    <path id="Trazado_127440" data-name="Trazado 127440" d="M111.078,640.931a.458.458,0,0,1-.236-.851c1.2-.717,2.563-2.867,3.768-4.765a17.543,17.543,0,0,1,2.945-3.923.458.458,0,0,1,.564.722,17.35,17.35,0,0,0-2.735,3.692c-1.321,2.08-2.686,4.231-4.071,5.06a.457.457,0,0,1-.235.065" transform="translate(-93.733 -534.925)" fill="#5c824f"/>
                    <path id="Trazado_127441" data-name="Trazado 127441" d="M195.075,175.791a.457.457,0,0,1-.38-.2,16.193,16.193,0,0,1-2.313-5.222.458.458,0,0,1,.89-.218,15.282,15.282,0,0,0,2.182,4.927.458.458,0,0,1-.379.714" transform="translate(-163.002 -143.88)" fill="#5c824f"/>
                    <path id="Trazado_127442" data-name="Trazado 127442" d="M145.828,198.5a.455.455,0,0,1-.257-.08,31.34,31.34,0,0,1-5.031-4.269.458.458,0,1,1,.663-.632,30.429,30.429,0,0,0,4.884,4.144.458.458,0,0,1-.258.837" transform="translate(-118.978 -163.859)" fill="#5c824f"/>
                    <path id="Trazado_127443" data-name="Trazado 127443" d="M111.681,236.381a.458.458,0,0,1-.181-.037l-7.072-3.036a.458.458,0,0,1,.361-.842l7.073,3.036a.458.458,0,0,1-.181.879" transform="translate(-88.251 -196.947)" fill="#5c824f"/>
                    <path id="Trazado_127444" data-name="Trazado 127444" d="M102.2,282.961a.463.463,0,0,1-.08-.007,53.791,53.791,0,0,1-5.3-1.218.458.458,0,0,1,.25-.881,52.851,52.851,0,0,0,5.211,1.2.458.458,0,0,1-.079.909" transform="translate(-81.756 -237.966)" fill="#5c824f"/>
                    <path id="Trazado_127445" data-name="Trazado 127445" d="M69.681,335.427h-.012l-8.7-.23a.458.458,0,0,1,.012-.916h.012l8.7.23a.458.458,0,0,1-.012.916" transform="translate(-51.283 -283.252)" fill="#5c824f"/>
                    <path id="Trazado_127446" data-name="Trazado 127446" d="M69.907,387.278a.458.458,0,0,1-.112-.014,24.958,24.958,0,0,0-5.832-.753.458.458,0,0,1,0-.916h0a25.877,25.877,0,0,1,6.046.781.458.458,0,0,1-.111.9" transform="translate(-53.815 -326.732)" fill="#5c824f"/>
                    <path id="Trazado_127447" data-name="Trazado 127447" d="M69.906,430.094a.458.458,0,0,1-.074-.91,16.805,16.805,0,0,1,4.245-.157.458.458,0,1,1-.082.912,15.889,15.889,0,0,0-4.013.149.466.466,0,0,1-.075.006" transform="translate(-58.847 -363.477)" fill="#5c824f"/>
                    <path id="Trazado_127448" data-name="Trazado 127448" d="M41.417,467.689a.458.458,0,0,1-.076-.91,34.691,34.691,0,0,1,8.59-.381.458.458,0,1,1-.073.913,33.8,33.8,0,0,0-8.363.371.467.467,0,0,1-.078.007" transform="translate(-34.707 -395.107)" fill="#5c824f"/>
                    <path id="Trazado_127449" data-name="Trazado 127449" d="M54.649,501.29a.458.458,0,0,1-.228-.855,15.351,15.351,0,0,1,6.9-2.01.458.458,0,0,1,.042.915,14.43,14.43,0,0,0-6.483,1.889.454.454,0,0,1-.227.061" transform="translate(-45.918 -422.338)" fill="#5c824f"/>
                    <path id="Trazado_127450" data-name="Trazado 127450" d="M60.885,538.39a.458.458,0,0,1-.092-.906l5.981-1.239a.458.458,0,1,1,.186.9l-5.981,1.239a.465.465,0,0,1-.093.01" transform="translate(-51.203 -454.376)" fill="#5c824f"/>
                    <path id="Trazado_127451" data-name="Trazado 127451" d="M71.274,571.04a.458.458,0,0,1-.12-.9,33.025,33.025,0,0,1,5.376-.99.458.458,0,1,1,.091.911,32.091,32.091,0,0,0-5.227.963.455.455,0,0,1-.12.016" transform="translate(-60.006 -482.265)" fill="#5c824f"/>
                    <path id="Trazado_127452" data-name="Trazado 127452" d="M251.26,176.007a.458.458,0,0,1-.423-.633,30.913,30.913,0,0,1,2.838-5.321.458.458,0,0,1,.762.508,29.981,29.981,0,0,0-2.754,5.163.458.458,0,0,1-.423.283" transform="translate(-212.516 -143.921)" fill="#5c824f"/>
                    <path id="Trazado_127453" data-name="Trazado 127453" d="M226.373,167.629a.458.458,0,0,1-.449-.373,30.128,30.128,0,0,1-.524-6.037.458.458,0,0,1,.458-.451h.007a.458.458,0,0,1,.451.465,29.22,29.22,0,0,0,.508,5.853.458.458,0,0,1-.45.543" transform="translate(-190.988 -136.226)" fill="#5c824f"/>
                    <path id="Trazado_127454" data-name="Trazado 127454" d="M86.466,601.126a.458.458,0,0,1-.264-.833l5.768-4.06a.458.458,0,0,1,.527.749l-5.768,4.06a.456.456,0,0,1-.263.083" transform="translate(-72.878 -505.145)" fill="#5c824f"/>
                    <path id="Trazado_127455" data-name="Trazado 127455" d="M125.794,208.955a41.677,41.677,0,0,1-1.075,9.647c-.939,4.049-2.477,7.932-3.594,11.935a59.26,59.26,0,0,0-1.651,23.687c.351,2.63.827,5.525-.605,7.758a7.187,7.187,0,0,1-3.94,2.765c-5.314,1.706-11.336-.818-14.964-5.059s-5.214-9.877-5.866-15.42a112,112,0,0,1-.441-14.536c.078-5.985,3.782-27.347,13.912-33.981,10.513-6.884,18.165,3.1,18.224,13.2" transform="translate(-79.327 -163.939)" fill="#5c824f"/>
                    <path id="Trazado_127456" data-name="Trazado 127456" d="M128.375,279.179a12.556,12.556,0,0,1-9.142-4.529c-2.755-3.221-4.441-7.732-5.153-13.792a110.125,110.125,0,0,1-.42-14.14c.084-6.461,4.065-25.922,12.531-31.466a9.449,9.449,0,0,1,5.083-1.779c2.781,0,4.682,1.906,5.786,3.506a16.233,16.233,0,0,1,2.63,8.941,38.625,38.625,0,0,1-1,8.94c-.52,2.244-1.235,4.434-1.992,6.752-.535,1.639-1.088,3.333-1.568,5.053a62.63,62.63,0,0,0-1.737,24.911l.05.372c.275,2.039.56,4.148-.2,5.334a4.23,4.23,0,0,1-2.3,1.506,8.393,8.393,0,0,1-2.569.393" transform="translate(-96.276 -180.885)" fill="#83c07f"/>
                    <path id="Trazado_127457" data-name="Trazado 127457" d="M174.9,229.994a10.879,10.879,0,0,0-2.854,3.749,18.445,18.445,0,0,0-1.405,12.393c.468,1.952,1.509,4.056,3.449,4.574a4.3,4.3,0,0,0,3.632-.89,9.556,9.556,0,0,0,2.388-3.017,25.5,25.5,0,0,0,3.152-10.615,10.384,10.384,0,0,0-.5-4.553c-1.376-3.465-5.118-3.815-7.857-1.641" transform="translate(-144.175 -193.731)" fill="#fff"/>
                    <path id="Trazado_127458" data-name="Trazado 127458" d="M154.567,506.69a7.89,7.89,0,0,0-.942,3.286,13.379,13.379,0,0,0,2.313,8.747c.831,1.2,2.088,2.344,3.535,2.183a3.119,3.119,0,0,0,2.221-1.558,6.93,6.93,0,0,0,.819-2.668,18.5,18.5,0,0,0-.664-8,7.534,7.534,0,0,0-1.54-2.945c-1.843-1.98-4.464-1.231-5.743.96" transform="translate(-130.129 -427.555)" fill="#fff"/>
                    <path id="Trazado_127459" data-name="Trazado 127459" d="M176.444,570.862a2.177,2.177,0,1,1-2.177-2.177,2.177,2.177,0,0,1,2.177,2.177" transform="translate(-145.819 -481.873)" fill="#5c824f"/>
                    <path id="Trazado_127460" data-name="Trazado 127460" d="M205.92,247.666a2.878,2.878,0,1,1-2.878-2.878,2.878,2.878,0,0,1,2.878,2.878" transform="translate(-169.607 -207.42)" fill="#5c824f"/>
                  </g>
                </g>
              </g>
            </g>
          </g>
          <path id="Trazado_127466" data-name="Trazado 127466" d="M611.491,26.365l7.2,15.258-3.828-16.568a164.87,164.87,0,0,1,22.649-6.067S639.973,24.9,642.3,32.3l-10.844,6.239,11.667-3.531c2.7,9.221,4.765,19.808,1.7,24.1-4.654,6.516-31.669,4.8-31.669,4.8S596.978,42.2,599.9,34.741c1.254-3.2,5.934-6.027,11.587-8.376" transform="translate(-415.589 -18.989)" fill="#d3f9ee"/>
          <path id="Trazado_127467" data-name="Trazado 127467" d="M389.923,131.285a.246.246,0,0,1-.118-.462c15.414-8.407,36.454-21.113,49.153-33.9,23.262-23.421,37.957-59.014,38.1-59.371a.246.246,0,0,1,.456.186c-.146.358-14.879,36.042-38.209,59.532-12.742,12.829-33.825,25.562-49.267,33.985a.244.244,0,0,1-.118.03" transform="translate(-256.448 -32.867)" fill="#126783"/>
          <path id="Trazado_127468" data-name="Trazado 127468" d="M669.959,165.158a.246.246,0,0,1-.005-.492,74.829,74.829,0,0,0,12.393-1.3,75.581,75.581,0,0,0,11.433-3.124.246.246,0,0,1,.167.464,75.452,75.452,0,0,1-23.982,4.451Z" transform="translate(-468.491 -125.46)" fill="#126783"/>
          <path id="Trazado_127469" data-name="Trazado 127469" d="M691.959,120.125a.246.246,0,0,1-.045-.488,65.712,65.712,0,0,0,10.557-2.876,66.35,66.35,0,0,0,9.467-4.323.246.246,0,1,1,.239.43,66.826,66.826,0,0,1-9.537,4.355,66.206,66.206,0,0,1-10.636,2.9.234.234,0,0,1-.045,0" transform="translate(-485.162 -89.41)" fill="#126783"/>
          <path id="Trazado_127470" data-name="Trazado 127470" d="M658.227,130.7a.246.246,0,0,1-.194-.094,75.311,75.311,0,0,1-6.883-10.486.246.246,0,0,1,.433-.235A74.775,74.775,0,0,0,658.42,130.3a.246.246,0,0,1-.042.346.243.243,0,0,1-.152.052" transform="translate(-453.899 -94.95)" fill="#126783"/>
          <path id="Trazado_127471" data-name="Trazado 127471" d="M693.436,60.047a.246.246,0,0,1-.229-.155,58.233,58.233,0,0,1-2.851-9.369,60.441,60.441,0,0,1-1.246-9.316.246.246,0,0,1,.232-.259.242.242,0,0,1,.259.232,59.971,59.971,0,0,0,1.236,9.241,57.727,57.727,0,0,0,2.828,9.289.246.246,0,0,1-.229.337" transform="translate(-482.778 -35.542)" fill="#126783"/>
          <path id="Trazado_127472" data-name="Trazado 127472" d="M723.422,50.638a.246.246,0,0,1-.241-.2,37.241,37.241,0,0,1-.654-6.137c-.028-1.078-.014-2.193.042-3.313a.238.238,0,0,1,.258-.234.246.246,0,0,1,.234.258c-.055,1.108-.069,2.21-.041,3.276a36.768,36.768,0,0,0,.644,6.056.246.246,0,0,1-.195.289.256.256,0,0,1-.047,0" transform="translate(-508.143 -35.396)" fill="#126783"/>
          <path id="Trazado_127473" data-name="Trazado 127473" d="M529.136,74.891l6.711,6.695-5.176-8.029a92.594,92.594,0,0,1,10.818-7.518s2.425,2.659,5.061,6.125L542,77.527l5.5-4.087c3.184,4.36,6.288,9.564,5.485,12.415-1.22,4.331-15.827,8.564-15.827,8.564s-12.68-8.4-12.553-12.895c.055-1.929,1.99-4.316,4.531-6.633" transform="translate(-357.949 -54.457)" fill="#126783"/>
          <path id="Trazado_127474" data-name="Trazado 127474" d="M476.405,143.346a.246.246,0,0,1-.184-.41c6.543-7.372,15.24-18.085,19.514-27.249,7.83-16.788,8.823-38.379,8.832-38.6a.246.246,0,1,1,.492.021c-.009.217-1.006,21.906-8.877,38.782-4.3,9.218-13.027,19.97-19.592,27.367a.245.245,0,0,1-.184.083" transform="translate(-321.014 -62.611)" fill="#fed166"/>
          <path id="Trazado_127475" data-name="Trazado 127475" d="M579.036,144.943a.246.246,0,0,1-.088-.476,41.894,41.894,0,0,0,6.288-3.037,42.4,42.4,0,0,0,5.435-3.817.246.246,0,1,1,.314.379,42.5,42.5,0,0,1-11.86,6.935.246.246,0,0,1-.088.016" transform="translate(-398.894 -108.368)" fill="#fed166"/>
          <path id="Trazado_127476" data-name="Trazado 127476" d="M583.72,119.168a.246.246,0,0,1-.124-.459,36.787,36.787,0,0,0,5.018-3.519,37.175,37.175,0,0,0,4.169-4.075.246.246,0,1,1,.371.324,37.352,37.352,0,0,1-9.31,7.7.246.246,0,0,1-.124.033" transform="translate(-402.409 -88.372)" fill="#fed166"/>
          <path id="Trazado_127477" data-name="Trazado 127477" d="M549.537,128.121a.245.245,0,0,1-.13-.038,42.47,42.47,0,0,1-10.3-9.1.246.246,0,1,1,.381-.311,42.005,42.005,0,0,0,10.178,8.989.246.246,0,0,1-.131.455" transform="translate(-368.581 -94.068)" fill="#fed166"/>
          <path id="Trazado_127478" data-name="Trazado 127478" d="M568.854,98.842a.246.246,0,0,1-.184-.083,32.815,32.815,0,0,1-3.3-4.424,34.058,34.058,0,0,1-2.44-4.7.246.246,0,1,1,.453-.192,33.642,33.642,0,0,0,2.4,4.635,32.333,32.333,0,0,0,3.252,4.357.246.246,0,0,1-.184.41" transform="translate(-386.667 -71.984)" fill="#fed166"/>
          <path id="Trazado_127479" data-name="Trazado 127479" d="M583.005,88.129a.246.246,0,0,1-.211-.12,21.014,21.014,0,0,1-1.521-3.136c-.222-.569-.427-1.163-.611-1.767a.246.246,0,1,1,.471-.143c.18.592.382,1.174.6,1.732a20.564,20.564,0,0,0,1.485,3.062.246.246,0,0,1-.211.372" transform="translate(-400.108 -67.082)" fill="#fed166"/>
          <rect id="Rectángulo_35843" data-name="Rectángulo 35843" width="37.12" height="44.57" transform="translate(153.263 117.376)" fill="#32256b"/>
          <rect id="Rectángulo_35844" data-name="Rectángulo 35844" width="37.12" height="68.164" transform="translate(202.85 93.782)" fill="#32256b"/>
          <path id="Trazado_127511" data-name="Trazado 127511" d="M283.416,631.428a.246.246,0,0,1-.246-.246V591.874a.246.246,0,1,1,.492,0v39.308a.246.246,0,0,1-.246.246" transform="translate(-99.271 -471.812)" fill="#776e42"/>
          <rect id="Rectángulo_35845" data-name="Rectángulo 35845" width="37.12" height="96.443" transform="translate(252.436 65.503)" fill="#32256b"/>
          <path id="Trazado_127512" data-name="Trazado 127512" d="M701.584,472.584a.246.246,0,0,1-.246-.246V381.157a.246.246,0,1,1,.492,0v91.181a.246.246,0,0,1-.246.246" transform="translate(-417.986 -312.967)" fill="#776e42"/>
          <path id="Trazado_127513" data-name="Trazado 127513" d="M491.716,558.769a.246.246,0,0,1-.246-.246V495.487a.246.246,0,0,1,.492,0v63.036a.246.246,0,0,1-.246.246" transform="translate(-259.782 -399.153)" fill="#776e42"/>
          <path id="Trazado_127514" data-name="Trazado 127514" d="M180.994,496.167a98.687,98.687,0,0,1-74.79-34.2.246.246,0,1,1,.372-.322,98.371,98.371,0,0,0,172.769-62.726.246.246,0,0,1,.246-.242h0a.246.246,0,0,1,.243.25,98.852,98.852,0,0,1-98.843,97.24" transform="translate(-40.148 -326.36)" fill="#363e44"/>
          <path id="Trazado_127515" data-name="Trazado 127515" d="M802.317,395.316a.247.247,0,0,1-.227-.149l-2.567-6.016-3.177,5.657a.246.246,0,0,1-.429-.241l3.667-6.529,2.96,6.935a.246.246,0,0,1-.13.323.242.242,0,0,1-.1.02" transform="translate(-564.222 -318.34)" fill="#363e44"/>
        </g>
      </g>
    </g>
    <g transform="matrix(1, 0, 0, 1, 1133.17, 3876.24)" filter="url(#Trazado_196935)">
      <path id="Trazado_196935-2" data-name="Trazado 196935" d="M9.251,35.205a9.558,9.558,0,0,0,9.464-9.341l.194-16.737A9.042,9.042,0,0,0,9.658,0,9.558,9.558,0,0,0,.194,9.341L0,26.078A9.042,9.042,0,0,0,9.251,35.205Z" transform="matrix(-0.02, 1, -1, -0.02, 295, 133.55)" fill="#20bdfc"/>
    </g>
  </g>
</svg>
