<svg xmlns="http://www.w3.org/2000/svg" xmlns:xlink="http://www.w3.org/1999/xlink" width="110" height="110" viewBox="0 0 110 110">
  <defs>
    <clipPath id="clip-path">
      <rect id="Rect치ngulo_36507" data-name="Rect치ngulo 36507" width="69.287" height="99.003" fill="none"/>
    </clipPath>
  </defs>
  <g id="Grupo_143208" data-name="Grupo 143208" transform="translate(-588 -1384)">
    <rect id="Rect치ngulo_35889" data-name="Rect치ngulo 35889" width="110" height="110" transform="translate(588 1384)" fill="none"/>
    <g id="Grupo_146486" data-name="Grupo 146486" transform="translate(608.857 1389.499)">
      <g id="Grupo_146486-2" data-name="Grupo 146486" clip-path="url(#clip-path)">
        <path id="Trazado_129190" data-name="Trazado 129190" d="M55.269,99q-5.516,0-11.033,0c-1.624,0-2.173-.543-2.176-2.147,0-2.853-.02-5.706.013-8.558.007-.641-.119-.979-.824-.844a.4.4,0,0,1-.1,0c-.776-.057-1.962.342-2.236-.16-.392-.717-.126-1.792-.153-2.714-.009-.3.086-.454.4-.427a2.541,2.541,0,0,0,.412,0c.81-.065,1.919.367,2.35-.176.406-.512.132-1.573.133-2.392,0-5.431-.014-10.861.021-16.291,0-.756-.154-.975-.941-.959-2.4.049-2.379.01-2.395-2.449,0-.669.163-.867.842-.85.806.02,1.885.386,2.352-.163.394-.464.118-1.505.121-2.291.006-1.822-.007-3.643,0-5.465.009-1.347.605-1.942,1.949-1.955s2.681-.023,4.021.008c.487.011.606-.128.642-.623.315-4.236-2.716-6.254-5.737-6.012a14.457,14.457,0,0,1-4.005-.155,8.4,8.4,0,0,1-6.691-9.146c.064-.524,0-.68-.542-.808a9.9,9.9,0,0,1,.748-19.491,7.145,7.145,0,0,1,2.87.047c.609.154.812-.046,1.086-.548A8.116,8.116,0,0,1,44.649,9.96c.6.04.692-.07.74-.639A9.882,9.882,0,0,1,64.923,7.835c.12.481.233.564.73.508a8.182,8.182,0,0,1,8.7,4.859c.258.565.433.652,1.04.471a9.835,9.835,0,0,1,12.841,9.873,9.484,9.484,0,0,1-4.4,7.754,1.071,1.071,0,0,0-.564,1.142A6.518,6.518,0,0,1,78.244,39.4a1.21,1.21,0,0,0-.829.66,8.171,8.171,0,0,1-7.749,4.5c-1.031-.007-2.064-.032-3.093.011a5.222,5.222,0,0,0-4.728,6.259c.1.439.371.321.611.323,1.271.011,2.543,0,3.815.006,1.66,0,2.182.54,2.184,2.242,0,2.268.021,4.537-.013,6.8-.009.627.09.909.815.874.807-.039,1.955-.387,2.348.145.414.561.109,1.641.157,2.492.026.468-.083.729-.609.642a1.351,1.351,0,0,0-.309,0c-.777.055-1.806-.337-2.258.171-.381.428-.129,1.434-.13,2.183,0,5.5.012,11-.02,16.5,0,.739.128.986.932.968,2.411-.052,2.387-.01,2.4,2.44,0,.653-.138.882-.833.859-.806-.027-1.918-.389-2.349.156-.405.513-.13,1.573-.132,2.393-.007,2.3,0,4.606,0,6.908,0,1.482-.579,2.064-2.05,2.067q-5.568.01-11.136,0" transform="translate(-18.965 0)"/>
        <path id="Trazado_129191" data-name="Trazado 129191" d="M278,215.553a6.6,6.6,0,1,1-6.646,6.573A6.606,6.606,0,0,1,278,215.553" transform="translate(-215.264 -170.995)"/>
        <path id="Trazado_129192" data-name="Trazado 129192" d="M41.813,5.027a4.944,4.944,0,1,1-4.9-4.939,4.967,4.967,0,0,1,4.9,4.939" transform="translate(-25.326 -0.07)"/>
        <path id="Trazado_129193" data-name="Trazado 129193" d="M9.889,196.554a4.944,4.944,0,1,1-4.92-4.916,4.967,4.967,0,0,1,4.92,4.916" transform="translate(0 -152.025)"/>
        <path id="Trazado_129194" data-name="Trazado 129194" d="M67.8,63.863c-.825,0-1.654-.054-2.473.016-.721.061-.854-.233-.818-.868a8.38,8.38,0,0,0-1.18-5.029,8.091,8.091,0,0,0-6.9-4.007c-1.132-.047-2.269.016-3.4-.023-3.528-.118-6.194-3.914-4.428-7.213.907-1.693.109-2.821-1.807-2.7a6.59,6.59,0,1,1,6.12-7.257c.087.582.261.744.807.693.477-.044.961-.009,1.442-.009,1.244,0,1.251,0,1.055-1.264A9.744,9.744,0,0,0,52.3,29.56c-.558-.409-.564-.7-.247-1.226a4.946,4.946,0,0,1,4.8-2.38,4.709,4.709,0,0,1,4.129,3.636c.2,1.184.707,1.329,1.714,1.3,2.11-.069,2.126-.025,1.574-2.089a6.537,6.537,0,0,0-1.786-3.312c-1.514-1.344-1.437-2.955-.975-4.625a6.789,6.789,0,0,1,6.878-4.827,6.689,6.689,0,0,1,6,5.742,1.3,1.3,0,0,1-.494,1.335,8.176,8.176,0,0,0-2.722,5.054c-.122.715-.068,1.237.872,1.053a1.1,1.1,0,0,1,.206,0,5.35,5.35,0,0,0,1.937-.058c.558-.237.344-1.077.557-1.63a5.089,5.089,0,0,1,4.694-3.259,4.962,4.962,0,0,1,4.543,3.149,1.364,1.364,0,0,1-.306,1.724,9.617,9.617,0,0,0-2.619,5.69c-.091.673-.03,1.114.857,1,.71-.09,1.539.192,2.136-.082.648-.3.386-1.254.6-1.9a6.709,6.709,0,0,1,6.591-4.62,6.585,6.585,0,0,1,2.56,12.494c-1.856.912-1.963,1.151-1.381,3.075a3.228,3.228,0,0,1-3,4.189,1.942,1.942,0,0,0-2.076,1.563,4.893,4.893,0,0,1-4.761,3.418,28.759,28.759,0,0,0-4.525.123,8.214,8.214,0,0,0-6.928,8.237c-.016,1.535-.016,1.535-1.566,1.535Z" transform="translate(-31.529 -12.706)" fill="#cedee7"/>
        <path id="Trazado_129195" data-name="Trazado 129195" d="M137.51,311.272c2.988,0,5.976.017,8.964-.013.664-.007.96.09.956.87q-.05,9.066-.006,18.133c0,.61-.133.826-.791.823q-9.118-.038-18.236,0c-.653,0-.8-.2-.8-.82q.032-9.066-.006-18.133c0-.775.283-.881.952-.874,2.987.031,5.976.014,8.963.014" transform="translate(-101.219 -246.917)" fill="#55b46a"/>
        <path id="Trazado_129196" data-name="Trazado 129196" d="M137.622,423.008c2.956,0,5.912.019,8.867-.014.7-.008.96.176.944.917-.045,2.164-.03,4.33-.007,6.5.006.58-.1.881-.783.864-1.683-.041-3.368-.031-5.052,0-.567.009-.82-.159-.782-.757a9.758,9.758,0,0,0-.006-1.854c-.186-1.434-1.3-.5-1.956-.651-.432-.1-1.352-.487-1.329.649,0,.069,0,.137,0,.206-.051,2.507-.05,2.481-2.527,2.414-.675-.018-.8-.288-.781-.869.031-1.1-.024-2.2.021-3.3.026-.65-.228-.8-.837-.813-2.475-.049-2.474-.068-2.474,2.36v.206c0,2.456,0,2.433-2.424,2.412-.659-.006-.9-.175-.889-.867.039-2.165.043-4.331,0-6.5-.016-.742.242-.924.945-.916,3.024.033,6.049.014,9.073.014" transform="translate(-101.226 -335.555)" fill="#2d5b33"/>
        <path id="Trazado_129197" data-name="Trazado 129197" d="M137.576,263.39c2.99,0,5.981.016,8.971-.013.659-.006.91.169.891.864-.044,1.649-.04,3.3,0,4.949.015.649-.226.812-.838.81q-9.074-.027-18.147,0c-.612,0-.853-.161-.838-.81.039-1.649.043-3.3,0-4.949-.019-.694.232-.87.891-.864,3.024.029,6.049.013,9.073.013" transform="translate(-101.232 -208.934)" fill="#2d5b33"/>
        <path id="Trazado_129198" data-name="Trazado 129198" d="M293.914,234.83a3.3,3.3,0,1,1-3.267-3.3,3.308,3.308,0,0,1,3.267,3.3" transform="translate(-227.929 -183.67)" fill="#cedee7"/>
        <path id="Trazado_129199" data-name="Trazado 129199" d="M51.183,17.7a1.645,1.645,0,1,1-1.6-1.665,1.657,1.657,0,0,1,1.6,1.665" transform="translate(-37.993 -12.723)" fill="#ccdce5"/>
        <path id="Trazado_129200" data-name="Trazado 129200" d="M19.259,209.278a1.645,1.645,0,1,1-1.571-1.694,1.658,1.658,0,0,1,1.571,1.694" transform="translate(-12.668 -164.673)" fill="#ccdce5"/>
        <path id="Trazado_129201" data-name="Trazado 129201" d="M248.991,139.04c-1.589,0-1.589,0-1.589-1.608,0-1.692,0-1.692,1.711-1.692,1.589,0,1.589,0,1.589,1.608,0,1.692,0,1.692-1.71,1.692" transform="translate(-196.261 -107.681)"/>
        <path id="Trazado_129202" data-name="Trazado 129202" d="M123,153.406c0,1.6,0,1.6-1.6,1.6-1.7,0-1.7,0-1.7-1.7,0-1.6,0-1.6,1.6-1.6,1.7,0,1.7,0,1.7,1.7" transform="translate(-94.959 -120.343)"/>
        <path id="Trazado_129203" data-name="Trazado 129203" d="M153.228,170.965c-1.6,0-1.6,0-1.6-1.6,0-1.7,0-1.7,1.7-1.7,1.6,0,1.6,0,1.6,1.6,0,1.7,0,1.7-1.7,1.7" transform="translate(-120.284 -133.006)"/>
        <path id="Trazado_129204" data-name="Trazado 129204" d="M151.907,337.85c-.214-.187-.427-.354-.618-.544-1.387-1.381-2.8-2.735-4.137-4.164-.555-.594-.857-.505-1.367.031-1.372,1.442-2.818,2.814-4.2,4.244-.407.42-.651.407-1.074.006-1.872-1.778-1.886-1.764-.037-3.613,1.044-1.044,2.07-2.106,3.14-3.123.421-.4.436-.65.008-1.065-1.48-1.432-2.911-2.915-4.385-4.354-.389-.38-.479-.621-.052-1.074,1.791-1.9,1.774-1.921,3.619-.075,1.019,1.02,2.071,2.01,3.045,3.071.507.552.808.482,1.291-.023,1.376-1.439,2.822-2.81,4.2-4.243.433-.449.689-.467,1.151-.018,1.819,1.767,1.836,1.749.039,3.547-1.044,1.044-2.067,2.11-3.141,3.122-.455.428-.487.689-.014,1.141,1.414,1.352,2.744,2.792,4.177,4.124.654.608.622,1-.036,1.52a17.386,17.386,0,0,0-1.25,1.224,3.6,3.6,0,0,1-.36.268" transform="translate(-110.188 -255.896)"/>
      </g>
    </g>
  </g>
</svg>
