<svg xmlns="http://www.w3.org/2000/svg" xmlns:xlink="http://www.w3.org/1999/xlink" width="110" height="110" viewBox="0 0 110 110">
  <defs>
    <clipPath id="clip-path">
      <rect id="Rect치ngulo_36508" data-name="Rect치ngulo 36508" width="69.963" height="99.306" fill="none"/>
    </clipPath>
  </defs>
  <g id="Grupo_143209" data-name="Grupo 143209" transform="translate(-904 -1373.391)">
    <rect id="Rect치ngulo_35890" data-name="Rect치ngulo 35890" width="110" height="110" transform="translate(904 1373.391)" fill="none"/>
    <g id="Grupo_146493" data-name="Grupo 146493" transform="translate(924 1378.39)">
      <g id="Grupo_146493-2" data-name="Grupo 146493" clip-path="url(#clip-path)">
        <path id="Trazado_129361" data-name="Trazado 129361" d="M68.494,89.086c1.226.515,1.492,1.013,1.225,2.292a9.927,9.927,0,0,1-9.52,7.894q-25.184.063-50.367,0A9.907,9.907,0,0,1,.018,89.689C0,89.336,0,88.983,0,88.629Q0,55.916,0,23.2c0-5,2.847-8.88,7.379-10.15a17.105,17.105,0,0,1,4.951-.312c.675.01.823-.194.808-.831-.042-1.8-.019-3.6-.014-5.408,0-1.483.486-1.979,1.96-1.982,3.959-.008,7.918-.016,11.876.01A1.316,1.316,0,0,0,28.3,3.807a7.762,7.762,0,0,1,13.355,0,1.319,1.319,0,0,0,1.33.73c3.923-.028,7.847-.017,11.77-.012,1.615,0,2.071.466,2.074,2.083,0,1.732.037,3.465-.016,5.2-.022.722.143.964.911.946a18.884,18.884,0,0,1,4.226.171,10.049,10.049,0,0,1,7.994,9.335,1.63,1.63,0,0,1-1.055,1.763c-1.271.333-1.849,0-2.148-1.263-.123-.516-.186-1.044-.312-1.56a6.494,6.494,0,0,0-6.437-5.144q-24.969-.032-49.94,0A6.672,6.672,0,0,0,3.3,22.575c-.031.388-.025.777-.025,1.166q0,32.286,0,64.572a10.412,10.412,0,0,0,.164,2.109A6.632,6.632,0,0,0,10.2,95.986q15.321.022,30.643.005,9.225,0,18.449,0c3.832,0,6.059-1.653,7.206-5.32.451-1.441.9-1.794,2-1.584" transform="translate(0 0)"/>
        <path id="Trazado_129362" data-name="Trazado 129362" d="M70.078,97.461a1.716,1.716,0,0,0-1.689,1.58,6.923,6.923,0,0,1-7.063,5.654q-24.766.016-49.532,0a6.978,6.978,0,0,1-7.231-7.222q-.021-33.092,0-66.185a6.958,6.958,0,0,1,7.222-7.215q24.766-.016,49.533,0a6.983,6.983,0,0,1,7.231,6.564c.149,1.455.493,1.769,1.922,1.755-.423.26-.408.671-.406,1.1.012,1.813.008,3.626.01,5.438-1.1.8-1.2,1.938-1.179,3.19.05,3.495.059,6.991-.005,10.486-.023,1.258.158,2.3,1.374,2.911a6.163,6.163,0,0,0-.184,2.6c-.042,1.3,0,2.607,0,3.911-1.088.711-1.176,1.774-1.171,2.957q.046,11.471,0,22.941c-.007,1.275.125,2.369,1.363,3.028a5.16,5.16,0,0,0-.187,2.388c-.039,1.372-.006,2.747,0,4.121" transform="translate(-1.584 -8.374)" fill="#98bbe6"/>
        <path id="Trazado_129363" data-name="Trazado 129363" d="M104.43,111.213c-1.292-.114-1.695-.514-1.7-1.781q-.01-12.673-.01-25.347a1.585,1.585,0,0,1,1.519-1.8,1.662,1.662,0,0,1,1.462,1.877q-.014,12.618,0,25.237a1.617,1.617,0,0,1-1.272,1.812" transform="translate(-35.748 -28.636)"/>
        <path id="Trazado_129364" data-name="Trazado 129364" d="M104.423,63.443c-1.286-.116-1.689-.518-1.692-1.777-.01-4.3.016-8.6-.018-12.893a1.68,1.68,0,0,1,1.52-1.916,1.751,1.751,0,0,1,1.472,1.985c-.024,4.23-.018,8.461,0,12.692,0,.947-.277,1.658-1.279,1.91" transform="translate(-35.744 -16.306)"/>
        <path id="Trazado_129365" data-name="Trazado 129365" d="M55.914,9.487a4.868,4.868,0,1,1-4.786-4.914,4.905,4.905,0,0,1,4.786,4.914" transform="translate(-16.07 -1.591)" fill="#edd98c"/>
        <path id="Trazado_129366" data-name="Trazado 129366" d="M37.388,16.715c-4.12,0-8.041-.007-11.961.008-.5,0-.78-.056-.76-.67.044-1.306.033-2.615,0-3.92-.012-.514.171-.664.671-.662,3.25.018,6.5.01,9.75.008.334,0,.635-.01.638.469a8.444,8.444,0,0,0,1.658,4.768" transform="translate(-8.583 -3.991)" fill="#9baeca"/>
        <path id="Trazado_129367" data-name="Trazado 129367" d="M63.109,16.715a8.481,8.481,0,0,0,1.659-4.77c.005-.48.308-.467.64-.467,3.25,0,6.5.01,9.75-.008.5,0,.681.151.67.662-.029,1.307-.04,2.615,0,3.921.021.615-.264.671-.761.669-3.921-.014-7.841-.008-11.962-.008" transform="translate(-21.962 -3.991)" fill="#9baeca"/>
        <path id="Trazado_129368" data-name="Trazado 129368" d="M67.185,65.983q0,16.276,0,32.551c0,3.258-1.532,4.777-4.807,4.777H13.709c-2.988,0-4.6-1.59-4.6-4.554q0-32.816,0-65.632c0-2.909,1.61-4.5,4.538-4.5q24.493,0,48.986,0c2.966,0,4.551,1.6,4.552,4.6q0,16.382,0,32.763" transform="translate(-3.169 -9.961)"/>
        <path id="Trazado_129369" data-name="Trazado 129369" d="M65.8,67.453q0,16.331,0,32.662c0,1.6-.221,1.812-1.846,1.812H15.492c-1.606,0-1.825-.218-1.825-1.831q0-32.556,0-65.112c0-1.6.212-1.8,1.845-1.8H63.974c1.627,0,1.826.2,1.826,1.824q0,16.224,0,32.45" transform="translate(-4.756 -11.546)" fill="#f4f2f7"/>
        <path id="Trazado_129370" data-name="Trazado 129370" d="M64.149,46.827c2.788,0,5.577-.006,8.365,0,1.182,0,1.81.513,1.826,1.436.016.962-.651,1.526-1.865,1.528q-8.312.01-16.623,0c-1.215,0-1.892-.563-1.881-1.513s.644-1.45,1.92-1.453c2.753-.007,5.506,0,8.259,0" transform="translate(-18.782 -16.295)"/>
        <path id="Trazado_129371" data-name="Trazado 129371" d="M64.147,80.8c-2.788,0-5.576.005-8.364,0-1.187,0-1.8-.508-1.813-1.444-.009-.917.645-1.515,1.777-1.517q8.417-.021,16.833,0c1.125,0,1.777.612,1.76,1.534S73.7,80.8,72.511,80.8c-2.788.008-5.576,0-8.364,0" transform="translate(-18.781 -27.085)" fill="#010101"/>
        <path id="Trazado_129372" data-name="Trazado 129372" d="M64.152,108.972q4.129,0,8.258,0c1.294,0,1.916.469,1.93,1.431s-.653,1.532-1.868,1.534q-8.311.014-16.623,0c-1.214,0-1.891-.574-1.878-1.524s.647-1.438,1.923-1.44q4.129-.006,8.258,0" transform="translate(-18.782 -37.921)"/>
        <path id="Trazado_129373" data-name="Trazado 129373" d="M64.132,61.25c-2.753,0-5.506,0-8.259,0-1.247,0-1.9-.52-1.9-1.475s.674-1.489,1.9-1.49q8.312-.007,16.623,0c1.206,0,1.878.576,1.848,1.538-.029.916-.668,1.423-1.843,1.427-2.788.008-5.577,0-8.365,0" transform="translate(-18.782 -20.281)"/>
        <path id="Trazado_129374" data-name="Trazado 129374" d="M64.162,92.349q-3.97,0-7.939,0a5.083,5.083,0,0,1-1.051-.068,1.357,1.357,0,0,1-1.187-1.507A1.338,1.338,0,0,1,55.319,89.4c.526-.046,1.058-.023,1.586-.023,5.187,0,10.374.007,15.561-.007.9,0,1.63.208,1.852,1.184.232,1.018-.52,1.777-1.794,1.786-2.787.02-5.575.006-8.363.007" transform="translate(-18.785 -31.101)" fill="#010101"/>
        <path id="Trazado_129375" data-name="Trazado 129375" d="M64.262,120.41q4.076,0,8.153,0c1.242,0,1.907.516,1.924,1.461.018.962-.64,1.5-1.871,1.5q-8.312.008-16.624,0c-1.228,0-1.89-.546-1.873-1.5s.685-1.459,1.925-1.462q4.183-.007,8.365,0" transform="translate(-18.782 -41.902)"/>
        <path id="Trazado_129376" data-name="Trazado 129376" d="M23.719,50.894a2.116,2.116,0,0,1,1.681.773c.692.629,1.259,1.842,2.053,1.778.7-.057,1.32-1.166,1.97-1.815,1.376-1.372,2.746-2.752,4.128-4.12.822-.814,1.666-.916,2.323-.306.724.673.672,1.526-.194,2.4Q32.2,53.1,28.7,56.573c-.969.962-1.657.956-2.628,0-1.058-1.041-2.113-2.086-3.146-3.152a1.362,1.362,0,0,1-.306-1.652,1.422,1.422,0,0,1,1.093-.876" transform="translate(-7.819 -16.291)"/>
        <path id="Trazado_129377" data-name="Trazado 129377" d="M36.132,79.214a1.819,1.819,0,0,1-.619,1.408c-2.369,2.369-4.726,4.749-7.109,7.1a1.514,1.514,0,0,1-2.474-.01q-1.553-1.513-3.066-3.067a1.5,1.5,0,1,1,2.082-2.129A18.284,18.284,0,0,1,26.51,84.1c.469.563.779.568,1.3.024,1.861-1.927,3.777-3.8,5.674-5.7a1.461,1.461,0,0,1,1.725-.408,1.533,1.533,0,0,1,.92,1.2" transform="translate(-7.751 -27.104)"/>
        <path id="Trazado_129378" data-name="Trazado 129378" d="M35.891,110.484a1.514,1.514,0,0,1-.563,1.154c-2.4,2.4-4.783,4.8-7.2,7.182a1.48,1.48,0,0,1-2.4-.016q-1.562-1.508-3.076-3.064a1.52,1.52,0,0,1-.139-2.322c.643-.6,1.451-.53,2.244.207.052.048.1.1.151.148.711.615,1.262,1.837,2.065,1.787.7-.044,1.331-1.141,1.98-1.785q2.179-2.163,4.346-4.341a1.48,1.48,0,0,1,1.745-.349,1.362,1.362,0,0,1,.84,1.4" transform="translate(-7.672 -37.911)"/>
      </g>
    </g>
  </g>
</svg>
