<svg xmlns="http://www.w3.org/2000/svg" xmlns:xlink="http://www.w3.org/1999/xlink" width="425.5" height="165.382" viewBox="0 0 425.5 165.382">
  <defs>
    <filter id="Trazado_113277" x="318.551" y="83.644" width="106.949" height="81.738" filterUnits="userSpaceOnUse">
      <feOffset dy="3" input="SourceAlpha"/>
      <feGaussianBlur stdDeviation="8.5" result="blur"/>
      <feFlood flood-opacity="0.2"/>
      <feComposite operator="in" in2="blur"/>
      <feComposite in="SourceGraphic"/>
    </filter>
    <clipPath id="clip-path">
      <rect id="Rectángulo_45986" data-name="Rectángulo 45986" width="82.004" height="70.742" fill="#12263f"/>
    </clipPath>
  </defs>
  <g id="Grupo_154610" data-name="Grupo 154610" transform="translate(-180 -1281.706)">
    <g id="Grupo_134325" data-name="Grupo 134325" transform="translate(180 1281)">
      <g id="Grupo_134324" data-name="Grupo 134324" transform="translate(0 0)">
        <g id="Grupo_134139" data-name="Grupo 134139" transform="translate(0 21)">
          <rect id="Rectángulo_33902" data-name="Rectángulo 33902" width="388" height="116" rx="21" transform="translate(0 0)" fill="#e6eff2"/>
          <g transform="matrix(1, 0, 0, 1, 0, -20.29)" filter="url(#Trazado_113277)">
            <path id="Trazado_113277-2" data-name="Trazado 113277" d="M14.567,55.437a15.051,15.051,0,0,0,14.9-14.708l.3-26.355A14.239,14.239,0,0,0,15.208,0,15.051,15.051,0,0,0,.306,14.709L0,41.065A14.239,14.239,0,0,0,14.567,55.437Z" transform="matrix(-0.02, 1, -1, -0.02, 400, 107.11)" fill="#20bdfc"/>
          </g>
        </g>
        <g id="Grupo_146519" data-name="Grupo 146519" transform="translate(43 0.706)">
          <g id="Grupo_154307" data-name="Grupo 154307" transform="translate(81.756)">
            <path id="Trazado_196272" data-name="Trazado 196272" d="M192.772,390.679a69.39,69.39,0,0,0-10.529,15.583c-6.517,13.233-7.291,34.707-7.16,41.78h36.845c.037-.812.073-2.285.116-4.365.093-4.533.192-11.623.291-13.83,2.776,1.466,13.415,16.557,14.953,18.175h43.821c-8.694-11.751-23.859-28.993-34.536-37.627.772-4.212,1.544-7.292,2.316-11.5l-46.117-8.213" transform="translate(-151.594 -308.592)" fill="#12263f"/>
            <path id="Trazado_196273" data-name="Trazado 196273" d="M2.461,249.553c11.506,2.138,45.089,6.276,43.2,20.356C44.091,281.556,11.563,276.083,0,274.7q1.23-12.574,2.46-25.147" transform="translate(110.566 -197.119)" fill="#e2a18d"/>
            <path id="Trazado_196274" data-name="Trazado 196274" d="M247.949,227.615l3.79,28.218-68.229-16.425,12.635-18.952-13.056-.842q.211-13.688.421-27.376l83.812,11.793-1.263,29.06Z" transform="translate(-149.493 -151.846)" fill="#126783"/>
            <path id="Trazado_196275" data-name="Trazado 196275" d="M523.166,212.81c-3.862.137-30.152-.953-33.522,5.785-3.539,7.077,15.745,37.235,22.322,45.591a10.67,10.67,0,0,0,3.475,4.949c2.259,1.712,3.653,1.092,6.317,2.527,4.5,2.423,4.9,6.7,6.607,6.109,1.174-.406,1.05-2.909.342-5.162-.726-2.313-2.17-3.5-1.9-3.791.3-.315,1.611,1.084,3.4,2.674.831.739,1.864,4.172,3.549,3.854,1.344-.254,1.164-4.092-.734-6.855-1.342-1.955-3.566-2.55-3.373-2.937.144-.291,1.461.1,2.5.768,1.708,1.108,2.8,4.609,4.348,4.286,1.515-.316,1.3-3.666-.286-6.318-1.335-2.236-3.847-2.78-3.61-3.264.167-.34,1.341-.33,3.685.421,1.956.627,5.356,3.107,6.318,1.158.809-1.639-2.7-4.328-6.393-6.209-2.447-1.246-5.069-2.221-6.558-2.846a19.121,19.121,0,0,1,3.369-1.684c2.67-1.019,3.761-1.037,3.962-2.314.208-1.316-2.013-1.842-4.6-1.766-3.091.091-5.263,1.385-6.622,1.868l-8.107-14.741c1.474.105,3.7.187,5.174.293.069-7.017.343-14.259.341-22.4" transform="translate(-489.215 -168.096)" fill="#e2a18d"/>
            <path id="Trazado_196276" data-name="Trazado 196276" d="M613.523,276.655a.21.21,0,0,0,.186-.308L608.1,265.683a.21.21,0,1,0-.372.2l5.609,10.664a.21.21,0,0,0,.186.112" transform="translate(-585.12 -209.771)" fill="#363e44"/>
            <path id="Trazado_196277" data-name="Trazado 196277" d="M282.484,319.373a.207.207,0,0,0,.037,0,.21.21,0,0,0,.17-.244l-1.2-6.74a.21.21,0,0,0-.414.074l1.2,6.74a.21.21,0,0,0,.207.173" transform="translate(-185.453 -246.613)" fill="#fff"/>
            <path id="Trazado_196278" data-name="Trazado 196278" d="M271.357,317.348a.2.2,0,0,0,.037,0,.21.21,0,0,0,.17-.244l-1.2-6.74a.21.21,0,1,0-.414.074l1.2,6.74a.21.21,0,0,0,.207.173" transform="translate(-171.988 -245.013)" fill="#fff"/>
            <path id="Trazado_196279" data-name="Trazado 196279" d="M254.213,327a3.638,3.638,0,0,0,3.576-4.314l-3.757-19.871a1.7,1.7,0,0,0-1.981-1.351l-3.816.722a1.7,1.7,0,0,0-1.351,1.981l3.757,19.871A3.645,3.645,0,0,0,254.213,327m-1.845-25.146a1.277,1.277,0,0,1,1.251,1.039l3.757,19.871a3.218,3.218,0,1,1-6.323,1.2L247.3,304.088a1.276,1.276,0,0,1,1.017-1.49l3.816-.722a1.305,1.305,0,0,1,.24-.022" transform="translate(-153.421 -238.098)" fill="#fff"/>
            <path id="Trazado_196280" data-name="Trazado 196280" d="M277.44,217.654l4.235-.8-4.354-23.029-4.235.8Zm3.744-1.135-3.409.645-4.2-22.2,3.41-.645Z" transform="translate(-182.755 -153.099)" fill="#fff"/>
            <path id="Trazado_196281" data-name="Trazado 196281" d="M48.1,300.117c-9.63,2.023-32.543,5.664-34.766,6.108-4.155.831-13.058,2.355-13.087,5.263a2.992,2.992,0,0,0,1.641,2.488,3.026,3.026,0,0,0-.6,3.292,3.165,3.165,0,0,0,2.285,1.712,2.538,2.538,0,0,0-.973,2.385,2.658,2.658,0,0,0,2.923,1.981,2.971,2.971,0,0,0-.033,2.15,3.118,3.118,0,0,0,2.889,1.846c3.692-.735,9.634-.94,16.727-1.62,16.658-1.595,24.018-3,31.926-5.232a13.271,13.271,0,0,0,9.489-10.856c-6.182-3.211-12.235-6.306-18.417-9.516" transform="translate(89.731 -237.058)" fill="#e2a18d"/>
            <path id="Trazado_196282" data-name="Trazado 196282" d="M84.676,301.147a.227.227,0,0,0,.042,0c1.966-.4,6.32-1.26,10.531-2.088s8.567-1.684,10.535-2.089a.21.21,0,1,0-.084-.412c-1.966.4-6.32,1.26-10.531,2.088s-8.567,1.684-10.535,2.089a.21.21,0,0,0,.042.416" transform="translate(32.599 -234.241)" fill="#363e44"/>
            <path id="Trazado_196283" data-name="Trazado 196283" d="M286.2,347.546a.21.21,0,0,0,.2-.265l-.484-1.8a.21.21,0,0,0-.406.109l.485,1.8a.21.21,0,0,0,.2.156" transform="translate(-190.093 -272.768)" fill="#363e44"/>
            <path id="Trazado_196284" data-name="Trazado 196284" d="M280.373,369.3a.214.214,0,0,0,.055-.007.21.21,0,0,0,.148-.258l-.484-1.8a.21.21,0,0,0-.406.109l.485,1.8a.21.21,0,0,0,.2.155" transform="translate(-183.048 -289.949)" fill="#363e44"/>
            <path id="Trazado_196285" data-name="Trazado 196285" d="M274.688,391.51a.21.21,0,0,0,.2-.265l-.484-1.8a.21.21,0,0,0-.406.109l.485,1.8a.21.21,0,0,0,.2.155" transform="translate(-176.169 -307.495)" fill="#363e44"/>
            <path id="Trazado_196286" data-name="Trazado 196286" d="M269.118,411.551a.215.215,0,0,0,.055-.007.21.21,0,0,0,.148-.258l-.485-1.8a.21.21,0,0,0-.406.109l.485,1.8a.21.21,0,0,0,.2.156" transform="translate(-169.429 -323.325)" fill="#363e44"/>
            <path id="Trazado_196287" data-name="Trazado 196287" d="M343.332,9.694A9.694,9.694,0,1,0,353.026,0a9.694,9.694,0,0,0-9.694,9.694" transform="translate(-278.56)" fill="#363e44"/>
            <path id="Trazado_196288" data-name="Trazado 196288" d="M417.064,80.006c-7.92.674-11.018,3.671-12.319,6-2.527,4.528-1.07,7.642-3.474,13.583a21.883,21.883,0,0,1-8.213,9.687,23.959,23.959,0,0,0,19.163,6.633,64.191,64.191,0,0,1,4.843-35.9" transform="translate(-343.352 -63.196)" fill="#363e44"/>
            <path id="Trazado_196289" data-name="Trazado 196289" d="M351.729,89.537c-.532-.051-5.632-.469-8.7,3.018-2.286,2.595-2.56,5.926-2.176,11.582.453,6.661,1.654,10.579,3.571,11.894,3.03,2.077,12.108-2.569,15.522-8.385a13.412,13.412,0,0,0-.421-13.758c-2.6-4.142-7.452-4.319-7.791-4.352" transform="translate(-276.928 -70.691)" fill="#e2a18d"/>
            <path id="Trazado_196290" data-name="Trazado 196290" d="M366.293,201.769h0a4.894,4.894,0,0,0,4.894-4.894V192.26a4.894,4.894,0,1,0-9.789,0v4.614a4.894,4.894,0,0,0,4.894,4.894" transform="translate(-290.823 -147.998)" fill="#e2a18d"/>
            <path id="Trazado_196291" data-name="Trazado 196291" d="M349.946,185.242a8.338,8.338,0,0,0,1.806-.222c3.956-.886,9.563-4.384,12.1-8.7a.21.21,0,1,0-.362-.212c-2.477,4.22-7.959,7.638-11.828,8.505a4.557,4.557,0,0,1-3.456-.22.21.21,0,0,0-.237.347,3.481,3.481,0,0,0,1.979.5" transform="translate(-280.673 -139.021)" fill="#363e44"/>
            <path id="Trazado_196292" data-name="Trazado 196292" d="M343.364,85.248c-2.043,4.6,5.159,9.383,11.495,7.582,3.706-1.053,7.166-4.9,6.405-7.236-1.308-4.022-15.8-5.075-17.9-.346" transform="translate(-277.142 -64.865)" fill="#363e44"/>
            <path id="Trazado_196293" data-name="Trazado 196293" d="M440.308,129.814a8.825,8.825,0,0,0,2.01,3.3c.308.307,2.192-2.748,1.758-2.9a8.844,8.844,0,0,0-3.769-.4" transform="translate(-380.357 -102.496)" fill="#fff"/>
            <path id="Trazado_196294" data-name="Trazado 196294" d="M426.049,136.709A8.3,8.3,0,0,1,421,135.685a6.215,6.215,0,0,1-1.047-.847,3.469,3.469,0,0,1,1.757-2.9,6.25,6.25,0,0,1,1.284.62,8.3,8.3,0,0,1,3.058,4.151" transform="translate(-357.986 -104.216)" fill="#363e44"/>
            <path id="Trazado_196295" data-name="Trazado 196295" d="M207.135,66.161a22.032,22.032,0,1,0,22.032-22.032,22.032,22.032,0,0,0-22.032,22.032" transform="translate(-138.422 -34.857)" fill="#e2a18d"/>
            <path id="Trazado_196296" data-name="Trazado 196296" d="M228.377,87.614a22.242,22.242,0,1,0-22.242-22.242,22.152,22.152,0,0,0,22.242,22.242m0-44.064A21.847,21.847,0,0,1,250.2,65.372a21.822,21.822,0,0,1-21.822,21.822,21.822,21.822,0,1,1,0-43.644" transform="translate(-137.632 -34.068)" fill="#fff"/>
            <path id="Trazado_196297" data-name="Trazado 196297" d="M264.571,221.314a18.505,18.505,0,0,0,11.646-4.067.21.21,0,0,0-.262-.329,18.3,18.3,0,0,1-19.464,2.1.21.21,0,1,0-.186.377,18.515,18.515,0,0,0,8.265,1.921" transform="translate(-173.825 -171.305)" fill="#fff"/>
            <path id="Trazado_196298" data-name="Trazado 196298" d="M371.279,92.716a.21.21,0,0,0,.2-.155,18.265,18.265,0,0,1,5.164-8.546.21.21,0,1,0-.287-.307,18.681,18.681,0,0,0-5.282,8.742.21.21,0,0,0,.2.265" transform="translate(-298.38 -66.075)" fill="#fff"/>
            <path id="Trazado_196299" data-name="Trazado 196299" d="M274.041,63.265a.211.211,0,0,0,.113-.033,18.315,18.315,0,0,1,17.522-1.142.21.21,0,1,0,.178-.381,18.735,18.735,0,0,0-17.925,1.168.21.21,0,0,0,.113.387" transform="translate(-193.21 -47.366)" fill="#fff"/>
            <path id="Trazado_196300" data-name="Trazado 196300" d="M228.23,184.575a.21.21,0,0,0,.15-.064,18.831,18.831,0,0,0,4.229-6.787.21.21,0,0,0-.4-.141,18.411,18.411,0,0,1-4.133,6.636.21.21,0,0,0,.15.356" transform="translate(-124.232 -140.16)" fill="#fff"/>
            <path id="Trazado_196301" data-name="Trazado 196301" d="M328.12,133.858a34.346,34.346,0,0,0,14.607,3.562c1.7,0-1.506-13.593-3.118-12.824a34.423,34.423,0,0,0-11.489,9.262" transform="translate(-255.853 -98.392)" fill="#fff"/>
            <path id="Trazado_196302" data-name="Trazado 196302" d="M226.416,115.788a24.369,24.369,0,0,1,5.248-1.83c10.1-2.23,19.838,3.009,19.838,3.009s-6.628,8.855-16.724,11.086a24.228,24.228,0,0,1-5.225.552,13.514,13.514,0,0,1-3.137-12.816" transform="translate(-142.674 -89.577)" fill="#363e44"/>
            <rect id="Rectángulo_45983" data-name="Rectángulo 45983" width="31.683" height="38.041" transform="translate(43.787 113.187)" fill="#d3f9ee"/>
            <rect id="Rectángulo_45984" data-name="Rectángulo 45984" width="31.683" height="58.18" transform="translate(-0.144 93.049)" fill="#d3f9ee"/>
            <rect id="Rectángulo_45985" data-name="Rectángulo 45985" width="31.683" height="82.316" transform="translate(-44.075 68.912)" fill="#d3f9ee"/>
          </g>
          <path id="Trazado_113201" data-name="Trazado 113201" d="M70.342,0H0V20.128a187.948,187.948,0,0,1,33.927,5.323c18.237,4.628,36.416,0,36.416,0Z" transform="translate(-1.252 26.36)" fill="#b1dbea"/>
          <path id="Trazado_113203" data-name="Trazado 113203" d="M70.342,0H0V20.128a187.947,187.947,0,0,1,33.927,5.323c18.237,4.628,36.416,0,36.416,0Z" transform="translate(227.951 26.36)" fill="#126783"/>
          <g id="Grupo_79929" data-name="Grupo 79929" transform="translate(243.163 80.015)">
            <path id="Trazado_113161" data-name="Trazado 113161" d="M-3543.241,1786.571v14.145s.71,9.6,25.286,10.537c24.522.937,25.775-11.123,25.775-11.123v-14.05S-3543.213,1786.615-3543.241,1786.571Z" transform="translate(3543.241 -1778.807)" fill="#1565c0"/>
            <ellipse id="Elipse_4705" data-name="Elipse 4705" cx="25.53" cy="7.584" rx="25.53" ry="7.584" transform="translate(0)" fill="#039be5"/>
          </g>
          <path id="Unión_29" data-name="Unión 29" d="M10.715,12.056H0V3.327H10.715V0l8.872,7.691-8.872,7.691Z" transform="translate(219.744 103.955) rotate(180)" fill="#039be5"/>
          <g id="Grupo_154309" data-name="Grupo 154309" transform="translate(-29.252 21.421)">
            <g id="Grupo_154308" data-name="Grupo 154308" transform="translate(0 21.659)" clip-path="url(#clip-path)">
              <path id="Trazado_196306" data-name="Trazado 196306" d="M.234,163.019a.232.232,0,0,0,.038,0l29.159-4.838,29.793,4.839a.232.232,0,0,0,.189-.053.235.235,0,0,0,.082-.178V123.327a.234.234,0,0,0-.234-.234H54.024l-1.614-2.523a.234.234,0,0,0-.2-.108H41.448a.234.234,0,0,0-.2.115l-1.479,2.515H.234a.234.234,0,0,0-.234.234v39.457a.234.234,0,0,0,.234.234m58.794-39.457V162.51l-29.56-4.8a.243.243,0,0,0-.076,0l-28.924,4.8V123.561H39.9a.233.233,0,0,0,.2-.115l1.479-2.515h10.5l1.615,2.523a.234.234,0,0,0,.2.108Z" transform="translate(22.508 -92.277)" fill="#12263f"/>
              <path id="Trazado_196307" data-name="Trazado 196307" d="M40.727,49.7H81.5a.234.234,0,0,0,.234-.234V12.34a.236.236,0,0,0-.069-.166L69.514.069A.234.234,0,0,0,69.349,0H40.727a.234.234,0,0,0-.234.234v49.23a.234.234,0,0,0,.234.234m40.541-.468H40.961V.469H69.252L81.268,12.437Z" transform="translate(-9.206 -0.001)" fill="#12263f"/>
              <path id="Trazado_196308" data-name="Trazado 196308" d="M50.034,18.758h9.975a.234.234,0,1,0,0-.468H50.268V8.308a.234.234,0,1,0-.468,0V18.524a.234.234,0,0,0,.234.234" transform="translate(10.108 -6.185)" fill="#12263f"/>
              <path id="Trazado_196309" data-name="Trazado 196309" d="M106.768,88.126h40.775a.234.234,0,0,0,.234-.234V50.767a.235.235,0,0,0-.069-.166L135.555,38.5a.234.234,0,0,0-.165-.068H106.768a.234.234,0,0,0-.234.234v49.23a.234.234,0,0,0,.234.234m40.541-.468H107V38.9h28.291l12.015,11.968Z" transform="translate(-90.7 -29.437)" fill="#12263f"/>
              <path id="Trazado_196310" data-name="Trazado 196310" d="M115.841,59.476h10.03a.234.234,0,0,0,0-.468h-9.8V49.726a.234.234,0,1,0-.468,0v9.516a.234.234,0,0,0,.234.234" transform="translate(-71.151 -37.912)" fill="#12263f"/>
              <path id="Trazado_196311" data-name="Trazado 196311" d="M23.616,163.551H82.644l-22.78-39.457H54.5l-3.2-2.63H40.531l-.028,2.63H.836Z" transform="translate(-0.836 -93.043)" fill="#12263f"/>
            </g>
            <g id="Grupo_154312" data-name="Grupo 154312" transform="translate(269.376 9)">
              <path id="Trazado_196312" data-name="Trazado 196312" d="M.531,115.832H82c.294,0,.531-.413.531-.923V22.015c0-.511-.238-.923-.531-.923s-.531.413-.531.923v91.97H.531c-.294,0-.531.413-.531.923s.238.923.531.923" transform="translate(0 -21.092)" fill="#d3bba3"/>
            </g>
          </g>
        </g>
      </g>
    </g>
    <path id="Unión_32" data-name="Unión 32" d="M4732.817,11709.377h81.09l-40.545,9.379Zm0,0,40.545-9.376,40.545,9.376Z" transform="translate(-4242.905 -10356.381)" fill="#fed166"/>
    <path id="Trazado_196313" data-name="Trazado 196313" d="M37.014,0H0V21.786l17.96,6.962,19.055-6.962Z" transform="translate(284.222 1333.626)" fill="#2194e5"/>
    <path id="Unión_31" data-name="Unión 31" d="M35.378,30.856H8.568L0,15.884,8.568,0h45.7l8.569,15.884L54.267,30.856Z" transform="translate(307.723 1383.5)" fill="#2194e5"/>
  </g>
</svg>
