<svg xmlns="http://www.w3.org/2000/svg" xmlns:xlink="http://www.w3.org/1999/xlink" width="110" height="110" viewBox="0 0 110 110">
  <defs>
    <clipPath id="clip-path">
      <rect id="Rect치ngulo_45987" data-name="Rect치ngulo 45987" width="93.87" height="93.89" transform="translate(0 0)" fill="none"/>
    </clipPath>
  </defs>
  <g id="Grupo_134356" data-name="Grupo 134356" transform="translate(-587.816 -1370.39)">
    <rect id="Rect치ngulo_35889" data-name="Rect치ngulo 35889" width="110" height="110" transform="translate(587.816 1370.39)" fill="none"/>
    <g id="Grupo_154313" data-name="Grupo 154313" transform="translate(595.816 1378.391)">
      <g id="Grupo_154313-2" data-name="Grupo 154313" clip-path="url(#clip-path)">
        <path id="Trazado_196316" data-name="Trazado 196316" d="M93.781,21.639a2.8,2.8,0,0,1-3.009,1.85c-5.858-.045-11.716-.017-17.574-.019-1.976,0-2.86-.874-2.861-2.825q0-8.834,0-17.666c0-2.1.838-2.951,2.916-2.952,5.766,0,11.534.037,17.3-.026a3.173,3.173,0,0,1,3.229,1.674Z"/>
        <path id="Trazado_196317" data-name="Trazado 196317" d="M93.781,56.8a2.8,2.8,0,0,1-3.009,1.85c-5.858-.045-11.716-.017-17.574-.019-1.976,0-2.86-.874-2.861-2.825q0-8.833,0-17.666c0-2.1.838-2.951,2.916-2.952,5.766,0,11.534.037,17.3-.026a3.173,3.173,0,0,1,3.229,1.674Z"/>
        <path id="Trazado_196318" data-name="Trazado 196318" d="M71.985,93.8a3.177,3.177,0,0,1-1.674-3.228c.063-5.791.024-11.584.026-17.376,0-1.963.877-2.838,2.841-2.839,5.793,0,11.586.037,17.377-.027a3.175,3.175,0,0,1,3.227,1.675V91.97A1.868,1.868,0,0,1,91.95,93.8Z"/>
        <path id="Trazado_196319" data-name="Trazado 196319" d="M91.95,93.8a3.058,3.058,0,0,0,1.832-1.832c0,.611.238,1.46-.067,1.765s-1.154.067-1.765.067" fill="#f6f9fc"/>
        <path id="Trazado_196320" data-name="Trazado 196320" d="M46.891,27.866q0-7.828,0-15.656c0-1.912.888-2.815,2.784-2.819,2.929-.007,5.859-.013,8.789.005a2.336,2.336,0,0,1,2.369,1.657,2.293,2.293,0,0,1-.865,2.588,2.652,2.652,0,0,1-1.639.467c-1.954-.005-3.907.023-5.86-.015-.644-.012-.892.109-.89.835q.04,14.421,0,28.84c0,.662.206.812.83.8,1.953-.037,3.907-.021,5.86-.01a2.378,2.378,0,1,1-.026,4.712c-1.953.009-3.906.017-5.859-.007-.547-.006-.806.079-.8.73q.031,14.511,0,29.023c0,.568.169.725.726.716,1.984-.031,3.968-.019,5.952-.009a2.378,2.378,0,1,1-.007,4.712q-4.3.014-8.607,0a2.435,2.435,0,0,1-2.758-2.754c0-10.468-.013-20.935.021-31.4,0-.871-.262-1.034-1.062-1.024-3.478.041-6.958.016-10.437.017a2.4,2.4,0,0,1-2.33-1.32,2.179,2.179,0,0,1,.15-2.339,2.527,2.527,0,0,1,2.3-1.062c3.479.011,6.959-.022,10.438.023.778.011.944-.214.939-.961-.034-5.249-.018-10.5-.018-15.747"/>
        <path id="Trazado_196321" data-name="Trazado 196321" d="M23.446,47.006q0,4.438,0,8.878a2.427,2.427,0,0,1-2.754,2.75q-8.97.006-17.941,0A2.428,2.428,0,0,1,0,55.88q0-8.97,0-17.94a2.421,2.421,0,0,1,2.752-2.746q8.97-.006,17.941,0a2.421,2.421,0,0,1,2.749,2.751q.006,4.53,0,9.061"/>
        <path id="Trazado_196322" data-name="Trazado 196322" d="M74.948,11.753c0-2.073.02-4.146-.012-6.218-.01-.661.179-.915.877-.911q6.264.039,12.529,0c.645,0,.842.224.839.853q-.03,6.264,0,12.529c0,.617-.172.866-.828.862q-6.311-.033-12.621,0c-.6,0-.8-.217-.792-.805.023-2.1.009-4.207.009-6.31" fill="#25e0ac"/>
        <path id="Trazado_196323" data-name="Trazado 196323" d="M89.2,46.994c0,2.044-.024,4.089.013,6.133.013.732-.259.946-.964.942q-6.18-.036-12.359,0c-.773.006-.994-.264-.989-1.011q.042-6.134,0-12.267c-.007-.816.271-1.042,1.059-1.036q6.133.048,12.268,0c.772-.006,1,.263.989,1.011-.04,2.075-.014,4.15-.014,6.225" fill="#20bdfc"/>
        <path id="Trazado_196324" data-name="Trazado 196324" d="M74.948,81.984c0-2.042.022-4.085-.012-6.127-.011-.671.2-.9.886-.9q6.219.038,12.438,0c.643,0,.928.148.924.862q-.041,6.264,0,12.529c0,.628-.193.856-.839.853q-6.264-.033-12.529,0c-.7,0-.887-.249-.877-.91.032-2.1.012-4.207.012-6.31" fill="#25e0ac"/>
        <path id="Trazado_196325" data-name="Trazado 196325" d="M18.866,46.944c0,2.044-.028,4.089.014,6.133.016.77-.256,1-1.008.993q-6.133-.043-12.267,0c-.812.007-1.046-.264-1.04-1.056q.049-6.132,0-12.266c-.005-.769.258-1,1.009-.992q6.133.042,12.267,0c.813-.007,1.057.263,1.039,1.056-.045,2.043-.015,4.089-.015,6.133" fill="#fed166"/>
      </g>
    </g>
  </g>
</svg>
