<svg xmlns="http://www.w3.org/2000/svg" width="649.844" height="196.324" viewBox="0 0 649.844 196.324">
  <g id="Grupo_154611" data-name="Grupo 154611" transform="translate(5500.659 8507)">
    <path id="Trazado_198006" data-name="Trazado 198006" d="M11,0H155.844a11,11,0,0,1,11,11V26.325a11,11,0,0,1-11,11H11a11,11,0,0,1-11-11V11A11,11,0,0,1,11,0Z" transform="translate(-5180.659 -8348)" fill="#b1dbea"/>
    <path id="Trazado_198007" data-name="Trazado 198007" d="M11,0H117.912a11,11,0,0,1,11,11V26.325a11,11,0,0,1-11,11H11a11,11,0,0,1-11-11V11A11,11,0,0,1,11,0Z" transform="translate(-5357.659 -8348)" fill="#b1dbea"/>
    <path id="Trazado_198008" data-name="Trazado 198008" d="M11,0H62.8a11,11,0,0,1,11,11V26.325a11,11,0,0,1-11,11H11a11,11,0,0,1-11-11V11A11,11,0,0,1,11,0Z" transform="translate(-5476.659 -8348)" fill="#b1dbea"/>
    <path id="Trazado_198009" data-name="Trazado 198009" d="M13.448,17H10.381L5.846,9.037V17H2.761V4.2H5.846l4.526,7.963V4.2h3.076Zm12.788-6.135a7.546,7.546,0,0,1-.694,3.313A5.132,5.132,0,0,1,23.569,16.4a5.494,5.494,0,0,1-2.914.778,5.572,5.572,0,0,1-2.9-.751,5.123,5.123,0,0,1-1.973-2.149,7.329,7.329,0,0,1-.743-3.208v-.721a7.58,7.58,0,0,1,.69-3.318A5.119,5.119,0,0,1,17.707,4.81,5.854,5.854,0,0,1,23.538,4.8,5.211,5.211,0,0,1,25.52,7a7.362,7.362,0,0,1,.716,3.274ZM23.1,10.329a5.381,5.381,0,0,0-.637-2.9,2.044,2.044,0,0,0-1.824-.989q-2.32,0-2.452,3.48l-.009.94a5.535,5.535,0,0,0,.624,2.892,2.041,2.041,0,0,0,1.854,1.011,2.016,2.016,0,0,0,1.8-.993,5.383,5.383,0,0,0,.642-2.856Z" transform="translate(-5063.518 -8490.829)" fill="#12263f"/>
    <path id="Trazado_198010" data-name="Trazado 198010" d="M11.611,11.9H6.636V17H3.551V4.2h8.561V6.585H6.636V9.529h4.975ZM16.682,17H13.606V4.2h3.076Zm12.832,0H26.447L21.912,9.037V17H18.827V4.2h3.085l4.526,7.963V4.2h3.076Z" transform="translate(-5456.659 -8339.001)" fill="#12263f"/>
    <path id="Trazado_198011" data-name="Trazado 198011" d="M12.79,13.6a1.268,1.268,0,0,0-.479-1.055,5.954,5.954,0,0,0-1.683-.782,16.147,16.147,0,0,1-1.969-.782Q6.172,9.758,6.172,7.622a3.011,3.011,0,0,1,.62-1.876A4.008,4.008,0,0,1,8.545,4.48a6.823,6.823,0,0,1,2.549-.453,5.969,5.969,0,0,1,2.474.492,3.917,3.917,0,0,1,1.7,1.4A3.661,3.661,0,0,1,15.875,8H12.8a1.547,1.547,0,0,0-.479-1.213,1.867,1.867,0,0,0-1.3-.431,2.106,2.106,0,0,0-1.305.365,1.074,1.074,0,0,0,.048,1.819,6.65,6.65,0,0,0,1.854.826,11.36,11.36,0,0,1,2.18.918,3.663,3.663,0,0,1,2.074,3.3,3.125,3.125,0,0,1-1.266,2.637,5.629,5.629,0,0,1-3.472.958,6.888,6.888,0,0,1-2.817-.558,4.247,4.247,0,0,1-1.9-1.529,3.985,3.985,0,0,1-.637-2.237H8.879a1.963,1.963,0,0,0,.532,1.516,2.513,2.513,0,0,0,1.727.488,1.985,1.985,0,0,0,1.208-.33A1.088,1.088,0,0,0,12.79,13.6ZM20.744,17H17.668V4.2h3.076Z" transform="translate(-5136.532 -8384.945)" fill="#12263f"/>
    <path id="Trazado_198012" data-name="Trazado 198012" d="M2.747,14H1.34V3.336H2.747Zm3.64-7.925.044,1A2.888,2.888,0,0,1,8.8,5.929q2.512,0,2.534,2.834V14H9.983V8.756a1.824,1.824,0,0,0-.392-1.267,1.57,1.57,0,0,0-1.2-.41,1.956,1.956,0,0,0-1.157.352,2.387,2.387,0,0,0-.776.923V14H5.1V6.075ZM18,11.9a1,1,0,0,0-.414-.853,3.983,3.983,0,0,0-1.443-.524,6.822,6.822,0,0,1-1.633-.527,2.324,2.324,0,0,1-.894-.732,1.752,1.752,0,0,1-.289-1.011A2.056,2.056,0,0,1,14.147,6.6a3.218,3.218,0,0,1,2.106-.674,3.311,3.311,0,0,1,2.186.7,2.21,2.21,0,0,1,.839,1.78H17.915a1.223,1.223,0,0,0-.472-.959,1.77,1.77,0,0,0-1.19-.4,1.852,1.852,0,0,0-1.157.322,1.014,1.014,0,0,0-.417.842.822.822,0,0,0,.388.74,4.776,4.776,0,0,0,1.4.476,7.308,7.308,0,0,1,1.644.542,2.4,2.4,0,0,1,.934.758,1.864,1.864,0,0,1,.3,1.08,2.028,2.028,0,0,1-.85,1.7,3.564,3.564,0,0,1-2.2.641,3.991,3.991,0,0,1-1.685-.337,2.74,2.74,0,0,1-1.146-.941,2.268,2.268,0,0,1-.414-1.307h1.355a1.4,1.4,0,0,0,.546,1.08,2.117,2.117,0,0,0,1.344.4,2.185,2.185,0,0,0,1.234-.311A.956.956,0,0,0,18,11.9ZM24.4,14.146a3.463,3.463,0,0,1-2.622-1.058,3.928,3.928,0,0,1-1.011-2.831v-.249a4.756,4.756,0,0,1,.45-2.106,3.514,3.514,0,0,1,1.26-1.45,3.167,3.167,0,0,1,1.754-.524,2.968,2.968,0,0,1,2.4,1.018A4.408,4.408,0,0,1,27.5,9.862v.564H22.126a2.817,2.817,0,0,0,.685,1.893,2.153,2.153,0,0,0,1.666.721,2.36,2.36,0,0,0,1.216-.293,3.055,3.055,0,0,0,.872-.776l.828.645A3.328,3.328,0,0,1,24.4,14.146Zm-.168-7.1a1.807,1.807,0,0,0-1.377.6,2.9,2.9,0,0,0-.688,1.674h3.97v-.1a2.581,2.581,0,0,0-.557-1.6A1.7,1.7,0,0,0,24.236,7.042Zm8.657.249a4.061,4.061,0,0,0-.667-.051,1.786,1.786,0,0,0-1.809,1.135V14H29.063V6.075h1.318l.022.916a2.11,2.11,0,0,1,1.89-1.062,1.384,1.384,0,0,1,.6.1Zm3.45-3.135V6.075h1.479V7.123H36.343v4.921a1.1,1.1,0,0,0,.2.715.832.832,0,0,0,.674.238,3.281,3.281,0,0,0,.645-.088V14a3.951,3.951,0,0,1-1.04.146,1.687,1.687,0,0,1-1.37-.549,2.36,2.36,0,0,1-.461-1.56V7.123H33.545V6.075h1.443V4.156ZM44.3,14a2.846,2.846,0,0,1-.19-.835,3.023,3.023,0,0,1-2.256.981,2.8,2.8,0,0,1-1.923-.663,2.145,2.145,0,0,1-.751-1.681,2.24,2.24,0,0,1,.941-1.923A4.437,4.437,0,0,1,42.766,9.2h1.318V8.573a1.522,1.522,0,0,0-.425-1.132,1.707,1.707,0,0,0-1.252-.421,1.976,1.976,0,0,0-1.216.366,1.079,1.079,0,0,0-.491.886H39.338a1.87,1.87,0,0,1,.421-1.146A2.874,2.874,0,0,1,40.9,6.251a3.844,3.844,0,0,1,1.586-.322,3.133,3.133,0,0,1,2.146.685A2.47,2.47,0,0,1,45.439,8.5v3.647a4.459,4.459,0,0,0,.278,1.736V14Zm-2.249-1.033a2.381,2.381,0,0,0,1.208-.33,1.994,1.994,0,0,0,.828-.857V10.155H43.022q-2.49,0-2.49,1.458a1.234,1.234,0,0,0,.425,1A1.633,1.633,0,0,0,42.048,12.967Zm9.346-5.676a4.061,4.061,0,0,0-.667-.051,1.786,1.786,0,0,0-1.809,1.135V14H47.563V6.075h1.318l.022.916a2.11,2.11,0,0,1,1.89-1.062,1.384,1.384,0,0,1,.6.1ZM56.565,14V3.336h3.01a4.846,4.846,0,0,1,2.461.615A4.161,4.161,0,0,1,63.688,5.7a5.7,5.7,0,0,1,.59,2.607V8.99a5.718,5.718,0,0,1-.582,2.644,4.1,4.1,0,0,1-1.663,1.743A5.155,5.155,0,0,1,59.517,14Zm1.406-9.514V12.85h1.479a3.219,3.219,0,0,0,2.531-1.012,4.18,4.18,0,0,0,.9-2.881V8.334a4.246,4.246,0,0,0-.853-2.826,3.036,3.036,0,0,0-2.421-1.023Zm11.8,7.646,3.047-8.8h1.538L70.4,14H69.155L65.208,3.336h1.531ZM75.784,14V3.336h3.01a4.846,4.846,0,0,1,2.461.615A4.161,4.161,0,0,1,82.906,5.7a5.7,5.7,0,0,1,.59,2.607V8.99a5.718,5.718,0,0,1-.582,2.644,4.1,4.1,0,0,1-1.663,1.743A5.155,5.155,0,0,1,78.735,14ZM77.19,4.486V12.85h1.479A3.219,3.219,0,0,0,81.2,11.838a4.18,4.18,0,0,0,.9-2.881V8.334a4.246,4.246,0,0,0-.853-2.826,3.036,3.036,0,0,0-2.421-1.023Zm11.6,5.486a4.642,4.642,0,0,1,.864-2.933,2.941,2.941,0,0,1,4.468-.157V2.75h1.355V14H94.233l-.066-.85a2.759,2.759,0,0,1-2.263,1,2.707,2.707,0,0,1-2.245-1.128,4.7,4.7,0,0,1-.868-2.944Zm1.355.154a3.515,3.515,0,0,0,.557,2.109A1.8,1.8,0,0,0,92.241,13a1.977,1.977,0,0,0,1.882-1.157V8.2a1.992,1.992,0,0,0-1.868-1.121,1.808,1.808,0,0,0-1.553.769A3.87,3.87,0,0,0,90.146,10.125Zm10.723,4.021a3.463,3.463,0,0,1-2.622-1.058,3.928,3.928,0,0,1-1.011-2.831v-.249a4.756,4.756,0,0,1,.45-2.106,3.514,3.514,0,0,1,1.26-1.45,3.167,3.167,0,0,1,1.754-.524,2.968,2.968,0,0,1,2.4,1.018,4.408,4.408,0,0,1,.857,2.915v.564H98.591a2.817,2.817,0,0,0,.685,1.893,2.153,2.153,0,0,0,1.666.721,2.36,2.36,0,0,0,1.216-.293,3.055,3.055,0,0,0,.872-.776l.828.645A3.328,3.328,0,0,1,100.869,14.146Zm-.168-7.1a1.807,1.807,0,0,0-1.377.6,2.9,2.9,0,0,0-.688,1.674h3.97v-.1a2.581,2.581,0,0,0-.557-1.6A1.7,1.7,0,0,0,100.7,7.042Zm9.441,4.856a1,1,0,0,0-.414-.853,3.983,3.983,0,0,0-1.443-.524,6.822,6.822,0,0,1-1.633-.527,2.324,2.324,0,0,1-.894-.732,1.752,1.752,0,0,1-.289-1.011,2.056,2.056,0,0,1,.824-1.648,3.218,3.218,0,0,1,2.106-.674,3.311,3.311,0,0,1,2.186.7,2.21,2.21,0,0,1,.839,1.78h-1.362a1.223,1.223,0,0,0-.472-.959,1.77,1.77,0,0,0-1.19-.4,1.852,1.852,0,0,0-1.157.322,1.014,1.014,0,0,0-.417.842.822.822,0,0,0,.388.74,4.776,4.776,0,0,0,1.4.476,7.308,7.308,0,0,1,1.644.542,2.4,2.4,0,0,1,.934.758,1.864,1.864,0,0,1,.3,1.08,2.028,2.028,0,0,1-.85,1.7,3.564,3.564,0,0,1-2.2.641,3.991,3.991,0,0,1-1.685-.337,2.74,2.74,0,0,1-1.146-.941,2.268,2.268,0,0,1-.414-1.307h1.355a1.4,1.4,0,0,0,.546,1.08,2.117,2.117,0,0,0,1.344.4,2.185,2.185,0,0,0,1.234-.311A.956.956,0,0,0,110.142,11.9Zm6.409,2.249a3.463,3.463,0,0,1-2.622-1.058,3.928,3.928,0,0,1-1.011-2.831v-.249a4.756,4.756,0,0,1,.45-2.106,3.514,3.514,0,0,1,1.26-1.45,3.167,3.167,0,0,1,1.754-.524,2.968,2.968,0,0,1,2.4,1.018,4.408,4.408,0,0,1,.857,2.915v.564h-5.369a2.817,2.817,0,0,0,.685,1.893,2.153,2.153,0,0,0,1.666.721,2.36,2.36,0,0,0,1.216-.293,3.055,3.055,0,0,0,.872-.776l.828.645A3.328,3.328,0,0,1,116.55,14.146Zm-.168-7.1a1.807,1.807,0,0,0-1.377.6,2.9,2.9,0,0,0-.688,1.674h3.97v-.1a2.581,2.581,0,0,0-.557-1.6A1.7,1.7,0,0,0,116.382,7.042ZM126.1,14a2.846,2.846,0,0,1-.19-.835,3.023,3.023,0,0,1-2.256.981,2.8,2.8,0,0,1-1.923-.663,2.145,2.145,0,0,1-.751-1.681,2.24,2.24,0,0,1,.941-1.923A4.437,4.437,0,0,1,124.57,9.2h1.318V8.573a1.522,1.522,0,0,0-.425-1.132,1.707,1.707,0,0,0-1.252-.421A1.976,1.976,0,0,0,123,7.386a1.079,1.079,0,0,0-.491.886h-1.362a1.87,1.87,0,0,1,.421-1.146,2.874,2.874,0,0,1,1.143-.875,3.844,3.844,0,0,1,1.586-.322,3.133,3.133,0,0,1,2.146.685,2.47,2.47,0,0,1,.806,1.886v3.647a4.459,4.459,0,0,0,.278,1.736V14Zm-2.249-1.033a2.381,2.381,0,0,0,1.208-.33,1.994,1.994,0,0,0,.828-.857V10.155h-1.062q-2.49,0-2.49,1.458a1.234,1.234,0,0,0,.425,1A1.633,1.633,0,0,0,123.853,12.967Zm5.186-3a4.642,4.642,0,0,1,.864-2.933,2.941,2.941,0,0,1,4.468-.157V2.75h1.355V14H134.48l-.066-.85a2.759,2.759,0,0,1-2.263,1,2.707,2.707,0,0,1-2.245-1.128,4.7,4.7,0,0,1-.868-2.944Zm1.355.154a3.515,3.515,0,0,0,.557,2.109,1.8,1.8,0,0,0,1.538.762,1.977,1.977,0,0,0,1.882-1.157V8.2A1.992,1.992,0,0,0,132.5,7.079a1.808,1.808,0,0,0-1.553.769A3.87,3.87,0,0,0,130.393,10.125Zm7.075-.161a4.681,4.681,0,0,1,.458-2.095A3.415,3.415,0,0,1,139.2,6.434a3.469,3.469,0,0,1,1.864-.505,3.342,3.342,0,0,1,2.618,1.121,4.311,4.311,0,0,1,1,2.981v.1a4.722,4.722,0,0,1-.443,2.076,3.365,3.365,0,0,1-1.267,1.432,3.509,3.509,0,0,1-1.893.513,3.334,3.334,0,0,1-2.611-1.121,4.29,4.29,0,0,1-1-2.966Zm1.362.161a3.39,3.39,0,0,0,.612,2.117,2.072,2.072,0,0,0,3.278-.011,3.707,3.707,0,0,0,.608-2.267,3.384,3.384,0,0,0-.619-2.113,1.968,1.968,0,0,0-1.644-.809,1.946,1.946,0,0,0-1.619.8A3.68,3.68,0,0,0,138.831,10.125Z" transform="translate(-5171.659 -8338)" fill="#12263f"/>
    <path id="Trazado_198013" data-name="Trazado 198013" d="M2.644,9.825V14H1.238V3.336H5.171a3.952,3.952,0,0,1,2.743.894A3.029,3.029,0,0,1,8.906,6.6a2.989,2.989,0,0,1-.97,2.391,4.128,4.128,0,0,1-2.78.839Zm0-1.15H5.171A2.526,2.526,0,0,0,6.9,8.143a1.945,1.945,0,0,0,.6-1.537A2.009,2.009,0,0,0,6.9,5.08a2.367,2.367,0,0,0-1.648-.594H2.644ZM14.319,7.291a4.061,4.061,0,0,0-.667-.051,1.786,1.786,0,0,0-1.809,1.135V14H10.488V6.075h1.318l.022.916a2.11,2.11,0,0,1,1.89-1.062,1.384,1.384,0,0,1,.6.1Zm4.395,6.855a3.463,3.463,0,0,1-2.622-1.058,3.928,3.928,0,0,1-1.011-2.831v-.249a4.756,4.756,0,0,1,.45-2.106,3.514,3.514,0,0,1,1.26-1.45,3.167,3.167,0,0,1,1.754-.524,2.968,2.968,0,0,1,2.4,1.018A4.408,4.408,0,0,1,21.8,9.862v.564H16.436a2.817,2.817,0,0,0,.685,1.893,2.153,2.153,0,0,0,1.666.721A2.36,2.36,0,0,0,20,12.748a3.055,3.055,0,0,0,.872-.776l.828.645A3.328,3.328,0,0,1,18.713,14.146Zm-.168-7.1a1.807,1.807,0,0,0-1.377.6,2.9,2.9,0,0,0-.688,1.674h3.97v-.1a2.581,2.581,0,0,0-.557-1.6A1.7,1.7,0,0,0,18.545,7.042ZM27.986,11.9a1,1,0,0,0-.414-.853,3.983,3.983,0,0,0-1.443-.524A6.822,6.822,0,0,1,24.5,9.994a2.324,2.324,0,0,1-.894-.732,1.752,1.752,0,0,1-.289-1.011A2.056,2.056,0,0,1,24.137,6.6a3.218,3.218,0,0,1,2.106-.674,3.311,3.311,0,0,1,2.186.7,2.21,2.21,0,0,1,.839,1.78H27.905a1.223,1.223,0,0,0-.472-.959,1.77,1.77,0,0,0-1.19-.4,1.852,1.852,0,0,0-1.157.322,1.014,1.014,0,0,0-.417.842.822.822,0,0,0,.388.74,4.776,4.776,0,0,0,1.4.476,7.308,7.308,0,0,1,1.644.542,2.4,2.4,0,0,1,.934.758,1.864,1.864,0,0,1,.3,1.08,2.028,2.028,0,0,1-.85,1.7,3.564,3.564,0,0,1-2.2.641A3.991,3.991,0,0,1,24.6,13.81a2.74,2.74,0,0,1-1.146-.941,2.268,2.268,0,0,1-.414-1.307H24.4a1.4,1.4,0,0,0,.546,1.08,2.117,2.117,0,0,0,1.344.4,2.185,2.185,0,0,0,1.234-.311A.956.956,0,0,0,27.986,11.9ZM32.578,14H31.223V6.075h1.355ZM31.113,3.973a.809.809,0,0,1,.2-.557.756.756,0,0,1,.6-.227.768.768,0,0,1,.6.227.8.8,0,0,1,.205.557.774.774,0,0,1-.205.549.782.782,0,0,1-.6.22.77.77,0,0,1-.6-.22A.782.782,0,0,1,31.113,3.973Zm3.274,5.991a4.681,4.681,0,0,1,.458-2.095,3.415,3.415,0,0,1,1.274-1.436,3.469,3.469,0,0,1,1.864-.505A3.342,3.342,0,0,1,40.6,7.049a4.311,4.311,0,0,1,1,2.981v.1a4.722,4.722,0,0,1-.443,2.076,3.365,3.365,0,0,1-1.267,1.432A3.509,3.509,0,0,1,38,14.146a3.334,3.334,0,0,1-2.611-1.121,4.29,4.29,0,0,1-1-2.966Zm1.362.161a3.39,3.39,0,0,0,.612,2.117,2.072,2.072,0,0,0,3.278-.011,3.707,3.707,0,0,0,.608-2.267,3.384,3.384,0,0,0-.619-2.113,1.968,1.968,0,0,0-1.644-.809,1.946,1.946,0,0,0-1.619.8A3.68,3.68,0,0,0,35.75,10.125Zm8.833-4.05.044,1A2.888,2.888,0,0,1,47,5.929q2.512,0,2.534,2.834V14H48.179V8.756a1.824,1.824,0,0,0-.392-1.267,1.57,1.57,0,0,0-1.2-.41,1.956,1.956,0,0,0-1.157.352,2.387,2.387,0,0,0-.776.923V14H43.3V6.075ZM56.47,14a2.846,2.846,0,0,1-.19-.835,3.023,3.023,0,0,1-2.256.981,2.8,2.8,0,0,1-1.923-.663A2.145,2.145,0,0,1,51.35,11.8a2.24,2.24,0,0,1,.941-1.923A4.437,4.437,0,0,1,54.939,9.2h1.318V8.573a1.522,1.522,0,0,0-.425-1.132A1.707,1.707,0,0,0,54.58,7.02a1.976,1.976,0,0,0-1.216.366,1.079,1.079,0,0,0-.491.886H51.511a1.87,1.87,0,0,1,.421-1.146,2.874,2.874,0,0,1,1.143-.875,3.844,3.844,0,0,1,1.586-.322,3.133,3.133,0,0,1,2.146.685A2.47,2.47,0,0,1,57.612,8.5v3.647a4.459,4.459,0,0,0,.278,1.736V14Zm-2.249-1.033a2.381,2.381,0,0,0,1.208-.33,1.994,1.994,0,0,0,.828-.857V10.155H55.2q-2.49,0-2.49,1.458a1.234,1.234,0,0,0,.425,1A1.633,1.633,0,0,0,54.221,12.967Zm9.346-5.676A4.061,4.061,0,0,0,62.9,7.24a1.786,1.786,0,0,0-1.809,1.135V14H59.736V6.075h1.318l.022.916a2.11,2.11,0,0,1,1.89-1.062,1.384,1.384,0,0,1,.6.1Zm5.969-4.68.776.527a3.454,3.454,0,0,0-.7,2.007v1H68.262v-.85a3.36,3.36,0,0,1,.355-1.479A3.547,3.547,0,0,1,69.536,2.611Zm2.307,0,.776.527a3.454,3.454,0,0,0-.7,2.007v1H70.569v-.85a3.36,3.36,0,0,1,.355-1.479A3.547,3.547,0,0,1,71.843,2.611Zm8.533,7.515a4.745,4.745,0,0,1-.828,2.915,2.653,2.653,0,0,1-2.241,1.106,2.906,2.906,0,0,1-2.271-.916v3.816H73.682V6.075h1.238l.066.879a2.791,2.791,0,0,1,2.3-1.025,2.7,2.7,0,0,1,2.26,1.077,4.8,4.8,0,0,1,.831,3Zm-1.355-.154a3.5,3.5,0,0,0-.571-2.117,1.84,1.84,0,0,0-1.567-.776A1.992,1.992,0,0,0,75.037,8.17v3.787a2,2,0,0,0,1.86,1.084,1.832,1.832,0,0,0,1.549-.773A3.822,3.822,0,0,0,79.021,9.972ZM83.569,14H82.214V2.75h1.355Zm7.061,0a2.846,2.846,0,0,1-.19-.835,3.023,3.023,0,0,1-2.256.981,2.8,2.8,0,0,1-1.923-.663A2.145,2.145,0,0,1,85.51,11.8a2.24,2.24,0,0,1,.941-1.923A4.437,4.437,0,0,1,89.1,9.2h1.318V8.573a1.522,1.522,0,0,0-.425-1.132A1.707,1.707,0,0,0,88.74,7.02a1.976,1.976,0,0,0-1.216.366,1.079,1.079,0,0,0-.491.886H85.671a1.87,1.87,0,0,1,.421-1.146,2.874,2.874,0,0,1,1.143-.875,3.844,3.844,0,0,1,1.586-.322,3.133,3.133,0,0,1,2.146.685A2.47,2.47,0,0,1,91.772,8.5v3.647a4.459,4.459,0,0,0,.278,1.736V14Zm-2.249-1.033a2.381,2.381,0,0,0,1.208-.33,1.994,1.994,0,0,0,.828-.857V10.155H89.355q-2.49,0-2.49,1.458a1.234,1.234,0,0,0,.425,1A1.633,1.633,0,0,0,88.381,12.967Zm8-.952,1.846-5.94h1.45l-3.186,9.148Q95.75,17.2,94.138,17.2l-.256-.022-.505-.1v-1.1l.366.029a1.8,1.8,0,0,0,1.073-.278,2.014,2.014,0,0,0,.634-1.018l.3-.806L92.922,6.075H94.4Zm4.8-5.676-.769-.527a3.526,3.526,0,0,0,.7-2.007V2.75h1.34V3.7a3.387,3.387,0,0,1-.363,1.461A3.371,3.371,0,0,1,101.177,6.339Zm2.249,0-.769-.527a3.526,3.526,0,0,0,.7-2.007V2.75h1.34V3.7a3.387,3.387,0,0,1-.363,1.461A3.371,3.371,0,0,1,103.425,6.339Z" transform="translate(-5350.659 -8338)" fill="#12263f"/>
    <g id="Grupo_134369" data-name="Grupo 134369" transform="translate(-5423.659 -8451.111)">
      <line id="Línea_169" data-name="Línea 169" x2="35.119" transform="translate(0 6.362)" fill="none" stroke="#126783" stroke-width="4"/>
      <path id="Polígono_14" data-name="Polígono 14" d="M5.938,0l5.938,10.179H0Z" transform="translate(40.929 0) rotate(90)" fill="#126783"/>
    </g>
    <g id="Grupo_134370" data-name="Grupo 134370" transform="translate(-5207.151 -8451.111)">
      <line id="Línea_169-2" data-name="Línea 169" x2="35.119" transform="translate(0 6.362)" fill="none" stroke="#126783" stroke-width="4"/>
      <path id="Polígono_14-2" data-name="Polígono 14" d="M5.938,0l5.938,10.179H0Z" transform="translate(40.929 0) rotate(90)" fill="#126783"/>
    </g>
    <g id="Grupo_134371" data-name="Grupo 134371" transform="translate(-5046.825 -8451.111)">
      <line id="Línea_169-3" data-name="Línea 169" x2="35.119" transform="translate(0 6.362)" fill="none" stroke="#126783" stroke-width="4"/>
      <path id="Polígono_14-3" data-name="Polígono 14" d="M5.938,0l5.938,10.179H0Z" transform="translate(40.929 0) rotate(90)" fill="#126783"/>
    </g>
    <g id="Grupo_134374" data-name="Grupo 134374" transform="translate(-5097.508 -8390.877) rotate(90)">
      <line id="Línea_169-4" data-name="Línea 169" x2="35.119" transform="translate(0 6.362)" fill="none" stroke="#126783" stroke-width="4"/>
      <path id="Polígono_14-4" data-name="Polígono 14" d="M5.938,0l5.938,10.179H0Z" transform="translate(40.929) rotate(90)" fill="#126783"/>
    </g>
    <g id="Grupo_134372" data-name="Grupo 134372" transform="translate(-5226.588 -8334.896)">
      <line id="Línea_169-5" data-name="Línea 169" x1="35.119" transform="translate(5.81 6.362)" fill="none" stroke="#126783" stroke-width="4"/>
      <path id="Polígono_14-5" data-name="Polígono 14" d="M5.938,0l5.938,10.179H0Z" transform="translate(0 11.876) rotate(-90)" fill="#126783"/>
    </g>
    <g id="Grupo_134373" data-name="Grupo 134373" transform="translate(-5402.858 -8334.896)">
      <line id="Línea_169-6" data-name="Línea 169" x1="35.119" transform="translate(5.81 6.362)" fill="none" stroke="#126783" stroke-width="4"/>
      <path id="Polígono_14-6" data-name="Polígono 14" d="M5.938,0l5.938,10.179H0Z" transform="translate(0 11.876) rotate(-90)" fill="#126783"/>
    </g>
    <path id="Trazado_198014" data-name="Trazado 198014" d="M0,0H88.507V88.507H0Z" transform="translate(-5103.076 -8507) rotate(45)" fill="#20bdfc"/>
    <path id="Trazado_198015" data-name="Trazado 198015" d="M4.307,9.02a4.294,4.294,0,0,1-.157,1.241,2.774,2.774,0,0,1-.5.9Q3.3,11.59,2.622,12.3a2.507,2.507,0,0,0-.754,1.432L1.853,14a1.643,1.643,0,0,0,.425,1.219,1.664,1.664,0,0,0,1.223.421,1.707,1.707,0,0,0,1.19-.414,1.388,1.388,0,0,0,.458-1.08H6.5a2.527,2.527,0,0,1-.839,1.926A3.1,3.1,0,0,1,3.5,16.82a3.118,3.118,0,0,1-2.219-.736A2.672,2.672,0,0,1,.5,14.037,3.822,3.822,0,0,1,1.67,11.488l.8-.828A2.473,2.473,0,0,0,2.952,9.02ZM4.365,6.7a.815.815,0,0,1-.2.559.754.754,0,0,1-.6.228.766.766,0,0,1-.6-.228A.806.806,0,0,1,2.761,6.7a.77.77,0,0,1,.205-.545.78.78,0,0,1,.6-.221.768.768,0,0,1,.6.221A.778.778,0,0,1,4.365,6.7Zm10,2.369H9.741V12.85H15.11V14H8.335V3.336h6.7v1.15h-5.3V7.921h4.622Zm6.9,2.827a1,1,0,0,0-.414-.853,3.983,3.983,0,0,0-1.443-.524,6.822,6.822,0,0,1-1.633-.527,2.324,2.324,0,0,1-.894-.732,1.752,1.752,0,0,1-.289-1.011A2.056,2.056,0,0,1,17.413,6.6a3.218,3.218,0,0,1,2.106-.674,3.311,3.311,0,0,1,2.186.7,2.21,2.21,0,0,1,.839,1.78H21.182a1.223,1.223,0,0,0-.472-.959,1.77,1.77,0,0,0-1.19-.4,1.852,1.852,0,0,0-1.157.322,1.014,1.014,0,0,0-.417.842.822.822,0,0,0,.388.74,4.776,4.776,0,0,0,1.4.476,7.308,7.308,0,0,1,1.644.542,2.4,2.4,0,0,1,.934.758,1.864,1.864,0,0,1,.3,1.08,2.028,2.028,0,0,1-.85,1.7,3.564,3.564,0,0,1-2.2.641,3.991,3.991,0,0,1-1.685-.337,2.74,2.74,0,0,1-1.146-.941,2.268,2.268,0,0,1-.414-1.307h1.355a1.4,1.4,0,0,0,.546,1.08,2.117,2.117,0,0,0,1.344.4,2.185,2.185,0,0,0,1.234-.311A.956.956,0,0,0,21.262,11.9Zm4.958-7.742V6.075H27.7V7.123H26.221v4.921a1.1,1.1,0,0,0,.2.715.832.832,0,0,0,.674.238,3.281,3.281,0,0,0,.645-.088V14a3.951,3.951,0,0,1-1.04.146,1.687,1.687,0,0,1-1.37-.549,2.36,2.36,0,0,1-.461-1.56V7.123H23.423V6.075h1.443V4.156ZM34.175,14a2.846,2.846,0,0,1-.19-.835,3.023,3.023,0,0,1-2.256.981,2.8,2.8,0,0,1-1.923-.663,2.145,2.145,0,0,1-.751-1.681A2.24,2.24,0,0,1,30,9.88,4.437,4.437,0,0,1,32.644,9.2h1.318V8.573a1.522,1.522,0,0,0-.425-1.132,1.707,1.707,0,0,0-1.252-.421,1.976,1.976,0,0,0-1.216.366,1.079,1.079,0,0,0-.491.886H29.216a1.87,1.87,0,0,1,.421-1.146,2.874,2.874,0,0,1,1.143-.875,3.844,3.844,0,0,1,1.586-.322,3.133,3.133,0,0,1,2.146.685A2.47,2.47,0,0,1,35.317,8.5v3.647a4.459,4.459,0,0,0,.278,1.736V14Zm-2.249-1.033a2.381,2.381,0,0,0,1.208-.33,1.994,1.994,0,0,0,.828-.857V10.155H32.9q-2.49,0-2.49,1.458a1.234,1.234,0,0,0,.425,1A1.633,1.633,0,0,0,31.926,12.967Zm1.252-10.2h1.641L32.856,4.918l-1.091,0Zm10.591,9.4,1.963-6.086h1.384L44.275,14H43.242L40.371,6.075h1.384ZM53.2,14a2.846,2.846,0,0,1-.19-.835,3.023,3.023,0,0,1-2.256.981,2.8,2.8,0,0,1-1.923-.663,2.145,2.145,0,0,1-.751-1.681,2.24,2.24,0,0,1,.941-1.923A4.437,4.437,0,0,1,51.672,9.2h1.318V8.573a1.522,1.522,0,0,0-.425-1.132,1.707,1.707,0,0,0-1.252-.421,1.976,1.976,0,0,0-1.216.366,1.079,1.079,0,0,0-.491.886H48.245a1.87,1.87,0,0,1,.421-1.146,2.874,2.874,0,0,1,1.143-.875,3.844,3.844,0,0,1,1.586-.322,3.133,3.133,0,0,1,2.146.685A2.47,2.47,0,0,1,54.346,8.5v3.647a4.459,4.459,0,0,0,.278,1.736V14Zm-2.249-1.033a2.381,2.381,0,0,0,1.208-.33,1.994,1.994,0,0,0,.828-.857V10.155H51.929q-2.49,0-2.49,1.458a1.234,1.234,0,0,0,.425,1A1.633,1.633,0,0,0,50.955,12.967Zm8.694.073a1.952,1.952,0,0,0,1.267-.439,1.546,1.546,0,0,0,.6-1.1H62.8a2.457,2.457,0,0,1-.469,1.3,3.087,3.087,0,0,1-1.154.981,3.329,3.329,0,0,1-1.527.366,3.265,3.265,0,0,1-2.574-1.08,4.3,4.3,0,0,1-.956-2.955V9.884a4.771,4.771,0,0,1,.425-2.058,3.236,3.236,0,0,1,1.219-1.4,3.464,3.464,0,0,1,1.879-.5,3.178,3.178,0,0,1,2.216.8A2.853,2.853,0,0,1,62.8,8.8H61.516a1.867,1.867,0,0,0-.582-1.263,1.811,1.811,0,0,0-1.293-.494,1.9,1.9,0,0,0-1.6.743,3.491,3.491,0,0,0-.568,2.15v.256a3.422,3.422,0,0,0,.564,2.109A1.906,1.906,0,0,0,59.648,13.041ZM65.793,14H64.431V6.075h1.362Zm.015-11.228h1.641L65.486,4.925l-1.091,0ZM72.92,14a2.846,2.846,0,0,1-.19-.835,3.023,3.023,0,0,1-2.256.981,2.8,2.8,0,0,1-1.923-.663A2.145,2.145,0,0,1,67.8,11.8a2.24,2.24,0,0,1,.941-1.923A4.437,4.437,0,0,1,71.389,9.2h1.318V8.573a1.522,1.522,0,0,0-.425-1.132A1.707,1.707,0,0,0,71.03,7.02a1.976,1.976,0,0,0-1.216.366,1.079,1.079,0,0,0-.491.886H67.961a1.87,1.87,0,0,1,.421-1.146,2.874,2.874,0,0,1,1.143-.875,3.844,3.844,0,0,1,1.586-.322,3.133,3.133,0,0,1,2.146.685A2.47,2.47,0,0,1,74.063,8.5v3.647a4.459,4.459,0,0,0,.278,1.736V14Zm-2.249-1.033a2.381,2.381,0,0,0,1.208-.33,1.994,1.994,0,0,0,.828-.857V10.155H71.646q-2.49,0-2.49,1.458a1.234,1.234,0,0,0,.425,1A1.633,1.633,0,0,0,70.671,12.967ZM2.5,31H1.143V19.75H2.5Zm7.061,0a2.846,2.846,0,0,1-.19-.835,3.023,3.023,0,0,1-2.256.981,2.8,2.8,0,0,1-1.923-.663A2.145,2.145,0,0,1,4.438,28.8,2.24,2.24,0,0,1,5.38,26.88,4.437,4.437,0,0,1,8.027,26.2H9.346v-.623a1.522,1.522,0,0,0-.425-1.132,1.707,1.707,0,0,0-1.252-.421,1.976,1.976,0,0,0-1.216.366,1.079,1.079,0,0,0-.491.886H4.6a1.87,1.87,0,0,1,.421-1.146,2.874,2.874,0,0,1,1.143-.875,3.844,3.844,0,0,1,1.586-.322,3.133,3.133,0,0,1,2.146.685A2.47,2.47,0,0,1,10.7,25.5v3.647a4.459,4.459,0,0,0,.278,1.736V31ZM7.31,29.967a2.381,2.381,0,0,0,1.208-.33,1.994,1.994,0,0,0,.828-.857V27.155H8.284q-2.49,0-2.49,1.458a1.234,1.234,0,0,0,.425,1A1.633,1.633,0,0,0,7.31,29.967Zm15.938-2.842a4.712,4.712,0,0,1-.835,2.919,2.668,2.668,0,0,1-2.241,1.1,2.763,2.763,0,0,1-2.322-1.062L17.783,31H16.538V19.75h1.355v4.2a2.747,2.747,0,0,1,2.263-1.018,2.684,2.684,0,0,1,2.267,1.091,4.853,4.853,0,0,1,.824,2.988Zm-1.355-.154a3.662,3.662,0,0,0-.535-2.139,1.77,1.77,0,0,0-1.538-.754,1.989,1.989,0,0,0-1.926,1.245v3.428A2.045,2.045,0,0,0,19.834,30a1.76,1.76,0,0,0,1.516-.754A3.894,3.894,0,0,0,21.892,26.972ZM29.846,31a2.846,2.846,0,0,1-.19-.835,3.023,3.023,0,0,1-2.256.981,2.8,2.8,0,0,1-1.923-.663,2.145,2.145,0,0,1-.751-1.681,2.24,2.24,0,0,1,.941-1.923,4.437,4.437,0,0,1,2.648-.685h1.318v-.623a1.522,1.522,0,0,0-.425-1.132,1.707,1.707,0,0,0-1.252-.421,1.976,1.976,0,0,0-1.216.366,1.079,1.079,0,0,0-.491.886H24.888a1.87,1.87,0,0,1,.421-1.146,2.874,2.874,0,0,1,1.143-.875,3.844,3.844,0,0,1,1.586-.322,3.133,3.133,0,0,1,2.146.685,2.47,2.47,0,0,1,.806,1.886v3.647a4.459,4.459,0,0,0,.278,1.736V31ZM27.6,29.967a2.381,2.381,0,0,0,1.208-.33,1.994,1.994,0,0,0,.828-.857V27.155H28.572q-2.49,0-2.49,1.458a1.234,1.234,0,0,0,.425,1A1.633,1.633,0,0,0,27.6,29.967Zm6.8-6.892.044,1a2.888,2.888,0,0,1,2.373-1.143q2.512,0,2.534,2.834V31H37.991V25.756a1.824,1.824,0,0,0-.392-1.267,1.57,1.57,0,0,0-1.2-.41,1.956,1.956,0,0,0-1.157.352,2.387,2.387,0,0,0-.776.923V31H33.113V23.075Zm6.665,3.9a4.642,4.642,0,0,1,.864-2.933,2.941,2.941,0,0,1,4.468-.157V19.75h1.355V31H46.5l-.066-.85a2.759,2.759,0,0,1-2.263,1,2.707,2.707,0,0,1-2.245-1.128,4.7,4.7,0,0,1-.868-2.944Zm1.355.154a3.515,3.515,0,0,0,.557,2.109A1.8,1.8,0,0,0,44.509,30a1.977,1.977,0,0,0,1.882-1.157V25.2a1.992,1.992,0,0,0-1.868-1.121,1.808,1.808,0,0,0-1.553.769A3.87,3.87,0,0,0,42.415,27.125Zm10.723,4.021a3.463,3.463,0,0,1-2.622-1.058A3.928,3.928,0,0,1,49.5,27.257v-.249a4.756,4.756,0,0,1,.45-2.106,3.514,3.514,0,0,1,1.26-1.45,3.167,3.167,0,0,1,1.754-.524,2.968,2.968,0,0,1,2.4,1.018,4.408,4.408,0,0,1,.857,2.915v.564H50.859a2.817,2.817,0,0,0,.685,1.893,2.153,2.153,0,0,0,1.666.721,2.36,2.36,0,0,0,1.216-.293,3.055,3.055,0,0,0,.872-.776l.828.645A3.328,3.328,0,0,1,53.137,31.146Zm-.168-7.1a1.807,1.807,0,0,0-1.377.6,2.9,2.9,0,0,0-.688,1.674h3.97v-.1a2.581,2.581,0,0,0-.557-1.6A1.7,1.7,0,0,0,52.969,24.042Zm6.226-.967v8.84q0,2.285-2.073,2.285a2.528,2.528,0,0,1-.828-.131V32.992a2.62,2.62,0,0,0,.615.059.921.921,0,0,0,.692-.246,1.214,1.214,0,0,0,.238-.854V23.075Zm-1.494-2.1a.812.812,0,0,1,.2-.553.741.741,0,0,1,.59-.231.768.768,0,0,1,.6.227.8.8,0,0,1,.205.557.774.774,0,0,1-.205.549.782.782,0,0,1-.6.22.758.758,0,0,1-.593-.22A.791.791,0,0,1,57.7,20.973ZM66.27,31a2.846,2.846,0,0,1-.19-.835,3.023,3.023,0,0,1-2.256.981,2.8,2.8,0,0,1-1.923-.663A2.145,2.145,0,0,1,61.15,28.8a2.24,2.24,0,0,1,.941-1.923,4.437,4.437,0,0,1,2.648-.685h1.318v-.623a1.522,1.522,0,0,0-.425-1.132,1.707,1.707,0,0,0-1.252-.421,1.976,1.976,0,0,0-1.216.366,1.079,1.079,0,0,0-.491.886H61.311a1.87,1.87,0,0,1,.421-1.146,2.874,2.874,0,0,1,1.143-.875,3.844,3.844,0,0,1,1.586-.322,3.133,3.133,0,0,1,2.146.685,2.47,2.47,0,0,1,.806,1.886v3.647a4.459,4.459,0,0,0,.278,1.736V31Zm-2.249-1.033a2.381,2.381,0,0,0,1.208-.33,1.994,1.994,0,0,0,.828-.857V27.155H65q-2.49,0-2.49,1.458a1.234,1.234,0,0,0,.425,1A1.633,1.633,0,0,0,64.021,29.967Zm7.1-1.982a4.371,4.371,0,0,1,.2-1.375,3.526,3.526,0,0,1,.747-1.119l.959-.987a2.212,2.212,0,0,0,.615-1.491,1.7,1.7,0,0,0-.4-1.2,1.519,1.519,0,0,0-1.172-.435,1.764,1.764,0,0,0-1.2.4,1.337,1.337,0,0,0-.454,1.062H69.06a2.467,2.467,0,0,1,.846-1.915,3.163,3.163,0,0,1,2.164-.729,2.986,2.986,0,0,1,2.157.742A2.691,2.691,0,0,1,75,22.968a3.68,3.68,0,0,1-1.187,2.523l-.8.79a2.459,2.459,0,0,0-.535,1.7Zm-.059,2.327a.807.807,0,0,1,.2-.558.759.759,0,0,1,.6-.226.771.771,0,0,1,.6.226.8.8,0,0,1,.205.558.772.772,0,0,1-.205.551.785.785,0,0,1-.6.218.725.725,0,0,1-.8-.769Z" transform="translate(-5141.659 -8462)" fill="#12263f"/>
    <path id="Trazado_198016" data-name="Trazado 198016" d="M11,0H167.72a11,11,0,0,1,11,11V26.325a11,11,0,0,1-11,11H11a11,11,0,0,1-11-11V11A11,11,0,0,1,11,0Z" transform="translate(-5377.73 -8464)" fill="#b1dbea"/>
    <path id="Trazado_198017" data-name="Trazado 198017" d="M7.266,9.071H2.644V12.85H8.013V14H1.238V3.336h6.7v1.15h-5.3V7.921H7.266Zm3.567-3,.044,1A2.888,2.888,0,0,1,13.25,5.929q2.512,0,2.534,2.834V14H14.429V8.756a1.824,1.824,0,0,0-.392-1.267,1.57,1.57,0,0,0-1.2-.41,1.956,1.956,0,0,0-1.157.352,2.387,2.387,0,0,0-.776.923V14H9.551V6.075Zm10.173,6.965a1.952,1.952,0,0,0,1.267-.439,1.546,1.546,0,0,0,.6-1.1h1.282a2.457,2.457,0,0,1-.469,1.3,3.087,3.087,0,0,1-1.154.981,3.329,3.329,0,0,1-1.527.366,3.265,3.265,0,0,1-2.574-1.08,4.3,4.3,0,0,1-.956-2.955V9.884A4.771,4.771,0,0,1,17.9,7.826a3.236,3.236,0,0,1,1.219-1.4A3.464,3.464,0,0,1,21,5.929a3.178,3.178,0,0,1,2.216.8A2.853,2.853,0,0,1,24.155,8.8H22.874a1.867,1.867,0,0,0-.582-1.263A1.811,1.811,0,0,0,21,7.042a1.9,1.9,0,0,0-1.6.743,3.491,3.491,0,0,0-.568,2.15v.256a3.422,3.422,0,0,0,.564,2.109A1.906,1.906,0,0,0,21.006,13.041Zm7.961,1.106a3.463,3.463,0,0,1-2.622-1.058,3.928,3.928,0,0,1-1.011-2.831v-.249a4.756,4.756,0,0,1,.45-2.106,3.514,3.514,0,0,1,1.26-1.45A3.167,3.167,0,0,1,28.8,5.929a2.968,2.968,0,0,1,2.4,1.018,4.408,4.408,0,0,1,.857,2.915v.564H26.689a2.817,2.817,0,0,0,.685,1.893,2.153,2.153,0,0,0,1.666.721,2.36,2.36,0,0,0,1.216-.293,3.055,3.055,0,0,0,.872-.776l.828.645A3.328,3.328,0,0,1,28.967,14.146Zm-.168-7.1a1.807,1.807,0,0,0-1.377.6,2.9,2.9,0,0,0-.688,1.674H30.7v-.1a2.581,2.581,0,0,0-.557-1.6A1.7,1.7,0,0,0,28.8,7.042Zm6.108-.967.044,1a2.888,2.888,0,0,1,2.373-1.143q2.512,0,2.534,2.834V14H38.5V8.756a1.824,1.824,0,0,0-.392-1.267,1.57,1.57,0,0,0-1.2-.41,1.956,1.956,0,0,0-1.157.352,2.387,2.387,0,0,0-.776.923V14H33.625V6.075Zm6.665,3.9a4.642,4.642,0,0,1,.864-2.933A2.941,2.941,0,0,1,46.9,6.881V2.75h1.355V14H47.014l-.066-.85a2.759,2.759,0,0,1-2.263,1,2.707,2.707,0,0,1-2.245-1.128,4.7,4.7,0,0,1-.868-2.944Zm1.355.154a3.515,3.515,0,0,0,.557,2.109A1.8,1.8,0,0,0,45.022,13,1.977,1.977,0,0,0,46.9,11.839V8.2a1.992,1.992,0,0,0-1.868-1.121,1.808,1.808,0,0,0-1.553.769A3.87,3.87,0,0,0,42.927,10.125ZM53.65,14.146a3.463,3.463,0,0,1-2.622-1.058,3.928,3.928,0,0,1-1.011-2.831v-.249a4.756,4.756,0,0,1,.45-2.106,3.514,3.514,0,0,1,1.26-1.45,3.167,3.167,0,0,1,1.754-.524,2.968,2.968,0,0,1,2.4,1.018,4.408,4.408,0,0,1,.857,2.915v.564H51.372a2.817,2.817,0,0,0,.685,1.893,2.153,2.153,0,0,0,1.666.721,2.36,2.36,0,0,0,1.216-.293,3.055,3.055,0,0,0,.872-.776l.828.645A3.328,3.328,0,0,1,53.65,14.146Zm-.168-7.1a1.807,1.807,0,0,0-1.377.6,2.9,2.9,0,0,0-.688,1.674h3.97v-.1a2.581,2.581,0,0,0-.557-1.6A1.7,1.7,0,0,0,53.481,7.042Zm8.657.249a4.061,4.061,0,0,0-.667-.051,1.786,1.786,0,0,0-1.809,1.135V14H58.308V6.075h1.318l.022.916a2.11,2.11,0,0,1,1.89-1.062,1.384,1.384,0,0,1,.6.1Zm8.247,6.855a3.463,3.463,0,0,1-2.622-1.058,3.928,3.928,0,0,1-1.011-2.831v-.249A4.756,4.756,0,0,1,67.2,7.9a3.514,3.514,0,0,1,1.26-1.45,3.167,3.167,0,0,1,1.754-.524,2.968,2.968,0,0,1,2.4,1.018,4.408,4.408,0,0,1,.857,2.915v.564H68.108a2.817,2.817,0,0,0,.685,1.893,2.153,2.153,0,0,0,1.666.721,2.36,2.36,0,0,0,1.216-.293,3.055,3.055,0,0,0,.872-.776l.828.645A3.328,3.328,0,0,1,70.386,14.146Zm-.168-7.1a1.807,1.807,0,0,0-1.377.6,2.9,2.9,0,0,0-.688,1.674h3.97v-.1a2.581,2.581,0,0,0-.557-1.6A1.7,1.7,0,0,0,70.217,7.042ZM76.516,14H75.161V2.75h1.355Zm9.712-6.709a4.061,4.061,0,0,0-.667-.051,1.786,1.786,0,0,0-1.809,1.135V14H82.4V6.075h1.318l.022.916a2.11,2.11,0,0,1,1.89-1.062,1.384,1.384,0,0,1,.6.1Zm4.395,6.855A3.463,3.463,0,0,1,88,13.088a3.928,3.928,0,0,1-1.011-2.831v-.249A4.756,4.756,0,0,1,87.44,7.9a3.514,3.514,0,0,1,1.26-1.45,3.167,3.167,0,0,1,1.754-.524,2.968,2.968,0,0,1,2.4,1.018,4.408,4.408,0,0,1,.857,2.915v.564H88.345a2.817,2.817,0,0,0,.685,1.893,2.153,2.153,0,0,0,1.666.721,2.36,2.36,0,0,0,1.216-.293,3.055,3.055,0,0,0,.872-.776l.828.645A3.328,3.328,0,0,1,90.623,14.146Zm-.168-7.1a1.807,1.807,0,0,0-1.377.6,2.9,2.9,0,0,0-.688,1.674h3.97v-.1a2.581,2.581,0,0,0-.557-1.6A1.7,1.7,0,0,0,90.454,7.042Zm11.521,3.083a4.745,4.745,0,0,1-.828,2.915,2.653,2.653,0,0,1-2.241,1.106,2.906,2.906,0,0,1-2.271-.916v3.816H95.281V6.075h1.238l.066.879a2.791,2.791,0,0,1,2.3-1.025,2.7,2.7,0,0,1,2.26,1.077,4.8,4.8,0,0,1,.831,3Zm-1.355-.154a3.5,3.5,0,0,0-.571-2.117,1.84,1.84,0,0,0-1.567-.776A1.992,1.992,0,0,0,96.636,8.17v3.787a2,2,0,0,0,1.86,1.084,1.832,1.832,0,0,0,1.549-.773A3.822,3.822,0,0,0,100.62,9.972Zm6.907-2.681a4.061,4.061,0,0,0-.667-.051,1.786,1.786,0,0,0-1.809,1.135V14H103.7V6.075h1.318l.022.916a2.11,2.11,0,0,1,1.89-1.062,1.384,1.384,0,0,1,.6.1Zm.74,2.673a4.681,4.681,0,0,1,.458-2.095A3.415,3.415,0,0,1,110,6.434a3.469,3.469,0,0,1,1.864-.505,3.342,3.342,0,0,1,2.618,1.121,4.311,4.311,0,0,1,1,2.981v.1a4.722,4.722,0,0,1-.443,2.076,3.365,3.365,0,0,1-1.267,1.432,3.509,3.509,0,0,1-1.893.513,3.334,3.334,0,0,1-2.611-1.121,4.29,4.29,0,0,1-1-2.966Zm1.362.161a3.39,3.39,0,0,0,.612,2.117,2.072,2.072,0,0,0,3.278-.011,3.707,3.707,0,0,0,.608-2.267,3.384,3.384,0,0,0-.619-2.113,1.968,1.968,0,0,0-1.644-.809,1.946,1.946,0,0,0-1.619.8A3.68,3.68,0,0,0,109.629,10.125Zm7.222-.154a4.642,4.642,0,0,1,.864-2.933,2.941,2.941,0,0,1,4.468-.157V2.75h1.355V14h-1.245l-.066-.85a2.759,2.759,0,0,1-2.263,1,2.707,2.707,0,0,1-2.245-1.128,4.7,4.7,0,0,1-.868-2.944Zm1.355.154a3.515,3.515,0,0,0,.557,2.109A1.8,1.8,0,0,0,120.3,13a1.977,1.977,0,0,0,1.882-1.157V8.2a1.992,1.992,0,0,0-1.868-1.121,1.808,1.808,0,0,0-1.553.769A3.87,3.87,0,0,0,118.206,10.125Zm12.327,3.091a2.878,2.878,0,0,1-2.322.93,2.464,2.464,0,0,1-1.93-.736,3.186,3.186,0,0,1-.67-2.179V6.075h1.355v5.12q0,1.8,1.465,1.8a2.028,2.028,0,0,0,2.065-1.157V6.075h1.355V14h-1.289Zm6.555-.176a1.952,1.952,0,0,0,1.267-.439,1.546,1.546,0,0,0,.6-1.1h1.282a2.457,2.457,0,0,1-.469,1.3,3.087,3.087,0,0,1-1.154.981,3.329,3.329,0,0,1-1.527.366,3.265,3.265,0,0,1-2.574-1.08,4.3,4.3,0,0,1-.956-2.955V9.884a4.771,4.771,0,0,1,.425-2.058,3.236,3.236,0,0,1,1.219-1.4,3.464,3.464,0,0,1,1.879-.5,3.178,3.178,0,0,1,2.216.8,2.853,2.853,0,0,1,.941,2.073h-1.282a1.867,1.867,0,0,0-.582-1.263,1.811,1.811,0,0,0-1.293-.494,1.9,1.9,0,0,0-1.6.743,3.491,3.491,0,0,0-.568,2.15v.256a3.422,3.422,0,0,0,.564,2.109A1.906,1.906,0,0,0,137.087,13.041ZM143.6,4.156V6.075h1.479V7.123H143.6v4.921a1.1,1.1,0,0,0,.2.715.832.832,0,0,0,.674.238,3.281,3.281,0,0,0,.645-.088V14a3.951,3.951,0,0,1-1.04.146,1.687,1.687,0,0,1-1.37-.549,2.36,2.36,0,0,1-.461-1.56V7.123H140.8V6.075h1.443V4.156Zm2.556,5.808a4.681,4.681,0,0,1,.458-2.095,3.415,3.415,0,0,1,1.274-1.436,3.469,3.469,0,0,1,1.864-.505,3.342,3.342,0,0,1,2.618,1.121,4.311,4.311,0,0,1,1,2.981v.1a4.722,4.722,0,0,1-.443,2.076,3.365,3.365,0,0,1-1.267,1.432,3.509,3.509,0,0,1-1.893.513,3.334,3.334,0,0,1-2.611-1.121,4.29,4.29,0,0,1-1-2.966Zm1.362.161a3.39,3.39,0,0,0,.612,2.117,2.072,2.072,0,0,0,3.278-.011,3.707,3.707,0,0,0,.608-2.267,3.384,3.384,0,0,0-.619-2.113,1.968,1.968,0,0,0-1.644-.809,1.946,1.946,0,0,0-1.619.8A3.68,3.68,0,0,0,147.517,10.125ZM158.9,7.291a4.061,4.061,0,0,0-.667-.051,1.786,1.786,0,0,0-1.809,1.135V14h-1.355V6.075h1.318l.022.916a2.11,2.11,0,0,1,1.89-1.062,1.384,1.384,0,0,1,.6.1Z" transform="translate(-5368.73 -8454)" fill="#12263f"/>
    <path id="Trazado_198018" data-name="Trazado 198018" d="M11,0H78.919a11,11,0,0,1,11,11V26.325a11,11,0,0,1-11,11H11a11,11,0,0,1-11-11V11A11,11,0,0,1,11,0Z" transform="translate(-5500.659 -8464)" fill="#b1dbea"/>
    <path id="Trazado_198019" data-name="Trazado 198019" d="M5.167,17H2.091V4.2H5.167ZM18,17H14.932L10.4,9.037V17H7.312V4.2H10.4l4.526,7.963V4.2H18Zm5.238,0H20.161V4.2h3.076Zm12.5-4.333a4.673,4.673,0,0,1-.721,2.36,4.35,4.35,0,0,1-1.85,1.586,6.3,6.3,0,0,1-2.72.563,5.025,5.025,0,0,1-3.973-1.644,6.786,6.786,0,0,1-1.45-4.641v-.633a7.746,7.746,0,0,1,.655-3.292,4.961,4.961,0,0,1,1.885-2.18,5.26,5.26,0,0,1,2.848-.769,5.516,5.516,0,0,1,3.744,1.226,4.844,4.844,0,0,1,1.608,3.379H32.686A2.292,2.292,0,0,0,32.1,6.945a2.422,2.422,0,0,0-1.687-.51,1.843,1.843,0,0,0-1.687.861,5.536,5.536,0,0,0-.562,2.751v.905a6.126,6.126,0,0,0,.514,2.927,1.882,1.882,0,0,0,1.771.879,2.369,2.369,0,0,0,1.626-.5,2.126,2.126,0,0,0,.6-1.591ZM40.481,17H37.405V4.2h3.076Zm12.981-6.135a7.546,7.546,0,0,1-.694,3.313A5.132,5.132,0,0,1,50.8,16.4a5.494,5.494,0,0,1-2.914.778,5.572,5.572,0,0,1-2.9-.751,5.123,5.123,0,0,1-1.973-2.149,7.329,7.329,0,0,1-.743-3.208v-.721a7.58,7.58,0,0,1,.69-3.318A5.119,5.119,0,0,1,44.933,4.81,5.854,5.854,0,0,1,50.765,4.8,5.211,5.211,0,0,1,52.747,7a7.362,7.362,0,0,1,.716,3.274Zm-3.138-.536a5.381,5.381,0,0,0-.637-2.9,2.044,2.044,0,0,0-1.824-.989q-2.32,0-2.452,3.48l-.009.94a5.535,5.535,0,0,0,.624,2.892,2.041,2.041,0,0,0,1.854,1.011,2.016,2.016,0,0,0,1.8-.993,5.383,5.383,0,0,0,.642-2.856Z" transform="translate(-5483.659 -8456.001)" fill="#12263f"/>
    <g id="Grupo_134375" data-name="Grupo 134375" transform="translate(-5008.925 -8429.802)">
      <path id="Trazado_128543" data-name="Trazado 128543" d="M-3947.312-8521.035h81.337V-8621.88" transform="translate(3952.137 8621.88)" fill="none" stroke="#126783" stroke-width="4"/>
      <path id="Polígono_15" data-name="Polígono 15" d="M5.938,0l5.938,10.179H0Z" transform="translate(0 106.782) rotate(-90)" fill="#126783"/>
    </g>
    <path id="Trazado_198020" data-name="Trazado 198020" d="M11,0H140.844a11,11,0,0,1,11,11V26.325a11,11,0,0,1-11,11H11a11,11,0,0,1-11-11V11A11,11,0,0,1,11,0Z" transform="translate(-5002.659 -8463.836)" fill="#b1dbea"/>
    <path id="Trazado_198021" data-name="Trazado 198021" d="M4.806,8.974H2.468V13H1.148V3.047H4.443a3.9,3.9,0,0,1,2.587.766,2.755,2.755,0,0,1,.906,2.229,2.68,2.68,0,0,1-.5,1.62,3,3,0,0,1-1.4,1.032l2.338,4.225V13H6.966ZM2.468,7.9H4.484A2.275,2.275,0,0,0,6.04,7.394a1.714,1.714,0,0,0,.578-1.356,1.8,1.8,0,0,0-.55-1.418,2.33,2.33,0,0,0-1.589-.5H2.468Zm10.179,5.236a3.232,3.232,0,0,1-2.447-.988,3.666,3.666,0,0,1-.943-2.642V9.274a4.438,4.438,0,0,1,.42-1.965,3.28,3.28,0,0,1,1.176-1.354,2.956,2.956,0,0,1,1.637-.489,2.77,2.77,0,0,1,2.242.95,4.114,4.114,0,0,1,.8,2.721v.526H10.521a2.629,2.629,0,0,0,.639,1.767,2.009,2.009,0,0,0,1.555.673,2.2,2.2,0,0,0,1.135-.273,2.851,2.851,0,0,0,.813-.725l.772.6A3.106,3.106,0,0,1,12.646,13.137Zm-.157-6.631a1.687,1.687,0,0,0-1.285.557,2.708,2.708,0,0,0-.643,1.562h3.705v-.1a2.409,2.409,0,0,0-.52-1.494A1.588,1.588,0,0,0,12.489,6.506ZM18.71,3.813V5.6h1.381v.978H18.71v4.593a1.027,1.027,0,0,0,.185.667.777.777,0,0,0,.629.222,3.062,3.062,0,0,0,.6-.082V13a3.688,3.688,0,0,1-.971.136,1.575,1.575,0,0,1-1.278-.513,2.2,2.2,0,0,1-.431-1.456V6.581H16.1V5.6h1.347V3.813ZM22.941,13H21.677V5.6h1.265ZM21.574,3.642a.755.755,0,0,1,.188-.52.706.706,0,0,1,.557-.212.717.717,0,0,1,.561.212.747.747,0,0,1,.191.52.722.722,0,0,1-.191.513.73.73,0,0,1-.561.205.718.718,0,0,1-.557-.205A.73.73,0,0,1,21.574,3.642Zm6.966,3.1a3.79,3.79,0,0,0-.622-.048,1.667,1.667,0,0,0-1.688,1.06V13H24.965V5.6H26.2l.021.854a1.969,1.969,0,0,1,1.764-.991,1.292,1.292,0,0,1,.561.1ZM34,13a2.657,2.657,0,0,1-.178-.779,2.822,2.822,0,0,1-2.105.916,2.611,2.611,0,0,1-1.794-.619,2,2,0,0,1-.7-1.569A2.091,2.091,0,0,1,30.1,9.155a4.142,4.142,0,0,1,2.471-.639H33.8V7.935a1.42,1.42,0,0,0-.4-1.056,1.593,1.593,0,0,0-1.169-.393,1.844,1.844,0,0,0-1.135.342,1.007,1.007,0,0,0-.458.827H29.367a1.745,1.745,0,0,1,.393-1.07,2.683,2.683,0,0,1,1.066-.817,3.588,3.588,0,0,1,1.48-.3,2.924,2.924,0,0,1,2,.639,2.306,2.306,0,0,1,.752,1.76v3.4a4.162,4.162,0,0,0,.26,1.62V13Zm-2.1-.964a2.223,2.223,0,0,0,1.128-.308,1.861,1.861,0,0,0,.772-.8V9.411h-.991q-2.324,0-2.324,1.36a1.151,1.151,0,0,0,.4.93A1.524,1.524,0,0,0,31.9,12.036Zm8.723-5.3A3.79,3.79,0,0,0,40,6.69a1.667,1.667,0,0,0-1.688,1.06V13H37.044V5.6h1.23l.021.854a1.969,1.969,0,0,1,1.764-.991,1.292,1.292,0,0,1,.561.1ZM45.445,13V3.047h2.81a4.523,4.523,0,0,1,2.3.574,3.884,3.884,0,0,1,1.542,1.634,5.318,5.318,0,0,1,.55,2.434v.636a5.336,5.336,0,0,1-.543,2.468,3.823,3.823,0,0,1-1.552,1.627A4.811,4.811,0,0,1,48.2,13Zm1.313-8.88v7.807h1.381a3,3,0,0,0,2.362-.944,3.9,3.9,0,0,0,.844-2.689V7.712a3.963,3.963,0,0,0-.8-2.637,2.834,2.834,0,0,0-2.259-.954Zm11.013,7.137,2.844-8.21H62.05L58.358,13H57.2L53.512,3.047H54.94ZM63.383,13V3.047h2.81a4.523,4.523,0,0,1,2.3.574,3.884,3.884,0,0,1,1.542,1.634,5.318,5.318,0,0,1,.55,2.434v.636a5.336,5.336,0,0,1-.543,2.468,3.823,3.823,0,0,1-1.552,1.627A4.811,4.811,0,0,1,66.138,13ZM64.7,4.12v7.807h1.381a3,3,0,0,0,2.362-.944,3.9,3.9,0,0,0,.844-2.689V7.712a3.963,3.963,0,0,0-.8-2.637,2.834,2.834,0,0,0-2.259-.954ZM78.9,13.137a3.232,3.232,0,0,1-2.447-.988,3.666,3.666,0,0,1-.943-2.642V9.274a4.438,4.438,0,0,1,.42-1.965,3.28,3.28,0,0,1,1.176-1.354,2.956,2.956,0,0,1,1.637-.489,2.77,2.77,0,0,1,2.242.95,4.114,4.114,0,0,1,.8,2.721v.526H76.774a2.629,2.629,0,0,0,.639,1.767,2.009,2.009,0,0,0,1.555.673,2.2,2.2,0,0,0,1.135-.273,2.851,2.851,0,0,0,.813-.725l.772.6A3.106,3.106,0,0,1,78.9,13.137Zm-.157-6.631a1.687,1.687,0,0,0-1.285.557,2.708,2.708,0,0,0-.643,1.562h3.705v-.1A2.409,2.409,0,0,0,80,7.036,1.588,1.588,0,0,0,78.743,6.506Zm6.986,1.8L87.37,5.6h1.477l-2.42,3.657L88.922,13H87.459L85.75,10.231,84.041,13h-1.47l2.5-3.739L82.646,5.6h1.463ZM91.561,13H90.3V5.6h1.265ZM90.193,3.642a.755.755,0,0,1,.188-.52.706.706,0,0,1,.557-.212.717.717,0,0,1,.561.212.747.747,0,0,1,.191.52.722.722,0,0,1-.191.513.73.73,0,0,1-.561.205.718.718,0,0,1-.557-.205A.73.73,0,0,1,90.193,3.642Zm7.7,7.4a.931.931,0,0,0-.386-.8,3.718,3.718,0,0,0-1.347-.489,6.367,6.367,0,0,1-1.524-.492,2.169,2.169,0,0,1-.834-.684,1.635,1.635,0,0,1-.27-.943A1.919,1.919,0,0,1,94.3,6.1a3,3,0,0,1,1.965-.629,3.091,3.091,0,0,1,2.041.649,2.063,2.063,0,0,1,.783,1.661H97.815a1.142,1.142,0,0,0-.441-.9,1.652,1.652,0,0,0-1.111-.376,1.729,1.729,0,0,0-1.08.3.947.947,0,0,0-.39.786.767.767,0,0,0,.362.69,4.458,4.458,0,0,0,1.309.444A6.821,6.821,0,0,1,98,9.233a2.239,2.239,0,0,1,.872.708,1.74,1.74,0,0,1,.284,1.008,1.893,1.893,0,0,1-.793,1.589,3.326,3.326,0,0,1-2.058.6,3.725,3.725,0,0,1-1.572-.314,2.557,2.557,0,0,1-1.07-.878,2.117,2.117,0,0,1-.386-1.22h1.265a1.309,1.309,0,0,0,.509,1.008A1.976,1.976,0,0,0,96.3,12.1a2.039,2.039,0,0,0,1.152-.291A.893.893,0,0,0,97.891,11.038Zm4.628-7.226V5.6H103.9v.978h-1.381v4.593a1.027,1.027,0,0,0,.185.667.777.777,0,0,0,.629.222,3.062,3.062,0,0,0,.6-.082V13a3.688,3.688,0,0,1-.971.136,1.575,1.575,0,0,1-1.278-.513,2.2,2.2,0,0,1-.431-1.456V6.581H99.907V5.6h1.347V3.813Zm5.927,9.324A3.232,3.232,0,0,1,106,12.149a3.666,3.666,0,0,1-.943-2.642V9.274a4.438,4.438,0,0,1,.42-1.965,3.28,3.28,0,0,1,1.176-1.354,2.956,2.956,0,0,1,1.637-.489,2.77,2.77,0,0,1,2.242.95,4.114,4.114,0,0,1,.8,2.721v.526h-5.011a2.629,2.629,0,0,0,.639,1.767,2.009,2.009,0,0,0,1.555.673,2.2,2.2,0,0,0,1.135-.273,2.851,2.851,0,0,0,.813-.725l.772.6A3.106,3.106,0,0,1,108.445,13.137Zm-.157-6.631A1.687,1.687,0,0,0,107,7.063a2.708,2.708,0,0,0-.643,1.562h3.705v-.1a2.409,2.409,0,0,0-.52-1.494A1.588,1.588,0,0,0,108.288,6.506Zm5.7-.9.041.93a2.7,2.7,0,0,1,2.215-1.066q2.345,0,2.365,2.646V13h-1.265V8.105a1.7,1.7,0,0,0-.366-1.183,1.466,1.466,0,0,0-1.118-.383,1.825,1.825,0,0,0-1.08.328,2.228,2.228,0,0,0-.725.861V13h-1.265V5.6Zm8.244-1.791V5.6h1.381v.978h-1.381v4.593a1.027,1.027,0,0,0,.185.667.777.777,0,0,0,.629.222,3.062,3.062,0,0,0,.6-.082V13a3.688,3.688,0,0,1-.971.136,1.575,1.575,0,0,1-1.278-.513,2.2,2.2,0,0,1-.431-1.456V6.581h-1.347V5.6h1.347V3.813Zm5.927,9.324a3.232,3.232,0,0,1-2.447-.988,3.666,3.666,0,0,1-.943-2.642V9.274a4.438,4.438,0,0,1,.42-1.965,3.28,3.28,0,0,1,1.176-1.354A2.956,2.956,0,0,1,128,5.467a2.77,2.77,0,0,1,2.242.95,4.114,4.114,0,0,1,.8,2.721v.526h-5.011a2.629,2.629,0,0,0,.639,1.767,2.009,2.009,0,0,0,1.555.673,2.2,2.2,0,0,0,1.135-.273,2.851,2.851,0,0,0,.813-.725l.772.6A3.106,3.106,0,0,1,128.16,13.137ZM128,6.506a1.687,1.687,0,0,0-1.285.557,2.708,2.708,0,0,0-.643,1.562h3.705v-.1a2.409,2.409,0,0,0-.52-1.494A1.588,1.588,0,0,0,128,6.506Z" transform="translate(-4993.659 -8452.808)" fill="#12263f"/>
  </g>
</svg>
