<svg xmlns="http://www.w3.org/2000/svg" xmlns:xlink="http://www.w3.org/1999/xlink" width="121" height="121" viewBox="0 0 121 121">
  <defs>
    <clipPath id="clip-path">
      <rect id="Rect치ngulo_45993" data-name="Rect치ngulo 45993" width="58.205" height="65.648" fill="none"/>
    </clipPath>
  </defs>
  <g id="Grupo_154615" data-name="Grupo 154615" transform="translate(-285 -3072)">
    <circle id="Elipse_4862" data-name="Elipse 4862" cx="60.5" cy="60.5" r="60.5" transform="translate(285 3072)" fill="#25e0ac"/>
    <g id="Grupo_134382" data-name="Grupo 134382" transform="translate(15 -1292)">
      <rect id="Rect치ngulo_35900" data-name="Rect치ngulo 35900" width="80" height="80" transform="translate(286.816 4382)" fill="none"/>
      <g id="Grupo_154326" data-name="Grupo 154326" transform="translate(297.816 4389)">
        <g id="Grupo_154325" data-name="Grupo 154325" clip-path="url(#clip-path)">
          <path id="Trazado_196430" data-name="Trazado 196430" d="M12.779,74.713c-.421-.409-.853-.807-1.259-1.231a1.266,1.266,0,0,1-.085-1.851,1.2,1.2,0,0,1,1.826.117q1.707,1.721,3.38,3.476a1.253,1.253,0,0,1-.029,2.02Q15,78.9,13.362,80.523a1.331,1.331,0,0,1-1.911.118,1.264,1.264,0,0,1,.122-1.9c.393-.4.814-.781,1.256-1.2a1.037,1.037,0,0,0-.836-.168c-3.42-.007-6.839,0-10.258-.005C.389,77.361,0,76.97,0,75.608Q0,57.271,0,38.936c0-1.419.351-1.762,1.78-1.762,5.027,0,10.054-.024,15.08.023.815.008.969-.244.934-.985-.058-1.235-.024-2.475-.013-3.713.011-1.176.407-1.572,1.579-1.573q9.3-.006,18.6,0c1.164,0,1.554.4,1.556,1.583q.01,5.493,0,10.986c0,1.166-.417,1.567-1.58,1.569q-3.943.005-7.885,0h-.8l3.557,3.611c.813.825.944,1.556.383,2.134-.591.609-1.318.489-2.168-.387-.317-.327-.59-.7-.917-1.087a.974.974,0,0,0-.205.792c-.007,1.676.016,3.353-.015,5.028a1.949,1.949,0,0,0,.5,1.392c2.45,2.9,4.875,5.827,7.315,8.739.4.476.715.955.408,1.6a1.413,1.413,0,0,1-1.469.749q-8-.009-16,0A1.3,1.3,0,0,1,19.6,65.325c2.471-2.952,4.93-5.916,7.407-8.863a1.777,1.777,0,0,0,.453-1.254c-.024-1.9-.01-3.793-.01-5.866-.517.521-.9.921-1.3,1.305a1.218,1.218,0,0,1-1.828.1,1.26,1.26,0,0,1,.118-1.849c1.224-1.261,2.464-2.508,3.762-3.828H21.5c-.74,0-1.48.005-2.22,0-1.046-.009-1.48-.435-1.5-1.507s-.037-2.168.007-3.249c.024-.565-.178-.672-.693-.67q-7,.028-14.009,0c-.486,0-.653.11-.652.635q.022,16.982.013,33.964c0,.292-.1.651.4.651q4.925-.007,9.85,0l.074-.173" transform="translate(0 -15.615)"/>
          <path id="Trazado_196431" data-name="Trazado 196431" d="M59.706,24.313c.464.4.959.759,1.385,1.194a1.218,1.218,0,1,1-1.725,1.7q-1.76-1.722-3.49-3.474a1.207,1.207,0,0,1-.015-1.9q1.737-1.8,3.516-3.557a1.207,1.207,0,0,1,1.774-.1,1.25,1.25,0,0,1-.048,1.849c-.449.479-.933.923-1.554,1.531h2.712c2.628,0,5.256-.012,7.884.011.493,0,.647-.125.645-.64q-.029-6.537,0-13.073c0-.557-.18-.681-.7-.678-3.929.02-7.858.009-11.787.014-.265,0-.561-.092-.746.235a7.115,7.115,0,0,1-4.127,3,29.537,29.537,0,0,1-12.061,1.458,24.333,24.333,0,0,1-8.183-1.744A7.866,7.866,0,0,1,30.45,8.348a3.254,3.254,0,0,1,.011-4.705A9.406,9.406,0,0,1,34.992,1.2,32.063,32.063,0,0,1,52.726,1.3c1.922.565,3.753,1.361,4.861,3.228.184.309.51.177.774.177q6.544.011,13.088.005c1.424,0,1.78.35,1.78,1.764q0,7.89,0,15.78c0,1.421-.356,1.776-1.766,1.776H59.917l-.211.279" transform="translate(-15.025 0)"/>
          <path id="Trazado_196432" data-name="Trazado 196432" d="M60.782,84.2c.467.435.958.848,1.4,1.311A1.223,1.223,0,0,1,62.2,87.3a1.143,1.143,0,0,1-1.71-.033Q58.664,85.51,56.884,83.7a1.176,1.176,0,0,1-.005-1.838q1.747-1.788,3.547-3.524a1.161,1.161,0,0,1,1.714-.019,1.2,1.2,0,0,1,.023,1.733c-.414.45-.9.837-1.362,1.266.33.323.623.2.879.2,3.622.01,7.245.006,10.867.007,1.353,0,1.723.371,1.723,1.743q0,7.927,0,15.855c0,1.368-.364,1.725-1.733,1.725-4.566,0-9.132.012-13.7-.014-.613,0-.876.115-.811.787a16.392,16.392,0,0,1,.01,1.855c-.018,1.1-.44,1.528-1.55,1.529q-5.969.007-11.938,0c-2.219,0-4.438,0-6.658,0-1.148,0-1.584-.425-1.589-1.579q-.018-3.635,0-7.27c.006-1.066.45-1.495,1.5-1.5q9.374-.005,18.75,0c1.047,0,1.461.432,1.481,1.51a14.542,14.542,0,0,1-.006,1.469c-.045.544.081.753.693.749q6.2-.047,12.4,0c.579,0,.716-.153.713-.728-.025-4.305-.011-8.611-.019-12.916,0-.319.168-.751-.453-.749C67.874,84.008,64.385,84,60.9,84l-.115.2" transform="translate(-18.517 -39.362)"/>
          <path id="Trazado_196433" data-name="Trazado 196433" d="M49.633,45.122c-2.575,0-5.15-.013-7.725.011-.5,0-.659-.13-.655-.643q.033-3.942,0-7.884c0-.489.122-.674.642-.672q7.8.026,15.6,0c.464,0,.619.145.616.618-.018,2.654-.024,5.308,0,7.962.006.556-.234.617-.684.614-2.6-.014-5.2-.007-7.8-.007" transform="translate(-21.048 -18.145)" fill="#fff"/>
          <path id="Trazado_196434" data-name="Trazado 196434" d="M58.46,93.266H47.274c-.135-.228.052-.339.157-.465,1.622-1.948,3.256-3.886,4.864-5.847.34-.415.537-.464.9-.014,1.7,2.077,3.426,4.126,5.26,6.326" transform="translate(-24.096 -43.742)" fill="#fed166"/>
          <path id="Trazado_196435" data-name="Trazado 196435" d="M46.432,5.06a22.4,22.4,0,0,1,9.9,1.869,5.9,5.9,0,0,1,1.216.79c.631.533.623,1.052.019,1.622a6.824,6.824,0,0,1-2.828,1.48,29.138,29.138,0,0,1-16.94,0,7.045,7.045,0,0,1-2.769-1.434c-.7-.63-.7-1.118.034-1.71A11.2,11.2,0,0,1,39.827,5.71a28.4,28.4,0,0,1,6.6-.65" transform="translate(-17.606 -2.554)" fill="#126783"/>
          <path id="Trazado_196436" data-name="Trazado 196436" d="M49.634,122.1c-2.526,0-5.053-.023-7.579.016-.656.01-.819-.2-.8-.83.044-1.34.028-2.682.005-4.023-.007-.437.13-.571.566-.57q7.848.02,15.695,0c.474,0,.61.148.6.614-.026,1.341-.036,2.683,0,4.023.018.6-.14.794-.759.786-2.577-.035-5.155-.015-7.732-.015" transform="translate(-21.048 -58.924)" fill="#b1dbea"/>
        </g>
      </g>
    </g>
  </g>
</svg>
