<svg xmlns="http://www.w3.org/2000/svg" xmlns:xlink="http://www.w3.org/1999/xlink" width="1240" height="323" viewBox="0 0 1240 323"><defs><clipPath id="a"><path d="M0,0H112a0,0,0,0,1,0,0V72A20,20,0,0,1,92,92H0a0,0,0,0,1,0,0V0A0,0,0,0,1,0,0Z" transform="translate(1308 635)" fill="#fff"/></clipPath><filter id="b" x="1165.128" y="239.563" width="38.984" height="38.984" filterUnits="userSpaceOnUse"><feOffset dy="3" input="SourceAlpha"/><feGaussianBlur stdDeviation="2.5" result="c"/><feFlood flood-opacity="0.29"/><feComposite operator="in" in2="c"/><feComposite in="SourceGraphic"/></filter></defs><g transform="translate(-180 -404)"><rect width="1240" height="323" rx="20" transform="translate(180 404)" fill="#126783"/><g clip-path="url(#a)"><g transform="translate(1332.676 647)"><path d="M15.448,125.984A15.448,15.448,0,0,0,30.9,110.536l1.846-95.088a15.448,15.448,0,1,0-30.9,0L0,110.536A15.448,15.448,0,0,0,15.448,125.984Z" transform="matrix(-0.574, 0.819, -0.819, -0.574, 121.98, 72.262)" fill="#25e0ac"/><g transform="matrix(1, 0, 0, 1, -1152.68, -243)" filter="url(#b)"><path d="M23.984,191.922A11.992,11.992,0,1,1,11.992,179.93a11.992,11.992,0,0,1,11.992,11.992" transform="translate(1172.63 64.13)" fill="#20bdfc"/></g></g></g></g></svg>