<svg xmlns="http://www.w3.org/2000/svg" xmlns:xlink="http://www.w3.org/1999/xlink" width="227.081" height="6.739" viewBox="0 0 227.081 6.739"><defs><clipPath id="a"><rect width="227.081" height="6.739" fill="#25e0ac"/></clipPath><clipPath id="b"><path d="M0,3.186A1.688,1.688,0,1,0,1.687,1.5,1.689,1.689,0,0,0,0,3.186" transform="translate(0 -1.497)" fill="#25e0ac"/></clipPath><clipPath id="c"><path d="M7.661,3.186A1.687,1.687,0,1,0,9.348,1.5,1.688,1.688,0,0,0,7.661,3.186" transform="translate(-7.661 -1.497)" fill="#25e0ac"/></clipPath><clipPath id="d"><path d="M15.322,3.186A1.687,1.687,0,1,0,17.009,1.5a1.688,1.688,0,0,0-1.687,1.689" transform="translate(-15.322 -1.497)" fill="#25e0ac"/></clipPath><clipPath id="e"><path d="M22.982,3.186A1.687,1.687,0,1,0,24.669,1.5a1.688,1.688,0,0,0-1.687,1.689" transform="translate(-22.982 -1.497)" fill="#25e0ac"/></clipPath><clipPath id="f"><path d="M30.643,3.186A1.687,1.687,0,1,0,32.33,1.5a1.688,1.688,0,0,0-1.687,1.689" transform="translate(-30.643 -1.497)" fill="#25e0ac"/></clipPath><clipPath id="g"><path d="M38.3,3.186A1.687,1.687,0,1,0,39.991,1.5,1.688,1.688,0,0,0,38.3,3.186" transform="translate(-38.304 -1.497)" fill="#25e0ac"/></clipPath><clipPath id="h"><path d="M45.964,3.186A1.688,1.688,0,1,0,47.651,1.5a1.689,1.689,0,0,0-1.687,1.689" transform="translate(-45.964 -1.497)" fill="#25e0ac"/></clipPath><clipPath id="i"><path d="M53.625,3.186A1.688,1.688,0,1,0,55.312,1.5a1.688,1.688,0,0,0-1.687,1.689" transform="translate(-53.625 -1.497)" fill="#25e0ac"/></clipPath><clipPath id="j"><path d="M61.286,3.186A1.687,1.687,0,1,0,62.973,1.5a1.688,1.688,0,0,0-1.687,1.689" transform="translate(-61.286 -1.497)" fill="#25e0ac"/></clipPath><clipPath id="k"><path d="M68.946,3.186A1.688,1.688,0,1,0,70.635,1.5a1.69,1.69,0,0,0-1.689,1.689" transform="translate(-68.946 -1.497)" fill="#25e0ac"/></clipPath><clipPath id="l"><path d="M76.607,3.186A1.688,1.688,0,1,0,78.3,1.5a1.69,1.69,0,0,0-1.689,1.689" transform="translate(-76.607 -1.497)" fill="#25e0ac"/></clipPath><clipPath id="m"><path d="M84.268,3.186A1.688,1.688,0,1,0,85.955,1.5a1.689,1.689,0,0,0-1.687,1.689" transform="translate(-84.268 -1.497)" fill="#25e0ac"/></clipPath><clipPath id="n"><path d="M91.929,3.186A1.688,1.688,0,1,0,93.616,1.5a1.688,1.688,0,0,0-1.687,1.689" transform="translate(-91.929 -1.497)" fill="#25e0ac"/></clipPath><clipPath id="o"><path d="M99.59,3.186A1.687,1.687,0,1,0,101.277,1.5,1.688,1.688,0,0,0,99.59,3.186" transform="translate(-99.59 -1.497)" fill="#25e0ac"/></clipPath></defs><g clip-path="url(#a)"><path d="M3.376,3.185A1.688,1.688,0,1,1,1.689,1.5,1.686,1.686,0,0,1,3.376,3.185" transform="translate(0 1.867)" fill="#25e0ac"/><path d="M11.036,3.185A1.688,1.688,0,1,1,9.349,1.5a1.686,1.686,0,0,1,1.687,1.687" transform="translate(9.547 1.867)" fill="#25e0ac"/><path d="M18.7,3.185A1.688,1.688,0,1,1,17.01,1.5,1.686,1.686,0,0,1,18.7,3.185" transform="translate(19.094 1.867)" fill="#25e0ac"/><path d="M26.358,3.185A1.688,1.688,0,1,1,24.671,1.5a1.686,1.686,0,0,1,1.687,1.687" transform="translate(28.642 1.867)" fill="#25e0ac"/><path d="M34.02,3.185A1.689,1.689,0,1,1,32.331,1.5,1.688,1.688,0,0,1,34.02,3.185" transform="translate(38.189 1.867)" fill="#25e0ac"/><path d="M41.679,3.185A1.688,1.688,0,1,1,39.992,1.5a1.686,1.686,0,0,1,1.687,1.687" transform="translate(47.736 1.867)" fill="#25e0ac"/><path d="M49.34,3.185A1.688,1.688,0,1,1,47.653,1.5,1.686,1.686,0,0,1,49.34,3.185" transform="translate(57.284 1.867)" fill="#25e0ac"/><path d="M57,3.185A1.688,1.688,0,1,1,55.314,1.5,1.686,1.686,0,0,1,57,3.185" transform="translate(66.832 1.867)" fill="#25e0ac"/><path d="M64.661,3.185A1.688,1.688,0,1,1,62.974,1.5a1.686,1.686,0,0,1,1.687,1.687" transform="translate(76.378 1.867)" fill="#25e0ac"/><path d="M72.322,3.185A1.688,1.688,0,1,1,70.635,1.5a1.686,1.686,0,0,1,1.687,1.687" transform="translate(85.926 1.867)" fill="#25e0ac"/><path d="M79.983,3.185A1.688,1.688,0,1,1,78.3,1.5a1.686,1.686,0,0,1,1.687,1.687" transform="translate(95.474 1.867)" fill="#25e0ac"/><path d="M87.645,3.185A1.689,1.689,0,1,1,85.956,1.5a1.688,1.688,0,0,1,1.689,1.687" transform="translate(105.02 1.867)" fill="#25e0ac"/><path d="M95.3,3.185A1.688,1.688,0,1,1,93.617,1.5,1.686,1.686,0,0,1,95.3,3.185" transform="translate(114.568 1.867)" fill="#25e0ac"/><path d="M102.965,3.185A1.688,1.688,0,1,1,101.278,1.5a1.686,1.686,0,0,1,1.687,1.687" transform="translate(124.116 1.867)" fill="#25e0ac"/></g><g transform="translate(0 3.363)"><g clip-path="url(#b)"><rect width="3.376" height="3.376" fill="#25e0ac"/></g></g><g transform="translate(17.209 3.363)"><g clip-path="url(#c)"><rect width="3.374" height="3.376" fill="#25e0ac"/></g></g><g transform="translate(34.418 3.363)"><g clip-path="url(#d)"><rect width="3.374" height="3.376" fill="#25e0ac"/></g></g><g transform="translate(51.624 3.363)"><g clip-path="url(#e)"><rect width="3.374" height="3.376" transform="translate(0)" fill="#25e0ac"/></g></g><g transform="translate(68.833 3.363)"><g clip-path="url(#f)"><rect width="3.374" height="3.376" fill="#25e0ac"/></g></g><g transform="translate(86.042 3.363)"><g clip-path="url(#g)"><rect width="3.374" height="3.376" fill="#25e0ac"/></g></g><g transform="translate(103.248 3.363)"><g clip-path="url(#h)"><rect width="3.376" height="3.376" transform="translate(0)" fill="#25e0ac"/></g></g><g transform="translate(120.457 3.363)"><g clip-path="url(#i)"><rect width="3.376" height="3.376" transform="translate(0)" fill="#25e0ac"/></g></g><g transform="translate(137.666 3.363)"><g clip-path="url(#j)"><rect width="3.374" height="3.376" fill="#25e0ac"/></g></g><g transform="translate(154.872 3.363)"><g clip-path="url(#k)"><rect width="3.376" height="3.376" fill="#25e0ac"/></g></g><g transform="translate(172.081 3.363)"><g clip-path="url(#l)"><rect width="3.376" height="3.376" fill="#25e0ac"/></g></g><g transform="translate(189.29 3.363)"><g clip-path="url(#m)"><rect width="3.376" height="3.376" transform="translate(0)" fill="#25e0ac"/></g></g><g transform="translate(206.498 3.363)"><g clip-path="url(#n)"><rect width="3.376" height="3.376" fill="#25e0ac"/></g></g><g transform="translate(223.707 3.363)"><g clip-path="url(#o)"><rect width="3.374" height="3.376" transform="translate(0)" fill="#25e0ac"/></g></g></svg>