<svg id="Grupo_134322" data-name="Grupo 134322" xmlns="http://www.w3.org/2000/svg" xmlns:xlink="http://www.w3.org/1999/xlink" width="83" height="83" viewBox="0 0 83 83">
  <defs>
    <clipPath id="clip-path">
      <rect id="Rectángulo_35855" data-name="Rectángulo 35855" width="54.304" height="43.695" fill="#126783"/>
    </clipPath>
  </defs>
  <circle id="Elipse_4853" data-name="Elipse 4853" cx="41.5" cy="41.5" r="41.5" fill="#25e0ac"/>
  <g id="Grupo_134182" data-name="Grupo 134182" transform="translate(14.348 19.37)">
    <g id="Grupo_134181" data-name="Grupo 134181" transform="translate(0 0)" clip-path="url(#clip-path)">
      <path id="Trazado_127828" data-name="Trazado 127828" d="M50.649,0Q26.925.049,3.2.019A2.851,2.851,0,0,0,0,3.216V28.879a2.758,2.758,0,0,0,1.517,2.6,3.449,3.449,0,0,0,1.7.32H51.142a3.124,3.124,0,0,0,2.441-.928A6.767,6.767,0,0,0,54.3,29.6V2.239C53.707.476,52.405,0,50.649,0m.415,29.539H3.244c-.928,0-1.005-.076-1.005-.989V3.261c0-.9.1-1,1-1h47.82c.9,0,1.005.1,1.005,1V28.544c0,.919-.076.994-1,.994Z" transform="translate(0.001 0)" fill="#126783"/>
      <path id="Trazado_127829" data-name="Trazado 127829" d="M52.7,89.061c-6.785.017-13.569.006-20.354.018-.384,0-.587-.076-.728-.475A4.39,4.39,0,0,0,23.4,88.6a.618.618,0,0,1-.718.482q-10.5-.016-20.99-.006a4.943,4.943,0,0,0-.735.043,1.094,1.094,0,0,0-.923,1.063,1.082,1.082,0,0,0,.851,1.067,4,4,0,0,0,.788.068q10.5.005,20.99-.006c.4,0,.605.077.756.5a4.389,4.389,0,0,0,8.2-.011.624.624,0,0,1,.711-.49c6.731.014,13.464,0,20.195.019a1.938,1.938,0,0,0,1.8-.722v-.742a1.589,1.589,0,0,0-1.62-.8M27.518,92.383a2.192,2.192,0,1,1,2.188-2.2,2.226,2.226,0,0,1-2.189,2.2Z" transform="translate(-0.021 -50.93)" fill="#126783"/>
      <path id="Trazado_127830" data-name="Trazado 127830" d="M63.126,25.475l-10.01-7.123a1.317,1.317,0,0,0-1.419-.276c-.571.276-.631.786-.629,1.344.008,2.389,0,4.772,0,7.158,0,2.4,0,4.807,0,7.211a1.183,1.183,0,0,0,2.034,1.04q5-3.57,10.008-7.126c1.028-.734,1.034-1.505.017-2.229M53.338,31.9V21.265l7.476,5.315Z" transform="translate(-30.315 -10.678)" fill="#126783"/>
      <path id="Trazado_127831" data-name="Trazado 127831" d="M51.115,28.677c0-2.389,0-4.772,0-7.158.008,2.389,0,4.772,0,7.158,0,2.4,0,4.807,0,7.211.006-2.4,0-4.807,0-7.211" transform="translate(-30.359 -12.781)" fill="#126783"/>
    </g>
  </g>
</svg>
