<svg xmlns="http://www.w3.org/2000/svg" xmlns:xlink="http://www.w3.org/1999/xlink" width="110" height="110" viewBox="0 0 110 110">
  <defs>
    <clipPath id="clip-path">
      <rect id="Rect치ngulo_36509" data-name="Rect치ngulo 36509" width="108.825" height="89.715" fill="none"/>
    </clipPath>
  </defs>
  <g id="Grupo_143210" data-name="Grupo 143210" transform="translate(-904 -1371.391)">
    <rect id="Rect치ngulo_35890" data-name="Rect치ngulo 35890" width="110" height="110" transform="translate(904 1371.391)" fill="none"/>
    <g id="Grupo_146495" data-name="Grupo 146495" transform="translate(905 1381.391)">
      <g id="Grupo_146494" data-name="Grupo 146494" clip-path="url(#clip-path)">
        <path id="Trazado_129379" data-name="Trazado 129379" d="M138.266,81.462a4.582,4.582,0,0,1,1.839,4.714c-.089.42.151.693.34,1,2.667,4.4,2.888,8.927.325,13.39s-6.6,6.552-11.74,6.469a6,6,0,0,1-2.278-.335c-1.66-.735-3.182-.39-4.855.027a17.443,17.443,0,0,1-21.417-14.986,1.74,1.74,0,0,1-.035-.329c.1-1.206-.37-1.683-1.65-1.893a4.425,4.425,0,0,1,.825-8.707c.23-.018.707.25.647-.27-.064-.564-.526-.207-.783-.173-.544.072-1.071.257-1.613.352a1.3,1.3,0,0,1-1.683-1.019,1.21,1.21,0,0,1,1.155-1.559c1.1-.089,1.208-.637,1.214-1.579a84.316,84.316,0,0,1,.169-9.268,20.49,20.49,0,0,1,40.356-1.5,24.918,24.918,0,0,1,.443,5.49c0,2.762-.009,5.523.014,8.285.008.9-.208,1.61-1.273,1.887" transform="translate(-33.75 -17.527)"/>
        <path id="Trazado_129380" data-name="Trazado 129380" d="M40.077,80.011a11.075,11.075,0,0,1,2.309.421,4.478,4.478,0,0,1,2.643,4.446A4.316,4.316,0,0,1,41.5,88.872c-1.064.15-1.272.561-1.38,1.549-.908,8.267-6.23,14.165-14.17,15.817A17.545,17.545,0,0,1,5.292,91.154c-.012-.11-.034-.219-.036-.329-.014-1.115-.181-1.857-1.66-2.02C1.753,88.6.4,86.682.271,84.76a4.306,4.306,0,0,1,2.787-4.336c.877-.3.725-.65.461-1.248A40.512,40.512,0,0,1,.124,67.928,10.659,10.659,0,0,1,.653,62.5,4.96,4.96,0,0,1,3.085,59.75a5.28,5.28,0,0,0,1.8-1.541,13.654,13.654,0,0,1,12.154-5.2,2.138,2.138,0,0,0,1.167-.183,7.762,7.762,0,0,1,6.819-.155,1.416,1.416,0,0,0,1.145.024A8,8,0,0,1,35.3,54.964a8.314,8.314,0,0,0,3.3,2.4,5.791,5.791,0,0,1,3.8,5.467c.039.626.2.851.8,1.019A4.453,4.453,0,0,1,46.283,69.9c-1.284,3.788-2.9,7.369-6.207,10.106" transform="translate(0 -18.372)"/>
        <path id="Trazado_129381" data-name="Trazado 129381" d="M71.881.005q8.119,0,16.237,0a5.819,5.819,0,0,1,6.128,6.081q.019,8.78,0,17.561a5.766,5.766,0,0,1-6,5.973c-5.3.012-10.6.025-15.905-.017-.944-.008-1.265.173-1.331,1.217a11.336,11.336,0,0,1-7.308,10.269c-.64.281-1.322.557-1.98.035-.674-.536-.475-1.258-.348-1.941a15.985,15.985,0,0,0,.16-5.921c-.473-2.522-1.773-3.617-4.312-3.645a12.909,12.909,0,0,1-3.295-.192,5.731,5.731,0,0,1-4.325-5.478c-.028-6.074-.039-12.149,0-18.223A5.755,5.755,0,0,1,55.423.011C60.909-.01,66.4.005,71.881.005" transform="translate(-17.53 0)"/>
        <path id="Trazado_129382" data-name="Trazado 129382" d="M99.652,51.555c-1.657,0-3.315.008-4.972,0-1.1-.008-1.664-.471-1.664-1.324s.564-1.32,1.664-1.323c3.315-.008,6.63.005,9.944-.009.906,0,1.515.348,1.621,1.277.092.807-.588,1.368-1.62,1.377-1.657.014-3.315,0-4.972,0" transform="translate(-32.888 -17.289)"/>
        <path id="Trazado_129383" data-name="Trazado 129383" d="M86.86,51.559c-1.179,0-1.785-.434-1.8-1.3-.015-.885.583-1.347,1.751-1.351,1.15,0,1.805.463,1.823,1.3s-.64,1.348-1.773,1.352" transform="translate(-30.075 -17.292)" fill="#294369"/>
        <path id="Trazado_129384" data-name="Trazado 129384" d="M107.048,96.8c0-2.061.025-3.792-.014-5.522a.853.853,0,0,1,.708-1.007,42.866,42.866,0,0,0,17.123-9.236c.707-.647.835-.022,1.1.364,2.358,3.485,5.084,6.668,8.886,8.559a3.251,3.251,0,0,1,2.076,3.692c-.211,3.116.209,6.257-.234,9.371a14.917,14.917,0,0,1-29.2,1.359c-.651-2.619-.358-5.271-.445-7.58" transform="translate(-37.844 -28.553)" fill="#fed7b6"/>
        <path id="Trazado_129385" data-name="Trazado 129385" d="M139.925,79.925a17.855,17.855,0,0,1-8.316-4.363,26.994,26.994,0,0,1-4.887-5.941.9.9,0,0,1,.1-1.242,26.82,26.82,0,0,0,3.9-6.5,1.5,1.5,0,0,0-.619-2.137c-.7-.328-1.422.089-1.838,1.109a24.15,24.15,0,0,1-6.372,8.89A38.36,38.36,0,0,1,109.8,76.869q-2.315.889-4.695,1.587c-.679.2-.816,0-.8-.643.032-1.731.027-3.463,0-5.194-.008-.535.165-.745.707-.882,1.421-.359,2.823-.8,4.22-1.25,1.043-.334,1.476-1,1.176-1.756-.379-.955-1.084-1.067-1.986-.756-1.041.358-2.111.625-3.153.981-.641.219-.826-.008-.7-.6a17.919,17.919,0,0,1,8.4-12.144,17.736,17.736,0,0,1,10.1-2.555c.862.032,1.028.236.65,1.026a24.666,24.666,0,0,1-10.4,11.069,6.456,6.456,0,0,0-.952.551c-.575.472-.983,1.034-.5,1.807a1.281,1.281,0,0,0,1.835.423,25.638,25.638,0,0,0,4.813-3.093,25.926,25.926,0,0,0,7.958-10.526c.214-.52.482-.595,1.021-.411,6.751,2.3,10.835,6.95,12.174,13.936.6,3.127.14,6.316.248,9.475.022.654,0,1.308,0,2.009" transform="translate(-36.878 -18.968)" fill="#6d7485"/>
        <path id="Trazado_129386" data-name="Trazado 129386" d="M147.509,126.02c-.452-.107-1.252.292-1.452-.244-.188-.5.64-.767,1.021-1.089a17.257,17.257,0,0,0,5.87-10.045,12.009,12.009,0,0,0,.345-2.266c.006-.708.285-.988.929-1.066a1.83,1.83,0,0,0,.843-.218c1.12-.831,1.531-.173,1.928.8a10.286,10.286,0,0,1-9.484,14.131" transform="translate(-51.632 -39.145)" fill="#4a5160"/>
        <path id="Trazado_129387" data-name="Trazado 129387" d="M101.762,103.852a6.1,6.1,0,0,1-.006.769c-.043.338.21.815-.212.983a1.287,1.287,0,0,1-1.219-.337,1.8,1.8,0,0,1-.5-2.356,1.328,1.328,0,0,1,1.527-.8c.712.167.315.78.4,1.193a2.634,2.634,0,0,1,.006.549" transform="translate(-35.21 -36.09)" fill="#ecc396"/>
        <path id="Trazado_129388" data-name="Trazado 129388" d="M157.316,103.877a6.274,6.274,0,0,1,.006-.764c.045-.359-.216-.846.358-1.009a1.193,1.193,0,0,1,1.193.356,1.857,1.857,0,0,1-.39,2.969c-.858.456-1.153.286-1.166-.677,0-.291,0-.582,0-.874" transform="translate(-55.617 -36.085)" fill="#ebc296"/>
        <path id="Trazado_129389" data-name="Trazado 129389" d="M20.008,76.392a3.959,3.959,0,0,0,.9-.623c1.266-1.547,2.7-1.506,4.514-.938a11.944,11.944,0,0,0,8.984-1.08c1.056-.516,2.069-1.122,3.129-1.629C41,70.465,43.956,72.4,44.2,76.229c.418,6.621.35,13.244.33,19.868a14.928,14.928,0,0,1-12.341,14.481,8.654,8.654,0,0,1-.88.058c-2.381.571-4.1-.721-5.722-2.124A16.211,16.211,0,0,1,19.7,95.635a39.1,39.1,0,0,1,.106-5.272,17.533,17.533,0,0,0,.7-1.613,1.7,1.7,0,0,1,1.681-1.34,1.719,1.719,0,0,1,1.655,1.376,3.178,3.178,0,0,0,.231.619.931.931,0,0,0,1.063.6.947.947,0,0,0,.747-.962c.246-2.2-2.093-4.141-4.42-3.672-.516.1-1.044.462-1.563-.014a2.087,2.087,0,0,1-.248-1.162q-.022-3.28,0-6.563a1.943,1.943,0,0,1,.354-1.237" transform="translate(-6.947 -25.29)" fill="#fed7b6"/>
        <path id="Trazado_129390" data-name="Trazado 129390" d="M21,57.14a4.664,4.664,0,0,0,2.74-.573,4.75,4.75,0,0,1,4.752.158,2.358,2.358,0,0,0,2.476.027,5.352,5.352,0,0,1,6.127,1c.477.456.9.974,1.339,1.465a5.188,5.188,0,0,0,2.872,1.857,3.5,3.5,0,0,1,2.46,4.486c-.382,1.405.109,2.093,1.566,2.182a11.777,11.777,0,0,1,1.212.056c.942.157,1.8,1.134,1.549,1.963a20.89,20.89,0,0,1-3.4,7.319,6.271,6.271,0,0,1-.46-2.438c-.149-1.424-.193-2.861-.226-4.294A6.918,6.918,0,0,0,34.32,63.93a18.163,18.163,0,0,0-2.645,1.359c-4.282,2.568-8.524,2.281-12.749-.133-.383-.219-.77-.432-1.155-.647a1.247,1.247,0,0,0-1.813.461,1.224,1.224,0,0,0,.446,1.808c1.085.809,1.117.86-.112,1.518-1.286.689-2.619,1.343-4.159.8a6.084,6.084,0,0,1,2.516-7.16,4.624,4.624,0,0,0,1.571-1.313,15.413,15.413,0,0,1,3.266-3.085A1.566,1.566,0,0,1,21,57.14" transform="translate(-4.161 -19.802)" fill="#c1684f"/>
        <path id="Trazado_129391" data-name="Trazado 129391" d="M17.281,92.961c0,1.874-.043,3.749,0,5.621.164,6.6,3.279,11.383,9.023,14.52.716.391,1.524.05,2.277.2a13.007,13.007,0,0,1-8.515-1.535A14.364,14.364,0,0,1,11.995,98.64c-.1-5.892-.009-11.787-.04-17.68,0-.765.149-.988.964-.929a9.06,9.06,0,0,0,4.366-.977c0,2.669-.009,5.338,0,8.007,0,.35-.12.742.223,1.024.065.459-.341.606-.585.84a4.287,4.287,0,0,0-1.2,1.919c-.335,1.15-.014,1.687,1.173,1.942a.625.625,0,0,1,.383.175" transform="translate(-4.223 -27.951)" fill="#e4bca0"/>
        <path id="Trazado_129392" data-name="Trazado 129392" d="M18.283,57.673a5.206,5.206,0,0,0-2.644,1.674,11.439,11.439,0,0,0-2.371,2.6,1.106,1.106,0,0,1-.559.507c-2.533.931-3.241,2.974-3.3,5.411-.014.589,0,1.178,0,1.767a5.515,5.515,0,0,1-2.833-.787,1.752,1.752,0,0,0-2.31.193c-.6-2.663.16-4.252,2.546-5.419a4,4,0,0,0,1.316-1.454,11.45,11.45,0,0,1,9.528-4.65,2.372,2.372,0,0,1,.623.162" transform="translate(-1.441 -20.334)" fill="#9f5847"/>
        <path id="Trazado_129393" data-name="Trazado 129393" d="M4.354,77.773c.739.374,1.3.688,1.894.948.454.2.385.573.387.931,0,1.689,0,3.378-.09,5.09a37.248,37.248,0,0,1-2.19-6.968" transform="translate(-1.539 -27.498)" fill="#9e5747"/>
        <path id="Trazado_129394" data-name="Trazado 129394" d="M6.691,101.559a2.615,2.615,0,0,1,0,.439c-.072.406.247,1.013-.227,1.182a1.406,1.406,0,0,1-1.521-.643,1.724,1.724,0,0,1-.18-2.047,1.347,1.347,0,0,1,1.421-.819c.8.113.436.78.5,1.23a4.379,4.379,0,0,1,.006.658" transform="translate(-1.593 -35.236)" fill="#ebc296"/>
        <path id="Trazado_129395" data-name="Trazado 129395" d="M62.232,101.494a6.279,6.279,0,0,1,.006-.772c.046-.364-.219-.858.354-1.028a1.177,1.177,0,0,1,1.278.441,1.727,1.727,0,0,1,.2,2.23,1.464,1.464,0,0,1-1.555.826c-.584-.153-.187-.825-.281-1.255a2.088,2.088,0,0,1-.005-.441" transform="translate(-21.989 -35.231)" fill="#ebc296"/>
        <path id="Trazado_129396" data-name="Trazado 129396" d="M65.8,39a18.01,18.01,0,0,0-.357-5.435,6.305,6.305,0,0,0-6.532-5.137c-.7-.006-1.4.022-2.1-.008a3.089,3.089,0,0,1-3.094-3.105q-.047-9.005,0-18.011a3.1,3.1,0,0,1,3.244-3.186q16.409-.016,32.819,0a3.1,3.1,0,0,1,3.252,3.179q.055,9.005,0,18.009a3.1,3.1,0,0,1-3.413,3.116q-8.509.015-17.017,0c-2.021,0-2.738.692-2.726,2.714a9.17,9.17,0,0,1-3.116,7.369,6.718,6.718,0,0,1-.613.463c-.048.033-.135.013-.351.026" transform="translate(-18.985 -1.452)" fill="#f2cd7d"/>
        <path id="Trazado_129397" data-name="Trazado 129397" d="M126.828,119.841a8.1,8.1,0,0,1-5.292-2.089c-.659-.6-.944-1.272-.328-2.01s1.306-.6,2.023-.03c2.5,1.984,4.728,1.979,7.269-.014.725-.568,1.413-.677,2.021.06a1.291,1.291,0,0,1-.278,1.936,8.058,8.058,0,0,1-5.415,2.147" transform="translate(-42.735 -40.745)"/>
        <path id="Trazado_129398" data-name="Trazado 129398" d="M116.383,94.728a4.1,4.1,0,0,1,4.052,3.852c.027.858-.292,1.471-1.177,1.562a1.246,1.246,0,0,1-1.434-1.206c-.127-.924-.542-1.555-1.524-1.537a1.409,1.409,0,0,0-1.426,1.4c-.109.926-.592,1.42-1.526,1.328-.814-.08-1.249-.868-1.1-1.847a4.164,4.164,0,0,1,4.133-3.554" transform="translate(-39.679 -33.493)"/>
        <path id="Trazado_129399" data-name="Trazado 129399" d="M139.447,94.759a4.186,4.186,0,0,1,4.1,3.732c.077.839-.228,1.494-1.1,1.637a1.219,1.219,0,0,1-1.52-1.191c-.116-.868-.54-1.487-1.453-1.513s-1.38.545-1.5,1.433c-.118.84-.585,1.395-1.471,1.292-.957-.112-1.208-.806-1.144-1.692a4.12,4.12,0,0,1,4.1-3.7" transform="translate(-47.853 -33.504)"/>
        <path id="Trazado_129400" data-name="Trazado 129400" d="M31.8,117.434a8.08,8.08,0,0,1-5.319-2.107c-.665-.613-.881-1.3-.257-2.021.594-.683,1.266-.544,1.948-.019,2.588,1.992,4.736,2,7.275.016.723-.564,1.416-.685,2.026.056a1.291,1.291,0,0,1-.277,1.936,8.068,8.068,0,0,1-5.4,2.139" transform="translate(-9.139 -39.898)"/>
        <path id="Trazado_129401" data-name="Trazado 129401" d="M44.4,92.332a4.161,4.161,0,0,1,4.09,3.72,1.389,1.389,0,0,1-1.18,1.686,1.283,1.283,0,0,1-1.459-1.294A1.42,1.42,0,0,0,44.356,95a1.379,1.379,0,0,0-1.429,1.377c-.118.875-.566,1.473-1.527,1.342S40.233,96.865,40.3,96a4.086,4.086,0,0,1,4.1-3.669" transform="translate(-14.244 -32.646)"/>
        <path id="Trazado_129402" data-name="Trazado 129402" d="M19.13,97.7c-1.555.227-2.2-.5-1.869-2.027a4.608,4.608,0,0,1,2.094-2.849c2.529-.847,4.553-.191,5.6,1.806a3.662,3.662,0,0,1,.423,1.914,1.29,1.29,0,0,1-2.518.344,6.363,6.363,0,0,1-.148-.646,1.443,1.443,0,0,0-2.848.037,2.073,2.073,0,0,1-.73,1.42" transform="translate(-6.072 -32.693)"/>
        <path id="Trazado_129403" data-name="Trazado 129403" d="M93.831,10.947c1.8,0,3.6.01,5.4,0,.921-.007,1.618.255,1.677,1.3.049.864-.533,1.347-1.624,1.349q-5.57.015-11.141,0c-1.091,0-1.674-.487-1.623-1.35.061-1.048.761-1.309,1.679-1.3,1.875.014,3.751,0,5.626,0" transform="translate(-30.592 -3.869)"/>
        <path id="Trazado_129404" data-name="Trazado 129404" d="M93.79,23.516c-1.875,0-3.751.008-5.626,0-1.1-.007-1.654-.474-1.649-1.333s.566-1.311,1.668-1.313c3.677-.008,7.354,0,11.031-.008.915,0,1.624.236,1.7,1.285.061.891-.545,1.364-1.715,1.37-1.8.008-3.6,0-5.4,0" transform="translate(-30.589 -7.375)"/>
        <path id="Trazado_129405" data-name="Trazado 129405" d="M93.71,30.78c1.838,0,3.677.01,5.515,0,.918-.007,1.621.248,1.685,1.3.054.891-.548,1.357-1.726,1.359q-5.46.009-10.921,0c-1.19,0-1.76-.452-1.748-1.345s.579-1.3,1.79-1.3c1.8-.006,3.6,0,5.4,0" transform="translate(-30.589 -10.882)"/>
        <path id="Trazado_129406" data-name="Trazado 129406" d="M73.423,30.779c.772,0,1.546-.028,2.315.008a1.247,1.247,0,0,1,1.346,1.3,1.222,1.222,0,0,1-1.309,1.329q-2.314.066-4.631,0a1.229,1.229,0,0,1-1.3-1.347,1.262,1.262,0,0,1,1.37-1.283c.734-.024,1.471-.005,2.206-.005" transform="translate(-24.696 -10.879)"/>
        <path id="Trazado_129407" data-name="Trazado 129407" d="M73.468,23.517h-2.1c-.912,0-1.532-.425-1.518-1.357.012-.869.606-1.291,1.471-1.293,1.433,0,2.867-.01,4.3,0,.851.007,1.449.4,1.457,1.3.008.962-.623,1.341-1.52,1.348-.7.006-1.4,0-2.1,0" transform="translate(-24.699 -7.376)"/>
        <path id="Trazado_129408" data-name="Trazado 129408" d="M73.422,13.6c-.7,0-1.4,0-2.1,0-.864-.005-1.453-.423-1.474-1.293a1.259,1.259,0,0,1,1.408-1.352c1.47-.019,2.941-.022,4.411,0,.855.014,1.427.443,1.412,1.341s-.606,1.284-1.456,1.3c-.735.014-1.471,0-2.206,0" transform="translate(-24.698 -3.867)"/>
        <path id="Trazado_129409" data-name="Trazado 129409" d="M61.167,10.949c1.014.01,1.657.546,1.634,1.361s-.671,1.3-1.7,1.292c-1.054-.008-1.628-.5-1.607-1.362.02-.849.608-1.3,1.677-1.292" transform="translate(-21.034 -3.871)" fill="#2a4368"/>
        <path id="Trazado_129410" data-name="Trazado 129410" d="M61.153,30.781c1.017.006,1.663.533,1.648,1.348s-.647,1.311-1.69,1.306-1.634-.484-1.621-1.348.6-1.312,1.663-1.306" transform="translate(-21.034 -10.883)" fill="#2a4368"/>
        <path id="Trazado_129411" data-name="Trazado 129411" d="M61.08,23.518c-1.047-.012-1.621-.509-1.59-1.379.03-.845.62-1.29,1.693-1.275,1.006.014,1.652.565,1.617,1.378s-.687,1.288-1.72,1.275" transform="translate(-21.033 -7.377)" fill="#2a4368"/>
      </g>
    </g>
  </g>
</svg>
