<svg xmlns="http://www.w3.org/2000/svg" xmlns:xlink="http://www.w3.org/1999/xlink" width="110" height="110" viewBox="0 0 110 110">
  <defs>
    <clipPath id="clip-path">
      <rect id="Rect치ngulo_36510" data-name="Rect치ngulo 36510" width="93.815" height="100.994" fill="none"/>
    </clipPath>
  </defs>
  <g id="Grupo_143211" data-name="Grupo 143211" transform="translate(-890 -1373.391)">
    <rect id="Rect치ngulo_35890" data-name="Rect치ngulo 35890" width="110" height="110" transform="translate(890 1373.391)" fill="none"/>
    <g id="Grupo_146496" data-name="Grupo 146496" transform="translate(899 1378.391)">
      <g id="Grupo_146496-2" data-name="Grupo 146496" clip-path="url(#clip-path)">
        <path id="Trazado_129412" data-name="Trazado 129412" d="M1.52,50.112C.265,49.713.01,49.377.007,48.066c-.005-2.036-.014-4.074,0-6.11a4.447,4.447,0,0,1,4.69-4.7c.985-.008,1.974-.05,2.955.013.761.05.988-.164.983-.961-.037-6.405-.02-12.811-.02-19.216V5.367c0-3.1.736-4.2,3.581-5.366H71.563A4.8,4.8,0,0,1,75,3.324a5.569,5.569,0,0,1,.133,1.464c.005,3.318.016,6.636-.01,9.953a1.728,1.728,0,0,0,.57,1.369c2.5,2.469,4.962,4.979,7.47,7.442a2.675,2.675,0,0,1,.856,2.086c-.026,6.8,0,13.6-.036,20.4-.005.831.2,1.076,1.024,1.012.98-.077,1.97-.023,2.955-.017A5.466,5.466,0,0,1,93.81,52.88q.012,15.621,0,31.24c0,3.647.006,7.294,0,10.94-.007,3.691-2.261,5.929-5.964,5.932-1.873,0-3.745-.007-5.617,0a1.628,1.628,0,0,1-1.781-1.432,1.473,1.473,0,0,1,1.513-1.786c1.167-.092,2.341-.044,3.511-.03.92-.056,1.842.009,2.76-.047a2.255,2.255,0,0,0,2.294-2.137,9.856,9.856,0,0,0,.048-1.378q0-20.166,0-40.332c0-.3.005-.592-.012-.888A2.535,2.535,0,0,0,88,50.272c-1.111-.107-2.232-.087-3.349-.088q-24.946-.015-49.891-.011c-1.03-.039-1.421-.817-1.825-1.581-1.278-2.4-2.508-4.827-3.8-7.223a1.486,1.486,0,0,0-1.421-.864c-1.179,0-2.36-.028-3.541.026-5.97.033-11.938.008-17.905.016-.36,0-.722,0-1.082,0-1.5.029-1.911.421-1.944,1.949-.037,1.771-.006,3.542-.012,5.313a4.941,4.941,0,0,1-.081,1.175A1.366,1.366,0,0,1,1.52,50.112" transform="translate(0 0)"/>
        <path id="Trazado_129413" data-name="Trazado 129413" d="M85.93,112.786c-.977.011-1.954.024-2.93.032-1.3.01-1.61.245-1.993,1.53H77.131c-.835-1.139-2.009-1.232-3.312-1.231q-33.275.037-66.55.018c-3.206,0-4.1-.89-4.1-4.1q0-18.587.017-37.173a3.468,3.468,0,0,0-1.111-3.075q0-1.948,0-3.9a1.71,1.71,0,0,0,1.457-1.986c-.048-2.064-.029-4.131-.006-6.2.012-1.128.533-1.7,1.587-1.7q9.933,0,19.866.031a2.714,2.714,0,0,1,.874,1.165c.959,2.015,2.122,3.925,3.071,5.945a1.466,1.466,0,0,0,1.459.915c1.1.04,2.227-.272,3.291.231.413.533.625,1.26,1.4,1.448a5.083,5.083,0,0,0,1.178.045q24.388,0,48.775,0c1.372,0,1.634.214,1.912,1.555a6.268,6.268,0,0,1,.1,1.275q0,21.138-.007,42.276c0,1.082-.013,2.2-1.1,2.888" transform="translate(-0.557 -14.786)" fill="#fcb341"/>
        <path id="Trazado_129414" data-name="Trazado 129414" d="M1.517,73.859c1.216.328,1.446.646,1.446,2.06q0,19.426,0,38.852a2.982,2.982,0,0,0,.964,2.568,3.184,3.184,0,0,0,2.141.551q28.89-.009,57.779,0,5.423,0,10.846,0c1.228,0,1.626.333,1.886,1.53-.341,1.189-.684,1.427-2.085,1.427H16.528q-5.372,0-10.744,0a5.451,5.451,0,0,1-5.773-5.727Q0,95.5.008,75.879c0-1.337.3-1.726,1.509-2.02" transform="translate(-0.001 -19.852)"/>
        <path id="Trazado_129415" data-name="Trazado 129415" d="M84.308,50.483c-.392.02-.784.058-1.176.058q-19.08,0-38.16.023c-.9,0-1.468-.191-1.781-1.084a15.427,15.427,0,0,0-.947-1.848H80.015c1.514,0,2.235-.461,2.271-1.446.037-1.011-.718-1.511-2.286-1.511q-19.179,0-38.357.018a1.3,1.3,0,0,1-1.416-.874,4.723,4.723,0,0,0-4.991-3.062c-1.541.075-3.089-.008-4.633.026-.564.012-.807-.08-.805-.734.024-8.054.007-16.107.024-24.161,0-1.86,1.041-2.788,3.043-2.79q14.248-.009,28.5,0c3.254,0,6.509.034,9.762-.023.855-.015,1.007.247,1,1.037-.046,3.253-.022,6.508-.019,9.762,0,3.32,1.5,5.262,4.717,6.115,2.2.141,4.4.028,6.6.061,1.065.016,1.193.094,1.2,1.178.026,6.049.017,12.1.007,18.146a1.643,1.643,0,0,1-.313,1.115" transform="translate(-8.01 -3.513)" fill="#e9f5fe"/>
        <path id="Trazado_129416" data-name="Trazado 129416" d="M18.46,38.307c-2.629.154-2.629.154-2.629-2.4q0-14.843,0-29.686c0-1.8.386-2.175,2.2-2.175q26.231,0,52.463,0c.328,0,.656.02.983.031a.971.971,0,0,1,.549.959C72.022,6.167,72,7.3,71.9,8.426a.6.6,0,0,1-.235.41,3.578,3.578,0,0,0-3.158-1.145q-19.539.05-39.077,0A6.8,6.8,0,0,0,24.785,9.2a3.631,3.631,0,0,1-1.533.288,3.808,3.808,0,0,0-3.924,4.017c-.015,7.587,0,15.174-.007,22.761,0,.394,0,.788-.022,1.182-.034.532-.25.875-.839.859" transform="translate(-4.255 -1.088)" fill="#60b6fe"/>
        <path id="Trazado_129417" data-name="Trazado 129417" d="M98.06,116.364a5.746,5.746,0,0,0,.8-3.185q-.036-21-.016-41.994c0-.3.02-.593-.008-.886-.151-1.544-.47-1.832-1.994-1.832q-24.247,0-48.495-.007c-.382,0-.79.126-1.145-.137q11.734.01,23.468.02,14.742.007,29.485.006c2.605,0,3.387.793,3.387,3.43q0,20.662,0,41.323c0,2.47-.832,3.3-3.315,3.294-.722,0-1.445-.02-2.167-.031" transform="translate(-12.688 -18.364)" fill="#fda513"/>
        <path id="Trazado_129418" data-name="Trazado 129418" d="M19.426,40.193c.65-.171.558-.686.558-1.174q-.005-11.773,0-23.546a4.091,4.091,0,0,1,4.391-4.411c.459,0,.918.015,1.378.024a6.6,6.6,0,0,0-1.7,4.769c.045,7.784.007,15.568.037,23.353,0,.8-.188,1.093-1.022,1.039-1.209-.08-2.427-.042-3.641-.054" transform="translate(-5.221 -2.973)" fill="#26a5fd"/>
        <path id="Trazado_129419" data-name="Trazado 129419" d="M101.592,56.7c0-6.435-.015-12.871.016-19.306,0-.826-.236-1.068-1.051-1.043-1.8.057-3.611.024-5.417.012-.349,0-.728.113-1.038-.164,3.78.009,7.559.041,11.337.007.755-.007.918.2.914.931q-.045,9.369,0,18.737c0,.76-.2.945-.927.9-1.276-.077-2.558-.056-3.837-.076" transform="translate(-25.293 -9.73)" fill="#d7ebfd"/>
        <path id="Trazado_129420" data-name="Trazado 129420" d="M103.047,27.981c-2.827,0-5.936.045-9.043-.021a2.457,2.457,0,0,1-2.3-2.607c-.034-2.98-.01-5.959-.01-8.709l11.351,11.338" transform="translate(-24.645 -4.473)" fill="#b2d9fd"/>
        <path id="Trazado_129421" data-name="Trazado 129421" d="M42.1,63.294c-1.248,0-2.5,0-3.745.018a.893.893,0,0,1-.963-.489c-1.317-2.6-2.656-5.191-3.988-7.784,1.149-.012,2.3-.02,3.445-.038a1.426,1.426,0,0,1,1.375.789c1.3,2.5,2.586,5,3.876,7.505" transform="translate(-8.978 -14.783)" fill="#fda513"/>
        <path id="Trazado_129422" data-name="Trazado 129422" d="M92.121,8.837c-.069-1.438.2-2.875,0-4.311a1.988,1.988,0,0,0-.178-.446c1.114-.011,2.227-.044,3.339-.026a1.444,1.444,0,0,1,1.6,1.58c.022,2.587.007,5.175.007,7.738L92.121,8.837" transform="translate(-24.712 -1.088)" fill="#26a5fd"/>
        <path id="Trazado_129423" data-name="Trazado 129423" d="M62.124,45.837h-20.6a5.176,5.176,0,0,1-.885-.018,1.47,1.47,0,0,1,.014-2.923,5.761,5.761,0,0,1,.885-.016H82.93c1.217.012,1.93.562,1.925,1.484s-.718,1.473-1.938,1.473q-10.4,0-20.793,0" transform="translate(-10.574 -11.523)"/>
      </g>
    </g>
  </g>
</svg>
