<svg xmlns="http://www.w3.org/2000/svg" xmlns:xlink="http://www.w3.org/1999/xlink" width="530.129" height="320.135" viewBox="0 0 530.129 320.135">
  <defs>
    <filter id="Trazado_113277" x="0" y="225.927" width="131.448" height="94.208" filterUnits="userSpaceOnUse">
      <feOffset dy="3" input="SourceAlpha"/>
      <feGaussianBlur stdDeviation="8.5" result="blur"/>
      <feFlood flood-opacity="0.2"/>
      <feComposite operator="in" in2="blur"/>
      <feComposite in="SourceGraphic"/>
    </filter>
  </defs>
  <g id="Grupo_146487" data-name="Grupo 146487" transform="translate(-889.871 -404)">
    <rect id="Rectángulo_33902" data-name="Rectángulo 33902" width="487" height="256.334" rx="21" transform="translate(933 440)" fill="#f6f6f6"/>
    <g id="Grupo_146488" data-name="Grupo 146488" transform="translate(7742.5 13919)">
      <g id="Grupo_146489" data-name="Grupo 146489">
        <path id="Trazado_129283" data-name="Trazado 129283" d="M44.782,315.2S15.453,326.933,9.91,334.574,64.776,356.407,66.2,355.047s14.264-35.364,13.7-37.167S44.782,315.2,44.782,315.2" transform="translate(-6777.958 -13604.737)" fill="#361524"/>
        <path id="Trazado_129284" data-name="Trazado 129284" d="M112.816,281.44,56.548,305.592,67.162,332.9l61.363-14.172,9.14-32.667Z" transform="translate(-6789.724 -13595.125)" fill="#b1dbea"/>
        <path id="Trazado_129285" data-name="Trazado 129285" d="M297.158,256.944s-34.129,34.822-34.986,34.96-21.7,2.453-25.424.957-25.131-36.637-25.131-36.637,3.633-.515,9.271-1.071c3.582-.352,7.961-.727,12.733-1,5.664-.327,11.86-.506,17.909-.343,19.177.515,45.628,3.132,45.628,3.132" transform="translate(-6828.545 -13587.242)" fill="#ffa6a6"/>
        <path id="Trazado_129286" data-name="Trazado 129286" d="M279.492,221.521a9.1,9.1,0,0,0-1.2-3.448,6.215,6.215,0,0,1-.839-3.3,12.43,12.43,0,0,0,.043-1.956,5.039,5.039,0,0,0-2.13-3.441,7.743,7.743,0,0,0-2.58-7.2,6.916,6.916,0,0,0-8.132-.593,7.007,7.007,0,0,0-11.865-1.821,6.389,6.389,0,0,0-7.969-1.1c-1.15.672-1.861,2.087-3.1,2.406-2.513.645-4.652,1.429-6.044,3.943a8.294,8.294,0,0,0-.918,5.157,13.725,13.725,0,0,0-3.328,14.362,12.831,12.831,0,0,0,5.16,6.542,6.9,6.9,0,0,0,1.263,3.33c1.45,1.837,3.91,2.074,6,2.4a68.839,68.839,0,0,0,17.682.607c4.6-.471,9.913-1.143,13.629-4.319a9.646,9.646,0,0,0,3.4-6.658,8.7,8.7,0,0,0,.929-4.908" transform="translate(-6833.307 -13571.151)" fill="#361524"/>
        <path id="Trazado_129287" data-name="Trazado 129287" d="M261.775,273.91s-8.931,6.57-19.145,3.709c-13.813-3.868-17.18-17.808-18.645-22.3,3.582-.351,7.961-.727,12.733-1,6.795,5.11,19.554,15.526,19.554,15.526Z" transform="translate(-6831.641 -13587.403)" fill="#361524"/>
        <path id="Trazado_129288" data-name="Trazado 129288" d="M246.683,259.1c4.493,6.412,12.506,8.092,19.617,4.7,5.9-2.817,8.7-8.084,9.922-14.12a44.362,44.362,0,0,0,.524-16.034c-.883-5.051-10.633-15.8-17.784-14.292s-14.764,6.663-16.53,8.06-3.063,21.252,4.251,31.69" transform="translate(-6835.915 -13577.407)" fill="#ffa6a6"/>
        <path id="Trazado_129289" data-name="Trazado 129289" d="M241,240.788s-3.036-3.343-5.372-1.114,1.021,9.462,2.686,11.144c2.647,2.675,5.139,1.74,5.139,1.74Z" transform="translate(-6834.356 -13583.016)" fill="#ffa6a6"/>
        <path id="Trazado_129290" data-name="Trazado 129290" d="M256.966,254.4a1.628,1.628,0,0,0-.6-1.43.917.917,0,0,0-1-.044,1.142,1.142,0,0,0-.4.667,3.748,3.748,0,0,0,.034,2.073,1.112,1.112,0,0,0,.284.515.912.912,0,0,0,1.131-.031,1.542,1.542,0,0,0,.508-1.046,5.847,5.847,0,0,0,.048-.705" transform="translate(-6839.363 -13586.971)" fill="#361524"/>
        <path id="Trazado_129291" data-name="Trazado 129291" d="M274.131,254.464a1.511,1.511,0,0,0-.561-1.328.851.851,0,0,0-.933-.04,1.059,1.059,0,0,0-.367.619,3.477,3.477,0,0,0,.031,1.924,1.027,1.027,0,0,0,.264.479.848.848,0,0,0,1.05-.029,1.434,1.434,0,0,0,.472-.971,5.485,5.485,0,0,0,.044-.654" transform="translate(-6843.699 -13587.021)" fill="#361524"/>
        <path id="Trazado_129292" data-name="Trazado 129292" d="M265.524,262.115a.438.438,0,0,1-.075-.006c-1.263-.214-2.768-.634-2.768-1.424,0-.627.629-4.526.7-4.968a.431.431,0,0,1,.489-.342.411.411,0,0,1,.358.466c-.278,1.713-.691,4.416-.691,4.843a6.752,6.752,0,0,0,2.061.619.41.41,0,0,1,.346.474.423.423,0,0,1-.421.337" transform="translate(-6841.329 -13587.703)" fill="#361524"/>
        <path id="Trazado_129293" data-name="Trazado 129293" d="M263.049,268.088a6.7,6.7,0,0,1-5.61-2.687.4.4,0,0,1,.127-.565.442.442,0,0,1,.593.121,5.908,5.908,0,0,0,5.275,2.3,5.326,5.326,0,0,0,4.585-2.621.437.437,0,0,1,.575-.183.4.4,0,0,1,.192.549,6.176,6.176,0,0,1-5.3,3.072c-.144.007-.289.011-.432.011" transform="translate(-6839.999 -13590.277)" fill="#361524"/>
        <path id="Trazado_129294" data-name="Trazado 129294" d="M257.68,247.33a1.154,1.154,0,0,0-.049-.125,1.819,1.819,0,0,0-.705-.727,5.289,5.289,0,0,0-2.43-.672,6.915,6.915,0,0,0-2.189.136c-.851.213-2.893,1.274-1.792,2.319a2.382,2.382,0,0,0,1.316.5,12.668,12.668,0,0,0,4.85-.14,1.535,1.535,0,0,0,.887-.46.907.907,0,0,0,.112-.83" transform="translate(-6838.203 -13584.972)" fill="#361524"/>
        <path id="Trazado_129295" data-name="Trazado 129295" d="M269.17,248.161a1.535,1.535,0,0,0,.887.46,12.668,12.668,0,0,0,4.85.14,2.382,2.382,0,0,0,1.316-.5c1.1-1.045-.942-2.106-1.792-2.319a6.915,6.915,0,0,0-2.189-.136,5.289,5.289,0,0,0-2.43.672,1.819,1.819,0,0,0-.705.727,1.012,1.012,0,0,0-.049.125.907.907,0,0,0,.112.83" transform="translate(-6842.912 -13584.972)" fill="#361524"/>
        <path id="Trazado_129296" data-name="Trazado 129296" d="M278.509,229.233a2.555,2.555,0,0,1,1.043-2.08,21.307,21.307,0,0,0-5.993-4.192,18.091,18.091,0,0,0-1.216-1.648,16.523,16.523,0,0,0-11.978-5.658c-8.873-.5-21.166,4.06-23.353,13.15a.4.4,0,0,0,.283.476,6.03,6.03,0,0,0,5.549,7.2,7.4,7.4,0,0,0,6.134-2.614,5.237,5.237,0,0,0,4.535,1.7,6.921,6.921,0,0,0,5.554-4.353c1.639.837,3.769.215,5.439-.756a11.328,11.328,0,0,0,3.857-3.7c-.288.449,1.092,2.56,1.355,2.974a14.312,14.312,0,0,0,2.96,2.819,6.67,6.67,0,0,0,4.018,1.125c.769-1.443,1.783-2.914,1.813-4.447" transform="translate(-6834.899 -13576.386)" fill="#361524"/>
        <path id="Trazado_129297" data-name="Trazado 129297" d="M286.042,239.788s3.037-3.343,5.372-1.114-1.021,9.462-2.686,11.144c-2.647,2.675-5.139,1.74-5.139,1.74Z" transform="translate(-6846.563 -13582.731)" fill="#ffa6a6"/>
        <path id="Trazado_129298" data-name="Trazado 129298" d="M222.256,255.38s5.441,27.484,26.926,28.915,29.943-28.36,29.943-28.36l16.889,1.473-2.425,92.6H207.045l10.488-94.229Z" transform="translate(-6827.4 -13587.706)" fill="#fff"/>
        <path id="Trazado_129299" data-name="Trazado 129299" d="M271.208,307.8l.163.027-.052-.174Zm-.229-3.969c.124-.074.307-.125.352-.23.034-.079-.108-.227-.176-.352-.127.083-.3.142-.358.255-.034.063.115.215.182.327m-.037-4.355h0m0,0-.078.046.078-.046m-.409,20.111,1.61-.2c-.011-.145-.023-.29-.035-.435l-1.622.086.047.552m1.244-8.049.05-.061-.087-.067.024.082-.116.029Zm-.684,4.777.73.02q-.119-1.3-.238-2.6l-.65.045.157,2.53m-2.969-15.3-.193-.082c-.024.058-.085.139-.064.17.032.047.12.059.184.085l.072-.172m1.067,10.547q-.094-.6-.188-1.206l-.559.234.747.972m.058.075.106-.089-.157.024-.007-.009,0,.01Zm1.288,9.2a.16.16,0,0,0,.062.152c.038.018.111-.033.168-.054-.021-.056-.043-.112-.064-.168-.058.021-.145.03-.166.069m-.711,7.129-2.662,2.906.062-.136-.118.079c-.044.534-.088,1.069-.131,1.579l4.308-.506-.079-.642-.948.055-1.069-.021-.05-.014,1.151.014c-.162-1.156-.325-2.312-.465-3.313m1-28.408.037-.032-.041.024-.037.047.135.116Zm10.956,16.442-.094-.04.057.054.037-.014m.113,6.5-2.275-2.869-.5.407,2.264,2.83.511-.368m-3.6,2.215-1.463.592H278.4c-.033-.2-.067-.395-.1-.592m-1.463.592h-.181c-.006.055-.012.11-.017.164l.058-.107.14-.057m-.448,2.611.25-2.446-1.189,2.194.939.253m1.35-8.943q-.16-.46-.319-.921l-.411.089.13.977.6-.145m.963,8.936a3.034,3.034,0,0,0,.43-.147c-.049-.063-.11-.183-.143-.177a2.9,2.9,0,0,0-.424.151c.047.061.106.179.138.172m-1.13-35.7-.118-.027-.1.138.112-.087Zm-1.231,18.828q-.1-.207-.206-.413a2.319,2.319,0,0,0-.226.378c-.021.055.053.144.085.217l.348-.182m-1.759-9.642a1.248,1.248,0,0,0-.187-.089q-.091.181-.181.363l.212.092a3.836,3.836,0,0,0,.156-.367m1.19,14.853-2.795.876c1.521.72,1.567.725,2.795-.876m-5.041,9c1.035,1.8,2.029,3.521,3.119,5.415.669-3.554-.714-5.629-3.119-5.415m-4.5-18.324.074.02-.018-.059h-.029Zm9.737,7.888-.057-.069-.073.017.071.029q-.026.673-.052,1.345l-.085.111.13-.042q.033-.7.066-1.391m-1.742-1.567-.283-.2-.164.126a1.7,1.7,0,0,0,.285.193c.028.013.106-.077.162-.119m-.618-6.12c0-.047-.072-.1-.113-.151l-.21.217.182.062c.05-.042.136-.082.141-.128m-2.881,10.586-.2-.079c-.023.057-.082.147-.064.164a.62.62,0,0,0,.2.085l.07-.17m-12.081-11.076v-1.066l-.544.105.319,1.02Zm2.1-.329c-.043.038-.042.119-.06.182l.314-.012-.069-.185c-.064,0-.15-.016-.185.015m-1.341-9.423c-.034-.051-.125-.069-.192-.1l-.131.16.309.134c.007-.066.043-.149.014-.194m1.115,17.549,2.391-.255.152-.148-.2.152c.049-.456.1-.913.217-2.009l-2.559,2.259m1.987-20.449-.031.142.175-.044Zm-1.064,2.086c-.016.03.1.17.13.163a1.706,1.706,0,0,0,.347-.135c-.082-.108-.166-.215-.25-.323a1.745,1.745,0,0,0-.227.295m.382-3.532-.3-.237c-.042.068-.12.137-.115.2,0,.046.117.085.181.127Zm-.931,12.623q-.336-1.211-.675-2.423l-.739.278q.39,1.169.78,2.339l.634-.193m-4.927,2.227.292-.127c-.042-.049-.077-.127-.128-.138s-.121.044-.182.069l.018.2m.066-10.169c.034-.014.02-.134.027-.205a.675.675,0,0,0-.244-.007c-.029.01-.044.175-.017.191a.306.306,0,0,0,.235.021m.028,17.969.047.054h.1l-.094-.034.034-.117Zm.7.057-.545,0,.489.175.056-.172m2.259,3.792c-.343-.419-.681-.843-1.045-1.245a4.078,4.078,0,0,0-.625.328l1.14,1.281ZM256.8,305.158l-.329-.435c-.113.11-.277.205-.32.337-.025.076.145.21.231.324l.418-.226m1.646,9.549c.023.057.045.114.067.171l.173-.047c-.02-.057-.025-.138-.067-.162s-.113.022-.173.037m6.932-6.039c-.108-.19-.184-.5-.332-.536-.172-.042-.409.157-.784.328a2.771,2.771,0,0,0,.671.394c.127.027.3-.118.445-.186m.671-5.956-1.34.7q.234.261.466.523l.873-1.225m-1.02,14.443-.082-.185-.094.176Zm1.538-14.175.079.048-.109-.117a.652.652,0,0,0-.417-.236l-.031-.019-.04.056.069-.036.449.3m.236-3.508-.2.064.179.112Zm-2.14,12.395q-.2-.735-.394-1.471l-.491.1q.081.735.161,1.47l.724-.1m.429-14.406-.1-.177c-.055.032-.133.053-.156.1a.506.506,0,0,0-.011.2l.268-.125m1.189,9.421h2.223l-.063-.569-2.46-.442c.125.421.213.719.3,1.011m-1.825,12.275c-.006-.157-.265-.3-.412-.457-.158.157-.41.3-.445.479-.026.137.221.323.415.577.208-.264.448-.435.442-.6m-.993,4.072a.269.269,0,0,0-.009-.029Zm-.132-6.3-.091.159.172.008Zm.2,6.354-.049-.006-.015-.047v.1l.064-.049m2.173-1.675-2.173,1.675c1.442.2,1.457.175,2.173-1.675m22.412-3.936c-.154,0-.308-.005-.459.01a1.2,1.2,0,0,0-.013.22c.151.006.3.018.454.01a1.8,1.8,0,0,0,.018-.24m-8.329,17.787.205.125a.31.31,0,0,0-.047-.087c-.032-.031-.1-.026-.158-.038m-.487-5.58-1.219-.014-.01.016v.036l.007-.036,1.225.011c0,.011,0,.021.005.031,0-.01,0-.02.005-.03Zm3.241-14.162-.756.274.773.327q-.009-.3-.017-.6m-4.476,14.23c-.028.144-.044.228,0,0m.006-.029h0l-.006.029.006-.029m-1.12,2.312.106.241.07-.167-.176-.074m2.357-2.306-.463,2.764c2.355-1.014.564-1.918.463-2.764m1.732,14c.135.07.331.23.394.192a2.309,2.309,0,0,0,.448-.456l-.477-.292-.364.555M281.3,328.4l-.108.1.13-.042c.021.055.039.1.055.142-.006-.045-.013-.1-.021-.154Zm.077.207V328.6h0v.007m0-.007h0l.008.021-.008-.021m0,.007c.013.1.018.136,0,0m-1.713,9.746q-.285.636-.571,1.273l1.181-.848-.61-.424m2.1,3.457.174.152.026-.042-.011-.021,0,.014-.187-.1m1.2-5.166c-2.183.607-2.5,2.29-1.011,5.255l1.293-5.17a.383.383,0,0,0-.283-.085m-4.925,2.5.9,1.3c.008-.234.016-.469.023-.7l-.921-.6m1.056.477-.134.1,0,.026.062.04.073-.162m-4.682-3.953c-.008-.084-.017-.169-.026-.253-.036.041-.077.082-.081.125s.069.085.107.128m-2.679,2.374,2.914-.349-2.852-.713q-.03.531-.061,1.062m1.988-3.443-.025-.062-.032-.056.057.117m-16.417-6.94L256.29,324.6l-.846.242q.48,1.586.961,3.172l.9-.361m13.323,7.737-.154-.092-.017.152Zm-1.295-1.431-.026.075.077.124c-.013-.052-.026-.1-.04-.155l.058-.047Zm5.432,3.713-.117.014.156.039Zm13.556,1.984.991-2.1-3.628.547,2.637,1.554m-12.218-4.21,1.729,3.349c-.145-1.159-.283-2.32-.5-3.467-.007-.035-.939.089-1.229.118m1.729,3.349c.009.075.02.151.029.226l.178.116-.121-.175-.086-.167m-4.135-4.265.025.062.66.768,0,.047a.308.308,0,0,0,.025-.029l-.715-.848m5.344,6.171-.051-.185-.054-.077,0,.138.109.124m-4.095-16.546c-.054.067.066.264.106.4l.555-.236-.16-.506a2.02,2.02,0,0,0-.5.34m5.138,11.48-.1-.058c.016.034.036.064.052.1Zm5.156-7.654h0m1.707,1.283c.013-.062.028-.122.039-.176l-.092.109-1.491-1.148-.163-.068.094.134,1.613,1.149m-1.876,6.989c-.011-.131-.022-.261-.034-.392a1.675,1.675,0,0,0-.205.025,1.768,1.768,0,0,0,.041.377,1.312,1.312,0,0,0,.2-.01m.2-12.463,0,.059.072.144c-.022-.067-.045-.135-.068-.2m3.512-9.928-.175-.134-.253.289a1.087,1.087,0,0,0,.172.124,3.193,3.193,0,0,0,.256-.279m-5.242,25.548c-.036.071.288.307.51.529.2-.25.451-.428.457-.612,0-.167-.261-.34-.407-.511a2.639,2.639,0,0,0-.559.594m2.965-17.689a2.452,2.452,0,0,0-.216-.493,5.475,5.475,0,0,0-.824.27l.184.455.855-.232m-4.5,13.086.67.315,1.132-2.03-.7-.46-1.1,2.175m.412-8.491c.071-.014.2-.025.205-.044a2.448,2.448,0,0,0-.022-.376.971.971,0,0,0-.2.03,3.247,3.247,0,0,0,.016.391m.063-13.125-.156-.024.055.186Zm.787-8.471a3.617,3.617,0,0,0-.361-.212,1.366,1.366,0,0,0-.134.181l.356.225c.046-.065.092-.129.139-.193m-16,23.006-.209.078.2.1Zm15.567-18.209c.148.067.3.2.439.18.118-.014.212-.2.316-.305-.115-.1-.3-.3-.334-.28a2.566,2.566,0,0,0-.421.406m5.814.539.015.057.025.014.183-.075-.193.057c-.011-.019-.02-.035-.029-.053s-.013-.049-.018-.068c.005.023.01.039.017.068l-.039-.071.039.071m-4.156,7.552c-.037-.134-.073-.268-.111-.4-.14.049-.345.062-.4.156s.055.26.092.4l.421-.15m4.4,26.416c.047-.061.147-.158.133-.176a2.783,2.783,0,0,0-.293-.3l-.128.2c.1.091.193.183.288.275m-2.345-7.19.3.113c.006-.062.04-.142.011-.18s-.121-.057-.185-.082l-.127.149m3.714,16.776c.139.066.286.192.412.176.083-.011.138-.227.205-.35-.137-.064-.285-.192-.409-.173-.086.014-.14.225-.209.348m-2.882-19.924h-.256l.2.039Zm1.086-13.046a2.873,2.873,0,0,0-.364-.042.94.94,0,0,0-.04.2l.372.047c.01-.067.022-.134.033-.2m1.3,29.277c-.12.321.136.772.31,1.525l1.033-2.547c-.723.523-1.224.707-1.343,1.021m-3.735-16.441c-.018.069-.037.139-.055.21h1.151l-1.1-.21m.118-1.634,2.173-.6q-.09-.314-.178-.629l-2.2.5.2.73m3.759-14.214c-.022-.045-.116-.059-.178-.086l-.121.2.309.117a.548.548,0,0,0-.009-.228m-.375,15.2-.427,1.953,1.792-.129-1.365-1.824m.464-10.467c-.013-.056-.025-.112-.038-.167l-.19.049.227.118m.152,19.947-1.615-.9-.4.828,1.69.691.322-.616m.305-12.19.368.054c.016-.068.031-.135.046-.2a3.1,3.1,0,0,0-.37-.043.893.893,0,0,0-.043.192m.109-2.559a1.983,1.983,0,0,0,.273-.259l-.35-.2a2.227,2.227,0,0,0-.106.37c0,.026.155.111.183.092m-7.349,2-.072-.019.017.071.334.192-.278-.243M227.8,315.347l-.19.068.258.113c-.023-.06-.046-.12-.068-.181m-.391-8.267-.17.037.127.1ZM227.441,343l-.335-.107c.018.057.029.16.055.163a.987.987,0,0,0,.28-.056m-.365-44.33a3.043,3.043,0,0,0-.664-.125,5.309,5.309,0,0,0-.267.942l.376.134.555-.951m.974,18.8-.052-.4-.2.046.254.356m1.014-6.448a3.194,3.194,0,0,0-.642-.349c-.067-.019-.208.192-.314.3a3.186,3.186,0,0,0,.551.4c.05.023.217-.182.406-.348m-.869,6.6c-.026-.019-.052-.038-.078-.054l-.067-.094c.006.049.013.1.019.149h.126m.283,0-.283,0a.413.413,0,0,0,.128.069c.042.011.1-.045.155-.071m-1.873,4.421c-.055-.136-.115-.27-.172-.4l-.381.163.28.531.273-.29m-2.433-1.851-.442-.6q.114.348.226.7l.215-.1m-.532-6.272c-.07-.031-.155-.1-.206-.084s-.071.123-.1.19c.07.031.154.1.206.083s.07-.122.1-.189m0,5.554.087.119c-.008-.026-.017-.052-.025-.078l-.11-.117c.016.026.032.052.049.077m1.775,24.815.439.408.305-.343c-.116-.1-.226-.26-.355-.274s-.259.132-.389.208m.128-20.537-.72-.215q-.3.92-.608,1.84l.723.192.6-1.817m.013-4.255c.078.025.3-.121.31-.2.008-.106-.135-.222-.214-.333l-.344.22c.081.111.141.279.248.313m7.571-3.787c.016-.064.033-.128.049-.192a2.848,2.848,0,0,0-.371-.042c-.017,0-.034.119-.052.184l.374.05m-.544-5.8.09.275.11-.221-.2-.054m-1.765-8.024c.055.014.13-.034.195-.056l-.018-.19-.307.1c.042.05.076.129.13.143m1.628-9.564-.073-.117-.073.034-.032.043.047-.034.131.074m.244,17.915-.017-.051-.037.074-1.519.187.2.625,1.368-.835m-3.17-4.573c.016-.014-.025-.091-.04-.139a.486.486,0,0,0-.167.059c-.017.015.025.092.04.141a.513.513,0,0,0,.168-.06m3.172,27.414.509.523a4.047,4.047,0,0,0,.389-.619c.012-.03-.26-.245-.359-.22a2.067,2.067,0,0,0-.539.316m-.073-2.139c.129.062.273.188.382.165s.154-.208.234-.329c-.138-.065-.282-.188-.406-.172-.084.011-.141.217-.21.335m-9.922-6.876a2.8,2.8,0,0,0-.232-.277c-.009-.009-.111.067-.169.1l.223.284.178-.112m9.6,12.649-2.346-.971-.225.512,2.345.972.226-.514m-.52-6.262-.6-.7c-.367.5-.746.991-1.085,1.507-.033.05.168.242.389.543l1.3-1.352m-2.464-7.112c.074,0,.148,0,.222,0,.025-.064.086-.139.067-.185s-.115-.077-.176-.114l-.113.3m2.02-1.793-.4-.21-.246.38c.144.064.295.186.431.172.084-.008.145-.222.217-.343m-.594,6.254.346-.022c0,.137.008.275.013.412,0-.137,0-.275-.005-.413l-.009-.033-.344.056m-.2-3.114-.181.079.172.088Zm-11.868-8.245-.1-.082-.025.228.069-.169Zm-1.591,28.76-2.531-2.725-.593.469,1.55,4.049,1.574-1.793m-.768-17.5-.334-.334-1.268,1.423.191.158,1.412-1.247m-1.863,13.75c.02-.065.041-.13.062-.2l-.34.024c.023.065.028.155.076.187s.133-.008.2-.016M214,323.669l.064-.041.061-.046-.125.087m1.642,16.788.369,1.047.421-.138q-.192-.52-.386-1.041l-.4.132m1.553,2.709c.112-.043.164-.229.242-.354-.145-.042-.316-.147-.427-.105s-.16.23-.238.353c.143.042.314.148.422.106m-1.014-12.119.127-.022v.128l.06-.138-.06-.034Zm.127.861v-.755l-.3.7.3.056m-4.47,3.529.19-.058-.168-.1Zm-.451,20.693.124.057.128-.126-.11.06-.142.009m-.735.044.735-.044-.675-.311c-.019.118-.04.237-.06.355m2.657-22.827a2.506,2.506,0,0,0,.61-.255c-.1-.1-.194-.284-.3-.286a2.932,2.932,0,0,0-.684.149c.172.191.291.406.37.393m.355-19.114-.156-.019.058.131Zm.4,9.4-.064.041-.18.535.09.027q.078-.3.154-.6m-1.209,2.812c.025-.036-.035-.127-.058-.194l-.218.061c.023.072.046.143.069.215.072-.026.172-.033.207-.082m5.672-16.812-.16.293c.053-.007.144,0,.153-.026a.91.91,0,0,0,.008-.267M218.4,332.4l.133-.043-.115-.077Zm1.412,3.68-1.5,2.055.308.217,1.789-1.822-.6-.45m-1.558,12.076-.711-.469-.058.047.732.479Zm1.957-24.78-.3-.258-.932.984.315.267.921-.994m1.582-17.46a.534.534,0,0,0-.3-.343c-.106-.039-.271.074-.75.231a6.348,6.348,0,0,0,.807.4c.044.015.257-.209.239-.293m-1.013,42.874-.347.088.145.147.2-.235m.781-10.976-.267-.21-.564.655.259.2.572-.649m-1.222-23.169a.568.568,0,0,0-.185-.052c-.022,0-.038.093-.057.145a.562.562,0,0,0,.184.049c.023,0,.039-.092.058-.142m-2.454-7.824-.108.168.193.031Zm-.023,6.451a.566.566,0,0,0,.195.009c.023-.008.019-.1.027-.151a.572.572,0,0,0-.2-.009c-.023.007-.018.1-.026.151m16.034,6.089.086.027-.051-.1-.068.064-.172.066.11.147c.032-.067.064-.135.1-.2M217.99,333.722h-.25c-.028.064-.1.149-.076.19.032.061.129.091.2.134l.129-.323m5.393-2.305-1.732-.379-.115.423,1.693.518.154-.562m-5.04-.511c.049.009.111-.043.2-.082l-.316-.046c.038.046.07.119.116.128m20.326-16.136c0-.016-.127-.057-.2-.087a3.767,3.767,0,0,0-.134.414c0,.016.13.059.2.089a3.812,3.812,0,0,0,.13-.416m13.319,22.11c-.038-.265-.074-.529-.112-.793l-4.316-.388a10.046,10.046,0,0,0,.478,1.726c1.323-.106,2.635-.34,3.95-.545m-4.15-34.151-.067-.1-.139.108.085-.059Zm-1.881,18.232,1.373.26c.043-.215.088-.428.131-.642h-1.455c-.017.127-.032.255-.049.382m3.912-19.938-.126-.718-1.655.447.074.271Zm-2.9,14.936.482-.443L246.438,315l.53.956m-11.075,14.682.022,0-.146-.83-.021-.035-.008,0,.009.012q.072.429.145.859m12.354-10.8c.223-.27.5-.463.476-.617-.025-.179-.312-.324-.485-.484-.149.157-.412.311-.415.471,0,.177.229.359.424.629m-1.654-25.112-.193,0,.094.186Zm.52,4.1c0-.072,0-.144,0-.217l-.4.027.205.326.192-.137m3.864,13.164c-.326-.241-.556-.5-.648-.461a.809.809,0,0,0-.442.5c-.03.155.185.354.291.533l.8-.571m-3.906-4.1-.256-.624-1.592.588.264.582,1.584-.546m.213,3.733-.142.065.137.073Zm-.954,2.577c.014.127.029.255.044.382l.028.019-.029-.019c-.034.021-.042.049-.064.072l.121-.034q-.051-.21-.1-.42m-.389.56.322.074a.194.194,0,0,1,.046-.18l-.369.106m.388.119.032-.022-.1-.023c.006.028,0,.051.014.082l.162.082-.078-.14-.032.022m-1.522-9.253a2.143,2.143,0,0,0,.2.346l.187-.155-.226-.343c-.058.052-.175.125-.164.152m9.2,7.374-1.221-2.093-.516.383,1.149,2.029.588-.32m-.038,12.205-1.785-.823-.188.35,1.639.923.334-.45M253.68,308.3c-.151-.593-.293-1.151-.436-1.709-1.025,1.1-1.02,1.1.436,1.709m-2.825,11.139q.163.877.327,1.754l.771-.172-.412-1.727-.686.145m3.427-18.879-.077.154-.077.123.122-.08c.01-.065.021-.131.032-.2m-3.673,31.958-.207-.33-1.612.669.426.659,1.393-1m4.772-29.131-.5-.337-1.161,1.275.76.479.9-1.417m-1.442,3.463-.68-.275-.015.012v0l0,0q.346.13.692.261M248.6,326.615l.813-2.092c-1.677,1.272-1.7,1.3-.813,2.092m.663.1c-.133-.011-.266-.021-.4-.034-.076-.008-.151-.021-.227-.031l-.038-.035-.022.057.686.042m.466,2.237-.9-.182c-.2,1.036-.394,2.072-.682,3.588,2.345-.991,2.393-2.1,1.585-3.406m.576-12.312,1.287.315c.021-.117.043-.234.064-.351l-1.235-.382q-.057.209-.115.418m1.246-14.5-.086-.042-.014.073-.01.134.016-.135Zm-2.3,3.778-.058.029.443.1-.342-.118.03,0Zm-1.089.3-.188-.039.055.208Zm-10.489,17.81-.285.122c.034.06.055.149.106.17s.118-.052.178-.083v-.209m.07-5.416-.276-.25c-.037.059-.119.149-.1.172a1.753,1.753,0,0,0,.254.24l.124-.161M237.328,328l.026-.1-.389-.486-.058.049.37.4Zm18.012-32.528-.156.043.123.1Zm-10.346,16.373-.154-.052a.459.459,0,0,0-.053.164c0,.02.092.036.142.053.021-.055.043-.11.064-.165m-8.124-3.958a1.989,1.989,0,0,0-.24-.273c-.018-.016-.121.06-.186.094l.235.284.191-.1m1.69,32.68a3.413,3.413,0,0,0-.407-.048,1.16,1.16,0,0,0-.044.214l.406.059.045-.225m-2.592-16.156-.637-.373-.814,1.34.526.305.925-1.272m.042-8.988-.15,0,.071.139Zm-.842-10.962c0-.047.005-.094.008-.14l-.172-.047.121.1.043.087m-.52,23.862-.578.69,1.67.755-1.092-1.445m3.885-29.656-.088.177h.175Zm-2.314,22.237c.148.026.346-.207.606-.381-.267-.225-.428-.464-.616-.484-.13-.014-.42.276-.414.422a.629.629,0,0,0,.424.443m-1.558-16.913-.091.165.434.118-.343-.283m.837,1.147q-.165-.338-.33-.676-.022.376-.043.75l.373-.074m1.976,26.172.16.248.128-.139c-.032-.053-.053-.135-.1-.152s-.125.026-.189.042m4.929-9.388-1.439,2.682.389.217L242.567,323l.754,1.166V322.12l-.919-.2m.976,2.333a.1.1,0,0,1-.009-.014l-.048-.074v.127c.02-.011.037-.026.057-.038m.149,1.433-.264-.885q-.051.459-.1.918l.364-.034m1.237-23.906c0,.061.064.125.1.187l.133-.165c-.036-.063-.072-.126-.107-.19-.045.056-.122.109-.126.167m-1.49,22.963c2.255.572,2.277-1.984,4.153-2.252-2.716-1.429-2.86,1.045-4.05,1.762.034.059.094.127.079.17a1.829,1.829,0,0,1-.182.32m-4.259-27.414a.389.389,0,0,0,.292-.255c0-.105-.163-.212-.261-.324l-.357.317c.108.094.211.255.325.263m4.248,27.473c0-.016,0-.033.005-.049l.006-.009-.031-.006.019.064m-1.328-26.182-.343-.582-1.778,1c.1.154.193.31.291.464l1.831-.886m1.732,5.285-.424-.005v3.061l.23-.006Zm-2.753,5.287-.767-1.365-.725.412,1.04,1.261.452-.308m.782,1.86c-.023.094.123.226.194.341l.456-.381-.34-.247c-.109.094-.283.174-.31.286m.356-3.775.067-.117-.06-.045-.045.1.041-.022Zm.939,6.368.146-.09-.122.035-.019.043.019-.043-.321.3Zm26.919-4.238c.022-.045-.034-.126-.056-.192-.066.024-.171.034-.188.076s.032.13.053.2c.067-.026.168-.036.191-.082m-54.18,48.812c-.113.1-.278.189-.318.313-.022.068.166.2.261.3.111-.1.283-.186.31-.3.019-.082-.161-.205-.253-.31m.246-3.959h-.025l.025.018.027-.015h-.026m.653-.182-.678.181H216l.627-.184m.28,4.722c.063.008.136-.06.2-.1l-.37-.048c.055.051.1.136.166.144m-1.582-.014.012-.157-.187.069ZM213.912,335.2l.044-.057-.054-.06c0,.039,0,.079.01.117m-.181-.308.172.192a.254.254,0,0,0-.022-.093c-.023-.045-.1-.067-.149-.1m5.521,21.371.009-1.145-.016.014q-.006.561-.012,1.122l-.3,1.025,1.022-.649-.7-.366m-.726,1.853.258-.638-.606.42.349.218m-2.55-3.833-1.742.957,3.327,1.4.628-.794-2.213-1.563m2.375,4.763c-.1.285-.268.5-.228.682s.274.347.422.518a2.1,2.1,0,0,0,.425-.7c.018-.116-.34-.285-.619-.5m.433-1.569.116-.08.034-.12-.094.06-.057.14m-6.036-20.659q.066.8.132,1.592l.743-.043q-.083-.8-.168-1.593l-.707.044m5.685,14.335c-.05.056-.134.107-.142.168s.062.129.1.2l.151-.164-.106-.2m.049,5.057.229-.3-.315-.263c-.082.11-.232.225-.223.328.007.087.2.159.309.239m-2.765-6.423.213-.1-.092-.419c-.069.04-.2.081-.2.121a1.955,1.955,0,0,0,.076.4m76.407.787.32.315.207-.529-.527.213m1.615-25.37v.18l.2-.091Zm-.435-7.591-.208-.074c-.046.046-.128.092-.13.141s.071.107.111.16l.228-.227m-.561,32.71c.006-.047.011-.094.017-.141l-.073.088-.035.09Zm-.391-20.3c.063,0,.126-.083.188-.129h-.375c.062.047.125.129.187.129m.288,29.156.024-.173-.191.064Zm.222-9.835q-.052.419-.1.84l.563-.675-.461-.165m-.592-22.546-.127.236.319-.137-.192-.1m-1.034-12.17-.2.083.2.086Zm-80.812,41.5c.049.009.111-.045.167-.072L210.3,356c.04.045.073.119.121.128m2.172.76.15.032-.047-.16Zm-1.787.739.02-.182-.2.074Zm81.242-19.951c-.086-.108-.168-.3-.26-.3-.118-.006-.245.137-.368.215l.263.329.365-.241m1.168,20.7.166-.065-.137-.106Zm-.945-17.775a4.286,4.286,0,0,0-.863-.245c-.044.185-.089.37-.133.555l.881.273c.043-.2.169-.557.115-.584M219.943,355.08l.047.19.121-.147Zm5.42-1.13-.779.859.375.31.75-.891Zm2.292,4.218c.233-.169.613-.538.572-.627a10.1,10.1,0,0,0-.873-1.427l.272-.109-.38-.462-.159.175c-.057-.084-.109-.16-.169-.25-.279.376-.508.667-.693.906a.614.614,0,0,0-.127.059l.083,0c-.246.315-.394.509-.367.536a9.152,9.152,0,0,0,1.143.925l-1.329,1.423c1.47.332,2.381.341,2.027-1.148m-1.283-16.5c.051-.027.067-.112.1-.172l-.148-.131-.142.267c.065.015.148.059.191.036m2.384,10.3-.271.291c.066.043.174.134.191.121a2.526,2.526,0,0,0,.28-.286l-.2-.126m-3.92-3.592q-.065-1.118-.13-2.235-.386,1.1-.77,2.205l.9.03m.212,4.06-1.744.634c.672,0,1.7.818,1.744-.634m-.555-25.21c-.073.116-.235.271-.2.34.058.122.236.193.365.285.075-.122.236-.275.2-.36-.046-.116-.238-.18-.367-.266m3.663,5.209-.284-.258c-.047.056-.144.149-.133.161a2.888,2.888,0,0,0,.28.273l.138-.176m-1.683-4.416h-.157l.076.161Zm2.459,26.418-.151.067.147.077Zm-1.085-19.584a2.7,2.7,0,0,0,.318-.237l-.295-.273a2.023,2.023,0,0,0-.175.361c-.011.036.136.159.151.149m-1.291,11.811c-.144.132-.336.244-.412.406-.042.089.109.262.173.4l.514-.338-.275-.465m.2-20.713-.091.127.136-.094q.078-.211.154-.423l-.2.39m-.237,27.885a2.252,2.252,0,0,0,.26-.291l-.386-.126a2.055,2.055,0,0,0-.054.353c0,.024.155.084.18.064m-1.3-19.271v1.676h.549v-1.675Zm-3.6,23.731.145.019a.479.479,0,0,0-.044-.194c-.024-.031-.111-.019-.17-.027l0,.007-.025-.069-1.626.511.2.547,1.606-.577-.08-.217m.016-12.893.085-.19h-.174Zm-.339,14.338c.033.113.2.189.315.28l.309-.472-.408-.135c-.082.116-.24.246-.216.327m-1.623-19.368a2.194,2.194,0,0,0-.384.471c-.022.049.206.285.331.293a2.479,2.479,0,0,0,.716-.217l-.663-.547m.449,17.881c-.016-.058-.016-.128-.052-.169-.017-.019-.1.018-.158.029a.5.5,0,0,0,.058.172c.013.016.1-.02.153-.032m-.812-5.353-.187-.137-.142.318c.079,0,.173.037.233.007s.064-.122.1-.188m3.646-10.007c-.018.017.055.121.085.185l.283-.189c-.025-.067-.049-.134-.073-.2a2.027,2.027,0,0,0-.3.205m1.944,8.459.2.909q.147-.382.294-.765l-.49-.144m-1.831,4.661.954.8.268-.3-.964-.787-.259.288m.282-3.323q-.075.193-.149.386l0,.032.11-.04a.736.736,0,0,0-.1.006q.067-.192.134-.385m1.745-.428c-.01.028-.021.056-.032.084s0,.057,0,.088l.069-.025c-.01-.049-.021-.1-.032-.147m-2.1,4.43a2.356,2.356,0,0,0,.476.363c.039-.152.078-.3.114-.458-.113-.091-.223-.18-.331-.27-.092.126-.288.329-.259.364m.455-18.26c.007-.049-.066-.109-.1-.165l-.22.2.171.087c.054-.041.145-.076.152-.122m-.451,20.4a3.33,3.33,0,0,0,.351.13,1.023,1.023,0,0,0,.085-.173,3.346,3.346,0,0,0-.355-.122.9.9,0,0,0-.081.165m1.7-12.813-.141.144.143-.112c0,.029,0,.059.005.088.014-.042.029-.084.044-.127Zm33.018-.242-.085-.059v0l-.074-.008.159.069m2.307-2.474,1.939.366-1.614-1.026q-.163.329-.325.66m.371,2.359c0,.014,0,.031.007.045h0l.1-.045-.044-.014c-.02,0-.04.01-.06.014m-.266-1.258c-1.711-.722-3.483-1.312-5.236-1.943l-.109.109.163-.056c.948,1.026,2.892,1.293,2.686,3.2.578.054,1.156.136,1.735.139a4.863,4.863,0,0,0,1.028-.192c-.073-.453-.029-1.157-.266-1.258m-14.258,9,.03.034.046-.069h-.068l-1.732-.107c.2.378.468.727.7,1.088l.988-.981.031.034m12.976-5.142Zm1.071-1.021h-3.4l.007.952h2.37l-.023.034-.024.035.043-.041Zm-12.158.96-1.416-2.164c-.948,2.4.463,2.077,1.416,2.164m18.77-8.7c.015-.034.03-.069.046-.106l-.039,0c0,.011,0,.022-.007.032Zm-4.567,4.168.174.11.076-.059-.007-.005-.243-.046m9.886-4.825c-.869-1.4-1.99-3.135-4.317-2.775l-.115.029.187-.021.512,1.5-3.467,1.476.176.463,1.711-.113a.417.417,0,0,1,.06-.192c.048-.057.186-.125.213-.1,1.373,1.072,2.454,1.089,2.907-1.068l1.349,4.139.98.453c-.01-1.291.4-2.82-.2-3.781m1.84,4.235-.06-.02c0,.022,0,.036-.006.057l.079.021c0-.019-.009-.039-.013-.057m3.387-3.04c-.135-.2-1.041.053-1.59.1l.223,1.8-2.448-.8c.154.706.291,1.328.427,1.949l5.551,1.828a15.614,15.614,0,0,0-2.164-4.868m-13.5,1.222-.026.117.04.065,1.3.024-1.3-.087Zm-28,16.661.052-.064-.049.043Zm30.948-18.421h0l-.029.069c.009-.02.013-.031.029-.069m-55.452-14.961-.031.276c.058-.022.115-.046.172-.063-.049-.064-.094-.146-.142-.213m-3.206,35.878.345-.078L208,360.12l-.133.306m-.673-1.019-.024.217c.008.023.016.045.025.068.057-.035.148-.061.163-.107s-.04-.122-.065-.183l-.1.006m.621,1.078h.026c.008-.019.017-.039.025-.059l-.078.018Zm.333-5.6-.436-.136-.07.633c.082.027.154.045.181.019a2.233,2.233,0,0,0,.325-.516m-.04-3.7-.011.1,1.529-.494-.232-.433-1.286.825m85.509,9.3.006-.209-.5.209Zm-20-17.36-1.5-.393q0,.483-.01.965c.777.467,1.437.655,1.508-.572m-47.94,17.36h.058l-.028-.042-.031.042m1.719,0h2.02l.279-1.313-.6-.325-1.695,1.638m6.629-2.106h-.148c-.116-.928-.519-1.231-1.5-.574h0l-1.957-1.319c.633,1.564,1.142,2.822,1.619,4h2.214a14.465,14.465,0,0,1-.337-1.728l.107-.378m1.551-.449.058-.043-.006-.021Zm-24.166,2.554h.14l-.031-.056-.109.056m11.035,0h.777c-.118-.142-.24-.28-.358-.421l-.419.421m-3.763,0,.485-.388a9.478,9.478,0,0,0-1.327.388Zm51-6.714.121.005-.07-.073-.052.068m23.075.408L292.1,357l.975.744-.762-.94c.471-.256.951-.5,1.427-.749l.061-2.348c-.35.146-.684.371-1.03.539Zm-2.174-6.63.463-1.714-1.3,1.275.835.439m-1.543,8.549c.055-.656,3.344,1.035,1.508-1.448l.12.119-.074-.124-3.149-.132.852-2.671-2.456,1c.271-.461.537-.916.693-1.18l-1.754-.873.071-.1-.145.064.059.059-2.606-.534.008-.021-.41-.006-.212-.015c-.947-.1-1.892-.262-2.84-.275a6.335,6.335,0,0,0-1.428.215,4.29,4.29,0,0,0-.172-1.581h.651l-.729-.221c-.454-1.076-1.508-1.725-3.263-2.213l-.964.923,2.283.89-1.317.941,1.9,1.305h-.92l.4,1.428c-.651.094-1.3.182-1.954.215l-.373-.923-1.086-.515,2.838-2.221-.286-.434-2.661.848c-.013-.109-.026-.217-.04-.326l2.093-2.7a14.26,14.26,0,0,1-2.2.148,2.48,2.48,0,0,0-1.158.1c-.046-.326-.09-.645-.133-.947l-1.966,2.145-.052-.114a2.52,2.52,0,0,0-.2.273.249.249,0,0,0,.063.049l-.507.552.062-.136-.118.079c-.007.084-.013.164-.02.247-.289-.109-.6-.212-.939-.308l-.506.485-1.41.592c.343-2.292.637-4.258.957-6.393,2.011.726,1.414,2.019,1.062,3.239l-.064.035.141-.042,2.709-1.355a32.24,32.24,0,0,0-2.529-2.124,7.033,7.033,0,0,0-1.8-.63l-.182,0,.19.013-2.867,2.24.926.724L260.5,345.67l1.846.578-1.672,1.843-.721-.838.016-.048-.051.048-1.028.981c-.124.786-.249,1.574-.4,2.508l-2.328-.691-.55.441c.87.659.812,1.693.793,2.724l-.121-.005-.94.151q-.148-.962-.3-1.925l-1.526.258.292.531-3.154-.159c.3.534.618,1.064.872,1.6-1.118.245-1.508-.2-1.423-1.746.072-1.312-.07-3.285-2.3-3.639l.064-.062c-.037,0-.075-.008-.112-.011l.025.039-2.461.785c.217.823.392,1.488.553,2.1l1.873-.334-.716,2.627-.067-.043h-.124l.071.055.1.063c-.094.345-.179.658-.249.913l2.038.149,2.457,1.6.416-.6-.778-.851.64.046.292-.338a3.871,3.871,0,0,1,.111.452l-.334-.046.389.506a3.053,3.053,0,0,1-.3,1.458l-2.532-.124c-.154-.345-.314-.7-.5-1.119a4.071,4.071,0,0,0-.558,1.067l-.472-.024-.066-.062-.008,0,.028.023,1.15,1.513-1.524.767a2.948,2.948,0,0,1-1-1.2,3.557,3.557,0,0,1-.094-.584l1.44-.516-1.184-.941-.274.376c.019-.464.049-.961.049-1.526-.766.8-1.23,1.276-1.684,1.76-.4.422-.78.853-1.17,1.281,0-.014,0-.029-.005-.043l-.948.055-1.068-.021-.051-.014,1.151.014c-.162-1.156-.324-2.313-.465-3.313l-1.968,2.148c-.07-.075-.128-.127-.167-.117a3.612,3.612,0,0,0-.817.441c.081.106.163.26.244.371l-.009.006c-.032.383-.063.758-.094,1.131-.309-.363-.615-.727-.924-1.092h.014l-1.031-1.552c-.421.472-1.047.885-1.217,1.428a6.9,6.9,0,0,0-.206.891l-.1.069c.017.067.035.134.052.2q-.066.446-.116.9l-.04-.011.04.014c-.034.306-.067.612-.109.917l-.418-.145.409.212.06-.049c.093.059.207.139.321.219l-.573.343h1.478l-.191-.291c.291-.31.548-.641.768-.912l1.648,1.2H240.9a1.427,1.427,0,0,0-.322-.587c-.065-.079-.132-.156-.2-.234l-.028.039-.067-.019.076-.043q-.433-.516-.87-1.029l.169-.092,3.7-.436-.072-.592,2.05.789.838,1.8-.208.331.229.068h5.717c.2-.712.968-1.168,1.763-1.7a7.653,7.653,0,0,1,.582,1.7H256.3c-.109-.124-.217-.246-.2-.347.034-.176.3-.312.464-.466l.455.547-.355.266h5.443l-.986-.371.318-.549,1.148.741-.094.18h6.166l-.418-.276.385-.333c.025-.206.052-.412.077-.617l.148-.009,1.045.339-.145-.032.083.1a.456.456,0,0,1,.335-.139q-.089.486-.177.972h2.37l-2.105-1c-.01-.1-.012-.212-.014-.321l1.162-.073-.456-.758-.72.265a1.6,1.6,0,0,0-.188-.768c-.567-.918-.464-1.146.621-.843h.117l.778.8-.633.5.04.008-.04-.008.025.04.063-.023.589-.474-.013-.069.933-.609q.147.629.3,1.258l-.03-.009a4.156,4.156,0,0,0,.054.593l.529-.033-.518.11c.129.64.49,1.063,1.459.912l-.478.5h2.447q-.053-.28-.1-.559l1.354.559h.1l2.178-.727a1.9,1.9,0,0,1-.127.727h3.406c0-.021-.01-.043-.015-.064l.66-.146.067.21h3.277l.533-1.939,2.624,1.939h1.581a3.829,3.829,0,0,0-.209-1.462c-.418-1.066-1.584-1.864-2.555-2.924m-41.208-5.408q.045-.359.089-.719l.493.3-.582.415m.983,2.31c-.083-.128-.268-.311-.232-.374a2.234,2.234,0,0,1,.457-.438l.273.5-.5.314m1.838,1.378,1.035-.333,0,.005Zm-11.41,2.692v0h0m.2,1.482,0,0,.014,0-.011.006m17.3-3.167.1.182-.148.148c-.034-.062-.1-.127-.092-.183s.091-.1.141-.147m-4.407-1.546,1.486-.477-.019.024-1.478.466.011-.014m-.469,5.136a1.24,1.24,0,0,1-1.26-.137l.322-.185.51-.09,0-.207.906-.522.651.732c-.377.137-.753.278-1.133.409m4.8-.877c-1.526.607-2.264-.591-3.129-1.65l1.24-1.539a4.829,4.829,0,0,0,2.086,2.512l-1.064.441.867.236m1.463.951-.1-.581.526.143.163.235Zm.788-7.384c-.02-.092-.043-.177-.06-.273.292-.136.717-.225.957-.376.028.082.056.164.079.233l-.976.416m11.085-3.476,0,.018-.46-.009-.051-.014.507.006m-6.577-1.545a2.363,2.363,0,0,1,.167.634c0,.075-.25.151-.471.275a2.414,2.414,0,0,1-.089-.682c.014-.092.256-.152.393-.226m-2.328,7.485.46-.7-1-.042a1.49,1.49,0,0,0,.659-.787c.047.213.094.427.14.637l.639.21-.365-.015.5.725a4.641,4.641,0,0,1-1.029-.03m2.385,6.312a1.085,1.085,0,0,1-.1-.189,3.048,3.048,0,0,1,.333-.2l.116.2-.345.192m1.752-.324v-.473l.645.134-.645.339m1.231-1.639-1.231.2v-1.11c.34-.119.674-.231.855-.118a4.29,4.29,0,0,0,.521.27c-.055.255-.109.507-.163.756l.017.006m.283-3.965c-.04-.134-.079-.264-.121-.393.079-.012.158-.019.238-.026l.109.324-.226.1m-.393-1.172q-.216-.574-.458-1.091h.863l0-.435-1.148-.145a16.934,16.934,0,0,0-.869-1.47c-.135-.205-1.041.052-1.59.1l.223,1.8-.025-.009c-.169-.261-.349-.524-.546-.777.1-.273-.088-.448-.623-.685a3.332,3.332,0,0,0-1.628-.863c.783-1.042,1.9-1.055,3.468-.318a1.6,1.6,0,0,0,2.211-.579l1.1.429v.017l.035,0,.457.178-1.317.941,1.521,1.047-.707.353.048-.082H267.3l.022.057-.476.45h-.074c0,.023,0,.047,0,.069h0l.043-.035.043-.035.758.95q-.624.088-1.25.141m1.918-.1.2-.006c-.067,0-.152.034-.2.006m.852-.251c-.4.051-.8.11-1.2.168l.81-1.193.411.283c-.008.247-.016.495-.023.742m1.036-4.006c.142.826.231,1.666.328,2.5,0,.039-.212.1-.468.17a3.313,3.313,0,0,0-.774-2.559l.914-.108m.495,4.77-.131.057-.723-.03.232.242-.482.207c.04-.149.076-.291.112-.433l.017-.021h-.011a13.011,13.011,0,0,0,.3-1.546l.8.826a2.3,2.3,0,0,0-.115.7m2.757,2.891-.011-.065.009-.006.027.066-.025.005m.148-3.851-.046-.113.068-.016c-.008.043-.014.086-.022.129m.074-.139c.076-.017.153-.031.229-.044l-.227.215,0-.172m.006.605.011.008.279.559-.29-.566m1.366,2.793-.484-.873v-.568l.495-.042q.1.751.2,1.5l-.211-.019m-.816-2.088.411-.408.827.46Zm2.073,3.747c.008-.127.015-.253.022-.379.041.066.112.134.109.2s-.084.122-.13.182m1.24,1.81c-.255-.166-.61-.283-.732-.513-.087-.164.138-.479.3-.94.424.381.757.552.84.8.054.159-.257.432-.406.654m.722-1.739-.681-.788.383-.1q-.049-.227-.1-.455l-.7.076-.627-.725.569-.86.9.5-.052-.044,1.461.453-1.067.2c-.011.225-.04.782-.091,1.742m-.607-3.675.464-.7.049.037a2.218,2.218,0,0,0,.168.692Zm3.448,4.766-1.71-.174c.03-.158.059-.317.089-.475l1.676.312c-.019.112-.037.225-.055.337m-1.521-3.742,1.526.333c.008.018.017.037.025.055l-1.135.212-.416-.6m1.014-1.692c-.068-.216-.136-.433-.206-.655l-2.925.479c-.508-1.647-.02-2.272,1.62-1.994a16.442,16.442,0,0,0,2.469.249,2.048,2.048,0,0,0-.957,1.921m6.808-.117.328.353-.148.387c-.133-.057-.386-.132-.38-.169a2.883,2.883,0,0,1,.2-.572m-5.65,2.006.092-.367.2.254-.29.113m1.157,1.662-.543-.218.963-.777c-.139.3-.28.671-.42.995m1.494,2.731,1.274.27c-.921.3-1.222.077-1.274-.27m3.28-3.578-.029.852-1.535-.591,1.507,1.4-.022.649-1.167-.7-.02-.029-.05-.014.031.031-1.819,1.652-.153-.071a4.568,4.568,0,0,1,.2-.639,5.579,5.579,0,0,1,.746-1.335l.046.023-.031-.044c.223-.317.456-.631.666-.952a14.79,14.79,0,0,0-1.769-.829c-.088-.04-.184-.082-.291-.122q.016-.5.031-.991l0,0,.156-.052-.567-.024c-.037-.053-.067-.126-.115-.141s-.112.054-.169.085l.038.046-1.348-.056c.017-.07.035-.14.052-.21l.991-.913-.622-.561.256-1.026a2.446,2.446,0,0,1,2.11,1.536c.3.623,1.212.978,2.032,1.375l-.956-.04a5.143,5.143,0,0,0,.561.756,11.4,11.4,0,0,0,1.226,1.008l.053-.212Zm2.62,2.72a2.4,2.4,0,0,1-.39-.166,2.325,2.325,0,0,1,.391-.155c.037-.009.1.1.156.161-.053.057-.122.169-.157.16m-4.749-4.9-.028-.023-1.354.444,1.7.072c-.106-.165-.21-.332-.321-.493m-2.075-.043h2.025l-2.1-.075.078.075m2.57,2.46.02.01.049.019-.055-.051-.015.021m5.03-10.536.1-.1a.9.9,0,0,0,.048-.23l-.109.172c-.015.054-.029.108-.043.162m3.109-15.062c.064.041.166.13.184.117s.034-.036.053-.053l.008-.317-.245.253m-49.215-36.679c-.121-.031-.24-.066-.36-.1l-.005.006.361.134c0-.014,0-.028,0-.042M209.4,353.22l.047.053-.106-.129.058.076m58.748-10.938c.027.06.041.157.085.171s.13-.036.243-.075l-.328-.1M291.2,345.5q.816-1.283,1.634-2.566c-2.873-.433-1.531,1.466-1.634,2.566m1.634-2.566h.016l1.226.013v-.008l-1.237-.015,0,.009m-26,8.8.457,0q-.112-.3-.226-.594c-.079.2-.154.394-.232.591m26.827-13.549c-.064.129.116.367.237.685.111-.12.208-.213.291-.3l.018-.665c-.205.056-.474.131-.546.278m-15.781,9.075.031-.037.031-.037-.064.061q-.087-.635-.174-1.271l-.711.138q.2.8.393,1.6l-.061.058.07-.023q.191.417.384.834l2.938.41-2.837-1.735m8.828,1.346c1.409-4.6.732-6.255-2.844-7.25l-.963.923,2.282.89-1.317.941,2.642,1.817c-.007.247-.016.495-.023.742-1.068.135-2.131.337-3.2.389-1.376.068-2.52.3-2.525,1.93,1.947-.717,3.82-2.15,5.952-.382m-5.952.382-.024.009h-.015l.036.021c0-.011,0-.018,0-.029m-8.638-6.262c0-.02,0-.04,0-.06l-.08-.037c0,.025,0,.052,0,.077l.081.021m-1.059-.551L271,342.15l.044.062c.013,0,.021,0,.033,0l-.01-.03m-1.595,2.036-.065.014h0l.071.063c0-.026,0-.052,0-.079m8.314,4.373h-.023l.026.009,0-.008m-5.671-4.845V343.7l-.057-.033-1.015-1.451c-1.526-.032-1.616.939-1.571,2.005l2.586-.554Zm-27.176,15.535a1.766,1.766,0,0,0,.033-1.026c-.071-.19-.735-.29-1.1-.242a15.613,15.613,0,0,0-1.924.478l2.241.8c-.921.041-.939.236-.817,1.19h1.919c-.084-.4-.169-.8-.253-1.205h-.094m26.467-.192c.052.087.1.174.157.261l-.03-.06.031.059,1.289-.274c0-.025-.007-.052-.011-.077Zm-9.8-5.708-.034.052.071,0-.037-.054m13.566-7.034a3.518,3.518,0,0,0,.594-.3l-.286-.479a3.073,3.073,0,0,0-.529.423c-.033.039.187.361.221.35m-23.628,8.418-.045.052.114.016-.051-.066h-.018m-11.116,4.846-.056.031.019.022Zm26.418-7.871h-.074c0,.025,0,.05,0,.076l.042.005.032-.08m-10.71-19.167.112.073.057-.038-.169-.035m.136,11.741-.925.569.182.282.969-.481-.226-.369m-2.213,4.126,1.377.524q.144-.358.289-.717l-1.478-.387-.189.579m3.274-10.763c.579-.381.868-1.162,1.289-1.763l-.4-.552-1.729.534.01-.032-.037.041-.031.009.007.018-1.99,2.215.182-.057-.112.067-.268,1.857c1.247-.2,2.558-.489,2.071,1.539l-.062-.018c0,.193-.008.386-.013.579h.049l.009-.017.016-.5.5.464-.029.054h.087l-.021-.042-.021-.041q.15-1.267.3-2.534c-.981-.672-.787-1.166.2-1.815m4.409-11.789-.036.04-.032.01.007.018-1.991,2.215.182-.058-.112.067q-.133.929-.267,1.857c1.247-.2,2.558-.489,2.071,1.539l-.063-.017c0,.192-.008.386-.012.578h.049l.01-.016q.008-.252.015-.5l.5.464c-.01.018-.02.036-.03.054h.087l-.02-.042-.021-.042q.148-1.267.3-2.534c-.982-.672-.788-1.166.2-1.815.579-.381.869-1.162,1.289-1.762l-.4-.553-1.728.535.01-.032m.163.64-.351-.029.149-.485.2.514m-11.914,13.556,1.262,1.026.6-.608-1.184-1.122-.678.7m6.041-10.893a2.586,2.586,0,0,0-.071-.391c-.007-.019-.142,0-.217,0a2.943,2.943,0,0,0,.086.39c.007.02.131,0,.2,0m-6.664,13.264q.645,1.03,1.292,2.059l1.988-2.06-2.884-.6-.4.6m17.491-23.468,1.029,1.431.544-.35-.924-1.373-.649.293m-14.128,20.445c.047.019.257-.32.391-.494l-.936-.534-.448.476a8.052,8.052,0,0,0,.993.552m9.82-9.931h0m-1.882,4.165.418.217.944-1.75-.491,0-.87,1.53m1.882-4.165-.177.014h0c.025.017.04.033.067.05l.11-.064m0,0h0m-3.851,10.378c.005-.02-.157-.126-.194-.107a2.1,2.1,0,0,0-.335.249l.364.247a2.962,2.962,0,0,0,.166-.39m.188-6.99.506-2.752c-2.48.5-1.235,1.675-.506,2.752m-6.2,9.523-.04.042.048.01Zm-.309-12.788-.417.428,1.268.616q-.426-.521-.851-1.044m1.37,1.1-.288.021a.843.843,0,0,0,.119.014.787.787,0,0,0,.169-.035m-.915,16.434c1.521-.564,1.521-.564,0-2.717Zm-1.963-24.194a2.3,2.3,0,0,0,.175.345l.289-.235a2.141,2.141,0,0,0-.3-.231c-.024-.013-.169.1-.16.122m-1.453,24.554c.622.528,1.512.944,1.811,1.6.7,1.532,1.618,1.167,3.215.582l-5.026-2.187,0-.009,0,.006Zm3.433-20.965a11.108,11.108,0,0,0-1.435-.3,3.689,3.689,0,0,0-.252.78l1.518.252c.055-.243.112-.487.169-.731m.824,7.964c.756-1.881.756-1.881-1.441-2.236l1.441,2.236m-.214-3.771c-.034-.005-.067-.007-.1-.011l-.13-.064.07.087.161-.011m1.052-9.273-.178-.026.067.185Zm.173,1.59.075.136.432-.726.088-.073-.132.03-.413.714Zm-.995,13.431c-.038.069.134.351.23.361a2.529,2.529,0,0,0,.72-.169l-.5-.624a2.045,2.045,0,0,0-.449.433m-.193-21.225c-.016.1.128.226.2.34.1-.082.269-.155.28-.246.012-.109-.111-.232-.177-.348-.109.084-.291.157-.306.254m.638,4.995,1.012.309.1.021-.175-.061-.743-.579Zm.232-2.5c.05.039.1.106.151.108s.109-.059.163-.094l-.315-.014m9.044,14.653-.035-.008-.021.042.018.026c0-.013,0-.025,0-.038l.037-.022m.24-.146-.24.146.306.072c-.022-.073-.044-.145-.066-.218m1.894,4.825c0,.025.177.094.209.068a2.1,2.1,0,0,0,.28-.309l-.426-.143a2.138,2.138,0,0,0-.063.384m-2.172-4.619-.164,3.551c1.931-.847,1.937-1.177.164-3.551m-2.685,3.331c-.229.268-.445.546-.664.82l-.145-.074.092.139.064-.058,1.869-.49-.48-1.143c-.246.268-.5.531-.736.806m1.216.337.017.042.109,0-.039-.061-.088.023m1.305-.117c-.03.013-.049.024-.08.037l.02.078.055,0c0-.038,0-.075.005-.113m-3.816-5.893c.031-.006.055-.014.088-.02,0-.026.008-.053.012-.08l-.084.014-.016.086m9.542-3.958-.17.064.148.1Zm-.945-12.064.655.563c.03-.067.106-.16.083-.2-.134-.212-.292-.411-.441-.614l-.3.247m.759,8.563.014.056c0-.011-.008-.029-.013-.055h0Zm-2.137-11.752-.062-.179-.106.157Zm2,11.391-.094.117.118-.054.115.3c-.018-.074-.048-.192-.079-.315Zm-19.592,23.446.4,1.745,1.289-1.546-1.687-.2m16.746-12.323-.374.466.406.18c.094-.113.265-.229.26-.338s-.187-.206-.292-.308m-3.846-9.219q.049-.407.1-.813l-1.547.2,1.449.615m-1.847-16.383.181.013-.077-.186Zm.965,9.341c0-.066,0-.131,0-.2l-.319.107c.04.054.072.139.124.152s.132-.038.2-.062m-1.87,19.008.716.368-.437-.655-.279.286m.146-2.651-.384-.59-.021.022.021-.022-.039-.057-.022.122.445.525m-.029-12.088q-.237.608-.475,1.217l.387.18.673-1.061-.585-.337m-.747,3.925.076.172.09-.167Zm1.813-1.752.12-.016-.05-.021Zm1.927-4.419c-.034-.141-.068-.282-.074-.305,0,.008.011.135.022.262h-.006Zm.946,18.849.366-.23q-.219-.839-.437-1.677l-1.118.04,1.19,1.867m-4.066,1.966,2.8,1.059-.742-2.522-2.057,1.463m2.825,1.148.238.16-.178-.217-.086-.032c.009.029.017.059.026.089m-.818-22.007h1.054l-.836-.632-.218.632m.193,2.716a2.659,2.659,0,0,0,.41-.03c-.022-.065-.044-.184-.069-.185a3.068,3.068,0,0,0-.419.031c.026.064.048.182.078.183m-30.306,31.879,1.286,1.267c.46-.391.914-.79,1.369-1.186l.225-1.777-4.7.75c.018.193.034.386.052.58l1.771.366m7.417-9.03c0-.088,0-.175,0-.263a.262.262,0,0,0-.1.112c-.01.04.058.1.092.152m-3.576,3.852a7.685,7.685,0,0,1-.7-1.781c-.44,2.959-.293,3.153,2.476,3.227a13.112,13.112,0,0,1-1.779-1.446m3.6,6.48-.953.115c.056.133.111.266.167.4l.786-.514m-2.8-16.636c-.008.122.161.255.253.383l.452-.444-.365-.254c-.128.11-.333.206-.34.315m2.9,11.749-.142.682.427-.036q-.142-.323-.285-.646M236.3,335.4l-.157-.177-.349.225a1.278,1.278,0,0,0,.143.18,3.707,3.707,0,0,0,.363-.227m-.442,12.815.321.036.252-1.491-.573-.13Zm2.654-3.79-.878-.521c-.035.072-.071.145-.107.217l.942.284c0,.019,0,.038,0,.057.015-.012.03-.024.043-.037m1.576-11.264,1.769-.472c-.056-.188-.112-.376-.168-.565l-1.765.492q.082.273.163.545m-.685,10.524.153-.589-.367.513.214.077m2.765,1.238-1.478-1.768.613,2.225.865-.457m-1.478-1.768c-.01-.036-.021-.074-.031-.111l-.613-.006.558.014Zm-2.111,6.943.019.014.235.011-.289-.049.042.1c0-.019.008-.039.012-.058l-.019-.014m2.26-31.257a12.826,12.826,0,0,0,1.978-1.567c.128-.145-.362-.79-.61-1.24l-1.668,2.321.3.486m0,10.75c.127-.01.241-.164.363-.257-.121-.1-.232-.264-.35-.268s-.217.168-.326.263c.1.094.217.27.313.263m1.271-13.717.064.1c.01.02.025.044.037.064l.034-.047-.135-.113m-9.318,26.921q-.408-1.729-.816-3.458l-.028-.1.031.172c-1.524,1.526-1.442,1.918.813,3.388m3.024,13.339.047-.008-.026-.063-.013.008c0,.021-.006.042-.008.063m-2.927-13.215.007-.054-.1-.07c.012.051.024.1.037.154l.061-.03m-3.85-5.313-.427,2.337.85.17.578-2.31-1-.2m3.593-20.024-.868-.661-.232.283.885.643.216-.265m-2.578,28.727-.559-.368-.993,1.131.645.5.908-1.264m2.8-2.177-.047-.145,1.5-.926-.429-.632-.992.491q-.073.563-.145,1.125Zm-.971-20.816a2.476,2.476,0,0,0,.348-.171l-.247-.28a2.025,2.025,0,0,0-.227.3c-.014.026.1.158.126.15m-.378,22.966c.021.029.285-.1.436-.152L231.479,345l-.6.27c.2.34.39.687.617,1.011m-.208-2.476-.1-.185c-.017.1-.034.207-.051.311l.146-.127m.765-18.154c.091.036.248-.077.376-.124-.064-.112-.109-.294-.2-.318-.115-.03-.268.067-.4.109.073.117.121.29.227.332m3.286,29.727h-1.865l-.011.555h1.87c0-.185,0-.37.006-.555m-.794-16.652c.028.009.158-.132.145-.159a2.076,2.076,0,0,0-.238-.314l-.27.286a2.312,2.312,0,0,0,.364.187m-1.38-3.539q.338.941.675,1.883l.7-.227-.782-1.853-.59.2m10.066,4.708.179.081.072-.177-.251.1M246,334.349l-1.01,2.167.721.278.947-2.184-.658-.261m.736,4.1c-.02-.074-.039-.212-.059-.212a2.907,2.907,0,0,0-.414.046,2.4,2.4,0,0,0,.276.288c.019.014.13-.078.2-.122m2.067,7.2.124.106.088.011-.017-.074-.195-.042m-5.249-2.653q.152-.733.305-1.466l-.99,1.134.685.331m1.238-10.277.684-.3a3.972,3.972,0,0,0-.552-.562c-.042-.029-.358.165-.352.24a2.331,2.331,0,0,0,.22.617m-.848,8.727,1.758.64c-.275-.966-.74-1.473-1.758-.64m-.085.084.055-.063c.01-.009.019-.013.03-.021l-.063-.023c-.008.036-.014.072-.022.107m1.932.588-.089-.032c.006.021.013.039.019.062Zm1.6.979-.082.078-.128.126.195-.062.016-.142m-3.81-14.756.106.082.738,1.431.365-.2-1.142-1.309-.067-.007m4.35,17.12.872.188-.685-.586c-.062.132-.125.265-.187.4m-.217-5.288c-.123,1.109-.223,2.021-.323,2.924,1.371-1.286,1.358-1.329.323-2.924m-.534,3.128-1.909.6.514.76,1.394-1.362m-7.135-.261-.441-.011-.033.006-.016.062.043-.061.446,0m4.184,1.535c-.167-.146-.328-.4-.5-.409-.191-.009-.394.21-.591.33l.464.581.63-.5m-2.79-4.847a1.771,1.771,0,0,0,.207.323c.084-.1.168-.2.251-.3a3.281,3.281,0,0,0-.339-.2c-.01-.005-.135.133-.119.174m-2.718-17.6.225.347,1.143-.692-.221-.339-1.147.684m2.788,15.453.175-.139-.155-.933-.16-.026.109.079.157.81-.126.209m-1.379-25.292-.093.142.146.021Zm-.966,35.681-.187.42c.145.057.316.187.427.15a.4.4,0,0,0,.172-.375c-.052-.1-.266-.134-.411-.2m.822-11.71,1.382.223-1.094-.807-.289.584m.463,3.069q.53-.873,1.06-1.747l-1.6,1.273.541.475m-1.223-13.824q-.047.38-.1.76l.833-.442-.737-.318m5.793,29.769-.461-.439-.753-.071-.1-.069.077.067.065.031-.83,1.234.4.283,1.607-1.035m-1.832-5.775c-.941-.1-1.829-.054-1.87-1.467-.019-.622-1.036-1.217-1.6-1.823a5.581,5.581,0,0,0,.947,3.041,1.45,1.45,0,0,0,2.523.25m-4.221,3.444c2.53,1.438,3.738,1.487,3.777.035l-1.6-.976,2.479-.641c-2.494-1.18-3.349.61-4.655,1.582m.959-27,.106-.094L240,325.8l-.046.025.026.011Zm-.8.344,0-.026-.03.016-.351-.122.337.129Zm4.073,23.2a7.347,7.347,0,0,0,1.145-1.868c.1-.381-.425-.914-.669-1.38l-.482.229v3.024l-.008.006h.008Z" transform="translate(-6827.432 -13598.181)" fill="#f0dcd8"/>
        <path id="Trazado_129300" data-name="Trazado 129300" d="M198.648,255.94V359.708H145.6l-14-85.527s16.851-7.822,29.847-11.77,37.194-6.47,37.194-6.47" transform="translate(-6808.514 -13587.865)" fill="#b1dbea"/>
        <path id="Trazado_129301" data-name="Trazado 129301" d="M141.289,320.188a.427.427,0,0,1-.406-.278l-12.5-35.438a.4.4,0,0,1,.269-.517.434.434,0,0,1,.543.257l12.5,35.438a.4.4,0,0,1-.27.517.453.453,0,0,1-.136.021" transform="translate(-6807.701 -13595.835)" fill="#361524"/>
        <path id="Trazado_129302" data-name="Trazado 129302" d="M204.515,305.276a.432.432,0,0,1-.389-.235l-7.362-14.99a.388.388,0,0,1-.02-.3l10.736-31.83a.433.433,0,0,1,.539-.263.4.4,0,0,1,.276.514L197.612,289.85l7.291,14.844a.4.4,0,0,1-.207.544.439.439,0,0,1-.181.039" transform="translate(-6824.816 -13588.349)" fill="#361524"/>
        <path id="Trazado_129303" data-name="Trazado 129303" d="M312.014,256.962,313.119,360h53.046l14-85.527a235.305,235.305,0,0,0-29.848-11.77c-15.737-4.846-38.3-5.739-38.3-5.739" transform="translate(-6853.679 -13588.156)" fill="#b1dbea"/>
        <path id="Trazado_129304" data-name="Trazado 129304" d="M325.625,305.276a.438.438,0,0,1-.181-.039.4.4,0,0,1-.207-.544l7.291-14.844-10.684-31.677a.4.4,0,0,1,.276-.514.433.433,0,0,1,.539.263l10.736,31.83a.387.387,0,0,1-.019.3l-7.362,14.99a.432.432,0,0,1-.388.235" transform="translate(-6856.134 -13588.349)" fill="#361524"/>
        <path id="Trazado_129305" data-name="Trazado 129305" d="M362.474,409.61H76.623a2.45,2.45,0,0,1-2.074-3.908L79.2,399.66l.634-.817,6.958-9.043.634-.818,6.967-9.043.625-.818,5.561-7.22a2.612,2.612,0,0,1,2.074-1H336.442a2.613,2.613,0,0,1,2.074,1l5.561,7.22.625.818,6.967,9.043.633.818,6.958,9.043.634.817,4.652,6.042a2.449,2.449,0,0,1-2.074,3.908" transform="translate(-6794.104 -13620.595)" fill="#636363"/>
        <path id="Trazado_129306" data-name="Trazado 129306" d="M361.617,399.534l-.634-.818H337.042l-5.355-9.043h22.339l-.634-.818H331.2l-5.356-9.042h20.582L345.8,379H325.354l-2.271-3.85a.454.454,0,0,0-.591-.155.4.4,0,0,0-.163.556l2.04,3.45H302.844l-3.008-8.217-.017-.041a.438.438,0,0,0-.548-.253.418.418,0,0,0-.274.294.348.348,0,0,0,.009.229l2.93,7.988h-26.6l-1.56-6.982a.418.418,0,0,0-.505-.31.411.411,0,0,0-.334.482l1.526,6.81H249.848l-.642-8.217h-.857l.642,8.217H222.1v-8.217h-.857V379h-26.9l.642-8.217h-.857L193.492,379H168.874l1.526-6.81a.412.412,0,0,0-.334-.482.423.423,0,0,0-.506.31L168,379H141.4l2.93-7.988a.348.348,0,0,0,.008-.229.416.416,0,0,0-.274-.294.44.44,0,0,0-.549.253l-.017.041L140.494,379H118.97l2.039-3.45a.4.4,0,0,0-.163-.556.455.455,0,0,0-.591.155L117.984,379H96.743l-.625.818H117.5l-5.356,9.042H89.151l-.634.818h23.136l-5.356,9.043H81.559l-.634.818h24.892l-5.895,9.95h.985l5.9-9.95h26.169l-3.642,9.95h.908l3.642-9.95h29.536l-2.219,9.95h.873l2.22-9.95h27.591l-.78,9.95h.865l.78-9.95h28.5v9.95h.857v-9.95h28.491l.78,9.95h.865l-.78-9.95H279.05l2.219,9.95h.874l-2.219-9.95h29.536l3.642,9.95h.909l-3.642-9.95h26.169l5.9,9.95h.985l-5.9-9.95ZM141.1,379.814H167.82l-2.022,9.042h-28Zm-22.622,0h21.713l-3.307,9.042H113.126Zm14.79,18.9H107.282l5.356-9.043h23.949Zm30.324,0H134.179l3.316-9.043h28.123Zm28.353,0H164.469l2.023-9.043h26.16Zm.771-9.86H166.671l2.023-9.042h24.729Zm28.525,9.86h-28.44l.711-9.043h27.728Zm0-9.86H193.577l.7-9.042h26.966Zm103.612-9.042,5.356,9.042H306.452l-3.307-9.042Zm-22.621,0,3.307,9.042h-28l-2.022-9.042Zm-80.134,0h26.957l.7,9.042H222.1Zm0,18.9v-9.043h27.72l.711,9.043Zm27.814-18.9h24.73l2.022,9.042H250.619Zm1.474,18.9-.7-9.043h26.16l2.023,9.043Zm28.354,0-2.023-9.043h28.122l3.316,9.043Zm30.324,0-3.316-9.043H330.7l5.355,9.043Z" transform="translate(-6795.827 -13620.469)" fill="#f0dcd8"/>
        <path id="Trazado_129307" data-name="Trazado 129307" d="M126.079,311.472s-84.626,5.311-104.823,13.571C3.262,332.4-3.307,344.665,1.548,359.382c6.271,19,39.214,17.171,54.839,14.444,23.421-4.088,105.966-25.891,105.966-25.891Z" transform="translate(-6775.567 -13603.675)" fill="#ffa6a6"/>
        <path id="Trazado_129308" data-name="Trazado 129308" d="M166.991,311.466s29.99-.385,40.559,2.67c6.277,1.814,11.217,4.83,16.769,8.1,9,5.308,13.507,19.453,13.507,29.018,0,3.771,1.11,11.546-4.341,12.5-6.607,1.155-6.973-9.694-9.226-13.589-2.285-3.952-4.141-3.816-12.138-3s-12.568.818-12.568.818l-36.13-11.446Z" transform="translate(-6816.479 -13603.669)" fill="#ffa6a6"/>
        <path id="Trazado_129309" data-name="Trazado 129309" d="M466.238,315.2s29.329,11.729,34.872,19.37-54.865,21.833-56.293,20.473-14.264-35.364-13.7-37.167,35.123-2.676,35.123-2.676" transform="translate(-6883.491 -13604.737)" fill="#361524"/>
        <path id="Trazado_129310" data-name="Trazado 129310" d="M394.617,281.44l56.268,24.152L440.271,332.9l-61.363-14.172-9.14-32.667Z" transform="translate(-6868.137 -13595.125)" fill="#b1dbea"/>
        <path id="Trazado_129311" data-name="Trazado 129311" d="M387.981,320.188a.454.454,0,0,1-.136-.021.4.4,0,0,1-.269-.517l12.5-35.438a.436.436,0,0,1,.543-.257.4.4,0,0,1,.269.517l-12.5,35.438a.427.427,0,0,1-.406.278" transform="translate(-6872.589 -13595.835)" fill="#361524"/>
        <path id="Trazado_129312" data-name="Trazado 129312" d="M354.225,311.472s84.626,5.311,104.823,13.571c17.994,7.358,24.563,19.622,19.708,34.34-6.271,19-39.214,17.171-54.839,14.444-23.421-4.088-105.966-25.891-105.966-25.891Z" transform="translate(-6855.165 -13603.675)" fill="#ffa6a6"/>
        <path id="Trazado_129313" data-name="Trazado 129313" d="M307.5,337.607a91.993,91.993,0,0,0,9.431,9.969l34.937-11.068-3.571-25.073s-26.445-1.09-39.441,4.248c-4.541,1.866-11,4.609-14.594,8.833,4.478,5.874,8.638,7.3,13.237,13.09" transform="translate(-6849.234 -13603.639)" fill="#ffa6a6"/>
        <path id="Trazado_129314" data-name="Trazado 129314" d="M211.745,359.435s1.214,19.009-1.464,24.835-8.354,3.782-10.282-3.577-2.7-22.921-2.7-22.921Z" transform="translate(-6824.959 -13616.855)" fill="#ffa6a6"/>
        <path id="Trazado_129315" data-name="Trazado 129315" d="M141.359,374a4.341,4.341,0,0,0,1.785,4.838,8.917,8.917,0,0,0,5.712,1.84s-.642,6.813,5.5,7.421c5.5.544,9-5.036,11.068-7.966s4.284-6.451,4.284-6.451,1.214,10.539,8.14,10.4,8.284-16.216,8.284-16.216-.358-5.451-1.357-5.791-23.778-1.363-25.921-.613S141.359,374,141.359,374" transform="translate(-6810.912 -13617.832)" fill="#ffa6a6"/>
        <path id="Trazado_129316" data-name="Trazado 129316" d="M293.938,325.753s-11.407,7.295-13.228,19.355c-.753,4.988.975,10.274,3.374,14.659,1.473,2.692,3.477,5.466,6.368,6.908a5.908,5.908,0,0,0,5.974-.1c2.5-1.805,1.8-4.732,1.086-7.2-.523-1.81-1.024-3.639-1.491-5.464a12.976,12.976,0,0,1,.326-7.78c1.178-2.861,9.64-7.051,9.64-7.051s-1.928-9.3-3.32-9.3-8.73-4.024-8.73-4.024" transform="translate(-6845.797 -13607.74)" fill="#ffa6a6"/>
        <path id="Trazado_129317" data-name="Trazado 129317" d="M299.487,351.034s9.8,4.088,13.842,5.11a37.355,37.355,0,0,0,7.151,1.124s-.532,10.988,0,18.4c.463,6.473,7.461,8.347,9.818,3.134s5.07-22.757,5.07-23.064-3.855-15.024-4.284-15.432-18.041-6.964-19.816-5.315-7.176,3.782-8.569,4.906-3.212,11.14-3.212,11.14" transform="translate(-6850.542 -13610.294)" fill="#ffa6a6"/>
        <path id="Trazado_129318" data-name="Trazado 129318" d="M343.276,370.55s-2,12.918,6.64,12.741c5.82-.119,6.141-10.441,6.141-10.441s.352,12.637,5.087,16.642c4.071,3.441,8.033-.545,8.033-.545s6.269,3.511,9.772-4.156,3.884-11.855,3.813-12.128-9.212-7.835-11.568-8.653-19.708-4.428-23.207-3.2-9.5,4.293-9.5,4.974,4.784,4.769,4.784,4.769" transform="translate(-6860.308 -13617.648)" fill="#ffa6a6"/>
        <path id="Trazado_129319" data-name="Trazado 129319" d="M198.661,369.288a.423.423,0,0,1-.421-.337c-.111-.591-2.673-14.551.118-21.928,2.866-7.574,18.527-6.059,19.193-5.991a.414.414,0,0,1,.38.451.427.427,0,0,1-.472.362c-.154-.016-15.657-1.516-18.295,5.456-2.714,7.173-.109,21.364-.082,21.506a.412.412,0,0,1-.346.474.469.469,0,0,1-.076.006" transform="translate(-6824.9 -13612.043)" fill="#361524"/>
        <path id="Trazado_129320" data-name="Trazado 129320" d="M178.878,366.086a.421.421,0,0,1-.429-.4c0-.13-.32-13.025-.268-16.266l0-.248c.05-3.384.184-12.372,8.076-14.442,7.1-1.856,11.737,6.575,11.782,6.659a.4.4,0,0,1-.185.55.437.437,0,0,1-.576-.176c-.043-.08-4.364-7.935-10.793-6.245-7.272,1.907-7.395,10.146-7.446,13.664l0,.25c-.052,3.225.265,16.1.268,16.234a.419.419,0,0,1-.419.418Z" transform="translate(-6820.173 -13610.221)" fill="#361524"/>
        <path id="Trazado_129321" data-name="Trazado 129321" d="M151.6,374.225a.441.441,0,0,1-.186-.041.4.4,0,0,1-.2-.545c.034-.068,3.457-6.87,5.241-11.016,2.858-6.639,9.233-23.189,9.3-23.356a.438.438,0,0,1,.55-.242.4.4,0,0,1,.254.525c-.064.167-6.444,16.73-9.308,23.385-1.795,4.167-5.228,10.99-5.263,11.059a.431.431,0,0,1-.386.232" transform="translate(-6813.414 -13611.512)" fill="#361524"/>
        <path id="Trazado_129322" data-name="Trazado 129322" d="M140.275,372.145a.423.423,0,0,1-.424-.351c-.9-6.049,2.613-21.88,10.129-23.216a5.8,5.8,0,0,1,4.805,1.011c2.957,2.341,3,7.435,3,7.65a.419.419,0,0,1-.427.41h0a.42.42,0,0,1-.429-.408c0-.049-.043-4.929-2.692-7.024a4.954,4.954,0,0,0-4.1-.835c-6.926,1.232-10.285,16.636-9.437,22.3a.413.413,0,0,1-.364.463.568.568,0,0,1-.061,0" transform="translate(-6810.544 -13614.202)" fill="#361524"/>
        <path id="Trazado_129323" data-name="Trazado 129323" d="M338.037,369.088a.4.4,0,0,1-.071-.006.411.411,0,0,1-.352-.47,66.128,66.128,0,0,0,.924-9.066c.193-5.707-.052-11.076-5.086-14.071-3.514-2.09-8.308-3.028-14.665-2.854a.409.409,0,1,1-.023-.818c6.523-.166,11.482.8,15.142,2.979,5.416,3.222,5.682,9.073,5.489,14.79a66.982,66.982,0,0,1-.935,9.174.423.423,0,0,1-.422.342" transform="translate(-6855.264 -13612.305)" fill="#361524"/>
        <path id="Trazado_129324" data-name="Trazado 129324" d="M356.3,365.225a.426.426,0,0,1-.424-.471c.021-.128,2.033-12.831-.064-21.306-2.044-8.255-16.1-9.149-16.247-9.157a.416.416,0,0,1-.4-.432.423.423,0,0,1,.452-.384c.606.035,14.84.938,17.03,9.785,2.137,8.631.1,21.49.078,21.619a.423.423,0,0,1-.423.346" transform="translate(-6860.475 -13609.938)" fill="#361524"/>
        <path id="Trazado_129325" data-name="Trazado 129325" d="M375.422,384.385l-.046,0a.414.414,0,0,1-.381-.45l.043-.393c.672-6.011,2.458-21.978-2.637-30.984-2.025-3.578-6.105-5.824-10.917-6.009a.419.419,0,0,1-.411-.426.429.429,0,0,1,.446-.392c5.116.2,9.467,2.6,11.636,6.438,5.221,9.229,3.415,25.38,2.734,31.46l-.044.392a.421.421,0,0,1-.425.366" transform="translate(-6865.96 -13613.428)" fill="#361524"/>
        <path id="Trazado_129326" data-name="Trazado 129326" d="M392.245,375.4a.477.477,0,0,1-.078-.006.412.412,0,0,1-.346-.475c.019-.091,1.676-9.137-2.224-13.808-3.8-4.549-10.5-.968-10.565-.932a.439.439,0,0,1-.584-.152.4.4,0,0,1,.16-.557c.072-.041,7.407-3.961,11.659,1.132,4.143,4.963,2.472,14.077,2.4,14.463a.422.422,0,0,1-.42.336" transform="translate(-6870.296 -13616.919)" fill="#361524"/>
        <path id="Trazado_129327" data-name="Trazado 129327" d="M274.252,274.777a.428.428,0,0,1-.39-.24.4.4,0,0,1,.213-.541c8.409-3.636,10.461-13.85,10.953-18.071l.429.011.424.058c-.51,4.383-2.643,14.937-11.452,18.747a.453.453,0,0,1-.177.036" transform="translate(-6844.118 -13587.86)" fill="#361524"/>
      </g>
      <path id="Trazado_129328" data-name="Trazado 129328" d="M377.523,208.895v16.863a8.379,8.379,0,0,0,8.569,8.177H471.3a8.379,8.379,0,0,0,8.569-8.177v-49.35a8.379,8.379,0,0,0-8.569-8.176H386.092a8.379,8.379,0,0,0-8.569,8.176v8.981l-61.32,28.82Z" transform="translate(-6854.728 -13562.895)" fill="#fff"/>
      <path id="Trazado_129329" data-name="Trazado 129329" d="M471.154,234.181H385.949a8.808,8.808,0,0,1-9-8.585V209.181L316.1,214.454a.433.433,0,0,1-.451-.3.4.4,0,0,1,.223-.477l61.081-28.709v-8.727a8.807,8.807,0,0,1,9-8.584h85.206a8.807,8.807,0,0,1,9,8.584V225.6a8.808,8.808,0,0,1-9,8.585M377.38,208.324a.437.437,0,0,1,.289.107.4.4,0,0,1,.14.3V225.6a7.969,7.969,0,0,0,8.14,7.767h85.206a7.969,7.969,0,0,0,8.14-7.767v-49.35a7.969,7.969,0,0,0-8.14-7.767H385.949a7.969,7.969,0,0,0-8.14,7.767v8.981a.406.406,0,0,1-.24.366l-59.25,27.848,59.023-5.116h.038" transform="translate(-6854.584 -13562.732)" fill="#361524"/>
      <path id="Trazado_129330" data-name="Trazado 129330" d="M499.987,198.694,486.56,217.6l-11.576,16.307L463.408,217.6l-13.419-18.906Z" transform="translate(-6888.22 -13571.567)" fill="#e6eff2"/>
      <path id="Trazado_129331" data-name="Trazado 129331" d="M499.987,198.694l-6.709,9.448L486.56,217.6H463.408l-6.709-9.458-6.709-9.448Z" transform="translate(-6888.22 -13571.567)" fill="#b1dbea"/>
      <path id="Trazado_129332" data-name="Trazado 129332" d="M499.987,198.694l-6.709,9.448H456.7l-6.709-9.448Z" transform="translate(-6888.22 -13571.567)" fill="#20bdfc"/>
      <path id="Trazado_129333" data-name="Trazado 129333" d="M416.217,186.5h0Z" transform="translate(-6879.766 -13568.097)" fill="#fff"/>
      <path id="Trazado_129334" data-name="Trazado 129334" d="M491.39,186.749H416.074a.409.409,0,1,1,0-.818H491.39a.409.409,0,1,1,0,.818" transform="translate(-6879.623 -13567.934)" fill="#126783"/>
      <path id="Trazado_129335" data-name="Trazado 129335" d="M416.217,221.936h0Z" transform="translate(-6879.766 -13578.185)" fill="#fff"/>
      <path id="Trazado_129336" data-name="Trazado 129336" d="M434.781,222.183H416.073a.409.409,0,1,1,0-.818h18.708a.409.409,0,1,1,0,.818" transform="translate(-6879.623 -13578.021)" fill="#fed166"/>
      <path id="Trazado_129337" data-name="Trazado 129337" d="M416.217,231.461h0Z" transform="translate(-6879.766 -13580.896)" fill="#fff"/>
      <path id="Trazado_129338" data-name="Trazado 129338" d="M441.391,231.707H416.073a.409.409,0,1,1,0-.818h25.318a.409.409,0,1,1,0,.818" transform="translate(-6879.623 -13580.733)" fill="#fed166"/>
      <path id="Trazado_129339" data-name="Trazado 129339" d="M416.217,240.986h0Z" transform="translate(-6879.766 -13583.607)" fill="#fff"/>
      <path id="Trazado_129340" data-name="Trazado 129340" d="M449.348,241.232H416.073a.409.409,0,1,1,0-.818h33.275a.409.409,0,1,1,0,.818" transform="translate(-6879.623 -13583.445)" fill="#fed166"/>
      <path id="Trazado_129341" data-name="Trazado 129341" d="M120.715,169.816v12.329a8.38,8.38,0,0,1-8.569,8.177H12.539a8.379,8.379,0,0,1-8.569-8.177V37.7a8.379,8.379,0,0,1,8.569-8.177h99.607a8.38,8.38,0,0,1,8.569,8.177V149.49L159.634,179.3Z" transform="translate(-6776.561 -13523.406)" fill="#fff"/>
      <path id="Trazado_129342" data-name="Trazado 129342" d="M112,190.566H12.394a8.808,8.808,0,0,1-9-8.585V37.542a8.808,8.808,0,0,1,9-8.585H112a8.808,8.808,0,0,1,9,8.585V149.13l38.759,29.687a.4.4,0,0,1,.115.5.434.434,0,0,1-.49.213L121,170.18v11.8a8.808,8.808,0,0,1-9,8.585M12.394,29.775a7.97,7.97,0,0,0-8.14,7.767V181.981a7.97,7.97,0,0,0,8.14,7.767H112a7.969,7.969,0,0,0,8.141-7.767V169.653a.4.4,0,0,1,.166-.323.441.441,0,0,1,.369-.074l37,9.016L120.3,149.645a.4.4,0,0,1-.16-.318V37.542A7.969,7.969,0,0,0,112,29.775Z" transform="translate(-6776.418 -13523.244)" fill="#361524"/>
      <path id="Trazado_129343" data-name="Trazado 129343" d="M121.838,99.184a.422.422,0,0,1-.424-.351q-.089-.6-.2-1.195a.411.411,0,0,1,.345-.476.436.436,0,0,1,.5.329c.078.406.147.814.208,1.226a.412.412,0,0,1-.364.462.452.452,0,0,1-.061,0" transform="translate(-6805.911 -13542.66)" fill="#e95a73"/>
      <path id="Trazado_129344" data-name="Trazado 129344" d="M92.019,65.017A.445.445,0,0,1,91.894,65q-.6-.177-1.22-.331a.406.406,0,0,1-.305-.5.429.429,0,0,1,.523-.292c.422.106.839.219,1.253.34a.406.406,0,0,1,.285.51.428.428,0,0,1-.41.29" transform="translate(-6798.187 -13533.182)" fill="#e95a73"/>
      <path id="Trazado_129345" data-name="Trazado 129345" d="M69.44,123.806c-17.719,0-32.132-13.754-32.132-30.66S51.722,62.485,69.44,62.485a33.73,33.73,0,0,1,8.17,1l-.217.792A32.774,32.774,0,0,0,69.44,63.3C52.2,63.3,38.165,76.69,38.165,93.146S52.2,122.988,69.44,122.988s31.276-13.388,31.276-29.842a28.778,28.778,0,0,0-.305-4.185l.849-.114a29.822,29.822,0,0,1,.313,4.3c0,16.906-14.415,30.66-32.132,30.66" transform="translate(-6784.907 -13532.789)" fill="none" stroke="#126783" stroke-width="2"/>
      <g id="Grupo_146490" data-name="Grupo 146490">
        <path id="Trazado_129346" data-name="Trazado 129346" d="M64.285,102.277a3.525,3.525,0,0,1-1.828-3.109A3.164,3.164,0,0,1,63.6,96.544a4.231,4.231,0,0,1,2.731-.911,4.381,4.381,0,0,1,2.974.949,3.25,3.25,0,0,1,1.092,2.586,3.555,3.555,0,0,1-1.827,3.109,3.352,3.352,0,0,1,2.212,3.332,3.711,3.711,0,0,1-1.151,2.853,4.379,4.379,0,0,1-3.1,1.07,4.655,4.655,0,0,1-3.322-1.07,3.744,3.744,0,0,1-1.129-2.853,3.351,3.351,0,0,1,2.212-3.332m-.418,3.254a2.457,2.457,0,0,0,.7,1.749,2.777,2.777,0,0,0,3.792-.1,2.54,2.54,0,0,0-.053-3.412,2.715,2.715,0,0,0-2.768-.542,2.48,2.48,0,0,0-1.666,2.3m.263-6.189A2.1,2.1,0,0,0,64.867,101a2.494,2.494,0,0,0,2.9.149,2.264,2.264,0,0,0,.825-2.667,1.943,1.943,0,0,0-.672-.856,2.473,2.473,0,0,0-1.234-.387,2.27,2.27,0,0,0-2.349,1.153,2.463,2.463,0,0,0-.208.95" transform="translate(-6791.107 -13542.227)" fill="#20bdfc"/>
        <path id="Trazado_129347" data-name="Trazado 129347" d="M76.383,102.587A8.652,8.652,0,0,1,77.7,97.444a4.2,4.2,0,0,1,3.589-1.811,4.117,4.117,0,0,1,3.625,1.879,8.954,8.954,0,0,1,1.268,5.075,8.659,8.659,0,0,1-1.309,5.129,4.182,4.182,0,0,1-3.583,1.816,4.113,4.113,0,0,1-3.639-1.889,8.963,8.963,0,0,1-1.264-5.056m2.071,0a8.6,8.6,0,0,0,.731,4.131,2.393,2.393,0,0,0,4.2,0,8.614,8.614,0,0,0,.731-4.127,8.523,8.523,0,0,0-.741-4.155,2.321,2.321,0,0,0-2.092-1.23,2.24,2.24,0,0,0-2.177,1.4,9.662,9.662,0,0,0-.654,3.986" transform="translate(-6794.689 -13542.227)" fill="#20bdfc"/>
        <path id="Trazado_129348" data-name="Trazado 129348" d="M93.37,109.572a.8.8,0,0,1-.3-.058.727.727,0,0,1-.413-.966L98.1,96.225a.788.788,0,0,1,1.013-.393.725.725,0,0,1,.412.966l-5.443,12.323a.776.776,0,0,1-.712.451" transform="translate(-6798.749 -13542.267)" fill="#20bdfc"/>
        <path id="Trazado_129349" data-name="Trazado 129349" d="M93.02,95.774a.984.984,0,1,0,0,1.967.984.984,0,1,0,0-1.967" transform="translate(-6798.605 -13542.267)" fill="#20bdfc"/>
        <path id="Trazado_129350" data-name="Trazado 129350" d="M101.179,112.314a.984.984,0,1,0,0,1.967.984.984,0,1,0,0-1.967" transform="translate(-6800.648 -13546.976)" fill="#20bdfc"/>
      </g>
      <path id="Trazado_129351" data-name="Trazado 129351" d="M35.117,205.056l16.138-20.737,25.167,18.169L102.667,169.5Z" transform="translate(-6784.359 -13563.256)" fill="#fff" stroke="rgba(0,0,0,0)" stroke-width="1"/>
      <path id="Trazado_129352" data-name="Trazado 129352" d="M34.973,205.3a.439.439,0,0,1-.255-.081.4.4,0,0,1-.089-.572l16.139-20.737a.43.43,0,0,1,.283-.162.446.446,0,0,1,.319.079l24.826,17.923,25.987-32.663a.446.446,0,0,1,.6-.079.4.4,0,0,1,.082.574L76.619,202.574a.443.443,0,0,1-.6.078L51.2,184.733,35.317,205.138a.433.433,0,0,1-.344.165" transform="translate(-6784.215 -13563.094)" fill="#126783"/>
      <path id="Trazado_129353" data-name="Trazado 129353" d="M127.983,166.659a4.146,4.146,0,1,0-4.141,3.952,4.05,4.05,0,0,0,4.141-3.952" transform="translate(-6805.534 -13561.322)" fill="#20bdfc"/>
      <path id="Trazado_129354" data-name="Trazado 129354" d="M37.875,217.635a4.146,4.146,0,1,0-4.142,3.952,4.05,4.05,0,0,0,4.142-3.952" transform="translate(-6782.976 -13575.835)" fill="#20bdfc"/>
      <path id="Trazado_129355" data-name="Trazado 129355" d="M259.252,101.681H384.383a8.379,8.379,0,0,0,8.569-8.176V8.748A8.379,8.379,0,0,0,384.383.572H211.155a8.38,8.38,0,0,0-8.569,8.176V93.505a8.379,8.379,0,0,0,8.569,8.176h27.737l10.151,31.888Z" transform="translate(-6826.284 -13515.163)" fill="#fff"/>
      <path id="Trazado_129356" data-name="Trazado 129356" d="M248.9,133.815h0a.426.426,0,0,1-.409-.29l-10.06-31.6H211.011a8.808,8.808,0,0,1-9-8.585V8.585a8.808,8.808,0,0,1,9-8.585H384.239a8.808,8.808,0,0,1,9,8.585V93.341a8.808,8.808,0,0,1-9,8.585H259.426l-10.116,31.6a.428.428,0,0,1-.411.289M211.011.818a7.97,7.97,0,0,0-8.141,7.767V93.341a7.97,7.97,0,0,0,8.141,7.767h27.738a.427.427,0,0,1,.41.29L248.9,132l9.8-30.6a.426.426,0,0,1,.409-.289H384.239a7.969,7.969,0,0,0,8.141-7.767V8.585A7.969,7.969,0,0,0,384.239.818Z" transform="translate(-6826.141 -13515)" fill="#361524"/>
      <path id="Trazado_129357" data-name="Trazado 129357" d="M226.567,75.458a.432.432,0,0,1-.211-.054.4.4,0,0,1-.161-.557c.079-.133,2.271-12.453,15.882-12.453l.317,0c7.863.117,11.9,3.059,15.46,5.654,2.7,1.966,5.026,3.664,8.536,3.749,5.292.128,7.171-1.839,9.169-3.923a14.7,14.7,0,0,1,3.9-3.182,13.37,13.37,0,0,1,6.665-1.411,9.941,9.941,0,0,0,4.694-.843c1.172-.592,2.448-3.763,3.925-7.436,2.847-7.079,6.746-16.774,14.275-20.765a23.675,23.675,0,0,1,30.772,7.084,54.456,54.456,0,0,1,5.558,11.74c.684,1.808,1.39,3.677,2.179,5.481,2.147,4.918,5.171,8,8.988,9.169a13.081,13.081,0,0,0,13.231-3.549,74.04,74.04,0,0,0,9.58-13A.439.439,0,0,1,379.9,51a.4.4,0,0,1,.177.553,74.867,74.867,0,0,1-9.7,13.164,13.963,13.963,0,0,1-14.129,3.78c-4.067-1.242-7.269-4.484-9.519-9.633-.8-1.823-1.506-3.7-2.193-5.518a53.828,53.828,0,0,0-5.47-11.571,22.8,22.8,0,0,0-29.637-6.816C302.174,38.8,298.339,48.335,295.539,55.3c-1.665,4.139-2.868,7.131-4.325,7.865a10.622,10.622,0,0,1-5.083.937,12.46,12.46,0,0,0-6.266,1.312,14.009,14.009,0,0,0-3.673,3.015c-2.042,2.127-4.178,4.315-9.823,4.189-3.787-.092-6.336-1.95-9.035-3.917-3.456-2.519-7.372-5.373-14.953-5.486l-.3,0c-13.117,0-15.06,11.911-15.137,12.04a.432.432,0,0,1-.373.207" transform="translate(-6832.18 -13523.911)" fill="#fed166"/>
      <path id="Trazado_129358" data-name="Trazado 129358" d="M381.182,93.206H226.07V19.622h.857V92.389H381.182Z" transform="translate(-6832.163 -13520.586)" fill="#126783"/>
      <path id="Trazado_129359" data-name="Trazado 129359" d="M427.314,113.84l6.059,5.781-6.059,5.782Z" transform="translate(-6882.543 -13547.409)" fill="#126783"/>
      <path id="Trazado_129360" data-name="Trazado 129360" d="M218.569,24.608l6.059-5.781,6.059,5.781Z" transform="translate(-6830.285 -13520.36)" fill="#126783"/>
    </g>
    <g transform="matrix(1, 0, 0, 1, 889.87, 404)" filter="url(#Trazado_113277)">
      <path id="Trazado_113277-2" data-name="Trazado 113277" d="M21.139,0A21.841,21.841,0,0,1,42.764,21.345l.442,38.246A20.662,20.662,0,0,1,22.069,80.447,21.841,21.841,0,0,1,.444,59.1L0,20.857A20.662,20.662,0,0,1,21.139,0Z" transform="translate(105.95 248.43) rotate(90)" fill="#20bdfc"/>
    </g>
    <g id="Grupo_133898" data-name="Grupo 133898" transform="translate(949.901 571.414)">
      <path id="Trazado_126837" data-name="Trazado 126837" d="M1476.978,1215.36a23.082,23.082,0,0,1-17.834-37.679l9.76,7.969a10.479,10.479,0,1,0,16.234,13.256l9.76,7.969a22.927,22.927,0,0,1-15.558,8.365A23.488,23.488,0,0,1,1476.978,1215.36Z" transform="translate(-1453.951 -1177.681)" fill="#d99527"/>
    </g>
    <g id="Grupo_146492" data-name="Grupo 146492" transform="translate(1068.535 494.727) rotate(-90)">
      <path id="Trazado_126837-2" data-name="Trazado 126837" d="M1471.871,1215.36a23.082,23.082,0,0,0,17.834-37.679l-9.76,7.969a10.479,10.479,0,1,1-16.234,13.256l-9.76,7.969a22.927,22.927,0,0,0,15.558,8.365A23.488,23.488,0,0,0,1471.871,1215.36Z" transform="translate(-1453.951 -1177.681)" fill="#fed166"/>
    </g>
    <g id="Grupo_146491" data-name="Grupo 146491" transform="translate(1332.239 495.366)">
      <path id="Trazado_126837-3" data-name="Trazado 126837" d="M1478.627,1229.567a31.785,31.785,0,0,0,24.558-51.885l-13.44,10.974a14.43,14.43,0,1,1-22.354,18.254l-13.44,10.974a31.572,31.572,0,0,0,21.424,11.52A32.329,32.329,0,0,0,1478.627,1229.567Z" transform="translate(-1453.951 -1177.682)" fill="#25e0ac"/>
    </g>
    <path id="Trazado_126933" data-name="Trazado 126933" d="M475.307,1490.562a4.935,4.935,0,0,1-3.227-1.144,12.777,12.777,0,0,1-2.106-2.394,12,12,0,0,0-1.967-2.249,4.319,4.319,0,0,0-1.2-.7,4.52,4.52,0,0,0-3.046,0,4.323,4.323,0,0,0-1.2.7,12.009,12.009,0,0,0-1.966,2.249,12.782,12.782,0,0,1-2.106,2.394,5.065,5.065,0,0,1-6.454,0,12.78,12.78,0,0,1-2.105-2.394,12.014,12.014,0,0,0-1.967-2.249,4.32,4.32,0,0,0-1.2-.7,4.521,4.521,0,0,0-3.046,0,4.323,4.323,0,0,0-1.2.7,12.006,12.006,0,0,0-1.966,2.249,12.784,12.784,0,0,1-2.106,2.394,5.065,5.065,0,0,1-6.454,0,12.782,12.782,0,0,1-2.105-2.394,12.015,12.015,0,0,0-1.967-2.249,4.322,4.322,0,0,0-1.2-.7,4.243,4.243,0,0,0-1.523-.264.4.4,0,0,1,0-.8,4.938,4.938,0,0,1,3.227,1.144,12.792,12.792,0,0,1,2.106,2.394,12,12,0,0,0,1.966,2.249,4.32,4.32,0,0,0,1.2.7,4.516,4.516,0,0,0,3.046,0,4.325,4.325,0,0,0,1.2-.7,12.007,12.007,0,0,0,1.967-2.249,12.777,12.777,0,0,1,2.105-2.394,5.067,5.067,0,0,1,6.454,0,12.794,12.794,0,0,1,2.106,2.394,12.006,12.006,0,0,0,1.966,2.249,4.32,4.32,0,0,0,1.2.7,4.516,4.516,0,0,0,3.046,0,4.325,4.325,0,0,0,1.2-.7,12.009,12.009,0,0,0,1.967-2.249,12.772,12.772,0,0,1,2.105-2.394,5.067,5.067,0,0,1,6.453,0,12.784,12.784,0,0,1,2.106,2.394,12,12,0,0,0,1.967,2.249,4.316,4.316,0,0,0,1.2.7,4.516,4.516,0,0,0,3.047,0,4.317,4.317,0,0,0,1.2-.7,12,12,0,0,0,1.967-2.249,12.788,12.788,0,0,1,2.106-2.394,4.939,4.939,0,0,1,3.227-1.144.4.4,0,0,1,0,.8,4.242,4.242,0,0,0-1.523.264,4.319,4.319,0,0,0-1.2.7,12,12,0,0,0-1.967,2.249,12.777,12.777,0,0,1-2.106,2.394,4.936,4.936,0,0,1-3.227,1.144Z" transform="translate(902.892 -821.824)" fill="#3e8cf7" stroke="#3e8cf7" stroke-linecap="round" stroke-width="3"/>
    <path id="Trazado_126838" data-name="Trazado 126838" d="M2309.8,888.223a4.128,4.128,0,0,1-2.7-.956,10.663,10.663,0,0,1-1.76-2,10.047,10.047,0,0,0-1.644-1.88,3.607,3.607,0,0,0-1-.587,3.777,3.777,0,0,0-2.546,0,3.62,3.62,0,0,0-1,.587,10.041,10.041,0,0,0-1.644,1.88,10.679,10.679,0,0,1-1.76,2,4.235,4.235,0,0,1-5.4,0,10.691,10.691,0,0,1-1.76-2,10.037,10.037,0,0,0-1.644-1.88,3.61,3.61,0,0,0-1-.587,3.777,3.777,0,0,0-2.546,0,3.612,3.612,0,0,0-1,.587,10.041,10.041,0,0,0-1.644,1.88,10.685,10.685,0,0,1-1.76,2,4.234,4.234,0,0,1-5.4,0,10.666,10.666,0,0,1-1.76-2,10.028,10.028,0,0,0-1.644-1.88,3.615,3.615,0,0,0-1.005-.587,3.547,3.547,0,0,0-1.273-.221.334.334,0,0,1,0-.668,4.128,4.128,0,0,1,2.7.956,10.665,10.665,0,0,1,1.76,2,10.06,10.06,0,0,0,1.644,1.88,3.613,3.613,0,0,0,1,.587,3.775,3.775,0,0,0,2.546,0,3.621,3.621,0,0,0,1-.587,10.039,10.039,0,0,0,1.644-1.88,10.687,10.687,0,0,1,1.76-2,4.235,4.235,0,0,1,5.4,0,10.693,10.693,0,0,1,1.761,2,10.041,10.041,0,0,0,1.644,1.88,3.6,3.6,0,0,0,1,.587,3.775,3.775,0,0,0,2.546,0,3.623,3.623,0,0,0,1-.587,10.029,10.029,0,0,0,1.644-1.88,10.7,10.7,0,0,1,1.76-2,4.236,4.236,0,0,1,5.4,0,10.7,10.7,0,0,1,1.76,2,10.046,10.046,0,0,0,1.644,1.88,3.609,3.609,0,0,0,1,.587,3.545,3.545,0,0,0,1.273.221.334.334,0,1,1,0,.668Z" transform="translate(-997.988 -416.737)" fill="#3e8cf7" stroke="#3e8cf7" stroke-linecap="round" stroke-width="3"/>
    <path id="Trazado_126838-2" data-name="Trazado 126838" d="M2309.8,888.223a4.128,4.128,0,0,1-2.7-.956,10.663,10.663,0,0,1-1.76-2,10.047,10.047,0,0,0-1.644-1.88,3.607,3.607,0,0,0-1-.587,3.777,3.777,0,0,0-2.546,0,3.62,3.62,0,0,0-1,.587,10.041,10.041,0,0,0-1.644,1.88,10.679,10.679,0,0,1-1.76,2,4.235,4.235,0,0,1-5.4,0,10.691,10.691,0,0,1-1.76-2,10.037,10.037,0,0,0-1.644-1.88,3.61,3.61,0,0,0-1-.587,3.777,3.777,0,0,0-2.546,0,3.612,3.612,0,0,0-1,.587,10.041,10.041,0,0,0-1.644,1.88,10.685,10.685,0,0,1-1.76,2,4.234,4.234,0,0,1-5.4,0,10.666,10.666,0,0,1-1.76-2,10.028,10.028,0,0,0-1.644-1.88,3.615,3.615,0,0,0-1.005-.587,3.547,3.547,0,0,0-1.273-.221.334.334,0,0,1,0-.668,4.128,4.128,0,0,1,2.7.956,10.665,10.665,0,0,1,1.76,2,10.06,10.06,0,0,0,1.644,1.88,3.613,3.613,0,0,0,1,.587,3.775,3.775,0,0,0,2.546,0,3.621,3.621,0,0,0,1-.587,10.039,10.039,0,0,0,1.644-1.88,10.687,10.687,0,0,1,1.76-2,4.235,4.235,0,0,1,5.4,0,10.693,10.693,0,0,1,1.761,2,10.041,10.041,0,0,0,1.644,1.88,3.6,3.6,0,0,0,1,.587,3.775,3.775,0,0,0,2.546,0,3.623,3.623,0,0,0,1-.587,10.029,10.029,0,0,0,1.644-1.88,10.7,10.7,0,0,1,1.76-2,4.236,4.236,0,0,1,5.4,0,10.7,10.7,0,0,1,1.76,2,10.046,10.046,0,0,0,1.644,1.88,3.609,3.609,0,0,0,1,.587,3.545,3.545,0,0,0,1.273.221.334.334,0,1,1,0,.668Z" transform="translate(-1322.888 -248.737)" fill="#3e8cf7" stroke="#3e8cf7" stroke-linecap="round" stroke-width="3"/>
  </g>
</svg>
