<svg xmlns="http://www.w3.org/2000/svg" xmlns:xlink="http://www.w3.org/1999/xlink" width="530.5" height="406.477" viewBox="0 0 530.5 406.477">
  <defs>
    <filter id="Trazado_113277" x="0" y="312.645" width="128.963" height="93.833" filterUnits="userSpaceOnUse">
      <feOffset dy="3" input="SourceAlpha"/>
      <feGaussianBlur stdDeviation="8.5" result="blur"/>
      <feFlood flood-opacity="0.2"/>
      <feComposite operator="in" in2="blur"/>
      <feComposite in="SourceGraphic"/>
    </filter>
    <clipPath id="clip-path">
      <rect id="Rectángulo_35940" data-name="Rectángulo 35940" width="497.139" height="402.618" fill="none"/>
    </clipPath>
    <clipPath id="clip-path-2">
      <rect id="Rectángulo_35941" data-name="Rectángulo 35941" width="118.016" height="77.017" fill="none"/>
    </clipPath>
    <clipPath id="clip-path-3">
      <path id="Trazado_128389" data-name="Trazado 128389" d="M309.139,217.034a82.686,82.686,0,1,0,82.686-82.684,82.686,82.686,0,0,0-82.686,82.684" transform="translate(-309.139 -134.35)" fill="none"/>
    </clipPath>
  </defs>
  <g id="Grupo_134349" data-name="Grupo 134349" transform="translate(-3322.5 6038.482)">
    <g id="Grupo_133931" data-name="Grupo 133931" transform="translate(3348 -5978.83)">
      <rect id="Rectángulo_33902" data-name="Rectángulo 33902" width="467.646" height="318.325" rx="21" transform="translate(17.284 0)" fill="#f6f6f6"/>
      <g transform="matrix(1, 0, 0, 1, -25.5, -59.65)" filter="url(#Trazado_113277)">
        <path id="Trazado_113277-2" data-name="Trazado 113277" d="M20.3,0A20.973,20.973,0,0,1,41.065,20.5l.425,36.726a19.841,19.841,0,0,1-20.3,20.027A20.973,20.973,0,0,1,.426,56.754L0,20.028A19.841,19.841,0,0,1,20.3,0Z" transform="translate(102.74 335.14) rotate(89)" fill="#20bdfc"/>
      </g>
      <g id="Grupo_133929" data-name="Grupo 133929" transform="translate(38.981 121.551)">
        <path id="Trazado_126838" data-name="Trazado 126838" d="M2369.752,897.186a9.986,9.986,0,0,1-6.528-2.314,25.824,25.824,0,0,1-4.26-4.842,24.325,24.325,0,0,0-3.978-4.549,8.741,8.741,0,0,0-2.431-1.42,9.135,9.135,0,0,0-6.16,0,8.747,8.747,0,0,0-2.43,1.419,24.282,24.282,0,0,0-3.976,4.549,25.882,25.882,0,0,1-4.26,4.843,10.245,10.245,0,0,1-13.053,0,25.868,25.868,0,0,1-4.259-4.842,24.289,24.289,0,0,0-3.977-4.549,8.739,8.739,0,0,0-2.431-1.42,9.134,9.134,0,0,0-6.161,0,8.733,8.733,0,0,0-2.43,1.419,24.275,24.275,0,0,0-3.977,4.549,25.85,25.85,0,0,1-4.259,4.843,10.245,10.245,0,0,1-13.054,0,25.821,25.821,0,0,1-4.258-4.842,24.31,24.31,0,0,0-3.978-4.549,8.742,8.742,0,0,0-2.431-1.42,8.572,8.572,0,0,0-3.082-.535.808.808,0,0,1,0-1.616,9.988,9.988,0,0,1,6.529,2.314,25.844,25.844,0,0,1,4.259,4.843,24.311,24.311,0,0,0,3.977,4.548,8.753,8.753,0,0,0,2.43,1.42,9.138,9.138,0,0,0,6.162,0,8.759,8.759,0,0,0,2.431-1.42,24.3,24.3,0,0,0,3.978-4.549,25.837,25.837,0,0,1,4.258-4.842,10.247,10.247,0,0,1,13.054,0,25.9,25.9,0,0,1,4.26,4.843,24.291,24.291,0,0,0,3.976,4.548,8.747,8.747,0,0,0,2.43,1.42,9.138,9.138,0,0,0,6.161,0,8.746,8.746,0,0,0,2.43-1.42,24.251,24.251,0,0,0,3.978-4.549,25.845,25.845,0,0,1,4.259-4.842,10.248,10.248,0,0,1,13.053,0,25.834,25.834,0,0,1,4.259,4.843,24.309,24.309,0,0,0,3.979,4.549,8.731,8.731,0,0,0,2.43,1.42,8.586,8.586,0,0,0,3.081.535.808.808,0,1,1,0,1.616Z" transform="translate(-1958.156 -881.909)" fill="#3e8cf7"/>
        <path id="Trazado_126933" data-name="Trazado 126933" d="M475.556,1490.6a4.959,4.959,0,0,1-3.243-1.15,12.845,12.845,0,0,1-2.116-2.406,12.063,12.063,0,0,0-1.976-2.26,4.341,4.341,0,0,0-1.208-.705,4.542,4.542,0,0,0-3.061,0,4.345,4.345,0,0,0-1.207.705,12.068,12.068,0,0,0-1.976,2.26,12.847,12.847,0,0,1-2.116,2.406,5.09,5.09,0,0,1-6.485,0,12.846,12.846,0,0,1-2.116-2.405,12.069,12.069,0,0,0-1.976-2.26,4.343,4.343,0,0,0-1.208-.705,4.542,4.542,0,0,0-3.061,0,4.345,4.345,0,0,0-1.207.705,12.063,12.063,0,0,0-1.976,2.26,12.849,12.849,0,0,1-2.116,2.406,5.091,5.091,0,0,1-6.485,0,12.847,12.847,0,0,1-2.116-2.405,12.07,12.07,0,0,0-1.976-2.26,4.345,4.345,0,0,0-1.208-.705,4.264,4.264,0,0,0-1.531-.266.4.4,0,1,1,0-.8,4.961,4.961,0,0,1,3.243,1.15,12.853,12.853,0,0,1,2.116,2.406,12.063,12.063,0,0,0,1.976,2.26,4.342,4.342,0,0,0,1.207.705,4.537,4.537,0,0,0,3.061,0,4.346,4.346,0,0,0,1.208-.705,12.061,12.061,0,0,0,1.976-2.26,12.837,12.837,0,0,1,2.116-2.406,5.091,5.091,0,0,1,6.485,0,12.856,12.856,0,0,1,2.116,2.406,12.064,12.064,0,0,0,1.976,2.26,4.342,4.342,0,0,0,1.207.705,4.537,4.537,0,0,0,3.061,0,4.347,4.347,0,0,0,1.208-.705,12.064,12.064,0,0,0,1.976-2.26,12.831,12.831,0,0,1,2.116-2.406,5.091,5.091,0,0,1,6.485,0,12.844,12.844,0,0,1,2.116,2.406,12.063,12.063,0,0,0,1.976,2.26,4.338,4.338,0,0,0,1.208.705,4.538,4.538,0,0,0,3.062,0,4.338,4.338,0,0,0,1.208-.705,12.06,12.06,0,0,0,1.976-2.26,12.847,12.847,0,0,1,2.116-2.406,4.962,4.962,0,0,1,3.243-1.15.4.4,0,0,1,0,.8,4.264,4.264,0,0,0-1.531.266,4.342,4.342,0,0,0-1.208.705,12.065,12.065,0,0,0-1.976,2.26,12.845,12.845,0,0,1-2.116,2.406,4.959,4.959,0,0,1-3.243,1.15Z" transform="translate(-424.789 -1314.415)" fill="#3e8cf7"/>
      </g>
    </g>
    <g id="Grupo_134273" data-name="Grupo 134273" transform="translate(3355.862 -6038.482)">
      <g id="Grupo_134272" data-name="Grupo 134272" transform="translate(0)" clip-path="url(#clip-path)">
        <path id="Trazado_128381" data-name="Trazado 128381" d="M145.2,360.155c-2.774-24.693,13.853-46.849,32.873-56.943s40.375-11.1,60.866-15.4c36.139-7.582,70.661-25.977,99.559-53.051,20.271-18.992,37.792-42.134,59.148-59.337,25.726-20.724,57.385-31.856,88.389-32.037" transform="translate(-13.53 12.304)" fill="none" stroke="#ffbc4a" stroke-linecap="round" stroke-linejoin="round" stroke-width="1.052"/>
        <path id="Trazado_128382" data-name="Trazado 128382" d="M69.867,332.51c6.346-34.02,46.944-44.653,59.527-76.086,7.8-19.479,8.4-44.175-.386-63.043-8.213-17.64-23.957-38.421-33.7-56.6s-18.793-35.4-22.07-56.648" transform="translate(-6.524 6.876)" fill="none" stroke="#ffbc4a" stroke-linecap="round" stroke-linejoin="round" stroke-width="1.052"/>
        <path id="Trazado_128383" data-name="Trazado 128383" d="M494.735,88.381c-35.045,3.08-63.825,40.408-98.954,41.435-14.666.429-29.318-5.593-43.823-2.954-16.739,3.045-30.753,17.154-47.231,21.81-21.045,5.946-43.58-4.721-59.446-22.313S219.514,86.042,211.3,62.086" transform="translate(-19.732 5.328)" fill="none" stroke="#ffbc4a" stroke-linecap="round" stroke-linejoin="round" stroke-width="1.052"/>
        <path id="Trazado_128384" data-name="Trazado 128384" d="M166.94,202.874c-31.866,39.522-84.263,41.311-117.957,4.55l8.3,55.57c44.587,23.8,98.812,13.192,134.633-31.237,37.971-47.093,43.507-117.606,17.2-171.545l-38.847,6.1c28.172,39.233,27.268,98.618-3.328,136.566" transform="translate(-4.574 5.167)" fill="#7463e5"/>
        <path id="Trazado_128385" data-name="Trazado 128385" d="M71.051,370.887,29.337,91.529,480.62,20.7,469.794,288.745l-120.25,55.41" transform="translate(-2.74 1.776)" fill="none" stroke="#1e0b4a" stroke-linecap="round" stroke-linejoin="round" stroke-width="1.052"/>
      </g>
    </g>
    <g id="Grupo_134275" data-name="Grupo 134275" transform="translate(3411.641 -5743.04)">
      <g id="Grupo_134274" data-name="Grupo 134274" clip-path="url(#clip-path-2)">
        <path id="Trazado_128386" data-name="Trazado 128386" d="M128.886,331.51a39.345,39.345,0,1,0,39.345-39.344A39.345,39.345,0,0,0,128.886,331.51Z" transform="translate(-107.815 -270.372)" fill="none" stroke="#7463e5" stroke-miterlimit="10" stroke-width="12.325"/>
      </g>
    </g>
    <g id="Grupo_134280" data-name="Grupo 134280" transform="translate(3628.434 -5892.605)">
      <path id="Trazado_128387" data-name="Trazado 128387" d="M386.628,200.977l-15.55,154.236-7.776.205L317.294,248.584Z" transform="translate(-308.439 -128.632)" fill="#1e0b4a"/>
      <path id="Trazado_128388" data-name="Trazado 128388" d="M309.139,217.035a82.685,82.685,0,1,0,82.686-82.686,82.686,82.686,0,0,0-82.686,82.686" transform="translate(-309.139 -134.349)" fill="#25e0ac"/>
    </g>
    <g id="Grupo_134279" data-name="Grupo 134279" transform="translate(3628.434 -5892.604)">
      <g id="Grupo_134278" data-name="Grupo 134278" clip-path="url(#clip-path-3)">
        <line id="Línea_147" data-name="Línea 147" x2="205.457" y2="77.528" transform="translate(-17.568 73.64)" fill="none" stroke="#fff" stroke-linecap="round" stroke-linejoin="round" stroke-width="1.052"/>
        <line id="Línea_148" data-name="Línea 148" x2="205.457" y2="77.528" transform="translate(-20.184 80.575)" fill="none" stroke="#fff" stroke-linecap="round" stroke-linejoin="round" stroke-width="1.052"/>
        <line id="Línea_149" data-name="Línea 149" x2="205.457" y2="77.528" transform="translate(-22.801 87.51)" fill="none" stroke="#fff" stroke-linecap="round" stroke-linejoin="round" stroke-width="1.052"/>
        <line id="Línea_150" data-name="Línea 150" x2="205.457" y2="77.528" transform="translate(-25.418 94.444)" fill="none" stroke="#fff" stroke-linecap="round" stroke-linejoin="round" stroke-width="1.052"/>
        <line id="Línea_151" data-name="Línea 151" x2="205.457" y2="77.528" transform="translate(-28.035 101.379)" fill="none" stroke="#fff" stroke-linecap="round" stroke-linejoin="round" stroke-width="1.052"/>
        <line id="Línea_152" data-name="Línea 152" x2="205.457" y2="77.528" transform="translate(-30.651 108.314)" fill="none" stroke="#fff" stroke-linecap="round" stroke-linejoin="round" stroke-width="1.052"/>
        <line id="Línea_153" data-name="Línea 153" x2="205.457" y2="77.528" transform="translate(-33.268 115.249)" fill="none" stroke="#fff" stroke-linecap="round" stroke-linejoin="round" stroke-width="1.052"/>
        <line id="Línea_154" data-name="Línea 154" x2="205.457" y2="77.528" transform="translate(-35.885 122.183)" fill="none" stroke="#fff" stroke-linecap="round" stroke-linejoin="round" stroke-width="1.052"/>
        <line id="Línea_155" data-name="Línea 155" x2="205.457" y2="77.528" transform="translate(-38.502 129.118)" fill="none" stroke="#fff" stroke-linecap="round" stroke-linejoin="round" stroke-width="1.052"/>
        <line id="Línea_156" data-name="Línea 156" x2="205.457" y2="77.528" transform="translate(-41.118 136.053)" fill="none" stroke="#fff" stroke-linecap="round" stroke-linejoin="round" stroke-width="1.052"/>
        <line id="Línea_157" data-name="Línea 157" x2="205.457" y2="77.528" transform="translate(-43.735 142.987)" fill="none" stroke="#fff" stroke-linecap="round" stroke-linejoin="round" stroke-width="1.052"/>
      </g>
    </g>
    <path id="Trazado_128390" data-name="Trazado 128390" d="M176.2,160.2s-13.026-35.313-8.735-44.526c1.391-2.985,17.524,10.554,17.524,10.554l3.082,18.486Z" transform="translate(3307.063 -6028.593)" fill="#853534"/>
    <path id="Trazado_128391" data-name="Trazado 128391" d="M185.238,127.45,163.757,142.6l1.273-41.579c14.537,3.88,16.163,7.823,20.208,26.431" transform="translate(3306.819 -6029.813)" fill="#25e0ac"/>
    <path id="Trazado_128392" data-name="Trazado 128392" d="M150.271,47.843c-31.916-8.657-59.066,47.539-24.1,59.91,63.824,17.075,67.187-61.2,29.857-60.609-1.451.024-5.761.7-5.761.7" transform="translate(3302.188 -6034.454)" fill="#1e0b4a"/>
    <path id="Trazado_128393" data-name="Trazado 128393" d="M145.984,109.281,139,77.81l7.857-1.744,7.036,31.7Z" transform="translate(3304.694 -6031.955)" fill="#be6248"/>
    <path id="Trazado_128394" data-name="Trazado 128394" d="M140.869,82.235a25.151,25.151,0,0,0,10.573,14.716l-1.484-6.617c-3.066-1.265-5.988-3.782-9.088-8.1" transform="translate(3304.854 -6031.426)" fill="#853534"/>
    <path id="Trazado_128395" data-name="Trazado 128395" d="M156.226,91.279c-1.722,3.074-3.964,1.941-5.29,1.417-5.79-2.293-11.187-8.855-14.169-17.813-1.735-5.212-1.624-6.632-2.215-12.108,3.713-4.959,12.087-6.755,18.363-5.636,4.219,11.162,7.271,27.071,3.311,34.14" transform="translate(3304.313 -6033.606)" fill="#be6248"/>
    <path id="Trazado_128396" data-name="Trazado 128396" d="M148.135,67.639l-5.049,1.582s3.142-3.637,5.049-1.582" transform="translate(3305.045 -6032.732)" fill="#1e0b4a"/>
    <path id="Trazado_128397" data-name="Trazado 128397" d="M147.233,69.85a.841.841,0,1,1-1.065-.685.9.9,0,0,1,1.065.685" transform="translate(3305.26 -6032.549)" fill="#1e0b4a"/>
    <path id="Trazado_128398" data-name="Trazado 128398" d="M150.933,67.054l3.894-.544s-3.377-1.855-3.894.544" transform="translate(3305.718 -6032.833)" fill="#1e0b4a"/>
    <path id="Trazado_128399" data-name="Trazado 128399" d="M152.247,68.846a.859.859,0,0,0,.863.855.89.89,0,0,0,.66-1.039.86.86,0,0,0-.863-.856.891.891,0,0,0-.66,1.04" transform="translate(3305.83 -6032.664)" fill="#1e0b4a"/>
    <path id="Trazado_128400" data-name="Trazado 128400" d="M146.081,71.762a1.766,1.766,0,0,1,2.172,1.355,1.938,1.938,0,0,1-1.173,2.388,1.767,1.767,0,0,1-2.172-1.355,1.937,1.937,0,0,1,1.173-2.388" transform="translate(3305.195 -6032.33)" fill="#853534"/>
    <path id="Trazado_128401" data-name="Trazado 128401" d="M149.3,67.883a23.161,23.161,0,0,0,1.543,6.339c.544,1.426.882,2.264.076,2.9" transform="translate(3305.578 -6032.657)" fill="none" stroke="#853534" stroke-linecap="round" stroke-linejoin="round" stroke-width="0.829"/>
    <path id="Trazado_128402" data-name="Trazado 128402" d="M153.217,79.7a4,4,0,0,1-5.324-.906" transform="translate(3305.458 -6031.721)" fill="none" stroke="#853534" stroke-linecap="round" stroke-linejoin="round" stroke-width="0.829"/>
    <path id="Trazado_128403" data-name="Trazado 128403" d="M153.167,72.476a1.939,1.939,0,0,1,1.172-2.388,1.624,1.624,0,0,1,.984.026c.226,1.167.437,2.277.58,3.426a2.3,2.3,0,0,1-.562.291,1.767,1.767,0,0,1-2.173-1.355" transform="translate(3305.904 -6032.473)" fill="#853534"/>
    <path id="Trazado_128404" data-name="Trazado 128404" d="M158.549,50.739s-2.318,7.677-4.024,9.726c-2.51,3.016-13.547,9.693-15.1,13.245-4.127,9.444,4.621,27.122,4.621,27.122s-29.585-4.758-23.029-25.153,37.531-24.94,37.531-24.94" transform="translate(3303.07 -6034.128)" fill="#1e0b4a"/>
    <path id="Trazado_128405" data-name="Trazado 128405" d="M137,70.572c-1.222-1.779-2.7-1.7-3.33-1.241a2.094,2.094,0,0,0-.658,1.695,4.825,4.825,0,0,0,1.935,3.859,3.332,3.332,0,0,0,3.652.34,8.8,8.8,0,0,0-1.6-4.653" transform="translate(3304.18 -6032.557)" fill="#be6248"/>
    <path id="Trazado_128406" data-name="Trazado 128406" d="M136.589,73.285a4.242,4.242,0,0,0-1.079-2.513,2.59,2.59,0,0,0-1-.646" transform="translate(3304.309 -6032.465)" fill="none" stroke="#853534" stroke-linecap="round" stroke-linejoin="round" stroke-width="0.829"/>
    <path id="Trazado_128407" data-name="Trazado 128407" d="M256.32,197.8l18.5-2.483c8.613,7.348,20.093,13.5,36.268,19.357a1.48,1.48,0,0,1-.653,2.809H256Z" transform="translate(3314.735 -6021.722)" fill="#7463e5"/>
    <path id="Trazado_128408" data-name="Trazado 128408" d="M227.413,293.925l18.2,4.153c5.5,9.9,14.094,19.679,27.194,30.829a1.481,1.481,0,0,1-1.594,2.4L220.224,312.25Z" transform="translate(3311.664 -6013.26)" fill="#7463e5"/>
    <path id="Trazado_128409" data-name="Trazado 128409" d="M193.405,219.251c10.833.529,22.086,2.442,30.3,6.071,4.349,34.127,8.857,71.108,10.47,81.251l22.5,2.559c-1.491-33.873-.719-59.9-2-84.2-.695-13.2-1.988-22.743-14.743-27.346-25.882-9.341-55.931-19.1-86.71-22.929l-24.216,11.195c-.352,11.467,4.044,26.42,11.555,33.4Z" transform="translate(3303.836 -6023.495)" fill="#1e0b4a"/>
    <path id="Trazado_128410" data-name="Trazado 128410" d="M183.022,177.6c17.78-18.006,46.487-50.119,56.468-58.1,3.765-3.009,8.8-3.279,12.363-2.4a12.547,12.547,0,0,1,9.1,7.4c4.841,11.323,13.524,42.55,26.688,79.16l-23.9,1.773-20.679-44.817s-28.023,45.912-37.137,57.268H154.71l-25.372-38.606Z" transform="translate(3303.865 -6028.471)" fill="#1e0b4a"/>
    <path id="Trazado_128411" data-name="Trazado 128411" d="M184.08,179.3c-2.585-4.728-5.88-8.467-6.03-12.183-.229-5.685.583-32.167,1.889-40.428,1.489-9.406.975-13.8-1.149-18.125-1.116-2.275-7.3-6.67-9.749-7.191-12.71-2.7-22.664-3.709-39.281-4.49-7.505-.353-13.684,7.266-12.634,15.29.6,4.607,7.4,29.427,10.715,50.3,1.562,14.689.573,27.137.931,30.976,0,0,36.618-10.138,55.309-14.151" transform="translate(3302.807 -6030.169)" fill="#25e0ac"/>
    <path id="Trazado_128412" data-name="Trazado 128412" d="M134.618,97.189c10.719,13.158,23.1,12.361,28.668,3.3a195.948,195.948,0,0,0-28.668-3.3" transform="translate(3304.318 -6030.142)" fill="#be6248"/>
    <path id="Trazado_128413" data-name="Trazado 128413" d="M153.283,181.474A167.614,167.614,0,0,1,206.97,189" transform="translate(3305.92 -6022.914)" fill="none" stroke="#403065" stroke-linecap="round" stroke-linejoin="round" stroke-width="0.829"/>
    <path id="Trazado_128414" data-name="Trazado 128414" d="M257.656,204.387a14.76,14.76,0,0,1,8.589,10.65" transform="translate(3314.876 -6020.944)" fill="none" stroke="#1e0b4a" stroke-linecap="round" stroke-linejoin="round" stroke-width="0.829"/>
    <path id="Trazado_128415" data-name="Trazado 128415" d="M201.255,128.907s-8.027,25.16-12.784,32.242c-4.179,6.223-14.17,1.926-13.914-6.517.151-4.939,16.2-20.124,16.992-27.474Z" transform="translate(3307.745 -6027.571)" fill="#be6248"/>
    <path id="Trazado_128416" data-name="Trazado 128416" d="M159.718,132.349h36.728a.46.46,0,0,0,.4-.224l23.935-39.833a.462.462,0,0,0-.4-.7H183.651a.462.462,0,0,0-.4.225L159.322,131.65a.461.461,0,0,0,.4.7" transform="translate(3306.433 -6030.623)" fill="#1e0b4a"/>
    <path id="Trazado_128417" data-name="Trazado 128417" d="M203.3,121.3s1.6-8.249,1.44-10.173c-.1-1.229-5.318-6.368-5.318-6.368s-.947,1.065-.02,3.4a26.16,26.16,0,0,0,1.853,3.446l-2.384,6.765Z" transform="translate(3309.832 -6029.493)" fill="#853534"/>
    <path id="Trazado_128418" data-name="Trazado 128418" d="M196.237,126.694a17.794,17.794,0,0,1-1.947,4.18s4.328,1.78,5.506.329c2.794-3.44,6.455-13.73,4.886-15.348a22.726,22.726,0,0,0-3.326-2.1l-11.5-4.983c-1.706,2.059,4.194,4.667,7.212,6.717.972.66,1.994,1.421,3.017,2.084l-12.448-5.735c-1.224,2.275,2.816,4.592,6.1,6.633a15.567,15.567,0,0,1,2.7,2.028l-8.335-3.722c-1.5,2.126,3.035,4.94,6.352,6.955a3.626,3.626,0,0,1,1.776,2.959" transform="translate(3308.849 -6029.148)" fill="#be6248"/>
    <path id="Trazado_128419" data-name="Trazado 128419" d="M112.772,174.422c3.031-8.754,9.482-25.417,13.156-36.276-4.607-.913-19.783-2.522-19.783-2.522s-1.63,5.66-9.567,29.98Z" transform="translate(3301.054 -6026.844)" fill="#853534"/>
    <path id="Trazado_128420" data-name="Trazado 128420" d="M94.142,211.736s13.016-24.707,19.211-38.618c6.749-15.155-12.73-12.8-15.822-9.7-3.12,10.269-6.892,26.69-12.067,42.57Z" transform="translate(3300.1 -6024.656)" fill="#be6248"/>
    <path id="Trazado_128421" data-name="Trazado 128421" d="M71.538,206.167l8.974,1.825c-.047-.077,4.26,4.707,4.26,4.707l.483,3.5a21.108,21.108,0,0,1-5.487-.754c-3.712-.678-11.566,1.439-13.836,1.467a1.452,1.452,0,0,1-1.228-.874,11.913,11.913,0,0,1-1.6.658c-2.22.771-2.6-.9-2.6-.9l3.474-2.28c-1.78.779-3.107,1.671-3.563,1.763-2.5.51-2.808-1.162-2.808-1.162Z" transform="translate(3297.71 -6020.791)" fill="#853534"/>
    <path id="Trazado_128422" data-name="Trazado 128422" d="M68.4,206.783c3.216-.914,14.433-.154,17.69-.3a34.56,34.56,0,0,0,1.844-4.046l8.678,5.749c-2.21,3.493-4.793,8.735-6.931,8.761-5.3.066-20.192.165-21.408-.08-2.962-.6-1.912-2.6-1.912-2.6,8.92-.579,9.934-1.874,11.471-2.519-2.269.059-6.587-1.241-7.879-1.144-1.733.13-9.331,6.195-11.146,6.414S56.728,216,56.728,216s9.329-8.555,11.668-9.221" transform="translate(3297.634 -6021.11)" fill="#be6248"/>
    <path id="Trazado_128423" data-name="Trazado 128423" d="M114.649,110.01c-2.313,6.214-9.261,28.948-9.261,28.948l22.36,7.138,9.378-48.871c-8.373-.678-16.721-2.679-22.477,12.785" transform="translate(3301.81 -6030.179)" fill="#25e0ac"/>
    <path id="Trazado_128424" data-name="Trazado 128424" d="M126.04,127.394a16.345,16.345,0,0,0,6.655,12.785" transform="translate(3303.582 -6027.55)" fill="none" stroke="#1e0b4a" stroke-linecap="round" stroke-linejoin="round" stroke-width="0.829"/>
    <line id="Línea_159" data-name="Línea 159" x2="121.527" transform="translate(3561.77 -5804.244)" fill="none" stroke="#1e0b4a" stroke-linecap="round" stroke-linejoin="round" stroke-width="1.052"/>
    <path id="Trazado_128425" data-name="Trazado 128425" d="M393.906,109.2H234.74L214.9,12.458l173.325-6.35Z" transform="translate(3311.208 -6037.958)" fill="#25e0ac"/>
    <line id="Línea_160" data-name="Línea 160" x2="132.368" transform="translate(3574.254 -5966.17)" fill="none" stroke="#fff" stroke-linecap="round" stroke-linejoin="round" stroke-width="8.98"/>
    <path id="Trazado_128426" data-name="Trazado 128426" d="M295.779,67.351a9.534,9.534,0,1,0,9.535-9.535,9.535,9.535,0,0,0-9.535,9.535" transform="translate(3318.148 -6033.521)" fill="#7463e5"/>
    <line id="Línea_161" data-name="Línea 161" x2="131.359" transform="translate(3574.254 -5991.34)" fill="none" stroke="#fff" stroke-linecap="round" stroke-linejoin="round" stroke-width="8.98"/>
    <path id="Trazado_128427" data-name="Trazado 128427" d="M264.481,44.171a9.534,9.534,0,1,0,9.535-9.535,9.535,9.535,0,0,0-9.535,9.535" transform="translate(3315.462 -6035.51)" fill="#1e0b4a"/>
    <path id="Trazado_128428" data-name="Trazado 128428" d="M402.695,345.707h22.94s2.74-7.263,4.664-11.608c4.282-9.672,6.167,11.608,6.167,11.608h3.461s-2.633-28.231-3.141-33.954l-19.171,4.091c1.256,12.686-15.649,21.189-32.62,27.158a1.33,1.33,0,0,0,.436,2.583Z" transform="translate(3325.727 -6011.73)" fill="#1e0b4a"/>
    <path id="Trazado_128429" data-name="Trazado 128429" d="M422.83,136.974c1.766,15.932,2.21,14.865,3.642,32.78,4.059,50.779,7.291,118.914,10.444,164.239l-23.2,2.582c-16.027-62.808-26.866-148.168-22.041-200.553Z" transform="translate(3326.278 -6026.81)" fill="#1e0b4a"/>
    <path id="Trazado_128430" data-name="Trazado 128430" d="M498.906,345.214H485.383a5.023,5.023,0,0,1-4.864-3.854c-.6-2.514-1.413-5.72-2.134-7.906-3.339-10.13-1.023,11.759-1.023,11.759h-3.078s-4.827-21.894-5.5-27.618l22.8-.092c4.274,13.443,7.607,19.079,20.6,24.751,1.895.827,1.328,2.817.005,2.817Z" transform="translate(3332.994 -6011.237)" fill="#1e0b4a"/>
    <path id="Trazado_128431" data-name="Trazado 128431" d="M365.436,107.8c-4.585-2.743-7.678-2.964-12.349-2.746,0,0-.623-1.318,1.025-1.981s9.555-.913,9.555-.913Z" transform="translate(3323.055 -6029.716)" fill="#ed9f78"/>
    <path id="Trazado_128432" data-name="Trazado 128432" d="M451.083,137.86c15.844,27.7,41.266,170.267,45.566,195.3l-26.563.093c-8.724-29.189-17.718-56.76-27.821-84.027-15.3-41.3-24.28-76.832-32.454-114.175Z" transform="translate(3327.933 -6026.894)" fill="#1e0b4a"/>
    <path id="Trazado_128433" data-name="Trazado 128433" d="M452.646,164.614a43.725,43.725,0,0,1-16.3-21.228" transform="translate(3330.21 -6026.178)" fill="none" stroke="#ffbc4a" stroke-linecap="round" stroke-linejoin="round" stroke-width="0.833"/>
    <path id="Trazado_128434" data-name="Trazado 128434" d="M391.582,143.568c.562-5.631.754-14.479,1.279-21.476,1.484-19.751,3.637-43.36,6.832-58.254,19.715-10.292,34.606-13.72,53.654-15.767l-2.5,15.843c-4.473,28.264-9.036,48.415,1.8,81.409Z" transform="translate(3326.369 -6034.357)" fill="#7463e5"/>
    <path id="Trazado_128435" data-name="Trazado 128435" d="M400.463,62.592c-5.114,2.946-11.448,10.722-14.742,23.4-1.638,6.31-3.109,23.968-3.109,23.968L398.257,120.8Z" transform="translate(3325.599 -6033.111)" fill="#7463e5"/>
    <path id="Trazado_128436" data-name="Trazado 128436" d="M428.67,39.542s10.729,5.4,11.258-2.117c.57-8.08-6.234-24.356-8.679-27.765-3.9-4.23-13.461,23.79-2.579,29.883" transform="translate(3329.119 -6037.69)" fill="#1e0b4a"/>
    <path id="Trazado_128437" data-name="Trazado 128437" d="M429.22,58.186l-8.2,1.046V34.613h8.2Z" transform="translate(3328.895 -6035.512)" fill="#fcc5a0"/>
    <path id="Trazado_128438" data-name="Trazado 128438" d="M428.894,36.384c-1.669,2.586-6.97,6.4-7.874,5.7v6.506c7.746-3.077,7.874-12.2,7.874-12.2" transform="translate(3328.895 -6035.36)" fill="#d66050"/>
    <path id="Trazado_128439" data-name="Trazado 128439" d="M419.173,45.937c7.138,1.992,15.143-8.077,15.287-21.346.083-7.571-1.456-13.822-4.074-15.817-4.707-3.585-14.238-.478-14.238-.478-1.527,6.331-2.34,36.143,3.025,37.641" transform="translate(3328.379 -6037.877)" fill="#fcc5a0"/>
    <path id="Trazado_128440" data-name="Trazado 128440" d="M418.29,21.151l-3.7.216s3.578-3.146,3.7-.216" transform="translate(3328.343 -6036.774)" fill="#1e0b4a"/>
    <path id="Trazado_128441" data-name="Trazado 128441" d="M417.032,23.6c0,.544-.284.986-.634.986s-.634-.442-.634-.986.283-.985.634-.985.634.441.634.985" transform="translate(3328.444 -6036.541)" fill="#1e0b4a"/>
    <path id="Trazado_128442" data-name="Trazado 128442" d="M421.7,21.151l5.015.216s-4.849-3.146-5.015-.216" transform="translate(3328.954 -6036.774)" fill="#1e0b4a"/>
    <path id="Trazado_128443" data-name="Trazado 128443" d="M422.769,23.6c0,.544.284.986.634.986s.634-.442.634-.986-.283-.985-.634-.985-.634.441-.634.985" transform="translate(3329.045 -6036.541)" fill="#1e0b4a"/>
    <path id="Trazado_128444" data-name="Trazado 128444" d="M419.126,21.25a10.713,10.713,0,0,1,.058,6.4,3.789,3.789,0,0,0-.193,1.062,1.105,1.105,0,0,0,1.18,1.171" transform="translate(3328.721 -6036.659)" fill="none" stroke="#d66050" stroke-linecap="round" stroke-linejoin="round" stroke-width="0.833"/>
    <path id="Trazado_128445" data-name="Trazado 128445" d="M419.1,33.59a5.2,5.2,0,0,0,4.159-3.118" transform="translate(3328.731 -6035.868)" fill="none" stroke="#d66050" stroke-linecap="round" stroke-linejoin="round" stroke-width="0.833"/>
    <path id="Trazado_128446" data-name="Trazado 128446" d="M430.79,22.822a5.8,5.8,0,0,1,1.274-2.874,2.015,2.015,0,0,1,2.086-.876,2.141,2.141,0,0,1,1.126,1.481,4.941,4.941,0,0,1-.813,4.344,4,4,0,0,1-3.816,1.483Z" transform="translate(3329.721 -6036.852)" fill="#fcc5a0"/>
    <path id="Trazado_128447" data-name="Trazado 128447" d="M432.164,23.818a4.337,4.337,0,0,1,.352-2.778,2.637,2.637,0,0,1,.8-.918" transform="translate(3329.844 -6036.755)" fill="none" stroke="#d66050" stroke-linecap="round" stroke-linejoin="round" stroke-width="0.833"/>
    <path id="Trazado_128448" data-name="Trazado 128448" d="M422.052,26.839a1.7,1.7,0,1,0,1.7-1.7,1.7,1.7,0,0,0-1.7,1.7" transform="translate(3328.984 -6036.325)" fill="#d66050"/>
    <path id="Trazado_128449" data-name="Trazado 128449" d="M415.1,13.682A25.106,25.106,0,0,0,435.006,24.03s.015-11.981-3.9-15.007c-5.835-4.513-14.019-2.859-14.969-.651a16.589,16.589,0,0,0-1.038,5.311" transform="translate(3328.387 -6037.953)" fill="#1e0b4a"/>
    <path id="Trazado_128450" data-name="Trazado 128450" d="M415.321,20.458s-3.758-6.53-3.382-8.21,4.155-1.794,4.155-1.794Z" transform="translate(3328.113 -6037.585)" fill="#1e0b4a"/>
    <path id="Trazado_128451" data-name="Trazado 128451" d="M448.95,9.552a8.79,8.79,0,0,1-8.884,9.552,10.4,10.4,0,0,1-10.221-9.552A8.79,8.79,0,0,1,438.729,0,10.4,10.4,0,0,1,448.95,9.552" transform="translate(3329.65 -6038.482)" fill="#1e0b4a"/>
    <path id="Trazado_128452" data-name="Trazado 128452" d="M436.858,49.957s-13.023,21.48-23.018,6.4a107.053,107.053,0,0,1,23.018-6.4" transform="translate(3328.279 -6034.195)" fill="#fcc5a0"/>
    <path id="Trazado_128453" data-name="Trazado 128453" d="M415.472,25.012a1.71,1.71,0,0,1,0,3.4,1.371,1.371,0,0,1-.361-.052c-.044-1.079-.074-2.172-.09-3.265a1.387,1.387,0,0,1,.451-.084" transform="translate(3328.38 -6036.336)" fill="#d66050"/>
    <path id="Trazado_128454" data-name="Trazado 128454" d="M450.062,48.081c6.493-.488,11.492.459,14.607,5.227,4.061,6.215,6.105,24.317,6.051,35.148-.047,9.6-.7,27.722-5.114,32.393-6.53,6.912-13.84,5.716-35.739-10.308Z" transform="translate(3329.654 -6034.366)" fill="#7463e5"/>
    <path id="Trazado_128455" data-name="Trazado 128455" d="M417.537,94.4s-3.933,3.314-7.03,4.256c-2.312.7-10.5,2.545-11.234,2.51-1.688-.08-2.011-1.13-1.564-1.408,1.679-1.042,7.823-3.04,8.2-3.6s1.469-4.065,3.836-4.315,7.79,2.557,7.79,2.557" transform="translate(3326.879 -6030.603)" fill="#ed9f78"/>
    <path id="Trazado_128456" data-name="Trazado 128456" d="M445.786,97.584s-25.093-9.324-28.4-9.325c-6.42,0-18.492,4.024-20.662,5.851a17.152,17.152,0,0,0-3.509,5.685c-.08.253.707.9,1.7-.043.579-.546,1.6-1.958,2.294-2.774a16.787,16.787,0,0,1,2.32-2.061.1.1,0,0,1,.15.115c-.291.672-.959,2.23-1.438,3.441a29.828,29.828,0,0,0-1.471,4.128c-.076.435.909.874,1.709-.33.752-1.132,3.2-5.88,4.691-6.981a9.41,9.41,0,0,1,1.454-.883.1.1,0,0,1,.134.119c-.4,1.146-2.254,6.542-2.7,8.487-.072.311.727,1.168,1.62.106s3.42-7.254,4.551-7.734,9.171.9,9.374,1,21.373,15.253,21.373,15.253Z" transform="translate(3326.508 -6030.909)" fill="#fcc5a0"/>
    <path id="Trazado_128457" data-name="Trazado 128457" d="M333.1,60.041h57a5.36,5.36,0,0,1,5.069,3.616l14.709,42.717H352.877a5.362,5.362,0,0,1-5.069-3.616Z" transform="translate(3321.35 -6033.33)" fill="#1e0b4a"/>
    <path id="Trazado_128458" data-name="Trazado 128458" d="M358.368,100.43h72.211a2.478,2.478,0,0,1,2.478,2.478H358.368Z" transform="translate(3323.519 -6029.864)" fill="#1e0b4a"/>
    <path id="Trazado_128459" data-name="Trazado 128459" d="M392.207,108.551c3.742,3.285,4.947,14.671-.37,15.92-5.071,1.192-16.4-11.808-18.558-14.694l6.153-7.034a27.764,27.764,0,0,1,12.775,5.808" transform="translate(3324.798 -6029.666)" fill="#fcc5a0"/>
    <path id="Trazado_128460" data-name="Trazado 128460" d="M374.686,110.859s-6.418-.776-8.318-1.227c-3.331-.788-7.562-10.546-9.477-18.232a1.515,1.515,0,0,1,2.022.717c.521,1.154,3.456,5.817,3.456,5.817l-2.694-7.648a1.739,1.739,0,0,1,2.24.678c.772,1.35,4.732,9.692,7.76,12.7-1.642-3.455-4.174-8.45-5.129-11.671a1.371,1.371,0,0,1,2.158.454c1.384,2.311,5.461,10.685,6.759,10.743.991.045,4.475.362,4.475.362l2.9.273Z" transform="translate(3323.392 -6030.749)" fill="#fcc5a0"/>
    <path id="Trazado_128461" data-name="Trazado 128461" d="M453.837,243.443a29.248,29.248,0,1,0,29.248-29.249,29.248,29.248,0,0,0-29.248,29.249" transform="translate(3331.711 -6020.102)" fill="#25e0ac"/>
    <rect id="Rectángulo_35943" data-name="Rectángulo 35943" width="15.852" height="15.853" transform="translate(3806.87 -5784.585)" fill="#1e0b4a"/>
    <path id="Trazado_128464" data-name="Trazado 128464" d="M105.1,248.91a22.091,22.091,0,1,0,29.355-10.694A22.091,22.091,0,0,0,105.1,248.91" transform="translate(3301.608 -6018.219)" fill="#25e0ac"/>
    <path id="Trazado_128465" data-name="Trazado 128465" d="M143.559,267.061a22.1,22.1,0,0,0-4.433-24.987L121.577,279.74a22.1,22.1,0,0,0,21.982-12.679" transform="translate(3303.199 -6017.71)" fill="#1e0b4a"/>
  </g>
</svg>
