<svg xmlns="http://www.w3.org/2000/svg" xmlns:xlink="http://www.w3.org/1999/xlink" width="425.5" height="166.088" viewBox="0 0 425.5 166.088">
  <defs>
    <filter id="Trazado_113277" x="318.551" y="84.35" width="106.949" height="81.738" filterUnits="userSpaceOnUse">
      <feOffset dy="3" input="SourceAlpha"/>
      <feGaussianBlur stdDeviation="8.5" result="blur"/>
      <feFlood flood-opacity="0.2"/>
      <feComposite operator="in" in2="blur"/>
      <feComposite in="SourceGraphic"/>
    </filter>
  </defs>
  <g id="Grupo_143207" data-name="Grupo 143207" transform="translate(0)">
    <g id="Grupo_134324" data-name="Grupo 134324" transform="translate(0 0)">
      <g id="Grupo_134139" data-name="Grupo 134139" transform="translate(0 21)">
        <rect id="Rectángulo_33902" data-name="Rectángulo 33902" width="388" height="116" rx="21" transform="translate(0 0)" fill="#fff"/>
        <g transform="matrix(1, 0, 0, 1, 0, -21)" filter="url(#Trazado_113277)">
          <path id="Trazado_113277-2" data-name="Trazado 113277" d="M14.567,55.437a15.051,15.051,0,0,0,14.9-14.708l.3-26.355A14.239,14.239,0,0,0,15.208,0,15.051,15.051,0,0,0,.306,14.709L0,41.065A14.239,14.239,0,0,0,14.567,55.437Z" transform="matrix(-0.02, 1, -1, -0.02, 400, 107.82)" fill="#25e0ac"/>
        </g>
      </g>
      <g id="Grupo_134142" data-name="Grupo 134142" transform="translate(63.605 0)">
        <path id="Trazado_127466" data-name="Trazado 127466" d="M631.734,25.8l-6.651,14.089,3.534-15.3a152.237,152.237,0,0,0-20.914-5.6s-2.27,5.462-4.415,12.29L613.3,37.04l-10.773-3.261c-2.5,8.514-4.4,18.29-1.57,22.253,4.3,6.017,29.243,4.431,29.243,4.431s14.932-20.046,12.231-26.929c-1.158-2.952-5.48-5.565-10.7-7.734" transform="translate(-543.11 -16.491)" fill="#d3f9ee"/>
        <path id="Trazado_127467" data-name="Trazado 127467" d="M470.576,124.091a.227.227,0,0,0,.109-.427c-14.233-7.763-33.66-19.5-45.387-31.3-21.48-21.626-35.049-54.492-35.183-54.822a.227.227,0,0,0-.421.172c.135.33,13.739,33.281,35.282,54.97,11.766,11.846,31.233,23.6,45.492,31.381a.226.226,0,0,0,.109.028" transform="translate(-323.449 -30.717)" fill="#126783"/>
        <path id="Trazado_127468" data-name="Trazado 127468" d="M692.012,164.781a.227.227,0,0,0,0-.455,69.188,69.188,0,0,1-22-4.084.227.227,0,0,0-.154.428,69.671,69.671,0,0,0,22.144,4.11Z" transform="translate(-608.539 -125.626)" fill="#126783"/>
        <path id="Trazado_127469" data-name="Trazado 127469" d="M710.5,119.534a.227.227,0,0,0,.041-.451,60.766,60.766,0,0,1-18.489-6.647.227.227,0,1,0-.221.4,61.2,61.2,0,0,0,18.627,6.7.216.216,0,0,0,.042,0" transform="translate(-632.026 -88.675)" fill="#126783"/>
        <path id="Trazado_127470" data-name="Trazado 127470" d="M651.346,129.861a.227.227,0,0,0,.179-.087,69.543,69.543,0,0,0,6.356-9.682.227.227,0,0,0-.4-.217,69.041,69.041,0,0,1-6.314,9.619.227.227,0,0,0,.179.368" transform="translate(-569.982 -94.353)" fill="#126783"/>
        <path id="Trazado_127471" data-name="Trazado 127471" d="M689.337,58.583a.227.227,0,0,0,.211-.143,53.767,53.767,0,0,0,2.633-8.651,55.8,55.8,0,0,0,1.15-8.6.227.227,0,0,0-.214-.24.224.224,0,0,0-.24.214,55.372,55.372,0,0,1-1.141,8.533,53.3,53.3,0,0,1-2.611,8.578.227.227,0,0,0,.211.312" transform="translate(-614.04 -33.458)" fill="#126783"/>
        <path id="Trazado_127472" data-name="Trazado 127472" d="M722.741,49.88a.227.227,0,0,0,.223-.184,34.386,34.386,0,0,0,.6-5.667c.026-1,.013-2.025-.038-3.06a.219.219,0,0,0-.238-.216.227.227,0,0,0-.216.238c.051,1.023.063,2.041.038,3.025a33.949,33.949,0,0,1-.595,5.592.227.227,0,0,0,.18.267.236.236,0,0,0,.044,0" transform="translate(-651.882 -33.309)" fill="#126783"/>
        <path id="Trazado_127473" data-name="Trazado 127473" d="M546.744,74.213l-6.2,6.182,4.78-7.414a85.5,85.5,0,0,0-9.989-6.942s-2.24,2.455-4.673,5.656l4.2,4.951-5.074-3.774c-2.94,4.026-5.807,8.831-5.065,11.464,1.126,4,14.615,7.908,14.615,7.908s11.708-7.754,11.591-11.907c-.051-1.781-1.837-3.985-4.184-6.125" transform="translate(-434.243 -52.847)" fill="#126783"/>
        <path id="Trazado_127474" data-name="Trazado 127474" d="M502.617,138.251a.227.227,0,0,0,.17-.378c-6.042-6.807-14.072-16.7-18.018-25.161-7.23-15.5-8.147-35.438-8.155-35.638a.227.227,0,1,0-.454.019c.008.2.929,20.228,8.2,35.811,3.97,8.512,12.029,18.44,18.09,25.27a.226.226,0,0,0,.17.076" transform="translate(-375.147 -61.205)" fill="#fed166"/>
        <path id="Trazado_127475" data-name="Trazado 127475" d="M589.9,144.377a.227.227,0,0,0,.081-.44,38.687,38.687,0,0,1-5.806-2.8,39.148,39.148,0,0,1-5.018-3.525.227.227,0,1,0-.29.35,39.242,39.242,0,0,0,10.951,6.4.227.227,0,0,0,.081.015" transform="translate(-485.764 -108.106)" fill="#fed166"/>
        <path id="Trazado_127476" data-name="Trazado 127476" d="M592.241,118.544a.227.227,0,0,0,.115-.424,33.967,33.967,0,0,1-4.634-3.249,34.315,34.315,0,0,1-3.85-3.763.227.227,0,1,0-.342.3,34.493,34.493,0,0,0,8.6,7.105.227.227,0,0,0,.114.031" transform="translate(-489.165 -87.61)" fill="#fed166"/>
        <path id="Trazado_127477" data-name="Trazado 127477" d="M539.281,127.39a.226.226,0,0,0,.12-.035,39.217,39.217,0,0,0,9.508-8.4.227.227,0,1,0-.352-.288,38.787,38.787,0,0,1-9.4,8.3.227.227,0,0,0,.121.42" transform="translate(-435.56 -93.449)" fill="#fed166"/>
        <path id="Trazado_127478" data-name="Trazado 127478" d="M563.136,98.11a.227.227,0,0,0,.17-.076,30.3,30.3,0,0,0,3.048-4.085,31.451,31.451,0,0,0,2.253-4.342.227.227,0,1,0-.419-.178,31.061,31.061,0,0,1-2.22,4.28,29.858,29.858,0,0,1-3,4.023.227.227,0,0,0,.17.378" transform="translate(-460.647 -70.813)" fill="#fed166"/>
        <path id="Trazado_127479" data-name="Trazado 127479" d="M580.878,87.72a.227.227,0,0,0,.2-.111,19.4,19.4,0,0,0,1.4-2.9c.2-.525.395-1.074.564-1.632a.227.227,0,1,0-.435-.132c-.166.546-.352,1.084-.553,1.6a18.994,18.994,0,0,1-1.371,2.828.227.227,0,0,0,.195.344" transform="translate(-479.107 -65.788)" fill="#fed166"/>
        <rect id="Rectángulo_35842" data-name="Rectángulo 35842" width="113.626" height="107.65" transform="translate(93.338 43.213)" fill="#d3f9ee"/>
        <g id="Grupo_134141" data-name="Grupo 134141" transform="translate(103.304)">
          <path id="Trazado_127496" data-name="Trazado 127496" d="M437.637,88.006c-8.568.729-11.92,3.971-13.327,6.493-2.734,4.9-1.158,8.268-3.759,14.694a23.674,23.674,0,0,1-8.885,10.479,25.919,25.919,0,0,0,20.731,7.176,69.446,69.446,0,0,1,5.24-38.843" transform="translate(-357.891 -69.82)" fill="#363e44"/>
          <g id="Grupo_134140" data-name="Grupo 134140">
            <path id="Trazado_127480" data-name="Trazado 127480" d="M212.829,398.68a75.068,75.068,0,0,0-11.391,16.858c-7.05,14.316-7.888,37.548-7.746,45.2h39.86c.147-3.265.293-16.418.44-19.684,3,1.586,14.513,17.912,16.177,19.663h47.408c-9.406-12.712-25.812-31.366-37.362-40.706.835-4.556,1.67-7.889,2.506-12.445l-49.892-8.885" transform="translate(-168.281 -309.874)" fill="#fed166"/>
            <path id="Trazado_127481" data-name="Trazado 127481" d="M21.27,257.553c12.447,2.313,48.779,6.79,46.731,22.022-1.694,12.6-36.884,6.679-49.393,5.183l2.662-27.205" transform="translate(101.007 -200.827)" fill="#e2a18d"/>
            <path id="Trazado_127482" data-name="Trazado 127482" d="M271.867,238.511l4.1,30.527-73.813-17.77,13.669-20.5-14.125-.911q.228-14.808.456-29.616L292.826,213l-1.367,31.439Z" transform="translate(-165.352 -156.541)" fill="#20bdfc"/>
            <path id="Trazado_127483" data-name="Trazado 127483" d="M544.553,220.81c-4.179.149-32.62-1.031-36.265,6.259-3.828,7.657,17.034,40.283,24.148,49.322a11.544,11.544,0,0,0,3.759,5.354c2.444,1.852,3.952,1.181,6.835,2.734,4.866,2.621,5.3,7.249,7.148,6.609,1.27-.439,1.135-3.147.37-5.584-.786-2.5-2.347-3.79-2.05-4.1.326-.341,1.743,1.173,3.678,2.893.9.8,2.016,4.513,3.84,4.17,1.454-.274,1.259-4.427-.794-7.416-1.452-2.115-3.857-2.758-3.649-3.178.156-.315,1.58.1,2.7.83,1.848,1.2,3.032,4.987,4.7,4.637,1.639-.342,1.4-3.966-.309-6.835-1.445-2.419-4.162-3.008-3.905-3.531.18-.368,1.451-.357,3.987.456,2.116.678,5.794,3.361,6.835,1.253.875-1.773-2.921-4.683-6.916-6.718-2.647-1.348-5.483-2.4-7.1-3.078a20.69,20.69,0,0,1,3.645-1.822c2.888-1.1,4.068-1.122,4.286-2.5.225-1.423-2.178-1.992-4.982-1.91-3.344.1-5.693,1.5-7.164,2.021l-8.771-15.947c1.595.114,4,.2,5.6.317.075-7.591.371-15.426.368-24.232" transform="translate(-507.823 -172.437)" fill="#e2a18d"/>
            <path id="Trazado_127484" data-name="Trazado 127484" d="M632.607,285.562a.227.227,0,0,0,.2-.333l-6.068-11.537a.227.227,0,1,0-.4.212l6.068,11.537a.228.228,0,0,0,.2.121" transform="translate(-601.88 -213.204)" fill="#363e44"/>
            <path id="Trazado_127485" data-name="Trazado 127485" d="M301.209,327.959a.213.213,0,0,0,.04,0,.227.227,0,0,0,.184-.264l-1.3-7.291a.227.227,0,0,0-.448.08l1.3,7.291a.227.227,0,0,0,.223.187" transform="translate(-196.236 -249.244)" fill="#fff"/>
            <path id="Trazado_127486" data-name="Trazado 127486" d="M290.081,325.935a.213.213,0,0,0,.04,0,.227.227,0,0,0,.184-.264l-1.3-7.292a.227.227,0,1,0-.448.08l1.3,7.292a.227.227,0,0,0,.223.187" transform="translate(-182.578 -247.679)" fill="#fff"/>
            <path id="Trazado_127487" data-name="Trazado 127487" d="M273.423,337.092a3.936,3.936,0,0,0,3.869-4.667l-4.065-21.5a1.834,1.834,0,0,0-2.143-1.462l-4.129.781a1.834,1.834,0,0,0-1.462,2.143l4.064,21.5a3.943,3.943,0,0,0,3.865,3.205m-2-27.2a1.381,1.381,0,0,1,1.353,1.124l4.065,21.5A3.481,3.481,0,0,1,270,333.8l-4.065-21.5a1.38,1.38,0,0,1,1.1-1.612l4.129-.781a1.414,1.414,0,0,1,.259-.024" transform="translate(-164.382 -240.915)" fill="#fff"/>
            <path id="Trazado_127488" data-name="Trazado 127488" d="M296.405,227.6l4.582-.866-4.711-24.914-4.582.866Zm4.051-1.228-3.689.7-4.542-24.02,3.689-.7Z" transform="translate(-193.971 -157.766)" fill="#fff"/>
            <path id="Trazado_127489" data-name="Trazado 127489" d="M70.624,308.117c-10.418,2.188-35.207,6.127-37.611,6.608-4.495.9-14.127,2.548-14.159,5.693a3.238,3.238,0,0,0,1.775,2.692,3.273,3.273,0,0,0-.653,3.561,3.424,3.424,0,0,0,2.472,1.852A2.746,2.746,0,0,0,21.4,331.1a2.876,2.876,0,0,0,3.162,2.143,3.214,3.214,0,0,0-.035,2.326,3.374,3.374,0,0,0,3.126,2c3.994-.8,10.423-1.017,18.1-1.752,18.021-1.725,25.984-3.251,34.539-5.66a14.358,14.358,0,0,0,10.265-11.745c-6.688-3.474-13.236-6.822-19.924-10.3" transform="translate(78.487 -239.898)" fill="#e2a18d"/>
            <path id="Trazado_127490" data-name="Trazado 127490" d="M103.3,309.524a.227.227,0,0,0,.046,0c2.127-.437,6.838-1.363,11.393-2.259s9.268-1.822,11.4-2.259a.227.227,0,1,0-.091-.445c-2.127.437-6.838,1.363-11.393,2.259s-9.268,1.822-11.4,2.26a.227.227,0,0,0,.045.45" transform="translate(23.572 -237.142)" fill="#363e44"/>
            <path id="Trazado_127491" data-name="Trazado 127491" d="M304.86,355.729a.227.227,0,0,0,.22-.286l-.524-1.948a.227.227,0,0,0-.439.118l.524,1.948a.227.227,0,0,0,.219.168" transform="translate(-200.893 -274.831)" fill="#363e44"/>
            <path id="Trazado_127492" data-name="Trazado 127492" d="M299.038,377.48a.231.231,0,0,0,.059-.008.227.227,0,0,0,.16-.279l-.524-1.948a.227.227,0,0,0-.439.118l.524,1.948a.227.227,0,0,0,.219.168" transform="translate(-193.748 -291.637)" fill="#363e44"/>
            <path id="Trazado_127493" data-name="Trazado 127493" d="M293.353,399.693a.232.232,0,0,0,.059-.008.227.227,0,0,0,.16-.279l-.524-1.948a.227.227,0,1,0-.439.118l.524,1.948a.228.228,0,0,0,.219.168" transform="translate(-186.771 -308.801)" fill="#363e44"/>
            <path id="Trazado_127494" data-name="Trazado 127494" d="M287.783,419.733a.23.23,0,0,0,.059-.008.227.227,0,0,0,.16-.279l-.524-1.948a.227.227,0,0,0-.439.118l.524,1.948a.227.227,0,0,0,.219.168" transform="translate(-179.934 -324.287)" fill="#363e44"/>
            <path id="Trazado_127495" data-name="Trazado 127495" d="M361.94,18.488A10.488,10.488,0,1,0,372.428,8,10.488,10.488,0,0,0,361.94,18.488" transform="translate(-291.867 -8)" fill="#363e44"/>
            <path id="Trazado_127497" data-name="Trazado 127497" d="M371.24,97.541c-.575-.056-6.093-.507-9.416,3.265-2.473,2.807-2.77,6.411-2.354,12.53.49,7.206,1.789,11.445,3.863,12.868,3.278,2.247,13.1-2.779,16.792-9.071a14.509,14.509,0,0,0-.456-14.884c-2.81-4.48-8.062-4.673-8.429-4.708" transform="translate(-290.318 -77.153)" fill="#e2a18d"/>
            <path id="Trazado_127498" data-name="Trazado 127498" d="M385.3,210.949h0a5.3,5.3,0,0,0,5.295-5.295v-4.992a5.295,5.295,0,0,0-10.59,0v4.992a5.3,5.3,0,0,0,5.3,5.295" transform="translate(-303.655 -152.777)" fill="#e2a18d"/>
            <path id="Trazado_127499" data-name="Trazado 127499" d="M368.723,194a9.021,9.021,0,0,0,1.954-.24c4.28-.959,10.346-4.743,13.088-9.415a.227.227,0,1,0-.392-.23c-2.68,4.565-8.61,8.264-12.8,9.2-1.67.374-2.963.292-3.739-.238a.228.228,0,1,0-.257.376,3.765,3.765,0,0,0,2.141.545" transform="translate(-293.78 -143.995)" fill="#363e44"/>
            <path id="Trazado_127500" data-name="Trazado 127500" d="M362,93.5c-2.21,4.982,5.581,10.151,12.436,8.2,4.009-1.139,7.752-5.3,6.93-7.828-1.415-4.351-17.1-5.49-19.365-.375" transform="translate(-290.36 -71.453)" fill="#363e44"/>
            <path id="Trazado_127501" data-name="Trazado 127501" d="M458.916,137.819a9.547,9.547,0,0,0,2.175,3.575c.333.332,2.371-2.973,1.9-3.138a9.568,9.568,0,0,0-4.077-.437" transform="translate(-394.058 -108.266)" fill="#fff"/>
            <path id="Trazado_127502" data-name="Trazado 127502" d="M445.156,145.1a8.977,8.977,0,0,1-5.466-1.108,6.724,6.724,0,0,1-1.132-.917,3.753,3.753,0,0,1,1.9-3.137,6.757,6.757,0,0,1,1.39.671,8.976,8.976,0,0,1,3.308,4.491" transform="translate(-371.523 -109.948)" fill="#363e44"/>
            <path id="Trazado_127503" data-name="Trazado 127503" d="M225.744,75.964a23.835,23.835,0,1,0,23.835-23.835,23.836,23.836,0,0,0-23.835,23.835" transform="translate(-151.407 -42.098)" fill="#e2a18d"/>
            <path id="Trazado_127504" data-name="Trazado 127504" d="M248.806,99.255a24.063,24.063,0,1,0-24.063-24.063,23.965,23.965,0,0,0,24.063,24.063m0-47.671a23.635,23.635,0,0,1,23.608,23.608A23.608,23.608,0,0,1,248.806,98.8a23.608,23.608,0,1,1,0-47.216" transform="translate(-150.633 -41.326)" fill="#fff"/>
            <path id="Trazado_127505" data-name="Trazado 127505" d="M283.865,229.678a20.02,20.02,0,0,0,12.6-4.4.227.227,0,1,0-.283-.356,19.8,19.8,0,0,1-21.057,2.27.227.227,0,0,0-.2.408,20.03,20.03,0,0,0,8.942,2.078" transform="translate(-185.693 -175.576)" fill="#fff"/>
            <path id="Trazado_127506" data-name="Trazado 127506" d="M389.9,101.458a.227.227,0,0,0,.219-.168,19.759,19.759,0,0,1,5.587-9.245.227.227,0,1,0-.311-.332,20.211,20.211,0,0,0-5.715,9.457.227.227,0,0,0,.219.287" transform="translate(-311.039 -72.637)" fill="#fff"/>
            <path id="Trazado_127507" data-name="Trazado 127507" d="M292.667,71.535a.227.227,0,0,0,.122-.035,19.813,19.813,0,0,1,18.956-1.236.227.227,0,1,0,.192-.412,20.267,20.267,0,0,0-19.392,1.264.227.227,0,0,0,.122.419" transform="translate(-205.221 -54.335)" fill="#fff"/>
            <path id="Trazado_127508" data-name="Trazado 127508" d="M246.855,193.159a.227.227,0,0,0,.163-.069,20.376,20.376,0,0,0,4.575-7.343.227.227,0,1,0-.428-.152,19.923,19.923,0,0,1-4.472,7.178.227.227,0,0,0,.163.386" transform="translate(-134.346 -145.109)" fill="#fff"/>
            <path id="Trazado_127509" data-name="Trazado 127509" d="M346.728,142.62a37.153,37.153,0,0,0,15.8,3.853c1.838,0-1.629-14.706-3.374-13.873a37.24,37.24,0,0,0-12.429,10.02" transform="translate(-268.546 -104.251)" fill="#fff"/>
            <path id="Trazado_127510" data-name="Trazado 127510" d="M245.065,123.983a26.361,26.361,0,0,1,5.678-1.98c10.923-2.413,21.461,3.255,21.461,3.255s-7.17,9.58-18.093,11.993a26.21,26.21,0,0,1-5.653.6,14.62,14.62,0,0,1-3.393-13.865" transform="translate(-154.468 -95.627)" fill="#363e44"/>
          </g>
        </g>
        <rect id="Rectángulo_35843" data-name="Rectángulo 35843" width="34.276" height="41.155" transform="translate(95.053 110.88)" fill="#32256b"/>
        <rect id="Rectángulo_35844" data-name="Rectángulo 35844" width="34.276" height="62.941" transform="translate(47.525 89.094)" fill="#32256b"/>
        <path id="Trazado_127511" data-name="Trazado 127511" d="M283.4,628.379a.227.227,0,0,0,.227-.227v-36.3a.227.227,0,1,0-.455,0v36.3a.227.227,0,0,0,.227.227" transform="translate(-182.842 -478.495)" fill="#776e42"/>
        <rect id="Rectángulo_35845" data-name="Rectángulo 35845" width="34.276" height="89.053" transform="translate(0 62.981)" fill="#32256b"/>
        <path id="Trazado_127512" data-name="Trazado 127512" d="M701.565,465.56a.227.227,0,0,0,.227-.227V381.138a.227.227,0,1,0-.455,0v84.194a.227.227,0,0,0,.227.227" transform="translate(-696.064 -315.676)" fill="#776e42"/>
        <path id="Trazado_127513" data-name="Trazado 127513" d="M491.7,553.9a.227.227,0,0,0,.227-.227V495.468a.227.227,0,0,0-.455,0v58.206a.227.227,0,0,0,.227.227" transform="translate(-438.491 -404.018)" fill="#776e42"/>
        <path id="Trazado_127514" data-name="Trazado 127514" d="M197.413,488.7a91.125,91.125,0,0,0,69.059-31.578.227.227,0,1,0-.344-.3A90.833,90.833,0,0,1,106.6,398.9a.227.227,0,0,0-.227-.224h0a.227.227,0,0,0-.224.23A91.277,91.277,0,0,0,197.413,488.7" transform="translate(-56.286 -329.403)" fill="#363e44"/>
        <path id="Trazado_127515" data-name="Trazado 127515" d="M796.113,394.759a.228.228,0,0,0,.209-.138l2.371-5.555,2.933,5.223a.227.227,0,0,0,.4-.223l-3.386-6.028-2.733,6.4a.228.228,0,0,0,.12.3.224.224,0,0,0,.089.018" transform="translate(-748.596 -321.183)" fill="#363e44"/>
      </g>
    </g>
  </g>
</svg>
