<svg xmlns="http://www.w3.org/2000/svg" xmlns:xlink="http://www.w3.org/1999/xlink" width="110" height="110" viewBox="0 0 110 110">
  <defs>
    <clipPath id="clip-path">
      <rect id="Rect치ngulo_45988" data-name="Rect치ngulo 45988" width="89.462" height="89.539" fill="none"/>
    </clipPath>
  </defs>
  <g id="Grupo_154314" data-name="Grupo 154314" transform="translate(-587.816 -1370.39)">
    <rect id="Rect치ngulo_35889" data-name="Rect치ngulo 35889" width="110" height="110" transform="translate(587.816 1370.39)" fill="none"/>
    <g id="Grupo_154318" data-name="Grupo 154318" transform="translate(597.816 1380.391)">
      <g id="Grupo_154318-2" data-name="Grupo 154318" transform="translate(0 0)" clip-path="url(#clip-path)">
        <path id="Trazado_196326" data-name="Trazado 196326" d="M41.812,79.644c-.078,1.487-.08,1.438-1.607,1.5a8.373,8.373,0,0,1-6.456-2.007,7.039,7.039,0,0,1-2.061-3.356.691.691,0,0,0-.811-.615c-3.068.029-6.137.037-9.205,0-.654-.008-.753.223-.733.787.038,1.115.017,2.231.01,3.348-.008,1.282-.534,1.832-1.785,1.832q-8.647.008-17.295,0c-1.2,0-1.744-.56-1.747-1.775C.115,76.068.128,72.782.113,69.5A2.015,2.015,0,0,1,.719,68a7.135,7.135,0,0,1,8.328-1.832V62.907c0-2.138-.017-4.277.012-6.415.007-.522-.133-.675-.662-.668-2.138.031-4.277.017-6.415.012-1.332,0-1.859-.526-1.86-1.851q-.007-5.579,0-11.158c0-1.339.519-1.865,1.843-1.867q8.554-.006,17.109,0c1.345,0,1.868.516,1.875,1.835.006,1.147.024,2.294-.009,3.44-.014.495.08.7.641.688,2.479-.032,4.959-.022,7.439,0a1.889,1.889,0,0,0,1.026-.348c4.505-2.707,9.025-5.391,13.513-8.126a2.044,2.044,0,0,1,2.4-.005c4.439,2.7,8.9,5.354,13.352,8.038a2.828,2.828,0,0,0,1.562.445c2.231-.029,4.464-.032,6.694,0a.864.864,0,0,0,.987-.688c.469-1.374,1.01-2.722,1.5-4.087a1.655,1.655,0,0,1,1.763-1.2c1.673.028,3.348-.014,5.021.02.529.011.665-.144.662-.666-.022-4.216,0-8.431-.017-12.646A2.949,2.949,0,0,0,74.444,24.6c-5.269-.015-10.539,0-15.807-.019-.5,0-.67.165-.815.612a7.383,7.383,0,0,1-7.4,5.353c-1.55,0-3.1-.054-4.648.022-.853.042-1.169-.212-1.026-1.048a2.039,2.039,0,0,0-.025-.461c-.487-1.272-.193-1.732,1.149-1.749,1.517-.018,3.033.007,4.551-.008a4.341,4.341,0,0,0,4.474-4.24,4.349,4.349,0,0,0-4.47-4.151c-.557-.007-1.115.01-1.672-.006-1.255-.038-1.533-.5-1.056-1.749.078-1.488.078-1.485,1.608-1.489a11.024,11.024,0,0,1,3.677.366,7.126,7.126,0,0,1,4.74,4.724c.246.768.587.88,1.28.877,5.021-.026,10.042-.016,15.063-.013,3.9,0,6.392,2.487,6.4,6.375,0,4.061.018,8.121-.017,12.181-.005.662.17.816.814.8,2.107-.045,4.215-.025,6.322-.014,1.463.007,2.117.9,1.617,2.25-1.415,3.822-2.857,7.635-4.284,11.454a1.634,1.634,0,0,1-1.685,1.178c-5.3-.011-10.6,0-15.9-.01a1.508,1.508,0,0,1-1.564-2.218c.431-1.215.894-2.42,1.38-3.729-2.357,0-4.61,0-6.862,0a1.762,1.762,0,0,0-.914.411c-4.459,2.665-8.923,5.322-13.36,8.024a2.1,2.1,0,0,1-2.475.019c-4.487-2.738-9.009-5.417-13.512-8.129a2.062,2.062,0,0,0-1.126-.331c-2.417.016-4.835.028-7.252-.007-.575-.008-.738.136-.713.714.048,1.176.025,2.356.012,3.533a1.518,1.518,0,0,1-1.713,1.716c-2.17.012-4.339.025-6.508-.011-.567-.009-.724.124-.718.708q.044,5.579,0,11.157a.774.774,0,0,0,.674.905,5.25,5.25,0,0,0,2.392,0c1.3-.27,2.6-.542,3.909-.8a1.522,1.522,0,0,1,1.966,1.594c0,.124-.007.248,0,.372.053.794-.351,1.88.159,2.3.485.4,1.532.133,2.332.135,2.448.007,4.9-.009,7.345.012.483,0,.739-.071.909-.609a7.359,7.359,0,0,1,7.3-5.351c1.581-.007,3.164.053,4.741-.022.853-.041,1.169.213,1.026,1.048a2,2,0,0,0,.025.461c.487,1.272.193,1.732-1.149,1.749-1.517.018-3.034-.007-4.551.008a4.2,4.2,0,1,0,0,8.392c.557.007,1.115-.01,1.672.006,1.255.038,1.533.5,1.056,1.749" transform="translate(-0.026 -3.628)"/>
        <path id="Trazado_196327" data-name="Trazado 196327" d="M40.075,25.4c-1.763.217-3.332-.542-4.95-1.014-3.584-1.045-7.155-2.135-10.728-3.215a5.262,5.262,0,0,0-1.55-.209c-7.275.008-14.55-.008-21.825.025-.776,0-1.031-.179-.942-.953.077-.672.034-1.359.043-2.039.473-.419,1.056-.3,1.6-.3q9.246-.014,18.492-.006c.278,0,.557.006.836,0,.952-.033,1.05-.117,1.056-1.095.013-2.633,0-5.266,0-7.9q0-1.858,0-3.717c0-1.557,0-1.561-1.525-1.562q-7.712,0-15.425,0c-1.27,0-2.54.008-3.81-.005a1.612,1.612,0,0,1-1.228-.3C.128,2.151-.221.933.237.314.672-.272,1.97.142,2.886.141q23.85-.017,47.7-.007a4.249,4.249,0,0,1,4.548,4.413,4.2,4.2,0,0,1-2.516,3.726q-4.724,2.36-9.448,4.717c-.3.15-.579.334-.869.5a.513.513,0,0,1-.156.226c-1.1.827-1.092.824-.589,2.1.577,1.471,1.242,2.91,1.719,4.417a4.119,4.119,0,0,1-1.051,4.2,3.249,3.249,0,0,1-2.15.953" transform="translate(0 0)"/>
        <path id="Trazado_196328" data-name="Trazado 196328" d="M59.731,83.475c1.956-.22,3.689.655,5.485,1.165,3.384.96,6.74,2.018,10.106,3.039a5.54,5.54,0,0,0,1.64.236c7.307-.011,14.613,0,21.92-.025.7,0,.92.162.849.858s-.033,1.421-.043,2.133c-.473.418-1.056.3-1.6.3q-9.246.014-18.493.006c-.278,0-.557-.006-.836,0-.952.033-1.05.117-1.056,1.1-.013,2.571,0,5.142,0,7.712q0,1.951,0,3.9c0,1.558,0,1.561,1.525,1.562q7.712,0,15.425,0c1.27,0,2.54-.008,3.809.005a1.613,1.613,0,0,1,1.229.3c0,.956.346,2.171-.112,2.791-.434.588-1.73.174-2.645.174q-23.871.017-47.743.007a4.245,4.245,0,0,1-4.512-4.441,4.2,4.2,0,0,1,2.535-3.709q4.888-2.44,9.775-4.88c.189-.094.362-.22.542-.33a.506.506,0,0,1,.151-.228c1.083-.835,1.076-.832.574-2.108-.578-1.469-1.244-2.907-1.719-4.413a4.118,4.118,0,0,1,1.051-4.2,3.246,3.246,0,0,1,2.147-.954" transform="translate(-10.349 -19.332)"/>
        <path id="Trazado_196329" data-name="Trazado 196329" d="M.16,4.039c7.128,0,14.258.012,21.386-.013.709,0,.929.151.922.9q-.059,6.554,0,13.11c.007.749-.214.9-.922.9-7.128-.025-14.258-.014-21.386-.013V4.039" transform="translate(-0.037 -0.933)" fill="#d3f9ee"/>
        <path id="Trazado_196330" data-name="Trazado 196330" d="M109.551,108.006c-7.128,0-14.258-.012-21.386.013-.709,0-.929-.151-.922-.9q.059-6.554,0-13.11c-.007-.749.214-.9.922-.9,7.128.025,14.258.014,21.386.013v14.884" transform="translate(-20.213 -21.572)" fill="#d3f9ee"/>
        <path id="Trazado_196331" data-name="Trazado 196331" d="M52.16,29.466c2.973-1.162,3.805-3.109,2.61-6.112-.549-1.377-1.067-2.767-1.672-4.12-.314-.7-.287-1.14.522-1.361a6.835,6.835,0,0,0,.767-.31l5.374.03c.078,1.488.078,1.476,1.62,1.493a9.454,9.454,0,0,1,2.583.164A4.455,4.455,0,0,1,62.955,28c-1.7.045-3.407.059-5.106-.01-.841-.034-1.188.2-1.039,1.048a2,2,0,0,1-.025.461l-4.624-.031" transform="translate(-12.085 -4.069)" fill="#fed166"/>
        <path id="Trazado_196332" data-name="Trazado 196332" d="M59.726,83.476c-2.966,1.159-3.8,3.112-2.608,6.1.537,1.346,1.02,2.72,1.644,4.024.413.864.2,1.285-.641,1.544-.2.063-.4.154-.6.231l-5.393-.03c-.078-1.488-.078-1.475-1.621-1.493a9.7,9.7,0,0,1-2.492-.144,4.454,4.454,0,0,1,1.01-8.772c1.672-.028,3.345-.055,5.015.015.841.035,1.188-.2,1.039-1.048a2,2,0,0,1,.025-.461l4.621.031" transform="translate(-10.345 -19.333)" fill="#fed166"/>
        <path id="Trazado_196333" data-name="Trazado 196333" d="M66.659,56.136c-3.517,2.109-6.929,4.053-10.222,6.182a2.838,2.838,0,0,1-3.608-.029c-3.266-2.121-6.657-4.05-9.99-6.05.045-.348.33-.388.526-.506q5.29-3.185,10.585-6.361c.371-.223.678-.456,1.173-.156,3.781,2.293,7.582,4.554,11.536,6.92" transform="translate(-9.925 -11.37)" fill="#25e0ac"/>
        <path id="Trazado_196334" data-name="Trazado 196334" d="M11.524,52.457c2.2,0,4.395.022,6.591-.014.605-.01.778.155.769.765q-.052,3.713,0,7.426c.008.614-.171.766-.771.763q-6.684-.037-13.368,0c-.6,0-.778-.155-.769-.765q.052-3.712,0-7.427c-.009-.614.17-.772.771-.763,2.258.035,4.518.014,6.777.014" transform="translate(-0.921 -12.15)" fill="#25e0ac"/>
        <path id="Trazado_196335" data-name="Trazado 196335" d="M106.608,52.457c-1.112,2.95-2.175,5.749-3.212,8.556-.131.355-.346.373-.636.373-4.181,0-8.362,0-12.674,0,.323-.88.615-1.68.913-2.479q1.084-2.91,2.173-5.82c.13-.347.225-.645.74-.642,4.181.025,8.363.014,12.7.014" transform="translate(-20.872 -12.15)" fill="#25e0ac"/>
        <path id="Trazado_196336" data-name="Trazado 196336" d="M11.4,94.089c-2.228,0-4.456-.018-6.684.012-.559.008-.744-.131-.735-.718.034-2.351.026-4.7,0-7.055a1.174,1.174,0,0,1,.509-1.014,3.839,3.839,0,0,1,4.962.051,7.84,7.84,0,0,0,7.967,1.9c1.435-.373,1.451-.313,1.451,1.174,0,1.578-.034,3.157.015,4.734.022.7-.134.956-.9.936-2.2-.057-4.393-.02-6.591-.02" transform="translate(-0.921 -19.562)" fill="#25e0ac"/>
        <path id="Trazado_196337" data-name="Trazado 196337" d="M46.063,4.043c3.994,0,7.989.011,11.983-.008.814,0,1.53.123,1.733,1.023.194.861-.4,1.268-1.082,1.609q-6.264,3.117-12.513,6.261c-1.288.645-1.494,1.179-.956,2.529q1.217,3.054,2.445,6.1c.2.495.423,1-.017,1.474a1.267,1.267,0,0,1-1.457.216q-6.3-1.9-12.6-3.765a.667.667,0,0,1-.572-.771c.018-4.676.027-9.351-.007-14.027,0-.676.313-.646.781-.645q6.131.014,12.262.005" transform="translate(-7.65 -0.935)" fill="#fecdb5"/>
        <path id="Trazado_196338" data-name="Trazado 196338" d="M62.333,106.664c-4.026,0-8.052-.01-12.078.008-.786,0-1.457-.148-1.67-.987-.219-.86.35-1.285,1.04-1.627q6.181-3.069,12.35-6.16c1.548-.774,1.719-1.24,1.068-2.868q-1.169-2.923-2.344-5.843c-.209-.522-.463-1.05.036-1.548.44-.441.94-.325,1.47-.165,4.137,1.25,8.276,2.5,12.425,3.711a.814.814,0,0,1,.7.955c-.022,4.583-.028,9.167.005,13.75,0,.683-.214.792-.833.788-4.057-.028-8.114-.015-12.171-.015" transform="translate(-11.245 -20.234)" fill="#fecdb5"/>
      </g>
    </g>
  </g>
</svg>
