<?xml version="1.0" encoding="utf-8"?>
<!-- Generator: Adobe Illustrator 26.2.1, SVG Export Plug-In . SVG Version: 6.00 Build 0)  -->
<svg version="1.1" id="Layer_1" xmlns="http://www.w3.org/2000/svg" xmlns:xlink="http://www.w3.org/1999/xlink" x="0px" y="0px"
	 viewBox="0 0 488.1 457" style="enable-background:new 0 0 488.1 457;" xml:space="preserve">
<style type="text/css">
	.st0{fill:none;stroke:#126783;stroke-width:3;}
	.st1{fill:#CB9A27;}
	.st2{fill:#FFC02E;}
	.st3{fill:#12263F;}
	.st4{fill:#B5D5E0;}
	.st5{fill:#77CFED;}
	.st6{fill:#FDC02E;}
	.st7{enable-background:new    ;}
	.st8{fill:#80FAD7;}
	.st9{fill:#20BDFC;}
	.st10{fill:#126783;}
</style>
<g id="Grupo_154611" transform="translate(5894.5 7585.5)">
	<path id="Trazado_198006" class="st0" d="M-5812-7529v360"/>
	<path id="Trazado_198007" class="st1" d="M-5812.5-7585.5c23.2,0,42,18.8,42,42s-18.8,42-42,42s-42-18.8-42-42
		S-5835.7-7585.5-5812.5-7585.5z"/>
	<path id="Trazado_198008" class="st2" d="M-5812.5-7188.5c16.6,0,30,13.4,30,30s-13.4,30-30,30s-30-13.4-30-30
		S-5829.1-7188.5-5812.5-7188.5z"/>
	<path id="Trazado_198009" class="st3" d="M-5835-7554.7h-3v8.2h-1.2v-8.2h-3v-1h7.1v1H-5835z M-5830.9-7552.3c-0.2,0-0.4,0-0.6,0
		c-0.7-0.1-1.3,0.3-1.6,1v4.9h-1.2v-6.9h1.1v0.8c0.3-0.6,1-0.9,1.6-0.9c0.2,0,0.4,0,0.5,0.1v1H-5830.9z M-5825.9-7546.5
		c-0.1-0.2-0.1-0.5-0.2-0.7c-0.5,0.5-1.2,0.9-2,0.9c-0.6,0-1.2-0.2-1.7-0.6c-0.4-0.4-0.7-0.9-0.7-1.5c0-0.7,0.3-1.3,0.8-1.7
		c0.7-0.4,1.5-0.6,2.3-0.6h1.1v-0.5c0-0.4-0.1-0.7-0.4-1s-0.7-0.4-1.1-0.4s-0.7,0.1-1.1,0.3c-0.3,0.2-0.4,0.5-0.4,0.8h-1.2
		c0-0.4,0.1-0.7,0.4-1s0.6-0.6,1-0.8c0.4-0.2,0.9-0.3,1.4-0.3c0.7,0,1.3,0.2,1.9,0.6c0.5,0.4,0.7,1,0.7,1.6v3.2c0,0.5,0.1,1,0.2,1.5
		v0.1h-1V-7546.5z M-5827.8-7547.4c0.4,0,0.7-0.1,1-0.3c0.3-0.2,0.6-0.4,0.7-0.7v-1.4h-0.9c-1.4,0-2.2,0.4-2.2,1.3
		c0,0.3,0.1,0.6,0.4,0.9C-5828.5-7547.5-5828.1-7547.4-5827.8-7547.4z M-5817.2-7549.9c0,0.9-0.2,1.8-0.7,2.5c-0.4,0.6-1.2,1-1.9,1
		c-0.8,0-1.5-0.3-2-0.9l-0.1,0.8h-1.1v-9.8h1.2v3.6c0.5-0.6,1.2-0.9,2-0.9s1.5,0.3,2,0.9c0.5,0.8,0.8,1.7,0.7,2.6v0.2H-5817.2z
		 M-5818.4-7550c0-0.7-0.1-1.3-0.5-1.9c-0.3-0.4-0.8-0.7-1.3-0.7c-0.7,0-1.4,0.4-1.7,1.1v3c0.3,0.7,1,1.1,1.7,1.1
		c0.5,0,1-0.2,1.3-0.7C-5818.5-7548.6-5818.3-7549.3-5818.4-7550L-5818.4-7550z M-5811.5-7546.5c-0.1-0.2-0.1-0.5-0.2-0.7
		c-0.5,0.5-1.2,0.9-2,0.9c-0.6,0-1.2-0.2-1.7-0.6c-0.4-0.4-0.7-0.9-0.7-1.5c0-0.7,0.3-1.3,0.8-1.7c0.7-0.4,1.5-0.6,2.3-0.6h1.1v-0.5
		c0-0.4-0.1-0.7-0.4-1s-0.7-0.4-1.1-0.4s-0.7,0.1-1.1,0.3c-0.3,0.2-0.4,0.5-0.4,0.8h-1.2c0-0.4,0.1-0.7,0.4-1s0.6-0.6,1-0.8
		c0.4-0.2,0.9-0.3,1.4-0.3c0.7,0,1.3,0.2,1.9,0.6c0.5,0.4,0.7,1,0.7,1.6v3.2c0,0.5,0.1,1,0.2,1.5v0.1h-1V-7546.5z M-5813.4-7547.4
		c0.4,0,0.7-0.1,1-0.3c0.3-0.2,0.6-0.4,0.7-0.7v-1.4h-0.9c-1.4,0-2.2,0.4-2.2,1.3c0,0.3,0.1,0.6,0.4,0.9
		C-5814.1-7547.5-5813.8-7547.4-5813.4-7547.4z M-5807.4-7553.4v7.7c0,1.3-0.6,2-1.8,2c-0.2,0-0.5,0-0.7-0.1v-0.9
		c0.2,0,0.4,0.1,0.5,0.1c0.2,0,0.4-0.1,0.6-0.2c0.2-0.2,0.2-0.5,0.2-0.7v-7.7L-5807.4-7553.4z M-5808.7-7555.2
		c0-0.2,0.1-0.3,0.2-0.5c0.1-0.1,0.3-0.2,0.5-0.2s0.4,0.1,0.5,0.2s0.2,0.3,0.2,0.5s-0.1,0.3-0.2,0.5c-0.1,0.1-0.3,0.2-0.5,0.2
		s-0.4-0.1-0.5-0.2C-5808.7-7554.8-5808.7-7555-5808.7-7555.2z M-5805.9-7550c0-0.6,0.1-1.2,0.4-1.8c0.2-0.5,0.6-0.9,1.1-1.2
		c0.5-0.3,1-0.5,1.6-0.4c0.9,0,1.7,0.3,2.3,1c0.6,0.7,0.9,1.6,0.9,2.6v0.1c0,0.6-0.1,1.2-0.4,1.8c-0.2,0.5-0.6,0.9-1.1,1.2
		c-0.5,0.3-1.1,0.5-1.6,0.4c-0.9,0-1.7-0.3-2.3-1C-5805.6-7548.1-5805.9-7549-5805.9-7550L-5805.9-7550z M-5804.7-7549.9
		c0,0.7,0.2,1.3,0.5,1.8c0.6,0.8,1.7,0.9,2.5,0.3c0.1-0.1,0.2-0.2,0.3-0.3c0.4-0.6,0.6-1.3,0.5-2c0-0.7-0.2-1.3-0.5-1.8
		s-0.9-0.7-1.4-0.7c-0.6,0-1.1,0.2-1.4,0.7C-5804.5-7551.3-5804.7-7550.6-5804.7-7549.9L-5804.7-7549.9z M-5795.2-7550
		c0-0.9,0.2-1.8,0.7-2.5c0.9-1.1,2.5-1.3,3.6-0.4c0.1,0.1,0.2,0.2,0.3,0.3v-3.6h1.2v9.8h-1.1l-0.1-0.7c-0.5,0.6-1.2,0.9-2,0.9
		s-1.5-0.4-1.9-1C-5795-7548.1-5795.2-7549-5795.2-7550L-5795.2-7550z M-5794-7549.9c0,0.6,0.1,1.3,0.5,1.8c0.3,0.4,0.8,0.7,1.3,0.7
		c0.7,0,1.3-0.4,1.6-1v-3.2c-0.3-0.6-0.9-1-1.6-1c-0.5,0-1,0.2-1.3,0.7C-5793.9-7551.2-5794.1-7550.6-5794-7549.9L-5794-7549.9z
		 M-5784.7-7546.4c-0.9,0-1.7-0.3-2.3-0.9c-0.6-0.7-0.9-1.6-0.9-2.5v-0.2c0-0.6,0.1-1.3,0.4-1.8c0.2-0.5,0.6-0.9,1.1-1.3
		c0.5-0.3,1-0.5,1.5-0.5c0.8,0,1.6,0.3,2.1,0.9c0.5,0.7,0.8,1.6,0.7,2.5v0.5h-4.7c0,0.6,0.2,1.2,0.6,1.6s0.9,0.6,1.4,0.6
		c0.4,0,0.7-0.1,1.1-0.3c0.3-0.2,0.5-0.4,0.8-0.7l0.7,0.6C-5782.7-7546.8-5783.7-7546.3-5784.7-7546.4L-5784.7-7546.4z
		 M-5784.9-7552.5c-0.5,0-0.9,0.2-1.2,0.5c-0.3,0.4-0.6,0.9-0.6,1.5h3.4v-0.1c0-0.5-0.2-1-0.5-1.4
		C-5784-7552.4-5784.4-7552.5-5784.9-7552.5z M-5824.8-7535.2h-2.2v3.7h-1.2v-9.2h3.1c0.9-0.1,1.7,0.2,2.4,0.7
		c0.6,0.5,0.9,1.3,0.8,2.1c0,0.5-0.2,1.1-0.5,1.5s-0.8,0.8-1.3,1l2.2,3.9v0.1h-1.3L-5824.8-7535.2z M-5827-7536.2h1.9
		c0.5,0,1-0.1,1.4-0.5c0.4-0.3,0.6-0.8,0.5-1.3c0-0.5-0.2-1-0.5-1.3c-0.4-0.3-0.9-0.5-1.5-0.5h-1.9L-5827-7536.2z M-5816.8-7535.2
		h-2.2v3.7h-1.2v-9.2h3.1c0.9-0.1,1.7,0.2,2.4,0.7c0.6,0.5,0.9,1.3,0.8,2.1c0,0.5-0.2,1.1-0.5,1.5s-0.8,0.8-1.3,1l2.2,3.9v0.1h-1.3
		L-5816.8-7535.2z M-5819-7536.2h1.9c0.5,0,1-0.1,1.4-0.5c0.4-0.3,0.6-0.8,0.5-1.3c0-0.5-0.2-1-0.5-1.3c-0.4-0.3-0.9-0.5-1.5-0.5
		h-1.9L-5819-7536.2z M-5805.1-7531.5h-1.2v-4.3h-4.7v4.3h-1.2v-9.2h1.2v4h4.7v-4h1.2V-7531.5z M-5795.8-7531.5h-1.2v-4.3h-4.7v4.3
		h-1.2v-9.2h1.2v4h4.7v-4h1.2V-7531.5z"/>
	<path id="Trazado_198010" class="st4" d="M-5867.5-7480.5h110v58h-110V-7480.5z"/>
	<path id="Trazado_198011" class="st5" d="M-5716.5-7431.5h150v34h-150V-7431.5z"/>
	<path id="Trazado_198012" class="st5" d="M-5854.5-7322.5h84v44h-84V-7322.5z"/>
	<path id="Trazado_198013" class="st3" d="M-5829.5-7462.7h-3v8.2h-1.2v-8.2h-3v-1h7.1v1H-5829.5z M-5826.1-7454.4
		c-0.9,0-1.7-0.3-2.3-0.9c-0.6-0.7-0.9-1.6-0.9-2.5v-0.2c0-0.6,0.1-1.3,0.4-1.8c0.2-0.5,0.6-0.9,1.1-1.3c0.4-0.3,1-0.5,1.5-0.5
		c0.8,0,1.6,0.3,2.1,0.9c0.5,0.7,0.8,1.6,0.7,2.5v0.5h-4.7c0,0.6,0.2,1.2,0.6,1.6s0.9,0.6,1.4,0.6c0.4,0,0.7-0.1,1.1-0.3
		c0.3-0.2,0.5-0.4,0.8-0.7l0.7,0.6C-5824.1-7454.8-5825.1-7454.3-5826.1-7454.4L-5826.1-7454.4z M-5826.2-7460.5
		c-0.5,0-0.9,0.2-1.2,0.5c-0.3,0.4-0.6,0.9-0.6,1.5h3.4v-0.1c0-0.5-0.2-1-0.5-1.4C-5825.4-7460.4-5825.8-7460.5-5826.2-7460.5z
		 M-5821-7461.4v0.8c0.5-0.6,1.3-0.9,2-0.9c0.8-0.1,1.6,0.4,2,1.1c0.2-0.3,0.5-0.6,0.9-0.8c0.4-0.2,0.8-0.3,1.3-0.3
		c1.5,0,2.3,0.8,2.3,2.4v4.6h-1.2v-4.5c0-0.4-0.1-0.8-0.3-1.1c-0.3-0.3-0.7-0.4-1.1-0.4s-0.8,0.1-1.1,0.4c-0.3,0.3-0.5,0.6-0.5,1.1
		v4.6h-1.2v-4.5c0.1-0.7-0.4-1.4-1.1-1.5c-0.1,0-0.2,0-0.4,0c-0.7-0.1-1.3,0.3-1.6,1v5h-1.2v-6.9h1.2V-7461.4z M-5806.4-7454.5
		c-0.1-0.2-0.1-0.5-0.2-0.7c-0.5,0.5-1.2,0.9-2,0.9c-0.6,0-1.2-0.2-1.7-0.6c-0.4-0.4-0.7-0.9-0.7-1.5c0-0.7,0.3-1.3,0.8-1.7
		c0.7-0.4,1.5-0.6,2.3-0.6h1.1v-0.5c0-0.4-0.1-0.7-0.4-1s-0.7-0.4-1.1-0.4s-0.7,0.1-1.1,0.3c-0.3,0.2-0.4,0.5-0.4,0.8h-1.2
		c0-0.4,0.1-0.7,0.4-1s0.6-0.6,1-0.8c0.4-0.2,0.9-0.3,1.4-0.3c0.7,0,1.3,0.2,1.9,0.6c0.5,0.4,0.7,1,0.7,1.6v3.2c0,0.5,0.1,1,0.2,1.5
		v0.1h-1V-7454.5z M-5808.4-7455.4c0.4,0,0.7-0.1,1-0.3c0.3-0.2,0.6-0.4,0.7-0.7v-1.4h-0.9c-1.4,0-2.2,0.4-2.2,1.3
		c0,0.3,0.1,0.6,0.4,0.9C-5809-7455.5-5808.7-7455.4-5808.4-7455.4z M-5800.7-7458c0-0.9,0.2-1.8,0.7-2.5c0.9-1.1,2.5-1.3,3.6-0.4
		c0.1,0.1,0.2,0.2,0.3,0.3v-3.6h1.2v9.8h-1.1l-0.1-0.7c-0.5,0.6-1.2,0.9-2,0.9s-1.5-0.4-1.9-1c-0.5-0.7-0.8-1.6-0.8-2.5
		L-5800.7-7458L-5800.7-7458z M-5799.5-7457.9c0,0.6,0.1,1.3,0.5,1.8c0.3,0.4,0.8,0.7,1.3,0.7c0.7,0,1.3-0.4,1.6-1v-3.2
		c-0.3-0.6-0.9-1-1.6-1c-0.5,0-1,0.2-1.3,0.7C-5799.4-7459.2-5799.5-7458.6-5799.5-7457.9L-5799.5-7457.9z M-5790.2-7454.4
		c-0.9,0-1.7-0.3-2.3-0.9c-0.6-0.7-0.9-1.6-0.9-2.5v-0.2c0-0.6,0.1-1.3,0.4-1.8c0.2-0.5,0.6-0.9,1.1-1.3c0.5-0.3,1-0.5,1.5-0.5
		c0.8,0,1.6,0.3,2.1,0.9c0.5,0.7,0.8,1.6,0.7,2.5v0.5h-4.7c0,0.6,0.2,1.2,0.6,1.6s0.9,0.6,1.4,0.6c0.4,0,0.7-0.1,1.1-0.3
		c0.3-0.2,0.5-0.4,0.8-0.7l0.7,0.6C-5788.2-7454.8-5789.1-7454.3-5790.2-7454.4L-5790.2-7454.4z M-5790.3-7460.5
		c-0.5,0-0.9,0.2-1.2,0.5c-0.3,0.4-0.6,0.9-0.6,1.5h3.4v-0.1c0-0.5-0.2-1-0.5-1.4S-5789.9-7460.5-5790.3-7460.5z M-5848.1-7438.5
		h-1.2v-6.9h1.2V-7438.5z M-5849.3-7447.2c0-0.2,0.1-0.3,0.2-0.5c0.1-0.1,0.3-0.2,0.5-0.2s0.4,0.1,0.5,0.2s0.2,0.3,0.2,0.5
		s-0.1,0.3-0.2,0.5c-0.1,0.1-0.3,0.2-0.5,0.2s-0.4-0.1-0.5-0.2C-5849.3-7446.8-5849.3-7447-5849.3-7447.2L-5849.3-7447.2z
		 M-5845.1-7445.4v0.9c0.5-0.6,1.2-1,2.1-1c1.5,0,2.2,0.8,2.2,2.5v4.5h-1.2v-4.5c0-0.4-0.1-0.8-0.3-1.1c-0.3-0.3-0.7-0.4-1-0.4
		c-0.4,0-0.7,0.1-1,0.3c-0.3,0.2-0.5,0.5-0.7,0.8v4.9h-1.2v-6.9L-5845.1-7445.4L-5845.1-7445.4z M-5836.7-7440.1l1.7-5.3h1.2
		l-2.5,6.9h-0.9l-2.5-6.9h1.2L-5836.7-7440.1z M-5829.9-7438.4c-0.9,0-1.7-0.3-2.3-0.9c-0.6-0.7-0.9-1.6-0.9-2.5v-0.2
		c0-0.6,0.1-1.3,0.4-1.8c0.2-0.5,0.6-0.9,1.1-1.3c0.5-0.3,1-0.5,1.5-0.5c0.8,0,1.6,0.3,2.1,0.9c0.5,0.7,0.8,1.6,0.7,2.5v0.5h-4.7
		c0,0.6,0.2,1.2,0.6,1.6s0.9,0.6,1.4,0.6c0.4,0,0.7-0.1,1.1-0.3c0.3-0.2,0.5-0.4,0.8-0.7l0.7,0.6
		C-5827.9-7438.8-5828.9-7438.3-5829.9-7438.4L-5829.9-7438.4z M-5830.1-7444.5c-0.5,0-0.9,0.2-1.2,0.5c-0.3,0.4-0.6,0.9-0.6,1.5
		h3.4v-0.1c0-0.5-0.2-1-0.5-1.4C-5829.2-7444.4-5829.6-7444.5-5830.1-7444.5L-5830.1-7444.5z M-5821.9-7440.3c0-0.3-0.1-0.6-0.4-0.7
		c-0.4-0.2-0.8-0.4-1.2-0.5c-0.5-0.1-1-0.2-1.4-0.5c-0.3-0.1-0.6-0.4-0.8-0.6c-0.2-0.3-0.3-0.6-0.3-0.9c0-0.6,0.3-1.1,0.7-1.4
		c0.5-0.4,1.2-0.6,1.8-0.6c0.7,0,1.4,0.2,1.9,0.6s0.7,0.9,0.7,1.5h-1.2c0-0.3-0.2-0.6-0.4-0.8c-0.3-0.2-0.7-0.4-1-0.3
		c-0.4,0-0.7,0.1-1,0.3c-0.2,0.2-0.4,0.4-0.4,0.7c0,0.3,0.1,0.5,0.3,0.6c0.4,0.2,0.8,0.3,1.2,0.4c0.5,0.1,1,0.3,1.4,0.5
		c0.3,0.1,0.6,0.4,0.8,0.7c0.2,0.3,0.3,0.6,0.3,0.9c0,0.6-0.3,1.1-0.7,1.5c-0.6,0.4-1.2,0.6-1.9,0.6c-0.5,0-1-0.1-1.5-0.3
		c-0.4-0.2-0.7-0.5-1-0.8c-0.2-0.3-0.4-0.7-0.4-1.1h1.2c0,0.4,0.2,0.7,0.5,0.9c0.3,0.2,0.7,0.4,1.2,0.3c0.4,0,0.7-0.1,1.1-0.3
		C-5822.1-7439.8-5821.9-7440-5821.9-7440.3L-5821.9-7440.3z M-5817.6-7447v1.7h1.3v0.9h-1.3v4.3c0,0.2,0,0.4,0.2,0.6
		s0.4,0.2,0.6,0.2s0.4,0,0.6-0.1v0.9c-0.3,0.1-0.6,0.1-0.9,0.1c-0.4,0-0.9-0.1-1.2-0.5c-0.3-0.4-0.4-0.9-0.4-1.4v-4.3h-1.2v-0.9h1.2
		v-1.7h1.1V-7447z M-5813.7-7438.5h-1.2v-6.9h1.2V-7438.5z M-5814.9-7447.2c0-0.2,0.1-0.3,0.2-0.5c0.1-0.1,0.3-0.2,0.5-0.2
		s0.4,0.1,0.5,0.2s0.2,0.3,0.2,0.5s-0.1,0.3-0.2,0.5c-0.1,0.1-0.3,0.2-0.5,0.2s-0.4-0.1-0.5-0.2
		C-5814.9-7446.8-5815-7447-5814.9-7447.2L-5814.9-7447.2z M-5812.1-7442c0-0.9,0.2-1.8,0.7-2.6c0.9-1.1,2.5-1.3,3.6-0.4
		c0.1,0.1,0.2,0.2,0.3,0.3l0.1-0.8h1.1v6.7c0,0.8-0.2,1.5-0.8,2.1c-0.6,0.5-1.3,0.8-2.1,0.8c-0.5,0-1-0.1-1.5-0.3
		c-0.4-0.2-0.8-0.5-1.1-0.9l0.6-0.7c0.4,0.6,1.1,0.9,1.8,0.9c0.5,0,1-0.1,1.3-0.5s0.5-0.9,0.5-1.4v-0.6c-0.5,0.5-1.2,0.8-1.9,0.8
		c-0.8,0-1.5-0.3-2-1C-5811.9-7440.1-5812.1-7441-5812.1-7442L-5812.1-7442z M-5810.9-7441.9c0,0.6,0.1,1.3,0.5,1.8
		c0.3,0.4,0.8,0.7,1.3,0.7c0.7,0,1.3-0.4,1.6-1v-3.1c-0.3-0.6-0.9-1-1.6-1c-0.5,0-1,0.2-1.3,0.7
		C-5810.8-7443.2-5810.9-7442.6-5810.9-7441.9L-5810.9-7441.9z M-5800.3-7438.5c-0.1-0.2-0.1-0.5-0.2-0.7c-0.5,0.5-1.2,0.9-2,0.9
		c-0.6,0-1.2-0.2-1.7-0.6c-0.4-0.4-0.7-0.9-0.6-1.5c0-0.7,0.3-1.3,0.8-1.7c0.7-0.4,1.5-0.6,2.3-0.6h1.1v-0.5c0-0.4-0.1-0.7-0.4-1
		s-0.7-0.4-1.1-0.4s-0.7,0.1-1.1,0.3c-0.3,0.2-0.4,0.5-0.4,0.8h-1.2c0-0.4,0.1-0.7,0.4-1s0.6-0.6,1-0.8c0.4-0.2,0.9-0.3,1.4-0.3
		c0.7,0,1.3,0.2,1.9,0.6c0.5,0.4,0.7,1,0.7,1.6v3.2c0,0.5,0.1,1,0.2,1.5v0.1h-1.1V-7438.5z M-5802.2-7439.4c0.4,0,0.7-0.1,1-0.3
		c0.3-0.2,0.6-0.4,0.7-0.7v-1.4h-0.9c-1.4,0-2.2,0.4-2.2,1.3c0,0.3,0.1,0.6,0.4,0.9C-5802.9-7439.5-5802.6-7439.4-5802.2-7439.4z
		 M-5794.7-7439.3c0.4,0,0.8-0.1,1.1-0.4c0.3-0.2,0.5-0.6,0.5-1h1.1c0,0.4-0.2,0.8-0.4,1.1c-0.3,0.4-0.6,0.7-1,0.9
		c-0.4,0.2-0.9,0.3-1.3,0.3c-0.8,0-1.7-0.3-2.2-0.9c-0.6-0.7-0.9-1.6-0.8-2.6v-0.2c0-0.6,0.1-1.2,0.4-1.8c0.2-0.5,0.6-0.9,1.1-1.2
		c0.5-0.3,1.1-0.4,1.6-0.4c0.7,0,1.4,0.2,1.9,0.7s0.8,1.1,0.8,1.8h-1.1c0-0.4-0.2-0.8-0.5-1.1c-0.3-0.3-0.7-0.4-1.1-0.4
		c-0.5,0-1.1,0.2-1.4,0.6c-0.4,0.6-0.5,1.2-0.5,1.9v0.2c0,0.6,0.1,1.3,0.5,1.8C-5795.7-7439.5-5795.2-7439.3-5794.7-7439.3
		L-5794.7-7439.3z M-5789.4-7438.5h-1.2v-6.9h1.2V-7438.5z M-5790.6-7447.2c0-0.2,0.1-0.3,0.2-0.5c0.1-0.1,0.3-0.2,0.5-0.2
		s0.4,0.1,0.5,0.2s0.2,0.3,0.2,0.5s-0.1,0.3-0.2,0.5c-0.1,0.1-0.3,0.2-0.5,0.2s-0.4-0.1-0.5-0.2
		C-5790.6-7446.8-5790.6-7447-5790.6-7447.2L-5790.6-7447.2z M-5787.8-7442c0-0.6,0.1-1.2,0.4-1.8c0.2-0.5,0.6-0.9,1.1-1.2
		c0.5-0.3,1-0.5,1.6-0.4c0.9,0,1.7,0.3,2.3,1c0.6,0.7,0.9,1.6,0.9,2.6v0.1c0,0.6-0.1,1.2-0.4,1.8c-0.2,0.5-0.6,0.9-1.1,1.2
		c-0.5,0.3-1.1,0.5-1.6,0.4c-0.9,0-1.7-0.3-2.3-1C-5787.5-7440.1-5787.8-7441-5787.8-7442L-5787.8-7442z M-5786.6-7441.9
		c0,0.7,0.2,1.3,0.5,1.8c0.6,0.8,1.7,0.9,2.5,0.3c0.1-0.1,0.2-0.2,0.3-0.3c0.4-0.6,0.6-1.3,0.5-2c0-0.7-0.2-1.3-0.5-1.8
		s-0.9-0.7-1.4-0.7c-0.6,0-1.1,0.2-1.4,0.7C-5786.5-7443.3-5786.7-7442.6-5786.6-7441.9L-5786.6-7441.9z M-5784.1-7448.2h1.4
		l-1.7,1.9h-0.9L-5784.1-7448.2z M-5779-7445.4v0.9c0.5-0.6,1.3-1,2.1-1c1.5,0,2.2,0.8,2.2,2.5v4.5h-1.2v-4.5c0-0.4-0.1-0.8-0.3-1.1
		c-0.3-0.3-0.7-0.4-1-0.4c-0.4,0-0.7,0.1-1,0.3c-0.3,0.2-0.5,0.5-0.7,0.8v4.9h-1.2v-6.9L-5779-7445.4z"/>
	<path id="Trazado_198014" class="st3" d="M-5696.2-7409.5h-1.2l-4.7-7.1v7.1h-1.2v-9.2h1.2l4.7,7.2v-7.2h1.2V-7409.5z
		 M-5694.6-7413c0-0.6,0.1-1.2,0.4-1.8c0.2-0.5,0.6-0.9,1.1-1.2c0.5-0.3,1-0.5,1.6-0.4c0.9,0,1.7,0.3,2.3,1c0.6,0.7,0.9,1.6,0.9,2.6
		v0.1c0,0.6-0.1,1.2-0.4,1.8c-0.2,0.5-0.6,0.9-1.1,1.2c-0.5,0.3-1.1,0.5-1.6,0.4c-0.9,0-1.7-0.3-2.3-1
		C-5694.3-7411.1-5694.6-7412-5694.6-7413L-5694.6-7413z M-5693.4-7412.9c0,0.7,0.2,1.3,0.5,1.8c0.6,0.8,1.7,0.9,2.5,0.3
		c0.1-0.1,0.2-0.2,0.3-0.3c0.4-0.6,0.6-1.3,0.5-2c0-0.7-0.2-1.3-0.5-1.8s-0.9-0.7-1.4-0.7c-0.6,0-1.1,0.2-1.4,0.7
		C-5693.2-7414.3-5693.4-7413.6-5693.4-7412.9L-5693.4-7412.9z M-5682-7418v1.7h1.3v0.9h-1.3v4.3c0,0.2,0,0.4,0.2,0.6
		s0.4,0.2,0.6,0.2s0.4,0,0.6-0.1v0.9c-0.3,0.1-0.6,0.1-0.9,0.1c-0.4,0-0.9-0.1-1.2-0.5c-0.3-0.4-0.4-0.9-0.4-1.4v-4.3h-1.2v-0.9h1.2
		v-1.7h1.1V-7418z M-5676.5-7409.4c-0.9,0-1.7-0.3-2.3-0.9c-0.6-0.7-0.9-1.6-0.9-2.5v-0.2c0-0.6,0.1-1.3,0.4-1.8
		c0.2-0.5,0.6-0.9,1.1-1.3c0.5-0.3,1-0.5,1.5-0.5c0.8,0,1.6,0.3,2.1,0.9c0.5,0.7,0.8,1.6,0.7,2.5v0.5h-4.7c0,0.6,0.2,1.2,0.6,1.6
		s0.9,0.6,1.4,0.6c0.4,0,0.7-0.1,1.1-0.3c0.3-0.2,0.5-0.4,0.8-0.7l0.7,0.6C-5674.5-7409.8-5675.5-7409.3-5676.5-7409.4
		L-5676.5-7409.4z M-5676.7-7415.5c-0.5,0-0.9,0.2-1.2,0.5c-0.3,0.4-0.6,0.9-0.6,1.5h3.4v-0.1c0-0.5-0.2-1-0.5-1.4
		C-5675.8-7415.4-5676.2-7415.5-5676.7-7415.5z M-5671.4-7416.4v0.9c0.5-0.6,1.2-1,2.1-1c1.5,0,2.2,0.8,2.2,2.5v4.5h-1.2v-4.5
		c0-0.4-0.1-0.8-0.3-1.1c-0.3-0.3-0.7-0.4-1-0.4c-0.4,0-0.7,0.1-1,0.3c-0.3,0.2-0.5,0.5-0.7,0.8v4.9h-1.2v-6.9L-5671.4-7416.4
		L-5671.4-7416.4z M-5665.6-7413c0-0.9,0.2-1.8,0.7-2.6c0.9-1.1,2.5-1.3,3.6-0.4c0.1,0.1,0.2,0.2,0.3,0.3l0.1-0.8h1.1v6.7
		c0,0.8-0.2,1.5-0.8,2.1c-0.6,0.5-1.3,0.8-2.1,0.8c-0.5,0-1-0.1-1.5-0.3c-0.4-0.2-0.8-0.5-1.1-0.9l0.6-0.7c0.4,0.6,1.1,0.9,1.8,0.9
		c0.5,0,1-0.1,1.3-0.5s0.5-0.9,0.5-1.4v-0.6c-0.5,0.5-1.2,0.8-1.9,0.8c-0.8,0-1.5-0.3-2-1C-5665.4-7411.1-5665.6-7412-5665.6-7413z
		 M-5664.4-7412.9c0,0.6,0.1,1.3,0.5,1.8c0.3,0.4,0.8,0.7,1.3,0.7c0.7,0,1.3-0.4,1.6-1v-3.1c-0.3-0.6-0.9-1-1.6-1
		c-0.5,0-1,0.2-1.3,0.7C-5664.3-7414.2-5664.4-7413.6-5664.4-7412.9L-5664.4-7412.9z M-5658.3-7413c0-0.6,0.1-1.2,0.4-1.8
		c0.2-0.5,0.6-0.9,1.1-1.2c0.5-0.3,1-0.5,1.6-0.4c0.9,0,1.7,0.3,2.3,1c0.6,0.7,0.9,1.6,0.9,2.6v0.1c0,0.6-0.1,1.2-0.4,1.8
		c-0.2,0.5-0.6,0.9-1.1,1.2c-0.5,0.3-1.1,0.5-1.6,0.4c-0.9,0-1.7-0.3-2.3-1C-5658.1-7411.1-5658.4-7412-5658.3-7413L-5658.3-7413z
		 M-5657.1-7412.9c0,0.7,0.2,1.3,0.5,1.8c0.6,0.8,1.7,0.9,2.5,0.3c0.1-0.1,0.2-0.2,0.3-0.3c0.4-0.6,0.6-1.3,0.5-2
		c0-0.7-0.2-1.3-0.5-1.8s-0.9-0.7-1.4-0.7c-0.6,0-1.1,0.2-1.4,0.7C-5657-7414.3-5657.2-7413.6-5657.1-7412.9L-5657.1-7412.9z
		 M-5646.1-7409.5h-1.2v-6.9h1.2V-7409.5z M-5647.4-7418.2c0-0.2,0.1-0.3,0.2-0.5c0.1-0.1,0.3-0.2,0.5-0.2s0.4,0.1,0.5,0.2
		s0.2,0.3,0.2,0.5s-0.1,0.3-0.2,0.5c-0.1,0.1-0.3,0.2-0.5,0.2s-0.4-0.1-0.5-0.2C-5647.3-7417.8-5647.4-7418-5647.4-7418.2
		L-5647.4-7418.2z M-5643.1-7416.4v0.9c0.5-0.6,1.2-1,2.1-1c1.5,0,2.2,0.8,2.2,2.5v4.5h-1.2v-4.5c0-0.4-0.1-0.8-0.3-1.1
		c-0.3-0.3-0.7-0.4-1-0.4c-0.4,0-0.7,0.1-1,0.3c-0.3,0.2-0.5,0.5-0.7,0.8v4.9h-1.2v-6.9L-5643.1-7416.4L-5643.1-7416.4z
		 M-5636.5-7409.5v-6h-1.1v-0.9h1.1v-0.7c0-0.6,0.2-1.2,0.6-1.7c0.4-0.4,1.1-0.6,1.7-0.6c0.3,0,0.5,0,0.8,0.1l-0.1,0.9
		c-0.2,0-0.4-0.1-0.6-0.1c-0.3,0-0.6,0.1-0.9,0.3c-0.2,0.3-0.3,0.6-0.3,1v0.7h1.5v0.9h-1.5v6h-1.2V-7409.5z M-5632.8-7413
		c0-0.6,0.1-1.2,0.4-1.8c0.2-0.5,0.6-0.9,1.1-1.2c0.5-0.3,1-0.5,1.6-0.4c0.9,0,1.7,0.3,2.3,1c0.6,0.7,0.9,1.6,0.9,2.6v0.1
		c0,0.6-0.1,1.2-0.4,1.8c-0.2,0.5-0.6,0.9-1.1,1.2c-0.5,0.3-1.1,0.5-1.6,0.4c-0.9,0-1.7-0.3-2.3-1
		C-5632.6-7411.1-5632.9-7412-5632.8-7413L-5632.8-7413z M-5631.7-7412.9c0,0.7,0.2,1.3,0.5,1.8c0.6,0.8,1.7,0.9,2.5,0.3
		c0.1-0.1,0.2-0.2,0.3-0.3c0.4-0.6,0.6-1.3,0.5-2c0-0.7-0.2-1.3-0.5-1.8s-0.9-0.7-1.4-0.7c-0.6,0-1.1,0.2-1.4,0.7
		C-5631.5-7414.3-5631.7-7413.6-5631.7-7412.9L-5631.7-7412.9z M-5621.8-7415.3c-0.2,0-0.4,0-0.6,0c-0.7-0.1-1.3,0.3-1.6,1v4.9h-1.2
		v-6.9h1.1v0.8c0.3-0.6,1-0.9,1.6-0.9c0.2,0,0.4,0,0.5,0.1L-5621.8-7415.3z M-5619.6-7416.4v0.8c0.5-0.6,1.3-0.9,2-0.9
		c0.8-0.1,1.6,0.4,2,1.1c0.2-0.3,0.5-0.6,0.9-0.8c0.4-0.2,0.8-0.3,1.3-0.3c1.5,0,2.3,0.8,2.3,2.4v4.6h-1.2v-4.5
		c0-0.4-0.1-0.8-0.3-1.1c-0.3-0.3-0.7-0.4-1.1-0.4s-0.8,0.1-1.1,0.4c-0.3,0.3-0.5,0.6-0.5,1.1v4.6h-1.2v-4.5
		c0.1-0.7-0.4-1.4-1.1-1.5c-0.1,0-0.2,0-0.4,0c-0.7-0.1-1.3,0.3-1.6,1v5h-1.2v-6.9h1.2V-7416.4z M-5605.1-7409.5
		c-0.1-0.2-0.1-0.5-0.2-0.7c-0.5,0.5-1.2,0.9-2,0.9c-0.6,0-1.2-0.2-1.7-0.6c-0.4-0.4-0.7-0.9-0.7-1.5c0-0.7,0.3-1.3,0.8-1.7
		c0.7-0.4,1.5-0.6,2.3-0.6h1.1v-0.5c0-0.4-0.1-0.7-0.4-1s-0.7-0.4-1.1-0.4s-0.7,0.1-1.1,0.3c-0.3,0.2-0.4,0.5-0.4,0.8h-1.2
		c0-0.4,0.1-0.7,0.4-1s0.6-0.6,1-0.8c0.4-0.2,0.9-0.3,1.4-0.3c0.7,0,1.3,0.2,1.9,0.6c0.5,0.4,0.7,1,0.7,1.6v3.2c0,0.5,0.1,1,0.2,1.5
		v0.1h-1V-7409.5z M-5607-7410.4c0.4,0,0.7-0.1,1-0.3c0.3-0.2,0.6-0.4,0.7-0.7v-1.4h-0.9c-1.4,0-2.2,0.4-2.2,1.3
		c0,0.3,0.1,0.6,0.4,0.9C-5607.7-7410.5-5607.4-7410.4-5607-7410.4z M-5599.5-7410.3c0.4,0,0.8-0.1,1.1-0.4c0.3-0.2,0.5-0.6,0.5-1
		h1.1c0,0.4-0.2,0.8-0.4,1.1c-0.3,0.4-0.6,0.7-1,0.9c-0.4,0.2-0.9,0.3-1.3,0.3c-0.8,0-1.7-0.3-2.2-0.9c-0.6-0.7-0.9-1.6-0.8-2.6
		v-0.2c0-0.6,0.1-1.2,0.4-1.8c0.2-0.5,0.6-0.9,1.1-1.2c0.5-0.3,1.1-0.4,1.6-0.4c0.7,0,1.4,0.2,1.9,0.7s0.8,1.1,0.8,1.8h-1.1
		c0-0.4-0.2-0.8-0.5-1.1c-0.3-0.3-0.7-0.4-1.1-0.4c-0.5,0-1.1,0.2-1.4,0.6c-0.4,0.6-0.5,1.2-0.5,1.9v0.2c0,0.6,0.1,1.3,0.5,1.8
		C-5600.6-7410.5-5600-7410.3-5599.5-7410.3L-5599.5-7410.3z M-5594.2-7409.5h-1.2v-6.9h1.2V-7409.5z M-5595.4-7418.2
		c0-0.2,0.1-0.3,0.2-0.5c0.1-0.1,0.3-0.2,0.5-0.2s0.4,0.1,0.5,0.2s0.2,0.3,0.2,0.5s-0.1,0.3-0.2,0.5c-0.1,0.1-0.3,0.2-0.5,0.2
		s-0.4-0.1-0.5-0.2C-5595.4-7417.8-5595.5-7418-5595.4-7418.2L-5595.4-7418.2z M-5592.6-7413c0-0.6,0.1-1.2,0.4-1.8
		c0.2-0.5,0.6-0.9,1.1-1.2c0.5-0.3,1-0.4,1.6-0.4c0.9,0,1.7,0.3,2.3,1c0.6,0.7,0.9,1.6,0.9,2.6v0.1c0,0.6-0.1,1.2-0.4,1.8
		c-0.2,0.5-0.6,0.9-1.1,1.2c-0.5,0.3-1.1,0.5-1.6,0.4c-0.9,0-1.7-0.3-2.3-1C-5592.3-7411.1-5592.7-7412-5592.6-7413L-5592.6-7413z
		 M-5591.4-7412.9c0,0.7,0.2,1.3,0.5,1.8c0.6,0.8,1.7,0.9,2.5,0.3c0.1-0.1,0.2-0.2,0.3-0.3c0.4-0.6,0.6-1.3,0.5-2
		c0-0.7-0.2-1.3-0.5-1.8s-0.9-0.7-1.4-0.7c-0.6,0-1.1,0.2-1.4,0.7C-5591.3-7414.3-5591.5-7413.6-5591.4-7412.9L-5591.4-7412.9z
		 M-5589-7419.2h1.4l-1.7,1.9h-0.9L-5589-7419.2z M-5583.8-7416.4v0.9c0.5-0.6,1.3-1,2.1-1c1.5,0,2.2,0.8,2.2,2.5v4.5h-1.2v-4.5
		c0-0.4-0.1-0.8-0.3-1.1c-0.3-0.3-0.7-0.4-1-0.4c-0.4,0-0.7,0.1-1,0.3c-0.3,0.2-0.5,0.5-0.7,0.8v4.9h-1.2v-6.9L-5583.8-7416.4z"/>
	<path id="Trazado_198015" class="st3" d="M-5831.9-7306.2h-2.2v3.7h-1.2v-9.2h3.1c0.9-0.1,1.7,0.2,2.4,0.7c0.6,0.5,0.9,1.3,0.8,2.1
		c0,0.5-0.2,1.1-0.5,1.5s-0.8,0.8-1.3,1l2.2,3.9v0.1h-1.3L-5831.9-7306.2z M-5834.1-7307.2h1.9c0.5,0,1-0.1,1.4-0.5
		c0.4-0.3,0.6-0.8,0.5-1.3c0-0.5-0.2-1-0.5-1.3c-0.4-0.3-0.9-0.5-1.5-0.5h-1.9v3.6H-5834.1z M-5824.6-7302.4c-0.9,0-1.7-0.3-2.3-0.9
		c-0.6-0.7-0.9-1.6-0.9-2.5v-0.2c0-0.6,0.1-1.3,0.4-1.8c0.2-0.5,0.6-0.9,1.1-1.3c0.5-0.3,1-0.5,1.5-0.5c0.8,0,1.6,0.3,2.1,0.9
		c0.5,0.7,0.8,1.6,0.7,2.5v0.5h-4.7c0,0.6,0.2,1.2,0.6,1.6s0.9,0.6,1.4,0.6c0.4,0,0.7-0.1,1.1-0.3c0.3-0.2,0.5-0.4,0.8-0.7l0.7,0.6
		C-5822.6-7302.8-5823.6-7302.3-5824.6-7302.4L-5824.6-7302.4z M-5824.8-7308.5c-0.5,0-0.9,0.2-1.2,0.5c-0.3,0.4-0.6,0.9-0.6,1.5
		h3.4v-0.1c0-0.5-0.2-1-0.5-1.4C-5823.9-7308.4-5824.3-7308.5-5824.8-7308.5z M-5816.6-7304.3c0-0.3-0.1-0.6-0.4-0.7
		c-0.4-0.2-0.8-0.4-1.2-0.5c-0.5-0.1-1-0.2-1.4-0.5c-0.3-0.1-0.6-0.4-0.8-0.6c-0.2-0.3-0.3-0.6-0.3-0.9c0-0.6,0.3-1.1,0.7-1.4
		c0.5-0.4,1.2-0.6,1.8-0.6c0.7,0,1.4,0.2,1.9,0.6s0.7,0.9,0.7,1.5h-1.2c0-0.3-0.2-0.6-0.4-0.8c-0.3-0.2-0.7-0.4-1-0.3
		c-0.4,0-0.7,0.1-1,0.3c-0.2,0.2-0.4,0.4-0.4,0.7c0,0.3,0.1,0.5,0.3,0.6c0.4,0.2,0.8,0.3,1.2,0.4c0.5,0.1,1,0.3,1.4,0.5
		c0.3,0.1,0.6,0.4,0.8,0.7c0.2,0.3,0.3,0.6,0.3,0.9c0,0.6-0.3,1.1-0.7,1.5c-0.6,0.4-1.2,0.6-1.9,0.6c-0.5,0-1-0.1-1.5-0.3
		c-0.4-0.2-0.7-0.5-1-0.8c-0.2-0.3-0.4-0.7-0.4-1.1h1.2c0,0.4,0.2,0.7,0.5,0.9c0.3,0.2,0.7,0.4,1.2,0.3c0.4,0,0.7-0.1,1.1-0.3
		C-5816.7-7303.8-5816.6-7304-5816.6-7304.3z M-5809.6-7303.2c-0.5,0.6-1.3,0.9-2,0.8c-0.6,0-1.2-0.2-1.7-0.6
		c-0.4-0.5-0.6-1.2-0.6-1.9v-4.5h1.2v4.4c0,1,0.4,1.6,1.3,1.6c0.7,0.1,1.5-0.3,1.8-1v-5h1.2v6.9h-1.1L-5809.6-7303.2z
		 M-5805.6-7309.4v0.8c0.5-0.6,1.3-0.9,2-0.9c0.8-0.1,1.6,0.4,2,1.1c0.2-0.3,0.5-0.6,0.9-0.8c0.4-0.2,0.8-0.3,1.3-0.3
		c1.5,0,2.3,0.8,2.3,2.4v4.6h-1.2v-4.5c0-0.4-0.1-0.8-0.3-1.1c-0.3-0.3-0.7-0.4-1.1-0.4s-0.8,0.1-1.1,0.4c-0.3,0.3-0.5,0.6-0.5,1.1
		v4.6h-1.2v-4.5c0.1-0.7-0.4-1.4-1.1-1.5c-0.1,0-0.2,0-0.4,0c-0.7-0.1-1.3,0.3-1.6,1v5h-1.2v-6.9h1.2V-7309.4z M-5794-7302.5h-1.2
		v-6.9h1.2V-7302.5z M-5795.3-7311.2c0-0.2,0.1-0.3,0.2-0.5c0.1-0.1,0.3-0.2,0.5-0.2s0.4,0.1,0.5,0.2s0.2,0.3,0.2,0.5
		s-0.1,0.3-0.2,0.5c-0.1,0.1-0.3,0.2-0.5,0.2s-0.4-0.1-0.5-0.2C-5795.2-7310.8-5795.3-7311-5795.3-7311.2z M-5788.8-7308.3
		c-0.2,0-0.4,0-0.6,0c-0.7-0.1-1.3,0.3-1.6,1v4.9h-1.2v-6.9h1.1v0.8c0.3-0.6,1-0.9,1.6-0.9c0.2,0,0.4,0,0.5,0.1L-5788.8-7308.3z
		 M-5834.2-7293.4v0.8c0.5-0.6,1.3-0.9,2-0.9c0.8-0.1,1.6,0.4,2,1.1c0.2-0.3,0.5-0.6,0.9-0.8c0.4-0.2,0.8-0.3,1.3-0.3
		c1.5,0,2.3,0.8,2.3,2.4v4.6h-1.2v-4.5c0-0.4-0.1-0.8-0.3-1.1c-0.3-0.3-0.7-0.4-1.1-0.4s-0.8,0.1-1.1,0.4c-0.3,0.3-0.5,0.6-0.5,1.1
		v4.6h-1.2v-4.5c0.1-0.7-0.4-1.4-1.1-1.5c-0.1,0-0.2,0-0.4,0c-0.7-0.1-1.3,0.3-1.6,1v5h-1.2v-6.9h1.2V-7293.4z M-5819.7-7286.5
		c-0.1-0.2-0.1-0.5-0.2-0.7c-0.5,0.5-1.2,0.9-2,0.9c-0.6,0-1.2-0.2-1.7-0.6c-0.4-0.4-0.7-0.9-0.6-1.5c0-0.7,0.3-1.3,0.8-1.7
		c0.7-0.4,1.5-0.6,2.3-0.6h1.1v-0.5c0-0.4-0.1-0.7-0.4-1s-0.7-0.4-1.1-0.4s-0.7,0.1-1.1,0.3c-0.3,0.2-0.4,0.5-0.4,0.8h-1.2
		c0-0.4,0.1-0.7,0.4-1s0.6-0.6,1-0.8c0.4-0.2,0.9-0.3,1.4-0.3c0.7,0,1.3,0.2,1.9,0.6c0.5,0.4,0.7,1,0.7,1.6v3.2c0,0.5,0.1,1,0.2,1.5
		v0.1h-1.1V-7286.5z M-5821.6-7287.4c0.4,0,0.7-0.1,1-0.3c0.3-0.2,0.6-0.4,0.7-0.7v-1.4h-0.9c-1.4,0-2.2,0.4-2.2,1.3
		c0,0.3,0.1,0.6,0.4,0.9C-5822.3-7287.5-5822-7287.4-5821.6-7287.4L-5821.6-7287.4z M-5815.2-7295v1.7h1.3v0.9h-1.3v4.3
		c0,0.2,0,0.4,0.2,0.6s0.4,0.2,0.6,0.2s0.4,0,0.6-0.1v0.9c-0.3,0.1-0.6,0.1-0.9,0.1c-0.4,0-0.9-0.1-1.2-0.5
		c-0.3-0.4-0.4-0.9-0.4-1.4v-4.3h-1.2v-0.9h1.2v-1.7L-5815.2-7295z M-5809.7-7286.4c-0.9,0-1.7-0.3-2.3-0.9
		c-0.6-0.7-0.9-1.6-0.9-2.5v-0.2c0-0.6,0.1-1.3,0.4-1.8c0.2-0.5,0.6-0.9,1.1-1.3c0.5-0.3,1-0.5,1.5-0.5c0.8,0,1.6,0.3,2.1,0.9
		c0.5,0.7,0.8,1.6,0.7,2.5v0.5h-4.7c0,0.6,0.2,1.2,0.6,1.6s0.9,0.6,1.4,0.6c0.4,0,0.7-0.1,1.1-0.3c0.3-0.2,0.5-0.4,0.8-0.7l0.7,0.6
		C-5807.7-7286.8-5808.7-7286.3-5809.7-7286.4L-5809.7-7286.4z M-5809.9-7292.5c-0.5,0-0.9,0.2-1.2,0.5c-0.3,0.4-0.6,0.9-0.6,1.5
		h3.4v-0.1c0-0.5-0.2-1-0.5-1.4C-5809-7292.4-5809.4-7292.5-5809.9-7292.5L-5809.9-7292.5z M-5802.4-7292.3c-0.2,0-0.4,0-0.6,0
		c-0.7-0.1-1.3,0.3-1.6,1v4.9h-1.2v-6.9h1.1v0.8c0.3-0.6,1-0.9,1.6-0.9c0.2,0,0.4,0,0.5,0.1L-5802.4-7292.3z M-5800-7286.5h-1.2
		v-6.9h1.2V-7286.5z M-5801.3-7295.2c0-0.2,0.1-0.3,0.2-0.5c0.1-0.1,0.3-0.2,0.5-0.2s0.4,0.1,0.5,0.2s0.2,0.3,0.2,0.5
		s-0.1,0.3-0.2,0.5c-0.1,0.1-0.3,0.2-0.5,0.2s-0.4-0.1-0.5-0.2C-5801.2-7294.8-5801.3-7295-5801.3-7295.2z M-5793.9-7286.5
		c-0.1-0.2-0.1-0.5-0.2-0.7c-0.5,0.5-1.2,0.9-2,0.9c-0.6,0-1.2-0.2-1.7-0.6c-0.4-0.4-0.7-0.9-0.7-1.5c0-0.7,0.3-1.3,0.8-1.7
		c0.7-0.4,1.5-0.6,2.3-0.6h1.1v-0.5c0-0.4-0.1-0.7-0.4-1s-0.7-0.4-1.1-0.4s-0.7,0.1-1.1,0.3c-0.3,0.2-0.4,0.5-0.4,0.8h-1.2
		c0-0.4,0.1-0.7,0.4-1s0.6-0.6,1-0.8c0.4-0.2,0.9-0.3,1.4-0.3c0.7,0,1.3,0.2,1.9,0.6c0.5,0.4,0.7,1,0.7,1.6v3.2c0,0.5,0.1,1,0.2,1.5
		v0.1h-1V-7286.5z M-5795.9-7287.4c0.4,0,0.7-0.1,1-0.3c0.3-0.2,0.6-0.4,0.7-0.7v-1.4h-0.9c-1.4,0-2.2,0.4-2.2,1.3
		c0,0.3,0.1,0.6,0.4,0.9C-5796.5-7287.5-5796.2-7287.4-5795.9-7287.4L-5795.9-7287.4z M-5789.8-7286.5h-1.2v-9.8h1.2V-7286.5z"/>
	<path id="Trazado_198016" class="st3" d="M-5814.6-7157.6h-3.9v4.1h-1.2v-9.2h5.7v1h-4.5v3.2h3.9V-7157.6z M-5811.4-7153.5h-1.2
		v-6.9h1.2V-7153.5z M-5812.7-7162.2c0-0.2,0.1-0.3,0.2-0.5c0.1-0.1,0.3-0.2,0.5-0.2s0.4,0.1,0.5,0.2s0.2,0.3,0.2,0.5
		s-0.1,0.3-0.2,0.5c-0.1,0.1-0.3,0.2-0.5,0.2s-0.4-0.1-0.5-0.2C-5812.6-7161.8-5812.7-7162-5812.7-7162.2z M-5808.4-7160.4v0.9
		c0.5-0.6,1.2-1,2.1-1c1.5,0,2.2,0.8,2.2,2.5v4.5h-1.2v-4.5c0-0.4-0.1-0.8-0.3-1.1c-0.3-0.3-0.7-0.4-1-0.4c-0.4,0-0.7,0.1-1,0.3
		c-0.3,0.2-0.5,0.5-0.7,0.8v4.9h-1.2v-6.9L-5808.4-7160.4L-5808.4-7160.4z"/>
	<path id="Trazado_128610" class="st0" d="M-5602-7204.9V-7391h-168.6"/>
	<path id="Trazado_128611" class="st0" d="M-5782.5-7229.5h160.4v30.4"/>
	<path id="Trazado_198017" class="st0" d="M-5516-7270h-170"/>
	<path id="Trazado_198018" class="st0" d="M-5497-7351h-90"/>
	<path id="Trazado_128609" class="st1" d="M-5625.6-7303.5h47.2l15.9,32.8l-15.9,33.2h-47.2l-15.9-33.6L-5625.6-7303.5z"/>
	<path id="Trazado_198019" class="st5" d="M-5757.5-7292.5h84v44h-84V-7292.5z"/>
	<path id="Trazado_198020" class="st3" d="M-5616.7-7285.8c0,0.4,0,0.7-0.1,1.1c-0.1,0.3-0.2,0.5-0.4,0.8c-0.2,0.2-0.5,0.6-0.9,1
		c-0.3,0.3-0.6,0.8-0.7,1.2v0.2c0,0.4,0.1,0.8,0.4,1.1c0.3,0.3,0.7,0.4,1.1,0.4s0.7-0.1,1-0.4c0.3-0.2,0.4-0.6,0.4-0.9h1.2
		c0,0.6-0.3,1.2-0.7,1.7c-0.5,0.4-1.2,0.7-1.9,0.6c-0.7,0-1.4-0.2-1.9-0.6c-0.5-0.5-0.7-1.1-0.7-1.8c0-0.8,0.4-1.6,1-2.2l0.7-0.7
		c0.3-0.4,0.5-0.9,0.4-1.4L-5616.7-7285.8z M-5616.6-7287.8c0,0.2-0.1,0.4-0.2,0.5s-0.3,0.2-0.5,0.2s-0.4-0.1-0.5-0.2
		s-0.2-0.3-0.2-0.5s0.1-0.3,0.2-0.5c0.1-0.1,0.3-0.2,0.5-0.2s0.4,0.1,0.5,0.2C-5616.7-7288.2-5616.6-7288-5616.6-7287.8z
		 M-5608-7285.8h-4v3.3h4.7v1h-5.9v-9.2h5.8v1h-4.6v3h4V-7285.8z M-5602-7283.3c0-0.3-0.1-0.6-0.4-0.7c-0.4-0.2-0.8-0.4-1.2-0.5
		c-0.5-0.1-1-0.2-1.4-0.5c-0.3-0.1-0.6-0.4-0.8-0.6c-0.2-0.3-0.3-0.6-0.3-0.9c0-0.6,0.3-1.1,0.7-1.4c0.5-0.4,1.2-0.6,1.8-0.6
		c0.7,0,1.4,0.2,1.9,0.6s0.7,0.9,0.7,1.5h-1.2c0-0.3-0.2-0.6-0.4-0.8c-0.3-0.2-0.7-0.4-1-0.3c-0.4,0-0.7,0.1-1,0.3
		c-0.2,0.2-0.4,0.4-0.4,0.7c0,0.3,0.1,0.5,0.3,0.6c0.4,0.2,0.8,0.3,1.2,0.4c0.5,0.1,1,0.3,1.4,0.5c0.3,0.1,0.6,0.4,0.8,0.7
		c0.2,0.3,0.3,0.6,0.3,0.9c0,0.6-0.3,1.1-0.7,1.5c-0.6,0.4-1.2,0.6-1.9,0.6c-0.5,0-1-0.1-1.5-0.3c-0.4-0.2-0.7-0.5-1-0.8
		c-0.2-0.3-0.4-0.7-0.4-1.1h1.2c0,0.4,0.2,0.7,0.5,0.9c0.3,0.2,0.7,0.4,1.2,0.3c0.4,0,0.7-0.1,1.1-0.3
		C-5602.1-7282.8-5602-7283-5602-7283.3z M-5597.7-7290v1.7h1.3v0.9h-1.3v4.3c0,0.2,0,0.4,0.2,0.6s0.4,0.2,0.6,0.2s0.4,0,0.6-0.1
		v0.9c-0.3,0.1-0.6,0.1-0.9,0.1c-0.4,0-0.9-0.1-1.2-0.5c-0.3-0.4-0.4-0.9-0.4-1.4v-4.3h-1.2v-0.9h1.2v-1.7h1.1V-7290z M-5595.5-7285
		c0-0.6,0.1-1.2,0.4-1.8c0.2-0.5,0.6-0.9,1.1-1.2c0.5-0.3,1-0.5,1.6-0.4c0.9,0,1.7,0.3,2.3,1c0.6,0.7,0.9,1.6,0.9,2.6v0.1
		c0,0.6-0.1,1.2-0.4,1.8c-0.2,0.5-0.6,0.9-1.1,1.2c-0.5,0.3-1.1,0.5-1.6,0.4c-0.9,0-1.7-0.3-2.3-1
		C-5595.2-7283.1-5595.5-7284-5595.5-7285L-5595.5-7285z M-5594.3-7284.9c0,0.7,0.2,1.3,0.5,1.8c0.6,0.8,1.7,0.9,2.5,0.3
		c0.1-0.1,0.2-0.2,0.3-0.3c0.4-0.6,0.6-1.3,0.5-2c0-0.7-0.2-1.3-0.5-1.8s-0.9-0.7-1.4-0.7c-0.6,0-1.1,0.2-1.4,0.7
		C-5594.2-7286.3-5594.3-7285.6-5594.3-7284.9L-5594.3-7284.9z M-5585.6-7283.2l1.6-5.1h1.3l-2.8,7.9c-0.4,1.1-1.1,1.7-2,1.7h-0.2
		l-0.4-0.1v-1h0.3c0.3,0,0.7-0.1,0.9-0.2c0.3-0.2,0.5-0.5,0.5-0.9l0.3-0.7l-2.5-6.8h1.3L-5585.6-7283.2z M-5625.9-7271.5
		c0.5-0.6,1.2-1,2-1c1.5,0,2.2,0.8,2.2,2.5v4.5h-1.2v-4.5c0-0.4-0.1-0.8-0.3-1.1c-0.3-0.3-0.7-0.4-1-0.4c-0.4,0-0.7,0.1-1,0.3
		c-0.3,0.2-0.5,0.5-0.7,0.8v4.9h-1.2v-9.8h1.2V-7271.5z M-5617.1-7265.4c-0.9,0-1.7-0.3-2.3-0.9c-0.6-0.7-0.9-1.6-0.9-2.5v-0.2
		c0-0.6,0.1-1.3,0.4-1.8c0.2-0.5,0.6-0.9,1.1-1.3c0.5-0.3,1-0.5,1.5-0.5c0.8,0,1.6,0.3,2.1,0.9c0.5,0.7,0.8,1.6,0.7,2.5v0.5h-4.7
		c0,0.6,0.2,1.2,0.6,1.6s0.9,0.6,1.4,0.6c0.4,0,0.7-0.1,1.1-0.3c0.3-0.2,0.5-0.4,0.8-0.7l0.7,0.6
		C-5615.1-7265.8-5616.1-7265.3-5617.1-7265.4z M-5617.2-7271.5c-0.5,0-0.9,0.2-1.2,0.5c-0.3,0.4-0.6,0.9-0.6,1.5h3.4v-0.1
		c0-0.5-0.2-1-0.5-1.4C-5616.4-7271.4-5616.8-7271.5-5617.2-7271.5z M-5610.3-7266.3c0.4,0,0.8-0.1,1.1-0.4c0.3-0.2,0.5-0.6,0.5-1
		h1.1c0,0.4-0.2,0.8-0.4,1.1c-0.3,0.4-0.6,0.7-1,0.9c-0.4,0.2-0.9,0.3-1.3,0.3c-0.8,0-1.7-0.3-2.2-0.9c-0.6-0.7-0.9-1.6-0.8-2.6
		v-0.2c0-0.6,0.1-1.2,0.4-1.8c0.2-0.5,0.6-0.9,1.1-1.2c0.5-0.3,1.1-0.4,1.6-0.4c0.7,0,1.4,0.2,1.9,0.7s0.8,1.1,0.8,1.8h-1.1
		c0-0.4-0.2-0.8-0.5-1.1c-0.3-0.3-0.7-0.4-1.1-0.4c-0.5,0-1.1,0.2-1.4,0.6c-0.4,0.6-0.5,1.2-0.5,1.9v0.2c0,0.6,0.1,1.3,0.5,1.8
		C-5611.4-7266.5-5610.8-7266.3-5610.3-7266.3L-5610.3-7266.3z M-5605.1-7271.5c0.5-0.6,1.2-1,2-1c1.5,0,2.2,0.8,2.2,2.5v4.5h-1.2
		v-4.5c0-0.4-0.1-0.8-0.3-1.1c-0.3-0.3-0.7-0.4-1-0.4c-0.4,0-0.7,0.1-1,0.3c-0.3,0.2-0.5,0.5-0.7,0.8v4.9h-1.2v-9.8h1.2V-7271.5z
		 M-5599.4-7269c0-0.6,0.1-1.2,0.4-1.8c0.2-0.5,0.6-0.9,1.1-1.2c0.5-0.3,1-0.4,1.6-0.4c0.9,0,1.7,0.3,2.3,1c0.6,0.7,0.9,1.6,0.9,2.6
		v0.1c0,0.6-0.1,1.2-0.4,1.8c-0.2,0.5-0.6,0.9-1.1,1.2c-0.5,0.3-1.1,0.5-1.6,0.4c-0.9,0-1.7-0.3-2.3-1
		C-5599.1-7267.1-5599.4-7268-5599.4-7269L-5599.4-7269z M-5598.2-7268.9c0,0.7,0.2,1.3,0.5,1.8c0.6,0.8,1.7,0.9,2.5,0.3
		c0.1-0.1,0.2-0.2,0.3-0.3c0.4-0.6,0.6-1.3,0.5-2c0-0.7-0.2-1.3-0.5-1.8s-0.9-0.7-1.4-0.7c-0.6,0-1.1,0.2-1.4,0.7
		C-5598.1-7270.3-5598.3-7269.6-5598.2-7268.9L-5598.2-7268.9z M-5584.2-7266.2c-0.5,0.6-1.3,0.9-2,0.8c-0.6,0-1.2-0.2-1.7-0.6
		c-0.4-0.5-0.6-1.2-0.6-1.9v-4.5h1.2v4.4c0,1,0.4,1.6,1.3,1.6c0.7,0.1,1.5-0.3,1.8-1v-5h1.2v6.9h-1.1L-5584.2-7266.2z
		 M-5580.2-7272.4v0.9c0.5-0.6,1.3-1,2.1-1c1.5,0,2.2,0.8,2.2,2.5v4.5h-1.2v-4.5c0-0.4-0.1-0.8-0.3-1.1c-0.3-0.3-0.7-0.4-1-0.4
		c-0.4,0-0.7,0.1-1,0.3c-0.3,0.2-0.5,0.5-0.7,0.8v4.9h-1.2v-6.9L-5580.2-7272.4z M-5609.3-7249.5h-1.2v-9.8h1.2V-7249.5z
		 M-5606.1-7249.5h-1.2v-6.9h1.2V-7249.5z M-5606.1-7259.2h1.4l-1.7,1.9h-0.9L-5606.1-7259.2z M-5604.5-7253c0-0.6,0.1-1.2,0.4-1.8
		c0.2-0.5,0.6-0.9,1.1-1.2c0.5-0.3,1-0.4,1.6-0.4c0.9,0,1.7,0.3,2.3,1c0.6,0.7,0.9,1.6,0.9,2.6v0.1c0,0.6-0.1,1.2-0.4,1.8
		c-0.2,0.5-0.6,0.9-1.1,1.2c-0.5,0.3-1.1,0.5-1.6,0.4c-0.9,0-1.7-0.3-2.3-1C-5604.3-7251.1-5604.6-7252-5604.5-7253L-5604.5-7253z
		 M-5603.3-7252.9c0,0.7,0.2,1.3,0.5,1.8c0.6,0.8,1.7,0.9,2.5,0.3c0.1-0.1,0.2-0.2,0.3-0.3c0.4-0.6,0.6-1.3,0.5-2
		c0-0.7-0.2-1.3-0.5-1.8s-0.9-0.7-1.4-0.7c-0.6,0-1.1,0.2-1.4,0.7C-5603.2-7254.3-5603.4-7253.6-5603.3-7252.9L-5603.3-7252.9z
		 M-5595.4-7252.1c0-0.4,0.1-0.8,0.2-1.2c0.2-0.4,0.4-0.7,0.6-1l0.8-0.9c0.3-0.3,0.5-0.8,0.5-1.3c0-0.4-0.1-0.8-0.3-1
		c-0.3-0.3-0.6-0.4-1-0.4s-0.7,0.1-1,0.3c-0.3,0.2-0.4,0.6-0.4,0.9h-1.2c0-0.6,0.3-1.2,0.7-1.7c0.5-0.4,1.2-0.7,1.9-0.6
		c0.7,0,1.4,0.2,1.9,0.6c0.5,0.5,0.7,1.1,0.7,1.8c0,0.8-0.4,1.6-1,2.2l-0.7,0.7c-0.3,0.4-0.5,0.9-0.5,1.5L-5595.4-7252.1z
		 M-5595.5-7250.1c0-0.2,0.1-0.4,0.2-0.5s0.3-0.2,0.5-0.2s0.4,0.1,0.5,0.2s0.2,0.3,0.2,0.5s-0.1,0.3-0.2,0.5
		c-0.1,0.1-0.3,0.2-0.5,0.2c-0.3,0-0.7-0.2-0.7-0.6V-7250.1z"/>
	<path id="Trazado_198021" class="st3" d="M-5735.5-7276.4c-0.1,0.9-0.4,1.7-1.1,2.3c-0.7,0.6-1.5,0.8-2.4,0.8c-1,0-2-0.4-2.6-1.2
		c-0.7-0.9-1-2-1-3.1v-0.9c0-0.8,0.1-1.6,0.5-2.3c0.3-0.6,0.7-1.1,1.3-1.5c0.6-0.4,1.3-0.5,2-0.5c0.9,0,1.7,0.3,2.4,0.8
		c0.6,0.6,1,1.4,1,2.3h-1.2c0-0.6-0.3-1.2-0.7-1.6c-0.4-0.4-0.9-0.5-1.5-0.5c-0.7,0-1.4,0.3-1.8,0.9c-0.5,0.7-0.7,1.6-0.7,2.5v0.9
		c0,0.8,0.2,1.7,0.6,2.4c0.4,0.6,1.1,0.9,1.8,0.9c0.6,0,1.1-0.1,1.6-0.5c0.4-0.4,0.7-1,0.7-1.6L-5735.5-7276.4z M-5734.4-7277
		c0-0.6,0.1-1.2,0.4-1.8c0.2-0.5,0.6-0.9,1.1-1.2c0.5-0.3,1-0.5,1.6-0.4c0.9,0,1.7,0.3,2.3,1c0.6,0.7,0.9,1.6,0.9,2.6v0.1
		c0,0.6-0.1,1.2-0.4,1.8c-0.2,0.5-0.6,0.9-1.1,1.2c-0.5,0.3-1.1,0.5-1.6,0.4c-0.9,0-1.7-0.3-2.3-1
		C-5734.1-7275.1-5734.4-7276-5734.4-7277L-5734.4-7277z M-5733.2-7276.9c0,0.7,0.2,1.3,0.5,1.8c0.6,0.8,1.7,0.9,2.5,0.3
		c0.1-0.1,0.2-0.2,0.3-0.3c0.4-0.6,0.6-1.3,0.5-2c0-0.7-0.2-1.3-0.5-1.8s-0.9-0.7-1.4-0.7c-0.6,0-1.1,0.2-1.4,0.7
		C-5733-7278.3-5733.2-7277.6-5733.2-7276.9L-5733.2-7276.9z M-5725.5-7280.4v0.9c0.5-0.6,1.2-1,2.1-1c1.5,0,2.2,0.8,2.2,2.5v4.5
		h-1.2v-4.5c0-0.4-0.1-0.8-0.3-1.1c-0.3-0.3-0.7-0.4-1-0.4c-0.4,0-0.7,0.1-1,0.3c-0.3,0.2-0.5,0.5-0.7,0.8v4.9h-1.2v-6.9
		L-5725.5-7280.4z M-5715.5-7275.3c0-0.3-0.1-0.6-0.4-0.7c-0.4-0.2-0.8-0.4-1.2-0.5c-0.5-0.1-1-0.2-1.4-0.5
		c-0.3-0.1-0.6-0.4-0.8-0.6c-0.2-0.3-0.3-0.6-0.3-0.9c0-0.6,0.3-1.1,0.7-1.4c0.5-0.4,1.2-0.6,1.8-0.6c0.7,0,1.4,0.2,1.9,0.6
		s0.7,0.9,0.7,1.5h-1.2c0-0.3-0.2-0.6-0.4-0.8c-0.3-0.2-0.7-0.4-1-0.3c-0.4,0-0.7,0.1-1,0.3c-0.2,0.2-0.4,0.4-0.4,0.7
		c0,0.3,0.1,0.5,0.3,0.6c0.4,0.2,0.8,0.3,1.2,0.4c0.5,0.1,1,0.3,1.4,0.5c0.3,0.1,0.6,0.4,0.8,0.7c0.2,0.3,0.3,0.6,0.3,0.9
		c0,0.6-0.3,1.1-0.7,1.5c-0.6,0.4-1.2,0.6-1.9,0.6c-0.5,0-1-0.1-1.5-0.3c-0.4-0.2-0.7-0.5-1-0.8c-0.2-0.3-0.4-0.7-0.4-1.1h1.2
		c0,0.4,0.2,0.7,0.5,0.9c0.3,0.2,0.7,0.4,1.2,0.3c0.4,0,0.7-0.1,1.1-0.3C-5715.6-7274.8-5715.5-7275-5715.5-7275.3L-5715.5-7275.3z
		 M-5708.5-7274.2c-0.5,0.6-1.3,0.9-2,0.8c-0.6,0-1.2-0.2-1.7-0.6c-0.4-0.5-0.6-1.2-0.6-1.9v-4.5h1.2v4.4c0,1,0.4,1.6,1.3,1.6
		c0.7,0.1,1.5-0.3,1.8-1v-5h1.2v6.9h-1.1L-5708.5-7274.2z M-5704.3-7273.5h-1.2v-9.7h1.2V-7273.5z M-5700.8-7282v1.7h1.3v0.9h-1.3
		v4.3c0,0.2,0,0.4,0.2,0.6s0.4,0.2,0.6,0.2s0.4,0,0.6-0.1v0.9c-0.3,0.1-0.6,0.1-0.9,0.1c-0.4,0-0.9-0.1-1.2-0.5
		c-0.3-0.4-0.4-0.9-0.4-1.4v-4.3h-1.2v-0.9h1.2v-1.7h1.1V-7282z M-5693.9-7273.5c-0.1-0.2-0.1-0.5-0.2-0.7c-0.5,0.5-1.2,0.9-2,0.9
		c-0.6,0-1.2-0.2-1.7-0.6c-0.4-0.4-0.7-0.9-0.7-1.5c0-0.7,0.3-1.3,0.8-1.7c0.7-0.4,1.5-0.6,2.3-0.6h1.1v-0.5c0-0.4-0.1-0.7-0.4-1
		s-0.7-0.4-1.1-0.4s-0.7,0.1-1.1,0.3c-0.3,0.2-0.4,0.5-0.4,0.8h-1.2c0-0.4,0.1-0.7,0.4-1s0.6-0.6,1-0.8c0.4-0.2,0.9-0.3,1.4-0.3
		c0.7,0,1.3,0.2,1.9,0.6c0.5,0.4,0.7,1,0.7,1.6v3.2c0,0.5,0.1,1,0.2,1.5v0.1h-1V-7273.5z M-5695.9-7274.4c0.4,0,0.7-0.1,1-0.3
		c0.3-0.2,0.6-0.4,0.7-0.7v-1.4h-0.9c-1.4,0-2.2,0.4-2.2,1.3c0,0.3,0.1,0.6,0.4,0.9C-5696.6-7274.5-5696.2-7274.4-5695.9-7274.4z
		 M-5687.8-7279.3c-0.2,0-0.4,0-0.6,0c-0.7-0.1-1.3,0.3-1.6,1v4.9h-1.2v-6.9h1.1v0.8c0.3-0.6,1-0.9,1.6-0.9c0.2,0,0.4,0,0.5,0.1
		L-5687.8-7279.3z M-5733.2-7260.9c0,0.9-0.2,1.8-0.7,2.5c-0.4,0.6-1.2,1-1.9,1c-0.7,0-1.5-0.3-2-0.8v3.3h-1.2v-9.5h1.1l0.1,0.8
		c0.5-0.6,1.2-0.9,2-0.9s1.5,0.3,2,0.9c0.5,0.8,0.8,1.7,0.7,2.6L-5733.2-7260.9z M-5734.4-7261c0-0.6-0.1-1.3-0.5-1.8
		c-0.3-0.4-0.8-0.7-1.4-0.7c-0.7,0-1.3,0.3-1.6,0.9v3.3c0.3,0.6,0.9,1,1.6,0.9c0.5,0,1-0.2,1.3-0.7
		C-5734.5-7259.6-5734.3-7260.3-5734.4-7261L-5734.4-7261z M-5728.4-7263.3c-0.2,0-0.4,0-0.6,0c-0.7-0.1-1.3,0.3-1.6,1v4.9h-1.2
		v-6.9h1.1v0.8c0.3-0.6,1-0.9,1.6-0.9c0.2,0,0.4,0,0.5,0.1v1H-5728.4z M-5727.7-7261c0-0.6,0.1-1.2,0.4-1.8c0.2-0.5,0.6-0.9,1.1-1.2
		c0.5-0.3,1-0.5,1.6-0.4c0.9,0,1.7,0.3,2.3,1c0.6,0.7,0.9,1.6,0.9,2.6v0.1c0,0.6-0.1,1.2-0.4,1.8c-0.2,0.5-0.6,0.9-1.1,1.2
		c-0.5,0.3-1.1,0.5-1.6,0.4c-0.9,0-1.7-0.3-2.3-1C-5727.5-7259.1-5727.8-7260-5727.7-7261L-5727.7-7261z M-5726.5-7260.9
		c0,0.7,0.2,1.3,0.5,1.8c0.6,0.8,1.7,0.9,2.5,0.3c0.1-0.1,0.2-0.2,0.3-0.3c0.4-0.6,0.6-1.3,0.5-2c0-0.7-0.2-1.3-0.5-1.8
		s-0.9-0.7-1.4-0.7c-0.6,0-1.1,0.2-1.4,0.7C-5726.4-7262.3-5726.6-7261.6-5726.5-7260.9L-5726.5-7260.9z M-5719.4-7257.5v-6h-1.1
		v-0.9h1.1v-0.7c0-0.6,0.2-1.2,0.6-1.7c0.4-0.4,1.1-0.6,1.7-0.6c0.3,0,0.5,0,0.8,0.1l-0.1,0.9c-0.2,0-0.4-0.1-0.6-0.1
		c-0.3,0-0.6,0.1-0.9,0.3c-0.2,0.3-0.3,0.6-0.3,1v0.7h1.5v0.9h-1.5v6h-1.2V-7257.5z M-5712.8-7257.4c-0.9,0-1.7-0.3-2.3-0.9
		c-0.6-0.7-0.9-1.6-0.9-2.5v-0.2c0-0.6,0.1-1.3,0.4-1.8c0.2-0.5,0.6-0.9,1.1-1.3c0.5-0.3,1-0.5,1.5-0.5c0.8,0,1.6,0.3,2.1,0.9
		c0.5,0.7,0.8,1.6,0.7,2.5v0.5h-4.7c0,0.6,0.2,1.2,0.6,1.6s0.9,0.6,1.4,0.6c0.4,0,0.7-0.1,1.1-0.3c0.3-0.2,0.5-0.4,0.8-0.7l0.7,0.6
		C-5710.8-7257.8-5711.8-7257.3-5712.8-7257.4z M-5712.9-7263.5c-0.5,0-0.9,0.2-1.2,0.5c-0.3,0.4-0.6,0.9-0.6,1.5h3.4v-0.1
		c0-0.5-0.2-1-0.5-1.4S-5712.5-7263.5-5712.9-7263.5z M-5704.8-7259.3c0-0.3-0.1-0.6-0.4-0.7c-0.4-0.2-0.8-0.4-1.2-0.5
		c-0.5-0.1-1-0.2-1.4-0.5c-0.3-0.1-0.6-0.4-0.8-0.6c-0.2-0.3-0.3-0.6-0.3-0.9c0-0.6,0.3-1.1,0.7-1.4c0.5-0.4,1.2-0.6,1.8-0.6
		c0.7,0,1.4,0.2,1.9,0.6s0.7,0.9,0.7,1.5h-1.2c0-0.3-0.2-0.6-0.4-0.8c-0.3-0.2-0.7-0.4-1-0.3c-0.4,0-0.7,0.1-1,0.3
		c-0.2,0.2-0.4,0.4-0.4,0.7c0,0.3,0.1,0.5,0.3,0.6c0.4,0.2,0.8,0.3,1.2,0.4c0.5,0.1,1,0.3,1.4,0.5c0.3,0.1,0.6,0.4,0.8,0.7
		c0.2,0.3,0.3,0.6,0.3,0.9c0,0.6-0.3,1.1-0.7,1.5c-0.6,0.4-1.2,0.6-1.9,0.6c-0.5,0-1-0.1-1.5-0.3c-0.4-0.2-0.7-0.5-1-0.8
		c-0.2-0.3-0.4-0.7-0.4-1.1h1.2c0,0.4,0.2,0.7,0.5,0.9c0.3,0.2,0.7,0.4,1.2,0.3c0.4,0,0.7-0.1,1.1-0.3
		C-5704.9-7258.8-5704.8-7259-5704.8-7259.3z M-5702.4-7261c0-0.6,0.1-1.2,0.4-1.8c0.2-0.5,0.6-0.9,1.1-1.2c0.5-0.3,1-0.5,1.6-0.4
		c0.9,0,1.7,0.3,2.3,1c0.6,0.7,0.9,1.6,0.9,2.6v0.1c0,0.6-0.1,1.2-0.4,1.8c-0.2,0.5-0.6,0.9-1.1,1.2c-0.5,0.3-1.1,0.5-1.6,0.4
		c-0.9,0-1.7-0.3-2.3-1C-5702.1-7259.1-5702.4-7260-5702.4-7261L-5702.4-7261z M-5701.2-7260.9c0,0.7,0.2,1.3,0.5,1.8
		c0.6,0.8,1.7,0.9,2.5,0.3c0.1-0.1,0.2-0.2,0.3-0.3c0.4-0.6,0.6-1.3,0.5-2c0-0.7-0.2-1.3-0.5-1.8s-0.9-0.7-1.4-0.7
		c-0.6,0-1.1,0.2-1.4,0.7C-5701-7262.3-5701.2-7261.6-5701.2-7260.9L-5701.2-7260.9z M-5691.3-7263.3c-0.2,0-0.4,0-0.6,0
		c-0.7-0.1-1.3,0.3-1.6,1v4.9h-1.2v-6.9h1.1v0.8c0.3-0.6,1-0.9,1.6-0.9c0.2,0,0.4,0,0.5,0.1L-5691.3-7263.3z"/>
	<g id="Grupo_143334" transform="translate(-281.5 1579.5)">
		<path id="Sustracción_28" class="st1" d="M-5232-8871h107.1v43H-5232c11.9-0.2,21.4-9.9,21.2-21.8c-0.1-8.5-5.3-16.2-13.1-19.5
			C-5226.5-8870.4-5229.2-8871-5232-8871z"/>
		<circle id="Elipse_4875" class="st6" cx="-5229.5" cy="-8849.5" r="21.5"/>
		<g class="st7">
			<path class="st3" d="M-5196.5-8845v-9.2h3c1,0,1.8,0.2,2.3,0.6s0.8,1,0.8,1.8c0,0.4-0.1,0.8-0.4,1.1c-0.2,0.3-0.6,0.6-1,0.8
				c0.5,0.1,0.9,0.4,1.2,0.8s0.4,0.9,0.4,1.4c0,0.8-0.3,1.5-0.8,2s-1.3,0.7-2.3,0.7L-5196.5-8845L-5196.5-8845z M-5195.3-8850.3h1.8
				c0.5,0,1-0.1,1.3-0.4c0.3-0.3,0.5-0.6,0.5-1.1s-0.1-0.9-0.4-1.1c-0.3-0.2-0.7-0.3-1.4-0.3h-1.8V-8850.3z M-5195.3-8849.3v3.3h2
				c0.6,0,1-0.1,1.3-0.4s0.5-0.7,0.5-1.2c0-1.1-0.6-1.7-1.8-1.7L-5195.3-8849.3L-5195.3-8849.3z"/>
			<path class="st3" d="M-5188.6-8853.7c0-0.2,0.1-0.4,0.2-0.5s0.3-0.2,0.5-0.2s0.4,0.1,0.5,0.2c0.1,0.1,0.2,0.3,0.2,0.5
				s-0.1,0.3-0.2,0.5c-0.1,0.1-0.3,0.2-0.5,0.2s-0.4-0.1-0.5-0.2S-5188.6-8853.5-5188.6-8853.7z M-5187.3-8845h-1.2v-6.9h1.2V-8845z
				"/>
			<path class="st3" d="M-5179.6-8848.4c0,1-0.2,1.9-0.7,2.5s-1.1,1-1.9,1c-0.9,0-1.5-0.3-2-0.9l-0.1,0.8h-1.1v-9.8h1.2v3.6
				c0.5-0.6,1.1-0.9,2-0.9c0.8,0,1.5,0.3,2,0.9c0.5,0.6,0.7,1.5,0.7,2.6v0.2H-5179.6z M-5180.8-8848.5c0-0.8-0.2-1.4-0.5-1.9
				c-0.3-0.4-0.8-0.7-1.3-0.7c-0.8,0-1.3,0.4-1.7,1.1v3c0.4,0.7,0.9,1.1,1.7,1.1c0.6,0,1-0.2,1.3-0.7
				C-5181-8847-5180.8-8847.6-5180.8-8848.5z"/>
			<path class="st3" d="M-5176.9-8845h-1.2v-9.8h1.2V-8845z"/>
			<path class="st3" d="M-5175-8853.7c0-0.2,0.1-0.4,0.2-0.5s0.3-0.2,0.5-0.2s0.4,0.1,0.5,0.2c0.1,0.1,0.2,0.3,0.2,0.5
				s-0.1,0.3-0.2,0.5c-0.1,0.1-0.3,0.2-0.5,0.2s-0.4-0.1-0.5-0.2C-5174.9-8853.3-5175-8853.5-5175-8853.7z M-5173.7-8845h-1.2v-6.9
				h1.2V-8845z"/>
			<path class="st3" d="M-5172.2-8848.5c0-0.7,0.1-1.3,0.4-1.8s0.6-1,1.1-1.2c0.5-0.3,1-0.4,1.6-0.4c0.9,0,1.7,0.3,2.3,1
				c0.6,0.6,0.9,1.5,0.9,2.6v0.1c0,0.7-0.1,1.3-0.4,1.8s-0.6,0.9-1.1,1.2s-1,0.4-1.6,0.4c-0.9,0-1.7-0.3-2.3-1
				C-5171.9-8846.5-5172.2-8847.3-5172.2-8848.5L-5172.2-8848.5z M-5171-8848.4c0,0.8,0.2,1.4,0.5,1.8s0.8,0.7,1.4,0.7
				s1.1-0.2,1.4-0.7c0.4-0.5,0.5-1.1,0.5-2c0-0.8-0.2-1.4-0.5-1.8s-0.8-0.7-1.4-0.7s-1,0.2-1.4,0.7
				C-5170.8-8849.9-5171-8849.2-5171-8848.4z"/>
			<path class="st3" d="M-5162.8-8853.5v1.7h1.3v0.9h-1.3v4.3c0,0.3,0.1,0.5,0.2,0.6s0.3,0.2,0.6,0.2c0.1,0,0.3,0,0.6-0.1v0.9
				c-0.3,0.1-0.6,0.1-0.9,0.1c-0.5,0-0.9-0.2-1.2-0.5c-0.3-0.3-0.4-0.8-0.4-1.4v-4.3h-1.3v-0.9h1.3v-1.7h1.1V-8853.5z"/>
			<path class="st3" d="M-5157.3-8844.9c-0.9,0-1.7-0.3-2.3-0.9s-0.9-1.4-0.9-2.5v-0.2c0-0.7,0.1-1.3,0.4-1.8s0.6-1,1.1-1.3
				s1-0.5,1.5-0.5c0.9,0,1.6,0.3,2.1,0.9c0.5,0.6,0.7,1.4,0.7,2.5v0.5h-4.7c0,0.7,0.2,1.2,0.6,1.6s0.9,0.6,1.4,0.6
				c0.4,0,0.8-0.1,1.1-0.3c0.3-0.2,0.5-0.4,0.8-0.7l0.7,0.6C-5155.3-8845.3-5156.2-8844.9-5157.3-8844.9z M-5157.5-8851
				c-0.5,0-0.9,0.2-1.2,0.5c-0.3,0.3-0.5,0.8-0.6,1.5h3.4v-0.1c0-0.6-0.2-1.1-0.5-1.4C-5156.6-8850.9-5157-8851-5157.5-8851z"/>
			<path class="st3" d="M-5150.5-8845.8c0.4,0,0.8-0.1,1.1-0.4c0.3-0.3,0.5-0.6,0.5-1h1.1c0,0.4-0.2,0.8-0.4,1.1
				c-0.2,0.4-0.6,0.6-1,0.9s-0.9,0.3-1.3,0.3c-0.9,0-1.7-0.3-2.2-0.9c-0.6-0.6-0.8-1.5-0.8-2.6v-0.2c0-0.7,0.1-1.3,0.4-1.8
				c0.2-0.5,0.6-0.9,1.1-1.2s1-0.4,1.6-0.4c0.8,0,1.4,0.2,1.9,0.7s0.8,1.1,0.8,1.8h-1.1c0-0.4-0.2-0.8-0.5-1.1s-0.7-0.4-1.1-0.4
				c-0.6,0-1.1,0.2-1.4,0.6s-0.5,1-0.5,1.9v0.2c0,0.8,0.2,1.4,0.5,1.8C-5151.6-8846-5151.1-8845.8-5150.5-8845.8z"/>
			<path class="st3" d="M-5142.2-8845c-0.1-0.1-0.1-0.4-0.2-0.7c-0.5,0.6-1.2,0.9-2,0.9c-0.7,0-1.2-0.2-1.7-0.6
				c-0.4-0.4-0.7-0.9-0.7-1.5c0-0.7,0.3-1.3,0.8-1.7s1.3-0.6,2.3-0.6h1.1v-0.5c0-0.4-0.1-0.7-0.4-1c-0.2-0.2-0.6-0.4-1.1-0.4
				c-0.4,0-0.8,0.1-1.1,0.3c-0.3,0.2-0.4,0.5-0.4,0.8h-1.2c0-0.3,0.1-0.7,0.4-1s0.6-0.6,1-0.8s0.9-0.3,1.4-0.3
				c0.8,0,1.4,0.2,1.9,0.6c0.4,0.4,0.7,0.9,0.7,1.6v3.2c0,0.6,0.1,1.1,0.2,1.5v0.1h-1V-8845z M-5144.2-8845.9c0.4,0,0.7-0.1,1-0.3
				s0.6-0.4,0.7-0.7v-1.4h-0.9c-1.4,0-2.2,0.4-2.2,1.3c0,0.4,0.1,0.7,0.4,0.9C-5144.9-8846-5144.6-8845.9-5144.2-8845.9z"/>
		</g>
	</g>
	<path id="Trazado_198022" class="st8" d="M-5641.5-7207.5h79v44h-79V-7207.5z"/>
	<path id="Trazado_198023" class="st3" d="M-5622.9-7192.2h-2.2v3.7h-1.2v-9.2h3.1c0.9-0.1,1.7,0.2,2.4,0.7c0.6,0.5,0.9,1.3,0.8,2.1
		c0,0.5-0.1,1.1-0.5,1.5c-0.3,0.4-0.8,0.8-1.3,1l2.2,3.9v0.1h-1.3L-5622.9-7192.2z M-5625.1-7193.2h1.9c0.5,0,1-0.1,1.4-0.5
		c0.4-0.3,0.6-0.8,0.5-1.3c0-0.5-0.2-1-0.5-1.3c-0.4-0.3-0.9-0.5-1.5-0.5h-1.9L-5625.1-7193.2z M-5615.7-7188.4
		c-0.9,0-1.7-0.3-2.3-0.9c-0.6-0.7-0.9-1.6-0.9-2.5v-0.2c0-0.6,0.1-1.3,0.4-1.8c0.2-0.5,0.6-0.9,1.1-1.3c0.5-0.3,1-0.5,1.5-0.5
		c0.8,0,1.6,0.3,2.1,0.9c0.5,0.7,0.8,1.6,0.7,2.5v0.5h-4.7c0,0.6,0.2,1.2,0.6,1.6s0.9,0.6,1.4,0.6c0.4,0,0.7-0.1,1.1-0.3
		c0.3-0.2,0.5-0.4,0.8-0.7l0.7,0.6C-5613.6-7188.8-5614.6-7188.3-5615.7-7188.4L-5615.7-7188.4z M-5615.8-7194.5
		c-0.5,0-0.9,0.2-1.2,0.5c-0.3,0.4-0.6,0.9-0.6,1.5h3.4v-0.1c0-0.5-0.2-1-0.5-1.4C-5614.9-7194.4-5615.4-7194.5-5615.8-7194.5z
		 M-5611.9-7192c0-0.9,0.2-1.8,0.7-2.5c0.9-1.1,2.5-1.3,3.6-0.4c0.1,0.1,0.2,0.2,0.3,0.3v-3.6h1.2v9.8h-1.1l-0.1-0.7
		c-0.5,0.6-1.2,0.9-2,0.9s-1.5-0.4-1.9-1C-5611.7-7190.1-5612-7191-5611.9-7192L-5611.9-7192z M-5610.7-7191.9
		c0,0.6,0.1,1.3,0.5,1.8c0.3,0.4,0.8,0.7,1.3,0.7c0.7,0,1.3-0.4,1.6-1v-3.2c-0.3-0.6-0.9-1-1.6-1c-0.5,0-1,0.2-1.3,0.7
		C-5610.6-7193.2-5610.8-7192.6-5610.7-7191.9L-5610.7-7191.9z M-5600.1-7188.5c-0.1-0.2-0.1-0.5-0.2-0.7c-0.5,0.5-1.2,0.9-2,0.9
		c-0.6,0-1.2-0.2-1.7-0.6c-0.4-0.4-0.7-0.9-0.7-1.5c0-0.7,0.3-1.3,0.8-1.7c0.7-0.4,1.5-0.6,2.3-0.6h1.1v-0.5c0-0.4-0.1-0.7-0.4-1
		s-0.7-0.4-1.1-0.4s-0.7,0.1-1.1,0.3c-0.3,0.2-0.4,0.5-0.4,0.8h-1.2c0-0.4,0.1-0.7,0.4-1s0.6-0.6,1-0.8c0.4-0.2,0.9-0.3,1.4-0.3
		c0.7,0,1.3,0.2,1.9,0.6c0.5,0.4,0.7,1,0.7,1.6v3.2c0,0.5,0.1,1,0.2,1.5v0.1h-1V-7188.5z M-5602-7189.4c0.4,0,0.7-0.1,1-0.3
		c0.3-0.2,0.6-0.4,0.7-0.7v-1.4h-0.9c-1.4,0-2.2,0.4-2.2,1.3c0,0.3,0.1,0.6,0.4,0.9C-5602.7-7189.5-5602.3-7189.4-5602-7189.4z
		 M-5594.5-7189.3c0.4,0,0.8-0.1,1.1-0.4c0.3-0.2,0.5-0.6,0.5-1h1.1c0,0.4-0.2,0.8-0.4,1.1c-0.3,0.4-0.6,0.7-1,0.9
		c-0.4,0.2-0.9,0.3-1.3,0.3c-0.8,0-1.7-0.3-2.2-0.9c-0.6-0.7-0.9-1.6-0.8-2.6v-0.2c0-0.6,0.1-1.2,0.4-1.8c0.2-0.5,0.6-0.9,1.1-1.2
		c0.5-0.3,1.1-0.4,1.6-0.4c0.7,0,1.4,0.2,1.9,0.7s0.8,1.1,0.8,1.8h-1.1c0-0.4-0.2-0.8-0.5-1.1c-0.3-0.3-0.7-0.4-1.1-0.4
		c-0.5,0-1.1,0.2-1.4,0.6c-0.4,0.6-0.5,1.2-0.5,1.9v0.2c0,0.6,0.1,1.3,0.5,1.8C-5595.5-7189.5-5595-7189.3-5594.5-7189.3
		L-5594.5-7189.3z M-5588.8-7197v1.7h1.3v0.9h-1.3v4.3c0,0.2,0,0.4,0.2,0.6s0.4,0.2,0.6,0.2s0.4,0,0.6-0.1v0.9
		c-0.3,0.1-0.6,0.1-0.9,0.1c-0.4,0-0.9-0.1-1.2-0.5c-0.3-0.4-0.4-0.9-0.4-1.4v-4.3h-1.2v-0.9h1.2v-1.7L-5588.8-7197z
		 M-5581.9-7188.5c-0.1-0.2-0.1-0.5-0.2-0.7c-0.5,0.5-1.2,0.9-2,0.9c-0.6,0-1.2-0.2-1.7-0.6c-0.4-0.4-0.7-0.9-0.7-1.5
		c0-0.7,0.3-1.3,0.8-1.7c0.7-0.4,1.5-0.6,2.3-0.6h1.1v-0.5c0-0.4-0.1-0.7-0.4-1s-0.7-0.4-1.1-0.4s-0.7,0.1-1.1,0.3
		c-0.3,0.2-0.4,0.5-0.4,0.8h-1.2c0-0.4,0.1-0.7,0.4-1s0.6-0.6,1-0.8c0.4-0.2,0.9-0.3,1.4-0.3c0.7,0,1.3,0.2,1.9,0.6
		c0.5,0.4,0.7,1,0.7,1.6v3.2c0,0.5,0.1,1,0.2,1.5v0.1h-1V-7188.5z M-5583.9-7189.4c0.4,0,0.7-0.1,1-0.3c0.3-0.2,0.6-0.4,0.7-0.7
		v-1.4h-0.9c-1.4,0-2.2,0.4-2.2,1.3c0,0.3,0.1,0.6,0.4,0.9C-5584.6-7189.5-5584.2-7189.4-5583.9-7189.4z M-5575.8-7194.3
		c-0.2,0-0.4,0-0.6,0c-0.7-0.1-1.3,0.3-1.6,1v4.9h-1.2v-6.9h1.1v0.8c0.3-0.6,1-0.9,1.6-0.9c0.2,0,0.4,0,0.5,0.1L-5575.8-7194.3z
		 M-5619.2-7181v1.7h1.3v0.9h-1.3v4.3c0,0.2,0,0.4,0.2,0.6s0.4,0.2,0.6,0.2s0.4,0,0.6-0.1v0.9c-0.3,0.1-0.6,0.1-0.9,0.1
		c-0.4,0-0.9-0.1-1.2-0.5c-0.3-0.4-0.4-0.9-0.4-1.4v-4.3h-1.3v-0.9h1.2v-1.7h1.2V-7181z M-5613.2-7178.3c-0.2,0-0.4,0-0.6,0
		c-0.7-0.1-1.3,0.3-1.6,1v4.9h-1.2v-6.9h1.1v0.8c0.3-0.6,1-0.9,1.6-0.9c0.2,0,0.4,0,0.5,0.1L-5613.2-7178.3z M-5608.2-7172.5
		c-0.1-0.2-0.1-0.5-0.2-0.7c-0.5,0.5-1.2,0.9-2,0.9c-0.6,0-1.2-0.2-1.7-0.6c-0.4-0.4-0.7-0.9-0.7-1.5c0-0.7,0.3-1.3,0.8-1.7
		c0.7-0.4,1.5-0.6,2.3-0.6h1.1v-0.5c0-0.4-0.1-0.7-0.4-1s-0.7-0.4-1.1-0.4s-0.7,0.1-1.1,0.3c-0.3,0.2-0.4,0.5-0.4,0.8h-1.2
		c0-0.4,0.1-0.7,0.4-1s0.6-0.6,1-0.8c0.4-0.2,0.9-0.3,1.4-0.3c0.7,0,1.3,0.2,1.9,0.6c0.5,0.4,0.7,1,0.7,1.6v3.2c0,0.5,0.1,1,0.2,1.5
		v0.1h-1V-7172.5z M-5610.1-7173.4c0.4,0,0.7-0.1,1-0.3c0.3-0.2,0.6-0.4,0.7-0.7v-1.4h-0.9c-1.4,0-2.2,0.4-2.2,1.3
		c0,0.3,0.1,0.6,0.4,0.9C-5610.8-7173.5-5610.4-7173.4-5610.1-7173.4z M-5599.5-7175.9c0,0.9-0.2,1.8-0.7,2.5c-0.4,0.6-1.2,1-1.9,1
		c-0.8,0-1.5-0.3-2-0.9l-0.1,0.8h-1.1v-9.8h1.2v3.6c0.5-0.6,1.2-0.9,2-0.9s1.5,0.3,2,0.9c0.5,0.8,0.8,1.7,0.7,2.6L-5599.5-7175.9z
		 M-5600.7-7176c0-0.7-0.1-1.3-0.5-1.9c-0.3-0.4-0.8-0.7-1.3-0.6c-0.7,0-1.4,0.4-1.7,1.1v3c0.3,0.7,1,1.1,1.7,1.1
		c0.5,0,1-0.2,1.3-0.7C-5600.8-7174.6-5600.6-7175.3-5600.7-7176L-5600.7-7176z M-5593.8-7172.5c-0.1-0.2-0.1-0.5-0.2-0.7
		c-0.5,0.5-1.2,0.9-2,0.9c-0.6,0-1.2-0.2-1.7-0.6c-0.4-0.4-0.7-0.9-0.7-1.5c0-0.7,0.3-1.3,0.8-1.7c0.7-0.4,1.5-0.6,2.3-0.6h1.1v-0.5
		c0-0.4-0.1-0.7-0.4-1s-0.7-0.4-1.1-0.4s-0.7,0.1-1.1,0.3c-0.3,0.2-0.4,0.5-0.4,0.8h-1.2c0-0.4,0.1-0.7,0.4-1s0.6-0.6,1-0.8
		c0.4-0.2,0.9-0.3,1.4-0.3c0.7,0,1.3,0.2,1.9,0.6c0.5,0.4,0.7,1,0.7,1.6v3.2c0,0.5,0.1,1,0.2,1.5v0.1h-1V-7172.5z M-5595.7-7173.4
		c0.4,0,0.7-0.1,1-0.3c0.3-0.2,0.6-0.4,0.7-0.7v-1.4h-0.9c-1.4,0-2.2,0.4-2.2,1.3c0,0.3,0.1,0.6,0.4,0.9
		C-5596.4-7173.5-5596.1-7173.4-5595.7-7173.4L-5595.7-7173.4z M-5589.7-7179.4v7.7c0,1.3-0.6,2-1.8,2c-0.2,0-0.5,0-0.7-0.1v-0.9
		c0.2,0,0.4,0.1,0.5,0.1c0.2,0,0.4-0.1,0.6-0.2c0.2-0.2,0.2-0.5,0.2-0.7v-7.7L-5589.7-7179.4z M-5591-7181.2c0-0.2,0.1-0.3,0.2-0.5
		c0.1-0.1,0.3-0.2,0.5-0.2s0.4,0.1,0.5,0.2s0.2,0.3,0.2,0.5s-0.1,0.3-0.2,0.5c-0.1,0.1-0.3,0.2-0.5,0.2s-0.4-0.1-0.5-0.2
		C-5591-7180.8-5591-7181-5591-7181.2z M-5588.2-7176c0-0.6,0.1-1.2,0.4-1.8c0.2-0.5,0.6-0.9,1.1-1.2c0.5-0.3,1-0.5,1.6-0.4
		c0.9,0,1.7,0.3,2.3,1c0.6,0.7,0.9,1.6,0.9,2.6v0.1c0,0.6-0.1,1.2-0.4,1.8c-0.2,0.5-0.6,0.9-1.1,1.2c-0.5,0.3-1.1,0.5-1.6,0.4
		c-0.9,0-1.7-0.3-2.3-1C-5587.9-7174.1-5588.2-7175-5588.2-7176L-5588.2-7176z M-5587-7175.9c0,0.7,0.2,1.3,0.5,1.8
		c0.6,0.8,1.7,0.9,2.5,0.3c0.1-0.1,0.2-0.2,0.3-0.3c0.4-0.6,0.6-1.3,0.5-2c0-0.7-0.2-1.3-0.5-1.8s-0.9-0.7-1.4-0.7
		c-0.6,0-1.1,0.2-1.4,0.7C-5586.8-7177.3-5587-7176.6-5587-7175.9L-5587-7175.9z"/>
	<path id="Trazado_198024" class="st8" d="M-5856.5-7251.5h88v44h-88V-7251.5z"/>
	<path id="Trazado_198025" class="st3" d="M-5833.9-7236.2h-2.2v3.7h-1.2v-9.2h3.1c0.9-0.1,1.7,0.2,2.4,0.7c0.6,0.5,0.9,1.3,0.8,2.1
		c0,0.5-0.1,1.1-0.5,1.5c-0.3,0.4-0.8,0.8-1.3,1l2.2,3.9v0.1h-1.3L-5833.9-7236.2z M-5836.1-7237.2h1.9c0.5,0,1-0.1,1.4-0.5
		c0.4-0.3,0.6-0.8,0.5-1.3c0-0.5-0.2-1-0.5-1.3c-0.4-0.3-0.9-0.5-1.5-0.5h-1.9L-5836.1-7237.2z M-5826.7-7232.4
		c-0.9,0-1.7-0.3-2.3-0.9c-0.6-0.7-0.9-1.6-0.9-2.5v-0.2c0-0.6,0.1-1.3,0.4-1.8c0.2-0.5,0.6-0.9,1.1-1.3c0.5-0.3,1-0.5,1.5-0.5
		c0.8,0,1.6,0.3,2.1,0.9c0.5,0.7,0.8,1.6,0.7,2.5v0.5h-4.7c0,0.6,0.2,1.2,0.6,1.6s0.9,0.6,1.4,0.6c0.4,0,0.7-0.1,1.1-0.3
		c0.3-0.2,0.5-0.4,0.8-0.7l0.7,0.6C-5824.6-7232.8-5825.6-7232.3-5826.7-7232.4L-5826.7-7232.4z M-5826.8-7238.5
		c-0.5,0-0.9,0.2-1.2,0.5c-0.3,0.4-0.6,0.9-0.6,1.5h3.4v-0.1c0-0.5-0.2-1-0.5-1.4C-5825.9-7238.4-5826.4-7238.5-5826.8-7238.5z
		 M-5822.9-7236c0-0.9,0.2-1.8,0.7-2.5c0.9-1.1,2.5-1.3,3.6-0.4c0.1,0.1,0.2,0.2,0.3,0.3v-3.6h1.2v9.8h-1.1l-0.1-0.7
		c-0.5,0.6-1.2,0.9-2,0.9s-1.5-0.4-1.9-1C-5822.7-7234.1-5823-7235-5822.9-7236L-5822.9-7236z M-5821.7-7235.9
		c0,0.6,0.1,1.3,0.5,1.8c0.3,0.4,0.8,0.7,1.3,0.7c0.7,0,1.3-0.4,1.6-1v-3.2c-0.3-0.6-0.9-1-1.6-1c-0.5,0-1,0.2-1.3,0.7
		C-5821.6-7237.2-5821.8-7236.6-5821.7-7235.9L-5821.7-7235.9z M-5811.1-7232.5c-0.1-0.2-0.1-0.5-0.2-0.7c-0.5,0.5-1.2,0.9-2,0.9
		c-0.6,0-1.2-0.2-1.7-0.6c-0.4-0.4-0.7-0.9-0.7-1.5c0-0.7,0.3-1.3,0.8-1.7c0.7-0.4,1.5-0.6,2.3-0.6h1.1v-0.5c0-0.4-0.1-0.7-0.4-1
		s-0.7-0.4-1.1-0.4s-0.7,0.1-1.1,0.3c-0.3,0.2-0.4,0.5-0.4,0.8h-1.2c0-0.4,0.1-0.7,0.4-1s0.6-0.6,1-0.8c0.4-0.2,0.9-0.3,1.4-0.3
		c0.7,0,1.3,0.2,1.9,0.6c0.5,0.4,0.7,1,0.7,1.6v3.2c0,0.5,0.1,1,0.2,1.5v0.1h-1V-7232.5z M-5813-7233.4c0.4,0,0.7-0.1,1-0.3
		c0.3-0.2,0.6-0.4,0.7-0.7v-1.4h-0.9c-1.4,0-2.2,0.4-2.2,1.3c0,0.3,0.1,0.6,0.4,0.9C-5813.7-7233.5-5813.3-7233.4-5813-7233.4z
		 M-5805.5-7233.3c0.4,0,0.8-0.1,1.1-0.4c0.3-0.2,0.5-0.6,0.5-1h1.1c0,0.4-0.2,0.8-0.4,1.1c-0.3,0.4-0.6,0.7-1,0.9
		c-0.4,0.2-0.9,0.3-1.3,0.3c-0.8,0-1.7-0.3-2.2-0.9c-0.6-0.7-0.9-1.6-0.8-2.6v-0.2c0-0.6,0.1-1.2,0.4-1.8c0.2-0.5,0.6-0.9,1.1-1.2
		c0.5-0.3,1.1-0.4,1.6-0.4c0.7,0,1.4,0.2,1.9,0.7s0.8,1.1,0.8,1.8h-1.1c0-0.4-0.2-0.8-0.5-1.1c-0.3-0.3-0.7-0.4-1.1-0.4
		c-0.5,0-1.1,0.2-1.4,0.6c-0.4,0.6-0.5,1.2-0.5,1.9v0.2c0,0.6,0.1,1.3,0.5,1.8C-5806.5-7233.5-5806-7233.3-5805.5-7233.3
		L-5805.5-7233.3z M-5799.8-7241v1.7h1.3v0.9h-1.3v4.3c0,0.2,0,0.4,0.2,0.6s0.4,0.2,0.6,0.2s0.4,0,0.6-0.1v0.9
		c-0.3,0.1-0.6,0.1-0.9,0.1c-0.4,0-0.9-0.1-1.2-0.5c-0.3-0.4-0.4-0.9-0.4-1.4v-4.3h-1.2v-0.9h1.2v-1.7L-5799.8-7241z
		 M-5792.9-7232.5c-0.1-0.2-0.1-0.5-0.2-0.7c-0.5,0.5-1.2,0.9-2,0.9c-0.6,0-1.2-0.2-1.7-0.6c-0.4-0.4-0.7-0.9-0.7-1.5
		c0-0.7,0.3-1.3,0.8-1.7c0.7-0.4,1.5-0.6,2.3-0.6h1.1v-0.5c0-0.4-0.1-0.7-0.4-1s-0.7-0.4-1.1-0.4s-0.7,0.1-1.1,0.3
		c-0.3,0.2-0.4,0.5-0.4,0.8h-1.2c0-0.4,0.1-0.7,0.4-1s0.6-0.6,1-0.8c0.4-0.2,0.9-0.3,1.4-0.3c0.7,0,1.3,0.2,1.9,0.6
		c0.5,0.4,0.7,1,0.7,1.6v3.2c0,0.5,0.1,1,0.2,1.5v0.1h-1V-7232.5z M-5794.9-7233.4c0.4,0,0.7-0.1,1-0.3c0.3-0.2,0.6-0.4,0.7-0.7
		v-1.4h-0.9c-1.4,0-2.2,0.4-2.2,1.3c0,0.3,0.1,0.6,0.4,0.9C-5795.6-7233.5-5795.2-7233.4-5794.9-7233.4z M-5786.8-7238.3
		c-0.2,0-0.4,0-0.6,0c-0.7-0.1-1.3,0.3-1.6,1v4.9h-1.2v-6.9h1.1v0.8c0.3-0.6,1-0.9,1.6-0.9c0.2,0,0.4,0,0.5,0.1L-5786.8-7238.3z
		 M-5830.2-7225v1.7h1.3v0.9h-1.3v4.3c0,0.2,0,0.4,0.2,0.6s0.4,0.2,0.6,0.2s0.4,0,0.6-0.1v0.9c-0.3,0.1-0.6,0.1-0.9,0.1
		c-0.4,0-0.9-0.1-1.2-0.5c-0.3-0.4-0.4-0.9-0.4-1.4v-4.3h-1.3v-0.9h1.2v-1.7h1.2V-7225z M-5824.2-7222.3c-0.2,0-0.4,0-0.6,0
		c-0.7-0.1-1.3,0.3-1.6,1v4.9h-1.2v-6.9h1.1v0.8c0.3-0.6,1-0.9,1.6-0.9c0.2,0,0.4,0,0.5,0.1L-5824.2-7222.3z M-5819.2-7216.5
		c-0.1-0.2-0.1-0.5-0.2-0.7c-0.5,0.5-1.2,0.9-2,0.9c-0.6,0-1.2-0.2-1.7-0.6c-0.4-0.4-0.7-0.9-0.7-1.5c0-0.7,0.3-1.3,0.8-1.7
		c0.7-0.4,1.5-0.6,2.3-0.6h1.1v-0.5c0-0.4-0.1-0.7-0.4-1s-0.7-0.4-1.1-0.4s-0.7,0.1-1.1,0.3c-0.3,0.2-0.4,0.5-0.4,0.8h-1.2
		c0-0.4,0.1-0.7,0.4-1s0.6-0.6,1-0.8c0.4-0.2,0.9-0.3,1.4-0.3c0.7,0,1.3,0.2,1.9,0.6c0.5,0.4,0.7,1,0.7,1.6v3.2c0,0.5,0.1,1,0.2,1.5
		v0.1h-1V-7216.5z M-5821.1-7217.4c0.4,0,0.7-0.1,1-0.3c0.3-0.2,0.6-0.4,0.7-0.7v-1.4h-0.9c-1.4,0-2.2,0.4-2.2,1.3
		c0,0.3,0.1,0.6,0.4,0.9C-5821.8-7217.5-5821.4-7217.4-5821.1-7217.4z M-5810.5-7219.9c0,0.9-0.2,1.8-0.7,2.5c-0.4,0.6-1.2,1-1.9,1
		c-0.8,0-1.5-0.3-2-0.9l-0.1,0.8h-1.1v-9.8h1.2v3.6c0.5-0.6,1.2-0.9,2-0.9s1.5,0.3,2,0.9c0.5,0.8,0.8,1.7,0.7,2.6L-5810.5-7219.9z
		 M-5811.7-7220c0-0.7-0.1-1.3-0.5-1.9c-0.3-0.4-0.8-0.7-1.3-0.6c-0.7,0-1.4,0.4-1.7,1.1v3c0.3,0.7,1,1.1,1.7,1.1
		c0.5,0,1-0.2,1.3-0.7C-5811.8-7218.6-5811.6-7219.3-5811.7-7220L-5811.7-7220z M-5804.8-7216.5c-0.1-0.2-0.1-0.5-0.2-0.7
		c-0.5,0.5-1.2,0.9-2,0.9c-0.6,0-1.2-0.2-1.7-0.6c-0.4-0.4-0.7-0.9-0.7-1.5c0-0.7,0.3-1.3,0.8-1.7c0.7-0.4,1.5-0.6,2.3-0.6h1.1v-0.5
		c0-0.4-0.1-0.7-0.4-1s-0.7-0.4-1.1-0.4s-0.7,0.1-1.1,0.3c-0.3,0.2-0.4,0.5-0.4,0.8h-1.2c0-0.4,0.1-0.7,0.4-1s0.6-0.6,1-0.8
		c0.4-0.2,0.9-0.3,1.4-0.3c0.7,0,1.3,0.2,1.9,0.6c0.5,0.4,0.7,1,0.7,1.6v3.2c0,0.5,0.1,1,0.2,1.5v0.1h-1V-7216.5z M-5806.7-7217.4
		c0.4,0,0.7-0.1,1-0.3c0.3-0.2,0.6-0.4,0.7-0.7v-1.4h-0.9c-1.4,0-2.2,0.4-2.2,1.3c0,0.3,0.1,0.6,0.4,0.9
		C-5807.4-7217.5-5807.1-7217.4-5806.7-7217.4L-5806.7-7217.4z M-5800.7-7223.4v7.7c0,1.3-0.6,2-1.8,2c-0.2,0-0.5,0-0.7-0.1v-0.9
		c0.2,0,0.4,0.1,0.5,0.1c0.2,0,0.4-0.1,0.6-0.2c0.2-0.2,0.2-0.5,0.2-0.7v-7.7L-5800.7-7223.4z M-5802-7225.2c0-0.2,0.1-0.3,0.2-0.5
		c0.1-0.1,0.3-0.2,0.5-0.2s0.4,0.1,0.5,0.2s0.2,0.3,0.2,0.5s-0.1,0.3-0.2,0.5c-0.1,0.1-0.3,0.2-0.5,0.2s-0.4-0.1-0.5-0.2
		C-5802-7224.8-5802-7225-5802-7225.2z M-5799.2-7220c0-0.6,0.1-1.2,0.4-1.8c0.2-0.5,0.6-0.9,1.1-1.2c0.5-0.3,1-0.5,1.6-0.4
		c0.9,0,1.7,0.3,2.3,1c0.6,0.7,0.9,1.6,0.9,2.6v0.1c0,0.6-0.1,1.2-0.4,1.8c-0.2,0.5-0.6,0.9-1.1,1.2c-0.5,0.3-1.1,0.5-1.6,0.4
		c-0.9,0-1.7-0.3-2.3-1C-5798.9-7218.1-5799.2-7219-5799.2-7220L-5799.2-7220z M-5798-7219.9c0,0.7,0.2,1.3,0.5,1.8
		c0.6,0.8,1.7,0.9,2.5,0.3c0.1-0.1,0.2-0.2,0.3-0.3c0.4-0.6,0.6-1.3,0.5-2c0-0.7-0.2-1.3-0.5-1.8s-0.9-0.7-1.4-0.7
		c-0.6,0-1.1,0.2-1.4,0.7C-5797.8-7221.3-5798-7220.6-5798-7219.9L-5798-7219.9z"/>
	<path id="Trazado_198026" class="st9" d="M-5812-7331.5l-82.5-72h165L-5812-7331.5z"/>
	<path id="Trazado_198027" class="st3" d="M-5822.5-7393.7h-3v8.2h-1.2v-8.2h-3v-1h7.1v1H-5822.5z M-5819.1-7385.4
		c-0.9,0-1.7-0.3-2.3-0.9c-0.6-0.7-0.9-1.6-0.9-2.5v-0.2c0-0.6,0.1-1.3,0.4-1.8c0.2-0.5,0.6-0.9,1.1-1.3c0.5-0.3,1-0.5,1.5-0.5
		c0.8,0,1.6,0.3,2.1,0.9c0.5,0.7,0.8,1.6,0.7,2.5v0.5h-4.7c0,0.6,0.2,1.2,0.6,1.6s0.9,0.6,1.4,0.6c0.4,0,0.7-0.1,1.1-0.3
		c0.3-0.2,0.5-0.4,0.8-0.7l0.7,0.6C-5817.1-7385.8-5818-7385.3-5819.1-7385.4z M-5819.2-7391.5c-0.5,0-0.9,0.2-1.2,0.5
		c-0.3,0.4-0.6,0.9-0.6,1.5h3.4v-0.1c0-0.5-0.2-1-0.5-1.4C-5818.4-7391.4-5818.8-7391.5-5819.2-7391.5z M-5813.9-7392.4v0.9
		c0.5-0.6,1.2-1,2.1-1c1.5,0,2.2,0.8,2.2,2.5v4.5h-1.2v-4.5c0-0.4-0.1-0.8-0.3-1.1c-0.3-0.3-0.7-0.4-1-0.4c-0.4,0-0.7,0.1-1,0.3
		c-0.3,0.2-0.5,0.5-0.7,0.8v4.9h-1.2v-6.9L-5813.9-7392.4L-5813.9-7392.4z M-5808.1-7389c0-0.9,0.2-1.8,0.7-2.6
		c0.9-1.1,2.5-1.3,3.6-0.4c0.1,0.1,0.2,0.2,0.3,0.3l0.1-0.8h1.1v6.7c0,0.8-0.2,1.5-0.8,2.1c-0.6,0.5-1.3,0.8-2.1,0.8
		c-0.5,0-1-0.1-1.5-0.3c-0.4-0.2-0.8-0.5-1.1-0.9l0.6-0.7c0.4,0.6,1.1,0.9,1.8,0.9c0.5,0,1-0.1,1.3-0.5s0.5-0.9,0.5-1.4v-0.6
		c-0.5,0.5-1.2,0.8-1.9,0.8c-0.8,0-1.5-0.3-2-1C-5807.9-7387.1-5808.2-7388-5808.1-7389z M-5807-7388.9c0,0.6,0.1,1.3,0.5,1.8
		c0.3,0.4,0.8,0.7,1.3,0.7c0.7,0,1.3-0.4,1.6-1v-3.1c-0.3-0.6-0.9-1-1.6-1c-0.5,0-1,0.2-1.3,0.7
		C-5806.8-7390.2-5807-7389.6-5807-7388.9z M-5800.9-7389c0-0.6,0.1-1.2,0.4-1.8c0.2-0.5,0.6-0.9,1.1-1.2c0.5-0.3,1-0.5,1.6-0.4
		c0.9,0,1.7,0.3,2.3,1c0.6,0.7,0.9,1.6,0.9,2.6v0.1c0,0.6-0.1,1.2-0.4,1.8c-0.2,0.5-0.6,0.9-1.1,1.2c-0.5,0.3-1.1,0.5-1.6,0.4
		c-0.9,0-1.7-0.3-2.3-1C-5800.6-7387.1-5800.9-7388-5800.9-7389L-5800.9-7389z M-5799.7-7388.9c0,0.7,0.2,1.3,0.5,1.8
		c0.6,0.8,1.7,0.9,2.5,0.3c0.1-0.1,0.2-0.2,0.3-0.3c0.4-0.6,0.6-1.3,0.5-2c0-0.7-0.2-1.3-0.5-1.8s-0.9-0.7-1.4-0.7
		c-0.6,0-1.1,0.2-1.4,0.7C-5799.6-7390.3-5799.8-7389.6-5799.7-7388.9L-5799.7-7388.9z M-5844.7-7369.5h-1.2v-6.9h1.2V-7369.5z
		 M-5845.9-7378.2c0-0.2,0.1-0.3,0.2-0.5c0.1-0.1,0.3-0.2,0.5-0.2s0.4,0.1,0.5,0.2s0.2,0.3,0.2,0.5s-0.1,0.3-0.2,0.5
		c-0.1,0.1-0.3,0.2-0.5,0.2s-0.4-0.1-0.5-0.2C-5845.9-7377.8-5845.9-7378-5845.9-7378.2z M-5841.7-7376.4v0.9c0.5-0.6,1.2-1,2.1-1
		c1.5,0,2.2,0.8,2.2,2.5v4.5h-1.2v-4.5c0-0.4-0.1-0.8-0.3-1.1c-0.3-0.3-0.7-0.4-1-0.4c-0.4,0-0.7,0.1-1,0.3
		c-0.3,0.2-0.5,0.5-0.7,0.8v4.9h-1.2v-6.9L-5841.7-7376.4L-5841.7-7376.4z M-5835-7369.5v-6h-1.1v-0.9h1.1v-0.7
		c0-0.6,0.2-1.2,0.6-1.7c0.4-0.4,1.1-0.6,1.7-0.6c0.3,0,0.5,0,0.8,0.1l-0.1,0.9c-0.2,0-0.4-0.1-0.6-0.1c-0.3,0-0.6,0.1-0.9,0.3
		c-0.2,0.3-0.3,0.6-0.3,1v0.7h1.5v0.9h-1.5v6h-1.2V-7369.5z M-5831.4-7373c0-0.6,0.1-1.2,0.4-1.8c0.2-0.5,0.6-0.9,1.1-1.2
		c0.5-0.3,1-0.4,1.6-0.4c0.9,0,1.7,0.3,2.3,1c0.6,0.7,0.9,1.6,0.9,2.6v0.1c0,0.6-0.1,1.2-0.4,1.8c-0.2,0.5-0.6,0.9-1.1,1.2
		c-0.5,0.3-1.1,0.5-1.6,0.4c-0.9,0-1.7-0.3-2.3-1C-5831.2-7371.1-5831.5-7372-5831.4-7373L-5831.4-7373z M-5830.2-7372.9
		c0,0.7,0.2,1.3,0.5,1.8c0.6,0.8,1.7,0.9,2.5,0.3c0.1-0.1,0.2-0.2,0.3-0.3c0.4-0.6,0.6-1.3,0.5-2c0-0.7-0.2-1.3-0.5-1.8
		s-0.9-0.7-1.4-0.7c-0.6,0-1.1,0.2-1.4,0.7C-5830.1-7374.3-5830.3-7373.6-5830.2-7372.9L-5830.2-7372.9z M-5820.4-7375.3
		c-0.2,0-0.4,0-0.6,0c-0.7-0.1-1.3,0.3-1.6,1v4.9h-1.2v-6.9h1.1v0.8c0.3-0.6,1-0.9,1.6-0.9c0.2,0,0.4,0,0.5,0.1v1H-5820.4z
		 M-5818.2-7376.4v0.8c0.5-0.6,1.3-0.9,2-0.9c0.8-0.1,1.6,0.4,2,1.1c0.2-0.3,0.5-0.6,0.9-0.8c0.4-0.2,0.8-0.3,1.3-0.3
		c1.5,0,2.3,0.8,2.3,2.4v4.6h-1.2v-4.5c0-0.4-0.1-0.8-0.3-1.1c-0.3-0.3-0.7-0.4-1.1-0.4s-0.8,0.1-1.1,0.4c-0.3,0.3-0.5,0.6-0.5,1.1
		v4.6h-1.2v-4.5c0.1-0.7-0.4-1.4-1.1-1.5c-0.1,0-0.2,0-0.4,0c-0.7-0.1-1.3,0.3-1.6,1v5h-1.2v-6.9L-5818.2-7376.4z M-5803.7-7369.5
		c-0.1-0.2-0.1-0.5-0.2-0.7c-0.5,0.5-1.2,0.9-2,0.9c-0.6,0-1.2-0.2-1.7-0.6c-0.4-0.4-0.7-0.9-0.7-1.5c0-0.7,0.3-1.3,0.8-1.7
		c0.7-0.4,1.5-0.6,2.3-0.6h1.1v-0.5c0-0.4-0.1-0.7-0.4-1s-0.7-0.4-1.1-0.4s-0.7,0.1-1.1,0.3c-0.3,0.2-0.4,0.5-0.4,0.8h-1.2
		c0-0.4,0.1-0.7,0.4-1s0.6-0.6,1-0.8c0.4-0.2,0.9-0.3,1.4-0.3c0.7,0,1.3,0.2,1.9,0.6c0.5,0.4,0.7,1,0.7,1.6v3.2c0,0.5,0.1,1,0.2,1.5
		v0.1h-1V-7369.5z M-5805.6-7370.4c0.4,0,0.7-0.1,1-0.3c0.3-0.2,0.6-0.4,0.7-0.7v-1.4h-0.9c-1.4,0-2.2,0.4-2.2,1.3
		c0,0.3,0.1,0.6,0.4,0.9C-5806.3-7370.5-5805.9-7370.4-5805.6-7370.4z M-5798.1-7370.3c0.4,0,0.8-0.1,1.1-0.4c0.3-0.2,0.5-0.6,0.5-1
		h1.1c0,0.4-0.2,0.8-0.4,1.1c-0.3,0.4-0.6,0.7-1,0.9c-0.4,0.2-0.9,0.3-1.3,0.3c-0.8,0-1.7-0.3-2.2-0.9c-0.6-0.7-0.9-1.6-0.8-2.6
		v-0.2c0-0.6,0.1-1.2,0.4-1.8c0.2-0.5,0.6-0.9,1.1-1.2c0.5-0.3,1.1-0.4,1.6-0.4c0.7,0,1.4,0.2,1.9,0.7s0.8,1.1,0.8,1.8h-1.1
		c0-0.4-0.2-0.8-0.5-1.1c-0.3-0.3-0.7-0.4-1.1-0.4c-0.5,0-1.1,0.2-1.4,0.6c-0.4,0.6-0.5,1.2-0.5,1.9v0.2c0,0.6,0.1,1.3,0.5,1.8
		C-5799.1-7370.5-5798.6-7370.3-5798.1-7370.3L-5798.1-7370.3z M-5792.7-7369.5h-1.2v-6.9h1.2V-7369.5z M-5794-7378.2
		c0-0.2,0.1-0.3,0.2-0.5c0.1-0.1,0.3-0.2,0.5-0.2s0.4,0.1,0.5,0.2s0.2,0.3,0.2,0.5s-0.1,0.3-0.2,0.5c-0.1,0.1-0.3,0.2-0.5,0.2
		s-0.4-0.1-0.5-0.2C-5794-7377.8-5794-7378-5794-7378.2z M-5791.2-7373c0-0.6,0.1-1.2,0.4-1.8c0.2-0.5,0.6-0.9,1.1-1.2
		c0.5-0.3,1-0.5,1.6-0.4c0.9,0,1.7,0.3,2.3,1c0.6,0.7,0.9,1.6,0.9,2.6v0.1c0,0.6-0.1,1.2-0.4,1.8c-0.2,0.5-0.6,0.9-1.1,1.2
		c-0.5,0.3-1.1,0.5-1.6,0.4c-0.9,0-1.7-0.3-2.3-1C-5790.9-7371.1-5791.2-7372-5791.2-7373L-5791.2-7373z M-5790-7372.9
		c0,0.7,0.2,1.3,0.5,1.8c0.6,0.8,1.7,0.9,2.5,0.3c0.1-0.1,0.2-0.2,0.3-0.3c0.4-0.6,0.6-1.3,0.5-2c0-0.7-0.2-1.3-0.5-1.8
		s-0.9-0.7-1.4-0.7c-0.6,0-1.1,0.2-1.4,0.7C-5789.9-7374.3-5790-7373.6-5790-7372.9L-5790-7372.9z M-5787.5-7379.2h1.4l-1.7,1.9
		h-0.9L-5787.5-7379.2z M-5782.3-7376.4v0.9c0.5-0.6,1.2-1,2.1-1c1.5,0,2.2,0.8,2.2,2.5v4.5h-1.2v-4.5c0-0.4-0.1-0.8-0.3-1.1
		c-0.3-0.3-0.7-0.4-1-0.4c-0.4,0-0.7,0.1-1,0.3c-0.3,0.2-0.5,0.5-0.7,0.8v4.9h-1.2v-6.9L-5782.3-7376.4z"/>
	<path id="Trazado_198028" class="st8" d="M-5641.5-7372.5h79v44h-79V-7372.5z"/>
	<path id="Trazado_198029" class="st3" d="M-5625.7-7346.5v-9.2h3c0.8-0.1,1.6,0.2,2.3,0.6c0.5,0.5,0.8,1.1,0.8,1.8
		c0,0.4-0.1,0.8-0.4,1.1c-0.3,0.3-0.6,0.6-1,0.8c0.5,0.1,0.9,0.4,1.2,0.8c0.3,0.4,0.4,0.9,0.4,1.4c0,0.7-0.3,1.5-0.8,2
		c-0.6,0.5-1.5,0.8-2.3,0.7L-5625.7-7346.5L-5625.7-7346.5z M-5624.4-7350.8v3.3h2c0.5,0,1-0.1,1.3-0.4s0.5-0.8,0.5-1.2
		c0-1.1-0.6-1.7-1.8-1.7L-5624.4-7350.8z M-5624.4-7351.8h1.8c0.5,0,0.9-0.1,1.3-0.4c0.3-0.3,0.5-0.7,0.5-1.1s-0.1-0.8-0.4-1.1
		c-0.4-0.3-0.9-0.4-1.4-0.3h-1.8V-7351.8z M-5613.5-7347.2c-0.5,0.6-1.3,0.9-2,0.8c-0.6,0-1.2-0.2-1.7-0.6c-0.4-0.5-0.6-1.2-0.6-1.9
		v-4.5h1.2v4.4c0,1,0.4,1.6,1.3,1.6c0.7,0.1,1.5-0.3,1.8-1v-5h1.2v6.9h-1.1L-5613.5-7347.2z M-5606.6-7348.3c0-0.3-0.1-0.6-0.4-0.7
		c-0.4-0.2-0.8-0.4-1.2-0.5c-0.5-0.1-1-0.2-1.4-0.5c-0.3-0.1-0.6-0.4-0.8-0.6c-0.2-0.3-0.3-0.6-0.3-0.9c0-0.6,0.3-1.1,0.7-1.4
		c0.5-0.4,1.2-0.6,1.8-0.6c0.7,0,1.4,0.2,1.9,0.6s0.7,0.9,0.7,1.5h-1.2c0-0.3-0.2-0.6-0.4-0.8c-0.3-0.2-0.7-0.4-1-0.3
		c-0.4,0-0.7,0.1-1,0.3c-0.2,0.2-0.4,0.4-0.4,0.7c0,0.3,0.1,0.5,0.3,0.6c0.4,0.2,0.8,0.3,1.2,0.4c0.5,0.1,1,0.3,1.4,0.5
		c0.3,0.1,0.6,0.4,0.8,0.7c0.2,0.3,0.3,0.6,0.3,0.9c0,0.6-0.3,1.1-0.7,1.5c-0.6,0.4-1.2,0.6-1.9,0.6c-0.5,0-1-0.1-1.5-0.3
		c-0.4-0.2-0.7-0.5-1-0.8c-0.2-0.3-0.4-0.7-0.4-1.1h1.2c0,0.4,0.2,0.7,0.5,0.9c0.3,0.2,0.7,0.4,1.2,0.3c0.4,0,0.7-0.1,1.1-0.3
		C-5606.7-7347.8-5606.6-7348-5606.6-7348.3L-5606.6-7348.3z M-5601.1-7347.3c0.4,0,0.8-0.1,1.1-0.4c0.3-0.2,0.5-0.6,0.5-1h1.1
		c0,0.4-0.2,0.8-0.4,1.1c-0.3,0.4-0.6,0.7-1,0.9c-0.4,0.2-0.9,0.3-1.3,0.3c-0.8,0-1.7-0.3-2.2-0.9c-0.6-0.7-0.9-1.6-0.8-2.6v-0.2
		c0-0.6,0.1-1.2,0.4-1.8c0.2-0.5,0.6-0.9,1.1-1.2c0.5-0.3,1.1-0.4,1.6-0.4c0.7,0,1.4,0.2,1.9,0.7s0.8,1.1,0.8,1.8h-1.1
		c0-0.4-0.2-0.8-0.5-1.1c-0.3-0.3-0.7-0.4-1.1-0.4c-0.5,0-1.1,0.2-1.4,0.6c-0.4,0.6-0.5,1.2-0.5,1.9v0.2c0,0.6,0.1,1.3,0.5,1.8
		C-5602.2-7347.5-5601.7-7347.3-5601.1-7347.3L-5601.1-7347.3z M-5592.8-7346.5c-0.1-0.2-0.1-0.5-0.2-0.7c-0.5,0.5-1.2,0.9-2,0.9
		c-0.6,0-1.2-0.2-1.7-0.6c-0.4-0.4-0.7-0.9-0.7-1.5c0-0.7,0.3-1.3,0.8-1.7c0.7-0.4,1.5-0.6,2.3-0.6h1.1v-0.5c0-0.4-0.1-0.7-0.4-1
		s-0.7-0.4-1.1-0.4s-0.7,0.1-1.1,0.3c-0.3,0.2-0.4,0.5-0.4,0.8h-1.2c0-0.4,0.1-0.7,0.4-1s0.6-0.6,1-0.8c0.4-0.2,0.9-0.3,1.4-0.3
		c0.7,0,1.3,0.2,1.9,0.6c0.5,0.4,0.7,1,0.7,1.6v3.2c0,0.5,0.1,1,0.2,1.5v0.1h-1V-7346.5z M-5594.8-7347.4c0.4,0,0.7-0.1,1-0.3
		c0.3-0.2,0.6-0.4,0.7-0.7v-1.4h-0.9c-1.4,0-2.2,0.4-2.2,1.3c0,0.3,0.1,0.6,0.4,0.9C-5595.5-7347.5-5595.1-7347.4-5594.8-7347.4
		L-5594.8-7347.4z M-5586.7-7352.3c-0.2,0-0.4,0-0.6,0c-0.7-0.1-1.3,0.3-1.6,1v4.9h-1.2v-6.9h1.1v0.8c0.3-0.6,1-0.9,1.6-0.9
		c0.2,0,0.4,0,0.5,0.1L-5586.7-7352.3z M-5584.3-7346.5h-1.2v-9.8h1.2V-7346.5z M-5578.2-7346.5c-0.1-0.2-0.1-0.5-0.2-0.7
		c-0.5,0.5-1.2,0.9-2,0.9c-0.6,0-1.2-0.2-1.7-0.6c-0.4-0.4-0.7-0.9-0.7-1.5c0-0.7,0.3-1.3,0.8-1.7c0.7-0.4,1.5-0.6,2.3-0.6h1.1v-0.5
		c0-0.4-0.1-0.7-0.4-1s-0.7-0.4-1.1-0.4s-0.7,0.1-1.1,0.3c-0.3,0.2-0.4,0.5-0.4,0.8h-1.2c0-0.4,0.1-0.7,0.4-1s0.6-0.6,1-0.8
		c0.4-0.2,0.9-0.3,1.4-0.3c0.7,0,1.3,0.2,1.9,0.6c0.5,0.4,0.7,1,0.7,1.6v3.2c0,0.5,0.1,1,0.2,1.5v0.1h-1V-7346.5z M-5580.2-7347.4
		c0.4,0,0.7-0.1,1-0.3c0.3-0.2,0.6-0.4,0.7-0.7v-1.4h-0.9c-1.4,0-2.2,0.4-2.2,1.3c0,0.3,0.1,0.6,0.4,0.9
		C-5580.8-7347.5-5580.5-7347.4-5580.2-7347.4L-5580.2-7347.4z"/>
	<path id="Trazado_198030" class="st3" d="M-5657.8-7282.6c-0.8-0.2-1.6-0.6-2.3-1.1c-0.5-0.4-0.7-1-0.7-1.6c0-0.7,0.3-1.4,0.9-1.8
		c0.6-0.5,1.5-0.8,2.3-0.7c0.6,0,1.2,0.1,1.7,0.4c0.5,0.2,0.9,0.6,1.2,1c0.3,0.4,0.4,0.9,0.4,1.4h-1.2c0-0.5-0.2-1-0.5-1.3
		c-0.4-0.3-1-0.5-1.5-0.5s-1,0.1-1.4,0.4c-0.3,0.3-0.5,0.7-0.5,1.1s0.2,0.7,0.5,1c0.5,0.3,1,0.6,1.6,0.7c0.6,0.2,1.2,0.4,1.8,0.7
		c0.4,0.2,0.7,0.5,1,0.9c0.2,0.4,0.3,0.8,0.3,1.2c0,0.7-0.3,1.4-0.9,1.8c-0.7,0.5-1.5,0.7-2.3,0.7c-0.6,0-1.2-0.1-1.8-0.4
		c-0.5-0.2-0.9-0.6-1.3-1c-0.3-0.4-0.5-0.9-0.4-1.4h1.2c0,0.5,0.2,1,0.6,1.3c0.5,0.3,1.1,0.5,1.7,0.5c0.5,0,1-0.1,1.5-0.4
		c0.3-0.3,0.5-0.7,0.5-1.1s-0.2-0.8-0.5-1C-5656.6-7282.2-5657.2-7282.5-5657.8-7282.6z M-5651.5-7278.5h-1.2v-9.2h1.2V-7278.5z"/>
	<path id="Trazado_198031" class="st3" d="M-5587.9-7217.5h-1.2l-4.6-7.1v7.1h-1.2v-9.2h1.2l4.7,7.2v-7.2h1.2v9.2H-5587.9z
		 M-5578.7-7221.8c0,0.8-0.1,1.6-0.5,2.4c-0.3,0.6-0.7,1.2-1.3,1.5c-1.7,1.1-3.9,0.6-4.9-1.1c-0.1-0.2-0.2-0.3-0.3-0.5
		c-0.3-0.7-0.5-1.5-0.5-2.3v-0.7c0-0.8,0.1-1.6,0.5-2.4c0.5-1.3,1.8-2.1,3.2-2.1c0.7,0,1.4,0.2,2,0.5c0.6,0.4,1,0.9,1.3,1.6
		s0.5,1.6,0.5,2.4L-5578.7-7221.8z M-5579.9-7222.4c0.1-0.9-0.2-1.8-0.7-2.5c-0.4-0.6-1.1-0.9-1.8-0.9c-0.7,0-1.4,0.3-1.8,0.9
		c-0.5,0.7-0.7,1.6-0.7,2.4v0.7c0,0.9,0.2,1.8,0.7,2.5c0.4,0.6,1.1,0.9,1.8,0.9c0.7,0,1.4-0.3,1.8-0.9c0.5-0.7,0.7-1.6,0.7-2.5
		V-7222.4z"/>
	<path id="Trazado_198032" class="st9" d="M-5529.5-7379.5h74.5c15.7,0,28.5,12.8,28.5,28.5s-12.8,28.5-28.5,28.5h-74.5V-7379.5z"/>
	<path id="Trazado_198033" class="st3" d="M-5499.4-7346.5h-1.2v-9.2h1.2V-7346.5z M-5496.2-7353.4v0.9c0.5-0.6,1.2-1,2.1-1
		c1.5,0,2.2,0.8,2.2,2.5v4.5h-1.2v-4.5c0-0.4-0.1-0.8-0.3-1.1c-0.3-0.3-0.7-0.4-1-0.4c-0.4,0-0.7,0.1-1,0.3
		c-0.3,0.2-0.5,0.5-0.7,0.8v4.9h-1.2v-6.9L-5496.2-7353.4L-5496.2-7353.4z M-5488.6-7355v1.7h1.3v0.9h-1.3v4.3c0,0.2,0,0.4,0.2,0.6
		s0.4,0.2,0.6,0.2s0.4,0,0.6-0.1v0.9c-0.3,0.1-0.6,0.1-0.9,0.1c-0.4,0-0.9-0.1-1.2-0.5c-0.3-0.4-0.4-0.9-0.4-1.4v-4.3h-1.2v-0.9h1.2
		v-1.7h1.1V-7355z M-5483.1-7346.4c-0.9,0-1.7-0.3-2.3-0.9c-0.6-0.7-0.9-1.6-0.9-2.5v-0.2c0-0.6,0.1-1.3,0.4-1.8
		c0.2-0.5,0.6-0.9,1.1-1.3c0.5-0.3,1-0.5,1.5-0.5c0.8,0,1.6,0.3,2.1,0.9c0.5,0.7,0.8,1.6,0.7,2.5v0.5h-4.7c0,0.6,0.2,1.2,0.6,1.6
		s0.9,0.6,1.4,0.6c0.4,0,0.7-0.1,1.1-0.3c0.3-0.2,0.5-0.4,0.8-0.7l0.7,0.6C-5481-7346.8-5482-7346.3-5483.1-7346.4L-5483.1-7346.4z
		 M-5483.2-7352.5c-0.5,0-0.9,0.2-1.2,0.5c-0.3,0.4-0.6,0.9-0.6,1.5h3.4v-0.1c0-0.5-0.2-1-0.5-1.4
		C-5482.4-7352.4-5482.8-7352.5-5483.2-7352.5z M-5475.7-7352.3c-0.2,0-0.4,0-0.6,0c-0.7-0.1-1.3,0.3-1.6,1v4.9h-1.2v-6.9h1.1v0.8
		c0.3-0.6,1-0.9,1.6-0.9c0.2,0,0.4,0,0.5,0.1L-5475.7-7352.3z M-5473.5-7353.4v0.9c0.5-0.6,1.3-1,2.1-1c1.5,0,2.2,0.8,2.2,2.5v4.5
		h-1.2v-4.5c0-0.4-0.1-0.8-0.3-1.1c-0.3-0.3-0.7-0.4-1-0.4c-0.4,0-0.7,0.1-1,0.3c-0.3,0.2-0.5,0.5-0.7,0.8v4.9h-1.2v-6.9
		L-5473.5-7353.4L-5473.5-7353.4z M-5464.6-7346.4c-0.9,0-1.7-0.3-2.3-0.9c-0.6-0.7-0.9-1.6-0.9-2.5v-0.2c0-0.6,0.1-1.3,0.4-1.8
		c0.2-0.5,0.6-0.9,1.1-1.3c0.5-0.3,1-0.5,1.5-0.5c0.8,0,1.6,0.3,2.1,0.9c0.5,0.7,0.8,1.6,0.7,2.5v0.5h-4.7c0,0.6,0.2,1.2,0.6,1.6
		s0.9,0.6,1.4,0.6c0.4,0,0.7-0.1,1.1-0.3c0.3-0.2,0.5-0.4,0.8-0.7l0.7,0.6C-5462.6-7346.8-5463.6-7346.3-5464.6-7346.4
		L-5464.6-7346.4z M-5464.8-7352.5c-0.5,0-0.9,0.2-1.2,0.5c-0.3,0.4-0.6,0.9-0.6,1.5h3.4v-0.1c0-0.5-0.2-1-0.5-1.4
		C-5463.9-7352.4-5464.3-7352.5-5464.8-7352.5z M-5459-7355v1.7h1.3v0.9h-1.3v4.3c0,0.2,0,0.4,0.2,0.6s0.4,0.2,0.6,0.2
		s0.4,0,0.6-0.1v0.9c-0.3,0.1-0.6,0.1-0.9,0.1c-0.4,0-0.9-0.1-1.2-0.5c-0.3-0.4-0.4-0.9-0.4-1.4v-4.3h-1.2v-0.9h1.2v-1.7L-5459-7355
		z"/>
	<path id="Trazado_198034" class="st10" d="M-5567-7350.5l9-7v14L-5567-7350.5z"/>
	<path id="Trazado_198035" class="st10" d="M-5571-7270l9-7v14L-5571-7270z"/>
	<path id="Trazado_198036" class="st10" d="M-5679.5-7270l9-7v14L-5679.5-7270z"/>
	<path id="Trazado_198037" class="st10" d="M-5602-7368l-7-9h14L-5602-7368z"/>
	<path id="Trazado_198038" class="st10" d="M-5601.5-7203l-7-9h14L-5601.5-7203z"/>
	<path id="Trazado_198039" class="st10" d="M-5774-7229.5l9-7v14L-5774-7229.5z"/>
</g>
</svg>
