<svg xmlns="http://www.w3.org/2000/svg" xmlns:xlink="http://www.w3.org/1999/xlink" width="110" height="110" viewBox="0 0 110 110">
  <defs>
    <clipPath id="clip-path">
      <rect id="Rect치ngulo_45991" data-name="Rect치ngulo 45991" width="85.438" height="85.445" fill="none"/>
    </clipPath>
  </defs>
  <g id="Grupo_154317" data-name="Grupo 154317" transform="translate(-587.816 -1370.391)">
    <rect id="Rect치ngulo_35889" data-name="Rect치ngulo 35889" width="110" height="110" transform="translate(587.816 1370.39)" fill="none"/>
    <g id="Grupo_154321" data-name="Grupo 154321" transform="translate(599.816 1382.391)">
      <g id="Grupo_154321-2" data-name="Grupo 154321" clip-path="url(#clip-path)">
        <path id="Trazado_196390" data-name="Trazado 196390" d="M107.034,70.037c-.437,1.339-.481,2.753-.8,4.119A42.584,42.584,0,0,1,84.693,102.9a41.681,41.681,0,0,1-14.87,4.837A1.784,1.784,0,0,1,68,107.061c-.722-.88-1.518-1.7-2.3-2.526a1,1,0,0,1,.014-1.592c.861-.908,1.718-1.821,2.533-2.77a2.179,2.179,0,0,1,1.426-.75A34.472,34.472,0,0,0,98.207,72.434c.223-1.089.417-2.181.531-3.287.057-.554.217-1.105.906-1.081.718.025.892.548.843,1.179a24.943,24.943,0,0,1-2.07,9.106,35.362,35.362,0,0,1-7.046,11.431,36.147,36.147,0,0,1-20.556,11.382,3.367,3.367,0,0,0-2.032,1.3c-1.115,1.307-1.094,1.242-.009,2.566a1.734,1.734,0,0,0,1.873.631A40.139,40.139,0,0,0,82.6,101.849a41.23,41.23,0,0,0,22.245-30.844,3.264,3.264,0,0,1,.34-1.281c.043-.244.1-.487.125-.734.041-.433.129-.827.618-.967a.954.954,0,0,1,1.106.512Z" transform="translate(-21.596 -22.478)" fill="#1c1d21"/>
        <path id="Trazado_196391" data-name="Trazado 196391" d="M69.731,1.85c-.245-.043-.489-.1-.736-.125-.434-.042-.831-.129-.973-.618A.947.947,0,0,1,68.532,0h1.335a29.136,29.136,0,0,0,3.544.639,42.963,42.963,0,0,1,33.663,32.943c.28,1.3.45,2.625.679,3.936a1.313,1.313,0,0,1-.5,1.319c-.922.8-1.818,1.637-2.706,2.479a.99.99,0,0,1-1.588.017,1.517,1.517,0,0,0-.185-.168c-2.264-1.646-3.87-3.677-3.893-6.638A34.567,34.567,0,0,0,70.016,8.384c-.275-.039-.554-.045-.83-.081-.58-.076-1.173-.215-1.122-.953.049-.713.591-.863,1.215-.8a24.626,24.626,0,0,1,9.1,2.08A35.19,35.19,0,0,1,89.8,15.679a36.109,36.109,0,0,1,11.349,20.472,3.472,3.472,0,0,0,1.323,2.108c1.3,1.105,1.236,1.094,2.566-.01a1.69,1.69,0,0,0,.635-1.8,40.2,40.2,0,0,0-3.829-12.031,41.03,41.03,0,0,0-9.825-12.613A41.54,41.54,0,0,0,78.226,3.884a40.435,40.435,0,0,0-7.05-1.672,3.957,3.957,0,0,1-1.446-.362" transform="translate(-22.477 0)" fill="#1c1d21"/>
        <path id="Trazado_196392" data-name="Trazado 196392" d="M126.8,64.757c-.362.262-.671.66-1.216.376a.99.99,0,0,1-.484-1.041.9.9,0,0,1,.484-.876c.539-.286.854.106,1.216.373Z" transform="translate(-41.364 -20.869)" fill="#1f2024"/>
        <path id="Trazado_196393" data-name="Trazado 196393" d="M64.806,0c.266.336.651.629.423,1.146a.8.8,0,0,1-.676.535c-.45.042-.916.069-1.165-.41C63.1.724,63.365.324,63.8,0Z" transform="translate(-20.92 0)" fill="#1f2024"/>
        <path id="Trazado_196394" data-name="Trazado 196394" d="M78.887,49.11a29.775,29.775,0,1,1-29.8-29.77,29.8,29.8,0,0,1,29.8,29.77" transform="translate(-6.393 -6.395)" fill="#1c1d21"/>
        <path id="Trazado_196395" data-name="Trazado 196395" d="M39.494,101.448c-1.11.379-1.629,1.414-2.384,2.181-.239.242.051.5.238.7q.841.906,1.685,1.809c-.27.3-.609.205-.935.16A41.5,41.5,0,0,1,2.585,71.056a1.207,1.207,0,0,1,.491-1.305,10.529,10.529,0,0,0,1.277-1.2.8.8,0,0,1,1.294-.027A22.307,22.307,0,0,0,7.3,70.051,1.944,1.944,0,0,1,7.911,71.3a36.212,36.212,0,0,0,7.7,16.884A35.675,35.675,0,0,0,30.971,99.14a33.479,33.479,0,0,0,7.993,1.979c.206.023.538-.073.53.33" transform="translate(-0.846 -22.553)" fill="#fed166"/>
        <path id="Trazado_196396" data-name="Trazado 196396" d="M106.229,70.347a33.9,33.9,0,0,1-2.373,10.008c-5.571,13.722-15.556,22.342-30,25.738-.3.07-.6.115-.9.177-2.548.529-2.643.486-4.307-1.558-.223-.274-.244-.43,0-.687.6-.62,1.171-1.264,1.748-1.906a1.32,1.32,0,0,1,.786-.417q21.175-4.078,28.639-24.314a35.955,35.955,0,0,0,1.706-7.523c.406,1.129,1.409,1.706,2.26,2.414.244.2.451-.078.628-.242.606-.561,1.207-1.127,1.81-1.691" transform="translate(-22.64 -23.101)" fill="#25e0ac"/>
        <path id="Trazado_196397" data-name="Trazado 196397" d="M7.351,39.517c-.341-1.14-1.4-1.642-2.167-2.4-.264-.262-.558.1-.772.29-.6.53-1.172,1.086-1.756,1.631-.3-.27-.2-.61-.159-.936A41.5,41.5,0,0,1,35.034,3.071a22.628,22.628,0,0,1,2.708-.484,3.6,3.6,0,0,1,.414-.05,6.465,6.465,0,0,1,2.45,2.45,1.013,1.013,0,0,1-.391.712,20.547,20.547,0,0,0-1.406,1.538,1.9,1.9,0,0,1-1.22.655,36.169,36.169,0,0,0-17.359,8.028A35.542,35.542,0,0,0,9.658,30.965a33.29,33.29,0,0,0-1.974,7.994c-.025.222.041.53-.333.558" transform="translate(-0.809 -0.839)" fill="#25e0ac"/>
        <path id="Trazado_196398" data-name="Trazado 196398" d="M70.371,2.764a33.258,33.258,0,0,1,9.615,2.225q20.939,8.274,26.142,30.217c.057.243.086.492.135.737.52,2.605.514,2.6-1.462,4.334-.307.27-.529.376-.805.012a.547.547,0,0,0-.12-.115,6.84,6.84,0,0,1-2.578-4.386C97.552,21.023,88.24,11.756,73.426,8.086c-1.151-.284-2.339-.42-3.508-.624,1.1-.413,1.658-1.423,2.39-2.23.221-.244-.108-.5-.292-.7-.546-.592-1.1-1.18-1.645-1.769" transform="translate(-23.118 -0.914)" fill="#fed166"/>
        <path id="Trazado_196399" data-name="Trazado 196399" d="M38.719,100.491a37.159,37.159,0,0,1-8.147-1.941Q10.912,90.926,6.916,70.213a1.428,1.428,0,0,0-.434-.866c-.623-.555-1.253-1.1-1.842-1.692-.315-.316-.54-.3-.808.019a1.463,1.463,0,0,1-.367.337C2,68.854,1.953,70.069,2.235,71.6a41.332,41.332,0,0,0,32.734,33.113,19.692,19.692,0,0,0,3.291.469,7.178,7.178,0,0,0,.738.126c.608.044,1.058.28.987.959s-.572.811-1.166.746a40.725,40.725,0,0,1-5.507-.887Q11.777,100.723,3.025,80.307A40.892,40.892,0,0,1,.243,69.713,1.6,1.6,0,0,1,.824,68.1c.916-.766,1.78-1.6,2.65-2.415A.973.973,0,0,1,5,65.68c.993.932,1.993,1.858,3.015,2.758a1.809,1.809,0,0,1,.535,1.179A34.508,34.508,0,0,0,36.062,98.327c.925.182,1.868.278,2.8.411.559.08,1.1.247,1.058.93-.043.714-.579.872-1.2.823" transform="translate(-0.072 -21.595)" fill="#1c1d21"/>
        <path id="Trazado_196400" data-name="Trazado 196400" d="M6.542,38.781a37.6,37.6,0,0,1,1.472-6.807C12.51,18.847,21.5,10.583,34.986,7.348a7.239,7.239,0,0,0,4.365-2.633c.28-.36.354-.581-.014-.873a2.611,2.611,0,0,1-.284-.3c-1.521-1.658-1.521-1.661-3.729-1.22A40.892,40.892,0,0,0,7.1,22.224a39.938,39.938,0,0,0-5.241,15.5,5.247,5.247,0,0,0-.013.581c-.054.329-.109.657-.161.987a.777.777,0,0,1-.932.731A.805.805,0,0,1,.011,39.01c.161-1.323.292-2.653.543-3.96A43.058,43.058,0,0,1,36.566.378,2.61,2.61,0,0,1,39.438,1.4a22.878,22.878,0,0,0,1.9,2.1.973.973,0,0,1,.02,1.527c-.932.993-1.857,1.993-2.758,3.015a1.81,1.81,0,0,1-1.175.544A34.5,34.5,0,0,0,8.71,36.069c-.184.924-.278,1.867-.412,2.8-.08.552-.22,1.1-.907,1.084-.717-.021-.9-.542-.85-1.173" transform="translate(0 -0.103)" fill="#1c1d21"/>
        <path id="Trazado_196401" data-name="Trazado 196401" d="M16.74,4.694a.883.883,0,0,1-1.023.881c-.618-.048-.912.1-.841.8.061.6-.227,1.056-.894,1.035-.63-.02-.87-.484-.807-1.038.082-.711-.245-.84-.851-.8a.817.817,0,0,1-.989-.859.829.829,0,0,1,1.013-.838c.625.055.9-.113.826-.8a.831.831,0,0,1,.81-1.04.841.841,0,0,1,.892,1.044c-.072.689.209.845.826.79a.9.9,0,0,1,1.038.818" transform="translate(-3.748 -0.675)" fill="#1d1e22"/>
        <path id="Trazado_196402" data-name="Trazado 196402" d="M110.967,117.557a.866.866,0,0,1,.843,1.038c-.04.576.072.893.75.815.6-.069,1.088.181,1.086.843s-.478.909-1.08.858c-.54-.045-.823.06-.756.7.064.615-.162,1.155-.882,1.134-.656-.019-.888-.526-.825-1.114s-.149-.778-.728-.717c-.6.064-1.085-.189-1.1-.837s.467-.924,1.064-.862c.641.066.823-.173.769-.787a.872.872,0,0,1,.864-1.066" transform="translate(-35.799 -38.87)" fill="#1d1e22"/>
        <path id="Trazado_196403" data-name="Trazado 196403" d="M11.47,62.516c.02.628-.19,1.147-.894,1.109s-.843-.584-.829-1.2c.014-.6.221-1.073.873-1.068.719,0,.873.543.85,1.155" transform="translate(-3.223 -20.289)" fill="#202125"/>
        <path id="Trazado_196404" data-name="Trazado 196404" d="M63.133,126.809c-.574.011-1.012-.214-1.035-.82-.025-.665.423-.891,1.037-.887.582,0,.99.22.987.85s-.417.85-.989.857" transform="translate(-20.532 -41.364)" fill="#1e1f23"/>
        <path id="Trazado_196405" data-name="Trazado 196405" d="M49.924,78.02a28.058,28.058,0,1,1,28.093-28,28.047,28.047,0,0,1-28.093,28" transform="translate(-7.242 -7.243)" fill="#20bdfc"/>
        <path id="Trazado_196406" data-name="Trazado 196406" d="M51.98,27.934A24.022,24.022,0,1,1,27.934,51.866,24.074,24.074,0,0,1,51.98,27.934" transform="translate(-9.236 -9.236)" fill="#1c1d21"/>
        <path id="Trazado_196407" data-name="Trazado 196407" d="M39.581,70.676a21.276,21.276,0,0,1-8.441-12.69A22.267,22.267,0,0,1,48.951,30.8c11.628-2.238,23.635,5.932,25.71,17.6,1.585,8.909-1.245,16.248-8.2,22.009a3.914,3.914,0,0,1-.416.266c-.5-.58-.279-1.24-.208-1.883a2.769,2.769,0,0,0,.946-2.738c-.057-.774-.025-1.552-.066-2.33-.143-2.754-2.3-4.859-5.512-4.876-.528,0-1.057.019-1.584-.017-.238-.016-.559.017-.618-.293-.046-.24.22-.358.386-.5a12.882,12.882,0,0,0,3.538-4.256A11.279,11.279,0,0,0,52.942,37.7a10.723,10.723,0,0,0-7.295,2.627,10.977,10.977,0,0,0-4.078,8.443,10.643,10.643,0,0,0,2.783,7.481,12.692,12.692,0,0,0,1.934,1.831c.169.123.432.258.321.516-.1.221-.369.224-.59.228A23.5,23.5,0,0,0,43.11,59,4.918,4.918,0,0,0,39,63.134c-.205,1.358-.08,2.719-.162,4.074-.048.79.614,1.061.947,1.574.078.648.3,1.311-.2,1.894" transform="translate(-10.093 -10.063)" fill="#25e0ac"/>
        <path id="Trazado_196408" data-name="Trazado 196408" d="M44.053,85.374q.013-1.019.027-2.039a3.427,3.427,0,0,0,.608-2.432c-.031-.831-.03-1.665,0-2.5a3.5,3.5,0,0,1,3.515-3.491c1.831-.044,3.663-.027,5.494,0,.962.012,1.241.226,1.142,1.2-.218,2.158-.038,4.325-.247,6.481-.149,1.548-.051,3.105-.046,4.659a1.732,1.732,0,0,0,.478,1.035,1.236,1.236,0,0,1-.083,1.351,19.238,19.238,0,0,1-5.386-1.246,19.222,19.222,0,0,1-5.5-3.02" transform="translate(-14.566 -24.761)" fill="#ebf3f6"/>
        <path id="Trazado_196409" data-name="Trazado 196409" d="M78.061,83.33q.013,1.019.025,2.038A21.121,21.121,0,0,1,67.2,89.636a1.273,1.273,0,0,1-.1-1.347,2.219,2.219,0,0,0,.514-1.614c0-3.356-.133-6.708-.323-10.058a8.019,8.019,0,0,1,0-.832.809.809,0,0,1,.895-.869c2.026-.025,4.055-.092,6.077.023a3.435,3.435,0,0,1,3.177,3.3c.057.886.041,1.777.011,2.664a3.453,3.453,0,0,0,.609,2.432" transform="translate(-22.138 -24.756)" fill="#ebf3f6"/>
        <path id="Trazado_196410" data-name="Trazado 196410" d="M64.992,88.342q.005.653.011,1.306a17.838,17.838,0,0,1-4.679,0l.012-1.305a2.808,2.808,0,0,0,.75-2.195c.046-3.387.212-6.771.33-10.155.031-.9.283-1.092,1.291-1.082.946.01,1.2.2,1.2,1.082,0,1.945.232,3.88.2,5.828-.026,1.691.23,3.381.154,5.077-.029.635.422,1,.73,1.445" transform="translate(-19.945 -24.768)" fill="#82e0e4"/>
        <path id="Trazado_196411" data-name="Trazado 196411" d="M59.159,77.12c-.744-.121-.963-.6-.981-1.3-.1-3.748-.241-7.5-.333-11.244-.013-.563-.2-.687-.722-.681-1.272.014-1.264-.011-1.3,1.264-.041,1.361-.1,2.72-.149,4.08-.07,2.193-.148,4.386-.189,6.58-.014.708-.237,1.182-.981,1.3-.732-.18-.763-.74-.742-1.343.127-3.661.227-7.323.39-10.983.033-.735-.137-.939-.883-.912-1.718.061-3.441.009-5.161.022a3.423,3.423,0,0,0-3.667,3.7c-.009,1.082-.019,2.165,0,3.247a1.107,1.107,0,0,1-.817,1.27.951.951,0,0,1-.918-1,39.388,39.388,0,0,1,.08-4.5,5.112,5.112,0,0,1,4.381-4.383c1.1-.15,2.216-.017,3.479-.125A11.472,11.472,0,0,1,45.395,51.93a11.038,11.038,0,0,1,4.016-8.214A11.424,11.424,0,0,1,65.6,45.071c4.067,4.81,3.716,12.6-2.635,17.089.883,0,1.58,0,2.278,0,3.579.02,5.7,2.139,5.716,5.71,0,1-.014,2,.006,3,.013.676-.218,1.133-.931,1.249a1.1,1.1,0,0,1-.817-1.27c.021-1.167.025-2.335,0-3.5a3.382,3.382,0,0,0-3.506-3.442c-1.833-.023-3.668.021-5.5-.021-.621-.015-.719.2-.7.76.147,3.692.251,7.386.392,11.078.025.642-.064,1.161-.746,1.4" transform="translate(-14.113 -13.547)" fill="#1c1d21"/>
        <path id="Trazado_196412" data-name="Trazado 196412" d="M51.1,85.211c0-.861,0-1.723,0-2.584,0-.6.282-.985.883-.97.555.015.815.39.813.955-.007,1.778,0,3.556,0,5.335,0,.592-.247.983-.876.965-.578-.018-.815-.4-.815-.949q0-1.376,0-2.751" transform="translate(-16.897 -26.999)" fill="#1c1d21"/>
        <path id="Trazado_196413" data-name="Trazado 196413" d="M74.007,85.206c0-.861.007-1.722,0-2.584-.006-.606.284-.983.884-.963.555.018.813.4.811.96,0,1.778,0,3.556,0,5.335,0,.59-.266.978-.89.959-.582-.017-.8-.4-.8-.955,0-.916,0-1.833,0-2.751" transform="translate(-24.469 -27)" fill="#1c1d21"/>
        <path id="Trazado_196414" data-name="Trazado 196414" d="M68.741,53.3a9.727,9.727,0,1,1-9.732-9.745A9.706,9.706,0,0,1,68.741,53.3" transform="translate(-16.296 -14.401)" fill="#fed166"/>
      </g>
    </g>
  </g>
</svg>
