<svg xmlns="http://www.w3.org/2000/svg" xmlns:xlink="http://www.w3.org/1999/xlink" width="110" height="110" viewBox="0 0 110 110">
  <defs>
    <clipPath id="clip-path">
      <rect id="Rect치ngulo_45990" data-name="Rect치ngulo 45990" width="85.524" height="90.25" fill="none"/>
    </clipPath>
  </defs>
  <g id="Grupo_154316" data-name="Grupo 154316" transform="translate(-587.816 -1370.391)">
    <rect id="Rect치ngulo_35889" data-name="Rect치ngulo 35889" width="110" height="110" transform="translate(587.816 1370.39)" fill="none"/>
    <g id="Grupo_154320" data-name="Grupo 154320" transform="translate(599.816 1380.391)">
      <g id="Grupo_154320-2" data-name="Grupo 154320" clip-path="url(#clip-path)">
        <path id="Trazado_196364" data-name="Trazado 196364" d="M72,129.429a9.83,9.83,0,0,1,6.777,5.334A9.585,9.585,0,0,1,71.5,148.449c-.064.009-.116.1-.174.153H68.51c-.388-.349-.91-.315-1.366-.467a9.652,9.652,0,0,1,.031-18.4c.329-.108.646-.246.969-.371a5.085,5.085,0,0,1,3.859.062" transform="translate(-27.332 -58.353)" fill="#1c1d21"/>
        <path id="Trazado_196365" data-name="Trazado 196365" d="M32.553,162.581c-.779-.54-.593-1.339-.49-2.068a.759.759,0,0,1,.864-.588.779.779,0,0,1,.816.659c.093.709.219,1.465-.485,2Z" transform="translate(-14.458 -72.331)" fill="#1e1f22"/>
        <path id="Trazado_196366" data-name="Trazado 196366" d="M121.369,162.581c-.7-.531-.576-1.288-.485-2a.776.776,0,0,1,.814-.659.763.763,0,0,1,.865.588c.106.73.286,1.527-.49,2.068Z" transform="translate(-54.641 -72.331)"/>
        <path id="Trazado_196367" data-name="Trazado 196367" d="M59.931,38.806a2.16,2.16,0,0,1-1.78-2.369c0-.117,0-.235,0-.352-.021-.962.294-2.156-.161-2.822s-1.695-.788-2.567-1.2c-.331-.156-.471-.008-.661.185-.661.668-1.319,1.339-1.994,1.992a2.157,2.157,0,0,1-3.328.008c-.78-.756-1.556-1.518-2.3-2.306a2.147,2.147,0,0,1,.011-3.143c.644-.683,1.306-1.352,2-1.989a.676.676,0,0,0,.171-.964,11.408,11.408,0,0,1-.811-1.938.733.733,0,0,0-.881-.6c-.938.037-1.879.031-2.817,0a2.085,2.085,0,0,1-2.146-2.183q-.032-1.717,0-3.435a2.1,2.1,0,0,1,2.163-2.171c.968-.023,1.938-.027,2.906,0,.418.013.645-.1.75-.523a8.1,8.1,0,0,1,.414-1.156c.6-1.439.609-1.438-.52-2.568-.435-.436-.888-.857-1.3-1.315a2.125,2.125,0,0,1,.015-3.011c.784-.834,1.6-1.641,2.425-2.432A2.129,2.129,0,0,1,52.661,4.5c.687.64,1.357,1.3,1.987,2a.711.711,0,0,0,1.043.152,11,11,0,0,1,1.943-.8.643.643,0,0,0,.524-.756c-.024-.968-.026-1.938,0-2.906A2.109,2.109,0,0,1,60.33.02q1.716-.039,3.434,0A2.1,2.1,0,0,1,65.943,2.18c.028.939.032,1.88,0,2.818-.016.478.079.766.6.871a5.864,5.864,0,0,1,1.145.435c1.351.585,1.35.588,2.432-.493.457-.457.9-.931,1.378-1.362a2.117,2.117,0,0,1,3.014.008q1.284,1.2,2.489,2.492a2.133,2.133,0,0,1-.031,3.078c-.663.707-1.347,1.394-2.058,2.052a.6.6,0,0,0-.134.9,6.747,6.747,0,0,1,.458.948c.673,1.594.67,1.595,2.443,1.6.587,0,1.176-.022,1.761.013a2.063,2.063,0,0,1,1.983,1.982c.045,1.261.044,2.526,0,3.787a2.042,2.042,0,0,1-2.042,2.008c-.909.037-1.821.044-2.729,0-.6-.028-.987.087-1.11.765a2.931,2.931,0,0,1-.49,1.214c-.648.859-.334,1.432.393,2.021a14.893,14.893,0,0,1,1.5,1.486,2.157,2.157,0,0,1,.014,3.146c-.788.831-1.6,1.643-2.431,2.426a2.1,2.1,0,0,1-3.071,0q-1.03-.96-1.992-1.993c-.323-.347-.578-.485-1.028-.185a3.443,3.443,0,0,1-1.277.565c-1.047.176-1.364.744-1.232,1.749a13.742,13.742,0,0,1,.014,1.936,2.159,2.159,0,0,1-1.777,2.372,7.361,7.361,0,0,1-4.242,0" transform="translate(-19.287 0)" fill="#1c1d21"/>
        <path id="Trazado_196368" data-name="Trazado 196368" d="M16.871,113.352a2.759,2.759,0,0,1,2.456,2.935q.007,10.087,0,20.174c0,.147.007.295-.005.44a.833.833,0,0,1-.912.861.815.815,0,0,1-.863-.9c-.008-1.175-.031-2.35.007-3.523.019-.572-.054-.755-.737-.747q-7.089.083-14.179.025a2.617,2.617,0,0,1-2.608-2.679q-.063-6.959,0-13.919A2.693,2.693,0,0,1,2.4,113.362a1.089,1.089,0,0,1,.432-.063c1.9-.064,3.8-.033,5.7-.148,2.769-.167,5.551.227,8.332.2" transform="translate(0 -51.158)" fill="#1c1d21"/>
        <path id="Trazado_196369" data-name="Trazado 196369" d="M137.783,113.361a2.759,2.759,0,0,1,2.387,2.916q.03,6.695,0,13.391a2.744,2.744,0,0,1-2.973,2.963q-7.045,0-14.09-.055c-.452,0-.469.16-.466.493.009,1.175-.009,2.35.008,3.524.009.633-.145,1.152-.874,1.164s-.92-.472-.92-1.121c.007-6.842,0-13.685.01-20.527a2.739,2.739,0,0,1,2.453-2.758,2.137,2.137,0,0,1,.7-.053c1.782-.07,3.562-.032,5.35-.147,2.8-.18,5.607.218,8.417.21" transform="translate(-54.661 -51.155)" fill="#1c1d21"/>
        <path id="Trazado_196370" data-name="Trazado 196370" d="M18.857,104.112c-2.045,0-4.091-.008-6.136-.006q-4.165,0-8.33.015a10.9,10.9,0,0,1,2.923-.145,16,16,0,0,1,1.653,0c.717.032.932-.211.527-.854a2.119,2.119,0,0,0,.805-2c-.041-1.789-.016-3.58-.012-5.369.005-1.953.5-2.46,2.443-2.462q11.792-.01,23.585,0a2.449,2.449,0,0,0,1.936-.619l1.235.031a4.026,4.026,0,0,0-.009,4.023l-1.221.022a2.776,2.776,0,0,0-2.026-.629q-10.66.026-21.319.01c-.294,0-.587.005-.881.016A.953.953,0,0,0,13,97.125c-.081,1.554-.051,3.111-.015,4.668.015.663.569.914.939,1.308-.438.829-.423.863.454.868,1.216.006,2.433,0,3.65.005.282,0,.584-.078.834.137" transform="translate(-1.986 -41.917)" fill="#a9b0b9"/>
        <path id="Trazado_196371" data-name="Trazado 196371" d="M122.781,104.122l-14.465-.01a33.434,33.434,0,0,1,4.511-.134c.244-.014.564.123.7-.19.128-.29-.124-.48-.276-.686a2.245,2.245,0,0,0,.977-2.271c-.052-.905-.009-1.816-.012-2.724-.005-1.836-.134-1.97-1.932-1.971q-7.337,0-14.675,0c-2.255,0-4.511.015-6.766-.009a2.413,2.413,0,0,0-1.928.628L87.7,96.733a3.987,3.987,0,0,0-.012-4.025l1.235-.03a2.448,2.448,0,0,0,1.936.619q11.485-.016,22.969-.007c.352,0,.7-.008,1.056.008,1.389.06,1.977.635,2,2.016.026,1.937.033,3.873,0,5.81a2.124,2.124,0,0,0,.805,2c-.387.627-.214.883.521.869,1.248-.025,2.5-.011,3.745,0,.283,0,.585-.078.836.137" transform="translate(-39.659 -41.917)" fill="#a9b0b9"/>
        <path id="Trazado_196372" data-name="Trazado 196372" d="M118.7,102.416c-.785.021-1.089-.38-1.083-1.143.018-2.229.007-4.459,0-6.689,0-1.335-.324-1.665-1.658-1.666q-12.319,0-24.638,0c-.7,0-1.317-.053-1.382-.947a1.012,1.012,0,0,1,1.144-.852c8.477,0,16.954-.008,25.431.013a2.826,2.826,0,0,1,2.882,2.915c.022,2.406,0,4.811.011,7.217,0,.552-.117.986-.711,1.149" transform="translate(-40.679 -41.214)" fill="#1c1d21"/>
        <path id="Trazado_196373" data-name="Trazado 196373" d="M41.879,91.972c-.068.892-.684.948-1.384.947q-12.011-.012-24.021,0c-.264,0-.528,0-.792,0-1.116.026-1.477.382-1.48,1.489-.007,2.288-.014,4.577,0,6.865.005.761-.3,1.166-1.083,1.145a.94.94,0,0,1-.71-1.06c.01-2.435-.011-4.871.01-7.306a2.856,2.856,0,0,1,3.056-2.921c3.139-.014,6.278,0,9.416,0q7.788,0,15.577,0c.664,0,1.245.064,1.408.854" transform="translate(-5.613 -41.211)" fill="#1c1d21"/>
        <path id="Trazado_196374" data-name="Trazado 196374" d="M89.933,99.354c.07-.692.48-.928,1.141-.927q11.623.012,23.246,0a.992.992,0,0,1,1.137,1.123c.009,1.673,0,3.347,0,5.02,0,.789-.357,1.215-1.191,1.132-.559-.226-.649-.69-.645-1.221.009-1.173-.037-2.347.018-3.516.03-.635-.181-.761-.78-.76-7.179.021-14.358.01-21.538.019-.672,0-1.239-.078-1.39-.869" transform="translate(-40.675 -44.517)" fill="#1c1d21"/>
        <path id="Trazado_196375" data-name="Trazado 196375" d="M20.8,105.7c-.831.081-1.19-.337-1.191-1.129,0-1.673-.006-3.347,0-5.02a.99.99,0,0,1,1.134-1.126q11.623.015,23.245,0c.665,0,1.065.245,1.145.928-.152.789-.719.87-1.39.87-7.12-.01-14.241.006-21.361-.024-.748,0-1.019.137-.962.94.081,1.137.015,2.285.021,3.428A1.063,1.063,0,0,1,20.8,105.7" transform="translate(-8.869 -44.517)" fill="#1c1d21"/>
        <path id="Trazado_196376" data-name="Trazado 196376" d="M78.285,89.168c1.15,1.518,1.153,2.523.012,4.024l-3.339,3.356a2.393,2.393,0,0,1-3.873,0l-3.337-3.356c-1.134-1.495-1.132-2.521.01-4.023l3.337-3.355a2.41,2.41,0,0,1,3.853,0l3.337,3.354" transform="translate(-30.257 -38.377)" fill="#1c1d21"/>
        <path id="Trazado_196377" data-name="Trazado 196377" d="M74.24,106.207a2.861,2.861,0,0,0,3.873,0c.08.416-.146.925.365,1.212-.883.4-1.006,1.146-.992,2.023q.056,3.5,0,7.009a1.786,1.786,0,0,0,.989,1.936.878.878,0,0,0-.39.726,24.271,24.271,0,0,0-3.859-.062c.061-.314-.144-.489-.347-.663a1.786,1.786,0,0,0,.989-1.936q-.06-3.5,0-7.009c.014-.878-.109-1.618-.991-2.023.511-.286.285-.8.365-1.212" transform="translate(-33.413 -48.036)" fill="#a9b0b9"/>
        <path id="Trazado_196378" data-name="Trazado 196378" d="M78.252,79.481a2.846,2.846,0,0,0-3.853,0q-.007-.533-.014-1.067a3.373,3.373,0,0,0,.642-2.473,17.275,17.275,0,0,1,0-1.935,3.371,3.371,0,0,0-.642-2.473,1.082,1.082,0,0,0-.18-.682h4.242l-.215.731a2.988,2.988,0,0,0-.61,2.2,20.832,20.832,0,0,1,0,2.18,3.344,3.344,0,0,0,.645,2.449l-.015,1.067" transform="translate(-33.562 -32.044)" fill="#a9b0b9"/>
        <path id="Trazado_196379" data-name="Trazado 196379" d="M73.4,108.419c.967,0,1.222.217,1.226,1.141q.016,4.339,0,8.677c0,.924-.253,1.139-1.223,1.151a1.018,1.018,0,0,1-.578-1.081q.011-4.4,0-8.807a1,1,0,0,1,.575-1.081" transform="translate(-32.937 -49.036)" fill="#1c1d21"/>
        <path id="Trazado_196380" data-name="Trazado 196380" d="M81.257,119.387c-1-.011-1.221-.222-1.224-1.237q-.01-4.251,0-8.5c0-1.012.233-1.23,1.227-1.227a1.008,1.008,0,0,1,.575,1.081q-.009,4.4,0,8.805a1.022,1.022,0,0,1-.578,1.081" transform="translate(-36.196 -49.037)" fill="#1c1d21"/>
        <path id="Trazado_196381" data-name="Trazado 196381" d="M73.753,72.1a1.274,1.274,0,0,1,.88,1.425q-.057,2.014,0,4.032a1.271,1.271,0,0,1-.88,1.425,1.016,1.016,0,0,1-.933-1.151c0-1.521.027-3.043-.011-4.563-.018-.708.4-.966.944-1.168" transform="translate(-32.93 -32.608)" fill="#1c1d21"/>
        <path id="Trazado_196382" data-name="Trazado 196382" d="M80.894,79.018a1.232,1.232,0,0,1-.88-1.345c.034-1.409.024-2.819,0-4.228a1.107,1.107,0,0,1,.841-1.261c.79.117,1,.605.98,1.354q-.064,2.022,0,4.047c.022.74-.171,1.257-.945,1.433" transform="translate(-36.189 -32.648)" fill="#1c1d21"/>
        <path id="Trazado_196383" data-name="Trazado 196383" d="M79.445,140.7a7.852,7.852,0,1,1-7.806-7.855,7.9,7.9,0,0,1,7.806,7.855" transform="translate(-28.829 -60.084)" fill="#25e0ac"/>
        <path id="Trazado_196384" data-name="Trazado 196384" d="M48.551,18.781c2.46,0,2.448,0,3.334-2.316a13.1,13.1,0,0,1,.912-1.9,1.163,1.163,0,0,0-.22-1.638c-.832-.786-1.605-1.634-2.442-2.416-.463-.433-.422-.743.022-1.15.648-.595,1.271-1.221,1.868-1.868.384-.415.672-.447,1.077-.015.8.856,1.665,1.657,2.48,2.5a1.1,1.1,0,0,0,1.561.205,10.8,10.8,0,0,1,3.233-1.345,1.187,1.187,0,0,0,1.051-1.369c-.048-1.114.021-2.232-.025-3.347-.027-.673.231-.88.87-.85.85.039,1.7.035,2.553,0,.6-.024.85.169.828.8-.039,1.144.018,2.291-.021,3.435A1.149,1.149,0,0,0,66.64,8.829a11.25,11.25,0,0,1,3.313,1.381,1.067,1.067,0,0,0,1.491-.195c.819-.841,1.679-1.644,2.479-2.5.429-.46.733-.439,1.142.013A21.19,21.19,0,0,0,76.81,9.267c.545.477.59.834.025,1.345-.827.747-1.572,1.583-2.379,2.353a1.1,1.1,0,0,0-.209,1.559,11.357,11.357,0,0,1,1.376,3.316,1.1,1.1,0,0,0,1.251.949c1.144-.03,2.291.014,3.435-.016.589-.016.868.155.84.795-.039.909-.03,1.821,0,2.73.016.531-.181.733-.718.721-1.174-.026-2.349.009-3.523-.014a1.117,1.117,0,0,0-1.271.939,12.012,12.012,0,0,1-1.415,3.394,1.069,1.069,0,0,0,.2,1.491c.841.819,1.649,1.673,2.5,2.483.4.381.475.671.03,1.08-.67.615-1.312,1.263-1.931,1.93-.4.428-.7.4-1.089-.006-.811-.85-1.665-1.657-2.482-2.5a1.081,1.081,0,0,0-1.494-.21,12.805,12.805,0,0,1-3.48,1.434,1.032,1.032,0,0,0-.84,1.161c.019,1.145-.037,2.293.02,3.435.036.728-.24.925-.919.882a18.8,18.8,0,0,0-2.377,0c-.71.046-1.006-.163-.963-.926.061-1.083-.011-2.173.025-3.258A1.145,1.145,0,0,0,60.457,33a11.515,11.515,0,0,1-3.314-1.375,1.108,1.108,0,0,0-1.564.214c-.808.851-1.666,1.656-2.481,2.5-.36.374-.652.412-1.025.018-.646-.681-1.308-1.35-1.993-1.993-.4-.376-.36-.653.019-1.015.828-.791,1.609-1.631,2.438-2.419a1.2,1.2,0,0,0,.244-1.71,10.158,10.158,0,0,1-1.311-3.151A1.236,1.236,0,0,0,50.023,23c-1.143.045-2.289,0-3.434.018-.494.009-.685-.182-.675-.673.02-.968.018-1.938,0-2.907-.008-.5.223-.676.7-.662.646.02,1.292,0,1.938,0" transform="translate(-20.766 -1.482)" fill="#25e0ac"/>
        <path id="Trazado_196385" data-name="Trazado 196385" d="M11.243,116.821c2.143,0,4.285,0,6.427,0,1.072,0,1.387.3,1.389,1.33q.01,6.517,0,13.033c0,1.007-.317,1.325-1.3,1.327q-6.56.007-13.119,0c-.99,0-1.273-.271-1.275-1.24q-.012-6.6,0-13.21c0-.967.288-1.236,1.276-1.239,2.2-.007,4.4,0,6.6,0" transform="translate(-1.519 -52.836)" fill="#20bdfc"/>
        <path id="Trazado_196386" data-name="Trazado 196386" d="M139.824,124.755c0,2.143,0,4.286,0,6.429,0,1.081-.262,1.33-1.365,1.33q-6.472,0-12.943,0c-1.1,0-1.39-.292-1.391-1.414q-.006-6.429,0-12.858c0-1.125.288-1.419,1.387-1.419q6.472-.006,12.943,0c1.13,0,1.368.248,1.37,1.415,0,2.172,0,4.344,0,6.517" transform="translate(-56.138 -52.836)" fill="#20bdfc"/>
        <path id="Trazado_196387" data-name="Trazado 196387" d="M74.554,88.539a1.172,1.172,0,0,1,.753.412q1.556,1.555,3.11,3.113a.99.99,0,0,1-.013,1.6q-1.562,1.549-3.112,3.111a.949.949,0,0,1-1.526.012c-1.056-1.059-2.119-2.113-3.174-3.172a.933.933,0,0,1-.039-1.467c1.09-1.108,2.194-2.2,3.3-3.3a.932.932,0,0,1,.7-.308" transform="translate(-31.757 -40.045)" fill="#fed166"/>
        <path id="Trazado_196388" data-name="Trazado 196388" d="M71.662,36.8a7.767,7.767,0,1,1,7.767-7.778A7.73,7.73,0,0,1,71.662,36.8" transform="translate(-28.903 -9.617)" fill="#1c1d21"/>
        <path id="Trazado_196389" data-name="Trazado 196389" d="M73.093,36.492a5.975,5.975,0,1,1,6.024-5.945,5.993,5.993,0,0,1-6.024,5.945" transform="translate(-30.377 -11.1)" fill="#126783"/>
      </g>
    </g>
  </g>
</svg>
