<svg xmlns="http://www.w3.org/2000/svg" xmlns:xlink="http://www.w3.org/1999/xlink" width="110" height="110" viewBox="0 0 110 110">
  <defs>
    <clipPath id="clip-path">
      <rect id="Rect치ngulo_45989" data-name="Rect치ngulo 45989" width="89.2" height="102.99" fill="none"/>
    </clipPath>
  </defs>
  <g id="Grupo_154315" data-name="Grupo 154315" transform="translate(-587.816 -1370.391)">
    <rect id="Rect치ngulo_35889" data-name="Rect치ngulo 35889" width="110" height="110" transform="translate(587.816 1370.39)" fill="none"/>
    <g id="Grupo_154319" data-name="Grupo 154319" transform="translate(597.816 1374.391)">
      <g id="Grupo_154319-2" data-name="Grupo 154319" clip-path="url(#clip-path)">
        <path id="Trazado_196339" data-name="Trazado 196339" d="M63.142,155.572a24.832,24.832,0,0,1-5.506-1.969c-6.706-3.774-8.26-11.928-3.235-17.472a13.847,13.847,0,0,1,10.247-4.555,14.148,14.148,0,0,1,10.695,3.973,10.92,10.92,0,0,1-.7,16.671,14.247,14.247,0,0,1-7.249,3.174c-.158.022-.34-.011-.43.178Z" transform="translate(-20.558 -52.582)"/>
        <path id="Trazado_196340" data-name="Trazado 196340" d="M36.662,51.872c-.369-1.563-.11-2.089,1.356-2.756,8.856-4.031,18.931-.754,23.359,7.6.819,1.545.82,1.546,2.508,1,2.29-.735,4.574-1.494,6.875-2.192.591-.18.743-.435.729-1.046a8.556,8.556,0,1,1,15.659,4.6,10.478,10.478,0,0,0-1.981,6.693c.037.8.02,1.609,0,2.413a5.086,5.086,0,0,1-5.091,5.018,5.161,5.161,0,0,1-5.183-5.056,39.764,39.764,0,0,0-.14-5.016A10.687,10.687,0,0,0,72.8,58.884c-.232-.345-.447-.28-.752-.182-2.892.937-5.783,1.877-8.685,2.779-.455.142-.546.348-.529.781A14.123,14.123,0,0,1,58.964,72.7c-.294.322-.28.489.007.8,2.908,3.149,5.8,6.313,8.84,9.633.081-1.07.151-1.978.217-2.885.087-1.2.751-1.883,1.8-1.851a1.687,1.687,0,0,1,1.628,1.99q-.17,3.463-.415,6.923a1.721,1.721,0,0,1-1.916,1.751q-3.513-.156-7.021-.418a1.694,1.694,0,0,1-1.743-1.9c.084-1,.793-1.546,1.984-1.516.836.021,1.672.058,2.508.085.026,0,.053-.026.18-.091-.56-.627-1.1-1.243-1.649-1.846-2.284-2.5-4.578-4.985-6.854-7.489-.346-.38-.593-.613-1.15-.254a17.066,17.066,0,0,1-7.314,2.575c-.478.057-.619.223-.617.681.014,2.912.007,5.824.007,8.857a9.047,9.047,0,0,0,1.823-1.637c1.026-.982,2.038-1.114,2.8-.328s.638,1.743-.332,2.721q-2.267,2.283-4.55,4.549a1.8,1.8,0,0,1-2.945-.017q-2.322-2.3-4.621-4.619c-.9-.911-.977-1.9-.235-2.648a1.76,1.76,0,0,1,2.65.22c.585.578,1.133,1.194,1.7,1.793L44,87.657V83.9c0-1.609-.019-3.218.01-4.826.01-.557-.092-.8-.738-.881a17.374,17.374,0,0,1-7.133-2.506c-.348-.216-.629-.44-1.026,0C32.244,78.853,29.349,82,26.4,85.231c.984,0,1.862.005,2.739,0,1.162-.009,1.893.566,1.961,1.554a1.712,1.712,0,0,1-1.788,1.866q-3.457.249-6.921.414a1.741,1.741,0,0,1-1.975-1.8q-.232-3.409-.411-6.822c-.062-1.219.555-1.985,1.569-2.046,1.084-.066,1.77.638,1.857,1.892.062.887.134,1.774.216,2.843l4.71-5.141c1.335-1.458,2.657-2.927,4.012-4.366.357-.378.428-.584.028-1.028a13.89,13.89,0,0,1-3.771-10.27c.026-.56-.174-.737-.661-.89-2.805-.879-5.6-1.787-8.4-2.7a.772.772,0,0,0-1.047.339,9.88,9.88,0,0,0-1.97,6.391,14.519,14.519,0,0,1-.107,3.607,5.123,5.123,0,0,1-10.152-.92c-.03-1.307.026-2.616-.037-3.921a9.545,9.545,0,0,0-1.865-5.005A8.558,8.558,0,1,1,19.965,54.31a1.092,1.092,0,0,0,.953,1.288c2.59.78,5.161,1.631,7.728,2.485.54.18.821.148,1.015-.462a10.361,10.361,0,0,1,.846-1.814c.8-1.455,1.368-1.66,2.937-1.13a1.667,1.667,0,0,1,.519,2.5,13.49,13.49,0,0,0-1.33,3.132,10.545,10.545,0,0,0,3.63,10.922,13.52,13.52,0,0,0,9.319,3.45c5.1-.074,9.4-1.958,12.169-6.528a10.626,10.626,0,0,0-1.315-12.333,14.812,14.812,0,0,0-16.329-3.57c-.4.162-.8.355-1.2.5a1.642,1.642,0,0,1-2.24-.881" transform="translate(-1.132 -18.287)"/>
        <path id="Trazado_196341" data-name="Trazado 196341" d="M56.86.009q8.792,0,17.583,0A10.256,10.256,0,0,1,85.095,10.624a38.251,38.251,0,0,1-.142,6.419,10.19,10.19,0,0,1-10.319,8.706q-15.925.023-31.85,0a48.223,48.223,0,0,1-5.019-.065,10.117,10.117,0,0,1-9.2-9.649A29.337,29.337,0,0,1,28.8,7.929a10.143,10.143,0,0,1,9.771-7.9C44.669-.026,50.765.014,56.86.014Z" transform="translate(-11.35 0)"/>
        <path id="Trazado_196342" data-name="Trazado 196342" d="M56.068,55.252a2.237,2.237,0,0,0,2.8.394c5.44-2.331,10.719-1.861,15.422,1.745,6.347,4.866,5.819,13.206.159,17.7a14.6,14.6,0,0,1-8.973,3.239c-5.268.112-11.186-2.549-13.359-8.286a10.28,10.28,0,0,1,.794-9.162,2.167,2.167,0,0,0-.055-2.829,10.747,10.747,0,0,1,3.216-2.805" transform="translate(-20.538 -21.667)" fill="#447883"/>
        <path id="Trazado_196343" data-name="Trazado 196343" d="M116.122,144.141a14.341,14.341,0,0,1-9.446-3.736c-5.159-4.7-5.1-11.961.106-16.688a15.13,15.13,0,0,1,19.672.07c5.605,5.175,5.01,13.32-1.293,17.695a15.552,15.552,0,0,1-9.039,2.659" transform="translate(-41.102 -48.006)"/>
        <path id="Trazado_196344" data-name="Trazado 196344" d="M14.229,120.09a14.279,14.279,0,0,1,9.321,3.664c5.641,5.176,5.062,13.239-1.23,17.691a15.146,15.146,0,0,1-18.271-.827c-5.786-4.933-5.3-13.42,1.016-17.832a15.036,15.036,0,0,1,9.164-2.7" transform="translate(0 -47.987)"/>
        <path id="Trazado_196345" data-name="Trazado 196345" d="M67.26,137.316a10.952,10.952,0,0,1,7.73,2.715c3.755,3.327,3.606,8.473-.3,11.907-3.807,3.346-10.89,3.28-14.644-.137-4.192-3.814-3.785-9.442.944-12.62a10.521,10.521,0,0,1,6.274-1.864" transform="translate(-22.84 -54.877)" fill="#25e0ac"/>
        <path id="Trazado_196346" data-name="Trazado 196346" d="M13.6,65.226c-1.628,0-1.631,0-2.065-1.533a15.022,15.022,0,0,0-2.143-4.277,5.107,5.107,0,0,1,.344-6.071,5.152,5.152,0,0,1,9.1,3.623,5.392,5.392,0,0,1-1.1,2.86A10.245,10.245,0,0,0,15.8,64.072c-.164.935-.548,1.339-1.5,1.16a3.787,3.787,0,0,0-.7-.007" transform="translate(-3.419 -20.579)" fill="#fbd476"/>
        <path id="Trazado_196347" data-name="Trazado 196347" d="M127.944,65.227c-1.676,0-1.669,0-2.129-1.589a14.639,14.639,0,0,0-2.051-4.1,5.127,5.127,0,1,1,9.211-4.107,4.951,4.951,0,0,1-.863,4.277,10.741,10.741,0,0,0-2.038,4.42c-.16.9-.522,1.279-1.43,1.106a3.787,3.787,0,0,0-.7-.007" transform="translate(-49.078 -20.581)" fill="#fbd476"/>
        <path id="Trazado_196348" data-name="Trazado 196348" d="M15.993,80.023c.651.253,1.859-.588,1.732,1.077-.115,1.512-.616,2.352-1.715,2.377-1.145.028-1.657-.8-1.76-2.4-.107-1.676,1.115-.775,1.742-1.051" transform="translate(-5.693 -31.981)" fill="#d8dce2"/>
        <path id="Trazado_196349" data-name="Trazado 196349" d="M130.258,80.02c.706.216,1.876-.549,1.743,1.1-.125,1.54-.6,2.346-1.71,2.357-1.134.012-1.669-.845-1.766-2.422-.105-1.709,1.162-.708,1.732-1.034" transform="translate(-51.364 -31.98)" fill="#d8dce2"/>
        <path id="Trazado_196350" data-name="Trazado 196350" d="M59.126,24.615c-5.9,0-11.8-.05-17.693.018a6.907,6.907,0,0,1-7.076-7.089,47.751,47.751,0,0,0,.006-5.027,6.807,6.807,0,0,1,6.83-6.807q17.945,0,35.89,0a6.471,6.471,0,0,1,2.353.406,6.5,6.5,0,0,1,4.549,5.715,27.948,27.948,0,0,1-.109,7.212,6.743,6.743,0,0,1-6.756,5.571q-9,.013-18,0" transform="translate(-13.726 -2.281)" fill="#20bdfc"/>
        <path id="Trazado_196351" data-name="Trazado 196351" d="M76.239,64.978A4.9,4.9,0,0,1,73.66,69.69a1.6,1.6,0,0,0-.879,1.111,1.477,1.477,0,0,1-1.6,1.244A1.542,1.542,0,0,1,69.6,70.77a5.071,5.071,0,0,1-.184-1.688c.132-1.542.493-1.937,2.028-2.259a1.5,1.5,0,0,0,1.377-1.368,1.629,1.629,0,0,0-.918-1.824,1.681,1.681,0,0,0-2,.429c-.1.085-.141.228-.227.329a1.906,1.906,0,0,1-2.356.445,1.724,1.724,0,0,1-.509-2.313,5.183,5.183,0,0,1,5.105-2.457,5.074,5.074,0,0,1,4.319,4.389,4.808,4.808,0,0,1,0,.525" transform="translate(-26.608 -23.977)"/>
        <path id="Trazado_196352" data-name="Trazado 196352" d="M74.828,84.8a1.533,1.533,0,0,1-1.606,1.728c-1.079.009-1.667-.624-1.654-1.779a1.632,1.632,0,1,1,3.26.052" transform="translate(-28.602 -33.199)"/>
        <path id="Trazado_196353" data-name="Trazado 196353" d="M118.969,125.885a10.451,10.451,0,0,1,8.145,3.44,7.482,7.482,0,0,1-.879,11.112,11.749,11.749,0,0,1-14.656,0,7.617,7.617,0,0,1,.429-12.394,11.2,11.2,0,0,1,6.961-2.16" transform="translate(-43.401 -50.311)" fill="#d76271"/>
        <path id="Trazado_196354" data-name="Trazado 196354" d="M15.53,125.882c3.477-.007,6.169.889,8.355,3.065a7.5,7.5,0,0,1-.022,11.009c-3.943,3.905-11.319,4.049-15.413.3A7.68,7.68,0,0,1,9.607,127.7a10.665,10.665,0,0,1,5.924-1.818" transform="translate(-2.284 -50.308)" fill="#d76271"/>
        <path id="Trazado_196355" data-name="Trazado 196355" d="M67.534,148.1a1.906,1.906,0,0,1,.7.251c.644.588.983.358,1.434-.289,1.048-1.505,2.2-2.94,3.3-4.4a1.635,1.635,0,0,1,1.886-.573,1.7,1.7,0,0,1,1.16,1.391,1.568,1.568,0,0,1-.379,1.3c-1.651,2.225-3.29,4.46-4.991,6.648-.9,1.159-1.815,1.155-2.873.12-.526-.514-1.048-1.032-1.554-1.565a1.665,1.665,0,0,1-.254-1.874,1.774,1.774,0,0,1,1.564-1.006" transform="translate(-26.296 -57.148)"/>
        <path id="Trazado_196356" data-name="Trazado 196356" d="M65.6,17.421c0-1.306-.018-2.613,0-3.919a1.893,1.893,0,0,1,2.11-2.11,25.461,25.461,0,0,1,3.71.067c2.611.383,3.968,1.878,4.482,4.66.517,2.805-.387,5.267-2.4,6.543a5.155,5.155,0,0,1-2.56.775c-1.1.05-2.21.035-3.315.008a1.87,1.87,0,0,1-2.02-2c-.034-1.339-.008-2.68-.008-4.021" transform="translate(-26.214 -4.539)"/>
        <path id="Trazado_196357" data-name="Trazado 196357" d="M42.8,17.42c0-1.339-.012-2.678,0-4.017a1.82,1.82,0,0,1,1.994-2c1.07-.015,2.143-.031,3.212,0a5.087,5.087,0,0,1,5.057,5.133,15.842,15.842,0,0,1-.1,3,5.238,5.238,0,0,1-4.784,3.909c-1.169.047-2.343.032-3.513.005a1.8,1.8,0,0,1-1.865-1.921c-.021-1.372-.005-2.745-.005-4.117" transform="translate(-17.104 -4.551)"/>
        <path id="Trazado_196358" data-name="Trazado 196358" d="M88.659,17.363c0-1.4.023-2.81-.007-4.214a1.541,1.541,0,0,1,1.45-1.733,15.83,15.83,0,0,1,4.5.039,5.2,5.2,0,0,1,4.333,5.453c.029,1.924-.172,3.727-1.715,5.13a5.043,5.043,0,0,1-2.277,1.186,17.244,17.244,0,0,1-4.79.15c-1.009-.04-1.477-.721-1.488-1.8-.015-1.4,0-2.81,0-4.214" transform="translate(-35.43 -4.505)"/>
        <path id="Trazado_196359" data-name="Trazado 196359" d="M117.126,139.852c-.023-.4.406-.818.825-1.262.592-.629,1.657-1.141,1.673-1.89s-1.061-1.271-1.653-1.9c-.956-1.009-1.075-1.914-.306-2.723.691-.726,1.785-.584,2.741.289.649.593,1.162,1.75,1.951,1.653.686-.084,1.276-1.087,1.874-1.717a1.837,1.837,0,0,1,2.346-.5,1.591,1.591,0,0,1,.8,1.8,2.494,2.494,0,0,1-.814,1.231c-.573.64-1.686,1.142-1.621,1.9.055.647,1.046,1.216,1.629,1.814,1.16,1.191,1.073,2.571-.207,3.122a1.641,1.641,0,0,1-1.925-.406c-.552-.536-1.129-1.054-1.626-1.638-.424-.5-.7-.421-1.094.025a23.429,23.429,0,0,1-1.776,1.772,1.492,1.492,0,0,1-1.763.29,1.864,1.864,0,0,1-1.057-1.859" transform="translate(-46.81 -52.583)"/>
        <path id="Trazado_196360" data-name="Trazado 196360" d="M16.071,131.622c.672-.067,1.13.432,1.612.907.57.563,1.156,1.531,1.741,1.534s1.159-.977,1.739-1.527a2.531,2.531,0,0,1,1.293-.9,1.671,1.671,0,0,1,1.836.73,1.579,1.579,0,0,1-.178,2.036,23.77,23.77,0,0,1-1.766,1.781c-.433.392-.406.664.013,1.04.572.513,1.114,1.064,1.633,1.632a1.709,1.709,0,1,1-2.422,2.408c-.742-.66-1.335-1.942-2.169-1.9-.73.037-1.4,1.217-2.1,1.879a1.714,1.714,0,0,1-2.581.088,1.787,1.787,0,0,1,.177-2.516c.53-.559,1.064-1.115,1.632-1.634.381-.348.418-.6.016-.965-.618-.563-1.2-1.162-1.775-1.775a1.584,1.584,0,0,1-.3-1.856,1.607,1.607,0,0,1,1.606-.965" transform="translate(-5.707 -52.596)"/>
        <path id="Trazado_196361" data-name="Trazado 196361" d="M71.275,19.608a3.927,3.927,0,0,1,.013-1c.139-.52-.484-1.366.55-1.519,1.552-.229,2.548.222,2.814,1.248a5.682,5.682,0,0,1,.188,1.381c.009,2.056-1.036,2.91-3.067,2.584a.5.5,0,0,1-.5-.591c.006-.7,0-1.4,0-2.1" transform="translate(-28.466 -6.807)" fill="#20bdfc"/>
        <path id="Trazado_196362" data-name="Trazado 196362" d="M51.924,19.727c.247,2.306-1.147,2.706-2.771,2.6-.456-.031-.662-.16-.656-.64.018-1.334.015-2.668,0-4,0-.431.185-.566.6-.591,1.57-.1,3.08.158,2.826,2.637" transform="translate(-19.382 -6.823)" fill="#20bdfc"/>
        <path id="Trazado_196363" data-name="Trazado 196363" d="M94.343,19.677a13.574,13.574,0,0,0-.013-1.6c-.1-.839.279-1,1.031-.988,1.788.035,2.4.611,2.4,2.407,0,.334.014.669,0,1a2.286,2.286,0,0,1-3.166,1.783c-.27-.139-.246-.371-.248-.6-.007-.668,0-1.336,0-2" transform="translate(-37.693 -6.828)" fill="#20bdfc"/>
      </g>
    </g>
  </g>
</svg>
