<svg xmlns="http://www.w3.org/2000/svg" xmlns:xlink="http://www.w3.org/1999/xlink" width="121" height="121" viewBox="0 0 121 121">
  <defs>
    <clipPath id="clip-path">
      <rect id="Rect치ngulo_45992" data-name="Rect치ngulo 45992" width="68.185" height="68.176" fill="none"/>
    </clipPath>
  </defs>
  <g id="Grupo_154617" data-name="Grupo 154617" transform="translate(-285 -3416.344)">
    <circle id="Elipse_4864" data-name="Elipse 4864" cx="60.5" cy="60.5" r="60.5" transform="translate(285 3416.344)" fill="#25e0ac"/>
    <g id="Grupo_154324" data-name="Grupo 154324" transform="translate(15 -948.156)">
      <rect id="Rect치ngulo_35900" data-name="Rect치ngulo 35900" width="80" height="80" transform="translate(287 4382)" fill="none"/>
      <g id="Grupo_154322" data-name="Grupo 154322" transform="translate(294.816 4386.995)">
        <g id="Grupo_154322-2" data-name="Grupo 154322" clip-path="url(#clip-path)">
          <path id="Trazado_196415" data-name="Trazado 196415" d="M52.3,19.554c0,1.784.015,3.568-.011,5.351-.007.465.134.589.587.583,1.691-.024,3.382-.014,5.074-.007,1.21.005,1.742.537,1.75,1.731,0,.695.04,1.393-.011,2.084-.04.54.152.646.659.643,4.54-.02,9.081-.012,13.621-.011.231,0,.465-.006.695.016a1.405,1.405,0,0,1,1.327,1.5c.02,1.274.026,2.549,0,3.822-.011.464.135.6.589.579a7.551,7.551,0,0,1,2.81.321,5.934,5.934,0,0,1-1.857,11.555c-.483.02-1.107-.2-1.412.094-.335.33-.108.968-.114,1.47-.017,1.39-.006,1.39,1.41,1.39.973,0,1.946-.01,2.919,0a1.483,1.483,0,0,1,1.606,1.6c.014.834.029,1.669-.008,2.5a.762.762,0,0,0,.507.835,4.426,4.426,0,0,1-1.05,8.3,4.444,4.444,0,0,1-3.108-8.221c.246-.138.653-.132.693-.487a8.548,8.548,0,0,0,0-1.387c-.011-.227-.225-.195-.381-.2q-4.066,0-8.131,0a.45.45,0,0,0-.31.1,1.871,1.871,0,0,0,.494,1.907,4.446,4.446,0,1,1-6.477,3.756A4.223,4.223,0,0,1,66.6,55.626a.773.773,0,0,0,.508-.843c-.035-.786-.018-1.574-.008-2.362a1.546,1.546,0,0,1,1.751-1.75c1.2,0,2.409-.018,3.613.008.43.01.62-.074.587-.557-.044-.668-.023-1.343-.005-2.014.008-.3-.1-.4-.4-.4a12.5,12.5,0,0,1-1.6-.041,5.867,5.867,0,0,1-5.4-6.186,5.935,5.935,0,0,1,5.767-5.648c.523-.029,1.257.232,1.514-.123.268-.371.1-1.063.105-1.614.007-1.221,0-1.221-1.222-1.221-3.8,0-7.6.019-11.4-.018-.64-.006-.78.181-.735.767.052.668.018,1.343.01,2.014a1.506,1.506,0,0,1-1.669,1.682c-1.691.009-3.383.019-5.073-.007-.479-.008-.685.059-.673.622.041,1.853.029,3.707.005,5.559a1.04,1.04,0,0,0,.469.919c2.035,1.607,4.055,3.233,6.078,4.855,1.146.919,1.149,1.876.01,2.789-2.041,1.636-4.08,3.276-6.132,4.9a.982.982,0,0,0-.424.87c.02,1.876.025,3.753,0,5.629-.007.472.149.57.587.564,1.691-.023,3.382-.013,5.073-.008A1.526,1.526,0,0,1,59.7,65.754q.007,4.2,0,8.409a1.49,1.49,0,0,1-1.714,1.7q-7.193.009-14.386,0c-1.15,0-1.686-.558-1.688-1.721q-.007-4.2,0-8.409a1.513,1.513,0,0,1,1.706-1.713c1.668-.007,3.336-.034,5,.014.607.017.715-.179.7-.735-.037-1.783-.028-3.567,0-5.351a1.165,1.165,0,0,0-.5-1.047c-2.038-1.6-4.057-3.23-6.078-4.855-1.117-.9-1.119-1.845-.007-2.739,2.039-1.639,4.076-3.281,6.131-4.9a1.04,1.04,0,0,0,.448-.929c-.02-1.853-.028-3.707,0-5.559.008-.506-.154-.607-.625-.6-1.69.028-3.382.016-5.073.01a1.516,1.516,0,0,1-1.714-1.707q-.007-4.239,0-8.478a1.479,1.479,0,0,1,1.68-1.659c1.714-.011,3.429-.017,5.143.006.453.007.594-.118.587-.583-.026-1.783-.011-3.567-.011-5.351a4.13,4.13,0,0,1,2.992,0" transform="translate(-16.714 -7.688)"/>
          <path id="Trazado_196416" data-name="Trazado 196416" d="M50.19,11.867H47.2c-1.636-.007-3.271-.016-4.908-.019A5.1,5.1,0,0,1,36.855,7.4a4.692,4.692,0,0,1,0-2.95A5.031,5.031,0,0,1,40.8.109a4.746,4.746,0,0,1,1.242-.1c4.422,0,8.845-.013,13.267,0a4.978,4.978,0,0,1,5.226,5.239c0,.578.006,1.158-.017,1.736a5.006,5.006,0,0,1-5.051,4.863c-1.759.013-3.518.014-5.278.021" transform="translate(-14.606 0)" fill="#d3f9ee"/>
          <path id="Trazado_196417" data-name="Trazado 196417" d="M0,57.719q0-5.73,0-11.46c0-1.4.468-1.865,1.88-1.866q8.508,0,17.016,0c1.35,0,1.847.5,1.847,1.842q0,11.494,0,22.989c0,1.3-.548,1.853-1.857,1.854q-8.508.005-17.016,0c-1.376,0-1.869-.5-1.87-1.9q0-5.73,0-11.46" transform="translate(0 -17.706)"/>
          <path id="Trazado_196418" data-name="Trazado 196418" d="M26.163,5.4q0,1.475,0,2.95c-2.362,0-4.725.011-7.087,0a.747.747,0,0,0-.843.488,4.04,4.04,0,0,1-2.082,2.047c-.248.114-.4.224-.4.546.016,2.66.009,5.32.009,7.993.305.017.39-.248.562-.372a1.51,1.51,0,0,1,1.968.12,1.411,1.411,0,0,1,.14,1.9,28.283,28.283,0,0,1-3.351,3.32,1.235,1.235,0,0,1-1.663-.034,38.046,38.046,0,0,1-3.254-3.225,1.4,1.4,0,0,1,.1-1.952,1.5,1.5,0,0,1,2.018-.085c.141.113.272.24.408.361.215-.155.117-.356.118-.522.007-2.409,0-4.817.013-7.226a.808.808,0,0,0-.534-.891,4.43,4.43,0,0,1,1.388-8.363,4.373,4.373,0,0,1,4.534,2.4.868.868,0,0,0,.944.566c2.339-.02,4.679-.01,7.018-.01" transform="translate(-3.909 -0.958)"/>
          <path id="Trazado_196419" data-name="Trazado 196419" d="M52.755,34.5c1.8,0,3.607.013,5.411-.01.427-.005.551.114.544.543-.025,1.618-.021,3.238,0,4.856,0,.409-.1.564-.539.563q-5.411-.024-10.822,0c-.361,0-.548-.06-.542-.486.021-1.665.023-3.33,0-4.995-.007-.44.191-.476.541-.473,1.8.012,3.607.005,5.411.005" transform="translate(-18.668 -13.757)" fill="#f7f8f8"/>
          <path id="Trazado_196420" data-name="Trazado 196420" d="M52.752,104.548c-1.781,0-3.562-.018-5.342.012-.494.008-.619-.14-.61-.62.029-1.595.023-3.191,0-4.786-.005-.417.109-.56.544-.558q5.411.023,10.822,0c.443,0,.541.158.536.564-.019,1.618-.023,3.238,0,4.856.007.432-.121.546-.546.542-1.8-.022-3.607-.01-5.411-.01" transform="translate(-18.667 -39.327)" fill="#f7f8f8"/>
          <path id="Trazado_196421" data-name="Trazado 196421" d="M92.277,51.8c1,0,1.991-.017,2.986,0a2.94,2.94,0,0,1,.019,5.878c-2.014.027-4.028.024-6.041,0a2.94,2.94,0,0,1-.019-5.88c1.018-.019,2.037,0,3.056,0" transform="translate(-34.423 -20.659)" fill="#b1dbea"/>
          <path id="Trazado_196422" data-name="Trazado 196422" d="M58.4,68.824c.008.2-.146.247-.247.328-1.46,1.176-2.929,2.34-4.381,3.526-.259.212-.412.165-.646-.025q-2.155-1.75-4.336-3.47c-.307-.241-.3-.364,0-.6,1.474-1.158,2.935-2.333,4.392-3.512.192-.156.326-.195.535-.026,1.493,1.208,3,2.405,4.494,3.607.07.057.133.123.189.175" transform="translate(-19.367 -25.899)" fill="#b1dbea"/>
          <path id="Trazado_196423" data-name="Trazado 196423" d="M85.313,86.8A1.488,1.488,0,1,1,86.8,85.276,1.528,1.528,0,0,1,85.313,86.8" transform="translate(-33.435 -33.434)" fill="#f6f7f7"/>
          <path id="Trazado_196424" data-name="Trazado 196424" d="M103.6,85.281a1.48,1.48,0,0,1,1.459-1.459,1.488,1.488,0,0,1,.011,2.975,1.476,1.476,0,0,1-1.47-1.516" transform="translate(-41.321 -33.434)" fill="#f6f7f7"/>
          <path id="Trazado_196425" data-name="Trazado 196425" d="M4.9,59.645c0-3.242.014-6.484-.014-9.726,0-.538.153-.637.656-.634q6.773.03,13.547,0c.5,0,.666.1.664.638q-.031,9.726,0,19.452c0,.572-.183.679-.706.677q-6.738-.029-13.477,0c-.545,0-.687-.138-.683-.683.026-3.242.013-6.484.013-9.726" transform="translate(-1.95 -19.658)" fill="#f7f8f8"/>
          <path id="Trazado_196426" data-name="Trazado 196426" d="M16.247,7.413a1.452,1.452,0,0,1,1.511,1.464,1.507,1.507,0,0,1-1.452,1.476,1.451,1.451,0,0,1-1.488-1.487,1.408,1.408,0,0,1,1.43-1.454" transform="translate(-5.91 -2.957)" fill="#bdc5c5"/>
          <path id="Trazado_196427" data-name="Trazado 196427" d="M14.3,57.211c-.925,0-1.849.011-2.773,0a1.528,1.528,0,1,1-.028-3.032q2.773-.023,5.546,0a1.523,1.523,0,1,1-.041,3.034c-.9.01-1.8,0-2.7,0" transform="translate(-3.908 -21.605)" fill="#126783"/>
          <path id="Trazado_196428" data-name="Trazado 196428" d="M14.272,67.02c-.993,0-1.987.011-2.98,0a1.454,1.454,0,0,1-.115-2.906q3.117-.054,6.237,0a1.474,1.474,0,0,1,1.263,1.627,1.3,1.3,0,0,1-1.355,1.276c-1.017.017-2.033,0-3.05,0" transform="translate(-3.906 -25.561)" fill="#126783"/>
          <path id="Trazado_196429" data-name="Trazado 196429" d="M14.307,74.032c.992,0,1.986-.011,2.979,0a1.3,1.3,0,0,1,1.392,1.38,1.445,1.445,0,0,1-1.368,1.532q-3.014.036-6.029,0a1.458,1.458,0,1,1,.047-2.914c.993-.012,1.986,0,2.98,0" transform="translate(-3.906 -29.527)" fill="#126783"/>
        </g>
      </g>
    </g>
  </g>
</svg>
