<svg xmlns="http://www.w3.org/2000/svg" xmlns:xlink="http://www.w3.org/1999/xlink" width="121" height="121" viewBox="0 0 121 121">
  <defs>
    <clipPath id="clip-path">
      <rect id="Rect치ngulo_45994" data-name="Rect치ngulo 45994" width="67" height="67.003" fill="none"/>
    </clipPath>
  </defs>
  <g id="Grupo_154616" data-name="Grupo 154616" transform="translate(-285 -3244)">
    <circle id="Elipse_4863" data-name="Elipse 4863" cx="60.5" cy="60.5" r="60.5" transform="translate(285 3244)" fill="#25e0ac"/>
    <g id="Grupo_154323" data-name="Grupo 154323" transform="translate(18.45 -1117.551)">
      <rect id="Rect치ngulo_35900" data-name="Rect치ngulo 35900" width="80" height="80" transform="translate(287.366 4381.551)" fill="none"/>
      <g id="Grupo_154328" data-name="Grupo 154328" transform="translate(293.366 4388.551)">
        <g id="Grupo_154327" data-name="Grupo 154327" clip-path="url(#clip-path)">
          <path id="Trazado_196437" data-name="Trazado 196437" d="M14.4,0c.559.123,1.12.233,1.675.37A13.031,13.031,0,1,1,11.446.114C11.533.1,11.618.1,11.655,0Z" transform="translate(-0.007)"/>
          <path id="Trazado_196438" data-name="Trazado 196438" d="M88.031,76.51c-.164.664-.31,1.333-.495,1.991a13.009,13.009,0,1,1,.271-5.909c.058.3-.032.652.223.908Z" transform="translate(-21.031 -21.026)"/>
          <path id="Trazado_196439" data-name="Trazado 196439" d="M88.562,13.085A8.256,8.256,0,0,1,86.7,15.294c-.811.821-1.644,1.622-2.443,2.453a1.112,1.112,0,0,1-1.565.246.924.924,0,0,1-.281-1.29,2.753,2.753,0,0,1,.542-.65c1.016-1.019,2.027-2.042,3.055-3.048.341-.334.425-.6.043-.976Q81.278,7.28,76.528,2.506a.547.547,0,0,0-.923,0q-4.752,4.772-9.524,9.524c-.332.331-.358.579-.013.923q4.773,4.751,9.524,9.524c.373.375.637.32.976-.03.8-.829,1.628-1.638,2.447-2.453a2.522,2.522,0,0,1,.6-.5.931.931,0,0,1,1.294.279,1.126,1.126,0,0,1-.25,1.569c-.986.956-1.94,1.945-2.92,2.907a2.215,2.215,0,0,1-3.4-.024q-5-4.988-9.99-9.989a2.219,2.219,0,0,1-.012-3.445q4.989-5,9.982-10A6.6,6.6,0,0,1,75.477,0h1.046a2.762,2.762,0,0,1,1.6.908q4.748,4.782,9.53,9.53a2.763,2.763,0,0,1,.909,1.6Z" transform="translate(-21.562)"/>
          <path id="Trazado_196440" data-name="Trazado 196440" d="M14.472,87.995h-2.54A2.239,2.239,0,0,0,9.8,87.18c-1.961.037-3.923.02-5.885.009-1.067-.007-1.26-.2-1.261-1.266q-.009-10,0-20.01c0-1.075.186-1.256,1.262-1.258q10-.007,20.01,0c1.077,0,1.26.181,1.26,1.26q.01,10,0,20.01c0,1.07-.191,1.259-1.263,1.264-2.441.011-4.882.025-7.323-.009a2.25,2.25,0,0,0-2.13.815" transform="translate(-0.9 -21.944)" fill="#feb44e"/>
          <path id="Trazado_196441" data-name="Trazado 196441" d="M13.572,87.09c.164-.79.431-1.013,1.25-1.014,2.855,0,5.71-.013,8.565.009.528,0,.715-.13.713-.69Q24.076,75,24.1,64.6c0-.522-.153-.665-.669-.664q-10.4.023-20.792,0c-.564,0-.686.193-.685.716q.022,10.363,0,20.726c0,.541.155.711.7.705,2.375-.027,4.751-.014,7.126-.011.819,0,1.087.225,1.25,1.014a1.048,1.048,0,0,1-1.186.951c-2.508-.009-5.014,0-7.522-.007A2.208,2.208,0,0,1,.006,85.74q-.012-10.727,0-21.454a2.19,2.19,0,0,1,2.307-2.3q10.726-.01,21.454,0a2.173,2.173,0,0,1,2.281,2.249q.014,10.759,0,21.519a2.188,2.188,0,0,1-2.263,2.274c-3.009.014-6.017,0-9.026.009a1.047,1.047,0,0,1-1.186-.951" transform="translate(0 -21.039)"/>
          <path id="Trazado_196442" data-name="Trazado 196442" d="M81.956,20.814a1.042,1.042,0,0,0-1.606.142c-.945.936-1.893,1.871-2.817,2.826-.307.317-.517.356-.851.019q-4.912-4.941-9.853-9.855c-.3-.3-.3-.5,0-.8q4.939-4.914,9.853-9.854c.334-.336.536-.3.848.015q4.891,4.917,9.809,9.806c.365.363.3.575-.031.9-1.157,1.125-2.292,2.272-3.428,3.418a1.037,1.037,0,0,0-.141,1.6,13.1,13.1,0,0,0-1.782,1.784" transform="translate(-22.606 -1.037)" fill="#fe3b81"/>
          <path id="Trazado_196443" data-name="Trazado 196443" d="M50.866,15.894c-.452-.519-.82-.918-1.161-1.338a.964.964,0,0,1,.075-1.448.943.943,0,0,1,1.39.159c.871.973,1.723,1.963,2.572,2.957a.934.934,0,0,1,0,1.308q-1.286,1.521-2.618,3a.972.972,0,1,1-1.462-1.282c.349-.444.735-.858,1.2-1.4H48c-.327,0-.655.012-.98,0a.977.977,0,1,1,0-1.951c1.132-.02,2.265-.007,3.4-.007h.445" transform="translate(-15.615 -4.369)"/>
          <path id="Trazado_196444" data-name="Trazado 196444" d="M16.682,47.21c-.518.449-.917.816-1.339,1.155a.982.982,0,0,1-1.45-.081.95.95,0,0,1,.166-1.389c.957-.856,1.93-1.694,2.9-2.533a.987.987,0,0,1,1.414,0c.975.836,1.948,1.674,2.9,2.531a.967.967,0,0,1,.161,1.394.992.992,0,0,1-1.45.075c-.223-.174-.427-.371-.641-.556-.2-.17-.4-.338-.7-.6,0,.973,0,1.848,0,2.723,0,.37.012.741,0,1.11a.976.976,0,1,1-1.951.011c-.022-1.132-.007-2.264-.008-3.4V47.21" transform="translate(-4.637 -14.956)"/>
          <path id="Trazado_196445" data-name="Trazado 196445" d="M79.458,48.927c0-1.313,0-2.482,0-3.65,0-.764.366-1.2.975-1.2s.98.454.985,1.208c.007,1.169,0,2.338,0,3.636.487-.421.881-.776,1.29-1.112a1,1,0,0,1,1.455,0,.969.969,0,0,1-.175,1.483q-1.389,1.238-2.805,2.445a1,1,0,0,1-1.511-.007q-1.413-1.212-2.806-2.444a.988.988,0,0,1-.206-1.437,1,1,0,0,1,1.5-.028c.4.33.789.68,1.295,1.117" transform="translate(-25.944 -14.959)"/>
          <path id="Trazado_196446" data-name="Trazado 196446" d="M14.012,25.1A11.062,11.062,0,1,1,25.1,14.064,11.071,11.071,0,0,1,14.012,25.1" transform="translate(-1.009 -1.009)" fill="#7eacdd"/>
          <path id="Trazado_196447" data-name="Trazado 196447" d="M76.019,64.96A11.062,11.062,0,1,1,64.964,76.019,11.067,11.067,0,0,1,76.019,64.96" transform="translate(-22.05 -22.049)" fill="#00f1a8"/>
          <path id="Trazado_196448" data-name="Trazado 196448" d="M15.448,68.936h4.514a3.582,3.582,0,0,1,3.844,3.822c0,3.1.007,6.193,0,9.289a3.61,3.61,0,0,1-1.789,3.271,4.145,4.145,0,0,1-2.2.482c-2.965.035-5.931.043-8.9,0-1.9-.024-3.156-.676-3.741-2.43a7.465,7.465,0,0,1-.241-2.249c-.027-2.55-.058-5.1.016-7.653a5.288,5.288,0,0,1,.422-2.67,3.624,3.624,0,0,1,3.3-1.863c1.592-.011,3.183,0,4.775,0" transform="translate(-2.345 -23.397)" fill="#fea630"/>
          <path id="Trazado_196449" data-name="Trazado 196449" d="M79.215,22.157a3.951,3.951,0,0,1-2.642-1.13q-1.467-1.446-2.914-2.913a3.419,3.419,0,0,1,.005-5.042c1.085-1.009,2.1-2.091,3.153-3.137a3.249,3.249,0,0,1,4.571-.046c1.156,1.126,2.279,2.284,3.427,3.418a3.41,3.41,0,0,1-.054,4.544c-1.169,1.077-2.272,2.229-3.382,3.37a3.8,3.8,0,0,1-2.165.937" transform="translate(-24.626 -3.045)" fill="#fe1567"/>
          <path id="Trazado_196450" data-name="Trazado 196450" d="M23.889,15.323a8.562,8.562,0,1,1-8.468-8.565,8.532,8.532,0,0,1,8.468,8.565" transform="translate(-2.296 -2.294)" fill="#609bd5"/>
          <path id="Trazado_196451" data-name="Trazado 196451" d="M77.393,68.737a8.569,8.569,0,1,1-8.673,8.36,8.558,8.558,0,0,1,8.673-8.36" transform="translate(-23.324 -23.33)" fill="#09d591"/>
          <path id="Trazado_196452" data-name="Trazado 196452" d="M23.253,77.975c0,1.614.007,3.228,0,4.841a2.274,2.274,0,0,1-2.414,2.419q-4.84.012-9.682,0A2.29,2.29,0,0,1,8.72,82.765q-.008-4.808,0-9.617A2.273,2.273,0,0,1,11.173,70.7q4.809-.009,9.617,0a2.273,2.273,0,0,1,2.462,2.5c.005,1.591,0,3.183,0,4.775" transform="translate(-2.958 -23.997)"/>
          <path id="Trazado_196453" data-name="Trazado 196453" d="M79.683,21.566A2.184,2.184,0,0,1,78,20.858c-1.02-1.013-2.048-2.019-3.047-3.052a2.251,2.251,0,0,1,.022-3.371q1.485-1.517,3-3a2.258,2.258,0,0,1,3.413.019q1.489,1.466,2.957,2.957a2.261,2.261,0,0,1,.028,3.415c-1,1.031-2.031,2.035-3.049,3.05a2.168,2.168,0,0,1-1.646.692" transform="translate(-25.187 -3.619)"/>
          <path id="Trazado_196454" data-name="Trazado 196454" d="M22.5,19.952c-.391.483-.768.979-1.18,1.443a1.107,1.107,0,0,1-.642.409,2.488,2.488,0,0,0-1.82.2,5.462,5.462,0,0,1-6.035-1.441,5.489,5.489,0,0,1,6.153-8.739A5.436,5.436,0,0,1,22.191,18.3a2.245,2.245,0,0,0,.308,1.651" transform="translate(-3.882 -3.875)" fill="#b5dbfe"/>
          <path id="Trazado_196455" data-name="Trazado 196455" d="M21.567,19.05a1.25,1.25,0,0,1-.507-1.576,5.037,5.037,0,0,0-1.691-5.529,4.968,4.968,0,0,0-5.737-.68,5.057,5.057,0,0,0-2.946,4.983,5.287,5.287,0,0,0,7.51,4.563c.556-.254,1.059-.416,1.548.091.377.781.253,1.232-.516,1.591a6.95,6.95,0,0,1-7.837-.891,6.815,6.815,0,0,1-2.4-7.506,6.826,6.826,0,0,1,5.75-5.228,7.233,7.233,0,0,1,8.22,9.144c-.25.855-.509,1.048-1.4,1.038" transform="translate(-2.95 -2.973)"/>
          <path id="Trazado_196456" data-name="Trazado 196456" d="M78,70.708a7.266,7.266,0,1,1-7.288,7.251A7.27,7.27,0,0,1,78,70.708" transform="translate(-24.001 -24)"/>
          <path id="Trazado_196457" data-name="Trazado 196457" d="M11.685,78.982c0-1.546.017-3.093-.009-4.639-.009-.5.143-.687.667-.684q4.638.031,9.277,0c.5,0,.689.133.686.662q-.032,4.638,0,9.277c0,.5-.132.692-.662.689q-4.638-.031-9.277,0c-.577,0-.7-.223-.688-.736.024-1.524.009-3.049.009-4.573" transform="translate(-3.963 -25.002)" fill="#fecd8a"/>
          <path id="Trazado_196458" data-name="Trazado 196458" d="M80.691,20.623c-.171-.006-.267-.133-.374-.24-.941-.939-1.874-1.885-2.823-2.815-.3-.291-.313-.515,0-.815.967-.943,1.92-1.9,2.867-2.864a.426.426,0,0,1,.714-.009q1.448,1.464,2.911,2.913c.216.214.307.416.055.666q-1.505,1.5-3,3a.4.4,0,0,1-.341.16" transform="translate(-26.225 -4.647)" fill="#fe78a9"/>
          <path id="Trazado_196459" data-name="Trazado 196459" d="M73.681,79a5.3,5.3,0,1,1,5.335,5.287A5.288,5.288,0,0,1,73.681,79" transform="translate(-25.009 -25.008)" fill="#9ff7d3"/>
        </g>
      </g>
    </g>
  </g>
</svg>
