<svg xmlns="http://www.w3.org/2000/svg" xmlns:xlink="http://www.w3.org/1999/xlink" width="301.461" height="177.505" viewBox="0 0 301.461 177.505">
  <defs>
    <filter id="Trazado_113277" x="0" y="93.217" width="111.592" height="84.289" filterUnits="userSpaceOnUse">
      <feOffset dy="3" input="SourceAlpha"/>
      <feGaussianBlur stdDeviation="8.5" result="blur"/>
      <feFlood flood-opacity="0.2"/>
      <feComposite operator="in" in2="blur"/>
      <feComposite in="SourceGraphic"/>
    </filter>
  </defs>
  <g id="Grupo_143284" data-name="Grupo 143284" transform="translate(6.461)">
    <g id="Grupo_134324" data-name="Grupo 134324" transform="translate(0 0)">
      <g id="Grupo_134139" data-name="Grupo 134139" transform="translate(19.039 22.743)">
        <rect id="Rectángulo_33902" data-name="Rectángulo 33902" width="243.672" height="125.626" rx="21" transform="translate(13.25)" fill="#f6f6f6"/>
        <g transform="matrix(1, 0, 0, 1, -25.5, -22.74)" filter="url(#Trazado_113277)">
          <path id="Trazado_113277-2" data-name="Trazado 113277" d="M15.776,0A16.3,16.3,0,0,1,31.915,15.93l.33,28.543A15.42,15.42,0,0,1,16.47,60.037,16.3,16.3,0,0,1,.331,44.108L0,15.566A15.42,15.42,0,0,1,15.776,0Z" transform="matrix(0.02, 1, -1, 0.02, 85.53, 115.72)" fill="#20bdfc"/>
        </g>
      </g>
      <g id="Grupo_134142" data-name="Grupo 134142">
        <path id="Trazado_127466" data-name="Trazado 127466" d="M611.491,26.365l7.2,15.258-3.828-16.568a164.87,164.87,0,0,1,22.649-6.067S639.973,24.9,642.3,32.3l-10.844,6.239,11.667-3.531c2.7,9.221,4.765,19.808,1.7,24.1-4.654,6.516-31.669,4.8-31.669,4.8S596.978,42.2,599.9,34.741c1.254-3.2,5.934-6.027,11.587-8.376" transform="translate(-412.468 -16.284)" fill="#d3f9ee"/>
        <path id="Trazado_127467" data-name="Trazado 127467" d="M389.923,131.285a.246.246,0,0,1-.118-.462c15.414-8.407,36.454-21.113,49.153-33.9,23.262-23.421,37.957-59.014,38.1-59.371a.246.246,0,0,1,.456.186c-.146.358-14.879,36.042-38.209,59.532-12.742,12.829-33.825,25.562-49.267,33.985a.244.244,0,0,1-.118.03" transform="translate(-254.26 -30.162)" fill="#126783"/>
        <path id="Trazado_127468" data-name="Trazado 127468" d="M669.959,165.158a.246.246,0,0,1-.005-.492,74.829,74.829,0,0,0,12.393-1.3,75.581,75.581,0,0,0,11.433-3.124.246.246,0,0,1,.167.464,75.452,75.452,0,0,1-23.982,4.451Z" transform="translate(-465.359 -122.755)" fill="#126783"/>
        <path id="Trazado_127469" data-name="Trazado 127469" d="M691.959,120.125a.246.246,0,0,1-.045-.488,65.712,65.712,0,0,0,10.557-2.876,66.35,66.35,0,0,0,9.467-4.323.246.246,0,1,1,.239.43,66.826,66.826,0,0,1-9.537,4.355,66.206,66.206,0,0,1-10.636,2.9.234.234,0,0,1-.045,0" transform="translate(-481.943 -86.705)" fill="#126783"/>
        <path id="Trazado_127470" data-name="Trazado 127470" d="M658.227,130.7a.246.246,0,0,1-.194-.094,75.311,75.311,0,0,1-6.883-10.486.246.246,0,0,1,.433-.235A74.775,74.775,0,0,0,658.42,130.3a.246.246,0,0,1-.042.346.243.243,0,0,1-.152.052" transform="translate(-451.343 -92.245)" fill="#126783"/>
        <path id="Trazado_127471" data-name="Trazado 127471" d="M693.436,60.047a.246.246,0,0,1-.229-.155,58.233,58.233,0,0,1-2.851-9.369,60.441,60.441,0,0,1-1.246-9.316.246.246,0,0,1,.232-.259.242.242,0,0,1,.259.232,59.971,59.971,0,0,0,1.236,9.241,57.727,57.727,0,0,0,2.828,9.289.246.246,0,0,1-.229.337" transform="translate(-479.981 -32.837)" fill="#126783"/>
        <path id="Trazado_127472" data-name="Trazado 127472" d="M723.422,50.638a.246.246,0,0,1-.241-.2,37.241,37.241,0,0,1-.654-6.137c-.028-1.078-.014-2.193.042-3.313a.238.238,0,0,1,.258-.234.246.246,0,0,1,.234.258c-.055,1.108-.069,2.21-.041,3.276a36.768,36.768,0,0,0,.644,6.056.246.246,0,0,1-.195.289.256.256,0,0,1-.047,0" transform="translate(-505.161 -32.691)" fill="#126783"/>
        <path id="Trazado_127473" data-name="Trazado 127473" d="M529.136,74.891l6.711,6.695-5.176-8.029a92.594,92.594,0,0,1,10.818-7.518s2.425,2.659,5.061,6.125L542,77.527l5.5-4.087c3.184,4.36,6.288,9.564,5.485,12.415-1.22,4.331-15.827,8.564-15.827,8.564s-12.68-8.4-12.553-12.895c.055-1.929,1.99-4.316,4.531-6.633" transform="translate(-355.973 -51.752)" fill="#126783"/>
        <path id="Trazado_127474" data-name="Trazado 127474" d="M476.405,143.346a.246.246,0,0,1-.184-.41c6.543-7.372,15.24-18.085,19.514-27.249,7.83-16.788,8.823-38.379,8.832-38.6a.246.246,0,1,1,.492.021c-.009.217-1.006,21.906-8.877,38.782-4.3,9.218-13.027,19.97-19.592,27.367a.245.245,0,0,1-.184.083" transform="translate(-319.453 -59.906)" fill="#fed166"/>
        <path id="Trazado_127475" data-name="Trazado 127475" d="M579.036,144.943a.246.246,0,0,1-.088-.476,41.894,41.894,0,0,0,6.288-3.037,42.4,42.4,0,0,0,5.435-3.817.246.246,0,1,1,.314.379,42.5,42.5,0,0,1-11.86,6.935.246.246,0,0,1-.088.016" transform="translate(-396.819 -105.663)" fill="#fed166"/>
        <path id="Trazado_127476" data-name="Trazado 127476" d="M583.72,119.168a.246.246,0,0,1-.124-.459,36.787,36.787,0,0,0,5.018-3.519,37.175,37.175,0,0,0,4.169-4.075.246.246,0,1,1,.371.324,37.352,37.352,0,0,1-9.31,7.7.246.246,0,0,1-.124.033" transform="translate(-400.349 -85.667)" fill="#fed166"/>
        <path id="Trazado_127477" data-name="Trazado 127477" d="M549.537,128.121a.245.245,0,0,1-.13-.038,42.47,42.47,0,0,1-10.3-9.1.246.246,0,1,1,.381-.311,42.005,42.005,0,0,0,10.178,8.989.246.246,0,0,1-.131.455" transform="translate(-366.864 -91.363)" fill="#fed166"/>
        <path id="Trazado_127478" data-name="Trazado 127478" d="M568.854,98.842a.246.246,0,0,1-.184-.083,32.815,32.815,0,0,1-3.3-4.424,34.058,34.058,0,0,1-2.44-4.7.246.246,0,1,1,.453-.192,33.642,33.642,0,0,0,2.4,4.635,32.333,32.333,0,0,0,3.252,4.357.246.246,0,0,1-.184.41" transform="translate(-384.849 -69.279)" fill="#fed166"/>
        <path id="Trazado_127479" data-name="Trazado 127479" d="M583.005,88.129a.246.246,0,0,1-.211-.12,21.014,21.014,0,0,1-1.521-3.136c-.222-.569-.427-1.163-.611-1.767a.246.246,0,1,1,.471-.143c.18.592.382,1.174.6,1.732a20.564,20.564,0,0,0,1.485,3.062.246.246,0,0,1-.211.372" transform="translate(-398.221 -64.377)" fill="#fed166"/>
        <rect id="Rectángulo_35842" data-name="Rectángulo 35842" width="123.056" height="116.583" transform="translate(70.861 46.799)" fill="#d3f9ee"/>
        <g id="Grupo_134141" data-name="Grupo 134141" transform="translate(0)">
          <path id="Trazado_127496" data-name="Trazado 127496" d="M411.666,88.006c9.279.789,12.909,4.3,14.433,7.032,2.961,5.3,1.254,8.954,4.071,15.914a25.638,25.638,0,0,0,9.622,11.349,28.07,28.07,0,0,1-22.452,7.772,75.208,75.208,0,0,0-5.675-42.066" transform="translate(-314.905 -68.311)" fill="#363e44"/>
          <g id="Grupo_134140" data-name="Grupo 134140">
            <path id="Trazado_127480" data-name="Trazado 127480" d="M285.459,398.68A81.3,81.3,0,0,1,297.8,416.937c7.635,15.5,8.543,40.664,8.389,48.95H263.016c-.159-3.536-.318-17.781-.477-21.317-3.252,1.717-15.717,19.4-17.52,21.294H193.678c10.187-13.767,27.954-33.969,40.463-44.084-.9-4.935-1.809-8.544-2.714-13.478l54.032-9.622" transform="translate(-150.58 -302.505)" fill="#fed166"/>
            <path id="Trazado_127481" data-name="Trazado 127481" d="M69.307,257.553c-13.48,2.505-52.827,7.353-50.609,23.85,1.834,13.645,39.945,7.233,53.492,5.613q-1.441-14.732-2.883-29.463" transform="translate(-18.608 -196.12)" fill="#e2a18d"/>
            <path id="Trazado_127482" data-name="Trazado 127482" d="M224.4,241.687l-4.441,33.061L299.894,255.5l-14.8-22.2,15.3-.987q-.247-16.037-.494-32.074l-98.2,13.816,1.48,34.048Z" transform="translate(-156.627 -152.915)" fill="#20bdfc"/>
            <path id="Trazado_127483" data-name="Trazado 127483" d="M530.736,220.81c4.525.161,35.327-1.117,39.275,6.778,4.146,8.292-18.447,43.626-26.152,53.415a12.5,12.5,0,0,1-4.071,5.8c-2.646,2.006-4.279,1.279-7.4,2.96-5.269,2.838-5.737,7.85-7.741,7.158-1.376-.476-1.23-3.408-.4-6.047.851-2.71,2.542-4.1,2.22-4.441-.353-.369-1.888,1.27-3.983,3.133-.974.865-2.184,4.888-4.159,4.516-1.575-.3-1.363-4.794.859-8.031,1.573-2.29,4.178-2.987,3.952-3.441-.169-.341-1.711.113-2.924.9-2,1.3-3.283,5.4-5.094,5.022-1.775-.37-1.521-4.295.335-7.4,1.564-2.62,4.507-3.258,4.229-3.824-.195-.4-1.572-.387-4.317.493-2.292.734-6.275,3.64-7.4,1.357-.948-1.921,3.163-5.071,7.49-7.275,2.867-1.46,5.938-2.6,7.684-3.334a22.409,22.409,0,0,0-3.948-1.974c-3.128-1.194-4.406-1.215-4.642-2.711-.243-1.541,2.359-2.158,5.4-2.069,3.621.106,6.166,1.623,7.759,2.189l9.5-17.271c-1.727.123-4.335.22-6.062.343-.081-8.221-.4-16.706-.4-26.242" transform="translate(-387.39 -168.422)" fill="#e2a18d"/>
            <path id="Trazado_127484" data-name="Trazado 127484" d="M626.558,286.557a.246.246,0,0,1-.218-.361l6.572-12.494a.246.246,0,1,1,.435.229l-6.571,12.494a.247.247,0,0,1-.218.131" transform="translate(-476.711 -208.194)" fill="#363e44"/>
            <path id="Trazado_127485" data-name="Trazado 127485" d="M299.93,328.6a.23.23,0,0,1-.043,0,.246.246,0,0,1-.2-.286l1.406-7.9a.246.246,0,0,1,.485.087l-1.406,7.9a.246.246,0,0,1-.242.2" transform="translate(-230.489 -243.355)" fill="#fff"/>
            <path id="Trazado_127486" data-name="Trazado 127486" d="M288.8,326.578a.231.231,0,0,1-.043,0,.246.246,0,0,1-.2-.285l1.406-7.9a.246.246,0,1,1,.485.087l-1.406,7.9a.246.246,0,0,1-.242.2" transform="translate(-222.101 -241.828)" fill="#fff"/>
            <path id="Trazado_127487" data-name="Trazado 127487" d="M269.726,339.388a4.263,4.263,0,0,1-4.19-5.054l4.4-23.281a1.986,1.986,0,0,1,2.321-1.583l4.471.845a1.987,1.987,0,0,1,1.583,2.321l-4.4,23.281a4.27,4.27,0,0,1-4.186,3.471m2.161-29.461a1.5,1.5,0,0,0-1.465,1.217l-4.4,23.281a3.77,3.77,0,1,0,7.408,1.4l4.4-23.281a1.495,1.495,0,0,0-1.191-1.746l-4.471-.846a1.531,1.531,0,0,0-.281-.026" transform="translate(-204.692 -235.229)" fill="#fff"/>
            <path id="Trazado_127488" data-name="Trazado 127488" d="M296.657,229.743l-4.962-.938,5.1-26.981,4.962.938Zm-4.387-1.33,3.995.755,4.919-26.014-3.995-.755Z" transform="translate(-224.468 -154.11)" fill="#fff"/>
            <path id="Trazado_127489" data-name="Trazado 127489" d="M40.432,308.117c11.282,2.37,38.129,6.636,40.733,7.156,4.868.974,15.3,2.76,15.334,6.166a3.507,3.507,0,0,1-1.923,2.915,3.544,3.544,0,0,1,.707,3.857,3.708,3.708,0,0,1-2.677,2.006,2.973,2.973,0,0,1,1.14,2.794,3.114,3.114,0,0,1-3.425,2.32,3.48,3.48,0,0,1,.038,2.519,3.654,3.654,0,0,1-3.385,2.163c-4.326-.861-11.288-1.1-19.6-1.9-19.516-1.868-28.141-3.52-37.4-6.13a15.55,15.55,0,0,1-11.117-12.72c7.243-3.762,14.335-7.388,21.578-11.15" transform="translate(-18.793 -234.236)" fill="#e2a18d"/>
            <path id="Trazado_127490" data-name="Trazado 127490" d="M128,309.937a.245.245,0,0,1-.05-.005c-2.3-.473-7.405-1.476-12.339-2.446s-10.037-1.973-12.343-2.447a.246.246,0,1,1,.1-.482c2.3.473,7.405,1.476,12.339,2.446s10.037,1.973,12.343,2.447a.246.246,0,0,1-.049.487" transform="translate(-82.281 -231.549)" fill="#363e44"/>
            <path id="Trazado_127491" data-name="Trazado 127491" d="M304.355,355.928a.246.246,0,0,1-.238-.31l.568-2.109a.246.246,0,0,1,.476.128l-.568,2.109a.246.246,0,0,1-.238.182" transform="translate(-233.825 -268.317)" fill="#363e44"/>
            <path id="Trazado_127492" data-name="Trazado 127492" d="M298.533,377.679a.25.25,0,0,1-.064-.008.246.246,0,0,1-.174-.3l.568-2.109a.246.246,0,0,1,.476.128l-.568,2.109a.246.246,0,0,1-.238.182" transform="translate(-229.436 -284.713)" fill="#363e44"/>
            <path id="Trazado_127493" data-name="Trazado 127493" d="M292.848,399.892a.251.251,0,0,1-.064-.008.246.246,0,0,1-.174-.3l.568-2.109a.246.246,0,0,1,.475.128l-.568,2.11a.247.247,0,0,1-.238.182" transform="translate(-225.151 -301.458)" fill="#363e44"/>
            <path id="Trazado_127494" data-name="Trazado 127494" d="M287.278,419.933a.249.249,0,0,1-.064-.008.246.246,0,0,1-.174-.3l.568-2.109a.246.246,0,0,1,.476.128l-.568,2.11a.246.246,0,0,1-.238.182" transform="translate(-220.952 -316.566)" fill="#363e44"/>
            <path id="Trazado_127495" data-name="Trazado 127495" d="M384.656,19.358A11.358,11.358,0,1,1,373.3,8a11.358,11.358,0,0,1,11.358,11.358" transform="translate(-277.42 -8)" fill="#363e44"/>
            <path id="Trazado_127497" data-name="Trazado 127497" d="M370.927,97.544c.623-.06,6.6-.549,10.2,3.536,2.678,3.04,3,6.943,2.549,13.57-.53,7.8-1.938,12.4-4.184,13.936-3.55,2.434-14.186-3.009-18.186-9.823a15.713,15.713,0,0,1,.494-16.119c3.043-4.852,8.731-5.06,9.129-5.1" transform="translate(-275.441 -75.465)" fill="#e2a18d"/>
            <path id="Trazado_127498" data-name="Trazado 127498" d="M385.741,212.242h0a5.734,5.734,0,0,1-5.734-5.734V201.1a5.734,5.734,0,0,1,11.469,0v5.406a5.734,5.734,0,0,1-5.734,5.734" transform="translate(-291.04 -149.243)" fill="#e2a18d"/>
            <path id="Trazado_127499" data-name="Trazado 127499" d="M382.807,194.829a9.769,9.769,0,0,1-2.116-.26c-4.635-1.038-11.2-5.136-14.174-10.2a.246.246,0,1,1,.424-.249c2.9,4.944,9.325,8.949,13.858,9.965,1.809.405,3.209.317,4.049-.257a.246.246,0,1,1,.278.407,4.078,4.078,0,0,1-2.319.591" transform="translate(-280.846 -140.675)" fill="#363e44"/>
            <path id="Trazado_127500" data-name="Trazado 127500" d="M382.715,93.785c2.393,5.4-6.044,10.993-13.468,8.884-4.342-1.234-8.4-5.739-7.5-8.478,1.533-4.712,18.515-5.946,20.972-.406" transform="translate(-277.179 -69.904)" fill="#363e44"/>
            <path id="Trazado_127501" data-name="Trazado 127501" d="M463.407,137.824a10.339,10.339,0,0,1-2.355,3.872c-.361.36-2.568-3.219-2.06-3.4a10.362,10.362,0,0,1,4.415-.473" transform="translate(-350.524 -105.818)" fill="#fff"/>
            <path id="Trazado_127502" data-name="Trazado 127502" d="M438.557,145.528a9.721,9.721,0,0,0,5.92-1.2,7.28,7.28,0,0,0,1.226-.993,4.064,4.064,0,0,0-2.059-3.4,7.318,7.318,0,0,0-1.5.727,9.721,9.721,0,0,0-3.582,4.864" transform="translate(-335.176 -107.459)" fill="#363e44"/>
            <path id="Trazado_127503" data-name="Trazado 127503" d="M277.371,77.942a25.813,25.813,0,1,1-25.813-25.813,25.814,25.814,0,0,1,25.813,25.813" transform="translate(-174.752 -41.266)" fill="#e2a18d"/>
            <path id="Trazado_127504" data-name="Trazado 127504" d="M250.8,103.249a26.059,26.059,0,1,1,26.06-26.06,25.954,25.954,0,0,1-26.06,26.06m0-51.626a25.6,25.6,0,0,0-25.567,25.567A25.567,25.567,0,0,0,250.8,102.756a25.567,25.567,0,1,0,0-51.134" transform="translate(-173.998 -40.513)" fill="#fff"/>
            <path id="Trazado_127505" data-name="Trazado 127505" d="M288.534,230.077a21.681,21.681,0,0,1-13.645-4.765.246.246,0,1,1,.307-.385,21.443,21.443,0,0,0,22.8,2.459.246.246,0,0,1,.218.441,21.692,21.692,0,0,1-9.684,2.251" transform="translate(-211.729 -171.485)" fill="#fff"/>
            <path id="Trazado_127506" data-name="Trazado 127506" d="M396.043,102.271a.246.246,0,0,1-.237-.181,21.4,21.4,0,0,0-6.05-10.012.246.246,0,0,1,.336-.36,21.888,21.888,0,0,1,6.189,10.242.246.246,0,0,1-.238.311" transform="translate(-298.329 -71.059)" fill="#fff"/>
            <path id="Trazado_127507" data-name="Trazado 127507" d="M313.45,71.831a.246.246,0,0,1-.132-.038,21.458,21.458,0,0,0-20.529-1.338.246.246,0,1,1-.208-.446,21.949,21.949,0,0,1,21,1.369.246.246,0,0,1-.132.454" transform="translate(-225.029 -53.203)" fill="#fff"/>
            <path id="Trazado_127508" data-name="Trazado 127508" d="M251.773,193.8a.245.245,0,0,1-.176-.075,22.067,22.067,0,0,1-4.954-7.952.246.246,0,1,1,.464-.165,21.576,21.576,0,0,0,4.843,7.774.246.246,0,0,1-.176.418" transform="translate(-190.495 -141.762)" fill="#fff"/>
            <path id="Trazado_127509" data-name="Trazado 127509" d="M364.408,143.454a40.237,40.237,0,0,1-17.114,4.173c-1.99,0,1.765-15.926,3.654-15.024a40.331,40.331,0,0,1,13.461,10.851" transform="translate(-265.953 -101.902)" fill="#fff"/>
            <path id="Trazado_127510" data-name="Trazado 127510" d="M273.929,124.2a28.549,28.549,0,0,0-6.149-2.144c-11.829-2.613-23.242,3.525-23.242,3.525s7.765,10.375,19.594,12.988a28.385,28.385,0,0,0,6.122.647,15.834,15.834,0,0,0,3.675-15.016" transform="translate(-188.92 -93.488)" fill="#363e44"/>
          </g>
        </g>
        <rect id="Rectángulo_35843" data-name="Rectángulo 35843" width="37.12" height="44.57" transform="translate(154.939 120.081)" fill="#32256b"/>
        <rect id="Rectángulo_35844" data-name="Rectángulo 35844" width="37.12" height="68.164" transform="translate(206.411 96.487)" fill="#32256b"/>
        <path id="Trazado_127511" data-name="Trazado 127511" d="M283.416,631.428a.246.246,0,0,1-.246-.246V591.874a.246.246,0,1,1,.492,0v39.308a.246.246,0,0,1-.246.246" transform="translate(-97.316 -469.107)" fill="#776e42"/>
        <rect id="Rectángulo_35845" data-name="Rectángulo 35845" width="37.12" height="96.443" transform="translate(257.88 68.208)" fill="#32256b"/>
        <path id="Trazado_127512" data-name="Trazado 127512" d="M701.584,472.584a.246.246,0,0,1-.246-.246V381.157a.246.246,0,1,1,.492,0v91.181a.246.246,0,0,1-.246.246" transform="translate(-412.542 -310.262)" fill="#776e42"/>
        <path id="Trazado_127513" data-name="Trazado 127513" d="M491.716,558.769a.246.246,0,0,1-.246-.246V495.487a.246.246,0,0,1,.492,0v63.036a.246.246,0,0,1-.246.246" transform="translate(-254.338 -396.448)" fill="#776e42"/>
        <path id="Trazado_127514" data-name="Trazado 127514" d="M180.994,496.167a98.687,98.687,0,0,1-74.79-34.2.246.246,0,1,1,.372-.322,98.371,98.371,0,0,0,172.769-62.726.246.246,0,0,1,.246-.242h0a.246.246,0,0,1,.243.25,98.852,98.852,0,0,1-98.843,97.24" transform="translate(-38.832 -323.655)" fill="#363e44"/>
        <path id="Trazado_127515" data-name="Trazado 127515" d="M802.317,395.316a.247.247,0,0,1-.227-.149l-2.567-6.016-3.177,5.657a.246.246,0,0,1-.429-.241l3.667-6.529,2.96,6.935a.246.246,0,0,1-.13.323.242.242,0,0,1-.1.02" transform="translate(-558.777 -315.635)" fill="#363e44"/>
      </g>
    </g>
  </g>
</svg>
