<svg id="Grupo_154422" data-name="Grupo 154422" xmlns="http://www.w3.org/2000/svg" xmlns:xlink="http://www.w3.org/1999/xlink" width="128" height="122.479" viewBox="0 0 128 122.479">
  <defs>
    <clipPath id="clip-path">
      <rect id="Rectángulo_35908" data-name="Rectángulo 35908" width="128" height="122.479" fill="none"/>
    </clipPath>
  </defs>
  <g id="Grupo_134235" data-name="Grupo 134235" clip-path="url(#clip-path)">
    <path id="Trazado_128110" data-name="Trazado 128110" d="M137.555,85.637c-1.827,3.642-3.383,4.355-7.476,3.453-1.085-.239-2.179-.432-3.27-.646a2.93,2.93,0,0,1-1.82.018c-2.039-.291-4.069-.642-6.132-.736a2.181,2.181,0,0,1-1.686-.633,11.224,11.224,0,0,1,.01-5.147c.983-.617,2.029-.155,3.031-.118,1.8.068,1.794.137,2.244-1.55a8.1,8.1,0,0,1,8.564-6.345c.819.033,1.163-.249,1.156-1.041,0-.333.006-.666.006-1,0-14.986-.019-29.973.03-44.959a2.64,2.64,0,0,0-1.779-2.836,13.259,13.259,0,0,1-8.1-10.074,1.457,1.457,0,0,0-1.494-1.348,112.185,112.185,0,0,0-16.816-.488c-3.985.252-7.969.47-11.939.906-9.6,1.057-19.115,2.733-28.641,4.309-7.68,1.269-15.379,2.418-23.139,3.067-3.768.315-7.546.579-11.334.561-.57,0-1.18.1-1.649-.379a41.7,41.7,0,0,1,5.986-5.317c2.108-.872,4.365-.541,6.545-.724,6.019-.507,12-1.263,17.974-2.153,10.09-1.5,20.132-3.328,30.262-4.558,2.258-.274,4.517-.816,6.825-.464,5.433-.253,10.858-.666,16.306-.528a103.5,103.5,0,0,1,20.712,2.6,7.063,7.063,0,0,1,5.618,5.164Z" transform="translate(-9.555 -2.406)" fill="#40c477"/>
    <path id="Trazado_128111" data-name="Trazado 128111" d="M23.891,23.225c4.691.083,9.353-.343,14.025-.7,6.725-.514,13.373-1.584,20.032-2.57,4.738-.7,9.438-1.657,14.169-2.4C76.4,16.879,80.7,16.3,85,15.745c5.047-.657,10.11-1.089,15.2-1.326,3.035-.141,6.072-.25,9.09-.125a85.7,85.7,0,0,1,9.154.687c.453.068.628.221.687.683.739,5.768,4.193,9.291,9.432,11.3.373.143.567.289.554.682-.007.208,0,.416,0,.624q0,23.675,0,47.35c0,1.351-.217,1.529-1.517,1.294a6.445,6.445,0,0,0-5.119,1.352,7.9,7.9,0,0,0-3.321,5.768c-.083.947-.547.987-1.218.91-1.354-.154-2.7-.33-4.057-.5-.574-.635-.384-1.42-.384-2.147q-.02-17.916,0-35.831a6.328,6.328,0,0,0-2.071-5.013,6.04,6.04,0,0,0-2.758-1.378,94.119,94.119,0,0,0-16.51-2.514c-1.656-.088-3.322-.125-4.973-.307a2.351,2.351,0,0,1-1.165-.891c-5.837-6.851-13.327-10.21-22.246-9.744-9.166.478-16.377,4.758-21.5,12.455A14.689,14.689,0,0,1,40.261,42.2a51.593,51.593,0,0,1-7.236,1.248c-4.972.723-9.946,1.437-14.964,1.779a.931.931,0,0,1-.39-.174,7.972,7.972,0,0,1-.081-2.842A41.429,41.429,0,0,1,20.341,28.2c.429-1.049,1.167-1.915,1.561-2.97a12.04,12.04,0,0,1,1.989-2" transform="translate(-6.12 -4.979)" fill="#2db561"/>
    <path id="Trazado_128112" data-name="Trazado 128112" d="M17.919,57Q29.2,55.77,40.4,53.989a2.309,2.309,0,0,1,1.45-.635c9.172-1.39,18.328-2.907,27.557-3.881q4.4-.464,8.829-.634c2.285-.084,4.565-.247,6.854-.217a3.28,3.28,0,0,1,1.806.371,95.191,95.191,0,0,1,21.986,2.759,6.233,6.233,0,0,1,5,6.4q.006,19.162.009,38.324.01,2.663.02,5.327a2.239,2.239,0,0,1,.367,1.653c.013,4.18,0,8.359.01,12.539a5.139,5.139,0,0,1-.343,1.941q-.024,4.107-.049,8.213c-.027,3.912-2.784,6.042-6.641,5.188a58.312,58.312,0,0,0-7.323-1.323,3.122,3.122,0,0,1-1.838.111,109.667,109.667,0,0,0-18.8-.715c-4.4.155-8.792.586-13.168,1.119a17.511,17.511,0,0,1-2.11.192,50.011,50.011,0,0,1-7.476-3.356c-.383-.207-1-.456-.467-1.112a22.689,22.689,0,0,1,5.629-1.026c5.9-.769,11.809-1.357,17.759-1.69a118.517,118.517,0,0,1,17.814.47c1.154.109,1.277-.553,1.486-1.364A8.294,8.294,0,0,1,105.711,116a5.492,5.492,0,0,1,1.366-.076c1.328.092,1.414.03,1.419-1.324.015-5.163.006-10.326.006-15.488,0-10.076-.021-20.153.025-30.228a2.44,2.44,0,0,0-1.654-2.655,13.258,13.258,0,0,1-8.216-10.12,1.379,1.379,0,0,0-1.383-1.3,105.887,105.887,0,0,0-17.064-.526c-4.2.25-8.386.5-12.561.979-9.477,1.083-18.86,2.78-28.272,4.3-6.535,1.053-13.08,2.031-19.663,2.73a2.911,2.911,0,0,1-1.359-.074A.848.848,0,0,1,18,61.925,6.744,6.744,0,0,1,17.919,57" transform="translate(-6.116 -17)" fill="#4fd58b"/>
    <path id="Trazado_128113" data-name="Trazado 128113" d="M28.55,137A61.124,61.124,0,0,1,.375,92.024a61.294,61.294,0,0,1,1.519-21.89,5.284,5.284,0,0,1,.221-.583,1.274,1.274,0,0,1,1.011-.38c2.681.042,5.343-.222,8.01-.429a1.224,1.224,0,0,1,.92.285l-.012.017a9.681,9.681,0,0,1,.683,3.634,97.791,97.791,0,0,0,2.294,11.745,5.657,5.657,0,0,1,.3,1.712,6.875,6.875,0,0,1-.864,2.058,27.094,27.094,0,0,0,4.991,31.133,27.523,27.523,0,0,0,16.617,8.039c1.691.214,3.408-.11,5.1.177,2.436,1.7,4.782,3.538,7.349,5.057.6.354.933.907.043,1.4-4.608.876-9.252,1.527-13.868,2.347-1.471.261-2.95.477-4.427.7A3.226,3.226,0,0,1,28.55,137" transform="translate(0 -24.035)" fill="#219e50"/>
    <path id="Trazado_128114" data-name="Trazado 128114" d="M76.654,173.6a166.029,166.029,0,0,1,23.629-1.457,92.967,92.967,0,0,1,12.663,1.048,51.379,51.379,0,0,1-11.8,5.834,60.016,60.016,0,0,1-23.243,3.576,59.22,59.22,0,0,1-23.176-5.647c.4-.523,1.018-.524,1.578-.611,5.871-.918,11.733-1.9,17.622-2.7a7.022,7.022,0,0,1,2.722-.047" transform="translate(-19.138 -60.184)" fill="#126783"/>
    <path id="Trazado_128115" data-name="Trazado 128115" d="M98.137,5.03c-1.806.235-3.608.5-5.419.7C85.946,6.468,79.23,7.6,72.5,8.651c-7.916,1.241-15.819,2.564-23.794,3.393-4.052.421-8.106.763-12.178.884A59.014,59.014,0,0,1,55.114,3.023,61.041,61.041,0,0,1,97.492,4.665a5.966,5.966,0,0,1,.644.365" transform="translate(-12.774 0)" fill="#126783"/>
    <path id="Trazado_128116" data-name="Trazado 128116" d="M72.867,172.211l-21.923,3.354a37.868,37.868,0,0,1-7.043-3.809q5.173-.871,10.347-1.74,4.383-.729,8.77-1.427c.366-.059.741-.058,1.112-.085.322-.143.575-.589,1.012-.233a21.018,21.018,0,0,0,4.617,2.491,19.863,19.863,0,0,1,3.107,1.449" transform="translate(-15.351 -58.792)" fill="#40c477"/>
    <path id="Trazado_128117" data-name="Trazado 128117" d="M165.777,146.527q-.017-8.066-.034-16.132a72.31,72.31,0,0,1,9.466,1.237,58.6,58.6,0,0,1-9.432,14.9" transform="translate(-57.955 -45.595)" fill="#126783"/>
    <path id="Trazado_128118" data-name="Trazado 128118" d="M17.817,31.133c.282.194.176.382.034.624a29.82,29.82,0,0,0-3.527,11.266,41.77,41.77,0,0,0-.486,6.782,1.888,1.888,0,0,1-.262,1.068c-1.383.7-2.91.509-4.37.611-1.117.08-2.325.369-3.388-.35a54.906,54.906,0,0,1,6.7-13.26,52.856,52.856,0,0,1,5.293-6.741" transform="translate(-2.035 -10.886)" fill="#219e50"/>
    <path id="Trazado_128119" data-name="Trazado 128119" d="M4.922,61.746c2.594.176,5.168-.276,7.757-.261l.261.015a25.481,25.481,0,0,0,.251,4.991,80.181,80.181,0,0,1-9.94.523,28.71,28.71,0,0,1,1.671-5.268" transform="translate(-1.137 -21.499)" fill="#40c477"/>
    <path id="Trazado_128120" data-name="Trazado 128120" d="M99.21,43.417a101.383,101.383,0,0,0-10.936.317c-5.06.327-10.11.846-15.13,1.641-4.888.774-9.8,1.364-14.7,2.069-1.916.276-3.818.644-5.727.97a23.537,23.537,0,0,1,6.425-8.728,27.493,27.493,0,0,1,28.424-5.067,26.2,26.2,0,0,1,11.646,8.8" transform="translate(-18.432 -11.425)" fill="#40c477"/>
    <path id="Trazado_128121" data-name="Trazado 128121" d="M56.267,129.219l-1.012.233c.331-.624-.178-.8-.563-1.017a58.022,58.022,0,0,1-6.453-4.4,3.422,3.422,0,0,1-.485-.559,1,1,0,0,1,.6-.469,27.755,27.755,0,0,0,13.671-5.653,27.145,27.145,0,0,0,4.244-38.594,26.129,26.129,0,0,0-17.835-9.709c-8.906-1-16.445,1.892-22.773,8.134a46.584,46.584,0,0,0-3.773,4.8.308.308,0,0,1-.364.006c-.711-3.255-1.488-6.5-2.113-9.77a48.073,48.073,0,0,1-.9-7.465c3.422-.258,6.823-.689,10.215-1.208,4-.613,8.011-1.18,12.01-1.808,4.816-.756,9.62-1.584,14.437-2.329,3.347-.518,6.713-.907,10.059-1.428a111.088,111.088,0,0,1,11.471-1.163,98.587,98.587,0,0,1,14.312-.143c2.424.23,4.872.319,7.305.554.585.057.843.158.939.827.782,5.509,3.988,9.057,9.094,11a1.131,1.131,0,0,1,.893,1.241q-.034,23.919,0,47.838c0,.9-.285,1.223-1.156,1.062-4.433-.821-7.963,2.814-8.6,6.14-.375,1.949-.347,1.847-2.406,1.677a117.412,117.412,0,0,0-15.428-.507c-4.339.212-8.681.522-13,1-4.144.461-8.292.948-12.4,1.719" transform="translate(-6.475 -19.739)" fill="#2db561"/>
    <path id="Trazado_128122" data-name="Trazado 128122" d="M21.1,95.7c.077-.006.155-.011.232-.015a37.359,37.359,0,0,1,1.776,4.9c.219.583.429,1.172.6,1.773a1.91,1.91,0,0,1-.064.776,22.3,22.3,0,0,0,16.617,28.3c.408.158.855.155,1.265.306,1.553,1.092,2.67,2.658,4.168,3.825a14.224,14.224,0,0,0,2.144,1.365.584.584,0,0,1-.516.249,29.02,29.02,0,0,1-11.5-1.487c-9.728-3.719-15.851-10.591-17.973-20.844A26.925,26.925,0,0,1,21.1,95.7" transform="translate(-6.045 -33.459)" fill="#40c477"/>
    <path id="Trazado_128123" data-name="Trazado 128123" d="M25.758,95.181a28,28,0,0,1-2.252-6.748,23.214,23.214,0,0,1,6.506-7.574,26.558,26.558,0,0,1,12.855-5.6A26.942,26.942,0,0,1,63.92,80.764,27.411,27.411,0,0,1,68.646,119.4a27.379,27.379,0,0,1-17.509,10.251,7.835,7.835,0,0,1-1.121.038c-1.522.31-2.132-1.073-3.047-1.769a30.379,30.379,0,0,1-3.2-3.224c.384-.408.845-.2,1.291-.172,7.494.457,13.831-1.989,18.773-7.691a20.808,20.808,0,0,0,5.307-15.288c-.493-8.2-4.248-14.54-11.514-18.507A21.251,21.251,0,0,0,36.7,82.863,21.366,21.366,0,0,0,26.655,93.727c-.227.526-.34,1.128-.9,1.453" transform="translate(-8.219 -26.204)" fill="#50d68c"/>
    <path id="Trazado_128124" data-name="Trazado 128124" d="M127.475,101.448a8.568,8.568,0,0,1,8.543,4.2c3.258,5.054-.179,12.332-6.114,13.054a4.893,4.893,0,0,1-2.68-.018,2.347,2.347,0,0,1-1.5-2.476,2.674,2.674,0,0,1,1.91-2.5,5.342,5.342,0,0,0,3.085-1.091,3.361,3.361,0,0,0-1.342-5.8c-.235-.075-.483-.107-.724-.169-.281-.081-.572-.114-.851-.189a2.671,2.671,0,0,1-2.1-2.478,2.538,2.538,0,0,1,1.772-2.532" transform="translate(-43.952 -35.455)" fill="#50d68c"/>
    <path id="Trazado_128125" data-name="Trazado 128125" d="M124.263,101.476c-1.455,1.164-1.819,2.309-1.189,3.585.509,1.029,1.569,1.039,2.443,1.4a1.086,1.086,0,0,1-.78.332,3.265,3.265,0,0,0-2.824,2.789,3.441,3.441,0,0,0,1.655,3.52c.338.254.933.239.949.853-2.148,1.188-2.289,2.525-.5,4.757-2.923-.043-6-2.568-7.044-5.788a8.8,8.8,0,0,1,6.068-11.325,7.078,7.078,0,0,1,1.227-.121" transform="translate(-40.741 -35.483)" fill="#40c477"/>
    <path id="Trazado_128126" data-name="Trazado 128126" d="M128.965,87.933c1.952,0,3.9-.013,5.855.011a2.324,2.324,0,0,1,2.383,2.073,2.4,2.4,0,0,1-1.989,2.687,67.828,67.828,0,0,1-7.47.073,2.27,2.27,0,0,1-2.075-2.51,2.412,2.412,0,0,1,2.2-2.436,1.87,1.87,0,0,1,1.1.1" transform="translate(-43.942 -30.7)" fill="#50d68c"/>
    <path id="Trazado_128127" data-name="Trazado 128127" d="M128.965,134.044c1.952,0,3.9-.013,5.855.011a2.324,2.324,0,0,1,2.383,2.073,2.4,2.4,0,0,1-1.989,2.687,67.824,67.824,0,0,1-7.47.073,2.27,2.27,0,0,1-2.075-2.51,2.412,2.412,0,0,1,2.2-2.436,1.869,1.869,0,0,1,1.1.1" transform="translate(-43.942 -46.823)" fill="#50d68c"/>
    <path id="Trazado_128128" data-name="Trazado 128128" d="M125.764,87.872c-2.358.042-3.524,1.455-2.755,3.358a2.113,2.113,0,0,0,2.134,1.4c2.29,0,4.58.005,6.87.009-.335.364-.777.233-1.178.234q-5.682.012-11.365,0a2.715,2.715,0,0,1-2.955-2.536,2.764,2.764,0,0,1,2.951-2.705c1.79-.021,3.581-.006,5.37,0,.327,0,.676-.062.929.237" transform="translate(-40.741 -30.64)" fill="#40c477"/>
    <path id="Trazado_128129" data-name="Trazado 128129" d="M125.764,133.983c-2.358.042-3.524,1.455-2.755,3.358a2.113,2.113,0,0,0,2.134,1.4c2.29,0,4.58.005,6.87.009-.335.364-.777.234-1.178.234q-5.682.012-11.365,0a2.714,2.714,0,0,1-2.955-2.536,2.764,2.764,0,0,1,2.951-2.705c1.79-.021,3.581-.006,5.37,0,.327,0,.676-.062.929.237" transform="translate(-40.741 -46.763)" fill="#40c477"/>
    <path id="Trazado_128130" data-name="Trazado 128130" d="M26.846,97.874c3.181-8.519,9.244-13.616,18.235-14.962,7.492-1.122,13.956,1.282,19.229,6.626a22.547,22.547,0,0,1,2.013,28.784,21.971,21.971,0,0,1-15.029,9.064,22.272,22.272,0,0,1-6.435,0c-.423-.079-.91.154-1.264-.26-.06-1.005-.925-1.489-1.483-2.121a80.459,80.459,0,0,1-12.78-19.942A55.363,55.363,0,0,1,26.617,98.4l.229-.523" transform="translate(-9.307 -28.897)" fill="#2db561"/>
    <path id="Trazado_128131" data-name="Trazado 128131" d="M26.07,106.868a20.087,20.087,0,0,1,1.977,4.357A85.406,85.406,0,0,0,39.2,130.134c1.338,1.69,2.742,3.317,4.188,4.911.566.624.031.524-.336.551a20.5,20.5,0,0,1-9.291-4.229,22.314,22.314,0,0,1-8.072-12.5,22.723,22.723,0,0,1,.384-12" transform="translate(-8.76 -37.368)" fill="#219e50"/>
    <path id="Trazado_128132" data-name="Trazado 128132" d="M127.206,116.632a9.831,9.831,0,0,1-1.39-.773,3.629,3.629,0,0,1-1.409-4.17c.6-1.747,1.751-2.519,3.8-2.55a3.6,3.6,0,0,1,3.488,3.372,3.777,3.777,0,0,1-2.9,3.915,4.628,4.628,0,0,1-1.585.206" transform="translate(-43.43 -38.162)" fill="#2db561"/>
    <path id="Trazado_128133" data-name="Trazado 128133" d="M54.441,122.559c1.574,0,3.15,0,4.725.008a2.344,2.344,0,0,0,2.109-1.319,1.993,1.993,0,0,0-.2-2.119,1.861,1.861,0,0,0-1.688-.832,24.044,24.044,0,0,1-5.443-.23c-1.432-.9-1.745-2.373-.747-3.538a1.3,1.3,0,0,1,1.046-.582c1.982.086,3.97-.148,5.949.12a6.42,6.42,0,0,1,.029,12.718c-.686.092-.821.392-.79.97a4.09,4.09,0,0,1-.247,1.961,2.049,2.049,0,0,1-2.3,1.325,1.87,1.87,0,0,1-1.7-1.981,9.512,9.512,0,0,1,0-1.248c.079-.762-.231-1.092-.99-1-1.239-.725-1.753-1.589-1.5-2.683.209-.9.641-1.626,1.745-1.563" transform="translate(-18.397 -39.839)" fill="#50d68c"/>
    <path id="Trazado_128134" data-name="Trazado 128134" d="M54.45,98.416c.519.027.765-.2.737-.739-.023-.455,0-.913,0-1.37a1.933,1.933,0,0,1,1.681-2.126,2.143,2.143,0,0,1,2.389,1.535,3.963,3.963,0,0,1,.172,1.719c-.057.781.277,1.019,1.018.985,1-.047,1.995-.042,2.99,0a2.048,2.048,0,0,1,2.258,2.354c-.038,1.208-.824,1.877-2.272,1.884-2.824.014-5.648.009-8.472.012-1.117.359-1.733-.254-2.136-1.161a2.188,2.188,0,0,1,.654-2.577,4.509,4.509,0,0,1,.983-.511" transform="translate(-18.404 -32.919)" fill="#50d68c"/>
    <path id="Trazado_128135" data-name="Trazado 128135" d="M52.3,100.714a5.614,5.614,0,0,0-1.224,1.176c-.79,1.368-.015,2.757,1.724,3.073q-2.319,1.155-1.939,2.578c.294,1.112,1.3,1.608,3.051,1.675,1.377.051,2.781-.3,4.133.228-1.649,0-3.3.049-4.946-.012A1.939,1.939,0,0,0,51,110.572a2.035,2.035,0,0,0,.432,2.385c.138.15.249.325.373.488-2.1.122-4.917-2.745-5.209-4.818-.6-4.229,1.6-7.347,5.711-7.913" transform="translate(-16.258 -35.216)" fill="#40c477"/>
    <path id="Trazado_128136" data-name="Trazado 128136" d="M52.319,127.039c-1.951,1.082-2.01,2.106-.247,4.247-1.117,0-2.235.025-3.352.007a1.946,1.946,0,0,1-2.147-1.778,2.009,2.009,0,0,1,1.629-2.478,7.437,7.437,0,0,1,4.118,0" transform="translate(-16.275 -44.319)" fill="#40c476"/>
  </g>
</svg>
