<svg id="Grupo_154421" data-name="Grupo 154421" xmlns="http://www.w3.org/2000/svg" xmlns:xlink="http://www.w3.org/1999/xlink" width="128" height="128.058" viewBox="0 0 128 128.058">
  <defs>
    <clipPath id="clip-path">
      <rect id="Rectángulo_46085" data-name="Rectángulo 46085" width="128" height="128.057" fill="none"/>
    </clipPath>
  </defs>
  <g id="Grupo_154421-2" data-name="Grupo 154421" clip-path="url(#clip-path)">
    <path id="Trazado_196907" data-name="Trazado 196907" d="M0,60.056c.534-1.167.3-2.442.448-3.656A63.795,63.795,0,0,1,21.3,16.4a62.488,62.488,0,0,1,11.632-8.31A63.256,63.256,0,0,1,52.166,1.134a62.211,62.211,0,0,1,15-1.046A63.731,63.731,0,0,1,111.877,21.6,63.192,63.192,0,0,1,126.369,49.64a66.781,66.781,0,0,1,1.431,9.572,61.05,61.05,0,0,1-.077,10.7,59.206,59.206,0,0,1-3.771,16.422c-.866-.294-.881-1.277-1.462-1.8a7.687,7.687,0,0,0-8.678-2.541c-.555.176-1.159.817-1.783.078a6.229,6.229,0,0,1-.162-2.109q-.007-23.814,0-47.626c0-9.07-6.346-15.382-15.437-15.4-3.79-.009-7.582.1-11.369-.064-.658-.111-.807-.624-.937-1.172C82.848,10.319,79.4,7.371,73.98,6.646a1.645,1.645,0,0,1-1.439-.82c-1.559-3.026-4.2-4.5-7.41-5.148A9.908,9.908,0,0,0,55.54,5.509a2.187,2.187,0,0,1-1.783,1.145,11.28,11.28,0,0,0-9.894,8.841c-.106.584-.263,1.15-.945,1.341-3.038.237-6.079.065-9.119.106a21.907,21.907,0,0,0-7.18.6A14.733,14.733,0,0,0,16.137,31.933q0,35.8,0,71.6a7.37,7.37,0,0,1-.144,2.232c-.455.722-.773.113-1.033-.16a34.711,34.711,0,0,1-3.345-4.2A63.8,63.8,0,0,1,.351,73.249C.1,71.444.257,69.612,0,67.806Z" transform="translate(0 0)" fill="#25e0ac"/>
    <path id="Trazado_196908" data-name="Trazado 196908" d="M139.351,186.253a9.385,9.385,0,0,1-3.728,2.031h-3.25a7.58,7.58,0,0,1-5.325-3.506c-.5-.717-1.1-1.357-1.605-2.066-1.068-1.4-2.131-2.8-3.267-4.151q-3.643-4.823-7.393-9.562a9.409,9.409,0,0,1-2.265-5.555,8.584,8.584,0,0,1,1.8-5.537,1.949,1.949,0,0,0-1.415-.238c-6.768-.01-13.535,0-20.3-.015-.686,0-1.426.163-2.019-.384.351-.814,1.1-.607,1.715-.612,3.529-.03,7.059-.013,10.588-.014,3.488,0,6.976-.024,10.464.012a6.372,6.372,0,0,0,3.694-.851,2.86,2.86,0,0,1,1.648-.487c.99.314.337.861.109,1.23a8.109,8.109,0,0,0-1.373,4.587,7.156,7.156,0,0,0,1.386,4.2c4.449,5.917,9.016,11.743,13.58,17.57a7.711,7.711,0,0,0,5.773,2.827c.432.032,1.03-.185,1.182.527" transform="translate(-35.126 -60.227)" fill="#78c1a3"/>
    <path id="Trazado_196909" data-name="Trazado 196909" d="M110.36,205.678a49.375,49.375,0,0,1-7.614,1.478,22.308,22.308,0,0,0-3.884.484h-8a18.083,18.083,0,0,0-3.768-.476,42.792,42.792,0,0,1-7.5-1.482,1.9,1.9,0,0,1,1.621-.443q13.762-.021,27.524,0a1.917,1.917,0,0,1,1.624.438" transform="translate(-30.863 -79.582)" fill="#b1e3f8"/>
    <path id="Trazado_196910" data-name="Trazado 196910" d="M156.109,178.874c-1.129-.418-2.376-.16-3.5-.614a9.848,9.848,0,0,1-4.291-3.25c-4.007-5.274-8.1-10.483-12.166-15.715-3.049-3.924-3.128-7.032-.276-11.122.362-.586.962-.6,1.542-.616a7.04,7.04,0,0,1,3.831.925,6.892,6.892,0,0,0,3.575.831c1.179.019,2.41-.332,3.536.318-.037.8-.69.545-1.093.569-1.15.067-2.306,0-3.623.041,1.6,2.077,3.124,3.986,4.606,5.931.64.784,1.182,1.644,1.87,2.39,2.141,2.15,1.85,2.432,3.442-.4q4.9-8.7,9.823-17.4A8.289,8.289,0,0,1,172.3,136.4a4.1,4.1,0,0,1,2.381.991c.621.446.675,1.257,1.157,1.791.8,3,.081,5.646-1.453,8.308-5.556,9.64-10.978,19.357-16.452,29.045a9.04,9.04,0,0,1-1.822,2.34" transform="translate(-51.884 -52.847)" fill="#94d5a3"/>
    <path id="Trazado_196911" data-name="Trazado 196911" d="M92.548,136.59l-30.769,0a42.639,42.639,0,0,1-9.466-3.029,60.845,60.845,0,0,1-18.279-11.707,3.888,3.888,0,0,1-.375-1.938q0-39.1.013-78.2a15.569,15.569,0,0,1,9.933-14.055,21.939,21.939,0,0,1,3.178-.578l9.5-.028a1.664,1.664,0,0,1,.375,1.394,17.329,17.329,0,0,0,.672,6.031.816.816,0,0,1-.116.932,3.347,3.347,0,0,1-1.828.268c-3.457.009-6.915-.006-10.372.007C40.013,35.713,36.7,39,36.7,44q-.016,27.18,0,54.36c0,.833.013,1.666-.016,2.5a9.484,9.484,0,0,0,3,8C45.114,114.311,50.577,119.734,56,125.2a9.984,9.984,0,0,0,8.543,3.228c11.378-.059,22.752-.017,34.127-.025a2.6,2.6,0,0,1,1.674.377,33.758,33.758,0,0,1,3.2,4.025,53.07,53.07,0,0,1-11,3.79" transform="translate(-13.052 -10.494)" fill="#b56a54"/>
    <path id="Trazado_196912" data-name="Trazado 196912" d="M137.644,27.052c4.2,0,8.41-.026,12.614-.009a15.135,15.135,0,0,1,14.909,14.9q.035,24.543.009,49.085c0,.582.015,1.165.022,1.748a.407.407,0,0,1-.121.448c-2.6,2.159-3.77,5.28-5.434,8.068-.423.709-.792,1.455-1.263,2.131-.274.394-.669.739-.979-.023a9.387,9.387,0,0,1-.117-2.241q-.006-28.47,0-56.938a8.314,8.314,0,0,0-1.459-5.188,7.769,7.769,0,0,0-6.512-3.347c-3.58-.006-7.159,0-10.738-.006a3.53,3.53,0,0,1-1.831-.255.99.99,0,0,1-.14-1.161,16.775,16.775,0,0,0,.7-5.794,1.829,1.829,0,0,1,.334-1.417" transform="translate(-52.926 -10.484)" fill="#b56a54"/>
    <path id="Trazado_196913" data-name="Trazado 196913" d="M113.923,16.826a20.56,20.56,0,0,1-.953,8.211,2.3,2.3,0,0,1-.517,1.5c-2.16,3.358-5.187,5.464-9.209,5.587-5.729.175-11.466.067-17.2.034a3.433,3.433,0,0,1-.618-.069,12.142,12.142,0,0,1-8.093-5.38c-2.031-3.062-2.3-6.5-1.8-9.977C76.365,11.049,79.91,7.458,85.551,6.4a3.253,3.253,0,0,0,2.367-1.559,8.777,8.777,0,0,1,6.5-4.179,9.994,9.994,0,0,1,7.663,5.34.918.918,0,0,0,.855.576,11.493,11.493,0,0,1,10.854,10.04c.008.072.088.137.133.2" transform="translate(-29.206 -0.258)" fill="#f4dd58"/>
    <path id="Trazado_196914" data-name="Trazado 196914" d="M43.682,27.083a18.372,18.372,0,0,0-6.938,3.174c-3.613,2.952-5.754,6.712-5.765,11.377q-.093,39.172-.031,78.344c0,.624-.01,1.25-.015,1.874a35.959,35.959,0,0,1-5.276-5.327c.013-.624.037-1.248.037-1.873q0-36.489.009-72.976A15.226,15.226,0,0,1,37.836,27.284a31.183,31.183,0,0,1,5.846-.2" transform="translate(-9.949 -10.487)" fill="#a85941"/>
    <path id="Trazado_196915" data-name="Trazado 196915" d="M166.775,144.788c1.543-2.221,2.734-4.647,4.048-7a12.524,12.524,0,0,1,3.432-4.052,8.238,8.238,0,0,1,10.006,1.43,1.584,1.584,0,0,1,.518.823,10.184,10.184,0,0,0-5.489-.683,7.7,7.7,0,0,0-5.5,4.137c-3.542,6.153-6.97,12.372-10.442,18.565-.081.145-.149.3-.238.439-.785,1.264-.8,1.273-1.843.214a6.344,6.344,0,0,1-1.329-1.479c-.226-.395-.011-.723.173-1.044q3.09-5.408,6.142-10.836a.978.978,0,0,1,.516-.515" transform="translate(-61.984 -51.448)" fill="#78c1a3"/>
    <path id="Trazado_196916" data-name="Trazado 196916" d="M92.6.616c-1.926.764-3.877,1.487-5.3,3.11a3.664,3.664,0,0,0-.754.977c-.589,1.545-1.846,1.857-3.3,2.085a11.364,11.364,0,0,0-9.134,9.452,16.159,16.159,0,0,0,.394,7.487,11.326,11.326,0,0,0,8.328,7.786,3.859,3.859,0,0,1,.549.238,4.5,4.5,0,0,1-3.373.22,11.918,11.918,0,0,1-8.073-5.7c-.23-.381-.511-.774-.315-1.271-1.242-2.63-.958-5.445-1-8.221.391-1.044.457-2.175.933-3.2a11.343,11.343,0,0,1,9.8-7.029,1.472,1.472,0,0,0,1.288-.931,10.022,10.022,0,0,1,9.962-5" transform="translate(-27.383 -0.209)" fill="#edbc56"/>
    <path id="Trazado_196917" data-name="Trazado 196917" d="M58.921,40.468c2.477,4.766,6.327,7.139,11.762,6.752,6.079,0,12.165.171,18.237-.047,3.964-.142,6.929-2.349,8.961-5.758l.571-.957q6.3.012,12.607.026a8.2,8.2,0,0,1,8.374,8.366q.017,29.148.009,58.3c0,.624.024,1.246.037,1.872-1.545,3.26-3.506,6.291-5.213,9.461-.53.984-1.078,1.957-1.618,2.936a9.347,9.347,0,0,1-1.7-2.169c.256-.368.695-.434,1.053-.633a3.094,3.094,0,0,0,1.8-2.788,2.769,2.769,0,0,0-1.828-2.6c-.3-.13-.643-.208-.792-.556a20.2,20.2,0,0,0-4.57-.152,4.286,4.286,0,0,1-2.214-.621A6.883,6.883,0,0,0,98.68,111a3.525,3.525,0,0,0-2.191.765,4.79,4.79,0,0,1-3.049.765q-10.9-.038-21.791-.007a2.68,2.68,0,0,0-1.461.144c-.25.436-.746.505-1.124.749a2.914,2.914,0,0,0-1.409,3.091,2.829,2.829,0,0,0,2.5,2.276,10.384,10.384,0,0,0,1.745.074q9.3,0,18.607.006a2.659,2.659,0,0,1,1.913.37,8.935,8.935,0,0,0,2.184,5.043c2.412,3.061,4.789,6.15,7.175,9.232a2.042,2.042,0,0,1,.2.448l-36.3-.01q-5.059-.95-5.094-6.111c-.014-2.281-.007-4.561,0-6.841a10.259,10.259,0,0,0-1.871-6.688,1.27,1.27,0,0,1-.23-.571,2.3,2.3,0,0,1,.487-1.379c1.127-1.985,2.311-3.941,3.323-5.986a3.06,3.06,0,0,0-2.064-4.656c-1.353-.359-2.734.366-3.655,1.97-1.157,2.015-2.268,4.057-3.43,6.07a3.761,3.761,0,0,1-1.024,1.389,1.812,1.812,0,0,1-1.7-.156,9.131,9.131,0,0,1-1.725-1.925,3.22,3.22,0,0,0-5.639.926,1.928,1.928,0,0,1-.26.56c-.474.56-1.027.427-1.581.164a5.265,5.265,0,0,1-3.253-4.228c-.012-.916-.035-1.831-.035-2.746,0-18.079.086-36.159-.056-54.237a8.684,8.684,0,0,1,9.049-9.06c3.99.186,8,.029,11.995.025" transform="translate(-14.687 -15.679)" fill="#f8f5f8"/>
    <path id="Trazado_196918" data-name="Trazado 196918" d="M110.957,164.991c-7.189,0-14.377.01-21.565-.011-2.77-.008-4.47-2.365-3.389-4.666a3.062,3.062,0,0,1,2.719-1.888c3.749.021,7.5.053,11.245.062,4.415.011,8.831,0,13.481,0a8.6,8.6,0,0,0-2.49,6.5" transform="translate(-33.222 -61.433)" fill="#675f67"/>
    <path id="Trazado_196919" data-name="Trazado 196919" d="M154.117,158.424a3.311,3.311,0,0,1,2.952,3.183c.037,1.708-1.12,2.94-3.188,3.394l-5.277-6.577Z" transform="translate(-57.624 -61.432)" fill="#665e66"/>
    <path id="Trazado_196920" data-name="Trazado 196920" d="M38.007,148.323c.719,1.687,1.606,3.222,3.415,3.987.44.186.833.358,1.254.009,2.071.225,4.148.1,6.223.121a8.417,8.417,0,0,1,1.608.133,2.97,2.97,0,0,0,1.7.252c1.175-.629,2.252.012,3.329.311a5.68,5.68,0,0,1,3.2,2.219,20.334,20.334,0,0,1,1.427,2.436,11.11,11.11,0,0,1,.815,4.362q0,3.679,0,7.359c0,3.214,1.256,4.966,4.315,6.051a3.511,3.511,0,0,1,.431.223,9.523,9.523,0,0,1-7.79-2.894q-8.562-8.467-17.03-17.029a9.358,9.358,0,0,1-2.892-7.54" transform="translate(-14.726 -57.515)" fill="#dcd9eb"/>
    <path id="Trazado_196921" data-name="Trazado 196921" d="M106.135,34.282q-9.483,0-18.966,0a3.994,3.994,0,0,1-4.246-4.194,8.117,8.117,0,0,1,.263-3.331,3.013,3.013,0,0,1,1.8-.383q11.244,0,22.488,0a3.837,3.837,0,0,1,1.477.189c.072.04.168.07.2.136.774,1.395.374,5.211-.6,6.446a4.094,4.094,0,0,1-2.417,1.13" transform="translate(-32.138 -10.228)" fill="#b56a54"/>
    <path id="Trazado_196922" data-name="Trazado 196922" d="M109.266,21.517l-25.886.019a3.955,3.955,0,0,1,4.144-2.728c.748.011,1.5.006,2.243,0a3.792,3.792,0,0,0,4.039-3.434c.435-2.394,2.183-3.143,4.277-1.833.8.274.931.978,1.074,1.675.464,2.273,1.516,3.174,3.836,3.251a6.574,6.574,0,0,1,1.825.31l1.786.209a2.641,2.641,0,0,1,2.663,2.531" transform="translate(-32.332 -5.003)" fill="#25e0ac"/>
    <path id="Trazado_196923" data-name="Trazado 196923" d="M123.8,25.22a4.183,4.183,0,0,0-2.663-2.531c3.806-.933,6.225.916,6.221,4.768a8.641,8.641,0,0,1-.113,1.974,3.878,3.878,0,0,1-4.268,3.329c-.7,0-1.41,0-2.115,0a4.21,4.21,0,0,0,3.037-4.952c-.1-.855-.07-1.725-.1-2.587" transform="translate(-46.868 -8.706)" fill="#edbc56"/>
    <path id="Trazado_196924" data-name="Trazado 196924" d="M114.13,18.792c-.749.012-1.5.045-2.247.03a3.648,3.648,0,0,1-3.7-3.212,4.651,4.651,0,0,0-.789-2.054,2.342,2.342,0,0,1,3.919,1.292,4.957,4.957,0,0,0,2.816,3.943" transform="translate(-41.645 -5.017)" fill="#edbd56"/>
    <path id="Trazado_196925" data-name="Trazado 196925" d="M109.152,118.538c6.619,0,13.239-.015,19.858.009,2.628.009,4.259,2.082,3.478,4.358a3.013,3.013,0,0,1-2.513,2.151,11.56,11.56,0,0,1-1.74.118q-19.046.009-38.093,0a10.46,10.46,0,0,1-1.493-.079,3.212,3.212,0,0,1-2.9-3.319,3.267,3.267,0,0,1,3.048-3.211,14.524,14.524,0,0,1,1.5-.028q9.43,0,18.859,0" transform="translate(-33.25 -45.964)" fill="#665e66"/>
    <path id="Trazado_196926" data-name="Trazado 196926" d="M109.217,78.855c6.7,0,13.4-.01,20.106.007a3.144,3.144,0,0,1,3.225,2.416,3.229,3.229,0,0,1-1.364,3.589,3.329,3.329,0,0,1-1.889.533q-20.106-.006-40.213-.011a3.264,3.264,0,1,1,.029-6.526c6.7-.021,13.4-.008,20.106-.008" transform="translate(-33.249 -30.576)" fill="#665e66"/>
    <path id="Trazado_196927" data-name="Trazado 196927" d="M45.688,69.985A3.372,3.372,0,0,1,47.8,66.674a3.313,3.313,0,0,1,3.782.786,22.481,22.481,0,0,1,2.1,2.627c.577.84.89.98,1.445-.054,1.434-2.672,2.92-5.32,4.483-7.92A3.423,3.423,0,0,1,65.3,61.6a3.235,3.235,0,0,1,.377,3.844c-2.561,4.615-5.126,9.23-7.792,13.784a3.372,3.372,0,0,1-5.615.348c-2.02-2.483-3.94-5.048-5.888-7.589a2.962,2.962,0,0,1-.7-2" transform="translate(-17.714 -23.386)" fill="#dc636e"/>
    <path id="Trazado_196928" data-name="Trazado 196928" d="M45.685,109.705a3.449,3.449,0,0,1,6.057-2.323,31.354,31.354,0,0,1,2.067,2.663c.558.806.847.618,1.257-.127,1.444-2.625,2.934-5.225,4.41-7.833a3.452,3.452,0,0,1,3.359-1.954,3.3,3.3,0,0,1,2.884,1.885,3.2,3.2,0,0,1-.045,3.225c-2.562,4.575-5.1,9.164-7.748,13.689a3.332,3.332,0,0,1-5.6.467c-2.1-2.527-4.056-5.178-6.059-7.787a2.734,2.734,0,0,1-.584-1.9" transform="translate(-17.711 -38.826)" fill="#dc636e"/>
    <path id="Trazado_196929" data-name="Trazado 196929" d="M99.638,110.983c-3.493,0-6.987.021-10.48-.01a3.3,3.3,0,0,1-2.028-6,3.938,3.938,0,0,1,2.37-.632q10.168-.009,20.336,0a3.382,3.382,0,0,1,3.4,1.865,3.182,3.182,0,0,1-.3,3.42,3.511,3.511,0,0,1-3.062,1.359c-3.41-.008-6.82,0-10.23,0" transform="translate(-33.24 -40.459)" fill="#665e66"/>
    <path id="Trazado_196930" data-name="Trazado 196930" d="M99.622,71.178c-3.375,0-6.75.009-10.124,0-2.314-.009-3.744-1.26-3.754-3.246s1.447-3.316,3.708-3.319q10.249-.015,20.5,0c2.188,0,3.612,1.317,3.619,3.272.008,2-1.35,3.275-3.574,3.288-3.458.021-6.916.006-10.375.006" transform="translate(-33.249 -25.051)" fill="#665e66"/>
    <path id="Trazado_196931" data-name="Trazado 196931" d="M99.609,150.733c-3.583,0-7.166.032-10.748-.014a3.2,3.2,0,0,1-3.113-2.732,3.275,3.275,0,0,1,2.217-3.623,3.146,3.146,0,0,1,.976-.16c7.124-.009,14.248-.021,21.373,0a3.151,3.151,0,0,1,3.209,2.739,3.2,3.2,0,0,1-2.307,3.659,5.778,5.778,0,0,1-1.482.138c-3.375.011-6.75.006-10.124.006v-.016" transform="translate(-33.236 -55.914)" fill="#665e66"/>
    <path id="Trazado_196932" data-name="Trazado 196932" d="M67.742,152.057c-1.588-1.095-3.155-2.233-5.177-2.392-.451-.035-.9-.091-1.351-.138,1.475-2.648,2.9-5.326,4.443-7.934a3.37,3.37,0,0,1,4.755-1.269,3.411,3.411,0,0,1,1.276,4.657c-1.258,2.39-2.625,4.721-3.946,7.077" transform="translate(-23.737 -54.218)" fill="#dc636e"/>
    <path id="Trazado_196933" data-name="Trazado 196933" d="M53.484,153.153c-.206.378-.572.276-.888.277-1.953.007-3.907.01-5.86-.009-.421,0-.964.149-1.084-.522a3.354,3.354,0,0,1,2.626-2.964,3.431,3.431,0,0,1,3.729,1.379c.479.623.984,1.227,1.477,1.839" transform="translate(-17.703 -58.096)" fill="#dc636e"/>
  </g>
</svg>
