<svg xmlns="http://www.w3.org/2000/svg" xmlns:xlink="http://www.w3.org/1999/xlink" width="117" height="117" viewBox="0 0 117 117">
  <defs>
    <clipPath id="clip-path">
      <rect id="Rect치ngulo_46096" data-name="Rect치ngulo 46096" width="94.185" height="74.846" fill="none"/>
    </clipPath>
  </defs>
  <g id="Grupo_154461" data-name="Grupo 154461" transform="translate(-425.321 -2215)">
    <rect id="Rect치ngulo_46091" data-name="Rect치ngulo 46091" width="117" height="117" transform="translate(425.321 2215)" fill="none"/>
    <g id="Grupo_154473" data-name="Grupo 154473" transform="translate(436.321 2236)">
      <g id="Grupo_154473-2" data-name="Grupo 154473" clip-path="url(#clip-path)">
        <path id="Trazado_197053" data-name="Trazado 197053" d="M0,.542A1.353,1.353,0,0,1,1.934.363C9.05,4.431,16.19,8.455,23.31,12.517a1.3,1.3,0,0,0,1.487-.009Q35.588,6.335,46.4.2a1.253,1.253,0,0,1,1.371.006C54.946,4.293,62.132,8.36,69.3,12.466a1.515,1.515,0,0,0,1.733-.03Q81.507,6.453,92.011.517a6.344,6.344,0,0,1,.807-.434.948.948,0,0,1,1.318.731,5.117,5.117,0,0,1,.027.917q0,29.152.022,58.3A2.025,2.025,0,0,1,93,62.064Q81.888,68.316,70.814,74.642a1.25,1.25,0,0,1-1.369,0q-10.8-6.15-21.611-12.3a1.3,1.3,0,0,0-1.485-.008Q35.556,68.5,24.737,74.628a1.248,1.248,0,0,1-1.368.025Q12.246,68.321,1.114,62c-.39-.222-.744-.508-1.114-.765V.542" transform="translate(0 0)" fill="#302d3d"/>
        <path id="Trazado_197054" data-name="Trazado 197054" d="M166.685,52.863c.757,2.538-.6,3.833-2.712,4.778a22,22,0,0,0-2.915,1.732.741.741,0,0,1-1.1-.1q-3.8-3.6-7.647-7.144c-.377-.348-.325-.635-.137-1.041a11.132,11.132,0,0,0,1.313-5.278,9.322,9.322,0,0,0-3.4-6.945c-.551-.468-.661-.73.047-1.093.815-.419,1.621-.863,2.4-1.345a.631.631,0,0,1,.934.114q6.411,6.447,12.853,12.864a1.225,1.225,0,0,1,.368.982c-.019.826-.006,1.653-.006,2.48" transform="translate(-78.406 -19.003)" fill="#43d177"/>
        <path id="Trazado_197055" data-name="Trazado 197055" d="M25.163,75.148,12.884,68.185c-2.688-1.524-5.369-3.06-8.069-4.561a1.128,1.128,0,0,1-.687-1.13q.023-28.048.014-56.1c0-.2.024-.409.043-.72.844.475,1.61.9,2.373,1.335,5.8,3.291,11.586,6.607,17.412,9.851.926.515,1.406,1.06,1.2,2.119a3.479,3.479,0,0,0-.006.646c-.415.11-.653-.191-.922-.343q-8.072-4.555-16.13-9.135c-1.418-.8-2.04-.443-2.04,1.183q0,11.587,0,23.174c0,8.767.012,17.533-.017,26.3A1.9,1.9,0,0,0,7.16,62.7c5.819,3.258,11.61,6.564,17.419,9.838a.918.918,0,0,1,.595.995c-.05.481-.01.971-.01,1.614" transform="translate(-2.163 -2.975)" fill="#f0f1f1"/>
        <path id="Trazado_197056" data-name="Trazado 197056" d="M170.464,5.618v1.06q0,27.765.016,55.529a1.458,1.458,0,0,1-.863,1.489c-6.453,3.624-12.88,7.292-19.319,10.941-.254.144-.477.393-.891.339,0-.483.029-.969-.008-1.45a.868.868,0,0,1,.553-.921c5.862-3.3,11.707-6.627,17.57-9.923a1.842,1.842,0,0,0,1.073-1.816q-.035-24.823-.018-49.645c0-1.571-.665-1.949-2.055-1.162q-8.07,4.571-16.138,9.147c-.284.161-.579.3-.976.509,0-.654.015-1.2-.005-1.736a.646.646,0,0,1,.4-.645c6.835-3.871,13.666-7.747,20.664-11.717" transform="translate(-78.278 -2.944)" fill="#f0f1f1"/>
        <path id="Trazado_197057" data-name="Trazado 197057" d="M52.577,59.677V50.7c0-4.439.012-8.879-.014-13.318a1.244,1.244,0,0,1,.757-1.285c1.619-.863,3.21-1.779,4.784-2.721a1.129,1.129,0,0,1,1.332.037c1.774,1.085,3.555,2.161,5.358,3.2.5.289.6.49.293,1.03Q60.193,46.354,55.352,55.1q-1.288,2.316-2.58,4.631l-.2-.059" transform="translate(-27.541 -17.38)" fill="#43d177"/>
        <path id="Trazado_197058" data-name="Trazado 197058" d="M52.592,107.744c0-4.256,0-8.481,0-12.706a.982.982,0,0,1,.1-.527c2.538-3.649,4.383-7.7,6.629-11.513,1.1-1.872,2.135-3.784,3.168-5.694.268-.494.494-.619,1.05-.359,3.13,1.463,6.278,2.888,9.43,4.3a.915.915,0,0,1,.618.976q-.026,6.569,0,13.139A1.021,1.021,0,0,1,73,96.385q-9.869,5.574-19.725,11.169a.837.837,0,0,1-.685.191" transform="translate(-27.557 -40.247)" fill="#43d177"/>
        <path id="Trazado_197059" data-name="Trazado 197059" d="M106.458,85.559c.281-.254.487-.12.694.117q4.129,4.731,8.265,9.457c1.956,2.229,3.93,4.442,5.891,6.666.238.27.587.464.63.875a12.793,12.793,0,0,1,.174,4.364c-.015.645-.487.467-.869.282-1.24-.6-2.415-1.325-3.606-2.013-3.391-1.959-6.819-3.854-10.216-5.8a1.717,1.717,0,0,1-1.022-1.67c.03-1.619.033-3.241-.067-4.861.093-2.107.02-4.215.039-6.322a3.93,3.93,0,0,1,.086-1.092" transform="translate(-55.715 -44.758)" fill="#2f7877"/>
        <path id="Trazado_197060" data-name="Trazado 197060" d="M122.051,49.236A7.521,7.521,0,0,1,137,48.111a7.2,7.2,0,0,1-.675,4.182,57.944,57.944,0,0,1-6.393,10.473c-.3.416-.485.322-.74-.033a55.778,55.778,0,0,1-6.539-10.806,6.134,6.134,0,0,1-.6-2.691" transform="translate(-63.947 -21.886)" fill="#fb3349"/>
        <path id="Trazado_197061" data-name="Trazado 197061" d="M117.537,31.845a11.461,11.461,0,0,0-3.63,2.862,9.243,9.243,0,0,0-1.268,9.56,10.393,10.393,0,0,0,.706,1.584c.446.708.153.9-.52,1.03-2.113.419-4.219.875-6.327,1.318a1.611,1.611,0,0,1-.111-.809c.03-4.04-.033-8.08.032-12.118q-.021-4.205,0-8.411c.007-1.265.314-1.437,1.4-.85.8.434,1.581.918,2.4,1.326,2.2,1.326,4.448,2.565,6.672,3.85.267.154.676.2.645.658" transform="translate(-55.742 -13.459)" fill="#2f7877"/>
        <path id="Trazado_197062" data-name="Trazado 197062" d="M18.23,95.388c1.791.858,3.481,1.9,5.2,2.88q3.1,1.767,6.2,3.539c.147,2.169.032,4.341.06,6.512.015,1.132.038,2.265-.014,3.4-.041.884-.329,1.059-1.1.622q-4.951-2.8-9.916-5.585a1.424,1.424,0,0,1-.709-1.388c0-1.591-.008-3.182,0-4.775q-.051-2-.023-4.005a1.5,1.5,0,0,1,.3-1.2" transform="translate(-9.392 -49.98)" fill="#2f7877"/>
        <path id="Trazado_197063" data-name="Trazado 197063" d="M149.546,81.227c3.088,2.887,6.108,5.665,9.066,8.508a1.521,1.521,0,0,0,2.176.215c1.862-1.163,3.761-2.268,5.633-3.389.249.231.159.457.159.653q.01,6.159,0,12.318a1.558,1.558,0,0,1-2.1,1.616q-4.544-1.09-9.085-2.2c-1.633-.4-3.262-.808-4.9-1.191a1.189,1.189,0,0,1-1.047-1.28q0-7.446.006-14.892a2.115,2.115,0,0,1,.09-.359" transform="translate(-78.308 -42.56)" fill="#43d177"/>
        <path id="Trazado_197064" data-name="Trazado 197064" d="M50.606,63.109c1.481-2.708,2.948-5.424,4.447-8.122q5.5-9.907,11.03-19.8c.7-1.262.628-1.53-.606-2.268l-5.966-3.572c.633-.36,1.162-.635,1.663-.955.352-.224.572.009.825.159,2.264,1.339,4.514,2.7,6.8,4.005.616.35.63.619.3,1.2-2.206,3.918-4.375,7.856-6.554,11.789-.635,1.146-.517,1.519.653,2.055q5.124,2.348,10.251,4.69a1.927,1.927,0,0,1-.027,2.046c-2.185-.779-4.23-1.875-6.351-2.8-1.595-.694-3.168-1.436-4.752-2.156-1.387-.631-1.6-.563-2.316.728Q55.6,58.033,51.187,65.954c-.138.248-.169.606-.541.675a4.723,4.723,0,0,1-.04-3.52" transform="translate(-26.348 -14.828)" fill="#fbbe49"/>
        <path id="Trazado_197065" data-name="Trazado 197065" d="M87.142,15.246v2.3q0,12.139,0,24.278c0,.988,0,.987-.92.572q-2.968-1.347-5.936-2.693c-1.026-.468-1.018-.47-.452-1.489Q83,32.509,86.155,26.8c.662-1.2.576-1.489-.617-2.2q-3.318-1.969-6.645-3.922c-.386-.226-.647-.407-.078-.729,2.715-1.53,5.426-3.068,8.327-4.708" transform="translate(-41.124 -7.988)" fill="#43d177"/>
        <path id="Trazado_197066" data-name="Trazado 197066" d="M15.277,104.934c0,1.591.014,3.183.006,4.774a.93.93,0,0,0,.484.977c3.39,1.885,6.764,3.8,10.145,5.7.154.087.325.145.6.267V113.1c0-2.051-.005-4.1.005-6.151,0-.321-.121-.682.187-.949,2.744,1.4,2.744,1.4,2.744,4.4v11.4c-1.921-1.082-3.724-2.094-5.524-3.113-3.617-2.047-7.226-4.109-10.854-6.137a1.185,1.185,0,0,1-.743-1.2c.047-2.508.035-5.017.044-7.526a1.75,1.75,0,0,1,2.713.507,3.828,3.828,0,0,0,.19.6" transform="translate(-6.46 -54.175)" fill="#43c7b7"/>
        <path id="Trazado_197067" data-name="Trazado 197067" d="M103.6,100.159a21.608,21.608,0,0,1,.156,4.744,1.4,1.4,0,0,0,.857,1.411c4.226,2.366,8.419,4.791,12.626,7.19.551.314,1.125.587,1.817.946v-4.728c1.118.712,1.581,2.11,2.823,2.7.1.046.1.337.1.514.007,2.112,0,4.223,0,6.51-1.251-.693-2.407-1.321-3.553-1.97q-5.1-2.889-10.2-5.79c-2.31-1.312-4.617-2.631-6.937-3.924a.877.877,0,0,1-.464-.9c.014-2.664.018-5.328.024-7.992a3.761,3.761,0,0,1,2.024.336c.342.239.76.421.717.95" transform="translate(-52.836 -51.806)" fill="#20506d"/>
        <path id="Trazado_197068" data-name="Trazado 197068" d="M12.433,34.633V19.8c1.472.827,2.878,1.611,4.279,2.4q6.031,3.417,12.06,6.838c.407.23.751.417.748,1.011-.033,5.453-.032,10.907-.041,16.361-.165.751-.6.8-1.178.445a1.752,1.752,0,0,1-.782-.706,4.1,4.1,0,0,1-.108-1.364c0-4.067-.04-8.134.021-12.2a2.559,2.559,0,0,0-1.495-2.633c-3.261-1.744-6.442-3.635-9.672-5.436-.615-.343-1.2-.533-1.637.253a2.215,2.215,0,0,0-.131,1.079q-.006,4.206,0,8.413a4.108,4.108,0,0,1-.054.911c-.084.372-.312.515-.672.373a2.731,2.731,0,0,1-1.335-.916" transform="translate(-6.515 -10.375)" fill="#43c7b7"/>
        <path id="Trazado_197069" data-name="Trazado 197069" d="M98.9,78.192q.014-1.023.027-2.045l9.863-2.056c.149-.031.3-.067.448-.1,1.716-.324,1.717-.324,2.533,1.459-1.205.259-2.392.516-3.579.769-1.582.337-1.813,1-.735,2.231q7.186,8.175,14.386,16.338c.2.229.393.467.59.7a2.788,2.788,0,0,1-.157,1.984,1.931,1.931,0,0,1-1.37-.8q-8.161-9.334-16.331-18.659a1.687,1.687,0,0,0-1.92-.624c-1.238.321-2.5.538-3.756.8" transform="translate(-51.82 -38.685)" fill="#fb6a35"/>
        <path id="Trazado_197070" data-name="Trazado 197070" d="M107.478,22.012a15.542,15.542,0,0,1-2.9-1.546c-.6-.351-.765-.261-.761.439.015,2.875-.009,5.75-.019,8.625a1.668,1.668,0,0,1-1.075,1.256c-1.218.423-1.783.054-1.759-1.211a40.77,40.77,0,0,1,.072-4.281c-.238-3.041-.1-6.088-.137-9.133,0-.327,0-.653,0-1.2l8.981,5.185c.335,1.416-.805,2.3-2.4,1.862" transform="translate(-52.864 -7.841)" fill="#43c7b7"/>
        <path id="Trazado_197071" data-name="Trazado 197071" d="M172.609,43.987c-1.409-1.427-2.628-2.67-3.857-3.9q-3.732-3.745-7.48-7.475c-.4-.395-.5-.606.092-.9.849-.416,1.7-1.326,2.473-1.253.713.066,1.34,1.144,1.99,1.791,2.085,2.077,4.153,4.17,6.25,6.234a1.581,1.581,0,0,1,.544,1.277c-.037,1.314-.012,2.63-.012,4.227" transform="translate(-84.33 -15.957)" fill="#fbbe49"/>
        <path id="Trazado_197072" data-name="Trazado 197072" d="M121.93,136.152c-.955-.539-1.774-1-2.59-1.461q-8.893-5.045-17.785-10.093a2.281,2.281,0,0,1-.7-2.372c.244-.386.491.006.672.107,2.215,1.237,4.415,2.5,6.622,3.753,4.2,2.384,8.384,4.8,12.618,7.121.9.492,1.36,1.005,1.174,2.027a6.212,6.212,0,0,0-.006.918" transform="translate(-52.778 -63.955)" fill="#f0f1f1"/>
        <path id="Trazado_197073" data-name="Trazado 197073" d="M121.993,19.8a1.943,1.943,0,0,1-1.047-.444c-6.3-3.565-12.584-7.162-18.912-10.679a1.8,1.8,0,0,1-1.152-2.063,4.683,4.683,0,0,0,.006-.714,1.646,1.646,0,0,1,.973.391c6.326,3.584,12.635,7.2,18.984,10.74.9.5,1.326,1.041,1.153,2.046a4.436,4.436,0,0,0-.006.722" transform="translate(-52.842 -3.092)" fill="#f0f1f1"/>
        <path id="Trazado_197074" data-name="Trazado 197074" d="M52.614,19.937c-.517-1.614.142-2.4,1.5-3.151,6.24-3.435,12.408-7,18.606-10.513.229-.129.436-.345.738-.31a1.535,1.535,0,0,1,.057.179A2.41,2.41,0,0,1,72,9.012C65.709,12.471,59.488,16.059,53.24,19.6c-.207.117-.418.226-.626.337" transform="translate(-27.476 -3.122)" fill="#f0f1f1"/>
        <path id="Trazado_197075" data-name="Trazado 197075" d="M73.512,122.235c.021.086.039.144.05.2.259,1.342-.272,2.092-1.509,2.774-6.21,3.421-12.351,6.967-18.517,10.467-.286.162-.579.309-1,.533,0-.685.02-1.251-.007-1.816a.632.632,0,0,1,.4-.639q10.219-5.77,20.434-11.548c.02-.012.059.009.155.025" transform="translate(-27.522 -64.032)" fill="#f0f1f1"/>
        <path id="Trazado_197076" data-name="Trazado 197076" d="M30.694,91.434q.019,1.76.04,3.52L13.876,85.442,13.8,85.4c-1.646-.947-1.646-.947-1.388-3.04,1.516.857,3,1.694,4.48,2.534,3.963,2.249,7.934,4.486,11.882,6.761.749.432,1.355.5,1.925-.218" transform="translate(-6.435 -43.153)" fill="#fb6a35"/>
        <path id="Trazado_197077" data-name="Trazado 197077" d="M167.016,77.448c.04.177.055.233.066.291a2.407,2.407,0,0,1-1.567,2.941,52.124,52.124,0,0,0-4.656,2.746.64.64,0,0,1-.933-.08c-3.043-2.882-6.108-5.74-9.162-8.611-.181-.17-.516-.309-.267-.66.312-.438.433-1.023.912-1.314.08-.048.419.3.618.486,2.521,2.366,5.058,4.714,7.543,7.118a1.529,1.529,0,0,0,2.18.232c1.7-1.07,3.451-2.069,5.266-3.149" transform="translate(-78.809 -38.122)" fill="#fbbe49"/>
        <path id="Trazado_197078" data-name="Trazado 197078" d="M178.023,19.791V30.4c-.286.1-.374-.158-.506-.289-1.953-1.941-3.889-3.9-5.851-5.83-.416-.409-.539-.626.087-.966,2.063-1.12,4.1-2.295,6.271-3.523" transform="translate(-89.766 -10.37)" fill="#2a92fe"/>
        <path id="Trazado_197079" data-name="Trazado 197079" d="M100.992,36.665q.007,2.065.014,4.131c0,1.2.785,1.62,1.865,1.016a3.975,3.975,0,0,0,.884-.912q.006,6.087.014,12.174a1.428,1.428,0,0,1-.193.876c-.715.154-1.439.274-2.141.473-.489.138-.612-.04-.59-.474.008-.152,0-.306,0-.458q-.008-7.887-.01-15.773c0-.352-.131-.738.157-1.052" transform="translate(-52.819 -19.211)" fill="#2fa98f"/>
        <path id="Trazado_197080" data-name="Trazado 197080" d="M12.3,39.834c.641.1,1.082.645,1.8.845V36.531c0-1.979,0-3.958,0-5.938,0-.294-.089-.616.161-.867a1.32,1.32,0,0,1,.3,1.113c-.014,5.116.032,10.233-.046,15.35-.021,1.375.069,2.756.053,4.134-.008.7.5,1.088.791,1.614a3.231,3.231,0,0,1,.1,1.42c-.03.28-.026.624-.444.66-.894-.521-2.11-.844-2.591-1.621-.455-.735-.159-1.948-.159-2.951,0-3.2.019-6.407.03-9.61" transform="translate(-6.378 -15.576)" fill="#2fa98f"/>
        <path id="Trazado_197081" data-name="Trazado 197081" d="M130.072,91.218c-1.029-1.125-2.074-2.237-3.083-3.379-1.618-1.832-3.2-3.7-4.828-5.521-.394-.442-.39-.636.2-.754.717-.141,1.43-.3,2.147-.446.466-.094.718.176.971.526,1.018,1.411,2.069,2.8,3.09,4.209a1.063,1.063,0,0,0,1.5.417.871.871,0,0,1,.269.656q.071,1.818,0,3.636a.868.868,0,0,1-.269.655" transform="translate(-63.866 -42.493)" fill="#2f7776"/>
        <path id="Trazado_197082" data-name="Trazado 197082" d="M149.453,134.9c0-2.145,0-4.125,0-6.105,0-.4.128-.539.553-.436,2.486.606,4.978,1.191,7.726,1.845l-8.275,4.7" transform="translate(-78.307 -67.241)" fill="#43d176"/>
        <path id="Trazado_197083" data-name="Trazado 197083" d="M114.727,27.719c1.71-.047,2.149-.387,2.4-1.862l9.243,5.155a17.744,17.744,0,0,0-4.464.921q-3.021-1.742-6.041-3.486c-.39-.226-.761-.484-1.141-.727" transform="translate(-60.113 -13.548)" fill="#2fa98f"/>
        <path id="Trazado_197084" data-name="Trazado 197084" d="M147.979,121.319c.072-.659-.184-1.345.157-1.983l13.815,3.348c-1.325.735-2.291,1.58-3.914,1.11-3.314-.96-6.7-1.665-10.058-2.475" transform="translate(-77.523 -62.528)" fill="#fbbe49"/>
        <path id="Trazado_197085" data-name="Trazado 197085" d="M139.08,92.727q0-2.474,0-4.948l2.885-3.8V96.021a35.443,35.443,0,0,1-2.886-3.294" transform="translate(-72.874 -44.002)" fill="#20506d"/>
        <path id="Trazado_197086" data-name="Trazado 197086" d="M18.147,78.4c.4-.651.077-1.376.208-2.054.408-.229.7.071,1,.241,3.109,1.714,6.167,3.521,9.269,5.248.444.247,1.026.227,1.347.7-.291.736.052,1.588-.419,2.29L18.147,78.4" transform="translate(-9.508 -39.96)" fill="#2f7776"/>
        <path id="Trazado_197087" data-name="Trazado 197087" d="M42.078,84.334c.155-.785-.366-1.677.377-2.367.789-1.662.321-3.433.449-5.153.038-.507-.121-1.052.279-1.491a5.027,5.027,0,0,1,.684.412c.487.407.843.3,1.126-.228v10.55l-2.915-1.723" transform="translate(-22.029 -39.467)" fill="#2fa98f"/>
        <path id="Trazado_197088" data-name="Trazado 197088" d="M103.617,93.262c-.551-.709-1.175-1.261-2.169-.951-.33.1-.415-.169-.572-.336,0-1.654.02-3.309-.011-4.963-.011-.572.185-.835.753-.914.664-.092,1.317-.256,1.975-.388a.618.618,0,0,1,.2.574q0,3.245,0,6.489a.521.521,0,0,1-.179.489" transform="translate(-52.85 -44.909)" fill="#2fa98f"/>
        <path id="Trazado_197089" data-name="Trazado 197089" d="M15.287,99.007c-.92-1.38-1.5-1.6-2.9-1.106-.009-1.768-.005-3.535-.035-5.3-.01-.574.186-.636.624-.357a21.742,21.742,0,0,1,2.336,1.414l-.021,5.352" transform="translate(-6.47 -48.248)" fill="#2fa98f"/>
        <path id="Trazado_197090" data-name="Trazado 197090" d="M73.863,91.875c0,1.654-.022,3.308.011,4.961a1.421,1.421,0,0,1-.8,1.41c-4.93,2.779-9.849,5.577-14.78,8.352-.873.491-1.541.113-1.552-.875-.024-2.266,0-4.532-.005-6.8A2.049,2.049,0,0,1,57.09,97.9q4.077-7.34,8.148-14.686a1.139,1.139,0,0,1,1.728-.561c1.989.942,4,1.841,6.009,2.738a1.362,1.362,0,0,1,.9,1.429c-.034,1.684-.011,3.369-.011,5.053" transform="translate(-29.725 -43.208)" fill="#302d3d"/>
        <path id="Trazado_197091" data-name="Trazado 197091" d="M132.568,57.124a4.7,4.7,0,0,1-4.788-4.832,4.806,4.806,0,1,1,4.788,4.832" transform="translate(-66.953 -24.891)" fill="#302d3d"/>
        <path id="Trazado_197092" data-name="Trazado 197092" d="M153.44,97.741c0-1.012.005-2.023,0-3.035,0-.6.016-1.189.691-1.459.613-.245.967.186,1.347.54,1.791,1.674,3.595,3.334,5.362,5.032a.812.812,0,0,0,1.185.146c.953-.612,1.934-1.181,2.915-1.748,1.045-.605,1.733-.218,1.74.983q.019,2.85,0,5.7c-.008.979-.464,1.338-1.411,1.116-3.57-.836-7.137-1.687-10.707-2.523a1.3,1.3,0,0,1-1.121-1.443c.015-1.1,0-2.207,0-3.311" transform="translate(-80.395 -48.821)" fill="#302d3d"/>
        <path id="Trazado_197093" data-name="Trazado 197093" d="M29.808,50.71c-.008,1.763-.031,3.525-.016,5.288a1.327,1.327,0,0,1-.712,1.356c-1.06.051-1.812-.656-2.646-1.12-2.851-1.584-5.674-3.217-8.51-4.828a3.017,3.017,0,0,0-.423-.165,1.916,1.916,0,0,1-.983-1.969c.038-6.755.023-13.511.025-20.267.414-.753.98-.812,1.688-.409q5.377,3.059,10.769,6.1a1.527,1.527,0,0,1,.784,1.522q-.019,6.7-.005,13.4c0,.367.02.733.03,1.1" transform="translate(-8.655 -14.854)" fill="#302d3d"/>
        <path id="Trazado_197094" data-name="Trazado 197094" d="M60.753,106.773c0-1.736-.014-3.287.014-4.839a1.782,1.782,0,0,1,.294-.756c2.446-4.411,4.905-8.814,7.341-13.23.265-.481.465-.679,1.039-.39,1.281.646,2.6,1.224,3.913,1.8a.884.884,0,0,1,.651.939c-.03,2.786-.016,5.573-.011,8.359,0,.347-.013.632-.384.841-4.232,2.383-8.454,4.784-12.856,7.279" transform="translate(-31.831 -45.807)" fill="#fdd8b6"/>
        <path id="Trazado_197095" data-name="Trazado 197095" d="M137.531,54.488a2.863,2.863,0,0,1-2.89,2.909A2.912,2.912,0,0,1,131.8,54.51a2.868,2.868,0,0,1,2.867-2.84,2.806,2.806,0,0,1,2.865,2.818" transform="translate(-69.059 -27.073)" fill="#fefefe"/>
        <path id="Trazado_197096" data-name="Trazado 197096" d="M157.613,99.984c1.693,1.569,3.277,2.984,4.8,4.467a1.445,1.445,0,0,0,2.1.188c.626-.432,1.3-.793,1.95-1.194.344-.213.505-.139.488.274,0,.03,0,.061,0,.092-.011.824.3,1.94-.12,2.391-.452.49-1.494-.152-2.269-.322-2.114-.464-4.213-.994-6.323-1.478-.451-.1-.656-.277-.637-.785.042-1.148.013-2.3.013-3.633" transform="translate(-82.577 -52.389)" fill="#fcd8b6"/>
        <path id="Trazado_197097" data-name="Trazado 197097" d="M29.869,42.926c-1.066-.6-2.016-1.132-2.964-1.668-1.916-1.084-3.826-2.182-5.752-3.249a1.065,1.065,0,0,1-.647-1.09c.037-.764.021-1.531.006-2.3-.009-.439.124-.565.528-.334q4.224,2.41,8.451,4.812a.676.676,0,0,1,.384.663c-.015,1-.006,2.005-.006,3.163" transform="translate(-10.743 -17.907)" fill="#4395a3"/>
        <path id="Trazado_197098" data-name="Trazado 197098" d="M29.854,53.357c-.071.37.226,1-.135,1.216s-.8-.291-1.188-.51c-2.341-1.319-4.656-2.686-7.025-3.952a1.666,1.666,0,0,1-1.03-1.779c.076-1.783.027-1.794,1.581-.917,2.181,1.231,4.351,2.479,6.529,3.715,1.265.718,1.268.714,1.268,2.227" transform="translate(-10.727 -24.545)" fill="#4395a3"/>
        <path id="Trazado_197099" data-name="Trazado 197099" d="M29.825,65.7l-6.431-3.638a6.936,6.936,0,0,0-1.281-.709c-1.714-.525-1.784-1.819-1.652-3.265.049-.528.222-.55.627-.318q4.139,2.369,8.292,4.715a.8.8,0,0,1,.451.812c-.017.733-.005,1.467-.005,2.4" transform="translate(-10.698 -30.198)" fill="#4395a3"/>
        <path id="Trazado_197100" data-name="Trazado 197100" d="M29.738,75.771c-2.012-1.134-4-2.253-5.984-3.373A22.268,22.268,0,0,0,21.6,71.191a1.73,1.73,0,0,1-1.138-2c.055-.678.208-.7.73-.393,2.139,1.241,4.291,2.456,6.438,3.681.292.167.584.333.878.495,1.533.842,1.533.842,1.23,2.8" transform="translate(-10.714 -35.948)" fill="#4395a3"/>
      </g>
    </g>
  </g>
</svg>
