<svg xmlns="http://www.w3.org/2000/svg" xmlns:xlink="http://www.w3.org/1999/xlink" width="117" height="117" viewBox="0 0 117 117">
  <defs>
    <clipPath id="clip-path">
      <rect id="Rect치ngulo_46097" data-name="Rect치ngulo 46097" width="90.656" height="90.672" fill="none"/>
    </clipPath>
  </defs>
  <g id="Grupo_154464" data-name="Grupo 154464" transform="translate(-425.321 -2215)">
    <rect id="Rect치ngulo_46091" data-name="Rect치ngulo 46091" width="117" height="117" transform="translate(425.321 2215)" fill="none"/>
    <g id="Grupo_154475" data-name="Grupo 154475" transform="translate(438.321 2228)">
      <g id="Enmascarar_grupo_154475" data-name="Enmascarar grupo 154475" clip-path="url(#clip-path)">
        <path id="Trazado_197101" data-name="Trazado 197101" d="M.017,90.653c0-.767.036-1.537-.012-2.3-.036-.569.125-.744.716-.732,2.034.039,4.07-.007,6.105.029.574.01.783-.135.742-.728A8.136,8.136,0,0,0,7.5,84.729c-.255-.667-1.2-.522-1.825-.787a9.032,9.032,0,0,1-4.63-12.516,8.965,8.965,0,0,0,.692-6.413,7.532,7.532,0,0,1,14.308-4.5,7.159,7.159,0,0,1,.365,4.675,8.044,8.044,0,0,0,.6,5.992,8.787,8.787,0,0,1-.339,9.235A8.538,8.538,0,0,1,11.3,84.3c-.492.118-.747.288-.694.861.072.787-.251,1.825.142,2.31.414.509,1.49.151,2.274.157,2.92.02,5.841-.021,8.76.028.74.012.907-.176.906-.909q-.032-39.168-.017-78.335c0-.266-.014-.532.005-.8a1.574,1.574,0,0,1,1.758-1.577c1.179-.023,2.36-.032,3.539.007.548.017.773-.093.744-.707-.054-1.148-.026-2.3-.013-3.451C28.722.567,29.282,0,30.606,0Q45.34,0,60.073,0c1.315,0,1.869.569,1.882,1.9.012,1.151.031,2.3-.01,3.451-.018.529.1.719.669.693,1.118-.051,2.241-.02,3.362-.014,1.489.008,2.011.534,2.011,2.038q0,21.421,0,42.841,0,17.88-.022,35.76c0,.834.241.991,1.014.981,3.45-.042,6.9-.033,10.353,0,.59.005.676-.179.732-.73.158-1.582-.139-2.423-1.942-3.113a8.814,8.814,0,0,1-4.538-12.474,8.621,8.621,0,0,0,.685-6.076A7.533,7.533,0,1,1,89.1,63.9c-.056.921-.338,1.79-.468,2.694a6.542,6.542,0,0,0,.565,3.869,31.485,31.485,0,0,1,1.445,3.723V77.2c-.367.271-.332.717-.455,1.088a9.186,9.186,0,0,1-5.12,5.634c-.643.3-1.631.093-1.905.816a8.189,8.189,0,0,0-.069,2.19c-.041.593.169.734.742.726,2.268-.031,4.538-.009,6.807-.007,0,.885-.018,1.771.01,2.655.01.308-.055.415-.364.359a2.487,2.487,0,0,0-.442,0ZM58.9,4.6c.105-1.583.105-1.583-1.42-1.583h-24.3c-1.531,0-1.531,0-1.42,1.583-.1,1.433-.1,1.433,1.3,1.433H57.688c1.3,0,1.3,0,1.232-1.346A.63.63,0,0,0,58.9,4.6m6.035,16.822c.011-3.8,0-7.609.053-11.413.01-.761-.156-.981-.958-.98q-18.666.045-37.333,0c-.9,0-1.03.279-1.029,1.088q.035,26.724.019,53.448c0,.295.016.589.026.883-.009,7.522-.01,15.045-.041,22.566,0,.626.289.635.751.633,2.507-.013,5.014-.035,7.52.012.7.013.815-.23.809-.858-.03-3.038-.016-6.077-.012-9.115,0-1.627.488-2.121,2.1-2.121q8.494,0,16.989,0c1.6,0,2.091.5,2.093,2.128,0,3.039.019,6.078-.013,9.116-.007.639.126.863.817.849,2.388-.046,4.779-.064,7.166.006.9.026,1.1-.211,1.1-1.1q-.042-32.083-.023-64.166c0-.324-.022-.647-.033-.971M83.076,72.359c0,2.714.029,5.429-.017,8.142-.014.852.277.856.919.583a5.965,5.965,0,0,0,3.016-8.145,11.341,11.341,0,0,1-1.033-8.45A4.24,4.24,0,0,0,84.246,59.8a4.447,4.447,0,0,0-4.994-.2,4.317,4.317,0,0,0-2.087,4.6c.119.726.3,1.444.378,2.172a11.186,11.186,0,0,1-1.335,6.475,6.006,6.006,0,0,0,2.815,8.164c.963.431,1.028.393,1.028-.628q0-7.39,0-14.78c0-2.214,0-2.191,2.24-2.186.618,0,.8.183.8.8-.03,2.713-.013,5.428-.013,8.142m-72.461.023c0,2.744.017,5.489-.012,8.233-.007.669.2.759.76.507a5.88,5.88,0,0,0,3.7-4.988,4.852,4.852,0,0,0-.475-3.016A11.494,11.494,0,0,1,13.5,64.16a4.262,4.262,0,0,0-2.256-4.676A4.528,4.528,0,0,0,4.734,64.7a11.231,11.231,0,0,1,.254,4.553,14.425,14.425,0,0,1-1.353,3.72,6.029,6.029,0,0,0,3.019,8.091c.869.359.936.319.936-.61q0-7.436,0-14.871c0-2.205,0-2.181,2.25-2.166.637,0,.79.225.784.823-.026,2.714-.012,5.429-.011,8.143m36.245,10.66c0,1.3.018,2.593-.009,3.888-.01.5.065.739.658.723,1.589-.043,3.181-.035,4.77,0,.53.011.631-.192.627-.668-.018-2.592-.023-5.185,0-7.777.005-.527-.189-.641-.668-.634-1.59.023-3.181.03-4.771,0-.537-.011-.629.205-.619.674.026,1.266.009,2.533.009,3.8m-3.056.086c0-1.3-.017-2.593.009-3.888.009-.472-.089-.683-.623-.671-1.589.032-3.181.026-4.771,0-.482-.007-.67.114-.665.637q.037,3.888,0,7.777c0,.479.1.676.63.665,1.589-.032,3.181-.041,4.77,0,.6.016.666-.232.656-.726-.027-1.266-.009-2.533-.009-3.8" transform="translate(0 0)" fill="#010101"/>
        <path id="Trazado_197103" data-name="Trazado 197103" d="M89.291,41.741c.011.324.033.647.033.971q0,32.083.023,64.166c0,.893-.206,1.13-1.1,1.1-2.387-.069-4.778-.052-7.166-.006-.69.013-.823-.21-.816-.849.032-3.038.017-6.077.013-9.116,0-1.625-.494-2.128-2.093-2.128q-8.494,0-16.988,0c-1.612,0-2.1.494-2.1,2.121,0,3.039-.018,6.078.012,9.116.006.627-.106.871-.809.858-2.506-.047-5.014-.025-7.521-.012-.462,0-.753-.007-.751-.633q.045-11.283.041-22.566a.642.642,0,0,0,.462-.228q2.151-2.333,4.3-4.667a.764.764,0,0,0,.158-.579l5.031-.03c1.6-.009,2.088-.5,2.091-2.122,0-1.884,0-3.769,0-5.653.893-.318,1.236-1.212,1.825-1.832a12.06,12.06,0,0,0,2.2-2.569c2.14.2,4.284.077,6.426.075.753,0,1.468-.319,1.548-1.155a35.665,35.665,0,0,0-.008-6.852,1.988,1.988,0,0,0-.245-.558q1.66-1.774,3.321-3.546a.956.956,0,0,0,.312-.6,2.019,2.019,0,0,0,1.587.615c1.767-.02,3.533,0,5.3-.009,1.38-.007,1.919-.545,1.927-1.925.01-1.738-.009-3.475.008-5.212a1.853,1.853,0,0,0-1.07-1.862,33.862,33.862,0,0,1,2.273-2.544c.614-.57.9-1.465,1.773-1.768M77.252,62.567c0,.944-.015,1.889,0,2.832.023,1.152.506,1.724,1.646,1.756q2.874.08,5.751,0A1.529,1.529,0,0,0,86.3,65.469q.046-2.832,0-5.665A1.533,1.533,0,0,0,84.68,58.09c-1.946-.047-3.894-.05-5.84,0-1.063.03-1.56.632-1.584,1.729-.02.914,0,1.829,0,2.744M69.7,82.276H67.044c-.059,0-.118,0-.177,0-1.054.036-1.662.492-1.7,1.521q-.1,3,0,6.015a1.446,1.446,0,0,0,1.619,1.5q2.875.034,5.751,0a1.444,1.444,0,0,0,1.644-1.474q.1-3.049,0-6.1c-.034-.984-.642-1.439-1.653-1.461-.943-.02-1.888,0-2.831-.005M69.688,70.2H67.033c-.059,0-.118,0-.177,0-1.085.049-1.677.541-1.705,1.613q-.076,2.875,0,5.752a1.559,1.559,0,0,0,1.742,1.69q2.787.043,5.575,0a1.556,1.556,0,0,0,1.75-1.681q.074-2.875,0-5.752a1.512,1.512,0,0,0-1.7-1.617c-.943-.025-1.888-.005-2.831-.007M77.254,86.8v2.742c0,.059,0,.118,0,.177a1.494,1.494,0,0,0,1.618,1.595q2.874.035,5.748,0a1.5,1.5,0,0,0,1.667-1.56q.071-2.962,0-5.926a1.5,1.5,0,0,0-1.676-1.547c-1.916-.019-3.832-.022-5.748,0a1.466,1.466,0,0,0-1.6,1.6c-.03.972-.007,1.946-.009,2.919m-15.145.005h0q0-.707,0-1.415c0-.5.016-1-.007-1.5a1.475,1.475,0,0,0-1.6-1.6c-1.916-.025-3.832-.022-5.748,0a1.521,1.521,0,0,0-1.69,1.63q-.058,2.874,0,5.75a1.523,1.523,0,0,0,1.67,1.653q2.874.035,5.748,0A1.476,1.476,0,0,0,62.1,89.727c.031-.972.007-1.946.007-2.919M81.775,70.2H79.033c-.059,0-.118,0-.177,0a1.474,1.474,0,0,0-1.593,1.612c-.028,1.916-.025,3.834,0,5.751a1.5,1.5,0,0,0,1.628,1.684c1.915.043,3.833.04,5.749,0A1.537,1.537,0,0,0,86.3,77.572q.05-2.875,0-5.75A1.507,1.507,0,0,0,84.605,70.2c-.943-.025-1.887-.005-2.83-.007" transform="translate(-24.352 -20.319)" fill="#3e8dc1"/>
        <path id="Trazado_197104" data-name="Trazado 197104" d="M66.137,55.328a12.048,12.048,0,0,1-2.2,2.569c-.589.62-.931,1.514-1.825,1.832a1.573,1.573,0,0,0-1.737-1.292c-1.794.007-3.587-.008-5.381,0-1.426.01-1.932.538-1.937,2q-.009,2.471,0,4.942c0,1.523.406,1.968,1.934,2.151a.766.766,0,0,1-.158.58q-2.152,2.332-4.3,4.667a.646.646,0,0,1-.462.228c-.009-.295-.026-.589-.026-.883q0-26.725-.019-53.449c0-.808.129-1.09,1.03-1.088q18.666.052,37.333,0c.8,0,.968.218.958.98-.051,3.8-.041,7.609-.052,11.413-.87.3-1.158,1.2-1.773,1.768A33.956,33.956,0,0,0,85.241,34.3c-2.119-.017-4.237-.06-6.355-.043a1.5,1.5,0,0,0-1.629,1.673c-.024,1.914-.006,3.828-.008,5.742a2.587,2.587,0,0,0,.241,1.021.956.956,0,0,1-.312.6q-1.665,1.769-3.321,3.546a2.34,2.34,0,0,0-1.547-.524c-1.764,0-3.528-.016-5.291.007-1.3.017-1.869.592-1.886,1.905-.023,1.764,0,3.528-.006,5.292a1.832,1.832,0,0,0,1.011,1.81m-4.026-4.467c0-.944.018-1.889-.005-2.832a1.516,1.516,0,0,0-1.621-1.695c-1.946-.046-3.894-.048-5.84,0A1.506,1.506,0,0,0,53.062,48q-.05,2.876,0,5.754a1.459,1.459,0,0,0,1.508,1.624q3,.094,6.014,0c1.03-.031,1.5-.621,1.521-1.685.022-.944,0-1.889,0-2.833m7.517-19.634c.944,0,1.888.014,2.831,0,1.1-.02,1.708-.509,1.74-1.577q.089-2.962,0-5.927c-.033-1.036-.631-1.526-1.676-1.537q-2.831-.028-5.663,0a1.5,1.5,0,0,0-1.7,1.609q-.08,2.918,0,5.84c.032,1.073.64,1.57,1.728,1.592.914.018,1.829,0,2.743,0M69.686,43.3v0c.944,0,1.888.016,2.831,0,1.052-.024,1.642-.5,1.676-1.535.064-1.974.063-3.953.007-5.928a1.491,1.491,0,0,0-1.653-1.58q-2.875-.045-5.751,0a1.455,1.455,0,0,0-1.626,1.506q-.089,3.049.016,6.1c.034.953.616,1.4,1.58,1.43s1.947.006,2.92.006M57.616,22.181v0c-.943,0-1.887-.013-2.83,0a1.524,1.524,0,0,0-1.718,1.6q-.065,2.918,0,5.838a1.505,1.505,0,0,0,1.633,1.6c1.945.026,3.892.03,5.837,0a1.449,1.449,0,0,0,1.56-1.556q.045-2.962,0-5.927a1.438,1.438,0,0,0-1.561-1.544c-.972-.029-1.945-.006-2.918-.006m19.635,4.509h0v2.654c0,.059,0,.118,0,.177a1.531,1.531,0,0,0,1.7,1.7q2.83.032,5.66,0a1.5,1.5,0,0,0,1.676-1.554q.072-2.962,0-5.927a1.491,1.491,0,0,0-1.664-1.555c-1.916-.019-3.832-.022-5.749,0a1.466,1.466,0,0,0-1.616,1.585c-.032.972-.007,1.946-.007,2.919M57.524,43.295c1,0,2.006.024,3.007-.007a1.433,1.433,0,0,0,1.562-1.541q.049-2.962,0-5.927a1.457,1.457,0,0,0-1.557-1.563q-2.918-.057-5.837,0a1.507,1.507,0,0,0-1.634,1.6q-.062,2.918,0,5.838a1.493,1.493,0,0,0,1.628,1.592c.942.027,1.887.006,2.83.005" transform="translate(-24.348 -8.562)" fill="#4296cf"/>
        <path id="Trazado_197105" data-name="Trazado 197105" d="M154.74,128.247c0-2.714-.017-5.428.013-8.142.007-.617-.179-.8-.8-.8-2.24,0-2.24-.027-2.24,2.186q0,7.39,0,14.78c0,1.02-.064,1.058-1.028.628a6.006,6.006,0,0,1-2.815-8.164,11.184,11.184,0,0,0,1.335-6.475c-.083-.729-.26-1.447-.378-2.172a4.317,4.317,0,0,1,2.087-4.6,4.447,4.447,0,0,1,4.994.2,4.24,4.24,0,0,1,1.715,4.692,11.341,11.341,0,0,0,1.033,8.45,5.965,5.965,0,0,1-3.016,8.145c-.642.273-.934.269-.919-.584.046-2.713.017-5.428.017-8.142" transform="translate(-71.664 -55.888)" fill="#85af36"/>
        <path id="Trazado_197106" data-name="Trazado 197106" d="M13.514,128.283c0-2.714-.015-5.429.011-8.144.006-.6-.146-.818-.784-.822-2.25-.015-2.25-.04-2.25,2.165q0,7.436,0,14.872c0,.929-.067.969-.936.61a6.029,6.029,0,0,1-3.02-8.091,14.418,14.418,0,0,0,1.353-3.72,11.229,11.229,0,0,0-.253-4.553,4.527,4.527,0,0,1,6.513-5.214,4.261,4.261,0,0,1,2.256,4.675,11.494,11.494,0,0,0,1.085,8.957,4.847,4.847,0,0,1,.475,3.016,5.88,5.88,0,0,1-3.7,4.988c-.564.251-.767.162-.76-.508.029-2.744.012-5.488.012-8.232" transform="translate(-2.9 -55.901)" fill="#85b036"/>
        <path id="Trazado_197107" data-name="Trazado 197107" d="M91.294,157.561c0-1.267.017-2.534-.009-3.8-.01-.469.082-.685.619-.674,1.589.033,3.18.026,4.77,0,.479-.007.673.107.668.634q-.037,3.888,0,7.777c0,.475-.1.679-.627.668-1.59-.033-3.181-.041-4.77,0-.594.016-.669-.226-.659-.723.027-1.3.009-2.592.009-3.888" transform="translate(-44.435 -74.519)" fill="#85cbd6"/>
        <path id="Trazado_197108" data-name="Trazado 197108" d="M79.611,157.647c0,1.267-.017,2.534.009,3.8.01.493-.058.742-.656.726-1.589-.044-3.18-.035-4.77,0-.527.011-.634-.186-.63-.665q.028-3.888,0-7.777c-.005-.523.183-.645.665-.637,1.59.024,3.181.03,4.771,0,.533-.011.632.2.623.671-.026,1.3-.009,2.592-.009,3.888" transform="translate(-35.808 -74.519)" fill="#85cbd6"/>
        <path id="Trazado_197109" data-name="Trazado 197109" d="M61.852,7.461c-.111-1.583-.111-1.583,1.42-1.583h24.3c1.525,0,1.525,0,1.42,1.583H61.852" transform="translate(-30.088 -2.861)" fill="#4296cf"/>
        <path id="Trazado_197110" data-name="Trazado 197110" d="M61.854,8.962H88.994a.63.63,0,0,1,.016.087c.069,1.346.069,1.346-1.232,1.346H63.157c-1.406,0-1.406,0-1.3-1.433" transform="translate(-30.09 -4.363)" fill="#3e8dc1"/>
        <path id="Trazado_197111" data-name="Trazado 197111" d="M80.46,82.568a1.833,1.833,0,0,1-1.011-1.81c0-1.764-.017-3.528.007-5.292.017-1.312.586-1.888,1.886-1.9,1.763-.024,3.527,0,5.291-.008a2.337,2.337,0,0,1,1.547.525,1.973,1.973,0,0,1,.245.558,35.623,35.623,0,0,1,.008,6.852c-.08.836-.795,1.154-1.547,1.155-2.142,0-4.286.125-6.426-.075m5.067-4.509c0-1.48,0-1.48-1.482-1.48-1.566,0-1.566,0-1.566,1.571,0,1.475,0,1.475,1.482,1.475,1.566,0,1.566,0,1.566-1.566" transform="translate(-38.672 -35.802)" fill="#020506"/>
        <path id="Trazado_197112" data-name="Trazado 197112" d="M103.069,78.039c0-.915-.016-1.83,0-2.744.024-1.1.521-1.7,1.584-1.729,1.946-.054,3.894-.051,5.84,0a1.534,1.534,0,0,1,1.622,1.714q.042,2.832,0,5.665a1.529,1.529,0,0,1-1.648,1.687q-2.874.076-5.751,0c-1.14-.032-1.623-.605-1.646-1.756-.018-.944,0-1.889,0-2.833m4.513,1.571c1.527,0,1.527,0,1.527-1.524V78c0-1.426,0-1.426-1.45-1.426-1.569,0-1.569,0-1.569,1.571,0,1.467,0,1.467,1.492,1.467" transform="translate(-50.169 -35.791)" fill="#020405"/>
        <path id="Trazado_197113" data-name="Trazado 197113" d="M84.018,120.718c.944,0,1.888-.015,2.831,0,1.011.022,1.618.477,1.653,1.461.071,2.032.071,4.07,0,6.1a1.444,1.444,0,0,1-1.644,1.474q-2.876.03-5.752,0a1.446,1.446,0,0,1-1.619-1.5q-.1-3,0-6.014c.034-1.029.642-1.485,1.7-1.521.059,0,.118,0,.177,0h2.655m-.034,6.036c1.544,0,1.544,0,1.544-1.4,0-1.619,0-1.619-1.6-1.619-1.456,0-1.456,0-1.456,1.5,0,1.528,0,1.528,1.508,1.528" transform="translate(-38.671 -58.76)" fill="#010203"/>
        <path id="Trazado_197114" data-name="Trazado 197114" d="M103.314,58.49a2.587,2.587,0,0,1-.241-1.021c0-1.914-.016-3.828.008-5.742a1.5,1.5,0,0,1,1.629-1.673c2.119-.017,4.237.025,6.356.043a1.854,1.854,0,0,1,1.07,1.862c-.017,1.737,0,3.475-.008,5.212-.008,1.38-.547,1.917-1.927,1.925-1.767.009-3.533-.01-5.3.009a2.018,2.018,0,0,1-1.587-.615m4.272-5.43c-1.492,0-1.492,0-1.492,1.46v.088c0,1.47,0,1.47,1.476,1.47,1.543,0,1.543,0,1.543-1.5,0-1.519,0-1.519-1.526-1.519" transform="translate(-50.171 -24.363)" fill="#010102"/>
        <path id="Trazado_197115" data-name="Trazado 197115" d="M84,97.18c.944,0,1.888-.018,2.831.006a1.512,1.512,0,0,1,1.7,1.617q.074,2.875,0,5.752a1.556,1.556,0,0,1-1.75,1.681q-2.787.041-5.575,0a1.559,1.559,0,0,1-1.743-1.69q-.071-2.875,0-5.752c.029-1.072.62-1.564,1.705-1.613.059,0,.118,0,.177,0H84m1.52,4.516c0-1.51,0-1.51-1.53-1.51s-1.52,0-1.52,1.52,0,1.517,1.53,1.517,1.52,0,1.52-1.527" transform="translate(-38.661 -47.302)" fill="#010304"/>
        <path id="Trazado_197116" data-name="Trazado 197116" d="M103.073,125.242c0-.973-.022-1.947.007-2.919a1.467,1.467,0,0,1,1.6-1.6c1.916-.024,3.832-.021,5.748,0a1.494,1.494,0,0,1,1.676,1.547q.073,2.962,0,5.926a1.5,1.5,0,0,1-1.667,1.56q-2.874.032-5.748,0a1.5,1.5,0,0,1-1.618-1.595c0-.059,0-.118,0-.177q0-1.371,0-2.742m6.038.055c0-1.565,0-1.565-1.544-1.565-1.474,0-1.474,0-1.474,1.452,0,1.564,0,1.564,1.538,1.564,1.481,0,1.481,0,1.481-1.451" transform="translate(-50.17 -58.758)" fill="#010102"/>
        <path id="Trazado_197117" data-name="Trazado 197117" d="M64.968,125.248c0,.973.024,1.947-.007,2.919a1.476,1.476,0,0,1-1.617,1.589q-2.874.035-5.748,0a1.523,1.523,0,0,1-1.67-1.653q-.053-2.874,0-5.749a1.521,1.521,0,0,1,1.69-1.63q2.874-.03,5.748,0a1.475,1.475,0,0,1,1.6,1.6c.022.5.006,1,.007,1.5q0,.707,0,1.415Zm-4.606,1.5c1.594,0,1.594,0,1.594-1.6,0-1.421,0-1.421-1.419-1.421-1.6,0-1.6,0-1.6,1.6,0,1.419,0,1.419,1.426,1.419" transform="translate(-27.21 -58.758)" fill="#010102"/>
        <path id="Trazado_197118" data-name="Trazado 197118" d="M107.589,97.182c.944,0,1.888-.018,2.83.006a1.508,1.508,0,0,1,1.693,1.618q.055,2.874,0,5.75a1.537,1.537,0,0,1-1.661,1.676c-1.915.038-3.833.042-5.749,0a1.5,1.5,0,0,1-1.628-1.684c-.023-1.917-.025-3.834,0-5.751a1.474,1.474,0,0,1,1.593-1.612c.059,0,.118,0,.177,0h2.742m.026,6.04c1.493,0,1.493,0,1.493-1.468v-.088c0-1.469,0-1.469-1.489-1.469-1.532,0-1.532,0-1.532,1.506s0,1.52,1.528,1.52" transform="translate(-50.166 -47.303)" fill="#010202"/>
        <path id="Trazado_197119" data-name="Trazado 197119" d="M57.86,106.277c-1.528-.184-1.931-.628-1.934-2.151q-.005-2.471,0-4.942c.006-1.462.511-1.99,1.937-2,1.793-.012,3.587,0,5.381,0a1.573,1.573,0,0,1,1.736,1.293c0,1.884,0,3.768,0,5.653,0,1.62-.493,2.113-2.091,2.122l-5.031.03M60.48,100.2c-1.534,0-1.534,0-1.534,1.514v.088c0,1.423,0,1.423,1.45,1.423,1.572,0,1.572,0,1.572-1.565,0-1.461,0-1.461-1.488-1.461" transform="translate(-27.222 -47.304)" fill="#010202"/>
        <path id="Trazado_197120" data-name="Trazado 197120" d="M64.974,78.091c0,.944.017,1.889,0,2.833-.025,1.064-.491,1.655-1.52,1.685q-3.005.089-6.015,0a1.458,1.458,0,0,1-1.508-1.624q-.05-2.876,0-5.754a1.506,1.506,0,0,1,1.582-1.658c1.946-.053,3.894-.051,5.84,0a1.516,1.516,0,0,1,1.621,1.695c.023.944,0,1.888,0,2.832m-4.541-1.518c-1.5,0-1.5,0-1.5,1.468v.089c0,1.481,0,1.481,1.483,1.481,1.538,0,1.538,0,1.538-1.51,0-1.528,0-1.528-1.524-1.528" transform="translate(-27.211 -35.792)" fill="#020405"/>
        <path id="Trazado_197121" data-name="Trazado 197121" d="M83.943,35.569c-.914,0-1.829.015-2.743,0-1.088-.022-1.7-.52-1.728-1.592q-.088-2.918,0-5.84a1.5,1.5,0,0,1,1.7-1.609q2.831-.028,5.663,0c1.044.01,1.643.5,1.676,1.536q.094,2.962,0,5.928c-.032,1.067-.645,1.557-1.74,1.577-.943.017-1.888,0-2.831,0m1.578-4.545c0-1.491,0-1.491-1.459-1.491h-.177c-1.416,0-1.416,0-1.416,1.446,0,1.578,0,1.578,1.547,1.578,1.5,0,1.5,0,1.5-1.533" transform="translate(-38.664 -12.905)" fill="#010203"/>
        <path id="Trazado_197122" data-name="Trazado 197122" d="M84.018,59.077c-.974,0-1.947.021-2.92-.006s-1.546-.477-1.58-1.43q-.109-3.049-.016-6.1a1.454,1.454,0,0,1,1.625-1.506q2.875-.046,5.751,0a1.491,1.491,0,0,1,1.653,1.58c.055,1.975.057,3.954-.007,5.928-.033,1.039-.624,1.511-1.676,1.535-.943.021-1.887,0-2.831,0Zm.027-3.015c1.491,0,1.491,0,1.491-1.46,0-1.566,0-1.566-1.56-1.566-1.491,0-1.491,0-1.491,1.46,0,1.566,0,1.566,1.561,1.566" transform="translate(-38.68 -24.344)" fill="#010203"/>
        <path id="Trazado_197123" data-name="Trazado 197123" d="M60.477,26.527c.973,0,1.947-.023,2.919.006a1.438,1.438,0,0,1,1.56,1.544q.049,2.963,0,5.927A1.449,1.449,0,0,1,63.4,35.56c-1.945.032-3.891.029-5.837,0a1.506,1.506,0,0,1-1.633-1.6q-.062-2.918,0-5.838a1.523,1.523,0,0,1,1.718-1.6c.943-.017,1.887,0,2.83,0Zm-.012,6.03c1.489,0,1.489,0,1.489-1.526,0-1.491,0-1.491-1.522-1.491-1.5,0-1.5,0-1.5,1.524,0,1.492,0,1.492,1.529,1.492" transform="translate(-27.21 -12.909)" fill="#010102"/>
        <path id="Trazado_197124" data-name="Trazado 197124" d="M103.072,31.033c0-.973-.025-1.947.007-2.919a1.466,1.466,0,0,1,1.616-1.585q2.874-.034,5.749,0a1.491,1.491,0,0,1,1.664,1.555q.07,2.962,0,5.927a1.5,1.5,0,0,1-1.676,1.554q-2.83.032-5.66,0a1.531,1.531,0,0,1-1.7-1.7c0-.059,0-.118,0-.177q0-1.327,0-2.654Zm4.519-1.5c-1.5,0-1.5,0-1.5,1.513s0,1.5,1.512,1.5,1.507,0,1.507-1.515,0-1.5-1.518-1.5" transform="translate(-50.169 -12.906)" fill="#010102"/>
        <path id="Trazado_197125" data-name="Trazado 197125" d="M60.387,59.076c-.943,0-1.887.022-2.83-.006a1.493,1.493,0,0,1-1.628-1.592q-.058-2.918,0-5.838a1.507,1.507,0,0,1,1.634-1.6q2.918-.051,5.837,0A1.457,1.457,0,0,1,64.958,51.6q.045,2.963,0,5.927a1.433,1.433,0,0,1-1.563,1.54c-1,.031-2,.007-3.007.007m1.568-4.5c0-1.536,0-1.536-1.5-1.536h-.088c-1.426,0-1.426,0-1.426,1.443,0,1.576,0,1.576,1.556,1.576,1.463,0,1.463,0,1.463-1.483" transform="translate(-27.211 -24.344)" fill="#010102"/>
        <path id="Trazado_197126" data-name="Trazado 197126" d="M88.4,80.934c0,1.566,0,1.566-1.566,1.566-1.482,0-1.482,0-1.482-1.475,0-1.571,0-1.571,1.566-1.571,1.482,0,1.482,0,1.482,1.48" transform="translate(-41.549 -38.676)" fill="#7fc2cc"/>
        <path id="Trazado_197127" data-name="Trazado 197127" d="M110.453,82.5c-1.492,0-1.492,0-1.492-1.467,0-1.571,0-1.571,1.569-1.571,1.45,0,1.45,0,1.45,1.426v.088c0,1.524,0,1.524-1.527,1.524" transform="translate(-53.04 -38.68)" fill="#83c7d2"/>
        <path id="Trazado_197128" data-name="Trazado 197128" d="M86.861,129.616c-1.508,0-1.508,0-1.508-1.528,0-1.5,0-1.5,1.455-1.5,1.6,0,1.6,0,1.6,1.619,0,1.4,0,1.4-1.544,1.4" transform="translate(-41.548 -61.623)" fill="#7fc2cc"/>
        <path id="Trazado_197129" data-name="Trazado 197129" d="M110.455,55.914c1.526,0,1.526,0,1.526,1.519,0,1.5,0,1.5-1.543,1.5-1.476,0-1.476,0-1.476-1.47v-.088c0-1.46,0-1.46,1.492-1.46" transform="translate(-53.041 -27.218)" fill="#85cbd6"/>
        <path id="Trazado_197130" data-name="Trazado 197130" d="M88.4,104.553c0,1.527,0,1.527-1.52,1.527s-1.53,0-1.53-1.517,0-1.52,1.52-1.52,1.53,0,1.53,1.51" transform="translate(-41.548 -50.159)" fill="#7fc2cc"/>
        <path id="Trazado_197131" data-name="Trazado 197131" d="M111.981,128.165c0,1.451,0,1.451-1.481,1.451-1.538,0-1.538,0-1.538-1.564,0-1.452,0-1.452,1.474-1.452,1.544,0,1.544,0,1.544,1.565" transform="translate(-53.04 -61.626)" fill="#85cbd6"/>
        <path id="Trazado_197132" data-name="Trazado 197132" d="M63.242,129.617c-1.426,0-1.426,0-1.426-1.419,0-1.6,0-1.6,1.6-1.6,1.419,0,1.419,0,1.419,1.421,0,1.6,0,1.6-1.594,1.6" transform="translate(-30.091 -61.627)" fill="#85cbd6"/>
        <path id="Trazado_197133" data-name="Trazado 197133" d="M110.488,106.086c-1.528,0-1.528,0-1.528-1.52s0-1.506,1.532-1.506c1.489,0,1.489,0,1.489,1.469v.088c0,1.468,0,1.468-1.493,1.468" transform="translate(-53.039 -50.168)" fill="#83c7d2"/>
        <path id="Trazado_197134" data-name="Trazado 197134" d="M63.347,103.062c1.488,0,1.488,0,1.488,1.461,0,1.565,0,1.565-1.572,1.565-1.45,0-1.45,0-1.45-1.423v-.088c0-1.514,0-1.514,1.534-1.514" transform="translate(-30.089 -50.168)" fill="#83c7d2"/>
        <path id="Trazado_197135" data-name="Trazado 197135" d="M63.312,79.461c1.524,0,1.524,0,1.524,1.528,0,1.51,0,1.51-1.538,1.51-1.482,0-1.482,0-1.483-1.481v-.089c0-1.468,0-1.468,1.5-1.468" transform="translate(-30.09 -38.68)" fill="#83c7d2"/>
        <path id="Trazado_197136" data-name="Trazado 197136" d="M88.4,33.89c0,1.533,0,1.533-1.5,1.533-1.547,0-1.547,0-1.547-1.578,0-1.446,0-1.446,1.416-1.446h.177c1.459,0,1.459,0,1.459,1.491" transform="translate(-41.548 -15.771)" fill="#7fc2cc"/>
        <path id="Trazado_197137" data-name="Trazado 197137" d="M86.914,58.932c-1.561,0-1.561,0-1.561-1.566,0-1.46,0-1.46,1.491-1.46,1.56,0,1.56,0,1.56,1.566,0,1.46,0,1.46-1.491,1.46" transform="translate(-41.548 -27.214)" fill="#7fc2cc"/>
        <path id="Trazado_197138" data-name="Trazado 197138" d="M63.346,35.424c-1.529,0-1.529,0-1.529-1.492,0-1.524,0-1.524,1.5-1.524,1.522,0,1.522,0,1.522,1.491,0,1.526,0,1.526-1.489,1.526" transform="translate(-30.091 -15.775)" fill="#85cbd6"/>
        <path id="Trazado_197139" data-name="Trazado 197139" d="M110.464,32.407c1.518,0,1.518,0,1.518,1.5s0,1.515-1.507,1.515-1.512,0-1.512-1.5,0-1.513,1.5-1.513" transform="translate(-53.041 -15.775)" fill="#85cbd6"/>
        <path id="Trazado_197140" data-name="Trazado 197140" d="M64.836,57.449c0,1.483,0,1.483-1.463,1.483-1.556,0-1.556,0-1.556-1.576,0-1.443,0-1.443,1.426-1.443h.088c1.5,0,1.5,0,1.5,1.536" transform="translate(-30.091 -27.217)" fill="#85cbd6"/>
      </g>
    </g>
  </g>
</svg>
