<svg xmlns="http://www.w3.org/2000/svg" xmlns:xlink="http://www.w3.org/1999/xlink" width="117" height="117" viewBox="0 0 117 117">
  <defs>
    <clipPath id="clip-path">
      <rect id="Rect치ngulo_46094" data-name="Rect치ngulo 46094" width="84.656" height="84.725" fill="none"/>
    </clipPath>
  </defs>
  <g id="Grupo_154460" data-name="Grupo 154460" transform="translate(-425.321 -2215)">
    <rect id="Rect치ngulo_46091" data-name="Rect치ngulo 46091" width="117" height="117" transform="translate(425.321 2215)" fill="none"/>
    <g id="Grupo_154469" data-name="Grupo 154469" transform="translate(441.493 2231.138)">
      <g id="Grupo_154469-2" data-name="Grupo 154469" transform="translate(0 0)" clip-path="url(#clip-path)">
        <path id="Trazado_197015" data-name="Trazado 197015" d="M65.5,31.217a1.306,1.306,0,0,0,.125-.847q.005-3.982,0-7.964a2.4,2.4,0,0,1,.527-.023c.729.128.967-.142.906-.887a12.919,12.919,0,0,1,.118-2.548,16.914,16.914,0,1,1,18.809,18.8c-2.988.337-5.99.089-8.984.147-1.454.028-1.455,0-1.526,1.419l-2.585,0c.357-.56.169-.812-.434-1.055-2.064-.834-4.091-1.76-6.152-2.6a.908.908,0,0,1-.693-1.008,15.771,15.771,0,0,0-.11-3.424M92.43,16.74c0-1.44.025-2.881-.006-4.319a4.219,4.219,0,0,0-4.177-4.149c-.794-.018-1.587-.009-2.38,0-.291,0-.57-.006-.483-.4.22-1-.347-1.1-1.117-1.019a4.492,4.492,0,0,1-1.055,0c-.568-.077-.751.16-.653.683.12.646-.176.793-.772.748-.7-.052-1.409-.026-2.115-.009a4.209,4.209,0,0,0-4.16,4.163c-.033,2.85-.023,5.7,0,8.552a3.957,3.957,0,0,0,1.9,3.476.757.757,0,0,1,.373,1.047c-.688,2.332-1.337,4.677-2.033,7.007-.159.536-.18.855.487.972s1.446.646,1.914.429c.553-.256.461-1.242.7-1.893a1.661,1.661,0,0,0,.128-.42c.055-.617.357-.792.984-.782,2.526.042,5.056.074,7.579-.011.991-.033,1.342.3,1.565,1.22.5,2.073.549,2.04,2.605,1.46.561-.158.647-.387.492-.909-.695-2.331-1.349-4.672-2.035-7.005-.142-.482-.176-.787.365-1.125a3.972,3.972,0,0,0,1.89-3.483c.023-1.41.006-2.821.006-4.232" transform="translate(-19.081 -1.176)" fill="#fde5af"/>
        <path id="Trazado_197016" data-name="Trazado 197016" d="M31.983,39.309l-2.59,0a1.4,1.4,0,0,1-.023-.349c.16-.873-.164-1.118-1.063-1.093-2.526.071-5.054.053-7.581.016a16.928,16.928,0,1,1,17.1-17.008c.02,1.457.02,1.457,1.419,1.527q0,4.021,0,8.043c0,.257-.06.529.134.753a16.362,16.362,0,0,0-.12,3.488.864.864,0,0,1-.645.948c-2.074.855-4.12,1.779-6.2,2.621-.593.241-.792.492-.43,1.05m-16.7-7.054,5.625-.026h2.8l5.616.026c.352.328.722.05,1.073.013,1.823-.189,1.787-.195,1.554-2.023q-1.232-9.652-2.417-19.309c-.169-1.373-.142-1.375-1.467-1.269-.263.021-.528.028-.792.042L23.71,9.7h-2.8l-3.568.008a13.748,13.748,0,0,1-1.484-.142c-.45-.089-.612.013-.666.486-.222,1.949-.485,3.893-.731,5.839q-.986,7.842-1.968,15.686c-.022.179-.163.46.161.492a6.77,6.77,0,0,0,2.631.185" transform="translate(-1.16 -1.175)" fill="#a8e3cd"/>
        <path id="Trazado_197017" data-name="Trazado 197017" d="M30.8,65.746H33.56c.009.792.017,1.585.03,2.377,0,.25,0,.514-.351.442-1.127-.232-1.136.457-1.065,1.244a3.842,3.842,0,0,1,0,.879c-.084.59.157.724.722.717,2.114-.024,4.228.006,6.342.016v2.764a1.4,1.4,0,0,1-.349.024c-.874-.162-1.121.165-1.09,1.062.076,2.2.023,4.408.026,6.613a28.366,28.366,0,0,1-.219,4.924A16.921,16.921,0,1,1,20.982,67.163c2.763-.018,5.526,0,8.289,0,1.454,0,1.454,0,1.526-1.415m4.612,8.468c-2.254,0-4.421.009-6.588-.007-.4,0-.466.279-.594.534-.682,1.362-1.371,2.721-2.043,4.088a1.7,1.7,0,0,1-.971.959c-.981.332-1.264.089-1.092-.914.388-2.255.757-4.514,1.161-6.766.1-.572-.034-.744-.637-.731-1.762.041-3.526.049-5.287,0a1.037,1.037,0,0,0-1.115.72c-.967,2-2.088,3.944-2.94,5.995A2.505,2.505,0,0,1,12.448,79.9a4.109,4.109,0,0,0-4.254,4.207A4.208,4.208,0,0,0,12.4,88.315q8.11.035,16.219,0a3.965,3.965,0,0,0,3.914-2.863c1.011-3.7,1.908-7.431,2.873-11.237M20.8,93.966h9.341c2.047,0,2.015,0,2.054-2.025.013-.663-.159-.816-.816-.814-6.55.028-13.1.017-19.652.017-2.151,0-2.128,0-2.139,2.113,0,.577.151.726.725.721,3.5-.027,6.991-.013,10.486-.013" transform="translate(-1.152 -19.153)" fill="#fde5af"/>
        <path id="Trazado_197018" data-name="Trazado 197018" d="M65.67,74.184q0-1.382,0-2.765c1.643-.009,3.286-.024,4.93-.027,2.354,0,2.354,0,2.13-2.375a.519.519,0,0,1,0-.088c.021-.257-.095-.408-.354-.354-1.132.235-1.118-.471-1.062-1.251.038-.526.024-1.055.033-1.582h2.765a1.406,1.406,0,0,1,.024.35c-.16.873.164,1.114,1.062,1.093,2.849-.067,5.7-.017,8.551-.028a17.243,17.243,0,0,1,4.1.454,16.9,16.9,0,0,1,12.918,18.847c-1.1,9.243-10.52,16.1-19.648,14.31A16.921,16.921,0,0,1,67.089,83.733q-.006-4.011,0-8.022c0-1.456,0-1.456-1.418-1.527M78.44,72.8H76.147c-2.022,0-2,0-2.022,2.062-.008.609.136.879.764.76.551-.1.712.13.675.671-.048.7,0,1.41-.016,2.115-.023.788.315,1.767-.136,2.308-.407.488-1.371.54-2.1.716-.465.111-.583.33-.588.787a14.038,14.038,0,0,0,1.547,6.708c.529,1.023.469,1.539-.629,1.914-.949.325-.977.863-.911,1.614a3.693,3.693,0,0,1,0,.88c-.1.617.225.678.709.6a5.806,5.806,0,0,0,3.212-1.863c1.291-1.281,2.158-1.273,3.456-.007a6,6,0,0,0,2.526,1.7,5.087,5.087,0,0,0,5.312-1.694c1.264-1.3,2.151-1.275,3.452-.006a6.341,6.341,0,0,0,2.441,1.681c1.377.441,1.473.373,1.473-1.031a4.353,4.353,0,0,1,0-.441c.071-.675-.016-1.111-.836-1.385-1.109-.372-1.23-.959-.705-1.967a13.477,13.477,0,0,0,1.521-5.65c.079-1.653.061-1.654-1.488-2.105a6.256,6.256,0,0,0-.845-.236c-.368-.052-.48-.231-.476-.59.015-1.41.009-2.821,0-4.232,0-.287,0-.575.4-.489,1.006.219,1.1-.349,1.02-1.12a4.423,4.423,0,0,1,0-1.056c.079-.578-.177-.67-.692-.663-2.116.028-4.232.011-6.348.011-1.434,0-1.434,0-1.434-1.4,0-1.422,0-1.422-1.411-1.422s-1.41,0-1.41,1.422a6.038,6.038,0,0,0,.006.793c.071.526-.171.629-.646.617-1.175-.03-2.351-.01-3.526-.01" transform="translate(-19.131 -19.152)" fill="#a8e3cd"/>
        <path id="Trazado_197019" data-name="Trazado 197019" d="M64.813,56.456c-.009.527,0,1.057-.033,1.582-.056.78-.071,1.485,1.062,1.25.259-.053.374.1.354.355a.519.519,0,0,0,0,.088c.224,2.373.224,2.37-2.13,2.375-1.643,0-3.287.018-4.93.027H50.68c-2.114-.01-4.229-.04-6.343-.016-.564.006-.806-.128-.721-.717a3.882,3.882,0,0,0,0-.879c-.071-.787-.062-1.476,1.064-1.244.348.072.356-.191.352-.442-.013-.792-.021-1.585-.03-2.377.01-1.667.03-3.333.024-5,0-.7-.5-1.228-.763-1.835-.244-.558-.561-1.084-.846-1.625-.362-.559-.163-.81.43-1.05,2.079-.843,4.124-1.767,6.2-2.621a.864.864,0,0,0,.645-.948,16.362,16.362,0,0,1,.12-3.488,4.136,4.136,0,0,1,2.2-2.71.728.728,0,0,0,.493-.792c-.029-.644.025-1.293-.018-1.936-.032-.48.15-.568.592-.577,2.238-.046,2.269-.059,2.22,2.176a1.188,1.188,0,0,0,.746,1.269,4.013,4.013,0,0,1,1.967,2.586,15.727,15.727,0,0,1,.111,3.424.908.908,0,0,0,.693,1.008c2.062.841,4.088,1.767,6.153,2.6.6.243.791.5.434,1.055-.492.96-.977,1.922-1.48,2.876a1.365,1.365,0,0,0-.14.673q.017,2.456.029,4.912m-14.165,0c.009-.675.026-1.349.027-2.025,0-2.317,0-2.3-2.291-2.216-.42.016-.55.118-.538.542.035,1.232.028,2.466.038,3.7-.009.793-.006,1.586-.034,2.378-.012.341.106.429.446.459,2.39.208,2.389.218,2.38-2.133,0-.234-.018-.468-.028-.7m11.287,0c.009-.675.026-1.349.027-2.023,0-2.315,0-2.3-2.291-2.215-.419.016-.551.117-.539.541.035,1.232.028,2.464.038,3.7-.009.792-.007,1.585-.033,2.377-.011.338.1.431.446.461,2.389.218,2.389.227,2.38-2.135,0-.235-.018-.468-.027-.7m-7.022-7.047c2.349,0,4.7,0,7.045,0,.354,0,.635-.043.746-.44.133-.47-.288-.455-.509-.551-2.23-.972-4.473-1.913-6.7-2.889a1.324,1.324,0,0,0-1.165.006c-2.2.963-4.416,1.9-6.616,2.862-.24.106-.719.058-.594.577.113.466.475.434.836.433q3.478-.006,6.957,0m1.407,6.406V54.4c0-2.244,0-2.221-2.234-2.191-.546.007-.6.21-.6.665.025,1.41.009,2.821.009,4.23,0,2.244,0,2.221,2.235,2.191.546-.008.609-.212.6-.666-.03-.939-.009-1.879-.009-2.82M53.509,42.65c.376.111.615-.1.877-.21a1.238,1.238,0,0,1,.845-.094c.344.1.72.556,1,.245.195-.214.068-.725.078-1.1a4.789,4.789,0,0,0-.009-.614,1.4,1.4,0,0,0-1.373-1.332,1.386,1.386,0,0,0-1.415,1.376c-.034.58-.006,1.164-.006,1.731" transform="translate(-12.596 -9.866)" fill="#010101"/>
        <path id="Trazado_197020" data-name="Trazado 197020" d="M29.645,65.158c-.072,1.415-.072,1.415-1.526,1.415-2.762,0-5.526-.015-8.288,0A16.923,16.923,0,1,0,36.45,86.22a28.235,28.235,0,0,0,.219-4.925c0-2.2.051-4.411-.025-6.613-.031-.9.215-1.223,1.089-1.062a1.406,1.406,0,0,0,.35-.024c1.408.072,1.408.072,1.408,1.526q0,4.054,0,8.109A19.754,19.754,0,1,1,16.76,63.964a42.212,42.212,0,0,1,6.335-.213c1.851-.012,3.7.042,5.553-.023.8-.028,1.113.195.974.991a1.952,1.952,0,0,0,.024.438" transform="translate(0 -18.565)" fill="#030303"/>
        <path id="Trazado_197021" data-name="Trazado 197021" d="M65.083,73.605c1.417.071,1.417.071,1.417,1.526q0,4.012,0,8.023a16.921,16.921,0,0,0,14.034,17.032c9.128,1.794,18.548-5.066,19.648-14.31A16.9,16.9,0,0,0,87.266,67.03a17.242,17.242,0,0,0-4.1-.453c-2.85.011-5.7-.04-8.551.028-.9.021-1.223-.22-1.063-1.093a1.4,1.4,0,0,0-.023-.35c.07-1.405.07-1.405,1.528-1.405,2.791,0,5.582-.009,8.373,0A19.752,19.752,0,1,1,63.894,86.491a41.734,41.734,0,0,1-.213-6.334c-.013-1.851.04-3.7-.023-5.552-.027-.8.186-1.12.988-.977a1.911,1.911,0,0,0,.438-.023" transform="translate(-18.544 -18.573)" fill="#030303"/>
        <path id="Trazado_197022" data-name="Trazado 197022" d="M74.945,38.145c.072-1.415.073-1.392,1.526-1.419,2.995-.058,6,.191,8.985-.147a16.915,16.915,0,1,0-18.809-18.8,12.919,12.919,0,0,0-.118,2.548c.061.746-.178,1.015-.907.887a2.442,2.442,0,0,0-.526.023c-1.415-.072-1.415-.072-1.408-1.526A19.742,19.742,0,1,1,86.418,39.333a53.31,53.31,0,0,1-7.568.218c-1,.016-2-.052-3,.021-.739.053-1.018-.167-.887-.9a2.354,2.354,0,0,0-.023-.526" transform="translate(-18.553 -0.011)" fill="#030303"/>
        <path id="Trazado_197023" data-name="Trazado 197023" d="M38.093,21.23c-1.4-.07-1.4-.07-1.418-1.526a16.918,16.918,0,1,0-17.1,17.007c2.526.038,5.056.055,7.581-.016.9-.026,1.223.22,1.063,1.093a1.4,1.4,0,0,0,.023.35c-.07,1.405-.07,1.428-1.528,1.4-3.111-.059-6.227.169-9.334-.152A19.747,19.747,0,1,1,39.152,16.113a29.317,29.317,0,0,1,.367,4.205c.02.73-.162,1.023-.9.889a2.353,2.353,0,0,0-.526.022" transform="translate(-0.006 0)" fill="#030303"/>
        <path id="Trazado_197024" data-name="Trazado 197024" d="M96.538,17.888c0,1.411.018,2.822,0,4.232a3.976,3.976,0,0,1-1.89,3.483c-.541.339-.507.644-.366,1.125.686,2.333,1.342,4.675,2.036,7.005.155.522.068.75-.492.909-2.057.58-2.1.614-2.606-1.46-.223-.918-.573-1.254-1.563-1.22-2.524.085-5.054.053-7.581.011-.626-.01-.929.165-.983.782a1.722,1.722,0,0,1-.128.42c-.239.652-.147,1.637-.7,1.893-.469.217-1.254-.313-1.915-.429s-.647-.436-.487-.972c.7-2.33,1.344-4.674,2.033-7.007a.757.757,0,0,0-.373-1.047,3.959,3.959,0,0,1-1.9-3.477c-.021-2.85-.031-5.7,0-8.551A4.211,4.211,0,0,1,83.779,9.42c.7-.017,1.413-.044,2.115.009.6.044.892-.1.771-.749-.1-.523.086-.76.653-.683a4.542,4.542,0,0,0,1.057,0c.77-.079,1.337.013,1.116,1.018-.087.4.193.4.483.4.793-.009,1.587-.017,2.38,0a4.218,4.218,0,0,1,4.177,4.149c.032,1.439.006,2.879.006,4.319m-8.468-.007c1.674,0,3.349-.018,5.022.011.5.009.653-.132.637-.634-.035-1.145,0-2.291-.015-3.436a1.417,1.417,0,0,0-1.582-1.58q-4.053-.02-8.106,0a1.414,1.414,0,0,0-1.59,1.569c-.018,1.116.026,2.233-.017,3.348-.021.563.125.751.717.736,1.643-.043,3.288-.015,4.933-.015m0,5.644h3.524c1.771,0,2.2-.477,2.135-2.283-.015-.413-.112-.55-.541-.548-3.407.016-6.814.007-10.221.013-.184,0-.4-.089-.527.174a1.87,1.87,0,0,0,1.665,2.64c1.322.013,2.643,0,3.965,0m-3.945,5.616h7.9c-.243-.857-.483-1.664-.7-2.478-.08-.3-.272-.319-.523-.318q-2.728.009-5.455,0c-.25,0-.444.013-.524.316-.215.814-.454,1.622-.7,2.48" transform="translate(-23.188 -2.324)" fill="#020101"/>
        <path id="Trazado_197025" data-name="Trazado 197025" d="M28.357,12.031l3.567.008c-.581.087-.736.334-.652.982.93,7.185,1.809,14.375,2.7,21.564l-5.616-.026c0-1.174.009-2.348.01-3.521,0-2.21,0-2.193-2.247-2.112-.477.017-.588.172-.582.614.024,1.673.015,3.346.018,5.019l-5.624.026c.89-7.213,1.765-14.429,2.7-21.636.086-.668-.15-.8-.643-.91l3.568-.008c0,1.174-.01,2.349-.011,3.522,0,2.21,0,2.193,2.247,2.112.477-.017.588-.172.582-.614-.024-1.673-.015-3.346-.018-5.02m.011,11.306v-.792c0-2.144,0-2.127-2.183-2.084-.488.009-.669.125-.649.636.038.967.011,1.935.011,2.9,0,2.212,0,2.2,2.228,2.127.448-.014.626-.118.6-.592-.036-.731-.009-1.466-.009-2.2" transform="translate(-5.807 -3.505)" fill="#31c091"/>
        <path id="Trazado_197026" data-name="Trazado 197026" d="M38.626,34.554c-.893-7.189-1.772-14.38-2.7-21.564-.084-.649.071-.9.653-.982.264-.013.528-.021.792-.042,1.325-.106,1.3-.1,1.467,1.269q1.192,9.656,2.417,19.309c.233,1.827.268,1.833-1.555,2.023-.35.037-.721.315-1.072-.013" transform="translate(-10.459 -3.474)" fill="#030303"/>
        <path id="Trazado_197027" data-name="Trazado 197027" d="M20.821,11.972c.493.106.729.242.643.91-.935,7.208-1.809,14.423-2.7,21.637a6.782,6.782,0,0,1-2.631-.186c-.324-.031-.183-.313-.161-.492Q16.951,26,17.94,18.155c.245-1.946.509-3.89.731-5.839.054-.473.216-.575.666-.485a13.93,13.93,0,0,0,1.484.141" transform="translate(-4.638 -3.438)" fill="#030303"/>
        <path id="Trazado_197028" data-name="Trazado 197028" d="M30.665,12.031c0,1.673-.006,3.346.018,5.019.006.443-.1.6-.582.614-2.249.081-2.249.1-2.247-2.111,0-1.174.006-2.349.01-3.522h2.8" transform="translate(-8.114 -3.505)" fill="#010101"/>
        <path id="Trazado_197029" data-name="Trazado 197029" d="M27.861,41.493c0-1.673.006-3.346-.018-5.019-.006-.443.1-.6.582-.614,2.249-.081,2.249-.1,2.247,2.111,0,1.174-.006,2.349-.01,3.522h-2.8" transform="translate(-8.111 -10.439)" fill="#010101"/>
        <path id="Trazado_197030" data-name="Trazado 197030" d="M37.152,76.528c-.965,3.806-1.862,7.537-2.872,11.236a3.967,3.967,0,0,1-3.914,2.864q-8.11.029-16.219,0a4.208,4.208,0,0,1-4.207-4.205,4.11,4.11,0,0,1,4.253-4.208A2.505,2.505,0,0,0,17.045,80.4c.853-2.051,1.974-3.99,2.941-6a1.036,1.036,0,0,1,1.114-.719c1.762.052,3.526.045,5.288,0,.6-.014.739.159.636.731-.4,2.252-.772,4.511-1.16,6.765-.173,1,.111,1.247,1.091.915a1.7,1.7,0,0,0,.971-.96c.673-1.366,1.361-2.726,2.043-4.088.128-.254.193-.536.594-.534,2.167.015,4.334.007,6.588.007m-3.643,2.9c-1.05-.259-1.767-.094-2.1,1.008a14.449,14.449,0,0,1-.845,1.736,4.5,4.5,0,0,1-4.533,2.829c-3.906-.044-7.812-.019-11.717-.007a1.41,1.41,0,1,0-.035,2.809q7.973.018,15.946,0a1.316,1.316,0,0,0,1.4-.982c.648-2.46,1.256-4.931,1.88-7.4M19.276,82.17c1.063,0,1.995-.035,2.923.013.534.028.707-.176.78-.668.2-1.357.462-2.705.653-4.064.04-.288.344-.832-.107-.871-.524-.045-1.238-.433-1.631.356-.842,1.7-1.694,3.388-2.618,5.232" transform="translate(-2.895 -21.466)" fill="#020201"/>
        <path id="Trazado_197031" data-name="Trazado 197031" d="M23.117,104.4c-3.5,0-6.991-.013-10.486.013-.574,0-.728-.145-.725-.721.011-2.113-.012-2.113,2.139-2.113,6.551,0,13.1.011,19.652-.017.657,0,.828.151.816.814-.039,2.024-.007,2.025-2.054,2.025H23.117" transform="translate(-3.468 -29.587)" fill="#010101"/>
        <path id="Trazado_197032" data-name="Trazado 197032" d="M81.331,74.545c1.175,0,2.351-.021,3.526.01.475.012.716-.091.646-.617a5.9,5.9,0,0,1-.006-.792c0-1.422,0-1.422,1.411-1.422s1.411,0,1.411,1.422c0,1.4,0,1.4,1.434,1.4,2.116,0,4.232.016,6.348-.012.515-.006.772.086.692.664a4.5,4.5,0,0,0,0,1.056c.079.77-.013,1.338-1.02,1.12-.4-.086-.4.2-.4.488.006,1.411.011,2.822,0,4.232,0,.359.108.537.476.59a6.356,6.356,0,0,1,.845.235c1.549.451,1.567.453,1.488,2.106a13.487,13.487,0,0,1-1.521,5.649c-.526,1.009-.4,1.6.7,1.967.819.275.907.712.836,1.386a4.143,4.143,0,0,0,0,.44c0,1.405-.1,1.473-1.474,1.031a6.336,6.336,0,0,1-2.44-1.68c-1.3-1.269-2.188-1.3-3.453.006a5.087,5.087,0,0,1-5.311,1.693,5.991,5.991,0,0,1-2.526-1.7c-1.3-1.266-2.166-1.274-3.456.008a5.805,5.805,0,0,1-3.213,1.863c-.483.074-.805.013-.709-.605a3.693,3.693,0,0,0,0-.88c-.066-.751-.038-1.29.911-1.614,1.1-.376,1.158-.891.629-1.915a14.028,14.028,0,0,1-1.547-6.708c0-.456.123-.675.587-.787.734-.176,1.7-.229,2.1-.717.451-.54.114-1.52.137-2.307.021-.705-.032-1.413.016-2.115.038-.541-.124-.775-.675-.67-.628.118-.772-.152-.764-.761.026-2.061,0-2.061,2.022-2.061h2.293m5.545,2.823c-1.672,0-3.344.013-5.017-.009-.459-.006-.616.134-.6.6.03,1,.047,2,0,2.991-.038.727.265.746.827.578,1.373-.412,2.761-.777,4.134-1.193a2.221,2.221,0,0,1,1.368-.016c1.427.437,2.872.816,4.3,1.239.482.142.7.069.676-.5-.035-1-.047-2,0-2.991.031-.614-.218-.722-.76-.712-1.642.03-3.285.011-4.929.011m1.445,14.964c1.458-1.684,3.031-2.515,5.054-2.22a.512.512,0,0,0,.557-.327,10.731,10.731,0,0,0,1.3-3.712c.06-.417-.021-.648-.466-.772-1.975-.547-3.943-1.118-5.911-1.692-.354-.1-.541-.084-.54.364.012,2.694.006,5.387.006,8.36m-2.823-.1c0-2.853-.011-5.518.009-8.182,0-.544-.178-.541-.62-.41q-2.9.862-5.821,1.655c-.42.116-.561.288-.492.738a11.574,11.574,0,0,0,1.155,3.482.867.867,0,0,0,1.016.575,4.687,4.687,0,0,1,4.049,1.5c.18.183.378.348.7.646" transform="translate(-22.023 -20.894)" fill="#010201"/>
        <path id="Trazado_197033" data-name="Trazado 197033" d="M56.5,54.15q-3.478,0-6.957,0c-.361,0-.723.033-.836-.433-.125-.518.354-.471.594-.577,2.2-.967,4.414-1.9,6.616-2.862a1.327,1.327,0,0,1,1.165-.007c2.227.977,4.471,1.918,6.7,2.889.221.1.641.082.509.551-.111.4-.393.442-.746.44-2.349-.009-4.7,0-7.045,0" transform="translate(-14.183 -14.607)" fill="#5a79c0"/>
        <path id="Trazado_197034" data-name="Trazado 197034" d="M49.778,65.746h2.764c.01.235.027.468.028.7.009,2.35.009,2.341-2.38,2.132-.34-.029-.458-.118-.446-.458.028-.792.025-1.585.035-2.378" transform="translate(-14.491 -19.153)" fill="#fde5af"/>
        <path id="Trazado_197035" data-name="Trazado 197035" d="M65.7,65.742h2.765c.009.235.026.468.027.7.009,2.362.009,2.353-2.38,2.135-.341-.03-.457-.123-.446-.461.026-.792.024-1.585.033-2.377" transform="translate(-19.131 -19.152)" fill="#a8e3cd"/>
        <path id="Trazado_197036" data-name="Trazado 197036" d="M57.727,44.985c0-.568-.028-1.151.006-1.731a1.386,1.386,0,0,1,1.415-1.376,1.4,1.4,0,0,1,1.373,1.332,4.789,4.789,0,0,1,.009.614c-.01.378.117.889-.078,1.1-.283.31-.658-.149-1-.245a1.238,1.238,0,0,0-.845.094c-.262.106-.5.321-.877.21" transform="translate(-16.814 -12.2)" fill="#5a79c0"/>
        <path id="Trazado_197037" data-name="Trazado 197037" d="M89.229,19.63c-1.645,0-3.29-.028-4.934.015-.592.015-.738-.173-.716-.736.043-1.114,0-2.232.017-3.347a1.414,1.414,0,0,1,1.59-1.569q4.053-.02,8.106,0a1.417,1.417,0,0,1,1.582,1.579c.018,1.145-.021,2.292.015,3.436.016.5-.141.643-.637.634-1.673-.029-3.348-.011-5.022-.011" transform="translate(-24.347 -4.073)" fill="#fdc442"/>
        <path id="Trazado_197038" data-name="Trazado 197038" d="M89.168,28.752c-1.322,0-2.643.01-3.965,0a1.871,1.871,0,0,1-1.665-2.64c.125-.263.343-.174.527-.174,3.407-.006,6.815,0,10.221-.013.429,0,.527.135.541.548.064,1.806-.364,2.282-2.135,2.283H89.168" transform="translate(-24.286 -7.551)" fill="#fccf67"/>
        <path id="Trazado_197039" data-name="Trazado 197039" d="M85.987,36.69c.244-.858.483-1.666.7-2.48.08-.3.274-.317.524-.316q2.728.009,5.455,0c.251,0,.443.015.523.318.214.814.454,1.621.7,2.478Z" transform="translate(-25.05 -9.874)" fill="#fde5af"/>
        <path id="Trazado_197040" data-name="Trazado 197040" d="M30.67,26.8c0,.733-.027,1.468.009,2.2.023.474-.155.578-.6.592-2.228.072-2.227.086-2.227-2.127,0-.968.027-1.937-.011-2.9-.02-.511.162-.627.649-.636,2.184-.044,2.183-.06,2.183,2.084V26.8" transform="translate(-8.109 -6.966)" fill="#010101"/>
        <path id="Trazado_197041" data-name="Trazado 197041" d="M34.669,81.749c-.623,2.466-1.231,4.937-1.879,7.4a1.318,1.318,0,0,1-1.4.983q-7.973,0-15.946,0a1.41,1.41,0,1,1,.035-2.808c3.906-.013,7.812-.038,11.717.006a4.5,4.5,0,0,0,4.533-2.829,14.344,14.344,0,0,0,.845-1.736c.331-1.1,1.048-1.267,2.1-1.008" transform="translate(-4.057 -23.784)" fill="#fccf67"/>
        <path id="Trazado_197042" data-name="Trazado 197042" d="M23.114,83.305c.923-1.844,1.776-3.536,2.618-5.232.393-.789,1.106-.4,1.631-.356.451.039.147.583.107.871-.191,1.359-.454,2.706-.653,4.064-.073.491-.245.7-.78.668-.928-.049-1.86-.013-2.923-.013" transform="translate(-6.734 -22.601)" fill="#fdc442"/>
        <path id="Trazado_197043" data-name="Trazado 197043" d="M89.2,79.682c1.643,0,3.286.019,4.929-.011.542-.01.792.1.76.712-.052.995-.039,1.995,0,2.991.02.564-.194.638-.675.5-1.432-.422-2.877-.8-4.3-1.239a2.218,2.218,0,0,0-1.368.016c-1.372.416-2.76.78-4.133,1.193-.562.169-.865.149-.828-.578.052-.995.034-1.995,0-2.992-.014-.464.144-.6.6-.6,1.672.023,3.344.008,5.017.008" transform="translate(-24.347 -23.21)" fill="#00b177"/>
        <path id="Trazado_197044" data-name="Trazado 197044" d="M93.55,97.2c0-2.972.006-5.665-.006-8.359,0-.448.185-.467.54-.364,1.967.573,3.936,1.145,5.91,1.692.444.123.527.354.466.771a10.731,10.731,0,0,1-1.3,3.712.51.51,0,0,1-.557.327c-2.022-.3-3.6.536-5.054,2.22" transform="translate(-27.251 -25.759)" fill="#31c091"/>
        <path id="Trazado_197045" data-name="Trazado 197045" d="M86.715,97.107c-.327-.3-.524-.463-.7-.646a4.687,4.687,0,0,0-4.049-1.5.867.867,0,0,1-1.016-.575,11.574,11.574,0,0,1-1.155-3.482c-.069-.449.072-.622.492-.738q2.919-.8,5.821-1.655c.442-.132.624-.134.62.41-.021,2.665-.009,5.329-.009,8.182" transform="translate(-23.24 -25.765)" fill="#6fd4af"/>
      </g>
    </g>
  </g>
</svg>
