<svg xmlns="http://www.w3.org/2000/svg" xmlns:xlink="http://www.w3.org/1999/xlink" width="117" height="117" viewBox="0 0 117 117">
  <defs>
    <clipPath id="clip-path">
      <rect id="Rect치ngulo_46090" data-name="Rect치ngulo 46090" width="95.968" height="96.008" fill="none"/>
    </clipPath>
  </defs>
  <g id="Grupo_154453" data-name="Grupo 154453" transform="translate(-425.321 -2215)">
    <rect id="Rect치ngulo_46091" data-name="Rect치ngulo 46091" width="117" height="117" transform="translate(425.321 2215)" fill="none"/>
    <g id="Grupo_154454" data-name="Grupo 154454" transform="translate(435.837 2225.496)">
      <g id="Grupo_154449" data-name="Grupo 154449" transform="translate(0 0)" clip-path="url(#clip-path)">
        <path id="Trazado_196966" data-name="Trazado 196966" d="M66.469,5.774c.973.805,2.256,1.01,3.289,1.7.147.584-.353.818-.659,1.113a.781.781,0,0,0,0,1.33c.982.944,1.94,1.915,2.894,2.887.859.874.856.985.044,1.866-1.036,1.124-1.039,1.711.031,2.8,1.306,1.327,2.6,2.667,3.954,3.945A7.448,7.448,0,0,0,83.8,23.429c.377-.119.768-.272,1.134.048A26.725,26.725,0,0,1,87.392,30a43.93,43.93,0,0,1,1.647,14.925,46.754,46.754,0,0,1-31.1,41.565,45.011,45.011,0,0,1-11.593,2.458A46.8,46.8,0,0,1,28.5,87c-.224-.069-.458-.083-.681-.152a11.124,11.124,0,0,1-2.632-2.412.692.692,0,0,1,0-.993c.206-.264.455-.487.664-.747a1.386,1.386,0,0,0,.017-2.064,51.138,51.138,0,0,0-5.119-5.046,7.136,7.136,0,0,0-7.155-1.225c-1.533.541-1.55.516-2.426-.805A43.164,43.164,0,0,1,4,53.637a44.514,44.514,0,0,1,9.931-33.279,44.1,44.1,0,0,1,13.3-11.025A44.8,44.8,0,0,1,43.876,4.058,44.317,44.317,0,0,1,64.125,6.464c1.25.448,1.244.461,2.082-.559a.437.437,0,0,1,.262-.13" transform="translate(-0.826 -0.828)" fill="#fedd55"/>
        <path id="Trazado_196967" data-name="Trazado 196967" d="M34.592,92.032c1.123.285,2.247.566,3.368.856a43.768,43.768,0,0,0,13.718,1.34,46.468,46.468,0,0,0,41.44-31.4,45.188,45.188,0,0,0,2.275-11.068,46.217,46.217,0,0,0-3.811-22.724.988.988,0,0,1-.041-.194c.189-.536.524-.527.92-.238a2.576,2.576,0,0,1,.57.69,44.776,44.776,0,0,1,2.976,44.818A45.1,45.1,0,0,1,60.2,99.082,43.944,43.944,0,0,1,40.82,96.842c-1.07-.371-2.078-.942-2.889.377l-3.314-1.57c-.2-.41.151-.6.361-.808.949-.921,1.048-.978-.036-2-.212-.2-.566-.4-.35-.81" transform="translate(-7.589 -6.245)" fill="#eabe00"/>
        <path id="Trazado_196968" data-name="Trazado 196968" d="M27,85.787c.425.715,1.573,1.108,1.512,1.847-.051.626-.958,1.183-1.487,1.771-.382.435-.692.411-1.077-.051a15.61,15.61,0,0,0-1.351-1.3,16.411,16.411,0,0,1-1.921-1.727,1,1,0,0,0-1.315-.313c-1.745,1.514-1.745,1.514-.19,3.07.849.849,1.678,1.717,2.553,2.537.388.363.513.609.033.991-.646.514-1.11,1.6-1.82,1.569-.594-.023-1.159-.983-1.724-1.54-.761-.747-1.532-1.487-2.256-2.269-.373-.4-.6-.435-1.019-.026-1.592,1.548-2.018,1.523-3.6-.059-1.251-1.248-2.513-2.484-3.746-3.748A7.8,7.8,0,0,1,8.574,76.42c.342-.52.193-.8-.089-1.2A46.109,46.109,0,0,1,.264,53.123a46.929,46.929,0,0,1,10.3-35.078A46.926,46.926,0,0,1,41.459.485,47.175,47.175,0,0,1,64.835,3.068c1.343.494,1.339.5.809,1.877-.664,1.6-.664,1.6-2.14,1.062A44.741,44.741,0,0,0,4.161,38.935c-2.546,12.228-.211,23.59,6.632,34.035.408.623.694.783,1.464.476a7.528,7.528,0,0,1,8.41,1.591c1.543,1.42,2.99,2.946,4.466,4.438a1.649,1.649,0,0,1,.02,2.683c-.91.953-.914.958.048,1.907.592.583,1.2,1.148,1.8,1.722" transform="translate(0 0)"/>
        <path id="Trazado_196969" data-name="Trazado 196969" d="M38.8,91.551c.684-1.45.684-1.45,2.242-.887a44.73,44.73,0,0,0,59.068-32.3c2.816-12.5.5-24.166-6.608-34.856-.272-.409-.5-.956-1.092-.335a7.805,7.805,0,0,1-7.593-.755,48.433,48.433,0,0,1-5.871-5.663c-.647-.658-.47-1.583.409-2.351.724-.635.821-1.045.024-1.731-1.13-.974-2.117-2.11-3.2-3.144-.391-.375-.48-.63-.026-1.022A17.637,17.637,0,0,0,77.39,7.222c.372-.4.674-.44,1.074.036a19.167,19.167,0,0,0,1.552,1.5,13.638,13.638,0,0,1,1.74,1.551.966.966,0,0,0,1.288.307C84.8,9.09,84.8,9.09,83.188,7.474c-.849-.847-1.677-1.717-2.556-2.532-.392-.365-.337-.562.009-.921,1.774-1.84,1.763-1.851,3.547-.066.777.777,1.578,1.533,2.323,2.34.366.4.619.4.939-.009a4.691,4.691,0,0,1,.492-.5,1.619,1.619,0,0,1,2.543-.041c1.572,1.536,3.153,3.068,4.655,4.673a7.76,7.76,0,0,1,.829,9.587,1.143,1.143,0,0,0,.049,1.539,47.044,47.044,0,0,1,8.377,28.8,48.025,48.025,0,0,1-64.565,43.28c-1.572-.572-1.573-.57-1.032-2.074" transform="translate(-8.457 -0.578)"/>
        <path id="Trazado_196970" data-name="Trazado 196970" d="M27.384,110.109c.332-.62.674-.7,1.177-.122.649.752,1.368,1.444,2.058,2.162a21.205,21.205,0,0,1-3.235-2.039" transform="translate(-6.02 -24.091)" fill="#dfb707"/>
        <path id="Trazado_196971" data-name="Trazado 196971" d="M94.749,12.341c-.321.605-.656.7-1.148.126-.591-.692-1.25-1.326-1.879-1.985a16.693,16.693,0,0,1,3.028,1.858" transform="translate(-20.162 -2.304)" fill="#f1d355"/>
        <path id="Trazado_196972" data-name="Trazado 196972" d="M52.824,83.378a30.392,30.392,0,1,1,30.5-30.053,30.4,30.4,0,0,1-30.5,30.053" transform="translate(-4.955 -4.967)"/>
        <path id="Trazado_196973" data-name="Trazado 196973" d="M13.247,102.194a4.577,4.577,0,0,1,2.779-4.365,4.523,4.523,0,0,1,5.2.786c1.116,1,2.119,2.121,3.2,3.153.414.393.29.619-.051.957-1.943,1.92-3.879,3.847-5.788,5.8-.406.416-.638.392-1.023-.015-.96-1.017-1.978-1.979-2.952-2.983a4.6,4.6,0,0,1-1.37-3.334" transform="translate(-2.912 -21.397)" fill="#57a3fe"/>
        <path id="Trazado_196974" data-name="Trazado 196974" d="M106.522,17.676a4.583,4.583,0,0,1-2.788,4.359,4.527,4.527,0,0,1-5.2-.794c-1.116-1-2.124-2.114-3.2-3.156-.339-.327-.355-.542-.008-.885q2.989-2.947,5.936-5.936c.349-.354.548-.321.875.02,1.013,1.059,2.077,2.07,3.089,3.129a4.545,4.545,0,0,1,1.3,3.263" transform="translate(-20.898 -2.421)" fill="#57a3fe"/>
        <path id="Trazado_196975" data-name="Trazado 196975" d="M36.635,74.874A25.9,25.9,0,0,1,27.7,61.392,27.167,27.167,0,0,1,48.9,27.146a26.635,26.635,0,0,1,21.057,4.862c.241.173.455.385.681.578A25.571,25.571,0,0,1,74.67,44.059a27.756,27.756,0,0,1-2.313,15.2,28.4,28.4,0,0,1-15.018,14.9,27.97,27.97,0,0,1-12.852,2.361,18.8,18.8,0,0,1-7.851-1.65" transform="translate(-5.852 -5.863)" fill="#46f7fe"/>
        <path id="Trazado_196976" data-name="Trazado 196976" d="M39.457,76.54c1.589.313,3.134.8,4.744,1.058a28.634,28.634,0,0,0,10.76-.381A27.96,27.96,0,0,0,70.1,68.356a28.392,28.392,0,0,0,6.976-14.829,28.976,28.976,0,0,0-2.826-17.581c-.271-.56-.8-1-.794-1.694a26.057,26.057,0,0,1,9.379,14.013A27.136,27.136,0,0,1,60.321,82.487a26.631,26.631,0,0,1-20.6-5.658,2.166,2.166,0,0,1-.264-.289" transform="translate(-8.673 -7.529)" fill="#00e6ef"/>
        <path id="Trazado_196977" data-name="Trazado 196977" d="M59.949,45.926c0,1.665.034,3.331-.016,5-.02.675.125.909.854.892,2.231-.052,4.463-.023,6.694-.017,1.856,0,2.511,1.068,1.673,2.748q-4.584,9.19-9.187,18.369c-.518,1.035-1.219,1.472-2.01,1.224-.992-.312-1.227-1.072-1.219-2.036.027-3.3-.005-6.594.024-9.891.006-.631-.131-.848-.807-.835-2.264.046-4.529.023-6.794.016-1.737-.006-2.443-1.089-1.681-2.62q4.638-9.325,9.3-18.637a1.619,1.619,0,0,1,1.9-1.088,1.655,1.655,0,0,1,1.27,1.885c-.026,1.665-.007,3.331-.007,5" transform="translate(-10.37 -8.572)"/>
        <path id="Trazado_196978" data-name="Trazado 196978" d="M57.923,50.225c0,1.747-.005,3.494,0,5.24.005,1.425.568,1.982,2,1.986,2.154.006,4.309,0,6.6,0L61.3,67.925l-.174-.038c0-1.746,0-3.491,0-5.237-.005-1.429-.566-1.99-2-1.994-2.156-.006-4.311,0-6.61,0,1.782-3.565,3.508-7.017,5.233-10.468l.174.04" transform="translate(-11.544 -11.032)" fill="#fedd55"/>
      </g>
    </g>
  </g>
</svg>
