<svg xmlns="http://www.w3.org/2000/svg" xmlns:xlink="http://www.w3.org/1999/xlink" width="117" height="117" viewBox="0 0 117 117">
  <defs>
    <clipPath id="clip-path">
      <rect id="Rect치ngulo_46103" data-name="Rect치ngulo 46103" width="94.239" height="94.217" fill="none"/>
    </clipPath>
  </defs>
  <g id="Grupo_154479" data-name="Grupo 154479" transform="translate(-425.468 -2215)">
    <rect id="Rect치ngulo_46091" data-name="Rect치ngulo 46091" width="117" height="117" transform="translate(425.468 2215)" fill="none"/>
    <g id="Grupo_154494" data-name="Grupo 154494" transform="translate(436.468 2226)">
      <g id="Grupo_154494-2" data-name="Grupo 154494" clip-path="url(#clip-path)">
        <path id="Trazado_197250" data-name="Trazado 197250" d="M47.067,96.32H2.316c-1.876,0-2.307-.429-2.307-2.3q0-15.016-.009-30.03a4.276,4.276,0,0,1,.414-1.885q4.618-9.771,9.218-19.552a7.8,7.8,0,0,1,11.173-3.709c.616.334.79.145,1.081-.343,2.488-4.179,5.1-8.287,7.475-12.529a7.923,7.923,0,0,1,12.555-2.12c.581.592.717-.065.923-.314Q48.688,16.475,54.5,9.38a8.331,8.331,0,0,1,5.331-3.353,7.779,7.779,0,0,1,7.711,3.245q5.613,7.311,11.239,14.613,7.384,9.6,14.775,19.191a3.041,3.041,0,0,1,.683,1.973q-.024,24.584-.013,49.168c0,1.6-.5,2.1-2.113,2.1q-22.523,0-45.046,0M51.437,76.9c-.28-.19-.406-.29-.545-.368A85.576,85.576,0,0,0,31.478,68.3a46.982,46.982,0,0,0-27.408.542c-.488.155-.944.209-.941.974q.052,11.327.01,22.654c0,.55.143.717.707.716q14.563-.024,29.127,0a.952.952,0,0,0,.934-.528A39.65,39.65,0,0,1,44.233,81.51a59.175,59.175,0,0,1,7.2-4.609M37.3,93.178h.689q26.15,0,52.3.014c.634,0,.814-.157.811-.8q-.036-10.2,0-20.409c0-.675-.215-.8-.832-.777-2.974.117-5.943.267-8.909.543A79.664,79.664,0,0,0,58.467,77.1,49.159,49.159,0,0,0,40.124,89.515,26.052,26.052,0,0,0,37.3,93.178M18.409,63.307a13.13,13.13,0,0,0,2.634-.038,15.964,15.964,0,0,0,2.538-1.02c3.546-1.418,7.08-2.87,10.648-4.231,7.017-2.677,14.143-5.036,21.346-7.162.425-.125,1.075-.094.528-.892Q51.747,43.62,47.45,37.234c-.339-.5-.572-.453-.975-.1q-1.367,1.192-2.792,2.317a4.459,4.459,0,0,1-5.787.21,2.474,2.474,0,0,0-3.543,0,4.476,4.476,0,0,1-5.79-.213c-.617-.485-1.241-.967-1.805-1.509-.481-.463-.714-.333-1.011.187C25,39.434,24.225,40.721,23.434,42a1.574,1.574,0,0,1-2.412.607c-.455-.257-.89-.55-1.34-.816-2.919-1.723-5.811-.862-7.254,2.192-2.943,6.231-5.861,12.473-8.809,18.7a5.24,5.24,0,0,0-.493,2.159c-.025.865.216.948,1,.712a53.53,53.53,0,0,1,14.28-2.247M89.675,43.279c-.207-.3-.358-.548-.532-.775Q83.761,35.511,78.375,28.52q-2.422-3.147-4.834-6.3c-.827-1.079-.826-1.081-1.753-.154-.37.37-.735.745-1.112,1.108a4.692,4.692,0,0,1-6.332.487c-.877-.627-1.745-1.271-2.584-1.947a.67.67,0,0,0-1.006-.014q-1.415,1.133-2.9,2.174a4.6,4.6,0,0,1-5.8-.227,27.834,27.834,0,0,1-2.3-1.983c-.621-.64-.957-.454-1.43.15-1.127,1.441-2.278,2.869-3.493,4.237a1.139,1.139,0,0,0-.074,1.683q6.927,10.11,13.8,20.257c.154.226.229.554.667.618q1.009-3.407,2.019-6.817c.535-1.816,1.058-3.635,1.6-5.45a1.539,1.539,0,0,1,1.552-1.25,1.555,1.555,0,0,1,1.553,1.252c.078.249.143.5.217.753.92,3.131,1.85,6.259,2.752,9.4.165.572.372.761,1.01.587,1.415-.386,2.852-.7,4.294-.97a1.1,1.1,0,0,0,.991-.893c.52-1.786,1.1-3.555,1.629-5.338.258-.865.608-1.629,1.66-1.648.994-.017,1.388.672,1.69,1.5.517,1.41,1.094,2.8,1.619,4.2.143.385.3.631.761.551,2.339-.4,4.68-.794,7.107-1.2M27.336,64.092c.4.125.544.187.7.215a63.994,63.994,0,0,1,8.134,2.146,90.3,90.3,0,0,1,17.913,8.3,1.27,1.27,0,0,0,1.345.232,56.312,56.312,0,0,1,6.854-2.62.679.679,0,0,0,.551-.772c-.02-1.994-.028-3.989,0-5.984.009-.564-.168-.721-.72-.71-1.732.032-3.465.019-5.2.009-1.561-.009-2.2-.856-1.773-2.347.8-2.759,1.61-5.513,2.409-8.271.068-.232.282-.466.039-.747A299.749,299.749,0,0,0,27.336,64.092m63.75-6.9c0-3.364-.014-6.73.012-10.094.005-.643-.121-.812-.807-.685-2.02.377-4.047.735-6.088.952-1.032.11-.924.45-.63,1.2,1.389,3.518,2.731,7.054,4.083,10.587.659,1.721.025,2.625-1.838,2.629-1.569,0-3.138.045-4.7-.017-.787-.032-1.08.139-1.041.994a48.452,48.452,0,0,1,0,4.9c-.053.943.291,1.076,1.1.978a80.225,80.225,0,0,1,8.991-.53c.815-.007.944-.289.936-1.008-.034-3.3-.015-6.6-.015-9.9M67.377,21.513a1.6,1.6,0,0,0,.621-.23c.866-.792,1.7-1.619,2.543-2.435.286-.277.034-.474-.115-.668-1.91-2.483-3.767-5.011-5.755-7.432a4.585,4.585,0,0,0-7.123-.075c-2.109,2.449-4.117,4.983-6.186,7.465-.3.354-.314.553.065.854.792.63,1.541,1.312,2.311,1.97a1.739,1.739,0,0,0,2.612.122c1.209-.89,2.4-1.8,3.608-2.7,1.088-.808,1.51-.8,2.618.017q1.73,1.284,3.449,2.582a2.139,2.139,0,0,0,1.351.525m-30.87,3.233a4.637,4.637,0,0,0-4.029,2.22C31,29.353,29.584,31.782,28.12,34.179c-.254.416-.241.663.159.97.752.575,1.465,1.2,2.191,1.812a1.636,1.636,0,0,0,2.156.132c.814-.547,1.64-1.075,2.445-1.634a1.674,1.674,0,0,1,2.089-.012c.807.556,1.636,1.08,2.445,1.632a1.594,1.594,0,0,0,2.078-.045c1.066-.865,2.109-1.758,3.174-2.624.31-.252.368-.454.121-.81-1.64-2.362-3.225-4.762-4.9-7.1a4.447,4.447,0,0,0-3.575-1.754M58.639,61.773h1.056c3.136,0,6.273-.027,9.409.019.826.012,1.051-.1.783-.983-1.515-4.991-2.969-10-4.444-15q-.475-1.611-.952-3.222l-.208,0c-1.87,6.357-3.74,12.714-5.644,19.184M78.807,44.9l-.22.015L74.381,58.6h9.692L78.807,44.9m-5.351,16.87c.058.236.093.392.134.547.486,1.851-.072,2.59-1.964,2.592-1.668,0-3.336.017-5-.01-.506-.008-.681.132-.672.657.03,1.667.024,3.336,0,5-.006.5.07.715.65.561A76.681,76.681,0,0,1,76.3,69.194c.452-.059.676-.22.668-.741-.03-2.027-.017-4.055-.008-6.082,0-.376-.046-.617-.519-.6-.976.027-1.952.008-2.982.008M71.7,55.965l.191.008q.941-3.026,1.88-6.053c.128-.412-.009-.528-.434-.419-.885.229-1.774.446-2.672.616-.508.1-.626.256-.46.779.532,1.679,1,3.378,1.495,5.069" transform="translate(0 -2.104)" fill="#020201"/>
        <path id="Trazado_197251" data-name="Trazado 197251" d="M19.413,0a9.019,9.019,0,0,1,6.051,2.588,1.757,1.757,0,0,0,1.356.568,6.262,6.262,0,1,1,.035,12.523,1.885,1.885,0,0,0-1.433.62,9.359,9.359,0,0,1-12.859-.05,1.749,1.749,0,0,0-1.354-.565,6.265,6.265,0,1,1-.035-12.53,1.727,1.727,0,0,0,1.367-.537A9.531,9.531,0,0,1,19.413,0M11.2,6.258A3.185,3.185,0,0,0,8.381,8a2.937,2.937,0,0,0,.3,3.316,2.9,2.9,0,0,0,3.124,1.156,1.926,1.926,0,0,1,2.169.665c2.878,3.45,7.189,3.439,10.1-.022a1.829,1.829,0,0,1,1.987-.683,3.125,3.125,0,0,0,3.375-4.8A3.077,3.077,0,0,0,26.076,6.4,1.738,1.738,0,0,1,24.09,5.73a6.28,6.28,0,0,0-10.171.028,1.653,1.653,0,0,1-1.9.654c-.283-.072-.574-.109-.82-.154" transform="translate(-1.733 0)" fill="#030303"/>
        <path id="Trazado_197252" data-name="Trazado 197252" d="M66.127,6.543a1.56,1.56,0,0,1-1.221,1.441,9.778,9.778,0,0,0-1.878.81,3.106,3.106,0,0,0-1.61,2.321c-.166,1.088-.743,1.66-1.62,1.6a1.563,1.563,0,0,1-1.541-1.586,3.272,3.272,0,0,0-2.2-2.649c-.472-.217-.977-.36-1.453-.568a1.561,1.561,0,0,1,1.036-2.945,9.233,9.233,0,0,1,3.7,1.922c.414.378.632.325,1.02-.021a9.447,9.447,0,0,1,3.7-1.91,1.581,1.581,0,0,1,2.062,1.588" transform="translate(-19.005 -1.732)" fill="#060606"/>
        <path id="Trazado_197253" data-name="Trazado 197253" d="M134.253,18.691a1.576,1.576,0,0,1-1.158,1.438,11,11,0,0,0-1.88.8,3.124,3.124,0,0,0-1.663,2.388c-.146,1.023-.711,1.556-1.558,1.564a1.555,1.555,0,0,1-1.581-1.538,3.118,3.118,0,0,0-1.813-2.5c-.636-.321-1.327-.533-1.972-.837a1.505,1.505,0,0,1-.823-1.951,1.533,1.533,0,0,1,1.9-.963,9.346,9.346,0,0,1,3.558,1.77c.516.444.825.577,1.406.039a8.581,8.581,0,0,1,3.544-1.791,1.582,1.582,0,0,1,2.041,1.576" transform="translate(-43.175 -6.042)" fill="#060606"/>
        <path id="Trazado_197254" data-name="Trazado 197254" d="M53.158,110.217a59.176,59.176,0,0,0-7.2,4.609,39.669,39.669,0,0,0-10.326,11.15.95.95,0,0,1-.934.528q-14.563-.019-29.127,0c-.563,0-.707-.165-.706-.716q.025-11.326-.01-22.654c0-.765.453-.819.94-.974a46.983,46.983,0,0,1,27.408-.542,85.564,85.564,0,0,1,19.415,8.227c.139.079.265.178.545.368" transform="translate(-1.721 -35.421)" fill="#b0bc6f"/>
        <path id="Trazado_197255" data-name="Trazado 197255" d="M57.811,129.069a26.1,26.1,0,0,1,2.823-3.663,49.152,49.152,0,0,1,18.344-12.417,79.664,79.664,0,0,1,22.894-5.352c2.965-.276,5.935-.426,8.909-.543.617-.024.834.1.832.777q-.04,10.2,0,20.409c0,.647-.177.8-.811.8q-26.15-.025-52.3-.014h-.69" transform="translate(-20.51 -37.994)" fill="#ceda8b"/>
        <path id="Trazado_197256" data-name="Trazado 197256" d="M20.128,80.317a53.554,53.554,0,0,0-14.28,2.247c-.785.236-1.027.154-1-.711a5.239,5.239,0,0,1,.492-2.159c2.948-6.228,5.865-12.471,8.809-18.7,1.443-3.054,4.335-3.915,7.254-2.192.45.266.885.558,1.34.815a1.573,1.573,0,0,0,2.412-.607c.79-1.278,1.569-2.565,2.313-3.87.3-.521.53-.65,1.012-.188a23.376,23.376,0,0,0,1.805,1.509,4.475,4.475,0,0,0,5.789.214,2.474,2.474,0,0,1,3.543,0,4.459,4.459,0,0,0,5.787-.21q1.425-1.123,2.792-2.317c.4-.352.636-.4.975.1q4.3,6.383,8.653,12.731c.548.8-.1.766-.527.892-7.2,2.125-14.33,4.485-21.346,7.162-3.568,1.361-7.1,2.813-10.648,4.231a15.963,15.963,0,0,1-2.538,1.02,13.13,13.13,0,0,1-2.634.038" transform="translate(-1.719 -19.113)" fill="#699b71"/>
        <path id="Trazado_197257" data-name="Trazado 197257" d="M114.1,51.709c-2.427.41-4.768.8-7.108,1.2-.465.079-.618-.166-.761-.552-.524-1.407-1.1-2.794-1.618-4.2-.3-.823-.7-1.514-1.69-1.5-1.052.019-1.4.783-1.66,1.648-.532,1.783-1.109,3.552-1.629,5.338a1.1,1.1,0,0,1-.991.893c-1.442.269-2.88.584-4.295.97-.638.174-.845-.015-1.01-.587-.9-3.136-1.832-6.265-2.752-9.4-.074-.25-.139-.5-.216-.752a1.556,1.556,0,0,0-1.553-1.253,1.54,1.54,0,0,0-1.552,1.251c-.538,1.814-1.061,3.634-1.6,5.45q-1,3.41-2.019,6.816c-.437-.063-.513-.392-.667-.617q-6.9-10.129-13.8-20.257a1.14,1.14,0,0,1,.074-1.683c1.216-1.367,2.365-2.794,3.493-4.236.473-.6.808-.79,1.43-.151a27.607,27.607,0,0,0,2.3,1.983,4.6,4.6,0,0,0,5.8.227q1.486-1.038,2.9-2.174a.67.67,0,0,1,1.006.014c.839.676,1.706,1.321,2.584,1.948A4.692,4.692,0,0,0,95.1,31.6c.377-.363.742-.739,1.112-1.108.927-.926.926-.925,1.753.155q2.415,3.152,4.833,6.3,5.382,6.994,10.768,13.985c.174.226.325.472.532.774" transform="translate(-24.425 -10.534)" fill="#5e8b65"/>
        <path id="Trazado_197258" data-name="Trazado 197258" d="M42.368,90.275A299.584,299.584,0,0,1,72.622,79.729c.242.282.027.515-.04.747-.8,2.758-1.614,5.512-2.409,8.272-.431,1.49.211,2.338,1.772,2.347,1.734.01,3.467.023,5.2-.01.552-.01.729.146.72.71-.032,1.994-.024,3.989,0,5.984a.678.678,0,0,1-.551.771,56.322,56.322,0,0,0-6.855,2.621,1.272,1.272,0,0,1-1.345-.232,90.243,90.243,0,0,0-17.913-8.3,64.023,64.023,0,0,0-8.134-2.146c-.152-.029-.3-.091-.695-.215" transform="translate(-15.031 -28.286)" fill="#9ea964"/>
        <path id="Trazado_197259" data-name="Trazado 197259" d="M135.11,79.425c0,3.3-.019,6.6.015,9.9.008.719-.121,1-.936,1.008a80.227,80.227,0,0,0-8.991.53c-.812.1-1.156-.034-1.1-.978a48.442,48.442,0,0,0,0-4.9c-.039-.856.254-1.026,1.041-.994,1.565.063,3.135.021,4.7.017,1.863,0,2.5-.908,1.838-2.629-1.352-3.533-2.694-7.069-4.083-10.587-.294-.745-.4-1.085.63-1.2,2.041-.217,4.069-.575,6.088-.952.686-.128.812.041.807.685-.026,3.365-.012,6.73-.012,10.094" transform="translate(-44.024 -24.34)" fill="#9faa64"/>
        <path id="Trazado_197260" data-name="Trazado 197260" d="M95.5,23.209a2.135,2.135,0,0,1-1.351-.525q-1.718-1.3-3.449-2.582c-1.108-.823-1.529-.826-2.618-.018-1.205.9-2.4,1.805-3.608,2.7a1.739,1.739,0,0,1-2.612-.122c-.77-.657-1.519-1.341-2.311-1.97-.379-.3-.36-.5-.065-.854,2.069-2.482,4.076-5.018,6.186-7.465a4.585,4.585,0,0,1,7.123.074c1.987,2.421,3.845,4.948,5.755,7.432.149.194.4.391.115.668-.844.816-1.677,1.644-2.543,2.435a1.6,1.6,0,0,1-.621.231" transform="translate(-28.121 -3.799)" fill="#86c58f"/>
        <path id="Trazado_197261" data-name="Trazado 197261" d="M51.876,35.093a4.448,4.448,0,0,1,3.575,1.753c1.671,2.339,3.257,4.74,4.9,7.1a.5.5,0,0,1-.121.81c-1.065.866-2.109,1.76-3.174,2.625a1.6,1.6,0,0,1-2.078.045c-.81-.552-1.638-1.076-2.445-1.632a1.674,1.674,0,0,0-2.089.013c-.806.558-1.632,1.087-2.445,1.633a1.636,1.636,0,0,1-2.156-.132c-.727-.61-1.438-1.238-2.191-1.813-.4-.306-.412-.554-.159-.969,1.464-2.4,2.878-4.826,4.358-7.214a4.636,4.636,0,0,1,4.029-2.219" transform="translate(-15.369 -12.45)" fill="#86c58f"/>
        <path id="Trazado_197262" data-name="Trazado 197262" d="M90.882,81.928l5.644-19.184.208-.005q.475,1.611.952,3.222c1.475,5,2.929,10.013,4.444,15,.268.885.043.995-.783.983-3.136-.045-6.273-.018-9.409-.018H90.882" transform="translate(-32.243 -22.259)" fill="#86c48f"/>
        <path id="Trazado_197263" data-name="Trazado 197263" d="M119.707,66.336l5.267,13.7h-9.692l4.206-13.682.219-.015" transform="translate(-40.9 -23.535)" fill="#86c48f"/>
        <path id="Trazado_197264" data-name="Trazado 197264" d="M109.721,92.477c1.029,0,2.006.019,2.982-.008.472-.013.52.228.519.6-.01,2.028-.022,4.055.008,6.082.008.521-.216.682-.667.741a76.635,76.635,0,0,0-9.692,1.932c-.582.154-.656-.065-.651-.561.021-1.667.027-3.336,0-5-.01-.526.166-.666.672-.657,1.667.027,3.335.012,5,.009,1.893,0,2.452-.741,1.965-2.592-.04-.154-.075-.31-.133-.547" transform="translate(-36.264 -32.806)" fill="#9ea964"/>
        <path id="Trazado_197265" data-name="Trazado 197265" d="M110.268,79.9c-.494-1.691-.963-3.391-1.495-5.069-.166-.523-.048-.683.46-.779.9-.17,1.787-.387,2.672-.616.425-.11.562.007.434.419q-.936,3.027-1.88,6.053l-.191-.008" transform="translate(-38.566 -26.04)" fill="#9aa561"/>
        <path id="Trazado_197266" data-name="Trazado 197266" d="M12.911,7.989c.246.045.537.082.82.154a1.653,1.653,0,0,0,1.9-.654,6.28,6.28,0,0,1,10.171-.028,1.738,1.738,0,0,0,1.986.671,3.122,3.122,0,1,1-.015,6.035,1.829,1.829,0,0,0-1.987.683c-2.906,3.461-7.217,3.472-10.1.022a1.926,1.926,0,0,0-2.169-.665A2.9,2.9,0,0,1,10.4,13.05a2.937,2.937,0,0,1-.3-3.316,3.185,3.185,0,0,1,2.814-1.745" transform="translate(-3.449 -1.731)" fill="#a1d1f4"/>
      </g>
    </g>
  </g>
</svg>
