<svg xmlns="http://www.w3.org/2000/svg" xmlns:xlink="http://www.w3.org/1999/xlink" width="117" height="117" viewBox="0 0 117 117">
  <defs>
    <clipPath id="clip-path">
      <rect id="Rect치ngulo_46099" data-name="Rect치ngulo 46099" width="68.073" height="97.27" fill="none"/>
    </clipPath>
  </defs>
  <g id="Grupo_154484" data-name="Grupo 154484" transform="translate(-425.159 -2215)">
    <rect id="Rect치ngulo_46091" data-name="Rect치ngulo 46091" width="117" height="117" transform="translate(425.159 2215)" fill="none"/>
    <g id="Grupo_154488" data-name="Grupo 154488" transform="translate(450.159 2225)">
      <g id="Grupo_154488-2" data-name="Grupo 154488" clip-path="url(#clip-path)">
        <path id="Trazado_197166" data-name="Trazado 197166" d="M47.9,0a9.226,9.226,0,0,1,2.288,1.207,4.841,4.841,0,0,1,1.374,5.265A4.8,4.8,0,0,1,47.189,9.7c-1.8.073-1.8.073-1.8,1.847v15.16a6.6,6.6,0,0,1,2.8-.742,5.967,5.967,0,0,1,4.7,2.088c4.221,4.717,8.459,9.42,12.623,14.189a9.681,9.681,0,0,1,1.742,10.535c-2.266,5.82-4.521,11.646-6.862,17.436-1.979,4.895-5.7,7.417-10.966,7.591-.693.023-.811.229-.808.86A32.39,32.39,0,0,1,48.53,83.5a6.218,6.218,0,0,1-4.155,5.2.831.831,0,0,0-.651.941c.038,1.9.026,3.8.011,5.7-.01,1.318-.6,1.92-1.916,1.923q-7.788.016-15.575,0a1.675,1.675,0,0,1-1.927-1.912c-.016-1.93-.019-3.862.006-5.793a.732.732,0,0,0-.548-.825,6.387,6.387,0,0,1-4.346-6.263c-.044-1.264-.039-2.534.006-3.8.022-.619-.082-.859-.794-.869a11.44,11.44,0,0,1-8.8-3.936,12.458,12.458,0,0,1-2.205-3.732Q4.224,61.509.837,52.875A9.913,9.913,0,0,1,2.787,41.954c3.894-4.373,7.83-8.711,11.664-13.135,2.238-2.583,4.787-3.618,8.083-2.2.214-.269.123-.56.123-.82.007-5.066-.015-10.131.027-15.2.006-.795-.26-.912-.959-.907-2.952.026-4.89-1.384-5.4-3.859A4.864,4.864,0,0,1,19.684.2c.166-.049.4.04.479-.2ZM37.231,89.186c-3.032-.013-6.064-.019-9.1-.048-.472,0-.591.18-.584.615.021,1.232.024,2.464,0,3.7-.009.458.151.591.6.587,3.032-.025,6.065-.028,9.1-.037.879.01,1.759.008,2.639.036.421.014.632-.093.623-.57-.024-1.257-.016-2.515,0-3.772,0-.393-.13-.576-.543-.563-.909.03-1.819.038-2.729.055M47.317,29.468a.946.946,0,0,0-.278.034,2.9,2.9,0,0,0-.719,4.758c2.3,2.471,4.63,4.916,6.951,7.368a11.248,11.248,0,0,1,2.441,3.34.658.658,0,0,0,.729.436c1.451-.028,2.9-.029,4.352-.039h2.922a5.7,5.7,0,0,0-.975-1.376q-1.834-2.055-3.66-4.115-4.23-4.751-8.466-9.5a2.734,2.734,0,0,0-3.3-.909m6.644,40.3c.374.582.763,1.155,1.116,1.748.254.428.426.513.8.066a9.98,9.98,0,0,0,1.582-2.788q3.381-8.54,6.734-17.091a9.663,9.663,0,0,0,.6-2.284c.083-.637-.138-.835-.763-.793-.819.054-1.643.03-2.464.04-1.265-.01-2.536.057-3.792-.054-1-.088-1.248.273-1.182,1.191a5.182,5.182,0,0,1-.228,1.585c-.615,2.454-1.578,4.8-2.326,7.208a13.659,13.659,0,0,1-3.154,5.864.536.536,0,0,0-.065.81c1.058,1.493,2.1,3,3.145,4.5M41.05,85.85c2.906.417,4.269-1.344,4.333-3.275.045-1.357,0-2.717.019-4.075.008-.485-.152-.688-.651-.666-.851.038-1.7.038-2.554.053-.378-.019-.756-.054-1.134-.055q-8.355-.005-16.71,0c-.38,0-.76.015-1.139,0-.4-.018-.559.148-.554.556.019,1.456-.054,2.915.034,4.366a3.172,3.172,0,0,0,3.359,3.143c2.247.027,4.494.014,6.741.006,2.752-.01,5.5-.032,8.256-.05M45.013,3.278c-2.781-.014-5.562-.036-8.343-.04q-7.635-.01-15.269,0c-1.169,0-1.958.677-1.96,1.619,0,.961.758,1.594,1.949,1.61.727.01,1.455,0,2.181,0,1.854,0,2.33.486,2.332,2.372,0,1.359.008,2.719,0,4.078,0,.4.031.678.554.617a16.323,16.323,0,0,1,8.782,1.814,6.3,6.3,0,0,0,3.727.794c1.076.171,1.94-.428,2.868-.791.28-.109.329-.348.326-.619q-.028-3.31-.049-6.62c.317-1.257.777-1.619,2.08-1.647.277-.006.555-.028.833-.042.628.013,1.257.054,1.885.031a1.657,1.657,0,0,0,1.7-1.559,1.648,1.648,0,0,0-1.617-1.645c-.656-.048-1.319.01-1.979.022m7.053,69.672c-1.28-1.916-2.573-3.823-3.831-5.752-.316-.485-.611-.366-1.025-.182a11.827,11.827,0,0,1-4.881,1q-8.3-.009-16.6,0a11.538,11.538,0,0,1-4.879-1c-.489-.224-.76-.214-1.079.269q-2.013,3.044-4.1,6.035c-.354.507-.217.634.311.813a10.657,10.657,0,0,0,3.458.451q14.562.015,29.124,0c.66,0,1.32-.1,1.979-.157a2.158,2.158,0,0,0,1.193-.188c1.1-.328,1.1-.337.335-1.281M38.779,19.562a24.213,24.213,0,0,1-7.292-2.224,9.761,9.761,0,0,0-4.561-.607c-.752.047-1.051.262-1.048,1.126.039,10.249.025,20.5.024,30.75a25.194,25.194,0,0,0,.113,2.555A8.064,8.064,0,0,0,40.1,55.576a8.812,8.812,0,0,0,2.04-6.046q0-14.853,0-29.706V18.759a13.865,13.865,0,0,1-3.178.8h-.186M22.663,38c-2.152,2.286-4.136,4.368-6.091,6.477a6.636,6.636,0,0,0-1.519,7.027c.823,2.486,1.642,4.974,2.508,7.444a8.085,8.085,0,0,0,7.556,5.778c5.947.1,11.9.13,17.847-.014a7.574,7.574,0,0,0,7.221-5.1c1.076-2.725,1.949-5.533,2.862-8.32a6.435,6.435,0,0,0-1.515-6.76C49.7,42.562,47.851,40.612,46,38.662c-.152-.16-.247-.446-.607-.405V39.2c0,3.608.025,7.217-.007,10.825A11.354,11.354,0,0,1,24.189,55.9a11.858,11.858,0,0,1-1.527-6.086c0-3.852,0-7.7,0-11.807M7.342,48.633c-1.171,0-2.342.019-3.512-.009-.463-.011-.6.136-.568.6a8.142,8.142,0,0,0,.6,2.476q3.372,8.6,6.771,17.184a9.821,9.821,0,0,0,1.547,2.7c.349.422.5.394.794-.047,1.368-2.051,2.751-4.094,4.167-6.112a.724.724,0,0,0-.1-1.112,11.364,11.364,0,0,1-2.6-4.466c-.72-2.156-1.457-4.307-2.179-6.462a11.346,11.346,0,0,1-.825-4.156c.027-.549-.238-.607-.684-.6-1.139.022-2.278.008-3.416.008M4.265,45.4c2.578,0,4.948-.009,7.317.009a.73.73,0,0,0,.793-.493,11.188,11.188,0,0,1,2.33-3.2c2.325-2.459,4.64-4.928,6.974-7.378a3,3,0,0,0,.865-3.031,2.839,2.839,0,0,0-4.9-1.127C13.381,34.888,9.178,39.657,4.957,44.41a11.709,11.709,0,0,0-.692.987" transform="translate(0)" fill="#020203"/>
        <path id="Trazado_197167" data-name="Trazado 197167" d="M50.112,26.753a13.868,13.868,0,0,0,3.177-.8v1.065q0,14.853,0,29.706a8.809,8.809,0,0,1-2.04,6.046,8.064,8.064,0,0,1-14.088-4.415,25.194,25.194,0,0,1-.113-2.555c0-10.25.014-20.5-.025-30.75,0-.864.3-1.079,1.048-1.126a9.765,9.765,0,0,1,4.562.607,24.209,24.209,0,0,0,7.291,2.224c0,2.582,0,5.163,0,7.744,0,.337.1.7-.136,1.005a1.6,1.6,0,0,0-2.179-.488,1.5,1.5,0,0,0-.729,1.782,1.436,1.436,0,0,0,1.145,1.136,1.713,1.713,0,0,0,1.863-.817q0,6.545.006,13.092a1.7,1.7,0,0,0-1.868-.8,1.465,1.465,0,0,0-1.138,1.146,1.539,1.539,0,0,0,.73,1.792,1.594,1.594,0,0,0,2.17-.521c.247.343.133.736.136,1.106.012,1.777.006,3.553.006,5.329l.186,0ZM45.163,55.875a1.621,1.621,0,0,0-1.6-1.637,1.579,1.579,0,0,0-1.616,1.613,1.608,1.608,0,0,0,3.216.024M42.021,31.507a1.631,1.631,0,0,0-1.695,1.555,1.6,1.6,0,0,0,1.564,1.675,1.567,1.567,0,0,0,1.634-1.5,1.614,1.614,0,0,0-1.5-1.734m3.147,11.35a1.609,1.609,0,0,0-3.217,0,1.606,1.606,0,0,0,1.556,1.59,1.624,1.624,0,0,0,1.661-1.589" transform="translate(-11.146 -7.191)" fill="#fbe438"/>
        <path id="Trazado_197168" data-name="Trazado 197168" d="M57.2,103.216c-.66.055-1.32.157-1.98.157q-14.562.016-29.123,0a10.636,10.636,0,0,1-3.458-.451c-.528-.179-.665-.306-.312-.813q2.086-2.994,4.1-6.035c.319-.483.591-.493,1.079-.269a11.535,11.535,0,0,0,4.879,1q8.3-.009,16.6,0a11.827,11.827,0,0,0,4.881-1c.414-.184.709-.3,1.025.182,1.257,1.93,2.55,3.837,3.83,5.752a9.828,9.828,0,0,0-1.527,1.469" transform="translate(-6.663 -28.796)" fill="#2193ee"/>
        <path id="Trazado_197169" data-name="Trazado 197169" d="M47.339,17.54a6.311,6.311,0,0,1-3.727-.794,16.321,16.321,0,0,0-8.782-1.814c-.522.061-.558-.221-.554-.618.011-1.359.006-2.719,0-4.078,0-1.884-.479-2.369-2.333-2.372-.727,0-1.454.008-2.181,0-1.192-.016-1.952-.649-1.95-1.61,0-.942.791-1.617,1.961-1.619q7.635-.013,15.269,0c2.781,0,5.562.027,8.343.041a3.8,3.8,0,0,1,.01,3.151c-.277.014-.555.036-.833.041-1.3.028-1.763.391-2.08,1.647-.822.008-1.645.041-2.467.016-.529-.016-.724.166-.717.706.029,2.436.028,4.872.038,7.308" transform="translate(-8.374 -1.393)" fill="#ccd5da"/>
        <path id="Trazado_197170" data-name="Trazado 197170" d="M8.746,69.577c1.139,0,2.279.015,3.416-.008.446-.009.711.049.684.6a11.346,11.346,0,0,0,.825,4.156c.722,2.156,1.459,4.306,2.179,6.462a11.366,11.366,0,0,0,2.6,4.466.724.724,0,0,1,.1,1.112q-2.124,3.028-4.166,6.112c-.294.441-.445.469-.795.047a9.821,9.821,0,0,1-1.547-2.7Q8.647,81.234,5.27,72.639a8.143,8.143,0,0,1-.6-2.476c-.029-.46.106-.607.568-.6,1.17.028,2.341.009,3.512.009" transform="translate(-1.404 -20.943)" fill="#2294f0"/>
        <path id="Trazado_197171" data-name="Trazado 197171" d="M50.805,119.371c-2.752.017-5.5.04-8.256.05-2.247.008-4.494.02-6.741-.006a3.171,3.171,0,0,1-3.359-3.143c-.088-1.45-.015-2.91-.034-4.366-.006-.408.15-.575.554-.556.38.017.76,0,1.139,0q8.355,0,16.71,0c.378,0,.756.036,1.134.055,0,.409,0,.818-.006,1.227-.01,2.308.268,4.665-1.141,6.736" transform="translate(-9.755 -33.522)" fill="#2295f1"/>
        <path id="Trazado_197172" data-name="Trazado 197172" d="M6.1,57.967a11.709,11.709,0,0,1,.692-.987c4.221-4.753,8.424-9.522,12.687-14.236a2.839,2.839,0,0,1,4.9,1.127,3,3,0,0,1-.865,3.031c-2.334,2.451-4.649,4.919-6.974,7.378a11.188,11.188,0,0,0-2.33,3.2.73.73,0,0,1-.793.493c-2.369-.018-4.738-.009-7.317-.009" transform="translate(-1.837 -12.571)" fill="#2294f0"/>
        <path id="Trazado_197173" data-name="Trazado 197173" d="M75.782,90.7c-1.047-1.5-2.088-3.005-3.145-4.5a.537.537,0,0,1,.065-.811,13.66,13.66,0,0,0,3.154-5.863c.749-2.411,1.711-4.754,2.326-7.208a5.182,5.182,0,0,0,.228-1.585c-.065-.918.184-1.28,1.182-1.192,1.256.111,2.527.044,3.792.054a7.169,7.169,0,0,1-.249,2.242c-.508,1.8-1.3,3.486-1.972,5.218-1.767,4.559-3.584,9.1-5.381,13.643" transform="translate(-21.821 -20.931)" fill="#2294f0"/>
        <path id="Trazado_197174" data-name="Trazado 197174" d="M80.346,58.057c-1.451.01-2.9.011-4.352.039a.659.659,0,0,1-.729-.436,11.248,11.248,0,0,0-2.441-3.34c-2.321-2.452-4.65-4.9-6.951-7.368a2.9,2.9,0,0,1,.719-4.758.946.946,0,0,1,.278-.034,1.541,1.541,0,0,0,.19.421c3.229,3.625,6.487,7.226,9.689,10.876,1.283,1.462,2.794,2.758,3.6,4.6" transform="translate(-19.553 -12.693)" fill="#2294f0"/>
        <path id="Trazado_197175" data-name="Trazado 197175" d="M77.2,90.707c1.8-4.547,3.614-9.085,5.381-13.643.672-1.732,1.464-3.419,1.972-5.218A7.17,7.17,0,0,0,84.8,69.6c.821-.009,1.645.014,2.464-.04.624-.041.846.156.763.794a9.657,9.657,0,0,1-.6,2.283Q84.081,81.192,80.7,89.733a10,10,0,0,1-1.582,2.788c-.373.446-.544.361-.8-.066-.354-.594-.742-1.167-1.116-1.748" transform="translate(-23.242 -20.941)" fill="#1565be"/>
        <path id="Trazado_197176" data-name="Trazado 197176" d="M49.113,132.394c-3.032.01-6.065.012-9.1.037-.447,0-.608-.129-.6-.587.027-1.232.022-2.465,0-3.7-.006-.435.113-.62.584-.615,3.031.029,6.064.035,9.095.048l.015,4.814" transform="translate(-11.866 -38.394)" fill="#2295f1"/>
        <path id="Trazado_197177" data-name="Trazado 197177" d="M81.174,57.96c-.8-1.842-2.315-3.138-3.6-4.6-3.2-3.65-6.46-7.25-9.689-10.876a1.541,1.541,0,0,1-.19-.421,2.734,2.734,0,0,1,3.3.909q4.248,4.735,8.466,9.5,1.831,2.056,3.66,4.115A5.722,5.722,0,0,1,84.1,57.96Z" transform="translate(-20.381 -12.595)" fill="#1565bd"/>
        <path id="Trazado_197178" data-name="Trazado 197178" d="M58.731,119.374c1.408-2.071,1.13-4.428,1.141-6.736,0-.409,0-.818.006-1.227.851-.015,1.7-.015,2.554-.053.5-.022.659.181.651.666-.023,1.358.026,2.718-.019,4.075-.064,1.931-1.428,3.692-4.333,3.275" transform="translate(-17.681 -33.524)" fill="#1565bd"/>
        <path id="Trazado_197179" data-name="Trazado 197179" d="M55.732,19.644c-.01-2.436-.008-4.872-.038-7.308-.007-.54.188-.722.717-.706.821.025,1.645-.008,2.467-.016q.024,3.31.049,6.62c0,.27-.046.51-.326.619-.929.362-1.793.961-2.869.791" transform="translate(-16.767 -3.496)" fill="#5e7a88"/>
        <path id="Trazado_197180" data-name="Trazado 197180" d="M53.282,132.391l-.015-4.814c.91-.017,1.821-.024,2.731-.055.412-.013.547.171.542.563-.013,1.257-.02,2.515,0,3.772.009.477-.2.584-.623.57-.879-.029-1.759-.027-2.638-.037" transform="translate(-16.036 -38.391)" fill="#1564b9"/>
        <path id="Trazado_197181" data-name="Trazado 197181" d="M64.412,7.823A3.8,3.8,0,0,0,64.4,4.673c.66-.011,1.323-.07,1.979-.022A1.648,1.648,0,0,1,68,6.3a1.657,1.657,0,0,1-1.7,1.559c-.627.022-1.257-.019-1.885-.031" transform="translate(-19.388 -1.395)" fill="#5e7a88"/>
        <path id="Trazado_197182" data-name="Trazado 197182" d="M55.608,27.988V59.5l-.186,0c0-1.777.006-3.553-.006-5.329,0-.37.112-.763-.136-1.106a2.272,2.272,0,0,0,.106-1.622q0-6.545-.006-13.092a2.229,2.229,0,0,0-.1-1.612c.235-.309.136-.668.136-1.006.008-2.581,0-5.162,0-7.744h.187" transform="translate(-16.642 -8.426)" fill="#e2d455"/>
        <path id="Trazado_197183" data-name="Trazado 197183" d="M72.307,105.841a9.828,9.828,0,0,1,1.527-1.469c.764.944.767.953-.334,1.282a2.166,2.166,0,0,1-1.193.187" transform="translate(-21.768 -31.421)" fill="#1564b9"/>
        <path id="Trazado_197184" data-name="Trazado 197184" d="M47.284,68.948a1.608,1.608,0,0,1-3.216-.023,1.579,1.579,0,0,1,1.616-1.614,1.621,1.621,0,0,1,1.6,1.637" transform="translate(-13.267 -20.264)" fill="#060602"/>
        <path id="Trazado_197185" data-name="Trazado 197185" d="M43.442,34.788a1.614,1.614,0,0,1,1.5,1.734,1.567,1.567,0,0,1-1.634,1.5,1.6,1.6,0,0,1-1.564-1.675,1.632,1.632,0,0,1,1.695-1.555" transform="translate(-12.567 -10.472)" fill="#060602"/>
        <path id="Trazado_197186" data-name="Trazado 197186" d="M47.289,50.337a1.624,1.624,0,0,1-1.661,1.589,1.606,1.606,0,0,1-1.556-1.59,1.609,1.609,0,0,1,3.217,0" transform="translate(-13.268 -14.672)" fill="#060602"/>
        <path id="Trazado_197187" data-name="Trazado 197187" d="M54.116,61.177A2.27,2.27,0,0,1,54.01,62.8a1.594,1.594,0,0,1-2.17.521,1.539,1.539,0,0,1-.73-1.791,1.463,1.463,0,0,1,1.138-1.146,1.7,1.7,0,0,1,1.868.795" transform="translate(-15.372 -18.16)" fill="#060602"/>
        <path id="Trazado_197188" data-name="Trazado 197188" d="M54.006,40.193a2.234,2.234,0,0,1,.1,1.613,1.713,1.713,0,0,1-1.864.817A1.437,1.437,0,0,1,51.1,41.486a1.5,1.5,0,0,1,.729-1.782,1.6,1.6,0,0,1,2.179.488" transform="translate(-15.367 -11.881)" fill="#060602"/>
      </g>
    </g>
  </g>
</svg>
