<svg xmlns="http://www.w3.org/2000/svg" xmlns:xlink="http://www.w3.org/1999/xlink" width="117" height="117" viewBox="0 0 117 117">
  <defs>
    <clipPath id="clip-path">
      <rect id="Rect치ngulo_46106" data-name="Rect치ngulo 46106" width="86.074" height="95.787" fill="none"/>
    </clipPath>
  </defs>
  <g id="Grupo_154482" data-name="Grupo 154482" transform="translate(-425.321 -2215)">
    <rect id="Rect치ngulo_46091" data-name="Rect치ngulo 46091" width="117" height="117" transform="translate(425.321 2215)" fill="none"/>
    <g id="Grupo_154497" data-name="Grupo 154497" transform="translate(440.321 2225.606)">
      <g id="Grupo_154497-2" data-name="Grupo 154497" clip-path="url(#clip-path)">
        <path id="Trazado_197325" data-name="Trazado 197325" d="M24.152,0c.876,1.236.5,2.6.365,3.928-.044.434-.49.6-.945.586a.812.812,0,0,1-.841-.62A12.33,12.33,0,0,1,22.719.642c.026-.23.325-.429.5-.642Z" transform="translate(-9.732)" fill="#252122"/>
        <path id="Trazado_197326" data-name="Trazado 197326" d="M7.58,77.587a4.581,4.581,0,0,1-2.29-.026,3.367,3.367,0,0,1-2.24-3.6A38.784,38.784,0,0,1,7.085,59.115,39.185,39.185,0,0,1,31.3,38.708c19.269-5.953,40.617,4.317,48.048,23.065a42.112,42.112,0,0,1,2.776,11.573,3.861,3.861,0,0,1-.968,3.456,2.97,2.97,0,0,1-2.739.872c-.845-.184-.883.162-.88.829.022,4.3.011,8.6.011,12.906,0,3.928.019,7.856-.017,11.784-.006.7.17.927.878.874.868-.066,1.745-.026,2.618-.012a1.032,1.032,0,0,1,1.149,1.161c0,1.184.039,2.371-.015,3.553-.032.7.118,1.028.9.941a13.673,13.673,0,0,1,1.963-.007c.645.022,1.085.318,1.069,1.024s-.45.978-1.106.979H84.33q-41.244,0-82.489,0c-.764,0-1.667.182-1.791-.961-.082-.754.468-1.119,1.809-1.025.993.071,1.277-.252,1.187-1.21-.087-.927-.02-1.869-.019-2.8,0-1.428.232-1.652,1.7-1.654.779,0,1.559-.016,2.338.006.412.012.612-.07.611-.557q-.025-12.859-.022-25.719a.674.674,0,0,0-.074-.195" transform="translate(-0.018 -15.929)" fill="#231f20"/>
        <path id="Trazado_197327" data-name="Trazado 197327" d="M18.682,26.306a7.624,7.624,0,1,1,7.607-7.59,7.6,7.6,0,0,1-7.607,7.59" transform="translate(-4.747 -4.759)" fill="#231f20"/>
        <path id="Trazado_197328" data-name="Trazado 197328" d="M2.2,24.741c-.435,0-.872.028-1.3-.007a.891.891,0,0,1-.9-.891.872.872,0,0,1,.8-1.06,20.525,20.525,0,0,1,2.882,0,.874.874,0,0,1,.81,1.057.9.9,0,0,1-.9.893c-.463.034-.931.007-1.4.007" transform="translate(0 -9.782)" fill="#252122"/>
        <path id="Trazado_197329" data-name="Trazado 197329" d="M22.676,43.223c0-.434-.017-.87.006-1.3a.885.885,0,0,1,.947-.928.873.873,0,0,1,1.011.862,24.463,24.463,0,0,1-.009,2.788.878.878,0,0,1-1.027.849.913.913,0,0,1-.926-.965c-.015-.434,0-.868,0-1.3" transform="translate(-9.755 -17.638)" fill="#252122"/>
        <path id="Trazado_197330" data-name="Trazado 197330" d="M39.424,7.57a1.518,1.518,0,0,1-.218.537c-.661.7-1.33,1.393-2.038,2.042a.878.878,0,0,1-1.265-.034.881.881,0,0,1-.1-1.329c.645-.712,1.341-1.38,2.042-2.038a.842.842,0,0,1,1.041-.073,1.107,1.107,0,0,1,.543.894" transform="translate(-15.293 -2.811)" fill="#242021"/>
        <path id="Trazado_197331" data-name="Trazado 197331" d="M43.218,24.738c-.4,0-.806.009-1.208,0a.943.943,0,0,1-1.045-.945.917.917,0,0,1,.943-1.042,24.586,24.586,0,0,1,2.6,0,.923.923,0,0,1,.954,1.036.942.942,0,0,1-1.037.956c-.4,0-.8,0-1.208,0" transform="translate(-17.626 -9.773)" fill="#252122"/>
        <path id="Trazado_197332" data-name="Trazado 197332" d="M36.61,35.645a1.1,1.1,0,0,1,.72.325c.546.547,1.108,1.08,1.64,1.64a.993.993,0,1,1-1.394,1.41c-.578-.558-1.147-1.127-1.7-1.71a.916.916,0,0,1-.182-1.109.966.966,0,0,1,.917-.556" transform="translate(-15.311 -15.338)" fill="#242021"/>
        <path id="Trazado_197333" data-name="Trazado 197333" d="M9.409,10.4a.935.935,0,0,1-.754-.3C8.1,9.545,7.545,9,7.007,8.44A.906.906,0,0,1,7,7.038.921.921,0,0,1,8.4,7.046c.59.554,1.159,1.13,1.717,1.718a.885.885,0,0,1,.166,1.041.948.948,0,0,1-.877.592" transform="translate(-2.87 -2.889)" fill="#242021"/>
        <path id="Trazado_197334" data-name="Trazado 197334" d="M10.37,36.8a.992.992,0,0,1-.349.66c-.525.53-1.041,1.071-1.583,1.584a.944.944,0,0,1-1.416.051.923.923,0,0,1,.024-1.469c.545-.556,1.093-1.108,1.653-1.648a.923.923,0,0,1,1.122-.161.981.981,0,0,1,.549.982" transform="translate(-2.869 -15.362)" fill="#242021"/>
        <path id="Trazado_197335" data-name="Trazado 197335" d="M28.212,100.973c-.186,0-.371.015-.557.012-1.873-.024-2.136.271-2.021,2.159a5.411,5.411,0,0,0,2.421,4.181c.067.408-.254.606-.478.843-.489.516-1,1.009-1.5,1.513a3.531,3.531,0,0,0-1.111,2.183l-2.726,2.606a1.065,1.065,0,0,1-.987-.018,4.064,4.064,0,0,1-2.656-3.648q-.126-9.139-.007-18.28a1.066,1.066,0,0,1,.031-.181c.1-.421.355-.464.691-.259a1.007,1.007,0,0,0,1.339-.256c.226-.214.444-.436.664-.656q8.849-8.848,17.7-17.69c.332-.331.581-.842,1.188-.769.324.495.54,1.213,1.372.729a1.413,1.413,0,0,0,.406-2.05,1.629,1.629,0,0,1-.19-.314c.129-.831.906-1.168,1.347-1.763,1.341.145,1.566-.917,1.948-1.808a8.792,8.792,0,0,1,1.458-1.533.877.877,0,0,0,.254-.864c2.273,0,4.545.012,6.818,0,1.948-.007,3.035-.988,3.14-2.805.112-1.922-.878-3.044-2.871-3.263-.072-.008-.137-.089-.206-.136.2-.667.773-1.032,1.212-1.5a14.081,14.081,0,0,1,1.187-1.182c1.044-.88,1.66-1.852.883-3.223a.329.329,0,0,1,.053-.35,1.347,1.347,0,0,1,1.168-.01,31.743,31.743,0,0,1,15.095,9.03,8.363,8.363,0,0,1,2.1,2.8c-.268.27-.517.059-.768-.033a3.73,3.73,0,0,0-4.261.961Q61.781,74,53.181,82.572a3.5,3.5,0,0,1-1.059.9c-1.264.011-1.264.011-1.532,1.554a32.439,32.439,0,0,1-3.738,3.758c-2.9-.107-2.764-.066-2.743,2.638-.1.428-.453.661-.734.943q-3.53,3.545-7.071,7.078a2.813,2.813,0,0,0-.712.856c-.25.5-.812.534-1.2.824a8.583,8.583,0,0,0-2.045,1.025c-.4-.1-.557-.465-.8-.733a4.636,4.636,0,0,0-2.349-1.4c-.581-.146-.909-.053-.831.633a.4.4,0,0,1-.149.326" transform="translate(-7.975 -22.595)" fill="#76dbf0"/>
        <path id="Trazado_197336" data-name="Trazado 197336" d="M73.535,91.936q9.215-9.225,18.435-18.445c1.235-1.232,2.836-1.319,4.733-.366a1.162,1.162,0,0,1,.854.64,17.3,17.3,0,0,1,2.729,5.311,7.857,7.857,0,0,1-.1,4.321,3.912,3.912,0,0,1-.761,1.38c-2.057,2.16-4.125,4.311-6.344,6.309-.355.111-.577-.156-.837-.305-.374-.215-.758-.341-1.111,0-.381.371-.183.733.072,1.078a1.16,1.16,0,0,1,.243.5c.036.467-.289.737-.571,1.021q-2.734,2.747-5.483,5.479c-.276.273-.533.646-1.026.481-.325-.272-.4-.693-.606-1.033a.763.763,0,0,0-1.033-.363.746.746,0,0,0-.378.947,5.833,5.833,0,0,0,.972,1.677c.032.4-.258.618-.494.855q-2.268,2.287-4.556,4.554c-.257.255-.492.59-.943.48-.827-.785-1.812-.46-2.745-.354a5.883,5.883,0,0,0-2.089.859c0-1.494.009-2.88,0-4.267a4.994,4.994,0,0,0-4.246-5.319,31.841,31.841,0,0,1,3.623-3.726.831.831,0,0,1,.361.274c.267.3.536.648,1,.415.422-.21.418-.631.446-1.037.032-.467-.175-.9-.141-1.367" transform="translate(-29.364 -31.188)" fill="#fefefe"/>
        <path id="Trazado_197337" data-name="Trazado 197337" d="M95.2,131.282a5.832,5.832,0,0,0-1.755-4.959c-.227-.2-.484-.367-.727-.549a4.945,4.945,0,0,0-2.379-1.041c-.367-.087-.568.127-.769.365-1.195.116-1.365.3-1.371,1.509-.017,3.1,1.484,4.95,4.483,5.444.618.1.465.434.437.791a1.011,1.011,0,0,1-.71.385,11.392,11.392,0,0,0-5.675,2.787c-.519.48-1,1.276-1.568,1.34-.441.05-.988-.807-1.482-1.268a18.158,18.158,0,0,0-4.281-2.661c.075-.4.395-.624.655-.884q11.357-11.366,22.72-22.724a4.247,4.247,0,0,1,1.01-.821,2.821,2.821,0,0,1,4.053,1.558,1.727,1.727,0,0,1,.085.415c.027,1.245-.023,2.491.019,3.734a9.477,9.477,0,0,1-2.853,7.076c-2.93,3.054-5.967,6.005-8.966,8.991-.252.251-.472.607-.927.51" transform="translate(-34.166 -46.754)" fill="#fefefe"/>
        <path id="Trazado_197338" data-name="Trazado 197338" d="M106.1,99.962q-2.11-3.213-4.878-.451-11.366,11.356-22.73,22.714c-.217.217-.457.411-.687.615-.693-.2-1.522.06-2.078-.61-.044-.934.03-1.871-.032-2.8a.9.9,0,0,1,.816-1.1,4.4,4.4,0,0,0,2.834-1.8,5.644,5.644,0,0,0,1.185-5.088,5.923,5.923,0,0,0,1.587-1.42c1.477-1.47,2.925-2.969,4.384-4.457.506-.3.75-.849,1.157-1.246a2.11,2.11,0,0,0,.862-.692q2.716-2.7,5.42-5.418a1.9,1.9,0,0,0,.627-.8c.028-.013.06-.043.084-.037,1.6.409,1.681.336,1.509-1.317,1.791-1.813,3.53-3.682,5.388-5.425a6.028,6.028,0,0,0,1.79-6.022,3.661,3.661,0,0,1-.027-.555c.506.049.6.485.755.839a28.994,28.994,0,0,1,2.135,9.2,46.094,46.094,0,0,1,.173,4.734c-.01.4.056.816-.272,1.139" transform="translate(-32.568 -36.167)" fill="#76dbf0"/>
        <path id="Trazado_197339" data-name="Trazado 197339" d="M43.21,71.93c-.3.685-1.016,1.019-1.4,1.634-.749.36-.959,1.261-1.668,1.662-.252.231-.513.452-.754.693q-9.22,9.217-18.436,18.438c-.923.924-1.145.938-2.105.176a1.07,1.07,0,0,1-.28-.861c0-1.527-.067-3.054.036-4.578a9.275,9.275,0,0,1,2.715-4.774c3.152-3.043,6.208-6.185,9.319-9.27.329-.326.686-.984,1.245-.219.246.4.572.681,1.059.472a1.649,1.649,0,0,0,1.134-1.221c.108-.723-.579-.746-1-1-.188-.425.166-.626.383-.857,4.29-4.542,8.731-8.936,13.158-13.345.225-.224.419-.573.845-.436.016.5.01.993.054,1.486.085.95.117,1.666-1.216,1.882-1.36.22-1.914,1.427-1.848,3.13A2.717,2.717,0,0,0,46.8,67.653c.227.153.819.132.234.632-.633.541-1.208,1.15-1.808,1.73-.5-.072-.882-.8-1.492-.255a1.974,1.974,0,0,0-.526,2.169" transform="translate(-7.98 -25.137)" fill="#fefefe"/>
        <path id="Trazado_197340" data-name="Trazado 197340" d="M47.449,55.341c-3.68,3.677-7.382,7.333-11.027,11.044a37.669,37.669,0,0,0-3.413,3.567c-.291.718-.942,1.164-1.355,1.791-.382-.593-.554.009-.714.167-2.985,2.962-5.922,5.973-8.941,8.9a10.568,10.568,0,0,0-3.146,4.849c-.28-.224-.263-.547-.28-.855a31.778,31.778,0,0,1,3.623-16.96,1.855,1.855,0,0,1,.725-.943c.508-.01.307.367.3.6a2.343,2.343,0,0,0,1.473,2.38,2.3,2.3,0,0,0,2.7-.7q6.184-6.225,12.4-12.416c1.339-1.341,1.212-2.139-.46-3.078-.156-.087-.358-.142-.324-.391a1.524,1.524,0,0,1,.93-.576,29.533,29.533,0,0,1,6.635-1.506,1.016,1.016,0,0,1,.881.181,34.6,34.6,0,0,1,0,3.942" transform="translate(-7.965 -22.029)" fill="#76dbf0"/>
        <path id="Trazado_197341" data-name="Trazado 197341" d="M46.14,129.627c-.133-.131-.026-.224.058-.308q4.284-4.255,8.571-8.506a5.106,5.106,0,0,0,4.65,4.289c.454.052.362.339.361.6q-.012,4.3-.033,8.6a1.973,1.973,0,0,1-.569.836q-3.393,3.389-6.785,6.779c-.216.215-.412.476-.762.489l-1.3-1.175a11.272,11.272,0,0,0-5.956-2.806,1.957,1.957,0,0,1-1.039-.367c-.036-.334-.142-.63.392-.746,3.489-.759,4.974-2.943,4.44-6.461a.393.393,0,0,1-.046-.177c.006-1.429.006-1.429-1.448-1.061-.178.045-.354.124-.536.014" transform="translate(-18.634 -51.985)" fill="#fefefe"/>
        <path id="Trazado_197342" data-name="Trazado 197342" d="M108.02,85.025c.059-4.693-.173-9.349-1.836-13.812a6.9,6.9,0,0,0-.955-2.1,17.6,17.6,0,0,0-3.4-5.948,30.435,30.435,0,0,0-13.716-10.5,13.516,13.516,0,0,0-4.629-1.288,17.435,17.435,0,0,1-3.3-.569c-.08-1.587-.08-1.587,1.449-1.372a32.734,32.734,0,0,1,27.934,27.575,38.616,38.616,0,0,1,.5,6.131q-.026,15.422.013,30.844c0,.84-.23,1.141-1.04,1.007a1.347,1.347,0,0,0-.466,0,3.8,3.8,0,0,1-4.08-1.89c.734-.64,1.539-1.188,2.216-1.905a4.1,4.1,0,0,0,1.2-2.127,41.756,41.756,0,0,0-.076-5.886,2.043,2.043,0,0,1-.064-.519c-.009-3.936.118-7.866.326-11.8a50.921,50.921,0,0,0-.019-5.485c-.017-.121-.034-.242-.051-.363" transform="translate(-34.49 -21.23)" fill="#3ab8dc"/>
        <path id="Trazado_197343" data-name="Trazado 197343" d="M46.738,50.6A25.915,25.915,0,0,0,38.3,52.618c-.427.509-1.083.573-1.636.832A31.04,31.04,0,0,0,23.11,65.305c-.189.3-.286.708-.714.808a18.574,18.574,0,0,0-2.232,4.481,32.6,32.6,0,0,0-2.026,14.265q-.009,2.883-.018,5.767,0,9.3,0,18.595a4.076,4.076,0,0,0,3.4,3.883c-.451.471-.9.946-1.356,1.409a5.067,5.067,0,0,1-3.095.439.389.389,0,0,1-.2-.382c-.008-.219-.006-.437-.006-.655q0-14.439,0-28.877c.006-3.987.038-7.984,1.257-11.836Q24.249,53.821,44.16,49.64c.456-.1.921-.146,1.383-.214,1.291-.19,1.291-.189,1.2,1.174" transform="translate(-7.251 -21.229)" fill="#3ab8dc"/>
        <path id="Trazado_197344" data-name="Trazado 197344" d="M58.717,43.5a31.163,31.163,0,0,0-3.994-.153,35.121,35.121,0,0,0-22.257,8.536c-.4.343-.807.679-1.212,1.018a1.6,1.6,0,0,1-1.737-1.923,36.265,36.265,0,0,1,13.6-8.227,37.872,37.872,0,0,1,13.745-2.007c.62.021,1.236.122,1.853.186a1.716,1.716,0,0,1,0,2.569" transform="translate(-12.689 -17.523)" fill="#3a8bb4"/>
        <path id="Trazado_197345" data-name="Trazado 197345" d="M119.674,112.617c.251.3.149.657.149.989,0,3.677.072,7.358-.057,11.031-.063,1.8-.073,3.6-.158,5.4-.031.006-.074.027-.09.015-1.16-.887-1.938-.273-2.763.6-1.54,1.629-3.156,3.186-4.746,4.767-.3.3-.57.681-1.077.657a11.021,11.021,0,0,0-3.066-1.05,1.167,1.167,0,0,1-.747-.342q0-.85.006-1.7c3.523-3.462,7.13-6.844,10.422-10.53a8.454,8.454,0,0,0,2.106-5.831c-.007-1.336.013-2.672.021-4.008" transform="translate(-46.093 -48.459)" fill="#76dbf0"/>
        <path id="Trazado_197346" data-name="Trazado 197346" d="M80.793,43.662a2.9,2.9,0,0,0,0-2.569,32.576,32.576,0,0,1,9.16,1.959,37.416,37.416,0,0,1,15.42,10.336c.5.551.952,1.145,1.427,1.719.034.139-.021.276-.148.286-.859.072-1.625.492-2.463.637A35.377,35.377,0,0,0,80.793,43.662" transform="translate(-34.764 -17.682)" fill="#3a5aa5"/>
        <path id="Trazado_197347" data-name="Trazado 197347" d="M121.858,66.614c.718-.737,1.727-.652,2.61-.923a36.852,36.852,0,0,1,7.67,17.065,20.365,20.365,0,0,1,.4,3.886,1.322,1.322,0,1,1-2.636.063,34.813,34.813,0,0,0-6.694-18.311c-.439-.6-.9-1.187-1.348-1.78" transform="translate(-52.435 -28.267)" fill="#3a328c"/>
        <path id="Trazado_197348" data-name="Trazado 197348" d="M44.426,160.294c.105.111.4.194.133.382-.129.089-.362.035-.549.035q-8.214,0-16.428,0c-.145,0-.289-.022-.521-.041,2.5-2.98,5.247-5.261,9.344-5.027a6.007,6.007,0,0,1,2.94.758,6.119,6.119,0,0,1,1.425,1.189,16.033,16.033,0,0,0,3.655,2.708" transform="translate(-11.644 -66.963)" fill="#ca5851"/>
        <path id="Trazado_197349" data-name="Trazado 197349" d="M68.312,160.741c-1.773,0-3.548-.032-5.32.012-1.033.026-1.371-.849-1.976-1.375-.182-.159.071-.321.18-.455a9.531,9.531,0,0,1,13.18-1.079,2.915,2.915,0,0,1,.344.315c.34.4,1.056.578.966,1.231-.074.534-1.44,1.35-2.052,1.351q-2.66,0-5.321,0" transform="translate(-26.227 -66.995)" fill="#d97a51"/>
        <path id="Trazado_197350" data-name="Trazado 197350" d="M113.952,148.623l5.925-5.892c1.1-1.09,1.518-1.1,2.634-.092l.063.348c.06,2.06.1,4.121-.023,6.18a5.861,5.861,0,0,1-3.557,3.766c-1.608-1.46-3.035-3.137-5.012-4.151q-.22-.042-.03-.16" transform="translate(-48.995 -61.057)" fill="#fefefe"/>
        <path id="Trazado_197351" data-name="Trazado 197351" d="M107.379,160.507c.047.336-.218.2-.342.2q-8.458.012-16.916,0a.431.431,0,0,1-.157-.068c3.19-3.8,5.993-5.629,10.626-4.809a4.708,4.708,0,0,1,.617.2,6.431,6.431,0,0,1,1.616,1.38,11.328,11.328,0,0,0,4.555,3.095" transform="translate(-38.711 -66.972)" fill="#ca5851"/>
        <path id="Trazado_197352" data-name="Trazado 197352" d="M21.8,58.727a2.151,2.151,0,0,0,1.737,1.923,37.08,37.08,0,0,0-7.975,11.378c-.566,1.28-1.014,2.6-1.448,3.929a8.407,8.407,0,0,1-2.565-.741A36.172,36.172,0,0,1,21.8,58.727" transform="translate(-4.969 -25.27)" fill="#3a5aa5"/>
        <path id="Trazado_197353" data-name="Trazado 197353" d="M10.4,87.649a4.481,4.481,0,0,1,2.565.741,37.606,37.606,0,0,0-1.452,7.73,1.435,1.435,0,0,1-1.382,1.441,1.372,1.372,0,0,1-1.247-1.546A31.809,31.809,0,0,1,10.4,87.649" transform="translate(-3.823 -37.704)" fill="#3a328c"/>
        <path id="Trazado_197354" data-name="Trazado 197354" d="M71.654,67.377c1.025,0,2.05,0,3.076,0a1.091,1.091,0,0,1-.007,2.181q-3.123,0-6.245,0c-.759,0-1.059-.469-1.041-1.143a.948.948,0,0,1,1.049-1.041c1.056.008,2.113,0,3.169,0" transform="translate(-29.017 -28.991)" fill="#3959a4"/>
        <path id="Trazado_197355" data-name="Trazado 197355" d="M80.2,51.908a6.025,6.025,0,0,1,3.3.569c.926,1.5.867,2.086-.376,3.321-.963.957-1.942,1.9-2.913,2.844q-.006-3.367-.013-6.734" transform="translate(-34.51 -22.328)" fill="#fefefe"/>
        <path id="Trazado_197356" data-name="Trazado 197356" d="M57.92,152.6l8.115-8.105,0,3.885a.845.845,0,0,1-.638.313,14.466,14.466,0,0,0-3.869,1.38,23.748,23.748,0,0,0-2.869,2.422c-.195.195-.411.676-.741.105" transform="translate(-24.923 -62.174)" fill="#76daef"/>
        <path id="Trazado_197357" data-name="Trazado 197357" d="M75.039,49.158q0,3.37,0,6.738a1.409,1.409,0,0,1-1.045.288c-.629-.006-.944-.243-.927-.95.041-1.763.047-3.529,0-5.292-.02-.7.175-.978.877-.871.362.056.742-.073,1.1.087" transform="translate(-31.438 -21.106)" fill="#3a59a4"/>
        <path id="Trazado_197358" data-name="Trazado 197358" d="M29.722,153.264c-.418-.947.257-1.526.77-2.112.737-.841,1.544-1.621,2.322-2.426a6.761,6.761,0,0,0,2.029.6c.29.006.567.011.547.432-.017.345.016.632-.461.756a15.028,15.028,0,0,0-5.207,2.747" transform="translate(-12.733 -63.996)" fill="#fdfdfd"/>
        <path id="Trazado_197359" data-name="Trazado 197359" d="M138.751,160.116c0,1.722,0,1.681-1.714,1.732-.8.024-1.146-.164-1.051-1.019a13.043,13.043,0,0,0,.009-1.951c-.02-.485.174-.691.652-.643a1.565,1.565,0,0,0,.186,0c1.918-.039,1.918-.04,1.918,1.881" transform="translate(-58.508 -68.084)" fill="#3a59a2"/>
        <path id="Trazado_197360" data-name="Trazado 197360" d="M11.467,160.028c0,1.889,0,1.871-1.918,1.809-.506-.017-.754-.148-.709-.69.031-.371,0-.746,0-1.119,0-1.84,0-1.816,1.824-1.809.594,0,.872.153.8.783a9.615,9.615,0,0,0-.006,1.025" transform="translate(-3.802 -68.081)" fill="#3a59a5"/>
        <path id="Trazado_197361" data-name="Trazado 197361" d="M115.871,160.8a5.836,5.836,0,0,1-3.5-1.756c-.955-.833-1.789-1.807-2.676-2.718a7.946,7.946,0,0,1,4.061,2.268c.724.714,1.408,1.469,2.111,2.206" transform="translate(-47.203 -67.267)" fill="#b64438"/>
        <path id="Trazado_197362" data-name="Trazado 197362" d="M35.483,136.563c-.162-1.442-.017-1.571,1.417-1.092a4.672,4.672,0,0,1,2.714,2.267c-.418.709-.81.845-1.425.122a5.005,5.005,0,0,0-2.706-1.3" transform="translate(-15.246 -58.185)" fill="#07d49f"/>
        <path id="Trazado_197363" data-name="Trazado 197363" d="M74.98,49.085c-1.874.012-1.874.012-1.874,1.931,0,1.238.059,2.479-.019,3.712-.059.922.278,1.232,1.15,1.1a5.031,5.031,0,0,1,.742-.006c.007.154.019.309.021.464.01,1.167-.585,1.57-1.738,1.21-.329-.1-.325-.328-.326-.575q-.008-3.722-.01-7.444c0-.306.052-.59.44-.558.539.044,1.109-.2,1.615.165" transform="translate(-31.379 -21.033)" fill="#39328b"/>
        <path id="Trazado_197364" data-name="Trazado 197364" d="M67.41,119.843a3.085,3.085,0,0,1,2.482,2.557c0,.383-.176.382-.467.35a3.086,3.086,0,0,1-2.42-2.3c-.044-.309-.12-.664.405-.6" transform="translate(-28.819 -51.565)" fill="#06d29d"/>
        <path id="Trazado_197365" data-name="Trazado 197365" d="M36.587,143.916a3.01,3.01,0,0,1-2.007-2.228c-.126-.473.043-.639.505-.533a2.778,2.778,0,0,1,2.252,2.052c-.082.414-.4.577-.75.709" transform="translate(-14.862 -60.725)" fill="#75d9ee"/>
        <path id="Trazado_197366" data-name="Trazado 197366" d="M53.7,160.879a7.453,7.453,0,0,1-3.2-1.962c-.668-.6-1.253-1.286-1.876-1.935a5.6,5.6,0,0,1,2.645,1.466,16.765,16.765,0,0,1,2.435,2.431" transform="translate(-20.923 -67.549)" fill="#b54438"/>
        <path id="Trazado_197367" data-name="Trazado 197367" d="M76.376,137.761c-.316.124-.726.5-.612-.308A3.076,3.076,0,0,1,78.2,134.99c.747-.1.4.382.386.688a6.634,6.634,0,0,1-2.215,2.083" transform="translate(-32.592 -58.08)" fill="#fbfbfb"/>
        <path id="Trazado_197368" data-name="Trazado 197368" d="M43.348,151.084a9.688,9.688,0,0,1,6.995,3.173c-.636-.129-1.028-.659-1.565-.958a10.734,10.734,0,0,0-4.727-1.514c-.46-.023-.813-.122-.7-.7" transform="translate(-18.644 -65.011)" fill="#b4473c"/>
        <path id="Trazado_197369" data-name="Trazado 197369" d="M101.058,143.073c.2.326.4.745.1,1.012-.236.214-.652-.026-.953-.156a2.973,2.973,0,0,1-1.86-2.375c-.038-.228.006-.367.275-.329.845.572,1.581,1.288,2.435,1.848" transform="translate(-42.314 -60.766)" fill="#f8faf9"/>
        <path id="Trazado_197370" data-name="Trazado 197370" d="M47.457,135.807c.167-.076.329-.163.5-.224.571-.205,1.3-.641,1.724-.249s-.031,1.127-.2,1.7c-.959-.873-2.063-.4-3.122-.338l1.093-.887" transform="translate(-19.95 -58.165)" fill="#0cd5a1"/>
        <path id="Trazado_197371" data-name="Trazado 197371" d="M92.27,154.283a9.594,9.594,0,0,1,5.566-3.029c.271-.06.546-.1.82-.143.041.308-.013.61-.364.645a13.145,13.145,0,0,0-6.022,2.527" transform="translate(-39.703 -65.022)" fill="#c45a53"/>
        <path id="Trazado_197372" data-name="Trazado 197372" d="M79.311,141.05c-.467,1.352-1.657,1.79-2.852,2.086-.613.152-.732.379-.721.921.017.9-.026,1.8-.044,2.7a33.858,33.858,0,0,1-.062-3.622c-.009-.381.137-.574.526-.606a5.592,5.592,0,0,0,3.153-1.48" transform="translate(-32.535 -60.693)" fill="#0ad09e"/>
        <path id="Trazado_197373" data-name="Trazado 197373" d="M46.084,142.832A2.988,2.988,0,0,1,44.2,144.64c-.248.084-.588.264-.788.069-.239-.234-.08-.586.034-.873a4.338,4.338,0,0,1,.261-.482c.776-.246,1.494-.758,2.376-.522" transform="translate(-18.627 -61.434)" fill="#f9fafa"/>
        <path id="Trazado_197374" data-name="Trazado 197374" d="M46.4,142.114a7.565,7.565,0,0,1-2.376.522,2.486,2.486,0,0,1,1.45-1.333c.313-.142.7-.309.966-.108.314.237.013.607-.04.918" transform="translate(-18.943 -60.716)" fill="#0dd39f"/>
        <path id="Trazado_197375" data-name="Trazado 197375" d="M64.256,153a8.841,8.841,0,0,1,4.508-1.693c.047.224.051.5-.211.524a23.976,23.976,0,0,0-4.3,1.17" transform="translate(-27.649 -65.108)" fill="#cc7b56"/>
        <path id="Trazado_197376" data-name="Trazado 197376" d="M101.274,143.077a4.25,4.25,0,0,1-2.435-1.848,2.6,2.6,0,0,1,2.435,1.848" transform="translate(-42.53 -60.77)" fill="#0ecf9d"/>
        <path id="Trazado_197377" data-name="Trazado 197377" d="M97.234,137.007c-.071-.5.035-.794.636-.635.938.249,1.938.366,2.511,1.31a6.578,6.578,0,0,0-3.147-.675" transform="translate(-41.831 -58.662)" fill="#17d4a3"/>
        <path id="Trazado_197378" data-name="Trazado 197378" d="M111.038,152.694l.029.16a15.141,15.141,0,0,0-3.647-.953c-.352-.01-.349-.281-.313-.544a10.461,10.461,0,0,1,3.931,1.337" transform="translate(-46.081 -65.128)" fill="#ac4a40"/>
        <path id="Trazado_197379" data-name="Trazado 197379" d="M76.853,138.29a17.405,17.405,0,0,1,2.215-2.082,2.539,2.539,0,0,1-2.215,2.082" transform="translate(-33.069 -58.61)" fill="#28d0af"/>
        <path id="Trazado_197380" data-name="Trazado 197380" d="M38.133,145.489l.75-.709c.2.257.315.6.085.813s-.557-.027-.836-.1" transform="translate(-16.408 -62.298)" fill="#d8dfe0"/>
        <path id="Trazado_197381" data-name="Trazado 197381" d="M25.787,20.186A5.639,5.639,0,1,1,14.51,20.2a5.7,5.7,0,0,1,5.646-5.665,5.637,5.637,0,0,1,5.632,5.65" transform="translate(-6.244 -6.255)" fill="#fbb97f"/>
        <path id="Trazado_197382" data-name="Trazado 197382" d="M83.013,92.426c.9.051.98.8,1.263,1.359a1.057,1.057,0,0,1-.124,1.364.944.944,0,0,1-1.2.136,2.953,2.953,0,0,1-.873-2.155.992.992,0,0,1,.932-.7" transform="translate(-35.309 -39.77)" fill="#242122"/>
        <path id="Trazado_197383" data-name="Trazado 197383" d="M48.6,102.745a.97.97,0,0,1-.939-1.02c-.012-.707.975-1.912,1.534-1.892a.942.942,0,0,1,.992,1.007c.018.7-.98,1.895-1.586,1.905" transform="translate(-20.509 -42.957)" fill="#242122"/>
        <path id="Trazado_197384" data-name="Trazado 197384" d="M92.312,86.5a.945.945,0,0,1-.909.988c-.737.083-1.951-1.323-1.777-2.039a.9.9,0,0,1,1.02-.745,2.576,2.576,0,0,1,1.666,1.8" transform="translate(-38.558 -36.446)" fill="#242022"/>
        <path id="Trazado_197385" data-name="Trazado 197385" d="M56.191,110.524c.092-1.04.816-1.94,1.5-1.819a.947.947,0,0,1,.853,1.124c-.115,1.076-.758,1.853-1.431,1.781a1.021,1.021,0,0,1-.92-1.086" transform="translate(-24.177 -46.77)" fill="#242223"/>
        <path id="Trazado_197386" data-name="Trazado 197386" d="M86.093,80.091a.91.91,0,0,1-.966.919c-.627.031-1.707-1.093-1.691-1.737a.933.933,0,0,1,.921-.971c.615-.069,1.713,1.031,1.736,1.789" transform="translate(-35.902 -33.691)" fill="#242122"/>
        <path id="Trazado_197387" data-name="Trazado 197387" d="M60.836,100.56a1,1,0,0,1,1,.983c.065.791-.714,1.931-1.315,1.927a.958.958,0,0,1-1.039-.97c-.055-.829.694-1.906,1.353-1.94" transform="translate(-25.594 -43.27)" fill="#242224"/>
        <path id="Trazado_197388" data-name="Trazado 197388" d="M75.613,90.428c.041.691-.1,1.273-.937,1.321s-1.057-.5-1.088-1.2c-.009-.186,0-.374-.016-.56-.043-.667.256-1.122.918-1.168s.992.417,1.077,1.048c.025.185.031.373.046.56" transform="translate(-31.656 -38.218)" fill="#242122"/>
        <path id="Trazado_197389" data-name="Trazado 197389" d="M76.271,106.524a2.553,2.553,0,0,1,.359,1.941.864.864,0,0,1-.852.826c-.733.075-1.009-.448-1.177-1.051,0-.185.011-.371.01-.557-.009-1.186.484-1.531,1.66-1.159" transform="translate(-32.101 -45.775)" fill="#252122"/>
        <path id="Trazado_197390" data-name="Trazado 197390" d="M75.031,81.7c.078.656-.1,1.3-.948,1.333-.8.034-1.015-.583-1.047-1.272A4.159,4.159,0,0,1,73,81.02a1,1,0,0,1,1.989-.052,5.946,5.946,0,0,1,.039.737" transform="translate(-31.408 -34.457)" fill="#242223"/>
        <path id="Trazado_197391" data-name="Trazado 197391" d="M74.147,98.875c-.073-.667.1-1.268.9-1.315s1.053.514,1.061,1.229c0,.186.042.371.047.558.018.648-.254,1.123-.93,1.164s-1.01-.382-1.053-1.041c-.012-.186-.019-.373-.029-.595" transform="translate(-31.899 -41.978)" fill="#232021"/>
        <path id="Trazado_197392" data-name="Trazado 197392" d="M65.055,93.58c-.021.984-.729,1.94-1.419,1.879a.9.9,0,0,1-.91-.966c-.018-.934.7-1.944,1.362-1.926a.952.952,0,0,1,.967,1.012" transform="translate(-26.99 -39.831)" fill="#232021"/>
        <path id="Trazado_197393" data-name="Trazado 197393" d="M91.56,73.327a.926.926,0,0,1-.994.923c-.663.017-1.829-.965-1.8-1.512a.957.957,0,0,1,1.009-1,2.2,2.2,0,0,1,1.787,1.585" transform="translate(-38.195 -30.87)" fill="#242123"/>
        <path id="Trazado_197394" data-name="Trazado 197394" d="M56.455,86.666c.466-.644.61-1.612,1.668-1.662.489.25.977.554.8,1.191a2.245,2.245,0,0,1-1.12,1.619c-.7.307-1.2-.154-1.348-1.147" transform="translate(-24.292 -36.577)" fill="#242022"/>
        <path id="Trazado_197395" data-name="Trazado 197395" d="M53.784,119.714a.922.922,0,0,1-.836-1.043c.027-.946.746-1.855,1.4-1.816a.931.931,0,0,1,.946,1.043c-.015.926-.754,1.841-1.509,1.815" transform="translate(-22.783 -50.282)" fill="#242122"/>
        <path id="Trazado_197396" data-name="Trazado 197396" d="M98.041,78.99c-.837-.019-1.877-.92-1.822-1.529a.934.934,0,0,1,.957-.942c.683-.031,1.842.921,1.8,1.492a.933.933,0,0,1-.937.979" transform="translate(-41.401 -32.926)" fill="#242122"/>
        <path id="Trazado_197397" data-name="Trazado 197397" d="M61.613,80.141a1.786,1.786,0,0,1,.638-2.56c.668-.263,1.043.167,1.38.645-.19,1.5-.91,2.185-2.018,1.915" transform="translate(-26.383 -33.348)" fill="#252223"/>
        <path id="Trazado_197398" data-name="Trazado 197398" d="M45.616,108.662c-.093.9-.913,1.8-1.515,1.728a.944.944,0,0,1-.9-1.086c.045-.782.916-1.695,1.514-1.625a.916.916,0,0,1,.9.983" transform="translate(-18.587 -46.332)" fill="#232021"/>
        <path id="Trazado_197399" data-name="Trazado 197399" d="M52.17,94.425c.019-.845.833-1.855,1.42-1.815a.972.972,0,0,1,1,1.008c.021.661-.907,1.76-1.446,1.724a.916.916,0,0,1-.97-.917" transform="translate(-22.448 -39.849)" fill="#242123"/>
        <path id="Trazado_197400" data-name="Trazado 197400" d="M39.838,117.793a1,1,0,0,1-.95-1.066c.013-.7.82-1.562,1.39-1.511a.939.939,0,0,1,.954,1.04c-.018.694-.836,1.562-1.393,1.538" transform="translate(-16.733 -49.576)" fill="#242223"/>
        <path id="Trazado_197401" data-name="Trazado 197401" d="M51.461,125.028a.969.969,0,1,1-.125,1.934.885.885,0,0,1-.92-.951.932.932,0,0,1,1.045-.983" transform="translate(-21.694 -53.799)" fill="#252324"/>
        <path id="Trazado_197402" data-name="Trazado 197402" d="M90.218,111.455c-.309,0-.613-.294-.767-.728-.206-.581-.759-1.136-.264-1.8a.955.955,0,0,1,1.228-.339,2.888,2.888,0,0,1,.995,2.077,1.066,1.066,0,0,1-1.191.792" transform="translate(-38.29 -46.682)" fill="#262223"/>
        <path id="Trazado_197403" data-name="Trazado 197403" d="M94.861,118.286a1.115,1.115,0,0,1-1.157,1.246c-.845-.318-1.029-1.105-1.235-1.837a.885.885,0,0,1,.637-1.092.913.913,0,0,1,1.2.415,13.249,13.249,0,0,1,.554,1.268" transform="translate(-39.773 -50.14)" fill="#242122"/>
        <path id="Trazado_197404" data-name="Trazado 197404" d="M97.264,93.716a2.376,2.376,0,0,1-1.756-1.759.956.956,0,0,1,1.018-.987c.565-.015,1.633,1.112,1.647,1.706a.974.974,0,0,1-.909,1.04" transform="translate(-41.096 -39.144)" fill="#262223"/>
        <path id="Trazado_197405" data-name="Trazado 197405" d="M106.3,82.787a.939.939,0,0,1-.99.931c-.652.028-1.831-.968-1.813-1.513a.973.973,0,0,1,1-1.016,2.274,2.274,0,0,1,1.8,1.6" transform="translate(-44.533 -34.935)" fill="#262223"/>
        <path id="Trazado_197406" data-name="Trazado 197406" d="M109.854,104.509c.4.537.667,1.106.037,1.633s-1.147.167-1.63-.281c-.145-.159-.293-.318-.438-.479a.892.892,0,0,1-.014-1.328.935.935,0,0,1,1.405-.072c.216.171.427.351.64.526" transform="translate(-46.265 -44.621)" fill="#242021"/>
        <path id="Trazado_197407" data-name="Trazado 197407" d="M102.579,97.4c.605,0,1.754,1.1,1.718,1.667a.991.991,0,0,1-1,1.019,2.359,2.359,0,0,1-1.67-1.675.943.943,0,0,1,.956-1.011" transform="translate(-43.728 -41.909)" fill="#262223"/>
        <path id="Trazado_197408" data-name="Trazado 197408" d="M87.885,102.493a.914.914,0,0,1-1,.872c-.6.02-1.4-1.05-1.371-1.87a.944.944,0,0,1,1-1c.613-.013,1.362,1.038,1.367,2" transform="translate(-36.797 -43.241)" fill="#252122"/>
        <path id="Trazado_197409" data-name="Trazado 197409" d="M98.01,125.766a.916.916,0,0,1-.958,1.023,1.178,1.178,0,0,1-1.129-1.229.952.952,0,0,1,1.023-.983c.717,0,.968.559,1.063,1.19" transform="translate(-41.275 -53.604)" fill="#242223"/>
        <path id="Trazado_197410" data-name="Trazado 197410" d="M57.459,73.238a2.309,2.309,0,0,1-1.743,1.783.939.939,0,0,1-.98-.922c-.052-.576,1.064-1.748,1.7-1.742a.93.93,0,0,1,1.024.882" transform="translate(-23.552 -31.134)" fill="#262223"/>
        <path id="Trazado_197411" data-name="Trazado 197411" d="M41.581,85.883c.007-.934.823-1.255,1.356-1.791a1.033,1.033,0,0,1,1.3.617c.231.594-.128.988-.549,1.36-1.033.914-1.536.878-2.11-.186" transform="translate(-17.892 -36.17)" fill="#242021"/>
        <path id="Trazado_197412" data-name="Trazado 197412" d="M50.9,79.132a2.277,2.277,0,0,1-1.767,1.736.916.916,0,0,1-.957-.933c-.043-.579,1.1-1.737,1.721-1.717a.937.937,0,0,1,1,.913" transform="translate(-20.728 -33.657)" fill="#242021"/>
        <path id="Trazado_197413" data-name="Trazado 197413" d="M26.531,68.592A30.539,30.539,0,0,1,41.816,55.275a5.523,5.523,0,0,1,.624-.179,1.963,1.963,0,0,1,1.833,1.352,2.08,2.08,0,0,1-.807,2.135q-6.221,6.18-12.409,12.394a2.667,2.667,0,0,1-3.273.735,2.728,2.728,0,0,1-1.252-3.12" transform="translate(-11.387 -23.708)" fill="#fefefe"/>
        <path id="Trazado_197414" data-name="Trazado 197414" d="M129.112,149.992q.012-3.09.023-6.18a26.392,26.392,0,0,1,.13,4.729,2.179,2.179,0,0,1-.154,1.451" transform="translate(-55.556 -61.882)" fill="#76dbf0"/>
      </g>
    </g>
  </g>
</svg>
