<svg xmlns="http://www.w3.org/2000/svg" xmlns:xlink="http://www.w3.org/1999/xlink" width="117" height="117" viewBox="0 0 117 117">
  <defs>
    <clipPath id="clip-path">
      <rect id="Rect치ngulo_46102" data-name="Rect치ngulo 46102" width="85.063" height="96.613" fill="none"/>
    </clipPath>
  </defs>
  <g id="Grupo_154485" data-name="Grupo 154485" transform="translate(-425.321 -2215)">
    <rect id="Rect치ngulo_46091" data-name="Rect치ngulo 46091" width="117" height="117" transform="translate(425.321 2215)" fill="none"/>
    <g id="Grupo_154493" data-name="Grupo 154493" transform="translate(441.321 2225)">
      <g id="Grupo_154493-2" data-name="Grupo 154493" clip-path="url(#clip-path)">
        <path id="Trazado_197241" data-name="Trazado 197241" d="M48.925,95.162a1.639,1.639,0,0,1-1.891,1.445Q24.445,96.586,1.856,96.6C.66,96.6,0,96.078,0,95.163s.659-1.438,1.846-1.442c1.916-.006,3.834-.021,5.75.01.551.009.733-.148.84-.714a11.866,11.866,0,0,1,5.523-8.148,1.968,1.968,0,0,0,.8-.883,9.477,9.477,0,0,1,8.56-5.86,1.039,1.039,0,0,0,.935-.592,8.7,8.7,0,0,1,7.654-4.353,1.036,1.036,0,0,0,.946-.425A11.876,11.876,0,0,1,40.44,68.1c.607-.111.664-.349.662-.853-.018-3.286-.032-6.571.009-9.856.009-.713-.24-.83-.874-.825-2.9.023-5.809.14-8.639-.79a18.342,18.342,0,0,1-8.015-5.135c-.883-.97-.909-1.44-.148-2.511a1.7,1.7,0,0,1,2.262.541A15.26,15.26,0,0,0,29.952,52c3.365,1.864,7.029,1.753,10.693,1.7.478-.007.449-.3.448-.617,0-1.2.034-2.394-.007-3.59A15.06,15.06,0,0,0,33.41,36.411C29.961,34.32,26.13,34.3,22.281,34.382c-.428.009-.511.21-.505.573.036,2.422-.2,4.866.46,7.242a1.619,1.619,0,0,1-.881,2.122,1.579,1.579,0,0,1-1.907-1.386,28.807,28.807,0,0,1-.547-7.443c0-.821-.012-1.642,0-2.462a1.317,1.317,0,0,1,1.286-1.46c4.33-.075,8.689-.4,12.819,1.435a18.834,18.834,0,0,1,8.077,6.817c0-2.23,0-4.221,0-6.211,0-.352-.333-.5-.537-.711a44.289,44.289,0,0,1-5.122-5.586,17.636,17.636,0,0,1-2.57-5.761c-.272-1.14-.061-1.557,1.047-2.081a1.47,1.47,0,0,1,1.669,1.187c.893,4.1,3.607,6.964,6.514,9.712.362.343.578.336.911-.013,1.015-1.063,2.124-2.043,3.078-3.157a15.008,15.008,0,0,0,3.488-13.17c-.827-4.371-3.687-7.368-6.739-10.259-.233-.22-.39-.172-.6.029C39.4,6.509,36.614,9.246,35.7,13.268c-.221.97-.7,1.627-1.8,1.584-1.156-.594-1.34-.97-1.023-2.2a17.541,17.541,0,0,1,4.435-7.969q2-2.067,4.06-4.076c.756-.741,1.482-.823,2.17-.14a57.425,57.425,0,0,1,5.552,5.766,18.03,18.03,0,0,1-1.417,23.488c-1.047,1.083-2.133,2.128-3.191,3.2-.23.232-.521.415-.517.831.018,1.933.008,3.866.008,6.055a19.442,19.442,0,0,1,3.936-4.323,18.127,18.127,0,0,1,11.2-3.964c1.746-.033,3.494-.023,5.24-.007,1.31.013,1.837.518,1.813,1.8-.061,3.276.264,6.567-.589,9.807A18.1,18.1,0,0,1,48.746,56.562c-1.335.041-2.672.035-4.006.009-.532-.01-.789.073-.783.706.031,3.356.025,6.711,0,10.068,0,.51.146.656.658.751a11.911,11.911,0,0,1,7.592,4.661,1.039,1.039,0,0,0,.947.426,8.7,8.7,0,0,1,7.655,4.359,1.04,1.04,0,0,0,.942.583,9.49,9.49,0,0,1,8.519,5.781,2.175,2.175,0,0,0,.849.966,11.884,11.884,0,0,1,5.506,8.167c.11.6.341.694.863.688,1.918-.024,3.836-.015,5.753-.008,1.168.005,1.842.56,1.818,1.473-.022.87-.679,1.4-1.785,1.4-5.479.005-10.959-.005-16.439.008a1.538,1.538,0,0,1-1.772-1.435c.145-1.092.811-1.474,1.86-1.459,2.019.03,4.04-.016,6.058.022.727.014.883-.186.681-.883A9.2,9.2,0,0,0,69.2,87.095a2.433,2.433,0,0,1-1.318-1.35,6.469,6.469,0,0,0-5.56-4.683,6.564,6.564,0,0,0-6.436,2.8c-.647.851-1.4,1-2.115.473a1.466,1.466,0,0,1-.2-2.173A9.016,9.016,0,0,1,57.4,79.008c.67-.292.628-.547.186-1.01A5.8,5.8,0,0,0,52.4,76.117a1.805,1.805,0,0,1-1.98-.879c-3.985-5.978-11.787-5.961-15.8.03a1.739,1.739,0,0,1-1.895.857,5.822,5.822,0,0,0-5.207,1.828c-.468.477-.56.757.173,1.075a8.784,8.784,0,0,1,3.875,3.26,1.426,1.426,0,0,1-.777,2.294c-.852.226-1.3-.322-1.773-.912a6.519,6.519,0,0,0-6.224-2.621A6.441,6.441,0,0,0,17.3,85.4a3.046,3.046,0,0,1-1.479,1.72A8.948,8.948,0,0,0,11.5,92.5c-.381,1.21-.371,1.214.928,1.214q17.252,0,34.505-.01c1.074,0,1.8.324,1.988,1.454M47.129,53.7c6.246.129,11.031-2.418,14.242-7.811,2.045-3.437,2-7.244,1.917-11.056-.011-.475-.316-.445-.63-.444-1.232,0-2.465-.037-3.695.016a15.173,15.173,0,0,0-12.68,7.16c-2.36,3.576-2.438,7.6-2.317,11.664.013.454.262.475.6.473.855-.007,1.711,0,2.566,0" transform="translate(0 0)" fill="#030302"/>
        <path id="Trazado_197242" data-name="Trazado 197242" d="M54.9,132.621c-.191-1.131-.913-1.457-1.988-1.455q-17.252.026-34.505.011c-1.3,0-1.309,0-.928-1.215a8.95,8.95,0,0,1,4.317-5.383,3.044,3.044,0,0,0,1.479-1.72,6.442,6.442,0,0,1,5.493-4.353,6.52,6.52,0,0,1,6.225,2.621c.468.59.921,1.139,1.773.913a1.427,1.427,0,0,0,.777-2.3,8.785,8.785,0,0,0-3.875-3.259c-.733-.318-.641-.6-.173-1.075a5.821,5.821,0,0,1,5.207-1.828,1.74,1.74,0,0,0,1.895-.857c4.014-5.992,11.815-6.008,15.8-.031a1.806,1.806,0,0,0,1.98.88,5.8,5.8,0,0,1,5.188,1.882c.441.462.484.717-.186,1.009a9.017,9.017,0,0,0-3.833,3.158,1.466,1.466,0,0,0,.2,2.173c.719.529,1.469.379,2.116-.473a6.563,6.563,0,0,1,6.436-2.805,6.469,6.469,0,0,1,5.56,4.684,2.433,2.433,0,0,0,1.318,1.35,9.2,9.2,0,0,1,4.469,5.754c.2.7.046.9-.681.883-2.018-.039-4.039.008-6.059-.022-1.048-.016-1.714.366-1.859,1.458H66.452A1.558,1.558,0,0,0,64.6,131.17c-1.057.033-2.119.048-3.175,0a1.714,1.714,0,0,0-2.009,1.448l-4.514.007m-6.376-16.074c-1.21,0-1.852.481-1.865,1.406-.013.9.7,1.473,1.829,1.476,1.151,0,1.855-.539,1.865-1.44.009-.93-.637-1.439-1.829-1.442m-8.668,8.219c-1.193,0-1.837.513-1.826,1.444.01.9.713,1.444,1.865,1.439,1.132,0,1.843-.579,1.829-1.478-.015-.923-.66-1.408-1.867-1.405m17.35,0c-1.277-.013-1.935.488-1.914,1.458.018.866.694,1.409,1.777,1.425,1.163.018,1.873-.5,1.914-1.389.043-.934-.608-1.481-1.777-1.493" transform="translate(-5.974 -37.459)" fill="#b26515"/>
        <path id="Trazado_197243" data-name="Trazado 197243" d="M51.744,16.769c1.1.044,1.578-.615,1.8-1.584.918-4.021,3.7-6.758,6.526-9.471.209-.2.366-.249.6-.028,3.052,2.89,5.912,5.887,6.739,10.259a15.006,15.006,0,0,1-3.487,13.17c-.954,1.114-2.063,2.094-3.078,3.157-.333.349-.549.356-.911.013-2.906-2.748-5.62-5.615-6.514-9.712a1.47,1.47,0,0,0-1.669-1.187,14.931,14.931,0,0,1,0-4.616" transform="translate(-17.849 -1.918)" fill="#a9e034"/>
        <path id="Trazado_197244" data-name="Trazado 197244" d="M32.658,62.505a1.619,1.619,0,0,0,.881-2.121c-.655-2.376-.424-4.82-.46-7.242-.005-.363.078-.564.506-.573,3.849-.078,7.68-.062,11.128,2.03A15.059,15.059,0,0,1,52.39,67.683c.041,1.195.005,2.393.007,3.59,0,.316.029.609-.449.617-3.664.055-7.327.165-10.692-1.7A15.256,15.256,0,0,1,37,66.861a1.7,1.7,0,0,0-2.261-.539,16.818,16.818,0,0,1-2.081-3.816" transform="translate(-11.304 -18.188)" fill="#aae034"/>
        <path id="Trazado_197245" data-name="Trazado 197245" d="M81.728,144.757a1.714,1.714,0,0,1,2.009-1.448c1.056.053,2.118.037,3.175,0a1.558,1.558,0,0,1,1.854,1.456A1.528,1.528,0,0,1,87,146.2c-1.092-.022-2.187-.046-3.277.006a1.7,1.7,0,0,1-2-1.454" transform="translate(-28.289 -49.602)" fill="#030302"/>
        <path id="Trazado_197246" data-name="Trazado 197246" d="M70.385,71.9c-.855,0-1.711,0-2.566,0-.335,0-.583-.019-.6-.473-.12-4.067-.043-8.088,2.317-11.664a15.173,15.173,0,0,1,12.68-7.16c1.23-.052,2.463-.013,3.695-.016.314,0,.619-.031.63.444.086,3.812.128,7.619-1.917,11.056-3.211,5.393-8,7.94-14.242,7.811" transform="translate(-23.256 -18.197)" fill="#a9e034"/>
        <path id="Trazado_197247" data-name="Trazado 197247" d="M64.086,120.954c1.193,0,1.838.513,1.829,1.442-.009.9-.714,1.445-1.865,1.44-1.132,0-1.842-.577-1.829-1.476.014-.925.656-1.41,1.865-1.406" transform="translate(-21.537 -41.866)" fill="#070401"/>
        <path id="Trazado_197248" data-name="Trazado 197248" d="M50.849,133.524c1.208,0,1.852.482,1.867,1.405.014.9-.7,1.473-1.828,1.478-1.151.005-1.854-.538-1.865-1.439-.011-.931.634-1.44,1.826-1.444" transform="translate(-16.968 -46.217)" fill="#070401"/>
        <path id="Trazado_197249" data-name="Trazado 197249" d="M77.337,133.524c1.168.012,1.82.56,1.777,1.493-.041.891-.751,1.407-1.914,1.389-1.082-.016-1.758-.558-1.777-1.425-.021-.97.637-1.471,1.914-1.458" transform="translate(-26.106 -46.217)" fill="#070401"/>
      </g>
    </g>
  </g>
</svg>
