<svg xmlns="http://www.w3.org/2000/svg" xmlns:xlink="http://www.w3.org/1999/xlink" width="117" height="117" viewBox="0 0 117 117">
  <defs>
    <clipPath id="clip-path">
      <rect id="Rect치ngulo_46105" data-name="Rect치ngulo 46105" width="94.509" height="97.707" fill="none"/>
    </clipPath>
  </defs>
  <g id="Grupo_154483" data-name="Grupo 154483" transform="translate(-425.322 -2215)">
    <rect id="Rect치ngulo_46091" data-name="Rect치ngulo 46091" width="117" height="117" transform="translate(425.322 2215)" fill="none"/>
    <g id="Grupo_154496" data-name="Grupo 154496" transform="translate(436.321 2225)">
      <g id="Grupo_154496-2" data-name="Grupo 154496" clip-path="url(#clip-path)">
        <path id="Trazado_197287" data-name="Trazado 197287" d="M100.3,115.276c-.892-1.512-.732-3.19-.944-4.784-.4-3.021-.7-6.056-1.024-9.088-.046-.429-.076-.688-.633-.794a1.511,1.511,0,0,1-1.234-1.637c0-2.1-.018-4.2.005-6.306a1.627,1.627,0,0,1,1.8-1.745c1.833-.064,1.831-.065,2.269-1.853.193-.789.386-1.577.6-2.359a2.808,2.808,0,0,1,2.938-2.3q7.018-.019,14.035,0a2.819,2.819,0,0,1,2.99,2.354c.315,1.176.627,2.354.887,3.542.108.494.323.659.814.616,2.7-.234,3.074.607,2.977,3.024-.064,1.591-.029,3.186-.006,4.779.014,1.015-.371,1.747-1.4,1.92-.537.089-.425.415-.46.718-.458,4-.928,8.008-1.352,12.017a5.68,5.68,0,0,1-.61,1.867c.585.249,1.2.361,1.772.623,2.809,1.3,2.783,7.327.1,8.637a4.8,4.8,0,0,1-2.125.592q-8.866,0-17.733,0a16.244,16.244,0,0,0-3.5-.026,2.644,2.644,0,0,1-1.66-.376c-2.41-1.174-2.456-3.346-2.325-5.577a4.015,4.015,0,0,1,3.043-3.64c.227-.064.455-.126.782-.215m10.885-14.586c-2.948,0-5.9.014-8.845-.011-.582,0-.839.057-.751.761.373,2.99.647,5.992,1.032,8.98.15,1.163-.024,2.421.641,3.464a8.784,8.784,0,0,1,1.345,5.8c-.031.3.034.616-.011.914-.147.966.129,1.319,1.213,1.288,3.115-.09,6.235-.018,9.352-.042.8-.006,1.858.367,2.324-.172.392-.453.194-1.487.125-2.252a8.14,8.14,0,0,1,1.252-5.312,4.294,4.294,0,0,0,.567-1.926c.392-3.568.776-7.136,1.2-10.7.074-.624-.04-.812-.7-.8-2.914.036-5.829.016-8.743.016m-.086-6.511h-9.155c-2.234,0-2.2,0-2.245,2.277-.018.806.213,1,1,1,6.477-.033,12.953-.018,19.43-.018,2.417,0,2.39,0,2.394-2.431,0-.67-.188-.845-.847-.839-3.527.032-7.053.015-10.58.015m-.087-3.257H116.3c2.556,0,2.535.005,1.9-2.507-.155-.613-.432-.766-1.032-.761-3.491.028-6.982.014-10.472.014-2.583,0-2.57,0-3.1,2.52-.118.567-.026.758.6.749,2.27-.036,4.541-.014,6.812-.014m-9.668,29.336c0-.236,0-.473,0-.71,0-.56-.25-.934-.828-.924s-.807.4-.8.957c.008.473-.008.946.007,1.418a.756.756,0,0,0,.822.826.768.768,0,0,0,.793-.858c0-.236,0-.473,0-.709m21.164.038c0-.236,0-.473,0-.709.014-.552-.209-.949-.791-.963s-.836.356-.833.918c0,.473,0,.945,0,1.418a.769.769,0,0,0,.787.864.76.76,0,0,0,.83-.82c.011-.236,0-.473,0-.709" transform="translate(-31.322 -27.415)" fill="#020201"/>
        <path id="Trazado_197288" data-name="Trazado 197288" d="M25.488,115.266a5.185,5.185,0,0,1,3.385,7.632,3.714,3.714,0,0,1-3.625,2.169c-.973-.054-1.925.02-2.887.026q-7.678.047-15.357,0a13.855,13.855,0,0,0-2.889-.01,2.826,2.826,0,0,1-1.762-.382c-2.406-1.18-2.446-3.355-2.313-5.584A4.009,4.009,0,0,1,3.1,115.488c.227-.065.454-.126.691-.192-.854-2.2-.776-4.552-1.089-6.836-.327-2.382-.556-4.778-.807-7.169-.039-.373-.088-.564-.538-.654A1.6,1.6,0,0,1,.026,98.859c.009-2-.005-4,.006-6,.007-1.332.595-1.912,1.916-1.938,1.716-.032,1.717-.032,2.12-1.664.219-.886.411-1.78.656-2.658a2.8,2.8,0,0,1,2.826-2.182q7.119-.026,14.238,0A2.793,2.793,0,0,1,24.65,86.68c.317,1.175.6,2.358.88,3.544.11.472.259.76.848.708,2.7-.235,3.061.6,2.965,3.03-.062,1.591-.027,3.186-.006,4.779a1.653,1.653,0,0,1-1.414,1.911c-.547.089-.415.43-.448.727-.46,4-.928,8.008-1.355,12.016a5.09,5.09,0,0,1-.631,1.87M14.733,100.689c-2.947,0-5.9.016-8.842-.013-.618-.007-.814.115-.732.782.368,2.99.642,5.991,1.03,8.978.155,1.193,0,2.467.691,3.554a8.291,8.291,0,0,1,1.3,5.5c-.055.5.032,1.02-.018,1.523-.065.654.149.858.828.851,3.218-.037,6.437-.013,9.655-.02.808,0,1.876.271,2.356-.136.569-.481.232-1.6.169-2.417a7.932,7.932,0,0,1,1.226-5.117,4.458,4.458,0,0,0,.606-2.02c.388-3.566.772-7.134,1.2-10.7.079-.658-.1-.794-.726-.787-2.914.031-5.827.014-8.741.014m-.1-3.257h9.252c2.2,0,2.157,0,2.214-2.212.021-.837-.188-1.068-1.047-1.063-6.473.039-12.945.022-19.418.022-2.371,0-2.342,0-2.363,2.365-.006.7.165.915.891.906,3.489-.039,6.98-.018,10.471-.018m-.056-6.511h5.283c2.566,0,2.544.005,1.906-2.506-.155-.612-.433-.767-1.034-.762-3.488.028-6.977.014-10.466.014-2.593,0-2.581,0-3.1,2.514-.116.562-.03.764.6.754,2.269-.035,4.538-.014,6.807-.014M3.29,120.149h0c0,.236,0,.472,0,.708-.011.549.209.949.79.965s.835-.358.835-.918c0-.472,0-.945,0-1.417a.767.767,0,0,0-.785-.864.759.759,0,0,0-.831.817c-.013.236,0,.473,0,.709m22.776.111h.007c0-.236,0-.473,0-.708,0-.558-.246-.936-.825-.927s-.808.4-.8.955c.007.472-.008.945.007,1.417a.761.761,0,0,0,.82.829.744.744,0,0,0,.787-.756c.022-.268,0-.539,0-.809" transform="translate(0 -27.414)" fill="#010202"/>
        <path id="Trazado_197289" data-name="Trazado 197289" d="M73.739,115.263c4.055.833,4.3,4.163,3.514,7.215a3.7,3.7,0,0,1-3.739,2.6c-.97-.053-1.924,0-2.886.01q-7.729.071-15.458,0a17.774,17.774,0,0,0-2.888,0,3.006,3.006,0,0,1-1.85-.448c-2.348-1.263-2.318-3.467-2.156-5.674a3.973,3.973,0,0,1,3.086-3.494c.227-.063.454-.124.652-.178-.9-2.185-.781-4.523-1.1-6.784-.332-2.381-.56-4.777-.806-7.169-.043-.416-.105-.614-.595-.716a1.566,1.566,0,0,1-1.273-1.715c.005-2.068-.014-4.136.007-6.2a1.631,1.631,0,0,1,1.762-1.783c1.866-.078,1.864-.079,2.315-1.917.2-.821.39-1.646.625-2.458a2.789,2.789,0,0,1,2.765-2.129q7.17-.029,14.34,0a2.783,2.783,0,0,1,2.8,2.214c.33,1.207.623,2.424.906,3.642.1.441.24.714.783.656,2.582-.279,3.134.477,3.015,3.086-.072,1.59-.026,3.186-.009,4.779a1.623,1.623,0,0,1-1.365,1.847c-.5.089-.46.356-.5.688-.454,4.04-.93,8.077-1.356,12.119a6.852,6.852,0,0,1-.595,1.814M62.888,100.69c-2.916,0-5.832.022-8.748-.016-.706-.009-.834.2-.753.866.355,2.891.623,5.793,1,8.681.159,1.231-.027,2.564.667,3.666a8.921,8.921,0,0,1,1.34,5.807c-.043.437.032.885-.016,1.321-.072.658.157.862.833.853,2.95-.036,5.9-.009,8.85-.019,1.078,0,2.5.356,3.14-.186.673-.567.234-2.039.186-3.106a6.528,6.528,0,0,1,.914-3.775,6.373,6.373,0,0,0,.931-2.656q.541-5.307,1.18-10.6c.085-.7-.106-.853-.774-.845-2.916.032-5.832.014-8.749.014m.1-6.511H53.741c-2.251,0-2.212,0-2.259,2.273-.017.812.224,1,1.011,1,6.469-.032,12.938-.018,19.408-.018,2.437,0,2.41,0,2.407-2.427,0-.673-.2-.847-.856-.841-3.488.03-6.977.014-10.466.014m-.147-3.258c2.334,0,4.668-.015,7,.011.56.006.726-.161.576-.7a18.7,18.7,0,0,1-.458-1.868c-.1-.588-.4-.72-.966-.715-3.518.027-7.036.014-10.553.014-2.524,0-2.51,0-3.046,2.456-.133.608-.045.828.648.815,2.265-.043,4.532-.016,6.8-.016m-9.72,29.34h.007c0-.236,0-.472,0-.708,0-.556-.246-.936-.824-.927s-.808.4-.8.953c.007.505-.019,1.013.019,1.516a.734.734,0,0,0,.807.731.75.75,0,0,0,.787-.756c.023-.267,0-.539,0-.808m21.164.082h0c0-.269,0-.539,0-.809,0-.56-.265-.924-.842-.909a.768.768,0,0,0-.778.872c-.005.505-.017,1.011,0,1.517a.8.8,0,0,0,1.607.038c.018-.234,0-.472,0-.708" transform="translate(-15.659 -27.414)" fill="#010202"/>
        <path id="Trazado_197290" data-name="Trazado 197290" d="M17.762,51.308c0-1.418.013-2.663,0-3.908a1.7,1.7,0,0,1,1.477-1.872c1.448-.338,2.878-.759,4.333-1.06,1.213-.25.617-1.147.683-1.766.078-.741-.571-.363-.885-.4-.6-.066-1.221.007-1.828-.034a3.989,3.989,0,0,1-3.755-3.852c-.045-5.73-.023-11.46-.008-17.189a3.957,3.957,0,0,1,.254-1.18c.6-1.832,1.147-3.682,1.835-5.479a16.129,16.129,0,0,0,1.182-6.722,2.769,2.769,0,0,1,2.973-3c1.322-.02,2.645-.033,3.967.008a2.618,2.618,0,0,1,2.739,2.58c-.356,4.032,1.442,7.517,2.587,11.162a14.77,14.77,0,0,1,.747,4.662c-.05,4.848-.014,9.7-.019,14.545a4.112,4.112,0,0,1-4.484,4.481c-2.026.007-2.026.007-2.026,2.045,0,.339-.007.678,0,1.017a1.669,1.669,0,0,1-1.413,1.824c-1.474.369-2.943.762-4.423,1.1-.5.115-.741.29-.691.853.059.664.014,1.338.014,2.009.342.042.425-.238.606-.36a1.638,1.638,0,0,1,2.212.165,1.568,1.568,0,0,1,0,2.207q-1.6,1.707-3.3,3.312a1.565,1.565,0,0,1-2.358-.066c-1.028-.984-2.027-2-3.021-3.02a1.643,1.643,0,1,1,2.228-2.393c.076.061.149.126.381.324m3.906-31.842h8.466c-.375-1.132-.715-2.221-1.1-3.3-.37-1.043-.363-2.533-1.185-3.017-.859-.506-2.226-.148-3.371-.167-.068,0-.136,0-.2,0a.508.508,0,0,0-.6.4c-.656,2.014-1.326,4.023-2.009,6.085M25.8,32.518h2.539c2.515,0,2.5,0,2.462-2.54-.007-.573-.158-.736-.731-.727-2.2.032-4.4.013-6.6.013-2.582,0-2.567,0-2.46,2.642.02.483.14.634.629.623,1.388-.03,2.776-.011,4.165-.011m0-6.512h2.539c2.515,0,2.5,0,2.462-2.539-.007-.573-.158-.737-.731-.728-2.2.032-4.4.013-6.6.013-2.582,0-2.567,0-2.46,2.642.02.484.14.634.629.623,1.388-.03,2.776-.011,4.165-.011m.1,9.769H23.056c-2.078,0-2.046,0-2.051,2.033,0,.943.4,1.247,1.293,1.232,2-.033,3.994-.01,5.991-.01,2.637,0,2.62,0,2.51-2.649-.021-.494-.158-.625-.635-.616-1.421.028-2.843.01-4.265.01M25.916,8.1a6.539,6.539,0,0,1-.806-.005c-.627-.079-.849.115-.866.8-.019.776.294.9.938.837a8.767,8.767,0,0,1,1.409,0c.6.041.979.015.971-.806-.007-.77-.3-.914-.941-.832a5.577,5.577,0,0,1-.7,0" transform="translate(-4.71 -1.569)" fill="#010202"/>
        <path id="Trazado_197291" data-name="Trazado 197291" d="M64.539,51.221a6.973,6.973,0,0,1,1.1-.691,1.481,1.481,0,0,1,1.807.538,1.436,1.436,0,0,1-.007,1.961c-1.126,1.218-2.3,2.4-3.516,3.523a1.525,1.525,0,0,1-2.269-.2c-1-.965-1.978-1.953-2.95-2.945a1.668,1.668,0,0,1-.266-2.431c.656-.742,1.548-.723,2.51.051.069.055.146.1.334.232,0-2.9-.014-5.7.01-8.495.005-.658-.427-.473-.754-.474-2.406-.009-4.813,0-7.219-.006a4.7,4.7,0,0,1-5.059-5.077c0-4.643,0-9.286-.007-13.93a3.848,3.848,0,0,1,.3-1.576c1.528-3.533,3.062-7.065,4.55-10.615a1.989,1.989,0,0,1,2.1-1.373c2.236.041,4.475-.016,6.71.028.744.015,1.13-.111,1.005-.961a7.908,7.908,0,0,1-.006-1.523,2.406,2.406,0,0,1,2.395-2.4q2.489-.063,4.982,0a2.218,2.218,0,0,1,2.331,2.31c-.455,3.377,1.091,6.1,2.589,8.849a6.158,6.158,0,0,1,.736,3.1c-.035,6-.014,12-.018,18,0,3.269-1.9,5.166-5.169,5.171-1.83,0-3.661.02-5.491-.011-.545-.009-.841.1-.737.7a1.761,1.761,0,0,1,0,.3Zm8.138-23.138c0-1.627-.13-3.267.027-4.878a14.1,14.1,0,0,0-2.263-9.431.345.345,0,0,1-.039-.093c-.172-.582-.56-.715-1.149-.711q-6.3.038-12.609,0a1,1,0,0,0-1.115.718c-1.234,2.964-2.519,5.906-3.793,8.853a2.872,2.872,0,0,0-.226,1.18c.008,4.474,0,8.948.007,13.422,0,1.413.472,1.882,1.889,1.883q8.695.005,17.389,0c1.41,0,1.878-.475,1.88-1.894q.008-4.524,0-9.05M67.8,9.726a5.815,5.815,0,0,1,.8.006c.662.095.836-.171.842-.826.007-.678-.212-.88-.854-.817a8.414,8.414,0,0,1-1.51,0c-.631-.053-.947.043-.95.828,0,.806.352.875.962.812a6.815,6.815,0,0,1,.7,0" transform="translate(-15.673 -1.567)" fill="#010101"/>
        <path id="Trazado_197292" data-name="Trazado 197292" d="M111.976,49.608c1.411-.933,2.225-.964,2.887-.15s.457,1.627-.708,2.792c-.839.839-1.665,1.691-2.523,2.511a1.619,1.619,0,0,1-2.577-.009c-.927-.894-1.828-1.816-2.737-2.728-.976-.98-1.118-1.9-.417-2.651s1.587-.673,2.815.346c0-.864-.015-1.614.005-2.365.014-.514-.353-.48-.681-.546-1.956-.393-3.913-.786-5.867-1.191-1.193-.247-1.579-.734-1.6-1.958,0-.068,0-.136,0-.2a6.139,6.139,0,0,0-.068-2.41c-.375-.79-1.429-.231-2.176-.411A5.336,5.336,0,0,1,94.074,35.4c-.02-5.424,0-10.849-.007-16.272A6.739,6.739,0,0,1,94.8,16.1c.556-1.121,1.1-2.248,1.683-3.353a7.506,7.506,0,0,0,.856-3.917c-.018-.414-.061-.644-.529-.782A1.538,1.538,0,0,1,95.7,6.411c0-1.153-.033-2.307.011-3.458A3,3,0,0,1,98.651.034q3.558-.067,7.119,0a2.994,2.994,0,0,1,2.937,2.925c.047,1.185.022,2.373.005,3.559A1.446,1.446,0,0,1,107.693,8c-.533.161-.6.436-.618.932a6.682,6.682,0,0,0,.925,3.9,16.493,16.493,0,0,1,2.394,9.968c-.2,4.092-.038,8.2-.048,12.3a5.325,5.325,0,0,1-5.6,5.629c-.343.006-1.01-.319-.9.5.079.589-.456,1.407.787,1.579,1.939.267,3.85.739,5.768,1.151,1.19.255,1.563.748,1.571,1.981.007,1.21,0,2.42,0,3.669M97.324,27.084q0,3.913,0,7.826c0,1.816.718,2.544,2.5,2.55q2.338.009,4.676,0c1.87,0,2.583-.71,2.585-2.572,0-4.235-.108-8.474.04-12.7a12.676,12.676,0,0,0-1.758-7.348,10.609,10.609,0,0,1-1.518-4.376c-.086-.758.358-1.822-.235-2.2s-1.575-.1-2.388-.1a.844.844,0,0,1-.1,0c-.469-.066-.556.18-.558.593a20.947,20.947,0,0,1-.109,2.228,13.929,13.929,0,0,1-2.024,5.055A8.724,8.724,0,0,0,97.3,20.784c.1,2.1.023,4.2.023,6.3M102.189,4.9c.88,0,1.764-.048,2.639.015.706.051.659-.351.637-.81-.02-.411.155-.87-.6-.848q-2.637.077-5.279,0c-.7-.021-.658.353-.636.812.02.411-.157.9.6.846.876-.06,1.76-.014,2.639-.014" transform="translate(-30.551 0)" fill="#020202"/>
        <path id="Trazado_197293" data-name="Trazado 197293" d="M113.661,108.516c2.914,0,5.829.021,8.743-.016.662-.007.776.181.7.8-.424,3.564-.807,7.133-1.2,10.7a4.306,4.306,0,0,1-.567,1.926,8.144,8.144,0,0,0-1.253,5.313c.07.765.267,1.8-.125,2.253-.465.54-1.525.165-2.324.172-3.117.023-6.237-.049-9.352.041-1.084.031-1.36-.321-1.213-1.287.045-.3-.02-.612.011-.914a8.784,8.784,0,0,0-1.345-5.8c-.664-1.043-.491-2.3-.641-3.464-.386-2.988-.659-5.99-1.032-8.981-.088-.7.168-.766.75-.761,2.948.024,5.9.011,8.845.011m4.813,8.119c0-1.015.016-2.03,0-3.045a1.64,1.64,0,0,0-1.829-1.814q-3.044-.028-6.09,0a1.631,1.631,0,0,0-1.839,1.8q-.03,3.1,0,6.191a1.611,1.611,0,0,0,1.773,1.764q3.1.032,6.192,0a1.642,1.642,0,0,0,1.792-1.852c.017-1.014,0-2.03,0-3.044" transform="translate(-33.795 -35.24)" fill="#f9b440"/>
        <path id="Trazado_197294" data-name="Trazado 197294" d="M112.674,98.873c3.527,0,7.053.017,10.58-.015.66-.006.848.168.847.839,0,2.43.022,2.43-2.394,2.43-6.477,0-12.953-.014-19.43.019-.791,0-1.021-.189-1-1,.05-2.277.011-2.277,2.245-2.277h9.155" transform="translate(-32.893 -32.108)" fill="#e99c2d"/>
        <path id="Trazado_197295" data-name="Trazado 197295" d="M114.441,92.484c-2.271,0-4.542-.022-6.812.014-.627.009-.72-.182-.6-.749.525-2.518.512-2.521,3.1-2.521,3.491,0,6.982.015,10.472-.014.6,0,.877.149,1.032.761.636,2.513.658,2.508-1.9,2.508h-5.287" transform="translate(-34.747 -28.976)" fill="#f9b440"/>
        <path id="Trazado_197296" data-name="Trazado 197296" d="M102.928,136.717c0,.236,0,.473,0,.709a.769.769,0,0,1-.793.859.757.757,0,0,1-.822-.826c-.016-.473,0-.946-.007-1.419-.009-.554.217-.946.8-.957s.833.363.828.924c0,.236,0,.473,0,.709" transform="translate(-32.903 -43.874)" fill="#e99c2d"/>
        <path id="Trazado_197297" data-name="Trazado 197297" d="M134.271,136.756c0,.236.009.473,0,.709a.76.76,0,0,1-.83.82.769.769,0,0,1-.787-.864c0-.473,0-.945,0-1.418,0-.562.255-.932.833-.918s.806.411.792.963c-.006.236,0,.473,0,.709" transform="translate(-43.083 -43.874)" fill="#e99c2d"/>
        <path id="Trazado_197298" data-name="Trazado 197298" d="M17.206,108.517c2.914,0,5.828.017,8.741-.014.627-.007.8.13.726.788-.428,3.562-.811,7.129-1.2,10.7a4.464,4.464,0,0,1-.606,2.019,7.936,7.936,0,0,0-1.225,5.117c.061.821.4,1.935-.17,2.417-.481.407-1.548.134-2.356.136-3.218.007-6.437-.018-9.655.019-.679.007-.893-.2-.827-.851.051-.5-.036-1.02.018-1.523a8.3,8.3,0,0,0-1.3-5.5c-.69-1.087-.536-2.361-.691-3.554-.389-2.987-.663-5.988-1.03-8.978-.082-.667.114-.788.731-.782,2.947.03,5.9.014,8.842.014m-.1,13.023c1.016,0,2.032.016,3.047,0,1.566-.03,2.288-1.138,1.612-2.537-1-2.07-2.052-4.113-3.077-6.17a1.65,1.65,0,0,0-3.078.011c-1.027,2.056-2.077,4.1-3.077,6.169-.668,1.384.066,2.5,1.628,2.527.982.018,1.963,0,2.945,0" transform="translate(-2.473 -35.241)" fill="#01aee8"/>
        <path id="Trazado_197299" data-name="Trazado 197299" d="M16.2,102.124c-3.491,0-6.981-.022-10.471.018-.727.008-.9-.205-.891-.907.02-2.365-.008-2.365,2.363-2.365,6.473,0,12.945.018,19.418-.022.859-.005,1.068.226,1.047,1.063-.056,2.211-.015,2.212-2.214,2.212H16.2" transform="translate(-1.572 -32.106)" fill="#0197ca"/>
        <path id="Trazado_197300" data-name="Trazado 197300" d="M18,92.484c-2.269,0-4.539-.021-6.807.013-.631.011-.718-.192-.6-.754.519-2.512.506-2.514,3.1-2.514,3.488,0,6.977.014,10.465-.014.6,0,.878.151,1.034.763.638,2.512.66,2.506-1.906,2.506H18" transform="translate(-3.426 -28.976)" fill="#01aee8"/>
        <path id="Trazado_197301" data-name="Trazado 197301" d="M4.87,136.609c0-.236-.011-.473,0-.708a.759.759,0,0,1,.831-.818.768.768,0,0,1,.785.865c.006.472,0,.945,0,1.417,0,.559-.257.932-.835.917s-.8-.415-.79-.965c0-.236,0-.472,0-.708Z" transform="translate(-1.58 -43.874)" fill="#0197ca"/>
        <path id="Trazado_197302" data-name="Trazado 197302" d="M37.826,136.72c0,.27.018.541,0,.809a.744.744,0,0,1-.787.756.761.761,0,0,1-.82-.829c-.016-.472,0-.945-.007-1.417-.007-.552.218-.945.8-.955s.828.369.825.927c0,.236,0,.472,0,.708h-.007" transform="translate(-11.76 -43.875)" fill="#0197ca"/>
        <path id="Trazado_197303" data-name="Trazado 197303" d="M65.367,108.516c2.916,0,5.832.018,8.748-.014.668-.007.859.146.774.845q-.641,5.3-1.181,10.6a6.372,6.372,0,0,1-.93,2.656,6.518,6.518,0,0,0-.914,3.775c.048,1.067.487,2.539-.186,3.106-.643.542-2.062.182-3.14.186-2.95.01-5.9-.018-8.85.019-.677.009-.905-.194-.833-.853.047-.436-.028-.884.015-1.321a8.917,8.917,0,0,0-1.34-5.807c-.694-1.1-.507-2.435-.667-3.666-.374-2.889-.643-5.791-1-8.681-.081-.662.047-.875.753-.866,2.916.038,5.832.016,8.749.016m.044,3.261a4.88,4.88,0,1,0,4.841,4.964,4.9,4.9,0,0,0-4.841-4.964" transform="translate(-18.138 -35.24)" fill="#06c5a4"/>
        <path id="Trazado_197304" data-name="Trazado 197304" d="M64.559,98.874c3.489,0,6.978.016,10.466-.014.656-.006.855.169.856.842,0,2.426.03,2.426-2.407,2.426-6.47,0-12.939-.013-19.408.018-.787,0-1.028-.187-1.011-1,.047-2.273.007-2.273,2.259-2.273h9.246" transform="translate(-17.232 -32.109)" fill="#05af92"/>
        <path id="Trazado_197305" data-name="Trazado 197305" d="M66.269,92.484c-2.266,0-4.533-.027-6.8.016-.693.013-.781-.207-.648-.816.536-2.452.522-2.456,3.046-2.456,3.518,0,7.036.014,10.553-.014.566,0,.866.128.966.715a18.84,18.84,0,0,0,.458,1.868c.15.535-.015.7-.575.7-2.334-.026-4.668-.011-7-.011" transform="translate(-19.088 -28.976)" fill="#06c5a4"/>
        <path id="Trazado_197306" data-name="Trazado 197306" d="M54.7,136.722c0,.269.019.541,0,.808a.75.75,0,0,1-.787.756.734.734,0,0,1-.807-.731c-.038-.5-.012-1.011-.019-1.516-.007-.551.219-.945.8-.953s.826.371.824.928c0,.236,0,.471,0,.708H54.7" transform="translate(-17.241 -43.875)" fill="#05af92"/>
        <path id="Trazado_197307" data-name="Trazado 197307" d="M86.045,136.8c0,.236.015.473,0,.708a.8.8,0,0,1-1.607-.038c-.022-.505-.01-1.011,0-1.517a.768.768,0,0,1,.778-.872c.577-.015.838.35.842.91,0,.269,0,.539,0,.809Z" transform="translate(-27.42 -43.875)" fill="#05af92"/>
        <path id="Trazado_197308" data-name="Trazado 197308" d="M25.115,23.339c.683-2.062,1.354-4.071,2.009-6.085a.508.508,0,0,1,.6-.4c.067.006.135,0,.2,0,1.145.02,2.512-.338,3.372.168.822.484.814,1.974,1.184,3.017.381,1.075.721,2.164,1.1,3.3Z" transform="translate(-8.157 -5.441)" fill="#bbe0fe"/>
        <path id="Trazado_197309" data-name="Trazado 197309" d="M28.91,44.265c-1.388,0-2.777-.02-4.165.011-.488.011-.609-.14-.629-.623-.107-2.643-.122-2.642,2.46-2.642,2.2,0,4.4.02,6.6-.013.573-.009.724.155.731.728.033,2.539.053,2.539-2.462,2.539H28.91" transform="translate(-7.822 -13.316)" fill="#bbe0fe"/>
        <path id="Trazado_197310" data-name="Trazado 197310" d="M28.91,34.621c-1.388,0-2.777-.02-4.165.011-.488.011-.609-.14-.629-.623-.107-2.643-.122-2.642,2.46-2.642,2.2,0,4.4.02,6.6-.013.573-.009.724.155.731.728.033,2.539.053,2.539-2.462,2.539H28.91" transform="translate(-7.822 -10.183)" fill="#bbe0fe"/>
        <path id="Trazado_197311" data-name="Trazado 197311" d="M29.028,50.656c1.422,0,2.844.018,4.265-.01.478-.009.615.122.635.616.111,2.65.127,2.649-2.51,2.649-2,0-4-.023-5.992.01-.889.016-1.3-.289-1.293-1.232.005-2.033-.026-2.033,2.051-2.033h2.843" transform="translate(-7.838 -16.449)" fill="#bbe0fe"/>
        <path id="Trazado_197312" data-name="Trazado 197312" d="M30.6,9.663a5.577,5.577,0,0,0,.7,0c.643-.082.934.061.941.832.008.82-.373.846-.971.806a8.767,8.767,0,0,0-1.409,0c-.644.061-.957-.061-.938-.837.017-.687.24-.882.866-.8a6.538,6.538,0,0,0,.806.005" transform="translate(-9.396 -3.13)" fill="#76aed3"/>
        <path id="Trazado_197313" data-name="Trazado 197313" d="M74.244,32q0,4.525,0,9.05c0,1.419-.471,1.893-1.881,1.894q-8.694.006-17.388,0c-1.417,0-1.889-.471-1.89-1.883,0-4.475,0-8.949-.007-13.422a2.872,2.872,0,0,1,.226-1.18c1.274-2.947,2.559-5.888,3.792-8.853a1,1,0,0,1,1.115-.718q6.3.036,12.609,0c.588,0,.978.129,1.149.711a.345.345,0,0,0,.039.093,14.1,14.1,0,0,1,2.263,9.431c-.157,1.612-.027,3.251-.027,4.878m-11.4-.45c1.049,0,2.1.021,3.146-.006a1.6,1.6,0,0,0,1.731-1.7q.043-3.2,0-6.394a1.573,1.573,0,0,0-1.667-1.657c-1.589-.032-3.18-.008-4.769-.009a1.657,1.657,0,0,0-1.5.87,10.777,10.777,0,0,0-1.834,7.187,1.687,1.687,0,0,0,1.746,1.7c1.048.028,2.1.006,3.146.006" transform="translate(-17.239 -5.485)" fill="#e3e3e1"/>
        <path id="Trazado_197314" data-name="Trazado 197314" d="M76.4,11.291a6.816,6.816,0,0,0-.7,0c-.61.063-.966-.006-.962-.812,0-.785.319-.88.95-.828a8.414,8.414,0,0,0,1.51,0c.642-.063.861.139.854.817-.006.655-.18.92-.842.826a5.815,5.815,0,0,0-.8-.006" transform="translate(-24.273 -3.132)" fill="#01aee9"/>
        <path id="Trazado_197315" data-name="Trazado 197315" d="M98.878,30.966c0-2.1.074-4.2-.024-6.3a8.732,8.732,0,0,1,1.137-4.749,13.938,13.938,0,0,0,2.024-5.054,20.968,20.968,0,0,0,.109-2.228c0-.413.09-.659.558-.593a.845.845,0,0,0,.1,0c.813.008,1.8-.267,2.388.1s.149,1.44.235,2.2a10.612,10.612,0,0,0,1.519,4.377,12.679,12.679,0,0,1,1.757,7.348c-.149,4.23-.037,8.468-.041,12.7,0,1.862-.714,2.568-2.585,2.573q-2.339.005-4.675,0c-1.785-.006-2.5-.735-2.5-2.55-.005-2.609,0-5.217,0-7.826" transform="translate(-32.104 -3.882)" fill="#01aee9"/>
        <path id="Trazado_197316" data-name="Trazado 197316" d="M104.535,6.471c-.88,0-1.764-.046-2.639.014-.756.051-.579-.435-.6-.846-.022-.458-.068-.833.636-.812q2.638.078,5.279,0c.754-.022.579.437.6.848.022.458.069.861-.637.81-.876-.063-1.76-.015-2.639-.015" transform="translate(-32.897 -1.568)" fill="#e3e3e1"/>
        <path id="Trazado_197317" data-name="Trazado 197317" d="M120.71,118.205c0,1.015.014,2.03,0,3.044a1.642,1.642,0,0,1-1.792,1.852q-3.1.033-6.192,0a1.611,1.611,0,0,1-1.773-1.764q-.034-3.1,0-6.192a1.63,1.63,0,0,1,1.839-1.8q3.044-.026,6.09,0a1.64,1.64,0,0,1,1.829,1.814c.02,1.015,0,2.03,0,3.045m-3.257,0c0-1.611,0-1.611-1.16-1.612-2.094,0-2.094,0-2.094,1.185,0,2.07,0,2.07,1.312,2.07,1.943,0,1.943,0,1.943-1.643" transform="translate(-36.03 -36.81)" fill="#010101"/>
        <path id="Trazado_197318" data-name="Trazado 197318" d="M19.355,123.116c-.981,0-1.964.015-2.945,0-1.562-.029-2.3-1.144-1.628-2.527,1-2.069,2.05-4.113,3.076-6.169a1.65,1.65,0,0,1,3.078-.012c1.025,2.057,2.078,4.1,3.077,6.171.675,1.4-.046,2.507-1.612,2.537-1.016.02-2.031,0-3.047,0m.6-3.283c-.165-.426-.244-.781-.629-1.023-.163.358-.415.618-.413,1.023Z" transform="translate(-4.721 -36.817)" fill="#020202"/>
        <path id="Trazado_197319" data-name="Trazado 197319" d="M67.647,113.353a4.88,4.88,0,1,1-4.916,4.894,4.9,4.9,0,0,1,4.916-4.894m1.586,4.881a1.622,1.622,0,1,0-1.6,1.618,1.63,1.63,0,0,0,1.6-1.618" transform="translate(-20.375 -36.816)" fill="#010202"/>
        <path id="Trazado_197320" data-name="Trazado 197320" d="M65.154,33.9c-1.049,0-2.1.021-3.146-.005a1.687,1.687,0,0,1-1.746-1.7A10.771,10.771,0,0,1,62.1,25.007a1.656,1.656,0,0,1,1.5-.87c1.59,0,3.18-.023,4.77.009A1.572,1.572,0,0,1,70.029,25.8q.046,3.2,0,6.393A1.6,1.6,0,0,1,68.3,33.9c-1.048.026-2.1.005-3.146.005m1.631-4.827a5.245,5.245,0,0,1,.007-.812c.113-.709-.142-.921-.868-.891a2.3,2.3,0,0,0-2.394,2.2c-.11.762.032,1.246.96,1.076a3.964,3.964,0,0,1,.711-.006c1.584,0,1.584,0,1.584-1.572" transform="translate(-19.547 -7.837)" fill="#010202"/>
        <path id="Trazado_197321" data-name="Trazado 197321" d="M119.024,119.78c0,1.643,0,1.643-1.943,1.643-1.313,0-1.313,0-1.312-2.07,0-1.186,0-1.186,2.094-1.185,1.16,0,1.16,0,1.16,1.612" transform="translate(-37.601 -38.38)" fill="#e99c2d"/>
        <path id="Trazado_197322" data-name="Trazado 197322" d="M22.061,122.457H21.019c0-.405.25-.665.413-1.023.384.242.463.6.629,1.023" transform="translate(-6.827 -39.441)" fill="#0197ca"/>
        <path id="Trazado_197323" data-name="Trazado 197323" d="M70.8,119.8a1.622,1.622,0,1,1-1.592-1.625A1.632,1.632,0,0,1,70.8,119.8" transform="translate(-21.942 -38.382)" fill="#05af92"/>
        <path id="Trazado_197324" data-name="Trazado 197324" d="M68.379,30.635c0,1.572,0,1.572-1.584,1.572a3.964,3.964,0,0,0-.711.006c-.928.171-1.07-.314-.96-1.076a2.3,2.3,0,0,1,2.394-2.2c.725-.03.98.182.868.891a5.245,5.245,0,0,0-.007.812" transform="translate(-21.141 -9.396)" fill="#fefefe"/>
      </g>
    </g>
  </g>
</svg>
